G04*
G04 #@! TF.GenerationSoftware,Altium Limited,Altium Designer,20.0.10 (225)*
G04*
G04 Layer_Color=65535*
%FSLAX25Y25*%
%MOIN*%
G70*
G01*
G75*
%ADD10C,0.00984*%
%ADD11C,0.00787*%
%ADD12C,0.01000*%
G36*
X311825Y412633D02*
X291529D01*
Y423759D01*
X311825D01*
Y412633D01*
D02*
G37*
G36*
X267111Y458000D02*
X222000D01*
Y467091D01*
X267111D01*
Y458000D01*
D02*
G37*
G36*
X237935Y391417D02*
X237974D01*
X238018Y391412D01*
X238124Y391390D01*
X238240Y391362D01*
X238362Y391317D01*
X238485Y391251D01*
X238546Y391212D01*
X238601Y391167D01*
X238607Y391162D01*
X238612Y391156D01*
X238629Y391140D01*
X238646Y391123D01*
X238673Y391095D01*
X238695Y391062D01*
X238756Y390984D01*
X238818Y390884D01*
X238873Y390762D01*
X238923Y390624D01*
X238956Y390468D01*
X238485Y390429D01*
Y390435D01*
X238479Y390441D01*
X238474Y390474D01*
X238457Y390524D01*
X238435Y390585D01*
X238412Y390651D01*
X238379Y390718D01*
X238340Y390779D01*
X238301Y390829D01*
X238290Y390840D01*
X238268Y390862D01*
X238229Y390896D01*
X238174Y390934D01*
X238102Y390968D01*
X238024Y391001D01*
X237930Y391023D01*
X237830Y391034D01*
X237791D01*
X237746Y391029D01*
X237697Y391018D01*
X237630Y391001D01*
X237563Y390979D01*
X237497Y390951D01*
X237430Y390907D01*
X237419Y390901D01*
X237391Y390879D01*
X237352Y390840D01*
X237302Y390785D01*
X237247Y390718D01*
X237186Y390640D01*
X237130Y390540D01*
X237075Y390429D01*
Y390424D01*
X237069Y390413D01*
X237064Y390396D01*
X237053Y390374D01*
X237047Y390341D01*
X237036Y390302D01*
X237025Y390257D01*
X237014Y390202D01*
X236997Y390141D01*
X236986Y390074D01*
X236975Y390002D01*
X236969Y389924D01*
X236958Y389836D01*
X236953Y389747D01*
X236947Y389647D01*
Y389547D01*
X236953Y389552D01*
X236975Y389586D01*
X237014Y389630D01*
X237064Y389686D01*
X237119Y389752D01*
X237191Y389813D01*
X237269Y389874D01*
X237358Y389930D01*
X237364D01*
X237369Y389935D01*
X237402Y389952D01*
X237452Y389969D01*
X237519Y389997D01*
X237597Y390019D01*
X237685Y390035D01*
X237780Y390052D01*
X237880Y390057D01*
X237924D01*
X237957Y390052D01*
X238002Y390047D01*
X238046Y390041D01*
X238102Y390030D01*
X238157Y390013D01*
X238285Y389974D01*
X238351Y389947D01*
X238418Y389908D01*
X238485Y389869D01*
X238557Y389824D01*
X238623Y389769D01*
X238684Y389708D01*
X238690Y389702D01*
X238701Y389691D01*
X238718Y389675D01*
X238734Y389647D01*
X238762Y389608D01*
X238790Y389569D01*
X238818Y389519D01*
X238851Y389464D01*
X238884Y389403D01*
X238912Y389336D01*
X238940Y389258D01*
X238967Y389181D01*
X238984Y389097D01*
X239001Y389003D01*
X239012Y388909D01*
X239017Y388809D01*
Y388803D01*
Y388792D01*
Y388775D01*
Y388748D01*
X239012Y388714D01*
Y388681D01*
X238995Y388592D01*
X238979Y388487D01*
X238951Y388376D01*
X238912Y388254D01*
X238856Y388137D01*
Y388132D01*
X238851Y388126D01*
X238840Y388109D01*
X238829Y388087D01*
X238795Y388032D01*
X238745Y387960D01*
X238684Y387882D01*
X238612Y387804D01*
X238523Y387726D01*
X238429Y387660D01*
X238423D01*
X238418Y387654D01*
X238401Y387643D01*
X238379Y387638D01*
X238324Y387610D01*
X238251Y387582D01*
X238157Y387549D01*
X238052Y387527D01*
X237935Y387505D01*
X237807Y387499D01*
X237780D01*
X237752Y387505D01*
X237707D01*
X237658Y387510D01*
X237602Y387521D01*
X237536Y387538D01*
X237469Y387555D01*
X237391Y387577D01*
X237314Y387604D01*
X237236Y387638D01*
X237153Y387682D01*
X237075Y387732D01*
X236997Y387788D01*
X236919Y387854D01*
X236847Y387932D01*
X236842Y387937D01*
X236831Y387954D01*
X236814Y387976D01*
X236792Y388015D01*
X236758Y388065D01*
X236731Y388121D01*
X236697Y388193D01*
X236664Y388270D01*
X236625Y388365D01*
X236592Y388470D01*
X236564Y388587D01*
X236537Y388714D01*
X236509Y388859D01*
X236492Y389014D01*
X236481Y389181D01*
X236475Y389358D01*
Y389364D01*
Y389369D01*
Y389386D01*
Y389408D01*
X236481Y389464D01*
Y389541D01*
X236487Y389630D01*
X236498Y389736D01*
X236509Y389852D01*
X236525Y389980D01*
X236548Y390107D01*
X236575Y390246D01*
X236609Y390379D01*
X236648Y390513D01*
X236697Y390640D01*
X236753Y390762D01*
X236814Y390879D01*
X236886Y390979D01*
X236892Y390984D01*
X236903Y390996D01*
X236925Y391018D01*
X236953Y391051D01*
X236986Y391084D01*
X237031Y391118D01*
X237086Y391162D01*
X237141Y391201D01*
X237208Y391240D01*
X237280Y391284D01*
X237364Y391317D01*
X237447Y391356D01*
X237541Y391384D01*
X237641Y391406D01*
X237746Y391417D01*
X237857Y391423D01*
X237902D01*
X237935Y391417D01*
D02*
G37*
G36*
X246904Y390407D02*
X246943Y390402D01*
X247026Y390391D01*
X247126Y390368D01*
X247231Y390335D01*
X247337Y390285D01*
X247442Y390224D01*
X247448D01*
X247453Y390213D01*
X247487Y390191D01*
X247537Y390146D01*
X247598Y390091D01*
X247664Y390019D01*
X247731Y389930D01*
X247797Y389825D01*
X247853Y389708D01*
Y389702D01*
X247859Y389691D01*
X247864Y389675D01*
X247875Y389652D01*
X247886Y389619D01*
X247897Y389580D01*
X247925Y389492D01*
X247953Y389381D01*
X247975Y389258D01*
X247992Y389120D01*
X247997Y388975D01*
Y388970D01*
Y388959D01*
Y388936D01*
Y388903D01*
X247992Y388864D01*
Y388820D01*
X247981Y388720D01*
X247958Y388598D01*
X247931Y388470D01*
X247892Y388337D01*
X247842Y388204D01*
Y388198D01*
X247836Y388187D01*
X247825Y388171D01*
X247814Y388148D01*
X247775Y388087D01*
X247725Y388010D01*
X247664Y387926D01*
X247586Y387843D01*
X247498Y387760D01*
X247392Y387682D01*
X247387D01*
X247381Y387677D01*
X247365Y387666D01*
X247342Y387654D01*
X247287Y387627D01*
X247209Y387593D01*
X247115Y387560D01*
X247015Y387532D01*
X246898Y387510D01*
X246782Y387505D01*
X246743D01*
X246698Y387510D01*
X246643Y387516D01*
X246576Y387527D01*
X246504Y387543D01*
X246432Y387566D01*
X246360Y387599D01*
X246354Y387604D01*
X246327Y387616D01*
X246293Y387638D01*
X246249Y387671D01*
X246205Y387704D01*
X246149Y387749D01*
X246099Y387799D01*
X246055Y387854D01*
Y386500D01*
X245583D01*
Y390352D01*
X246010D01*
Y389985D01*
X246016Y389997D01*
X246038Y390019D01*
X246066Y390057D01*
X246110Y390102D01*
X246160Y390158D01*
X246216Y390207D01*
X246282Y390257D01*
X246349Y390302D01*
X246360Y390307D01*
X246382Y390318D01*
X246427Y390335D01*
X246482Y390357D01*
X246549Y390380D01*
X246626Y390396D01*
X246715Y390407D01*
X246815Y390413D01*
X246876D01*
X246904Y390407D01*
D02*
G37*
G36*
X258714D02*
X258753D01*
X258792Y390402D01*
X258886Y390385D01*
X258986Y390357D01*
X259092Y390313D01*
X259197Y390257D01*
X259286Y390180D01*
X259297Y390169D01*
X259319Y390135D01*
X259358Y390085D01*
X259375Y390047D01*
X259397Y390008D01*
X259419Y389958D01*
X259436Y389908D01*
X259458Y389852D01*
X259475Y389786D01*
X259486Y389719D01*
X259497Y389641D01*
X259508Y389564D01*
Y389475D01*
Y387566D01*
X259036D01*
Y389314D01*
Y389319D01*
Y389325D01*
Y389358D01*
Y389408D01*
X259031Y389469D01*
X259025Y389536D01*
X259019Y389602D01*
X259008Y389669D01*
X258992Y389719D01*
Y389725D01*
X258981Y389741D01*
X258970Y389763D01*
X258953Y389791D01*
X258931Y389825D01*
X258903Y389858D01*
X258870Y389891D01*
X258825Y389924D01*
X258820Y389930D01*
X258803Y389935D01*
X258781Y389947D01*
X258742Y389963D01*
X258703Y389980D01*
X258653Y389991D01*
X258603Y389997D01*
X258542Y390002D01*
X258514D01*
X258492Y389997D01*
X258437Y389991D01*
X258370Y389980D01*
X258293Y389952D01*
X258209Y389919D01*
X258126Y389869D01*
X258048Y389802D01*
X258043Y389791D01*
X258021Y389763D01*
X257987Y389719D01*
X257954Y389652D01*
X257915Y389564D01*
X257887Y389458D01*
X257865Y389331D01*
X257854Y389181D01*
Y387566D01*
X257382D01*
Y389369D01*
Y389375D01*
Y389386D01*
Y389397D01*
Y389419D01*
X257377Y389480D01*
X257366Y389547D01*
X257355Y389625D01*
X257332Y389702D01*
X257305Y389774D01*
X257266Y389841D01*
X257260Y389847D01*
X257244Y389869D01*
X257216Y389891D01*
X257177Y389924D01*
X257127Y389952D01*
X257060Y389980D01*
X256983Y389997D01*
X256888Y390002D01*
X256855D01*
X256816Y389997D01*
X256772Y389991D01*
X256716Y389974D01*
X256650Y389958D01*
X256589Y389930D01*
X256522Y389897D01*
X256517Y389891D01*
X256494Y389874D01*
X256467Y389852D01*
X256428Y389819D01*
X256389Y389774D01*
X256350Y389719D01*
X256311Y389658D01*
X256278Y389586D01*
X256272Y389575D01*
X256267Y389547D01*
X256256Y389503D01*
X256239Y389441D01*
X256222Y389358D01*
X256211Y389258D01*
X256206Y389142D01*
X256200Y389009D01*
Y387566D01*
X255728D01*
Y390352D01*
X256150D01*
Y389952D01*
X256156Y389963D01*
X256172Y389985D01*
X256206Y390024D01*
X256244Y390069D01*
X256294Y390124D01*
X256356Y390180D01*
X256422Y390235D01*
X256500Y390285D01*
X256511Y390291D01*
X256539Y390307D01*
X256583Y390324D01*
X256644Y390352D01*
X256716Y390374D01*
X256800Y390391D01*
X256894Y390407D01*
X256994Y390413D01*
X257044D01*
X257105Y390407D01*
X257171Y390396D01*
X257255Y390380D01*
X257338Y390357D01*
X257421Y390324D01*
X257499Y390280D01*
X257510Y390274D01*
X257532Y390257D01*
X257565Y390230D01*
X257610Y390185D01*
X257654Y390135D01*
X257704Y390074D01*
X257749Y390002D01*
X257782Y389919D01*
X257787Y389924D01*
X257799Y389941D01*
X257815Y389963D01*
X257843Y389997D01*
X257876Y390035D01*
X257915Y390074D01*
X257960Y390119D01*
X258015Y390169D01*
X258076Y390213D01*
X258137Y390257D01*
X258209Y390296D01*
X258287Y390335D01*
X258370Y390368D01*
X258459Y390391D01*
X258548Y390407D01*
X258648Y390413D01*
X258686D01*
X258714Y390407D01*
D02*
G37*
G36*
X244090Y390407D02*
X244129D01*
X244168Y390402D01*
X244262Y390385D01*
X244362Y390357D01*
X244467Y390313D01*
X244573Y390257D01*
X244662Y390180D01*
X244673Y390169D01*
X244695Y390135D01*
X244734Y390085D01*
X244750Y390047D01*
X244773Y390008D01*
X244795Y389958D01*
X244812Y389908D01*
X244834Y389852D01*
X244850Y389786D01*
X244862Y389719D01*
X244873Y389641D01*
X244884Y389564D01*
Y389475D01*
Y387566D01*
X244412D01*
Y389314D01*
Y389319D01*
Y389325D01*
Y389358D01*
Y389408D01*
X244406Y389469D01*
X244401Y389536D01*
X244395Y389602D01*
X244384Y389669D01*
X244368Y389719D01*
Y389724D01*
X244356Y389741D01*
X244345Y389763D01*
X244329Y389791D01*
X244306Y389824D01*
X244279Y389858D01*
X244245Y389891D01*
X244201Y389924D01*
X244196Y389930D01*
X244179Y389935D01*
X244157Y389947D01*
X244118Y389963D01*
X244079Y389980D01*
X244029Y389991D01*
X243979Y389997D01*
X243918Y390002D01*
X243890D01*
X243868Y389997D01*
X243813Y389991D01*
X243746Y389980D01*
X243668Y389952D01*
X243585Y389919D01*
X243502Y389869D01*
X243424Y389802D01*
X243419Y389791D01*
X243396Y389763D01*
X243363Y389719D01*
X243330Y389652D01*
X243291Y389564D01*
X243263Y389458D01*
X243241Y389331D01*
X243230Y389181D01*
Y387566D01*
X242758D01*
Y389369D01*
Y389375D01*
Y389386D01*
Y389397D01*
Y389419D01*
X242753Y389480D01*
X242741Y389547D01*
X242730Y389625D01*
X242708Y389702D01*
X242680Y389774D01*
X242641Y389841D01*
X242636Y389847D01*
X242619Y389869D01*
X242592Y389891D01*
X242553Y389924D01*
X242503Y389952D01*
X242436Y389980D01*
X242358Y389997D01*
X242264Y390002D01*
X242231D01*
X242192Y389997D01*
X242148Y389991D01*
X242092Y389974D01*
X242025Y389958D01*
X241964Y389930D01*
X241898Y389897D01*
X241892Y389891D01*
X241870Y389874D01*
X241842Y389852D01*
X241804Y389819D01*
X241765Y389774D01*
X241726Y389719D01*
X241687Y389658D01*
X241654Y389586D01*
X241648Y389575D01*
X241642Y389547D01*
X241631Y389503D01*
X241615Y389441D01*
X241598Y389358D01*
X241587Y389258D01*
X241581Y389142D01*
X241576Y389009D01*
Y387566D01*
X241104D01*
Y390352D01*
X241526D01*
Y389952D01*
X241531Y389963D01*
X241548Y389985D01*
X241581Y390024D01*
X241620Y390069D01*
X241670Y390124D01*
X241731Y390180D01*
X241798Y390235D01*
X241876Y390285D01*
X241887Y390291D01*
X241914Y390307D01*
X241959Y390324D01*
X242020Y390352D01*
X242092Y390374D01*
X242175Y390390D01*
X242270Y390407D01*
X242370Y390413D01*
X242420D01*
X242480Y390407D01*
X242547Y390396D01*
X242630Y390379D01*
X242714Y390357D01*
X242797Y390324D01*
X242875Y390280D01*
X242886Y390274D01*
X242908Y390257D01*
X242941Y390230D01*
X242986Y390185D01*
X243030Y390135D01*
X243080Y390074D01*
X243124Y390002D01*
X243158Y389919D01*
X243163Y389924D01*
X243174Y389941D01*
X243191Y389963D01*
X243219Y389997D01*
X243252Y390035D01*
X243291Y390074D01*
X243335Y390119D01*
X243391Y390169D01*
X243452Y390213D01*
X243513Y390257D01*
X243585Y390296D01*
X243663Y390335D01*
X243746Y390368D01*
X243835Y390390D01*
X243923Y390407D01*
X244023Y390413D01*
X244062D01*
X244090Y390407D01*
D02*
G37*
G36*
X234971D02*
X235055Y390402D01*
X235143Y390390D01*
X235238Y390368D01*
X235338Y390346D01*
X235432Y390313D01*
X235438D01*
X235443Y390307D01*
X235471Y390296D01*
X235515Y390274D01*
X235571Y390246D01*
X235632Y390207D01*
X235693Y390163D01*
X235748Y390113D01*
X235798Y390057D01*
X235804Y390052D01*
X235815Y390030D01*
X235837Y389991D01*
X235865Y389947D01*
X235893Y389880D01*
X235920Y389808D01*
X235943Y389724D01*
X235965Y389630D01*
X235504Y389569D01*
Y389580D01*
X235499Y389602D01*
X235488Y389641D01*
X235471Y389691D01*
X235443Y389741D01*
X235410Y389797D01*
X235371Y389852D01*
X235315Y389902D01*
X235310Y389908D01*
X235288Y389919D01*
X235254Y389941D01*
X235205Y389963D01*
X235149Y389985D01*
X235077Y390008D01*
X234988Y390019D01*
X234894Y390024D01*
X234838D01*
X234783Y390019D01*
X234711Y390013D01*
X234638Y389997D01*
X234561Y389980D01*
X234489Y389952D01*
X234427Y389913D01*
X234422Y389908D01*
X234405Y389897D01*
X234383Y389874D01*
X234361Y389841D01*
X234333Y389808D01*
X234311Y389763D01*
X234294Y389714D01*
X234289Y389664D01*
Y389658D01*
Y389647D01*
X234294Y389630D01*
Y389608D01*
X234311Y389552D01*
X234344Y389497D01*
X234350Y389491D01*
X234355Y389486D01*
X234366Y389469D01*
X234389Y389453D01*
X234411Y389436D01*
X234444Y389414D01*
X234483Y389397D01*
X234527Y389375D01*
X234533D01*
X234544Y389369D01*
X234566Y389364D01*
X234605Y389347D01*
X234661Y389331D01*
X234733Y389314D01*
X234777Y389297D01*
X234827Y389286D01*
X234883Y389269D01*
X234944Y389253D01*
X234949D01*
X234966Y389247D01*
X234994Y389242D01*
X235027Y389231D01*
X235066Y389219D01*
X235116Y389208D01*
X235221Y389175D01*
X235338Y389142D01*
X235454Y389103D01*
X235560Y389064D01*
X235604Y389047D01*
X235643Y389031D01*
X235654Y389025D01*
X235676Y389014D01*
X235710Y388998D01*
X235759Y388970D01*
X235809Y388936D01*
X235859Y388892D01*
X235909Y388842D01*
X235954Y388787D01*
X235959Y388781D01*
X235970Y388759D01*
X235993Y388726D01*
X236015Y388676D01*
X236031Y388615D01*
X236054Y388548D01*
X236065Y388470D01*
X236070Y388381D01*
Y388370D01*
Y388343D01*
X236065Y388298D01*
X236054Y388237D01*
X236037Y388171D01*
X236009Y388098D01*
X235976Y388015D01*
X235932Y387937D01*
X235926Y387926D01*
X235904Y387904D01*
X235876Y387865D01*
X235832Y387821D01*
X235771Y387771D01*
X235704Y387716D01*
X235626Y387666D01*
X235532Y387615D01*
X235526D01*
X235521Y387610D01*
X235488Y387599D01*
X235432Y387582D01*
X235360Y387560D01*
X235271Y387538D01*
X235171Y387521D01*
X235066Y387510D01*
X234944Y387505D01*
X234894D01*
X234855Y387510D01*
X234810D01*
X234755Y387516D01*
X234699Y387521D01*
X234638Y387532D01*
X234505Y387560D01*
X234366Y387599D01*
X234233Y387654D01*
X234172Y387688D01*
X234117Y387726D01*
X234111Y387732D01*
X234106Y387738D01*
X234072Y387771D01*
X234022Y387821D01*
X233967Y387899D01*
X233906Y387993D01*
X233845Y388104D01*
X233795Y388243D01*
X233756Y388398D01*
X234222Y388470D01*
Y388465D01*
Y388459D01*
X234233Y388426D01*
X234244Y388370D01*
X234267Y388309D01*
X234294Y388243D01*
X234328Y388171D01*
X234378Y388098D01*
X234439Y388037D01*
X234450Y388032D01*
X234472Y388015D01*
X234516Y387993D01*
X234572Y387965D01*
X234644Y387937D01*
X234727Y387915D01*
X234827Y387899D01*
X234944Y387893D01*
X234999D01*
X235055Y387899D01*
X235127Y387910D01*
X235205Y387926D01*
X235288Y387948D01*
X235360Y387976D01*
X235426Y388021D01*
X235432Y388026D01*
X235454Y388043D01*
X235476Y388071D01*
X235510Y388109D01*
X235538Y388154D01*
X235565Y388209D01*
X235582Y388265D01*
X235587Y388332D01*
Y388337D01*
Y388359D01*
X235582Y388387D01*
X235571Y388426D01*
X235554Y388465D01*
X235526Y388504D01*
X235493Y388548D01*
X235443Y388581D01*
X235438Y388587D01*
X235421Y388592D01*
X235393Y388609D01*
X235349Y388626D01*
X235282Y388648D01*
X235243Y388665D01*
X235199Y388676D01*
X235149Y388692D01*
X235093Y388709D01*
X235033Y388726D01*
X234960Y388742D01*
X234955D01*
X234938Y388748D01*
X234910Y388753D01*
X234877Y388764D01*
X234833Y388775D01*
X234783Y388792D01*
X234677Y388820D01*
X234555Y388859D01*
X234439Y388892D01*
X234328Y388931D01*
X234278Y388953D01*
X234239Y388970D01*
X234228Y388975D01*
X234206Y388986D01*
X234172Y389009D01*
X234128Y389036D01*
X234078Y389075D01*
X234028Y389120D01*
X233978Y389170D01*
X233934Y389231D01*
X233928Y389236D01*
X233917Y389258D01*
X233900Y389297D01*
X233884Y389342D01*
X233867Y389397D01*
X233850Y389464D01*
X233839Y389530D01*
X233834Y389608D01*
Y389619D01*
Y389641D01*
X233839Y389675D01*
X233845Y389724D01*
X233856Y389774D01*
X233867Y389836D01*
X233889Y389891D01*
X233917Y389952D01*
X233922Y389958D01*
X233934Y389980D01*
X233950Y390008D01*
X233978Y390047D01*
X234011Y390085D01*
X234050Y390135D01*
X234095Y390180D01*
X234150Y390218D01*
X234156Y390224D01*
X234172Y390230D01*
X234194Y390246D01*
X234228Y390263D01*
X234272Y390285D01*
X234322Y390307D01*
X234383Y390330D01*
X234450Y390352D01*
X234461Y390357D01*
X234483Y390363D01*
X234522Y390374D01*
X234572Y390385D01*
X234633Y390396D01*
X234699Y390402D01*
X234777Y390413D01*
X234910D01*
X234971Y390407D01*
D02*
G37*
G36*
X251266Y390407D02*
X251300D01*
X251344Y390402D01*
X251449Y390385D01*
X251566Y390357D01*
X251688Y390313D01*
X251810Y390257D01*
X251927Y390180D01*
X251932D01*
X251938Y390169D01*
X251971Y390135D01*
X252021Y390085D01*
X252082Y390013D01*
X252143Y389924D01*
X252204Y389813D01*
X252260Y389686D01*
X252298Y389536D01*
X251838Y389464D01*
Y389469D01*
X251832Y389475D01*
X251827Y389508D01*
X251810Y389558D01*
X251782Y389619D01*
X251755Y389686D01*
X251710Y389758D01*
X251660Y389825D01*
X251605Y389880D01*
X251599Y389885D01*
X251577Y389902D01*
X251538Y389924D01*
X251494Y389952D01*
X251433Y389980D01*
X251366Y390002D01*
X251288Y390019D01*
X251205Y390024D01*
X251172D01*
X251144Y390019D01*
X251083Y390013D01*
X251000Y389991D01*
X250911Y389963D01*
X250811Y389919D01*
X250717Y389852D01*
X250672Y389813D01*
X250628Y389769D01*
Y389763D01*
X250617Y389758D01*
X250606Y389741D01*
X250595Y389719D01*
X250578Y389691D01*
X250556Y389658D01*
X250539Y389619D01*
X250517Y389575D01*
X250495Y389519D01*
X250478Y389458D01*
X250456Y389392D01*
X250439Y389319D01*
X250428Y389242D01*
X250417Y389153D01*
X250406Y389059D01*
Y388959D01*
Y388953D01*
Y388936D01*
Y388903D01*
X250412Y388870D01*
Y388820D01*
X250417Y388770D01*
X250434Y388648D01*
X250456Y388515D01*
X250495Y388376D01*
X250545Y388254D01*
X250578Y388193D01*
X250617Y388143D01*
X250628Y388132D01*
X250656Y388104D01*
X250706Y388065D01*
X250767Y388021D01*
X250850Y387971D01*
X250944Y387932D01*
X251055Y387904D01*
X251116Y387899D01*
X251177Y387893D01*
X251188D01*
X251222Y387899D01*
X251277Y387904D01*
X251338Y387915D01*
X251411Y387932D01*
X251488Y387965D01*
X251566Y388004D01*
X251638Y388060D01*
X251649Y388065D01*
X251666Y388093D01*
X251699Y388132D01*
X251738Y388193D01*
X251777Y388265D01*
X251821Y388354D01*
X251854Y388465D01*
X251877Y388587D01*
X252343Y388526D01*
Y388520D01*
X252337Y388504D01*
X252332Y388481D01*
X252326Y388448D01*
X252315Y388404D01*
X252304Y388359D01*
X252265Y388248D01*
X252215Y388132D01*
X252143Y388004D01*
X252054Y387882D01*
X252004Y387826D01*
X251949Y387771D01*
X251943Y387765D01*
X251932Y387760D01*
X251916Y387749D01*
X251893Y387732D01*
X251866Y387710D01*
X251827Y387688D01*
X251782Y387666D01*
X251738Y387638D01*
X251627Y387588D01*
X251494Y387549D01*
X251349Y387516D01*
X251266Y387510D01*
X251183Y387505D01*
X251127D01*
X251089Y387510D01*
X251039Y387516D01*
X250983Y387527D01*
X250922Y387538D01*
X250855Y387549D01*
X250706Y387593D01*
X250634Y387627D01*
X250556Y387660D01*
X250478Y387704D01*
X250406Y387754D01*
X250334Y387810D01*
X250267Y387876D01*
X250262Y387882D01*
X250251Y387893D01*
X250234Y387915D01*
X250212Y387943D01*
X250189Y387982D01*
X250156Y388032D01*
X250129Y388087D01*
X250095Y388148D01*
X250062Y388221D01*
X250034Y388304D01*
X250001Y388387D01*
X249979Y388487D01*
X249956Y388587D01*
X249940Y388703D01*
X249929Y388820D01*
X249923Y388948D01*
Y388953D01*
Y388970D01*
Y388992D01*
Y389025D01*
X249929Y389064D01*
Y389108D01*
X249934Y389159D01*
X249940Y389214D01*
X249956Y389336D01*
X249984Y389469D01*
X250017Y389602D01*
X250067Y389736D01*
Y389741D01*
X250073Y389752D01*
X250084Y389769D01*
X250095Y389791D01*
X250129Y389852D01*
X250178Y389924D01*
X250245Y390008D01*
X250323Y390091D01*
X250417Y390174D01*
X250522Y390241D01*
X250528D01*
X250539Y390246D01*
X250556Y390257D01*
X250578Y390268D01*
X250606Y390280D01*
X250639Y390296D01*
X250722Y390330D01*
X250817Y390357D01*
X250933Y390385D01*
X251055Y390407D01*
X251188Y390413D01*
X251233D01*
X251266Y390407D01*
D02*
G37*
G36*
X228189Y387566D02*
X227706D01*
X227262Y389231D01*
X227151Y389708D01*
X226591Y387566D01*
X226091D01*
X225248Y390352D01*
X225742D01*
X226186Y388742D01*
X226341Y388143D01*
Y388148D01*
X226347Y388159D01*
X226352Y388187D01*
X226358Y388204D01*
X226363Y388232D01*
X226369Y388265D01*
X226380Y388304D01*
X226391Y388348D01*
X226408Y388404D01*
X226424Y388465D01*
X226441Y388537D01*
X226463Y388620D01*
X226485Y388714D01*
X226929Y390352D01*
X227412D01*
X227829Y388731D01*
X227967Y388198D01*
X228128Y388737D01*
X228606Y390352D01*
X229066D01*
X228189Y387566D01*
D02*
G37*
G36*
X224315D02*
X223833D01*
X223389Y389231D01*
X223278Y389708D01*
X222717Y387566D01*
X222217D01*
X221374Y390352D01*
X221868D01*
X222312Y388742D01*
X222467Y388143D01*
Y388148D01*
X222473Y388159D01*
X222478Y388187D01*
X222484Y388204D01*
X222489Y388232D01*
X222495Y388265D01*
X222506Y388304D01*
X222517Y388348D01*
X222534Y388404D01*
X222551Y388465D01*
X222567Y388537D01*
X222589Y388620D01*
X222611Y388714D01*
X223056Y390352D01*
X223538D01*
X223955Y388731D01*
X224093Y388198D01*
X224254Y388737D01*
X224732Y390352D01*
X225192D01*
X224315Y387566D01*
D02*
G37*
G36*
X220442D02*
X219959D01*
X219515Y389231D01*
X219404Y389708D01*
X218843Y387566D01*
X218344D01*
X217500Y390352D01*
X217994D01*
X218438Y388742D01*
X218593Y388143D01*
Y388148D01*
X218599Y388159D01*
X218604Y388187D01*
X218610Y388204D01*
X218616Y388232D01*
X218621Y388265D01*
X218632Y388304D01*
X218643Y388348D01*
X218660Y388404D01*
X218677Y388465D01*
X218693Y388537D01*
X218716Y388620D01*
X218738Y388714D01*
X219182Y390352D01*
X219665D01*
X220081Y388731D01*
X220219Y388198D01*
X220380Y388737D01*
X220858Y390352D01*
X221318D01*
X220442Y387566D01*
D02*
G37*
G36*
X249240Y387566D02*
X248702D01*
Y388104D01*
X249240D01*
Y387566D01*
D02*
G37*
G36*
X232807Y388920D02*
X233329D01*
Y388487D01*
X232807D01*
Y387566D01*
X232335D01*
Y388487D01*
X230665D01*
Y388920D01*
X232424Y391406D01*
X232807D01*
Y388920D01*
D02*
G37*
G36*
X230137Y387566D02*
X229599D01*
Y388104D01*
X230137D01*
Y387566D01*
D02*
G37*
G36*
X240166Y390352D02*
X240644D01*
Y389985D01*
X240166D01*
Y388348D01*
Y388337D01*
Y388315D01*
Y388282D01*
X240172Y388243D01*
X240177Y388154D01*
X240183Y388115D01*
X240188Y388087D01*
X240194Y388076D01*
X240211Y388054D01*
X240233Y388026D01*
X240272Y387999D01*
X240283Y387993D01*
X240311Y387982D01*
X240360Y387971D01*
X240433Y387965D01*
X240488D01*
X240516Y387971D01*
X240555D01*
X240599Y387976D01*
X240644Y387982D01*
X240705Y387566D01*
X240693D01*
X240671Y387560D01*
X240632Y387555D01*
X240582Y387549D01*
X240527Y387538D01*
X240466Y387532D01*
X240344Y387527D01*
X240299D01*
X240255Y387532D01*
X240199Y387538D01*
X240133Y387543D01*
X240066Y387560D01*
X240005Y387577D01*
X239944Y387604D01*
X239939Y387610D01*
X239922Y387621D01*
X239900Y387638D01*
X239866Y387666D01*
X239839Y387693D01*
X239806Y387732D01*
X239772Y387771D01*
X239750Y387821D01*
Y387826D01*
X239739Y387849D01*
X239733Y387888D01*
X239722Y387943D01*
X239711Y388015D01*
X239705Y388059D01*
Y388109D01*
X239700Y388171D01*
X239694Y388232D01*
Y388298D01*
Y388376D01*
Y389985D01*
X239345D01*
Y390352D01*
X239694D01*
Y391040D01*
X240166Y391323D01*
Y390352D01*
D02*
G37*
G36*
X253969Y390407D02*
X254019Y390402D01*
X254075Y390391D01*
X254136Y390380D01*
X254208Y390368D01*
X254358Y390318D01*
X254435Y390291D01*
X254513Y390252D01*
X254591Y390213D01*
X254668Y390158D01*
X254741Y390102D01*
X254813Y390035D01*
X254818Y390030D01*
X254829Y390019D01*
X254846Y389997D01*
X254868Y389969D01*
X254896Y389930D01*
X254929Y389880D01*
X254962Y389825D01*
X254996Y389763D01*
X255029Y389697D01*
X255062Y389614D01*
X255096Y389530D01*
X255123Y389436D01*
X255146Y389336D01*
X255162Y389231D01*
X255173Y389120D01*
X255179Y388998D01*
Y388992D01*
Y388975D01*
Y388948D01*
Y388909D01*
X255173Y388864D01*
X255168Y388809D01*
Y388753D01*
X255157Y388692D01*
X255140Y388554D01*
X255107Y388415D01*
X255068Y388276D01*
X255012Y388148D01*
Y388143D01*
X255007Y388137D01*
X254996Y388121D01*
X254985Y388098D01*
X254946Y388043D01*
X254896Y387976D01*
X254829Y387899D01*
X254746Y387821D01*
X254652Y387743D01*
X254541Y387671D01*
X254535D01*
X254530Y387666D01*
X254513Y387654D01*
X254485Y387643D01*
X254457Y387632D01*
X254424Y387621D01*
X254341Y387588D01*
X254246Y387560D01*
X254130Y387532D01*
X254008Y387510D01*
X253875Y387505D01*
X253819D01*
X253775Y387510D01*
X253725Y387516D01*
X253669Y387527D01*
X253603Y387538D01*
X253536Y387549D01*
X253386Y387593D01*
X253303Y387627D01*
X253225Y387660D01*
X253148Y387704D01*
X253070Y387754D01*
X252998Y387810D01*
X252926Y387876D01*
X252920Y387882D01*
X252909Y387893D01*
X252892Y387915D01*
X252870Y387949D01*
X252842Y387987D01*
X252815Y388032D01*
X252781Y388087D01*
X252748Y388154D01*
X252715Y388226D01*
X252681Y388309D01*
X252654Y388398D01*
X252626Y388492D01*
X252604Y388598D01*
X252587Y388709D01*
X252576Y388831D01*
X252570Y388959D01*
Y388970D01*
Y388992D01*
X252576Y389031D01*
Y389086D01*
X252582Y389147D01*
X252593Y389225D01*
X252604Y389303D01*
X252626Y389392D01*
X252648Y389480D01*
X252676Y389575D01*
X252709Y389675D01*
X252754Y389769D01*
X252798Y389858D01*
X252859Y389947D01*
X252920Y390030D01*
X252998Y390102D01*
X253003Y390107D01*
X253014Y390113D01*
X253037Y390130D01*
X253064Y390152D01*
X253098Y390174D01*
X253142Y390202D01*
X253186Y390230D01*
X253242Y390257D01*
X253303Y390285D01*
X253370Y390313D01*
X253520Y390363D01*
X253692Y390402D01*
X253780Y390407D01*
X253875Y390413D01*
X253930D01*
X253969Y390407D01*
D02*
G37*
G36*
X195356Y401677D02*
X195367Y401666D01*
X195389Y401644D01*
X195423Y401622D01*
X195461Y401588D01*
X195506Y401544D01*
X195561Y401500D01*
X195628Y401450D01*
X195695Y401400D01*
X195772Y401339D01*
X195861Y401278D01*
X195950Y401217D01*
X196050Y401150D01*
X196155Y401083D01*
X196272Y401017D01*
X196388Y400950D01*
X196394Y400945D01*
X196416Y400933D01*
X196449Y400917D01*
X196499Y400889D01*
X196560Y400861D01*
X196627Y400828D01*
X196705Y400789D01*
X196793Y400750D01*
X196893Y400706D01*
X196993Y400656D01*
X197104Y400611D01*
X197221Y400567D01*
X197459Y400478D01*
X197715Y400395D01*
X197720D01*
X197737Y400390D01*
X197765Y400384D01*
X197798Y400373D01*
X197843Y400362D01*
X197898Y400351D01*
X197959Y400334D01*
X198026Y400323D01*
X198103Y400306D01*
X198187Y400290D01*
X198364Y400262D01*
X198558Y400234D01*
X198769Y400217D01*
Y399735D01*
X198764D01*
X198747D01*
X198725D01*
X198692Y399740D01*
X198647D01*
X198592Y399746D01*
X198531Y399751D01*
X198464Y399757D01*
X198386Y399768D01*
X198309Y399779D01*
X198214Y399796D01*
X198120Y399812D01*
X198020Y399829D01*
X197909Y399851D01*
X197681Y399907D01*
X197676D01*
X197654Y399912D01*
X197620Y399923D01*
X197571Y399940D01*
X197515Y399957D01*
X197448Y399979D01*
X197371Y400001D01*
X197287Y400034D01*
X197193Y400068D01*
X197099Y400101D01*
X196888Y400184D01*
X196666Y400284D01*
X196444Y400395D01*
X196438Y400401D01*
X196416Y400412D01*
X196388Y400428D01*
X196344Y400451D01*
X196294Y400478D01*
X196233Y400517D01*
X196166Y400556D01*
X196094Y400600D01*
X195933Y400706D01*
X195767Y400817D01*
X195595Y400945D01*
X195434Y401078D01*
Y399196D01*
X194979D01*
Y401683D01*
X195351D01*
X195356Y401677D01*
D02*
G37*
G36*
X198769Y396111D02*
X198764D01*
X198742D01*
X198708D01*
X198664Y396116D01*
X198614Y396122D01*
X198558Y396133D01*
X198503Y396144D01*
X198442Y396166D01*
X198436D01*
X198431Y396171D01*
X198398Y396183D01*
X198347Y396205D01*
X198281Y396238D01*
X198203Y396283D01*
X198114Y396338D01*
X198026Y396399D01*
X197931Y396477D01*
X197926D01*
X197920Y396488D01*
X197887Y396516D01*
X197837Y396566D01*
X197765Y396638D01*
X197681Y396721D01*
X197582Y396827D01*
X197471Y396954D01*
X197354Y397093D01*
X197348Y397098D01*
X197332Y397121D01*
X197304Y397154D01*
X197271Y397193D01*
X197226Y397243D01*
X197177Y397304D01*
X197121Y397365D01*
X197060Y397437D01*
X196927Y397576D01*
X196793Y397714D01*
X196727Y397781D01*
X196660Y397842D01*
X196599Y397898D01*
X196538Y397942D01*
X196533D01*
X196527Y397953D01*
X196511Y397964D01*
X196488Y397975D01*
X196427Y398014D01*
X196355Y398059D01*
X196266Y398097D01*
X196172Y398136D01*
X196066Y398158D01*
X195967Y398169D01*
X195961D01*
X195956D01*
X195922Y398164D01*
X195867Y398158D01*
X195806Y398142D01*
X195728Y398120D01*
X195650Y398081D01*
X195572Y398031D01*
X195495Y397964D01*
X195484Y397953D01*
X195461Y397925D01*
X195434Y397886D01*
X195395Y397826D01*
X195362Y397748D01*
X195328Y397659D01*
X195306Y397553D01*
X195301Y397437D01*
Y397404D01*
X195306Y397381D01*
X195312Y397315D01*
X195328Y397237D01*
X195351Y397154D01*
X195389Y397059D01*
X195439Y396971D01*
X195506Y396887D01*
X195517Y396876D01*
X195545Y396854D01*
X195589Y396821D01*
X195656Y396788D01*
X195733Y396749D01*
X195833Y396715D01*
X195944Y396693D01*
X196072Y396682D01*
X196022Y396199D01*
X196017D01*
X196000Y396205D01*
X195972D01*
X195933Y396210D01*
X195889Y396221D01*
X195839Y396233D01*
X195778Y396249D01*
X195717Y396266D01*
X195584Y396310D01*
X195450Y396377D01*
X195384Y396416D01*
X195317Y396466D01*
X195256Y396516D01*
X195201Y396571D01*
X195195Y396577D01*
X195190Y396588D01*
X195173Y396604D01*
X195156Y396632D01*
X195134Y396666D01*
X195112Y396704D01*
X195084Y396749D01*
X195056Y396804D01*
X195029Y396865D01*
X195001Y396932D01*
X194979Y397004D01*
X194957Y397082D01*
X194940Y397165D01*
X194923Y397254D01*
X194918Y397348D01*
X194912Y397448D01*
Y397503D01*
X194918Y397542D01*
X194923Y397587D01*
X194929Y397642D01*
X194940Y397703D01*
X194951Y397764D01*
X194990Y397909D01*
X195045Y398053D01*
X195079Y398125D01*
X195117Y398197D01*
X195167Y398264D01*
X195223Y398325D01*
X195228Y398330D01*
X195234Y398342D01*
X195256Y398353D01*
X195278Y398375D01*
X195306Y398403D01*
X195345Y398430D01*
X195384Y398458D01*
X195434Y398491D01*
X195539Y398547D01*
X195672Y398602D01*
X195739Y398625D01*
X195817Y398636D01*
X195894Y398647D01*
X195978Y398652D01*
X195989D01*
X196017D01*
X196061Y398647D01*
X196122Y398641D01*
X196189Y398630D01*
X196266Y398608D01*
X196350Y398586D01*
X196433Y398552D01*
X196444Y398547D01*
X196472Y398536D01*
X196516Y398514D01*
X196577Y398480D01*
X196644Y398436D01*
X196727Y398380D01*
X196810Y398314D01*
X196905Y398236D01*
X196916Y398225D01*
X196949Y398197D01*
X196977Y398169D01*
X197004Y398142D01*
X197038Y398109D01*
X197082Y398064D01*
X197126Y398020D01*
X197177Y397964D01*
X197232Y397909D01*
X197293Y397842D01*
X197354Y397770D01*
X197426Y397692D01*
X197498Y397604D01*
X197576Y397515D01*
X197582Y397509D01*
X197593Y397498D01*
X197609Y397476D01*
X197632Y397448D01*
X197665Y397415D01*
X197698Y397376D01*
X197770Y397287D01*
X197854Y397193D01*
X197937Y397104D01*
X198009Y397026D01*
X198037Y396993D01*
X198064Y396965D01*
X198070Y396960D01*
X198087Y396943D01*
X198109Y396921D01*
X198142Y396893D01*
X198181Y396865D01*
X198220Y396832D01*
X198314Y396765D01*
Y398658D01*
X198769D01*
Y396111D01*
D02*
G37*
G36*
Y395245D02*
X197970Y394740D01*
X197965D01*
X197953Y394728D01*
X197937Y394718D01*
X197915Y394701D01*
X197854Y394662D01*
X197776Y394612D01*
X197693Y394551D01*
X197604Y394490D01*
X197521Y394429D01*
X197443Y394373D01*
X197437Y394368D01*
X197415Y394351D01*
X197382Y394323D01*
X197343Y394285D01*
X197260Y394201D01*
X197221Y394157D01*
X197188Y394112D01*
X197182Y394107D01*
X197177Y394096D01*
X197165Y394074D01*
X197149Y394040D01*
X197132Y394007D01*
X197115Y393968D01*
X197088Y393879D01*
Y393874D01*
X197082Y393863D01*
Y393841D01*
X197077Y393813D01*
X197071Y393774D01*
Y393730D01*
X197065Y393669D01*
Y393014D01*
X198769D01*
Y392503D01*
X194929D01*
Y394285D01*
X194934Y394329D01*
Y394379D01*
X194940Y394495D01*
X194957Y394618D01*
X194973Y394751D01*
X195001Y394873D01*
X195018Y394934D01*
X195034Y394984D01*
Y394989D01*
X195040Y394995D01*
X195056Y395028D01*
X195079Y395078D01*
X195117Y395139D01*
X195167Y395206D01*
X195234Y395278D01*
X195312Y395345D01*
X195401Y395411D01*
X195406D01*
X195412Y395417D01*
X195445Y395439D01*
X195500Y395461D01*
X195572Y395495D01*
X195656Y395522D01*
X195756Y395550D01*
X195861Y395567D01*
X195978Y395572D01*
X195983D01*
X195994D01*
X196017D01*
X196044Y395567D01*
X196083D01*
X196122Y395561D01*
X196216Y395539D01*
X196327Y395505D01*
X196444Y395461D01*
X196560Y395394D01*
X196616Y395350D01*
X196671Y395306D01*
X196677Y395300D01*
X196683Y395295D01*
X196699Y395278D01*
X196716Y395256D01*
X196738Y395228D01*
X196760Y395195D01*
X196788Y395150D01*
X196821Y395106D01*
X196849Y395051D01*
X196877Y394989D01*
X196910Y394923D01*
X196938Y394851D01*
X196960Y394767D01*
X196988Y394684D01*
X197004Y394590D01*
X197021Y394490D01*
X197027Y394501D01*
X197038Y394523D01*
X197060Y394556D01*
X197082Y394601D01*
X197143Y394701D01*
X197182Y394751D01*
X197215Y394795D01*
X197226Y394806D01*
X197254Y394834D01*
X197299Y394878D01*
X197354Y394934D01*
X197432Y394995D01*
X197515Y395067D01*
X197615Y395139D01*
X197726Y395217D01*
X198769Y395877D01*
Y395245D01*
D02*
G37*
G36*
X197049Y391820D02*
X197115D01*
X197188Y391815D01*
X197265Y391809D01*
X197443Y391793D01*
X197626Y391765D01*
X197804Y391732D01*
X197887Y391709D01*
X197970Y391682D01*
X197976D01*
X197987Y391676D01*
X198009Y391665D01*
X198037Y391654D01*
X198076Y391643D01*
X198114Y391621D01*
X198209Y391576D01*
X198309Y391521D01*
X198420Y391448D01*
X198520Y391365D01*
X198614Y391265D01*
Y391260D01*
X198625Y391254D01*
X198636Y391238D01*
X198647Y391215D01*
X198664Y391188D01*
X198686Y391160D01*
X198725Y391077D01*
X198764Y390977D01*
X198803Y390860D01*
X198825Y390722D01*
X198836Y390572D01*
Y390516D01*
X198830Y390477D01*
X198825Y390433D01*
X198814Y390377D01*
X198803Y390316D01*
X198786Y390250D01*
X198764Y390183D01*
X198742Y390111D01*
X198708Y390039D01*
X198669Y389967D01*
X198625Y389895D01*
X198570Y389822D01*
X198509Y389756D01*
X198442Y389695D01*
X198436Y389689D01*
X198420Y389678D01*
X198392Y389661D01*
X198347Y389634D01*
X198298Y389606D01*
X198231Y389578D01*
X198153Y389539D01*
X198064Y389506D01*
X197965Y389473D01*
X197848Y389439D01*
X197720Y389406D01*
X197576Y389378D01*
X197421Y389351D01*
X197254Y389334D01*
X197071Y389323D01*
X196877Y389317D01*
X196871D01*
X196849D01*
X196810D01*
X196766D01*
X196705Y389323D01*
X196638D01*
X196566Y389328D01*
X196483Y389334D01*
X196311Y389351D01*
X196127Y389378D01*
X195944Y389412D01*
X195861Y389434D01*
X195778Y389456D01*
X195772D01*
X195761Y389462D01*
X195739Y389473D01*
X195711Y389484D01*
X195672Y389495D01*
X195634Y389517D01*
X195539Y389562D01*
X195439Y389617D01*
X195334Y389689D01*
X195228Y389772D01*
X195140Y389872D01*
Y389878D01*
X195129Y389883D01*
X195117Y389900D01*
X195106Y389922D01*
X195084Y389950D01*
X195068Y389983D01*
X195023Y390067D01*
X194984Y390166D01*
X194945Y390283D01*
X194923Y390422D01*
X194912Y390572D01*
Y390621D01*
X194918Y390683D01*
X194929Y390755D01*
X194945Y390838D01*
X194968Y390927D01*
X194995Y391021D01*
X195040Y391110D01*
Y391115D01*
X195045Y391121D01*
X195062Y391149D01*
X195090Y391193D01*
X195129Y391249D01*
X195184Y391310D01*
X195245Y391376D01*
X195317Y391437D01*
X195401Y391498D01*
X195412Y391504D01*
X195439Y391526D01*
X195489Y391548D01*
X195561Y391587D01*
X195645Y391621D01*
X195739Y391665D01*
X195850Y391704D01*
X195972Y391737D01*
X195978D01*
X195989Y391743D01*
X196005Y391748D01*
X196033Y391754D01*
X196066Y391759D01*
X196105Y391765D01*
X196155Y391776D01*
X196211Y391781D01*
X196272Y391793D01*
X196338Y391798D01*
X196416Y391804D01*
X196494Y391815D01*
X196583Y391820D01*
X196671D01*
X196771Y391826D01*
X196877D01*
X196882D01*
X196905D01*
X196943D01*
X196988D01*
X197049Y391820D01*
D02*
G37*
G36*
X260982Y406177D02*
X260993Y406166D01*
X261015Y406144D01*
X261049Y406122D01*
X261087Y406088D01*
X261132Y406044D01*
X261187Y406000D01*
X261254Y405950D01*
X261321Y405900D01*
X261398Y405839D01*
X261487Y405778D01*
X261576Y405717D01*
X261676Y405650D01*
X261781Y405583D01*
X261898Y405517D01*
X262014Y405450D01*
X262020Y405444D01*
X262042Y405433D01*
X262075Y405417D01*
X262125Y405389D01*
X262186Y405361D01*
X262253Y405328D01*
X262331Y405289D01*
X262420Y405250D01*
X262519Y405206D01*
X262619Y405156D01*
X262730Y405112D01*
X262847Y405067D01*
X263086Y404978D01*
X263341Y404895D01*
X263346D01*
X263363Y404890D01*
X263391Y404884D01*
X263424Y404873D01*
X263469Y404862D01*
X263524Y404851D01*
X263585Y404834D01*
X263652Y404823D01*
X263729Y404806D01*
X263813Y404790D01*
X263990Y404762D01*
X264184Y404734D01*
X264395Y404717D01*
Y404235D01*
X264390D01*
X264373D01*
X264351D01*
X264318Y404240D01*
X264273D01*
X264218Y404246D01*
X264157Y404251D01*
X264090Y404257D01*
X264012Y404268D01*
X263935Y404279D01*
X263840Y404296D01*
X263746Y404312D01*
X263646Y404329D01*
X263535Y404351D01*
X263307Y404407D01*
X263302D01*
X263280Y404412D01*
X263246Y404423D01*
X263196Y404440D01*
X263141Y404457D01*
X263074Y404479D01*
X262997Y404501D01*
X262913Y404534D01*
X262819Y404568D01*
X262725Y404601D01*
X262514Y404684D01*
X262292Y404784D01*
X262070Y404895D01*
X262064Y404901D01*
X262042Y404912D01*
X262014Y404928D01*
X261970Y404951D01*
X261920Y404978D01*
X261859Y405017D01*
X261792Y405056D01*
X261720Y405100D01*
X261559Y405206D01*
X261393Y405317D01*
X261221Y405444D01*
X261060Y405578D01*
Y403696D01*
X260605D01*
Y406183D01*
X260977D01*
X260982Y406177D01*
D02*
G37*
G36*
X264395Y400610D02*
X264390D01*
X264368D01*
X264334D01*
X264290Y400616D01*
X264240Y400622D01*
X264184Y400633D01*
X264129Y400644D01*
X264068Y400666D01*
X264062D01*
X264057Y400671D01*
X264023Y400683D01*
X263973Y400705D01*
X263907Y400738D01*
X263829Y400782D01*
X263740Y400838D01*
X263652Y400899D01*
X263557Y400977D01*
X263552D01*
X263546Y400988D01*
X263513Y401016D01*
X263463Y401066D01*
X263391Y401138D01*
X263307Y401221D01*
X263208Y401327D01*
X263097Y401454D01*
X262980Y401593D01*
X262975Y401598D01*
X262958Y401621D01*
X262930Y401654D01*
X262897Y401693D01*
X262852Y401743D01*
X262803Y401804D01*
X262747Y401865D01*
X262686Y401937D01*
X262553Y402076D01*
X262420Y402214D01*
X262353Y402281D01*
X262286Y402342D01*
X262225Y402398D01*
X262164Y402442D01*
X262159D01*
X262153Y402453D01*
X262137Y402464D01*
X262114Y402475D01*
X262053Y402514D01*
X261981Y402559D01*
X261892Y402597D01*
X261798Y402636D01*
X261693Y402658D01*
X261593Y402669D01*
X261587D01*
X261581D01*
X261548Y402664D01*
X261493Y402658D01*
X261432Y402642D01*
X261354Y402620D01*
X261276Y402581D01*
X261198Y402531D01*
X261121Y402464D01*
X261110Y402453D01*
X261087Y402425D01*
X261060Y402387D01*
X261021Y402325D01*
X260988Y402248D01*
X260954Y402159D01*
X260932Y402053D01*
X260927Y401937D01*
Y401904D01*
X260932Y401881D01*
X260938Y401815D01*
X260954Y401737D01*
X260977Y401654D01*
X261015Y401559D01*
X261065Y401471D01*
X261132Y401388D01*
X261143Y401376D01*
X261171Y401354D01*
X261215Y401321D01*
X261282Y401288D01*
X261360Y401249D01*
X261459Y401216D01*
X261570Y401193D01*
X261698Y401182D01*
X261648Y400699D01*
X261643D01*
X261626Y400705D01*
X261598D01*
X261559Y400710D01*
X261515Y400722D01*
X261465Y400733D01*
X261404Y400749D01*
X261343Y400766D01*
X261210Y400810D01*
X261076Y400877D01*
X261010Y400916D01*
X260943Y400966D01*
X260882Y401016D01*
X260827Y401071D01*
X260821Y401077D01*
X260816Y401088D01*
X260799Y401104D01*
X260782Y401132D01*
X260760Y401165D01*
X260738Y401204D01*
X260710Y401249D01*
X260682Y401304D01*
X260655Y401365D01*
X260627Y401432D01*
X260605Y401504D01*
X260582Y401582D01*
X260566Y401665D01*
X260549Y401754D01*
X260544Y401848D01*
X260538Y401948D01*
Y402003D01*
X260544Y402042D01*
X260549Y402087D01*
X260555Y402142D01*
X260566Y402203D01*
X260577Y402264D01*
X260616Y402409D01*
X260671Y402553D01*
X260705Y402625D01*
X260743Y402697D01*
X260793Y402764D01*
X260849Y402825D01*
X260854Y402831D01*
X260860Y402842D01*
X260882Y402853D01*
X260904Y402875D01*
X260932Y402903D01*
X260971Y402930D01*
X261010Y402958D01*
X261060Y402991D01*
X261165Y403047D01*
X261298Y403102D01*
X261365Y403125D01*
X261443Y403136D01*
X261520Y403147D01*
X261604Y403152D01*
X261615D01*
X261643D01*
X261687Y403147D01*
X261748Y403141D01*
X261815Y403130D01*
X261892Y403108D01*
X261976Y403086D01*
X262059Y403053D01*
X262070Y403047D01*
X262098Y403036D01*
X262142Y403014D01*
X262203Y402980D01*
X262270Y402936D01*
X262353Y402880D01*
X262436Y402814D01*
X262530Y402736D01*
X262542Y402725D01*
X262575Y402697D01*
X262603Y402669D01*
X262630Y402642D01*
X262664Y402608D01*
X262708Y402564D01*
X262753Y402520D01*
X262803Y402464D01*
X262858Y402409D01*
X262919Y402342D01*
X262980Y402270D01*
X263052Y402192D01*
X263124Y402104D01*
X263202Y402015D01*
X263208Y402009D01*
X263219Y401998D01*
X263235Y401976D01*
X263258Y401948D01*
X263291Y401915D01*
X263324Y401876D01*
X263396Y401787D01*
X263480Y401693D01*
X263563Y401604D01*
X263635Y401526D01*
X263663Y401493D01*
X263690Y401465D01*
X263696Y401460D01*
X263713Y401443D01*
X263735Y401421D01*
X263768Y401393D01*
X263807Y401365D01*
X263846Y401332D01*
X263940Y401265D01*
Y403158D01*
X264395D01*
Y400610D01*
D02*
G37*
G36*
Y399745D02*
X263596Y399240D01*
X263591D01*
X263580Y399229D01*
X263563Y399218D01*
X263541Y399201D01*
X263480Y399162D01*
X263402Y399112D01*
X263319Y399051D01*
X263230Y398990D01*
X263147Y398929D01*
X263069Y398873D01*
X263063Y398868D01*
X263041Y398851D01*
X263008Y398823D01*
X262969Y398784D01*
X262886Y398701D01*
X262847Y398657D01*
X262814Y398612D01*
X262808Y398607D01*
X262803Y398596D01*
X262791Y398574D01*
X262775Y398540D01*
X262758Y398507D01*
X262741Y398468D01*
X262714Y398379D01*
Y398374D01*
X262708Y398363D01*
Y398341D01*
X262703Y398313D01*
X262697Y398274D01*
Y398230D01*
X262691Y398168D01*
Y397514D01*
X264395D01*
Y397003D01*
X260555D01*
Y398784D01*
X260560Y398829D01*
Y398879D01*
X260566Y398995D01*
X260582Y399117D01*
X260599Y399251D01*
X260627Y399373D01*
X260644Y399434D01*
X260660Y399484D01*
Y399489D01*
X260666Y399495D01*
X260682Y399528D01*
X260705Y399578D01*
X260743Y399639D01*
X260793Y399706D01*
X260860Y399778D01*
X260938Y399845D01*
X261027Y399911D01*
X261032D01*
X261038Y399917D01*
X261071Y399939D01*
X261126Y399961D01*
X261198Y399994D01*
X261282Y400022D01*
X261382Y400050D01*
X261487Y400067D01*
X261604Y400072D01*
X261609D01*
X261620D01*
X261643D01*
X261670Y400067D01*
X261709D01*
X261748Y400061D01*
X261842Y400039D01*
X261953Y400005D01*
X262070Y399961D01*
X262186Y399894D01*
X262242Y399850D01*
X262297Y399806D01*
X262303Y399800D01*
X262309Y399795D01*
X262325Y399778D01*
X262342Y399756D01*
X262364Y399728D01*
X262386Y399695D01*
X262414Y399650D01*
X262447Y399606D01*
X262475Y399551D01*
X262503Y399489D01*
X262536Y399423D01*
X262564Y399351D01*
X262586Y399267D01*
X262614Y399184D01*
X262630Y399090D01*
X262647Y398990D01*
X262653Y399001D01*
X262664Y399023D01*
X262686Y399057D01*
X262708Y399101D01*
X262769Y399201D01*
X262808Y399251D01*
X262841Y399295D01*
X262852Y399306D01*
X262880Y399334D01*
X262925Y399378D01*
X262980Y399434D01*
X263058Y399495D01*
X263141Y399567D01*
X263241Y399639D01*
X263352Y399717D01*
X264395Y400377D01*
Y399745D01*
D02*
G37*
G36*
X262675Y396320D02*
X262741D01*
X262814Y396315D01*
X262891Y396309D01*
X263069Y396293D01*
X263252Y396265D01*
X263430Y396232D01*
X263513Y396209D01*
X263596Y396182D01*
X263602D01*
X263613Y396176D01*
X263635Y396165D01*
X263663Y396154D01*
X263702Y396143D01*
X263740Y396121D01*
X263835Y396076D01*
X263935Y396021D01*
X264046Y395949D01*
X264146Y395865D01*
X264240Y395765D01*
Y395760D01*
X264251Y395754D01*
X264262Y395738D01*
X264273Y395715D01*
X264290Y395688D01*
X264312Y395660D01*
X264351Y395577D01*
X264390Y395477D01*
X264429Y395360D01*
X264451Y395221D01*
X264462Y395072D01*
Y395016D01*
X264456Y394977D01*
X264451Y394933D01*
X264440Y394877D01*
X264429Y394816D01*
X264412Y394750D01*
X264390Y394683D01*
X264368Y394611D01*
X264334Y394539D01*
X264295Y394467D01*
X264251Y394394D01*
X264195Y394322D01*
X264135Y394256D01*
X264068Y394195D01*
X264062Y394189D01*
X264046Y394178D01*
X264018Y394161D01*
X263973Y394134D01*
X263924Y394106D01*
X263857Y394078D01*
X263779Y394039D01*
X263690Y394006D01*
X263591Y393973D01*
X263474Y393939D01*
X263346Y393906D01*
X263202Y393878D01*
X263047Y393851D01*
X262880Y393834D01*
X262697Y393823D01*
X262503Y393817D01*
X262497D01*
X262475D01*
X262436D01*
X262392D01*
X262331Y393823D01*
X262264D01*
X262192Y393828D01*
X262109Y393834D01*
X261937Y393851D01*
X261754Y393878D01*
X261570Y393912D01*
X261487Y393934D01*
X261404Y393956D01*
X261398D01*
X261387Y393962D01*
X261365Y393973D01*
X261337Y393984D01*
X261298Y393995D01*
X261260Y394017D01*
X261165Y394061D01*
X261065Y394117D01*
X260960Y394189D01*
X260854Y394272D01*
X260766Y394372D01*
Y394378D01*
X260754Y394383D01*
X260743Y394400D01*
X260732Y394422D01*
X260710Y394450D01*
X260694Y394483D01*
X260649Y394567D01*
X260610Y394666D01*
X260571Y394783D01*
X260549Y394922D01*
X260538Y395072D01*
Y395122D01*
X260544Y395183D01*
X260555Y395255D01*
X260571Y395338D01*
X260594Y395427D01*
X260621Y395521D01*
X260666Y395610D01*
Y395616D01*
X260671Y395621D01*
X260688Y395649D01*
X260716Y395693D01*
X260754Y395749D01*
X260810Y395810D01*
X260871Y395876D01*
X260943Y395937D01*
X261027Y395999D01*
X261038Y396004D01*
X261065Y396026D01*
X261115Y396048D01*
X261187Y396087D01*
X261271Y396121D01*
X261365Y396165D01*
X261476Y396204D01*
X261598Y396237D01*
X261604D01*
X261615Y396243D01*
X261631Y396248D01*
X261659Y396254D01*
X261693Y396259D01*
X261731Y396265D01*
X261781Y396276D01*
X261837Y396282D01*
X261898Y396293D01*
X261964Y396298D01*
X262042Y396304D01*
X262120Y396315D01*
X262209Y396320D01*
X262297D01*
X262397Y396326D01*
X262503D01*
X262508D01*
X262530D01*
X262569D01*
X262614D01*
X262675Y396320D01*
D02*
G37*
G36*
X217803Y421681D02*
X217003Y421176D01*
X216998D01*
X216987Y421165D01*
X216970Y421153D01*
X216948Y421137D01*
X216887Y421098D01*
X216809Y421048D01*
X216726Y420987D01*
X216637Y420926D01*
X216554Y420865D01*
X216476Y420809D01*
X216471Y420804D01*
X216448Y420787D01*
X216415Y420759D01*
X216376Y420720D01*
X216293Y420637D01*
X216254Y420593D01*
X216221Y420548D01*
X216215Y420543D01*
X216210Y420532D01*
X216199Y420510D01*
X216182Y420476D01*
X216165Y420443D01*
X216149Y420404D01*
X216121Y420315D01*
Y420310D01*
X216115Y420299D01*
Y420276D01*
X216110Y420249D01*
X216104Y420210D01*
Y420165D01*
X216099Y420105D01*
Y419450D01*
X217803D01*
Y418939D01*
X213962D01*
Y420720D01*
X213968Y420765D01*
Y420815D01*
X213973Y420931D01*
X213990Y421054D01*
X214006Y421187D01*
X214034Y421309D01*
X214051Y421370D01*
X214068Y421420D01*
Y421425D01*
X214073Y421431D01*
X214090Y421464D01*
X214112Y421514D01*
X214151Y421575D01*
X214201Y421642D01*
X214267Y421714D01*
X214345Y421781D01*
X214434Y421847D01*
X214439D01*
X214445Y421853D01*
X214478Y421875D01*
X214534Y421897D01*
X214606Y421930D01*
X214689Y421958D01*
X214789Y421986D01*
X214894Y422003D01*
X215011Y422008D01*
X215017D01*
X215028D01*
X215050D01*
X215078Y422003D01*
X215116D01*
X215155Y421997D01*
X215250Y421975D01*
X215361Y421942D01*
X215477Y421897D01*
X215594Y421831D01*
X215649Y421786D01*
X215705Y421742D01*
X215710Y421736D01*
X215716Y421731D01*
X215733Y421714D01*
X215749Y421692D01*
X215771Y421664D01*
X215793Y421631D01*
X215821Y421586D01*
X215855Y421542D01*
X215882Y421486D01*
X215910Y421425D01*
X215943Y421359D01*
X215971Y421287D01*
X215993Y421203D01*
X216021Y421120D01*
X216038Y421026D01*
X216054Y420926D01*
X216060Y420937D01*
X216071Y420959D01*
X216093Y420993D01*
X216115Y421037D01*
X216177Y421137D01*
X216215Y421187D01*
X216249Y421231D01*
X216260Y421242D01*
X216287Y421270D01*
X216332Y421314D01*
X216387Y421370D01*
X216465Y421431D01*
X216548Y421503D01*
X216648Y421575D01*
X216759Y421653D01*
X217803Y422313D01*
Y421681D01*
D02*
G37*
G36*
Y415687D02*
X217797D01*
X217775D01*
X217742D01*
X217697Y415692D01*
X217647Y415698D01*
X217592Y415709D01*
X217536Y415720D01*
X217475Y415742D01*
X217470D01*
X217464Y415748D01*
X217431Y415759D01*
X217381Y415781D01*
X217314Y415814D01*
X217236Y415859D01*
X217148Y415914D01*
X217059Y415975D01*
X216965Y416053D01*
X216959D01*
X216953Y416064D01*
X216920Y416092D01*
X216870Y416142D01*
X216798Y416214D01*
X216715Y416297D01*
X216615Y416403D01*
X216504Y416530D01*
X216387Y416669D01*
X216382Y416675D01*
X216365Y416697D01*
X216337Y416730D01*
X216304Y416769D01*
X216260Y416819D01*
X216210Y416880D01*
X216154Y416941D01*
X216093Y417013D01*
X215960Y417152D01*
X215827Y417291D01*
X215760Y417357D01*
X215694Y417418D01*
X215633Y417474D01*
X215571Y417518D01*
X215566D01*
X215560Y417529D01*
X215544Y417540D01*
X215522Y417552D01*
X215460Y417590D01*
X215388Y417635D01*
X215300Y417674D01*
X215205Y417712D01*
X215100Y417735D01*
X215000Y417746D01*
X214994D01*
X214989D01*
X214955Y417740D01*
X214900Y417735D01*
X214839Y417718D01*
X214761Y417696D01*
X214684Y417657D01*
X214606Y417607D01*
X214528Y417540D01*
X214517Y417529D01*
X214495Y417501D01*
X214467Y417463D01*
X214428Y417402D01*
X214395Y417324D01*
X214362Y417235D01*
X214339Y417130D01*
X214334Y417013D01*
Y416980D01*
X214339Y416958D01*
X214345Y416891D01*
X214362Y416813D01*
X214384Y416730D01*
X214423Y416636D01*
X214473Y416547D01*
X214539Y416464D01*
X214550Y416453D01*
X214578Y416430D01*
X214622Y416397D01*
X214689Y416364D01*
X214767Y416325D01*
X214867Y416292D01*
X214978Y416269D01*
X215105Y416258D01*
X215055Y415775D01*
X215050D01*
X215033Y415781D01*
X215005D01*
X214967Y415787D01*
X214922Y415798D01*
X214872Y415809D01*
X214811Y415825D01*
X214750Y415842D01*
X214617Y415886D01*
X214484Y415953D01*
X214417Y415992D01*
X214351Y416042D01*
X214289Y416092D01*
X214234Y416147D01*
X214228Y416153D01*
X214223Y416164D01*
X214206Y416181D01*
X214190Y416208D01*
X214167Y416242D01*
X214145Y416281D01*
X214117Y416325D01*
X214090Y416380D01*
X214062Y416441D01*
X214034Y416508D01*
X214012Y416580D01*
X213990Y416658D01*
X213973Y416741D01*
X213956Y416830D01*
X213951Y416924D01*
X213945Y417024D01*
Y417080D01*
X213951Y417119D01*
X213956Y417163D01*
X213962Y417218D01*
X213973Y417279D01*
X213984Y417341D01*
X214023Y417485D01*
X214079Y417629D01*
X214112Y417701D01*
X214151Y417773D01*
X214201Y417840D01*
X214256Y417901D01*
X214262Y417907D01*
X214267Y417918D01*
X214289Y417929D01*
X214312Y417951D01*
X214339Y417979D01*
X214378Y418007D01*
X214417Y418034D01*
X214467Y418068D01*
X214573Y418123D01*
X214706Y418179D01*
X214772Y418201D01*
X214850Y418212D01*
X214928Y418223D01*
X215011Y418229D01*
X215022D01*
X215050D01*
X215094Y418223D01*
X215155Y418218D01*
X215222Y418206D01*
X215300Y418184D01*
X215383Y418162D01*
X215466Y418129D01*
X215477Y418123D01*
X215505Y418112D01*
X215549Y418090D01*
X215610Y418056D01*
X215677Y418012D01*
X215760Y417957D01*
X215844Y417890D01*
X215938Y417812D01*
X215949Y417801D01*
X215982Y417773D01*
X216010Y417746D01*
X216038Y417718D01*
X216071Y417685D01*
X216115Y417640D01*
X216160Y417596D01*
X216210Y417540D01*
X216265Y417485D01*
X216326Y417418D01*
X216387Y417346D01*
X216459Y417268D01*
X216532Y417180D01*
X216609Y417091D01*
X216615Y417085D01*
X216626Y417074D01*
X216643Y417052D01*
X216665Y417024D01*
X216698Y416991D01*
X216732Y416952D01*
X216804Y416863D01*
X216887Y416769D01*
X216970Y416680D01*
X217042Y416602D01*
X217070Y416569D01*
X217098Y416541D01*
X217103Y416536D01*
X217120Y416519D01*
X217142Y416497D01*
X217176Y416469D01*
X217214Y416441D01*
X217253Y416408D01*
X217348Y416342D01*
Y418234D01*
X217803D01*
Y415687D01*
D02*
G37*
G36*
X270429Y421681D02*
X269629Y421176D01*
X269624D01*
X269613Y421165D01*
X269596Y421153D01*
X269574Y421137D01*
X269513Y421098D01*
X269435Y421048D01*
X269352Y420987D01*
X269263Y420926D01*
X269180Y420865D01*
X269102Y420809D01*
X269097Y420804D01*
X269074Y420787D01*
X269041Y420759D01*
X269002Y420720D01*
X268919Y420637D01*
X268880Y420593D01*
X268847Y420548D01*
X268841Y420543D01*
X268836Y420532D01*
X268825Y420510D01*
X268808Y420476D01*
X268791Y420443D01*
X268775Y420404D01*
X268747Y420315D01*
Y420310D01*
X268741Y420299D01*
Y420276D01*
X268736Y420249D01*
X268730Y420210D01*
Y420165D01*
X268725Y420105D01*
Y419450D01*
X270429D01*
Y418939D01*
X266588D01*
Y420720D01*
X266594Y420765D01*
Y420815D01*
X266599Y420931D01*
X266616Y421054D01*
X266632Y421187D01*
X266660Y421309D01*
X266677Y421370D01*
X266693Y421420D01*
Y421425D01*
X266699Y421431D01*
X266716Y421464D01*
X266738Y421514D01*
X266777Y421575D01*
X266827Y421642D01*
X266893Y421714D01*
X266971Y421781D01*
X267060Y421847D01*
X267065D01*
X267071Y421853D01*
X267104Y421875D01*
X267160Y421897D01*
X267232Y421930D01*
X267315Y421958D01*
X267415Y421986D01*
X267520Y422003D01*
X267637Y422008D01*
X267642D01*
X267654D01*
X267676D01*
X267704Y422003D01*
X267742D01*
X267781Y421997D01*
X267876Y421975D01*
X267987Y421942D01*
X268103Y421897D01*
X268220Y421831D01*
X268275Y421786D01*
X268331Y421742D01*
X268336Y421736D01*
X268342Y421731D01*
X268358Y421714D01*
X268375Y421692D01*
X268397Y421664D01*
X268420Y421631D01*
X268447Y421586D01*
X268481Y421542D01*
X268508Y421486D01*
X268536Y421425D01*
X268569Y421359D01*
X268597Y421287D01*
X268619Y421203D01*
X268647Y421120D01*
X268664Y421026D01*
X268680Y420926D01*
X268686Y420937D01*
X268697Y420959D01*
X268719Y420993D01*
X268741Y421037D01*
X268802Y421137D01*
X268841Y421187D01*
X268875Y421231D01*
X268886Y421242D01*
X268914Y421270D01*
X268958Y421314D01*
X269013Y421370D01*
X269091Y421431D01*
X269174Y421503D01*
X269274Y421575D01*
X269385Y421653D01*
X270429Y422313D01*
Y421681D01*
D02*
G37*
G36*
Y415687D02*
X270423D01*
X270401D01*
X270368D01*
X270323Y415692D01*
X270273Y415698D01*
X270218Y415709D01*
X270162Y415720D01*
X270101Y415742D01*
X270096D01*
X270090Y415748D01*
X270057Y415759D01*
X270007Y415781D01*
X269940Y415814D01*
X269863Y415859D01*
X269774Y415914D01*
X269685Y415975D01*
X269591Y416053D01*
X269585D01*
X269580Y416064D01*
X269546Y416092D01*
X269496Y416142D01*
X269424Y416214D01*
X269341Y416297D01*
X269241Y416403D01*
X269130Y416530D01*
X269013Y416669D01*
X269008Y416675D01*
X268991Y416697D01*
X268963Y416730D01*
X268930Y416769D01*
X268886Y416819D01*
X268836Y416880D01*
X268780Y416941D01*
X268719Y417013D01*
X268586Y417152D01*
X268453Y417291D01*
X268386Y417357D01*
X268320Y417418D01*
X268259Y417474D01*
X268197Y417518D01*
X268192D01*
X268186Y417529D01*
X268170Y417540D01*
X268148Y417552D01*
X268087Y417590D01*
X268014Y417635D01*
X267926Y417674D01*
X267831Y417712D01*
X267726Y417735D01*
X267626Y417746D01*
X267620D01*
X267615D01*
X267582Y417740D01*
X267526Y417735D01*
X267465Y417718D01*
X267387Y417696D01*
X267309Y417657D01*
X267232Y417607D01*
X267154Y417540D01*
X267143Y417529D01*
X267121Y417501D01*
X267093Y417463D01*
X267054Y417402D01*
X267021Y417324D01*
X266988Y417235D01*
X266965Y417130D01*
X266960Y417013D01*
Y416980D01*
X266965Y416958D01*
X266971Y416891D01*
X266988Y416813D01*
X267010Y416730D01*
X267049Y416636D01*
X267099Y416547D01*
X267165Y416464D01*
X267176Y416453D01*
X267204Y416430D01*
X267249Y416397D01*
X267315Y416364D01*
X267393Y416325D01*
X267493Y416292D01*
X267604Y416269D01*
X267731Y416258D01*
X267681Y415775D01*
X267676D01*
X267659Y415781D01*
X267631D01*
X267593Y415787D01*
X267548Y415798D01*
X267498Y415809D01*
X267437Y415825D01*
X267376Y415842D01*
X267243Y415886D01*
X267110Y415953D01*
X267043Y415992D01*
X266976Y416042D01*
X266915Y416092D01*
X266860Y416147D01*
X266854Y416153D01*
X266849Y416164D01*
X266832Y416181D01*
X266816Y416208D01*
X266793Y416242D01*
X266771Y416281D01*
X266743Y416325D01*
X266716Y416380D01*
X266688Y416441D01*
X266660Y416508D01*
X266638Y416580D01*
X266616Y416658D01*
X266599Y416741D01*
X266582Y416830D01*
X266577Y416924D01*
X266571Y417024D01*
Y417080D01*
X266577Y417119D01*
X266582Y417163D01*
X266588Y417218D01*
X266599Y417279D01*
X266610Y417341D01*
X266649Y417485D01*
X266705Y417629D01*
X266738Y417701D01*
X266777Y417773D01*
X266827Y417840D01*
X266882Y417901D01*
X266888Y417907D01*
X266893Y417918D01*
X266915Y417929D01*
X266938Y417951D01*
X266965Y417979D01*
X267004Y418007D01*
X267043Y418034D01*
X267093Y418068D01*
X267198Y418123D01*
X267332Y418179D01*
X267398Y418201D01*
X267476Y418212D01*
X267554Y418223D01*
X267637Y418229D01*
X267648D01*
X267676D01*
X267720Y418223D01*
X267781Y418218D01*
X267848Y418206D01*
X267926Y418184D01*
X268009Y418162D01*
X268092Y418129D01*
X268103Y418123D01*
X268131Y418112D01*
X268175Y418090D01*
X268236Y418056D01*
X268303Y418012D01*
X268386Y417957D01*
X268470Y417890D01*
X268564Y417812D01*
X268575Y417801D01*
X268608Y417773D01*
X268636Y417746D01*
X268664Y417718D01*
X268697Y417685D01*
X268741Y417640D01*
X268786Y417596D01*
X268836Y417540D01*
X268891Y417485D01*
X268952Y417418D01*
X269013Y417346D01*
X269086Y417268D01*
X269158Y417180D01*
X269235Y417091D01*
X269241Y417085D01*
X269252Y417074D01*
X269269Y417052D01*
X269291Y417024D01*
X269324Y416991D01*
X269357Y416952D01*
X269430Y416863D01*
X269513Y416769D01*
X269596Y416680D01*
X269668Y416602D01*
X269696Y416569D01*
X269724Y416541D01*
X269729Y416536D01*
X269746Y416519D01*
X269768Y416497D01*
X269801Y416469D01*
X269840Y416441D01*
X269879Y416408D01*
X269973Y416342D01*
Y418234D01*
X270429D01*
Y415687D01*
D02*
G37*
G36*
X198769Y441640D02*
X197970Y441135D01*
X197965D01*
X197953Y441124D01*
X197937Y441113D01*
X197915Y441096D01*
X197854Y441057D01*
X197776Y441008D01*
X197693Y440947D01*
X197604Y440885D01*
X197521Y440824D01*
X197443Y440769D01*
X197437Y440763D01*
X197415Y440747D01*
X197382Y440719D01*
X197343Y440680D01*
X197260Y440597D01*
X197221Y440553D01*
X197188Y440508D01*
X197182Y440503D01*
X197177Y440491D01*
X197165Y440469D01*
X197149Y440436D01*
X197132Y440403D01*
X197115Y440364D01*
X197088Y440275D01*
Y440269D01*
X197082Y440258D01*
Y440236D01*
X197077Y440208D01*
X197071Y440169D01*
Y440125D01*
X197065Y440064D01*
Y439409D01*
X198769D01*
Y438899D01*
X194929D01*
Y440680D01*
X194934Y440725D01*
Y440774D01*
X194940Y440891D01*
X194957Y441013D01*
X194973Y441146D01*
X195001Y441268D01*
X195018Y441329D01*
X195034Y441379D01*
Y441385D01*
X195040Y441391D01*
X195056Y441424D01*
X195079Y441474D01*
X195117Y441535D01*
X195167Y441602D01*
X195234Y441674D01*
X195312Y441740D01*
X195401Y441807D01*
X195406D01*
X195412Y441812D01*
X195445Y441835D01*
X195500Y441857D01*
X195572Y441890D01*
X195656Y441918D01*
X195756Y441946D01*
X195861Y441962D01*
X195978Y441968D01*
X195983D01*
X195994D01*
X196017D01*
X196044Y441962D01*
X196083D01*
X196122Y441957D01*
X196216Y441934D01*
X196327Y441901D01*
X196444Y441857D01*
X196560Y441790D01*
X196616Y441746D01*
X196671Y441701D01*
X196677Y441696D01*
X196683Y441690D01*
X196699Y441674D01*
X196716Y441651D01*
X196738Y441624D01*
X196760Y441590D01*
X196788Y441546D01*
X196821Y441502D01*
X196849Y441446D01*
X196877Y441385D01*
X196910Y441318D01*
X196938Y441246D01*
X196960Y441163D01*
X196988Y441080D01*
X197004Y440985D01*
X197021Y440885D01*
X197027Y440897D01*
X197038Y440919D01*
X197060Y440952D01*
X197082Y440997D01*
X197143Y441096D01*
X197182Y441146D01*
X197215Y441191D01*
X197226Y441202D01*
X197254Y441230D01*
X197299Y441274D01*
X197354Y441329D01*
X197432Y441391D01*
X197515Y441463D01*
X197615Y441535D01*
X197726Y441613D01*
X198769Y442273D01*
Y441640D01*
D02*
G37*
G36*
Y437017D02*
X195767D01*
X195772Y437012D01*
X195794Y436984D01*
X195828Y436951D01*
X195867Y436895D01*
X195917Y436834D01*
X195972Y436756D01*
X196033Y436667D01*
X196094Y436568D01*
Y436562D01*
X196100Y436556D01*
X196122Y436523D01*
X196150Y436468D01*
X196183Y436401D01*
X196222Y436323D01*
X196261Y436240D01*
X196300Y436157D01*
X196333Y436074D01*
X195878D01*
Y436079D01*
X195867Y436090D01*
X195861Y436112D01*
X195844Y436140D01*
X195828Y436173D01*
X195806Y436212D01*
X195750Y436307D01*
X195689Y436418D01*
X195611Y436529D01*
X195523Y436645D01*
X195428Y436762D01*
X195423Y436767D01*
X195417Y436773D01*
X195401Y436790D01*
X195384Y436812D01*
X195328Y436862D01*
X195262Y436928D01*
X195184Y436995D01*
X195095Y437067D01*
X195006Y437128D01*
X194912Y437184D01*
Y437489D01*
X198769D01*
Y437017D01*
D02*
G37*
G36*
X197559Y435269D02*
X197604Y435263D01*
X197654Y435258D01*
X197715Y435247D01*
X197776Y435236D01*
X197920Y435202D01*
X198070Y435147D01*
X198148Y435113D01*
X198220Y435069D01*
X198298Y435025D01*
X198370Y434969D01*
X198375Y434964D01*
X198392Y434952D01*
X198414Y434930D01*
X198442Y434903D01*
X198475Y434864D01*
X198520Y434819D01*
X198558Y434764D01*
X198603Y434703D01*
X198647Y434636D01*
X198686Y434558D01*
X198725Y434475D01*
X198764Y434386D01*
X198792Y434292D01*
X198814Y434187D01*
X198830Y434076D01*
X198836Y433959D01*
Y433909D01*
X198830Y433870D01*
X198825Y433826D01*
X198819Y433776D01*
X198814Y433715D01*
X198797Y433654D01*
X198764Y433515D01*
X198714Y433376D01*
X198680Y433304D01*
X198642Y433232D01*
X198597Y433165D01*
X198547Y433099D01*
X198542Y433093D01*
X198536Y433082D01*
X198514Y433071D01*
X198492Y433049D01*
X198464Y433021D01*
X198431Y432993D01*
X198386Y432960D01*
X198336Y432932D01*
X198286Y432899D01*
X198225Y432866D01*
X198092Y432805D01*
X197937Y432755D01*
X197854Y432738D01*
X197765Y432727D01*
X197726Y433221D01*
X197731D01*
X197743D01*
X197759Y433226D01*
X197787Y433232D01*
X197848Y433249D01*
X197931Y433271D01*
X198014Y433304D01*
X198109Y433349D01*
X198192Y433404D01*
X198270Y433471D01*
X198275Y433482D01*
X198298Y433504D01*
X198325Y433548D01*
X198359Y433609D01*
X198392Y433676D01*
X198420Y433759D01*
X198442Y433854D01*
X198447Y433959D01*
Y433992D01*
X198442Y434015D01*
X198436Y434081D01*
X198414Y434159D01*
X198386Y434253D01*
X198342Y434348D01*
X198275Y434447D01*
X198237Y434492D01*
X198192Y434536D01*
X198187Y434542D01*
X198181Y434547D01*
X198164Y434558D01*
X198148Y434575D01*
X198087Y434614D01*
X198009Y434658D01*
X197915Y434697D01*
X197798Y434736D01*
X197659Y434764D01*
X197587Y434775D01*
X197510D01*
X197504D01*
X197493D01*
X197471D01*
X197443Y434769D01*
X197410D01*
X197371Y434764D01*
X197282Y434747D01*
X197177Y434719D01*
X197071Y434681D01*
X196971Y434625D01*
X196877Y434547D01*
X196871D01*
X196866Y434536D01*
X196838Y434509D01*
X196799Y434459D01*
X196755Y434392D01*
X196716Y434303D01*
X196677Y434203D01*
X196649Y434087D01*
X196638Y434020D01*
Y433915D01*
X196644Y433870D01*
X196649Y433815D01*
X196666Y433748D01*
X196683Y433682D01*
X196710Y433609D01*
X196744Y433537D01*
X196749Y433532D01*
X196760Y433510D01*
X196788Y433476D01*
X196816Y433432D01*
X196855Y433387D01*
X196905Y433343D01*
X196955Y433293D01*
X197016Y433254D01*
X196955Y432810D01*
X194979Y433182D01*
Y435091D01*
X195428D01*
Y433554D01*
X196466Y433349D01*
X196460Y433354D01*
X196455Y433365D01*
X196444Y433382D01*
X196427Y433410D01*
X196411Y433443D01*
X196388Y433482D01*
X196344Y433571D01*
X196300Y433682D01*
X196261Y433804D01*
X196233Y433937D01*
X196222Y434003D01*
Y434126D01*
X196227Y434159D01*
X196233Y434203D01*
X196239Y434253D01*
X196250Y434309D01*
X196266Y434370D01*
X196305Y434503D01*
X196333Y434575D01*
X196372Y434647D01*
X196411Y434719D01*
X196455Y434792D01*
X196511Y434858D01*
X196572Y434925D01*
X196577Y434930D01*
X196588Y434941D01*
X196605Y434958D01*
X196633Y434980D01*
X196671Y435008D01*
X196710Y435036D01*
X196760Y435069D01*
X196816Y435102D01*
X196877Y435130D01*
X196943Y435163D01*
X197021Y435191D01*
X197099Y435219D01*
X197182Y435241D01*
X197276Y435258D01*
X197371Y435269D01*
X197471Y435274D01*
X197476D01*
X197493D01*
X197521D01*
X197559Y435269D01*
D02*
G37*
G36*
X270362Y446640D02*
X269563Y446135D01*
X269557D01*
X269546Y446124D01*
X269530Y446113D01*
X269507Y446096D01*
X269446Y446058D01*
X269369Y446008D01*
X269285Y445947D01*
X269197Y445886D01*
X269113Y445824D01*
X269036Y445769D01*
X269030Y445763D01*
X269008Y445747D01*
X268974Y445719D01*
X268936Y445680D01*
X268852Y445597D01*
X268814Y445552D01*
X268780Y445508D01*
X268775Y445503D01*
X268769Y445491D01*
X268758Y445469D01*
X268741Y445436D01*
X268725Y445403D01*
X268708Y445364D01*
X268680Y445275D01*
Y445269D01*
X268675Y445258D01*
Y445236D01*
X268669Y445208D01*
X268664Y445169D01*
Y445125D01*
X268658Y445064D01*
Y444409D01*
X270362D01*
Y443899D01*
X266521D01*
Y445680D01*
X266527Y445724D01*
Y445775D01*
X266532Y445891D01*
X266549Y446013D01*
X266566Y446146D01*
X266594Y446269D01*
X266610Y446329D01*
X266627Y446379D01*
Y446385D01*
X266632Y446390D01*
X266649Y446424D01*
X266671Y446474D01*
X266710Y446535D01*
X266760Y446601D01*
X266827Y446674D01*
X266904Y446740D01*
X266993Y446807D01*
X266999D01*
X267004Y446812D01*
X267038Y446835D01*
X267093Y446857D01*
X267165Y446890D01*
X267249Y446918D01*
X267348Y446946D01*
X267454Y446962D01*
X267570Y446968D01*
X267576D01*
X267587D01*
X267609D01*
X267637Y446962D01*
X267676D01*
X267715Y446957D01*
X267809Y446935D01*
X267920Y446901D01*
X268037Y446857D01*
X268153Y446790D01*
X268209Y446746D01*
X268264Y446701D01*
X268270Y446696D01*
X268275Y446690D01*
X268292Y446674D01*
X268308Y446651D01*
X268331Y446624D01*
X268353Y446590D01*
X268381Y446546D01*
X268414Y446502D01*
X268442Y446446D01*
X268470Y446385D01*
X268503Y446318D01*
X268531Y446246D01*
X268553Y446163D01*
X268581Y446080D01*
X268597Y445985D01*
X268614Y445886D01*
X268619Y445897D01*
X268630Y445919D01*
X268653Y445952D01*
X268675Y445997D01*
X268736Y446096D01*
X268775Y446146D01*
X268808Y446191D01*
X268819Y446202D01*
X268847Y446230D01*
X268891Y446274D01*
X268947Y446329D01*
X269024Y446390D01*
X269108Y446463D01*
X269208Y446535D01*
X269319Y446613D01*
X270362Y447273D01*
Y446640D01*
D02*
G37*
G36*
Y442017D02*
X267359D01*
X267365Y442012D01*
X267387Y441984D01*
X267421Y441951D01*
X267459Y441895D01*
X267509Y441834D01*
X267565Y441756D01*
X267626Y441668D01*
X267687Y441568D01*
Y441562D01*
X267692Y441557D01*
X267715Y441523D01*
X267742Y441468D01*
X267776Y441401D01*
X267815Y441323D01*
X267853Y441240D01*
X267892Y441157D01*
X267926Y441074D01*
X267471D01*
Y441079D01*
X267459Y441090D01*
X267454Y441113D01*
X267437Y441140D01*
X267421Y441174D01*
X267398Y441212D01*
X267343Y441307D01*
X267282Y441418D01*
X267204Y441529D01*
X267115Y441645D01*
X267021Y441762D01*
X267015Y441767D01*
X267010Y441773D01*
X266993Y441790D01*
X266976Y441812D01*
X266921Y441862D01*
X266854Y441928D01*
X266777Y441995D01*
X266688Y442067D01*
X266599Y442128D01*
X266505Y442184D01*
Y442489D01*
X270362D01*
Y442017D01*
D02*
G37*
G36*
X269152Y440269D02*
X269197Y440263D01*
X269247Y440258D01*
X269307Y440247D01*
X269369Y440236D01*
X269513Y440202D01*
X269663Y440147D01*
X269740Y440113D01*
X269813Y440069D01*
X269890Y440025D01*
X269962Y439969D01*
X269968Y439964D01*
X269985Y439953D01*
X270007Y439930D01*
X270035Y439903D01*
X270068Y439864D01*
X270112Y439819D01*
X270151Y439764D01*
X270196Y439703D01*
X270240Y439636D01*
X270279Y439559D01*
X270318Y439475D01*
X270356Y439386D01*
X270384Y439292D01*
X270406Y439187D01*
X270423Y439076D01*
X270429Y438959D01*
Y438909D01*
X270423Y438870D01*
X270417Y438826D01*
X270412Y438776D01*
X270406Y438715D01*
X270390Y438654D01*
X270356Y438515D01*
X270306Y438376D01*
X270273Y438304D01*
X270234Y438232D01*
X270190Y438165D01*
X270140Y438099D01*
X270134Y438093D01*
X270129Y438082D01*
X270107Y438071D01*
X270085Y438049D01*
X270057Y438021D01*
X270023Y437993D01*
X269979Y437960D01*
X269929Y437932D01*
X269879Y437899D01*
X269818Y437866D01*
X269685Y437805D01*
X269530Y437755D01*
X269446Y437738D01*
X269357Y437727D01*
X269319Y438221D01*
X269324D01*
X269335D01*
X269352Y438227D01*
X269380Y438232D01*
X269441Y438249D01*
X269524Y438271D01*
X269607Y438304D01*
X269702Y438349D01*
X269785Y438404D01*
X269863Y438471D01*
X269868Y438482D01*
X269890Y438504D01*
X269918Y438548D01*
X269951Y438610D01*
X269985Y438676D01*
X270012Y438759D01*
X270035Y438854D01*
X270040Y438959D01*
Y438992D01*
X270035Y439015D01*
X270029Y439081D01*
X270007Y439159D01*
X269979Y439253D01*
X269935Y439348D01*
X269868Y439447D01*
X269829Y439492D01*
X269785Y439536D01*
X269779Y439542D01*
X269774Y439547D01*
X269757Y439559D01*
X269740Y439575D01*
X269679Y439614D01*
X269602Y439658D01*
X269507Y439697D01*
X269391Y439736D01*
X269252Y439764D01*
X269180Y439775D01*
X269102D01*
X269097D01*
X269086D01*
X269063D01*
X269036Y439769D01*
X269002D01*
X268963Y439764D01*
X268875Y439747D01*
X268769Y439719D01*
X268664Y439681D01*
X268564Y439625D01*
X268470Y439547D01*
X268464D01*
X268458Y439536D01*
X268431Y439509D01*
X268392Y439459D01*
X268347Y439392D01*
X268308Y439303D01*
X268270Y439203D01*
X268242Y439087D01*
X268231Y439020D01*
Y438915D01*
X268236Y438870D01*
X268242Y438815D01*
X268259Y438748D01*
X268275Y438682D01*
X268303Y438610D01*
X268336Y438537D01*
X268342Y438532D01*
X268353Y438510D01*
X268381Y438476D01*
X268408Y438432D01*
X268447Y438387D01*
X268497Y438343D01*
X268547Y438293D01*
X268608Y438254D01*
X268547Y437810D01*
X266571Y438182D01*
Y440091D01*
X267021D01*
Y438554D01*
X268059Y438349D01*
X268053Y438354D01*
X268048Y438365D01*
X268037Y438382D01*
X268020Y438410D01*
X268003Y438443D01*
X267981Y438482D01*
X267937Y438571D01*
X267892Y438682D01*
X267853Y438804D01*
X267826Y438937D01*
X267815Y439004D01*
Y439126D01*
X267820Y439159D01*
X267826Y439203D01*
X267831Y439253D01*
X267842Y439309D01*
X267859Y439370D01*
X267898Y439503D01*
X267926Y439575D01*
X267964Y439647D01*
X268003Y439719D01*
X268048Y439792D01*
X268103Y439858D01*
X268164Y439925D01*
X268170Y439930D01*
X268181Y439941D01*
X268197Y439958D01*
X268225Y439980D01*
X268264Y440008D01*
X268303Y440036D01*
X268353Y440069D01*
X268408Y440102D01*
X268470Y440130D01*
X268536Y440164D01*
X268614Y440191D01*
X268691Y440219D01*
X268775Y440241D01*
X268869Y440258D01*
X268963Y440269D01*
X269063Y440274D01*
X269069D01*
X269086D01*
X269113D01*
X269152Y440269D01*
D02*
G37*
G36*
X252223Y428457D02*
X252218Y428451D01*
X252206Y428440D01*
X252184Y428418D01*
X252162Y428385D01*
X252129Y428346D01*
X252084Y428301D01*
X252040Y428246D01*
X251990Y428179D01*
X251940Y428113D01*
X251879Y428035D01*
X251818Y427946D01*
X251757Y427857D01*
X251690Y427758D01*
X251624Y427652D01*
X251557Y427536D01*
X251490Y427419D01*
X251485Y427414D01*
X251474Y427391D01*
X251457Y427358D01*
X251429Y427308D01*
X251402Y427247D01*
X251368Y427180D01*
X251329Y427103D01*
X251291Y427014D01*
X251246Y426914D01*
X251196Y426814D01*
X251152Y426703D01*
X251108Y426586D01*
X251019Y426348D01*
X250935Y426093D01*
Y426087D01*
X250930Y426070D01*
X250924Y426043D01*
X250913Y426009D01*
X250902Y425965D01*
X250891Y425909D01*
X250874Y425848D01*
X250863Y425782D01*
X250847Y425704D01*
X250830Y425621D01*
X250802Y425443D01*
X250775Y425249D01*
X250758Y425038D01*
X250275D01*
Y425044D01*
Y425060D01*
Y425082D01*
X250280Y425116D01*
Y425160D01*
X250286Y425216D01*
X250292Y425277D01*
X250297Y425343D01*
X250308Y425421D01*
X250319Y425499D01*
X250336Y425593D01*
X250353Y425687D01*
X250369Y425787D01*
X250392Y425898D01*
X250447Y426126D01*
Y426131D01*
X250453Y426154D01*
X250464Y426187D01*
X250480Y426237D01*
X250497Y426292D01*
X250519Y426359D01*
X250541Y426437D01*
X250575Y426520D01*
X250608Y426614D01*
X250641Y426709D01*
X250725Y426920D01*
X250824Y427142D01*
X250935Y427363D01*
X250941Y427369D01*
X250952Y427391D01*
X250969Y427419D01*
X250991Y427463D01*
X251019Y427513D01*
X251058Y427574D01*
X251096Y427641D01*
X251141Y427713D01*
X251246Y427874D01*
X251357Y428041D01*
X251485Y428213D01*
X251618Y428374D01*
X249737D01*
Y428829D01*
X252223D01*
Y428457D01*
D02*
G37*
G36*
X247855Y428873D02*
X247905D01*
X248022Y428868D01*
X248144Y428851D01*
X248277Y428834D01*
X248399Y428806D01*
X248460Y428790D01*
X248510Y428773D01*
X248516D01*
X248521Y428768D01*
X248554Y428751D01*
X248604Y428729D01*
X248665Y428690D01*
X248732Y428640D01*
X248804Y428573D01*
X248871Y428496D01*
X248937Y428407D01*
Y428401D01*
X248943Y428396D01*
X248965Y428363D01*
X248987Y428307D01*
X249021Y428235D01*
X249048Y428152D01*
X249076Y428052D01*
X249093Y427946D01*
X249098Y427830D01*
Y427824D01*
Y427813D01*
Y427791D01*
X249093Y427763D01*
Y427724D01*
X249087Y427685D01*
X249065Y427591D01*
X249032Y427480D01*
X248987Y427363D01*
X248921Y427247D01*
X248876Y427191D01*
X248832Y427136D01*
X248827Y427130D01*
X248821Y427125D01*
X248804Y427108D01*
X248782Y427092D01*
X248754Y427069D01*
X248721Y427047D01*
X248677Y427019D01*
X248632Y426986D01*
X248577Y426958D01*
X248516Y426931D01*
X248449Y426897D01*
X248377Y426870D01*
X248294Y426847D01*
X248210Y426820D01*
X248116Y426803D01*
X248016Y426786D01*
X248027Y426781D01*
X248049Y426770D01*
X248083Y426748D01*
X248127Y426725D01*
X248227Y426664D01*
X248277Y426625D01*
X248321Y426592D01*
X248333Y426581D01*
X248360Y426553D01*
X248405Y426509D01*
X248460Y426453D01*
X248521Y426376D01*
X248593Y426292D01*
X248665Y426193D01*
X248743Y426082D01*
X249404Y425038D01*
X248771D01*
X248266Y425837D01*
Y425843D01*
X248255Y425854D01*
X248244Y425871D01*
X248227Y425893D01*
X248188Y425954D01*
X248138Y426031D01*
X248077Y426115D01*
X248016Y426204D01*
X247955Y426287D01*
X247900Y426365D01*
X247894Y426370D01*
X247877Y426392D01*
X247850Y426426D01*
X247811Y426464D01*
X247728Y426548D01*
X247683Y426586D01*
X247639Y426620D01*
X247633Y426625D01*
X247622Y426631D01*
X247600Y426642D01*
X247567Y426659D01*
X247533Y426675D01*
X247495Y426692D01*
X247406Y426720D01*
X247400D01*
X247389Y426725D01*
X247367D01*
X247339Y426731D01*
X247300Y426736D01*
X247256D01*
X247195Y426742D01*
X246540D01*
Y425038D01*
X246029D01*
Y428879D01*
X247811D01*
X247855Y428873D01*
D02*
G37*
G36*
X244209Y428890D02*
X244253Y428884D01*
X244309Y428879D01*
X244370Y428868D01*
X244431Y428857D01*
X244575Y428818D01*
X244720Y428762D01*
X244792Y428729D01*
X244864Y428690D01*
X244930Y428640D01*
X244991Y428584D01*
X244997Y428579D01*
X245008Y428573D01*
X245019Y428551D01*
X245041Y428529D01*
X245069Y428501D01*
X245097Y428462D01*
X245125Y428424D01*
X245158Y428374D01*
X245213Y428268D01*
X245269Y428135D01*
X245291Y428068D01*
X245302Y427991D01*
X245313Y427913D01*
X245319Y427830D01*
Y427819D01*
Y427791D01*
X245313Y427746D01*
X245308Y427685D01*
X245297Y427619D01*
X245274Y427541D01*
X245252Y427458D01*
X245219Y427375D01*
X245213Y427363D01*
X245202Y427336D01*
X245180Y427291D01*
X245147Y427230D01*
X245102Y427164D01*
X245047Y427080D01*
X244980Y426997D01*
X244903Y426903D01*
X244892Y426892D01*
X244864Y426859D01*
X244836Y426831D01*
X244808Y426803D01*
X244775Y426770D01*
X244730Y426725D01*
X244686Y426681D01*
X244631Y426631D01*
X244575Y426575D01*
X244509Y426514D01*
X244436Y426453D01*
X244359Y426381D01*
X244270Y426309D01*
X244181Y426231D01*
X244176Y426226D01*
X244164Y426215D01*
X244142Y426198D01*
X244114Y426176D01*
X244081Y426143D01*
X244042Y426109D01*
X243953Y426037D01*
X243859Y425954D01*
X243770Y425871D01*
X243693Y425798D01*
X243659Y425771D01*
X243632Y425743D01*
X243626Y425737D01*
X243609Y425721D01*
X243587Y425699D01*
X243560Y425665D01*
X243532Y425626D01*
X243498Y425588D01*
X243432Y425493D01*
X245324D01*
Y425038D01*
X242777D01*
Y425044D01*
Y425066D01*
Y425099D01*
X242782Y425143D01*
X242788Y425194D01*
X242799Y425249D01*
X242810Y425305D01*
X242832Y425365D01*
Y425371D01*
X242838Y425377D01*
X242849Y425410D01*
X242871Y425460D01*
X242905Y425527D01*
X242949Y425604D01*
X243004Y425693D01*
X243066Y425782D01*
X243143Y425876D01*
Y425882D01*
X243154Y425887D01*
X243182Y425920D01*
X243232Y425971D01*
X243304Y426043D01*
X243387Y426126D01*
X243493Y426226D01*
X243621Y426337D01*
X243759Y426453D01*
X243765Y426459D01*
X243787Y426475D01*
X243820Y426503D01*
X243859Y426537D01*
X243909Y426581D01*
X243970Y426631D01*
X244031Y426686D01*
X244103Y426748D01*
X244242Y426881D01*
X244381Y427014D01*
X244447Y427080D01*
X244509Y427147D01*
X244564Y427208D01*
X244608Y427269D01*
Y427275D01*
X244619Y427280D01*
X244631Y427297D01*
X244642Y427319D01*
X244681Y427380D01*
X244725Y427452D01*
X244764Y427541D01*
X244803Y427635D01*
X244825Y427741D01*
X244836Y427841D01*
Y427846D01*
Y427852D01*
X244830Y427885D01*
X244825Y427941D01*
X244808Y428002D01*
X244786Y428080D01*
X244747Y428157D01*
X244697Y428235D01*
X244631Y428313D01*
X244619Y428324D01*
X244592Y428346D01*
X244553Y428374D01*
X244492Y428412D01*
X244414Y428446D01*
X244325Y428479D01*
X244220Y428501D01*
X244103Y428507D01*
X244070D01*
X244048Y428501D01*
X243981Y428496D01*
X243904Y428479D01*
X243820Y428457D01*
X243726Y428418D01*
X243637Y428368D01*
X243554Y428301D01*
X243543Y428290D01*
X243521Y428263D01*
X243487Y428218D01*
X243454Y428152D01*
X243415Y428074D01*
X243382Y427974D01*
X243360Y427863D01*
X243349Y427735D01*
X242866Y427785D01*
Y427791D01*
X242871Y427808D01*
Y427835D01*
X242877Y427874D01*
X242888Y427918D01*
X242899Y427969D01*
X242916Y428029D01*
X242932Y428091D01*
X242977Y428224D01*
X243043Y428357D01*
X243082Y428424D01*
X243132Y428490D01*
X243182Y428551D01*
X243238Y428607D01*
X243243Y428612D01*
X243254Y428618D01*
X243271Y428635D01*
X243299Y428651D01*
X243332Y428673D01*
X243371Y428695D01*
X243415Y428723D01*
X243471Y428751D01*
X243532Y428779D01*
X243598Y428806D01*
X243671Y428829D01*
X243748Y428851D01*
X243831Y428868D01*
X243920Y428884D01*
X244015Y428890D01*
X244114Y428895D01*
X244170D01*
X244209Y428890D01*
D02*
G37*
G36*
X234701Y428940D02*
X234751D01*
X234867Y428934D01*
X234989Y428918D01*
X235123Y428901D01*
X235245Y428873D01*
X235306Y428857D01*
X235356Y428840D01*
X235361D01*
X235367Y428834D01*
X235400Y428818D01*
X235450Y428795D01*
X235511Y428757D01*
X235578Y428707D01*
X235650Y428640D01*
X235717Y428562D01*
X235783Y428474D01*
Y428468D01*
X235789Y428462D01*
X235811Y428429D01*
X235833Y428374D01*
X235866Y428301D01*
X235894Y428218D01*
X235922Y428118D01*
X235939Y428013D01*
X235944Y427896D01*
Y427891D01*
Y427880D01*
Y427857D01*
X235939Y427830D01*
Y427791D01*
X235933Y427752D01*
X235911Y427658D01*
X235877Y427547D01*
X235833Y427430D01*
X235766Y427314D01*
X235722Y427258D01*
X235678Y427203D01*
X235672Y427197D01*
X235667Y427191D01*
X235650Y427175D01*
X235628Y427158D01*
X235600Y427136D01*
X235567Y427114D01*
X235522Y427086D01*
X235478Y427053D01*
X235422Y427025D01*
X235361Y426997D01*
X235295Y426964D01*
X235223Y426936D01*
X235139Y426914D01*
X235056Y426886D01*
X234962Y426870D01*
X234862Y426853D01*
X234873Y426847D01*
X234895Y426836D01*
X234928Y426814D01*
X234973Y426792D01*
X235073Y426731D01*
X235123Y426692D01*
X235167Y426659D01*
X235178Y426648D01*
X235206Y426620D01*
X235250Y426575D01*
X235306Y426520D01*
X235367Y426442D01*
X235439Y426359D01*
X235511Y426259D01*
X235589Y426148D01*
X236249Y425105D01*
X235617D01*
X235111Y425904D01*
Y425909D01*
X235101Y425920D01*
X235089Y425937D01*
X235073Y425959D01*
X235034Y426020D01*
X234984Y426098D01*
X234923Y426181D01*
X234862Y426270D01*
X234801Y426353D01*
X234745Y426431D01*
X234740Y426437D01*
X234723Y426459D01*
X234695Y426492D01*
X234656Y426531D01*
X234573Y426614D01*
X234529Y426653D01*
X234484Y426686D01*
X234479Y426692D01*
X234468Y426697D01*
X234446Y426709D01*
X234412Y426725D01*
X234379Y426742D01*
X234340Y426759D01*
X234251Y426786D01*
X234246D01*
X234235Y426792D01*
X234212D01*
X234185Y426797D01*
X234146Y426803D01*
X234102D01*
X234040Y426809D01*
X233385D01*
Y425105D01*
X232875D01*
Y428945D01*
X234656D01*
X234701Y428940D01*
D02*
G37*
G36*
X232209Y428523D02*
X232203Y428518D01*
X232192Y428507D01*
X232170Y428485D01*
X232148Y428451D01*
X232115Y428412D01*
X232070Y428368D01*
X232026Y428313D01*
X231976Y428246D01*
X231926Y428179D01*
X231865Y428102D01*
X231804Y428013D01*
X231743Y427924D01*
X231676Y427824D01*
X231610Y427719D01*
X231543Y427602D01*
X231476Y427486D01*
X231471Y427480D01*
X231460Y427458D01*
X231443Y427425D01*
X231415Y427375D01*
X231387Y427314D01*
X231354Y427247D01*
X231315Y427169D01*
X231276Y427080D01*
X231232Y426981D01*
X231182Y426881D01*
X231138Y426770D01*
X231093Y426653D01*
X231005Y426414D01*
X230921Y426159D01*
Y426154D01*
X230916Y426137D01*
X230910Y426109D01*
X230899Y426076D01*
X230888Y426031D01*
X230877Y425976D01*
X230860Y425915D01*
X230849Y425848D01*
X230833Y425771D01*
X230816Y425687D01*
X230788Y425510D01*
X230760Y425316D01*
X230744Y425105D01*
X230261D01*
Y425110D01*
Y425127D01*
Y425149D01*
X230266Y425182D01*
Y425227D01*
X230272Y425282D01*
X230277Y425343D01*
X230283Y425410D01*
X230294Y425488D01*
X230305Y425565D01*
X230322Y425660D01*
X230339Y425754D01*
X230355Y425854D01*
X230377Y425965D01*
X230433Y426193D01*
Y426198D01*
X230438Y426220D01*
X230450Y426254D01*
X230466Y426303D01*
X230483Y426359D01*
X230505Y426426D01*
X230527Y426503D01*
X230561Y426586D01*
X230594Y426681D01*
X230627Y426775D01*
X230710Y426986D01*
X230810Y427208D01*
X230921Y427430D01*
X230927Y427436D01*
X230938Y427458D01*
X230955Y427486D01*
X230977Y427530D01*
X231005Y427580D01*
X231043Y427641D01*
X231082Y427708D01*
X231127Y427780D01*
X231232Y427941D01*
X231343Y428107D01*
X231471Y428279D01*
X231604Y428440D01*
X229722D01*
Y428895D01*
X232209D01*
Y428523D01*
D02*
G37*
G36*
X226237D02*
X226232Y428518D01*
X226220Y428507D01*
X226198Y428485D01*
X226176Y428451D01*
X226143Y428412D01*
X226098Y428368D01*
X226054Y428313D01*
X226004Y428246D01*
X225954Y428179D01*
X225893Y428102D01*
X225832Y428013D01*
X225771Y427924D01*
X225704Y427824D01*
X225638Y427719D01*
X225571Y427602D01*
X225504Y427486D01*
X225499Y427480D01*
X225488Y427458D01*
X225471Y427425D01*
X225443Y427375D01*
X225416Y427314D01*
X225382Y427247D01*
X225344Y427169D01*
X225305Y427080D01*
X225260Y426981D01*
X225210Y426881D01*
X225166Y426770D01*
X225121Y426653D01*
X225033Y426414D01*
X224950Y426159D01*
Y426154D01*
X224944Y426137D01*
X224938Y426109D01*
X224927Y426076D01*
X224916Y426031D01*
X224905Y425976D01*
X224888Y425915D01*
X224877Y425848D01*
X224861Y425771D01*
X224844Y425687D01*
X224816Y425510D01*
X224788Y425316D01*
X224772Y425105D01*
X224289D01*
Y425110D01*
Y425127D01*
Y425149D01*
X224295Y425182D01*
Y425227D01*
X224300Y425282D01*
X224306Y425343D01*
X224311Y425410D01*
X224322Y425488D01*
X224333Y425565D01*
X224350Y425660D01*
X224367Y425754D01*
X224383Y425854D01*
X224406Y425965D01*
X224461Y426193D01*
Y426198D01*
X224467Y426220D01*
X224478Y426254D01*
X224494Y426303D01*
X224511Y426359D01*
X224533Y426426D01*
X224555Y426503D01*
X224589Y426586D01*
X224622Y426681D01*
X224655Y426775D01*
X224739Y426986D01*
X224838Y427208D01*
X224950Y427430D01*
X224955Y427436D01*
X224966Y427458D01*
X224983Y427486D01*
X225005Y427530D01*
X225033Y427580D01*
X225072Y427641D01*
X225110Y427708D01*
X225155Y427780D01*
X225260Y427941D01*
X225371Y428107D01*
X225499Y428279D01*
X225632Y428440D01*
X223751D01*
Y428895D01*
X226237D01*
Y428523D01*
D02*
G37*
G36*
X228035Y428956D02*
X228080Y428951D01*
X228130Y428945D01*
X228185Y428940D01*
X228241Y428923D01*
X228374Y428890D01*
X228507Y428840D01*
X228574Y428806D01*
X228640Y428768D01*
X228701Y428718D01*
X228762Y428668D01*
X228768Y428662D01*
X228773Y428657D01*
X228790Y428640D01*
X228812Y428618D01*
X228835Y428584D01*
X228862Y428551D01*
X228918Y428468D01*
X228973Y428363D01*
X229023Y428240D01*
X229062Y428102D01*
X229068Y428029D01*
X229073Y427952D01*
Y427946D01*
Y427941D01*
Y427907D01*
X229068Y427857D01*
X229057Y427796D01*
X229040Y427719D01*
X229012Y427641D01*
X228979Y427563D01*
X228929Y427486D01*
X228923Y427474D01*
X228901Y427452D01*
X228868Y427419D01*
X228823Y427375D01*
X228762Y427325D01*
X228690Y427275D01*
X228607Y427225D01*
X228507Y427180D01*
X228513D01*
X228524Y427175D01*
X228540Y427169D01*
X228563Y427158D01*
X228629Y427130D01*
X228707Y427092D01*
X228790Y427036D01*
X228879Y426975D01*
X228962Y426897D01*
X229040Y426809D01*
Y426803D01*
X229045Y426797D01*
X229068Y426764D01*
X229101Y426709D01*
X229134Y426637D01*
X229168Y426548D01*
X229201Y426442D01*
X229223Y426326D01*
X229228Y426198D01*
Y426193D01*
Y426176D01*
Y426148D01*
X229223Y426115D01*
X229218Y426076D01*
X229212Y426026D01*
X229201Y425971D01*
X229184Y425909D01*
X229145Y425782D01*
X229117Y425710D01*
X229079Y425643D01*
X229040Y425571D01*
X228995Y425504D01*
X228940Y425438D01*
X228879Y425371D01*
X228873Y425365D01*
X228862Y425354D01*
X228846Y425338D01*
X228818Y425321D01*
X228779Y425293D01*
X228740Y425266D01*
X228690Y425238D01*
X228635Y425205D01*
X228574Y425171D01*
X228502Y425143D01*
X228424Y425116D01*
X228346Y425088D01*
X228257Y425071D01*
X228163Y425055D01*
X228069Y425044D01*
X227963Y425038D01*
X227908D01*
X227869Y425044D01*
X227819Y425049D01*
X227763Y425055D01*
X227702Y425066D01*
X227636Y425082D01*
X227486Y425121D01*
X227408Y425149D01*
X227336Y425177D01*
X227258Y425216D01*
X227181Y425260D01*
X227108Y425310D01*
X227042Y425371D01*
X227036Y425377D01*
X227025Y425388D01*
X227009Y425404D01*
X226986Y425432D01*
X226964Y425465D01*
X226931Y425504D01*
X226903Y425549D01*
X226870Y425604D01*
X226836Y425660D01*
X226809Y425726D01*
X226753Y425865D01*
X226731Y425948D01*
X226714Y426031D01*
X226703Y426120D01*
X226698Y426209D01*
Y426215D01*
Y426226D01*
Y426248D01*
X226703Y426270D01*
Y426303D01*
X226709Y426342D01*
X226720Y426431D01*
X226742Y426531D01*
X226776Y426631D01*
X226825Y426736D01*
X226887Y426836D01*
Y426842D01*
X226898Y426847D01*
X226920Y426875D01*
X226964Y426920D01*
X227025Y426975D01*
X227103Y427031D01*
X227197Y427092D01*
X227303Y427142D01*
X227430Y427180D01*
X227425D01*
X227419Y427186D01*
X227403Y427191D01*
X227380Y427203D01*
X227330Y427225D01*
X227264Y427258D01*
X227192Y427303D01*
X227119Y427358D01*
X227053Y427419D01*
X226992Y427486D01*
X226986Y427497D01*
X226970Y427519D01*
X226947Y427563D01*
X226925Y427619D01*
X226898Y427691D01*
X226875Y427774D01*
X226859Y427869D01*
X226853Y427969D01*
Y427974D01*
Y427985D01*
Y428007D01*
X226859Y428041D01*
X226864Y428074D01*
X226870Y428118D01*
X226892Y428213D01*
X226925Y428324D01*
X226981Y428440D01*
X227014Y428501D01*
X227053Y428562D01*
X227103Y428618D01*
X227153Y428673D01*
X227158Y428679D01*
X227169Y428684D01*
X227186Y428701D01*
X227208Y428718D01*
X227236Y428740D01*
X227275Y428762D01*
X227319Y428790D01*
X227364Y428818D01*
X227419Y428845D01*
X227480Y428873D01*
X227547Y428895D01*
X227619Y428918D01*
X227774Y428951D01*
X227863Y428956D01*
X227952Y428962D01*
X228002D01*
X228035Y428956D01*
D02*
G37*
G36*
X180968Y413525D02*
X169245D01*
Y424475D01*
X180968D01*
Y413525D01*
D02*
G37*
%LPC*%
G36*
X304141Y420718D02*
X303470D01*
Y417802D01*
Y417635D01*
X303456Y417474D01*
X303441Y417336D01*
X303419Y417205D01*
X303398Y417088D01*
X303368Y416979D01*
X303347Y416884D01*
X303317Y416804D01*
X303288Y416738D01*
X303259Y416672D01*
X303230Y416629D01*
X303208Y416585D01*
X303186Y416556D01*
X303172Y416534D01*
X303164Y416527D01*
X303157Y416519D01*
X303091Y416461D01*
X303018Y416410D01*
X302858Y416330D01*
X302691Y416271D01*
X302516Y416235D01*
X302355Y416206D01*
X302290Y416198D01*
X302224D01*
X302180Y416191D01*
X302107D01*
X301954Y416198D01*
X301816Y416220D01*
X301684Y416242D01*
X301582Y416279D01*
X301495Y416308D01*
X301429Y416330D01*
X301393Y416352D01*
X301378Y416359D01*
X301276Y416424D01*
X301189Y416505D01*
X301116Y416585D01*
X301065Y416658D01*
X301021Y416731D01*
X300985Y416782D01*
X300970Y416818D01*
X300963Y416833D01*
X300941Y416898D01*
X300926Y416964D01*
X300897Y417117D01*
X300875Y417277D01*
X300861Y417438D01*
X300853Y417576D01*
Y417642D01*
X300846Y417693D01*
Y417737D01*
Y417773D01*
Y417795D01*
Y417802D01*
Y420718D01*
X300175D01*
Y417657D01*
X300183Y417518D01*
X300190Y417387D01*
X300205Y417263D01*
X300219Y417153D01*
X300234Y417051D01*
X300256Y416957D01*
X300270Y416869D01*
X300285Y416789D01*
X300307Y416723D01*
X300321Y416665D01*
X300336Y416621D01*
X300350Y416585D01*
X300358Y416556D01*
X300365Y416541D01*
Y416534D01*
X300445Y416373D01*
X300547Y416228D01*
X300649Y416111D01*
X300759Y416009D01*
X300853Y415929D01*
X300934Y415870D01*
X300963Y415856D01*
X300985Y415841D01*
X300999Y415827D01*
X301007D01*
X301189Y415746D01*
X301378Y415688D01*
X301575Y415644D01*
X301757Y415615D01*
X301838Y415608D01*
X301918Y415601D01*
X301991Y415593D01*
X302049D01*
X302100Y415586D01*
X302166D01*
X302428Y415601D01*
X302545Y415615D01*
X302654Y415630D01*
X302763Y415652D01*
X302858Y415674D01*
X302946Y415695D01*
X303026Y415725D01*
X303099Y415754D01*
X303157Y415776D01*
X303215Y415798D01*
X303259Y415819D01*
X303296Y415841D01*
X303317Y415848D01*
X303332Y415863D01*
X303339D01*
X303500Y415973D01*
X303631Y416096D01*
X303733Y416213D01*
X303820Y416330D01*
X303886Y416432D01*
X303930Y416512D01*
X303944Y416541D01*
X303959Y416563D01*
X303966Y416577D01*
Y416585D01*
X303995Y416672D01*
X304025Y416767D01*
X304068Y416964D01*
X304097Y417168D01*
X304119Y417365D01*
X304127Y417452D01*
X304134Y417540D01*
Y417613D01*
X304141Y417678D01*
Y420718D01*
D02*
G37*
G36*
X308872D02*
X304877D01*
Y420120D01*
X306540D01*
Y415674D01*
X307210D01*
Y420120D01*
X308872D01*
Y420718D01*
D02*
G37*
G36*
X296960Y420806D02*
X296895D01*
X296698Y420798D01*
X296516Y420777D01*
X296341Y420740D01*
X296173Y420696D01*
X296020Y420638D01*
X295874Y420580D01*
X295743Y420514D01*
X295626Y420448D01*
X295517Y420383D01*
X295422Y420317D01*
X295342Y420259D01*
X295276Y420201D01*
X295226Y420157D01*
X295182Y420120D01*
X295160Y420099D01*
X295153Y420091D01*
X295036Y419953D01*
X294934Y419807D01*
X294839Y419647D01*
X294766Y419486D01*
X294701Y419319D01*
X294642Y419158D01*
X294599Y418998D01*
X294569Y418845D01*
X294540Y418699D01*
X294518Y418560D01*
X294504Y418436D01*
X294489Y418334D01*
Y418247D01*
X294482Y418181D01*
Y418123D01*
X294496Y417875D01*
X294526Y417649D01*
X294569Y417430D01*
X294599Y417336D01*
X294628Y417241D01*
X294650Y417161D01*
X294679Y417088D01*
X294701Y417022D01*
X294723Y416964D01*
X294737Y416920D01*
X294752Y416891D01*
X294766Y416869D01*
Y416862D01*
X294890Y416650D01*
X295021Y416468D01*
X295167Y416308D01*
X295306Y416177D01*
X295430Y416067D01*
X295481Y416023D01*
X295524Y415994D01*
X295568Y415965D01*
X295597Y415943D01*
X295612Y415936D01*
X295619Y415929D01*
X295728Y415870D01*
X295838Y415819D01*
X296057Y415732D01*
X296268Y415674D01*
X296465Y415630D01*
X296560Y415615D01*
X296640Y415608D01*
X296713Y415593D01*
X296778D01*
X296822Y415586D01*
X296895D01*
X297135Y415601D01*
X297361Y415637D01*
X297573Y415681D01*
X297668Y415710D01*
X297755Y415739D01*
X297835Y415768D01*
X297908Y415798D01*
X297967Y415819D01*
X298018Y415841D01*
X298061Y415863D01*
X298098Y415878D01*
X298112Y415892D01*
X298120D01*
X298324Y416023D01*
X298499Y416169D01*
X298644Y416322D01*
X298768Y416468D01*
X298870Y416607D01*
X298907Y416658D01*
X298936Y416709D01*
X298965Y416752D01*
X298980Y416782D01*
X298994Y416804D01*
Y416811D01*
X299053Y416927D01*
X299096Y417044D01*
X299177Y417277D01*
X299235Y417511D01*
X299271Y417722D01*
X299279Y417817D01*
X299293Y417904D01*
X299301Y417984D01*
Y418050D01*
X299308Y418108D01*
Y418181D01*
X299293Y418458D01*
X299264Y418714D01*
X299242Y418830D01*
X299213Y418947D01*
X299184Y419049D01*
X299162Y419144D01*
X299133Y419231D01*
X299104Y419311D01*
X299082Y419377D01*
X299053Y419435D01*
X299038Y419479D01*
X299024Y419508D01*
X299009Y419530D01*
Y419537D01*
X298892Y419749D01*
X298754Y419938D01*
X298608Y420099D01*
X298477Y420230D01*
X298353Y420332D01*
X298295Y420376D01*
X298251Y420412D01*
X298207Y420434D01*
X298178Y420456D01*
X298163Y420463D01*
X298156Y420470D01*
X298047Y420529D01*
X297937Y420580D01*
X297726Y420667D01*
X297507Y420726D01*
X297318Y420762D01*
X297230Y420777D01*
X297143Y420791D01*
X297077Y420798D01*
X297012D01*
X296960Y420806D01*
D02*
G37*
%LPD*%
G36*
X297077Y420223D02*
X297252Y420193D01*
X297405Y420150D01*
X297536Y420106D01*
X297646Y420055D01*
X297690Y420033D01*
X297726Y420018D01*
X297762Y419997D01*
X297784Y419989D01*
X297792Y419975D01*
X297799D01*
X297937Y419873D01*
X298061Y419756D01*
X298171Y419639D01*
X298258Y419523D01*
X298324Y419421D01*
X298375Y419333D01*
X298389Y419304D01*
X298404Y419282D01*
X298411Y419268D01*
Y419260D01*
X298484Y419085D01*
X298535Y418896D01*
X298572Y418721D01*
X298593Y418553D01*
X298608Y418473D01*
X298615Y418407D01*
Y418342D01*
X298623Y418291D01*
Y418247D01*
Y418218D01*
Y418196D01*
Y418189D01*
X298615Y418014D01*
X298601Y417846D01*
X298579Y417686D01*
X298550Y417540D01*
X298506Y417409D01*
X298470Y417285D01*
X298426Y417168D01*
X298382Y417066D01*
X298331Y416979D01*
X298287Y416898D01*
X298251Y416833D01*
X298214Y416782D01*
X298178Y416738D01*
X298156Y416702D01*
X298142Y416687D01*
X298134Y416680D01*
X298040Y416585D01*
X297937Y416505D01*
X297835Y416439D01*
X297733Y416373D01*
X297631Y416322D01*
X297522Y416286D01*
X297427Y416250D01*
X297325Y416220D01*
X297238Y416198D01*
X297150Y416184D01*
X297077Y416169D01*
X297012Y416162D01*
X296960D01*
X296924Y416155D01*
X296888D01*
X296749Y416162D01*
X296618Y416177D01*
X296501Y416206D01*
X296385Y416235D01*
X296275Y416279D01*
X296173Y416322D01*
X296078Y416366D01*
X295991Y416417D01*
X295918Y416468D01*
X295852Y416512D01*
X295794Y416556D01*
X295743Y416599D01*
X295707Y416629D01*
X295677Y416658D01*
X295663Y416672D01*
X295656Y416680D01*
X295568Y416782D01*
X295495Y416891D01*
X295430Y417008D01*
X295371Y417124D01*
X295328Y417248D01*
X295284Y417365D01*
X295226Y417598D01*
X295211Y417700D01*
X295196Y417802D01*
X295182Y417890D01*
X295175Y417963D01*
X295167Y418028D01*
Y418079D01*
Y418108D01*
Y418116D01*
X295175Y418320D01*
X295189Y418509D01*
X295211Y418692D01*
X295247Y418852D01*
X295284Y418998D01*
X295328Y419129D01*
X295379Y419253D01*
X295422Y419355D01*
X295473Y419450D01*
X295517Y419530D01*
X295561Y419596D01*
X295597Y419647D01*
X295634Y419690D01*
X295656Y419720D01*
X295670Y419734D01*
X295677Y419741D01*
X295772Y419829D01*
X295874Y419902D01*
X295976Y419967D01*
X296086Y420026D01*
X296188Y420069D01*
X296290Y420113D01*
X296479Y420171D01*
X296567Y420186D01*
X296647Y420201D01*
X296713Y420215D01*
X296778Y420223D01*
X296829Y420230D01*
X296895D01*
X297077Y420223D01*
D02*
G37*
%LPC*%
G36*
X260295Y465101D02*
X257123D01*
X259675D01*
Y463293D01*
X259609Y463373D01*
X259536Y463439D01*
X259471Y463504D01*
X259398Y463555D01*
X259340Y463592D01*
X259296Y463628D01*
X259267Y463643D01*
X259252Y463650D01*
X259157Y463701D01*
X259055Y463737D01*
X258953Y463759D01*
X258858Y463781D01*
X258778Y463789D01*
X258720Y463796D01*
X258662D01*
X258501Y463789D01*
X258348Y463759D01*
X258210Y463723D01*
X258093Y463679D01*
X257991Y463628D01*
X257918Y463592D01*
X257889Y463577D01*
X257867Y463562D01*
X257860Y463555D01*
X257852D01*
X257721Y463460D01*
X257612Y463344D01*
X257517Y463234D01*
X257444Y463125D01*
X257386Y463023D01*
X257342Y462943D01*
X257328Y462914D01*
X257313Y462892D01*
X257306Y462877D01*
Y462870D01*
X257247Y462702D01*
X257204Y462527D01*
X257167Y462360D01*
X257145Y462207D01*
X257131Y462075D01*
Y462017D01*
X257123Y461973D01*
Y462002D01*
Y459976D01*
Y461878D01*
X257131Y461674D01*
X257153Y461485D01*
X257189Y461317D01*
X257225Y461171D01*
X257240Y461106D01*
X257255Y461055D01*
X257277Y461004D01*
X257291Y460960D01*
X257306Y460931D01*
X257313Y460909D01*
X257320Y460894D01*
Y460887D01*
X257400Y460734D01*
X257495Y460603D01*
X257590Y460486D01*
X257685Y460391D01*
X257765Y460318D01*
X257831Y460260D01*
X257874Y460231D01*
X257882Y460216D01*
X257889D01*
X258027Y460136D01*
X258166Y460078D01*
X258304Y460034D01*
X258428Y460005D01*
X258530Y459990D01*
X258618Y459983D01*
X258647Y459976D01*
X260295D01*
Y465101D01*
D02*
G37*
G36*
X250992Y465123D02*
X250810D01*
X250708Y465108D01*
X250511Y465071D01*
X250344Y465013D01*
X250198Y464955D01*
X250132Y464918D01*
X250081Y464889D01*
X250030Y464860D01*
X249994Y464831D01*
X249965Y464809D01*
X249943Y464794D01*
X249928Y464787D01*
X249921Y464780D01*
X249782Y464641D01*
X249673Y464488D01*
X249586Y464328D01*
X249513Y464167D01*
X249469Y464029D01*
X249447Y463971D01*
X249432Y463920D01*
X249425Y463876D01*
X249418Y463847D01*
X249411Y463825D01*
Y463818D01*
X250030Y463708D01*
X250059Y463869D01*
X250103Y464007D01*
X250154Y464124D01*
X250205Y464219D01*
X250256Y464291D01*
X250300Y464342D01*
X250329Y464379D01*
X250336Y464386D01*
X250431Y464459D01*
X250533Y464517D01*
X250628Y464554D01*
X250723Y464583D01*
X250810Y464598D01*
X250876Y464612D01*
X250934D01*
X251065Y464605D01*
X251182Y464576D01*
X251284Y464539D01*
X251372Y464503D01*
X251437Y464459D01*
X251488Y464423D01*
X251525Y464394D01*
X251532Y464386D01*
X251612Y464299D01*
X251671Y464204D01*
X251707Y464109D01*
X251736Y464022D01*
X251751Y463942D01*
X251765Y463883D01*
Y463839D01*
Y463832D01*
Y463825D01*
Y463745D01*
X251751Y463672D01*
X251714Y463548D01*
X251663Y463439D01*
X251605Y463344D01*
X251547Y463278D01*
X251496Y463227D01*
X251459Y463198D01*
X251452Y463191D01*
X251445D01*
X251321Y463125D01*
X251204Y463074D01*
X251080Y463038D01*
X250971Y463016D01*
X250876Y463001D01*
X250796Y462987D01*
X250701D01*
X250672Y462994D01*
X250635D01*
X250562Y462447D01*
X250657Y462469D01*
X250745Y462484D01*
X250818Y462498D01*
X250883Y462505D01*
X250934Y462513D01*
X251000D01*
X251153Y462498D01*
X251291Y462469D01*
X251415Y462425D01*
X251517Y462374D01*
X251598Y462323D01*
X251656Y462279D01*
X251692Y462250D01*
X251707Y462236D01*
X251802Y462126D01*
X251875Y462010D01*
X251926Y461893D01*
X251955Y461776D01*
X251977Y461682D01*
X251984Y461601D01*
X251991Y461572D01*
Y461550D01*
Y461536D01*
Y461529D01*
X251977Y461368D01*
X251940Y461222D01*
X251897Y461098D01*
X251838Y460989D01*
X251780Y460902D01*
X251736Y460836D01*
X251700Y460792D01*
X251685Y460778D01*
X251568Y460676D01*
X251445Y460603D01*
X251321Y460552D01*
X251204Y460515D01*
X251102Y460493D01*
X251022Y460486D01*
X250992Y460479D01*
X250949D01*
X250818Y460486D01*
X250694Y460515D01*
X250584Y460552D01*
X250497Y460595D01*
X250424Y460632D01*
X250366Y460668D01*
X250336Y460698D01*
X250322Y460705D01*
X250234Y460807D01*
X250162Y460923D01*
X250096Y461047D01*
X250045Y461179D01*
X250008Y461288D01*
X249994Y461339D01*
X249987Y461383D01*
X249979Y461419D01*
X249972Y461448D01*
X249965Y461463D01*
Y461470D01*
X249345Y461390D01*
X249360Y461273D01*
X249381Y461164D01*
X249447Y460960D01*
X249527Y460785D01*
X249571Y460712D01*
X249615Y460639D01*
X249658Y460574D01*
X249702Y460523D01*
X249739Y460471D01*
X249775Y460435D01*
X249797Y460406D01*
X249819Y460384D01*
X249833Y460369D01*
X249841Y460362D01*
X249928Y460297D01*
X250016Y460231D01*
X250103Y460180D01*
X250198Y460136D01*
X250380Y460063D01*
X250555Y460019D01*
X250635Y460005D01*
X250708Y459990D01*
X250774Y459983D01*
X250832Y459976D01*
X250876Y459969D01*
X252647Y459969D01*
X250941Y459969D01*
X251080Y459976D01*
X251204Y459990D01*
X251328Y460012D01*
X251445Y460041D01*
X251554Y460078D01*
X251649Y460114D01*
X251743Y460158D01*
X251824Y460202D01*
X251904Y460238D01*
X251969Y460282D01*
X252028Y460318D01*
X252071Y460355D01*
X252108Y460384D01*
X252137Y460406D01*
X252152Y460421D01*
X252159Y460428D01*
X252246Y460515D01*
X252319Y460610D01*
X252385Y460705D01*
X252443Y460800D01*
X252487Y460887D01*
X252531Y460982D01*
X252589Y461157D01*
X252604Y461237D01*
X252618Y461310D01*
X252633Y461376D01*
X252640Y461434D01*
X252647Y461478D01*
Y461543D01*
X252640Y461718D01*
X252611Y461878D01*
X252567Y462017D01*
X252523Y462134D01*
X252480Y462228D01*
X252436Y462301D01*
X252407Y462345D01*
X252399Y462360D01*
X252297Y462469D01*
X252188Y462564D01*
X252071Y462637D01*
X251955Y462695D01*
X251853Y462739D01*
X251773Y462768D01*
X251743Y462775D01*
X251722Y462782D01*
X251707Y462790D01*
X251700D01*
X251824Y462855D01*
X251926Y462921D01*
X252013Y462994D01*
X252086Y463060D01*
X252144Y463118D01*
X252188Y463169D01*
X252210Y463198D01*
X252217Y463213D01*
X252276Y463315D01*
X252319Y463417D01*
X252356Y463519D01*
X252378Y463614D01*
X252392Y463694D01*
X252399Y463752D01*
Y463796D01*
Y463810D01*
X252392Y463934D01*
X252370Y464058D01*
X252341Y464167D01*
X252305Y464262D01*
X252268Y464342D01*
X252239Y464408D01*
X252217Y464445D01*
X252210Y464459D01*
X252137Y464569D01*
X252050Y464663D01*
X251962Y464744D01*
X251875Y464816D01*
X251802Y464867D01*
X251736Y464911D01*
X251692Y464933D01*
X251685Y464940D01*
X251678D01*
X251547Y464999D01*
X251415Y465042D01*
X251284Y465079D01*
X251167Y465101D01*
X251073Y465115D01*
X250992Y465123D01*
D02*
G37*
G36*
X237149Y465101D02*
X233154D01*
Y464503D01*
X234816D01*
Y460056D01*
X235487D01*
Y464503D01*
X237149D01*
Y460873D01*
Y465101D01*
D02*
G37*
G36*
X232840D02*
X228846D01*
Y464503D01*
X230508D01*
Y460056D01*
X231178D01*
Y464503D01*
X232840D01*
Y460486D01*
Y465101D01*
D02*
G37*
G36*
X265142Y465101D02*
X261330D01*
Y460056D01*
X263254D01*
X263429Y460063D01*
X263582Y460071D01*
X263721Y460085D01*
X263838Y460100D01*
X263932Y460114D01*
X264005Y460122D01*
X264049Y460136D01*
X264064D01*
X264187Y460173D01*
X264289Y460209D01*
X264384Y460253D01*
X264464Y460297D01*
X264530Y460326D01*
X264581Y460355D01*
X264610Y460377D01*
X264617Y460384D01*
X264698Y460450D01*
X264771Y460530D01*
X264829Y460610D01*
X264887Y460683D01*
X264931Y460756D01*
X264960Y460807D01*
X264982Y460843D01*
X264989Y460858D01*
X265040Y460975D01*
X265077Y461091D01*
X265106Y461201D01*
X265121Y461303D01*
X265135Y461390D01*
X265142Y461463D01*
Y460063D01*
Y461521D01*
X265135Y461682D01*
X265106Y461828D01*
X265062Y461951D01*
X265019Y462068D01*
X264975Y462155D01*
X264931Y462221D01*
X264902Y462265D01*
X264895Y462279D01*
X264792Y462396D01*
X264683Y462491D01*
X264559Y462571D01*
X264450Y462637D01*
X264348Y462688D01*
X264260Y462717D01*
X264231Y462731D01*
X264209Y462739D01*
X264195Y462746D01*
X264187D01*
X264311Y462819D01*
X264421Y462892D01*
X264508Y462972D01*
X264581Y463045D01*
X264639Y463103D01*
X264683Y463162D01*
X264705Y463191D01*
X264712Y463205D01*
X264771Y463315D01*
X264814Y463417D01*
X264851Y463519D01*
X264873Y463614D01*
X264887Y463694D01*
X264895Y463759D01*
Y463796D01*
Y463810D01*
X264887Y463934D01*
X264865Y464058D01*
X264829Y464168D01*
X264792Y464270D01*
X264756Y464357D01*
X264720Y464415D01*
X264698Y464459D01*
X264690Y464474D01*
X264610Y464583D01*
X264523Y464685D01*
X264428Y464765D01*
X264340Y464831D01*
X264268Y464882D01*
X264202Y464918D01*
X264158Y464940D01*
X264151Y464948D01*
X264144D01*
X264005Y464999D01*
X263852Y465035D01*
X263699Y465064D01*
X263553Y465079D01*
X263422Y465093D01*
X263364D01*
X263313Y465101D01*
X265142D01*
D02*
G37*
G36*
X246509Y465101D02*
X242536D01*
Y460056D01*
X243178D01*
Y464014D01*
X245817Y460056D01*
X246509D01*
Y465101D01*
D02*
G37*
G36*
X241618D02*
X237849D01*
Y460056D01*
X241618D01*
Y460654D01*
Y460654D01*
X238519D01*
Y462367D01*
X241311D01*
Y462965D01*
X238519D01*
Y464503D01*
X241501D01*
Y465101D01*
X241618D01*
D01*
D02*
G37*
G36*
X228685D02*
X223969D01*
D01*
X225893D01*
X223969Y460056D01*
X224676D01*
X225222Y461587D01*
X227337D01*
X227927Y460056D01*
X228685D01*
X226622Y465101D01*
X228685D01*
D01*
D02*
G37*
G36*
X254973Y465123D02*
X253260D01*
X254907D01*
X254710Y465108D01*
X254528Y465079D01*
X254375Y465028D01*
X254244Y464977D01*
X254134Y464918D01*
X254091Y464897D01*
X254054Y464867D01*
X254025Y464853D01*
X254003Y464838D01*
X253996Y464824D01*
X253989D01*
X253857Y464707D01*
X253748Y464569D01*
X253653Y464430D01*
X253580Y464299D01*
X253522Y464175D01*
X253493Y464124D01*
X253478Y464073D01*
X253464Y464036D01*
X253449Y464007D01*
X253442Y463993D01*
Y463985D01*
X253413Y463876D01*
X253384Y463767D01*
X253340Y463526D01*
X253304Y463285D01*
X253282Y463060D01*
X253274Y462950D01*
X253267Y462855D01*
Y462768D01*
X253260Y462688D01*
Y462542D01*
X253267Y462287D01*
X253282Y462046D01*
X253304Y461828D01*
X253340Y461623D01*
X253376Y461434D01*
X253420Y461266D01*
X253464Y461113D01*
X253508Y460982D01*
X253551Y460865D01*
X253602Y460763D01*
X253639Y460676D01*
X253675Y460610D01*
X253712Y460552D01*
X253734Y460515D01*
X253748Y460493D01*
X253755Y460486D01*
X253836Y460399D01*
X253923Y460318D01*
X254018Y460246D01*
X254113Y460187D01*
X254207Y460136D01*
X254302Y460092D01*
X254397Y460063D01*
X254484Y460034D01*
X254572Y460012D01*
X254652Y459998D01*
X254725Y459983D01*
X254783Y459976D01*
X254834Y459969D01*
X254907D01*
X255104Y459983D01*
X255286Y460012D01*
X255439Y460063D01*
X255571Y460114D01*
X255680Y460165D01*
X255716Y460194D01*
X255753Y460216D01*
X255782Y460231D01*
X255804Y460246D01*
X255811Y460260D01*
X255819D01*
X255950Y460384D01*
X256059Y460515D01*
X256154Y460661D01*
X256227Y460792D01*
X256285Y460916D01*
X256314Y460967D01*
X256329Y461018D01*
X256343Y461055D01*
X256358Y461084D01*
X256365Y461098D01*
Y461106D01*
X256402Y461215D01*
X256431Y461324D01*
X256475Y461558D01*
X256511Y461798D01*
X256533Y462032D01*
X256540Y462134D01*
X256547Y462228D01*
Y462316D01*
X256555Y462396D01*
Y462680D01*
X256547Y462812D01*
Y462928D01*
X256540Y463045D01*
X256526Y463147D01*
X256518Y463249D01*
X256511Y463337D01*
X256497Y463417D01*
X256489Y463490D01*
X256475Y463555D01*
X256467Y463606D01*
X256460Y463650D01*
X256453Y463686D01*
X256445Y463708D01*
X256438Y463723D01*
Y463730D01*
X256394Y463891D01*
X256343Y464036D01*
X256285Y464160D01*
X256241Y464270D01*
X256190Y464364D01*
X256161Y464430D01*
X256132Y464466D01*
X256125Y464481D01*
X256045Y464590D01*
X255964Y464685D01*
X255877Y464765D01*
X255797Y464838D01*
X255724Y464889D01*
X255665Y464926D01*
X255629Y464948D01*
X255622Y464955D01*
X255614D01*
X255498Y465013D01*
X255374Y465050D01*
X255257Y465079D01*
X255148Y465101D01*
X255053Y465115D01*
X254973Y465123D01*
D02*
G37*
%LPD*%
G36*
X258807Y463278D02*
X258880Y463271D01*
X259019Y463227D01*
X259143Y463176D01*
X259245Y463110D01*
X259325Y463045D01*
X259391Y462987D01*
X259427Y462943D01*
X259442Y462935D01*
Y462928D01*
X259493Y462855D01*
X259536Y462782D01*
X259609Y462607D01*
X259660Y462425D01*
X259697Y462250D01*
X259711Y462163D01*
X259719Y462083D01*
X259726Y462010D01*
Y461951D01*
X259733Y461900D01*
Y461864D01*
Y461835D01*
Y461828D01*
Y461703D01*
X259719Y461587D01*
X259704Y461485D01*
X259689Y461383D01*
X259668Y461295D01*
X259639Y461208D01*
X259617Y461135D01*
X259587Y461069D01*
X259558Y461011D01*
X259536Y460953D01*
X259507Y460916D01*
X259485Y460880D01*
X259471Y460851D01*
X259456Y460829D01*
X259442Y460821D01*
Y460814D01*
X259391Y460756D01*
X259332Y460705D01*
X259216Y460625D01*
X259099Y460566D01*
X258990Y460530D01*
X258895Y460501D01*
X258815Y460493D01*
X258786Y460486D01*
X258749D01*
X258676Y460493D01*
X258603Y460501D01*
X258472Y460537D01*
X258348Y460595D01*
X258246Y460661D01*
X258166Y460719D01*
X258100Y460778D01*
X258064Y460814D01*
X258056Y460829D01*
X258049D01*
X257998Y460902D01*
X257955Y460975D01*
X257882Y461142D01*
X257831Y461317D01*
X257794Y461485D01*
X257772Y461638D01*
X257765Y461703D01*
Y461762D01*
X257758Y461813D01*
Y461849D01*
Y461871D01*
Y461878D01*
Y462010D01*
X257772Y462134D01*
X257787Y462250D01*
X257801Y462352D01*
X257823Y462447D01*
X257845Y462535D01*
X257867Y462615D01*
X257896Y462688D01*
X257925Y462746D01*
X257947Y462797D01*
X257969Y462841D01*
X257991Y462877D01*
X258013Y462906D01*
X258020Y462928D01*
X258035Y462935D01*
Y462943D01*
X258086Y463001D01*
X258144Y463060D01*
X258261Y463140D01*
X258377Y463205D01*
X258487Y463242D01*
X258581Y463271D01*
X258662Y463278D01*
X258691Y463285D01*
X258727D01*
X258807Y463278D01*
D02*
G37*
G36*
X259719Y460056D02*
X260295D01*
Y459976D01*
X258691D01*
X258815Y459983D01*
X258931Y459998D01*
X259041Y460027D01*
X259136Y460063D01*
X259230Y460100D01*
X259318Y460144D01*
X259391Y460194D01*
X259456Y460246D01*
X259522Y460297D01*
X259573Y460348D01*
X259617Y460391D01*
X259653Y460428D01*
X259682Y460464D01*
X259704Y460493D01*
X259711Y460508D01*
X259719Y460515D01*
Y460056D01*
D02*
G37*
G36*
X263356Y464488D02*
X263480Y464481D01*
X263590Y464466D01*
X263670Y464452D01*
X263721Y464445D01*
X263757Y464430D01*
X263765D01*
X263845Y464401D01*
X263918Y464357D01*
X263976Y464313D01*
X264027Y464270D01*
X264064Y464233D01*
X264093Y464197D01*
X264107Y464175D01*
X264114Y464168D01*
X264158Y464095D01*
X264187Y464022D01*
X264209Y463949D01*
X264224Y463876D01*
X264231Y463818D01*
X264239Y463774D01*
Y463745D01*
Y463730D01*
X264231Y463635D01*
X264217Y463548D01*
X264195Y463475D01*
X264173Y463417D01*
X264151Y463366D01*
X264129Y463322D01*
X264114Y463300D01*
X264107Y463293D01*
X264056Y463234D01*
X263991Y463176D01*
X263925Y463132D01*
X263867Y463103D01*
X263808Y463074D01*
X263765Y463052D01*
X263735Y463045D01*
X263721Y463038D01*
X263641Y463023D01*
X263539Y463008D01*
X263437Y463001D01*
X263334Y462994D01*
X263240Y462987D01*
X262000D01*
Y464503D01*
X263196D01*
X263356Y464488D01*
D02*
G37*
G36*
X263480Y462374D02*
X263604Y462360D01*
X263706Y462345D01*
X263787Y462330D01*
X263852Y462316D01*
X263881Y462309D01*
X263896Y462301D01*
X263991Y462265D01*
X264071Y462221D01*
X264144Y462170D01*
X264202Y462119D01*
X264246Y462075D01*
X264275Y462039D01*
X264297Y462010D01*
X264304Y462002D01*
X264355Y461922D01*
X264392Y461842D01*
X264421Y461762D01*
X264435Y461689D01*
X264450Y461623D01*
X264457Y461565D01*
Y461536D01*
Y461521D01*
X264450Y461434D01*
X264443Y461346D01*
X264428Y461273D01*
X264406Y461215D01*
X264384Y461164D01*
X264370Y461120D01*
X264362Y461098D01*
X264355Y461091D01*
X264311Y461026D01*
X264275Y460967D01*
X264224Y460923D01*
X264187Y460880D01*
X264151Y460851D01*
X264122Y460829D01*
X264100Y460814D01*
X264093Y460807D01*
X263969Y460748D01*
X263845Y460705D01*
X263794Y460690D01*
X263750Y460683D01*
X263721Y460676D01*
X263714D01*
X263655Y460668D01*
X263590Y460661D01*
X263437Y460654D01*
X262000D01*
Y462389D01*
X263327D01*
X263480Y462374D01*
D02*
G37*
G36*
X245868Y461135D02*
X243221Y465101D01*
X245868D01*
Y461135D01*
D02*
G37*
G36*
X226294Y464408D02*
X226352Y464233D01*
X226411Y464058D01*
X226469Y463891D01*
X226498Y463818D01*
X226520Y463745D01*
X226542Y463679D01*
X226564Y463628D01*
X226578Y463584D01*
X226593Y463548D01*
X226600Y463526D01*
Y463519D01*
X227125Y462134D01*
X225419D01*
X225966Y463606D01*
X226032Y463789D01*
X226083Y463963D01*
X226134Y464124D01*
X226170Y464270D01*
X226199Y464394D01*
X226214Y464445D01*
X226221Y464496D01*
X226236Y464525D01*
Y464554D01*
X226243Y464569D01*
Y464576D01*
X226294Y464408D01*
D02*
G37*
G36*
X254980Y464605D02*
X255060Y464598D01*
X255133Y464576D01*
X255199Y464547D01*
X255323Y464481D01*
X255432Y464408D01*
X255512Y464328D01*
X255578Y464262D01*
X255600Y464233D01*
X255614Y464211D01*
X255629Y464204D01*
Y464197D01*
X255680Y464109D01*
X255724Y464007D01*
X255767Y463891D01*
X255797Y463767D01*
X255826Y463635D01*
X255848Y463497D01*
X255884Y463220D01*
X255899Y463081D01*
X255906Y462957D01*
X255913Y462841D01*
Y462746D01*
X255921Y462659D01*
Y462593D01*
Y462557D01*
Y462549D01*
Y462542D01*
Y462316D01*
X255906Y462112D01*
X255891Y461930D01*
X255877Y461755D01*
X255855Y461609D01*
X255826Y461470D01*
X255797Y461354D01*
X255775Y461244D01*
X255746Y461157D01*
X255716Y461084D01*
X255695Y461018D01*
X255665Y460967D01*
X255651Y460931D01*
X255636Y460909D01*
X255622Y460894D01*
Y460887D01*
X255563Y460814D01*
X255505Y460756D01*
X255447Y460698D01*
X255388Y460654D01*
X255264Y460581D01*
X255155Y460530D01*
X255053Y460501D01*
X254980Y460486D01*
X254951Y460479D01*
X254907D01*
X254827Y460486D01*
X254754Y460493D01*
X254616Y460544D01*
X254492Y460610D01*
X254382Y460683D01*
X254302Y460756D01*
X254237Y460821D01*
X254200Y460873D01*
X254186Y460880D01*
Y460887D01*
X254134Y460975D01*
X254091Y461077D01*
X254047Y461193D01*
X254018Y461317D01*
X253989Y461448D01*
X253967Y461587D01*
X253930Y461871D01*
X253916Y462002D01*
X253908Y462126D01*
X253901Y462243D01*
Y462338D01*
X253894Y462425D01*
Y462491D01*
Y462527D01*
Y462542D01*
X253901Y462768D01*
X253908Y462972D01*
X253923Y463162D01*
X253945Y463337D01*
X253967Y463490D01*
X253996Y463628D01*
X254025Y463752D01*
X254054Y463861D01*
X254083Y463956D01*
X254105Y464036D01*
X254134Y464102D01*
X254156Y464160D01*
X254178Y464197D01*
X254193Y464226D01*
X254207Y464240D01*
Y464248D01*
X254258Y464313D01*
X254310Y464372D01*
X254368Y464415D01*
X254426Y464459D01*
X254543Y464525D01*
X254652Y464569D01*
X254747Y464590D01*
X254827Y464605D01*
X254856Y464612D01*
X254900D01*
X254980Y464605D01*
D02*
G37*
%LPC*%
G36*
X237785Y389641D02*
X237752D01*
X237730Y389636D01*
X237674Y389630D01*
X237597Y389614D01*
X237513Y389586D01*
X237419Y389541D01*
X237330Y389486D01*
X237241Y389408D01*
X237230Y389397D01*
X237208Y389369D01*
X237169Y389319D01*
X237130Y389247D01*
X237091Y389164D01*
X237053Y389059D01*
X237031Y388942D01*
X237019Y388809D01*
Y388798D01*
Y388770D01*
X237025Y388720D01*
X237031Y388659D01*
X237042Y388587D01*
X237064Y388509D01*
X237086Y388426D01*
X237119Y388343D01*
X237125Y388332D01*
X237141Y388304D01*
X237164Y388265D01*
X237197Y388215D01*
X237236Y388165D01*
X237286Y388104D01*
X237341Y388054D01*
X237408Y388004D01*
X237419Y387999D01*
X237441Y387987D01*
X237480Y387965D01*
X237530Y387948D01*
X237585Y387926D01*
X237652Y387904D01*
X237724Y387893D01*
X237802Y387888D01*
X237830D01*
X237852Y387893D01*
X237907Y387899D01*
X237980Y387915D01*
X238057Y387948D01*
X238146Y387987D01*
X238235Y388049D01*
X238279Y388082D01*
X238318Y388126D01*
Y388132D01*
X238329Y388137D01*
X238351Y388171D01*
X238385Y388226D01*
X238429Y388298D01*
X238468Y388392D01*
X238501Y388504D01*
X238523Y388631D01*
X238534Y388781D01*
Y388787D01*
Y388798D01*
Y388820D01*
X238529Y388848D01*
Y388881D01*
X238523Y388920D01*
X238507Y389009D01*
X238485Y389108D01*
X238446Y389214D01*
X238390Y389314D01*
X238318Y389408D01*
X238307Y389419D01*
X238279Y389447D01*
X238235Y389480D01*
X238174Y389525D01*
X238096Y389569D01*
X238007Y389602D01*
X237902Y389630D01*
X237785Y389641D01*
D02*
G37*
G36*
X246771Y390041D02*
X246743D01*
X246721Y390035D01*
X246665Y390024D01*
X246593Y390008D01*
X246510Y389974D01*
X246421Y389924D01*
X246371Y389891D01*
X246327Y389852D01*
X246282Y389808D01*
X246238Y389758D01*
Y389752D01*
X246227Y389747D01*
X246216Y389730D01*
X246205Y389708D01*
X246188Y389675D01*
X246166Y389641D01*
X246144Y389597D01*
X246127Y389552D01*
X246105Y389497D01*
X246082Y389436D01*
X246066Y389369D01*
X246044Y389297D01*
X246033Y389214D01*
X246022Y389131D01*
X246010Y389042D01*
Y388942D01*
Y388936D01*
Y388920D01*
Y388892D01*
X246016Y388853D01*
Y388809D01*
X246022Y388759D01*
X246038Y388642D01*
X246066Y388509D01*
X246099Y388382D01*
X246155Y388254D01*
X246188Y388198D01*
X246227Y388148D01*
X246238Y388137D01*
X246266Y388109D01*
X246310Y388065D01*
X246371Y388021D01*
X246449Y387976D01*
X246538Y387932D01*
X246638Y387904D01*
X246693Y387899D01*
X246748Y387893D01*
X246782D01*
X246804Y387899D01*
X246860Y387910D01*
X246937Y387926D01*
X247020Y387960D01*
X247109Y388004D01*
X247198Y388071D01*
X247242Y388109D01*
X247287Y388154D01*
Y388159D01*
X247298Y388165D01*
X247309Y388182D01*
X247320Y388204D01*
X247342Y388232D01*
X247359Y388270D01*
X247381Y388309D01*
X247403Y388359D01*
X247420Y388409D01*
X247442Y388476D01*
X247464Y388542D01*
X247481Y388615D01*
X247492Y388698D01*
X247503Y388787D01*
X247514Y388881D01*
Y388981D01*
Y388986D01*
Y389003D01*
Y389031D01*
X247509Y389070D01*
Y389114D01*
X247503Y389164D01*
X247487Y389281D01*
X247459Y389408D01*
X247420Y389536D01*
X247365Y389664D01*
X247331Y389725D01*
X247292Y389774D01*
Y389780D01*
X247281Y389786D01*
X247253Y389819D01*
X247209Y389858D01*
X247148Y389908D01*
X247070Y389958D01*
X246982Y390002D01*
X246882Y390030D01*
X246826Y390035D01*
X246771Y390041D01*
D02*
G37*
G36*
X232335Y390640D02*
X231125Y388920D01*
X232335D01*
Y390640D01*
D02*
G37*
G36*
X253875Y390024D02*
X253841D01*
X253814Y390019D01*
X253753Y390013D01*
X253669Y389991D01*
X253575Y389958D01*
X253475Y389913D01*
X253381Y389847D01*
X253331Y389802D01*
X253286Y389758D01*
Y389752D01*
X253275Y389747D01*
X253264Y389730D01*
X253248Y389708D01*
X253231Y389680D01*
X253214Y389647D01*
X253192Y389602D01*
X253170Y389558D01*
X253148Y389503D01*
X253126Y389447D01*
X253109Y389381D01*
X253092Y389308D01*
X253076Y389231D01*
X253064Y389147D01*
X253059Y389053D01*
X253053Y388959D01*
Y388953D01*
Y388936D01*
Y388909D01*
X253059Y388870D01*
Y388825D01*
X253064Y388775D01*
X253081Y388659D01*
X253109Y388526D01*
X253153Y388393D01*
X253209Y388265D01*
X253248Y388209D01*
X253286Y388154D01*
X253292D01*
X253297Y388143D01*
X253331Y388115D01*
X253381Y388071D01*
X253447Y388026D01*
X253531Y387976D01*
X253630Y387932D01*
X253747Y387904D01*
X253808Y387899D01*
X253875Y387893D01*
X253908D01*
X253936Y387899D01*
X253997Y387910D01*
X254080Y387926D01*
X254169Y387960D01*
X254269Y388004D01*
X254363Y388071D01*
X254413Y388115D01*
X254457Y388159D01*
X254463Y388165D01*
X254469Y388171D01*
X254480Y388187D01*
X254496Y388209D01*
X254513Y388237D01*
X254535Y388270D01*
X254557Y388315D01*
X254580Y388359D01*
X254602Y388415D01*
X254618Y388476D01*
X254641Y388542D01*
X254657Y388615D01*
X254674Y388698D01*
X254685Y388781D01*
X254696Y388875D01*
Y388975D01*
Y388981D01*
Y388998D01*
Y389025D01*
X254691Y389059D01*
Y389103D01*
X254685Y389153D01*
X254668Y389269D01*
X254641Y389392D01*
X254596Y389525D01*
X254535Y389647D01*
X254502Y389708D01*
X254457Y389758D01*
Y389763D01*
X254446Y389769D01*
X254413Y389802D01*
X254363Y389841D01*
X254296Y389891D01*
X254213Y389941D01*
X254113Y389985D01*
X254002Y390013D01*
X253941Y390019D01*
X253875Y390024D01*
D02*
G37*
G36*
X195983Y395051D02*
X195978D01*
X195972D01*
X195939Y395045D01*
X195889Y395039D01*
X195822Y395028D01*
X195756Y395001D01*
X195678Y394967D01*
X195606Y394917D01*
X195534Y394851D01*
X195528Y394840D01*
X195506Y394812D01*
X195478Y394767D01*
X195445Y394695D01*
X195412Y394612D01*
X195384Y394501D01*
X195362Y394373D01*
X195356Y394223D01*
Y393014D01*
X196627D01*
Y394157D01*
X196622Y394223D01*
X196616Y394301D01*
X196610Y394390D01*
X196599Y394479D01*
X196583Y394568D01*
X196560Y394645D01*
X196555Y394656D01*
X196544Y394679D01*
X196527Y394712D01*
X196505Y394756D01*
X196472Y394806D01*
X196433Y394856D01*
X196383Y394906D01*
X196327Y394945D01*
X196322Y394951D01*
X196300Y394962D01*
X196266Y394978D01*
X196222Y395001D01*
X196172Y395017D01*
X196116Y395034D01*
X196050Y395045D01*
X195983Y395051D01*
D02*
G37*
G36*
X197049Y391343D02*
X196877D01*
X196871D01*
X196866D01*
X196838D01*
X196788D01*
X196721Y391337D01*
X196649D01*
X196560Y391332D01*
X196466Y391326D01*
X196361Y391315D01*
X196150Y391288D01*
X196044Y391271D01*
X195944Y391249D01*
X195850Y391227D01*
X195761Y391193D01*
X195684Y391160D01*
X195617Y391121D01*
X195611D01*
X195606Y391110D01*
X195589Y391099D01*
X195567Y391082D01*
X195517Y391032D01*
X195456Y390971D01*
X195401Y390888D01*
X195351Y390794D01*
X195328Y390744D01*
X195312Y390688D01*
X195306Y390627D01*
X195301Y390566D01*
Y390533D01*
X195306Y390511D01*
X195317Y390450D01*
X195334Y390377D01*
X195367Y390294D01*
X195417Y390205D01*
X195450Y390161D01*
X195484Y390117D01*
X195528Y390078D01*
X195578Y390039D01*
X195584D01*
X195595Y390028D01*
X195617Y390017D01*
X195645Y390000D01*
X195689Y389983D01*
X195739Y389961D01*
X195800Y389945D01*
X195872Y389922D01*
X195956Y389900D01*
X196050Y389878D01*
X196155Y389856D01*
X196272Y389839D01*
X196405Y389822D01*
X196549Y389811D01*
X196705Y389806D01*
X196877Y389800D01*
X196888D01*
X196916D01*
X196966D01*
X197032Y389806D01*
X197104D01*
X197193Y389811D01*
X197287Y389817D01*
X197387Y389828D01*
X197604Y389856D01*
X197709Y389872D01*
X197809Y389895D01*
X197904Y389917D01*
X197992Y389950D01*
X198070Y389983D01*
X198137Y390022D01*
X198142D01*
X198148Y390033D01*
X198187Y390061D01*
X198237Y390111D01*
X198292Y390172D01*
X198347Y390255D01*
X198398Y390350D01*
X198436Y390455D01*
X198442Y390511D01*
X198447Y390572D01*
Y390605D01*
X198442Y390627D01*
X198431Y390683D01*
X198409Y390760D01*
X198370Y390844D01*
X198314Y390938D01*
X198281Y390982D01*
X198237Y391027D01*
X198192Y391071D01*
X198137Y391115D01*
X198131D01*
X198120Y391127D01*
X198103Y391138D01*
X198076Y391149D01*
X198037Y391171D01*
X197987Y391188D01*
X197931Y391210D01*
X197865Y391232D01*
X197781Y391249D01*
X197693Y391271D01*
X197587Y391293D01*
X197476Y391310D01*
X197343Y391321D01*
X197204Y391332D01*
X197049Y391343D01*
D02*
G37*
G36*
X261609Y399551D02*
X261604D01*
X261598D01*
X261565Y399545D01*
X261515Y399539D01*
X261448Y399528D01*
X261382Y399500D01*
X261304Y399467D01*
X261232Y399417D01*
X261160Y399351D01*
X261154Y399340D01*
X261132Y399312D01*
X261104Y399267D01*
X261071Y399195D01*
X261038Y399112D01*
X261010Y399001D01*
X260988Y398873D01*
X260982Y398724D01*
Y397514D01*
X262253D01*
Y398657D01*
X262247Y398724D01*
X262242Y398801D01*
X262236Y398890D01*
X262225Y398979D01*
X262209Y399068D01*
X262186Y399145D01*
X262181Y399156D01*
X262170Y399179D01*
X262153Y399212D01*
X262131Y399256D01*
X262098Y399306D01*
X262059Y399356D01*
X262009Y399406D01*
X261953Y399445D01*
X261948Y399451D01*
X261926Y399462D01*
X261892Y399478D01*
X261848Y399500D01*
X261798Y399517D01*
X261742Y399534D01*
X261676Y399545D01*
X261609Y399551D01*
D02*
G37*
G36*
X262675Y395843D02*
X262503D01*
X262497D01*
X262492D01*
X262464D01*
X262414D01*
X262347Y395837D01*
X262275D01*
X262186Y395832D01*
X262092Y395826D01*
X261987Y395815D01*
X261776Y395788D01*
X261670Y395771D01*
X261570Y395749D01*
X261476Y395726D01*
X261387Y395693D01*
X261310Y395660D01*
X261243Y395621D01*
X261237D01*
X261232Y395610D01*
X261215Y395599D01*
X261193Y395582D01*
X261143Y395532D01*
X261082Y395471D01*
X261027Y395388D01*
X260977Y395294D01*
X260954Y395244D01*
X260938Y395188D01*
X260932Y395127D01*
X260927Y395066D01*
Y395033D01*
X260932Y395011D01*
X260943Y394950D01*
X260960Y394877D01*
X260993Y394794D01*
X261043Y394705D01*
X261076Y394661D01*
X261110Y394617D01*
X261154Y394578D01*
X261204Y394539D01*
X261210D01*
X261221Y394528D01*
X261243Y394517D01*
X261271Y394500D01*
X261315Y394483D01*
X261365Y394461D01*
X261426Y394444D01*
X261498Y394422D01*
X261581Y394400D01*
X261676Y394378D01*
X261781Y394356D01*
X261898Y394339D01*
X262031Y394322D01*
X262175Y394311D01*
X262331Y394306D01*
X262503Y394300D01*
X262514D01*
X262542D01*
X262592D01*
X262658Y394306D01*
X262730D01*
X262819Y394311D01*
X262913Y394317D01*
X263013Y394328D01*
X263230Y394356D01*
X263335Y394372D01*
X263435Y394394D01*
X263529Y394417D01*
X263618Y394450D01*
X263696Y394483D01*
X263763Y394522D01*
X263768D01*
X263774Y394533D01*
X263813Y394561D01*
X263862Y394611D01*
X263918Y394672D01*
X263973Y394755D01*
X264023Y394850D01*
X264062Y394955D01*
X264068Y395011D01*
X264073Y395072D01*
Y395105D01*
X264068Y395127D01*
X264057Y395183D01*
X264035Y395260D01*
X263996Y395344D01*
X263940Y395438D01*
X263907Y395482D01*
X263862Y395527D01*
X263818Y395571D01*
X263763Y395616D01*
X263757D01*
X263746Y395627D01*
X263729Y395638D01*
X263702Y395649D01*
X263663Y395671D01*
X263613Y395688D01*
X263557Y395710D01*
X263491Y395732D01*
X263407Y395749D01*
X263319Y395771D01*
X263213Y395793D01*
X263102Y395810D01*
X262969Y395821D01*
X262830Y395832D01*
X262675Y395843D01*
D02*
G37*
G36*
X215017Y421486D02*
X215011D01*
X215005D01*
X214972Y421481D01*
X214922Y421475D01*
X214856Y421464D01*
X214789Y421437D01*
X214711Y421403D01*
X214639Y421353D01*
X214567Y421287D01*
X214561Y421276D01*
X214539Y421248D01*
X214511Y421203D01*
X214478Y421131D01*
X214445Y421048D01*
X214417Y420937D01*
X214395Y420809D01*
X214389Y420659D01*
Y419450D01*
X215660D01*
Y420593D01*
X215655Y420659D01*
X215649Y420737D01*
X215644Y420826D01*
X215633Y420915D01*
X215616Y421004D01*
X215594Y421081D01*
X215588Y421092D01*
X215577Y421115D01*
X215560Y421148D01*
X215538Y421192D01*
X215505Y421242D01*
X215466Y421292D01*
X215416Y421342D01*
X215361Y421381D01*
X215355Y421386D01*
X215333Y421398D01*
X215300Y421414D01*
X215255Y421437D01*
X215205Y421453D01*
X215150Y421470D01*
X215083Y421481D01*
X215017Y421486D01*
D02*
G37*
G36*
X267642D02*
X267637D01*
X267631D01*
X267598Y421481D01*
X267548Y421475D01*
X267482Y421464D01*
X267415Y421437D01*
X267337Y421403D01*
X267265Y421353D01*
X267193Y421287D01*
X267187Y421276D01*
X267165Y421248D01*
X267138Y421203D01*
X267104Y421131D01*
X267071Y421048D01*
X267043Y420937D01*
X267021Y420809D01*
X267015Y420659D01*
Y419450D01*
X268286D01*
Y420593D01*
X268281Y420659D01*
X268275Y420737D01*
X268270Y420826D01*
X268259Y420915D01*
X268242Y421004D01*
X268220Y421081D01*
X268214Y421092D01*
X268203Y421115D01*
X268186Y421148D01*
X268164Y421192D01*
X268131Y421242D01*
X268092Y421292D01*
X268042Y421342D01*
X267987Y421381D01*
X267981Y421386D01*
X267959Y421398D01*
X267926Y421414D01*
X267881Y421437D01*
X267831Y421453D01*
X267776Y421470D01*
X267709Y421481D01*
X267642Y421486D01*
D02*
G37*
G36*
X195983Y441446D02*
X195978D01*
X195972D01*
X195939Y441440D01*
X195889Y441435D01*
X195822Y441424D01*
X195756Y441396D01*
X195678Y441363D01*
X195606Y441313D01*
X195534Y441246D01*
X195528Y441235D01*
X195506Y441207D01*
X195478Y441163D01*
X195445Y441091D01*
X195412Y441008D01*
X195384Y440897D01*
X195362Y440769D01*
X195356Y440619D01*
Y439409D01*
X196627D01*
Y440553D01*
X196622Y440619D01*
X196616Y440697D01*
X196610Y440786D01*
X196599Y440874D01*
X196583Y440963D01*
X196560Y441041D01*
X196555Y441052D01*
X196544Y441074D01*
X196527Y441108D01*
X196505Y441152D01*
X196472Y441202D01*
X196433Y441252D01*
X196383Y441302D01*
X196327Y441341D01*
X196322Y441346D01*
X196300Y441357D01*
X196266Y441374D01*
X196222Y441396D01*
X196172Y441413D01*
X196116Y441429D01*
X196050Y441440D01*
X195983Y441446D01*
D02*
G37*
G36*
X267576Y446446D02*
X267570D01*
X267565D01*
X267531Y446441D01*
X267482Y446435D01*
X267415Y446424D01*
X267348Y446396D01*
X267271Y446363D01*
X267198Y446313D01*
X267126Y446246D01*
X267121Y446235D01*
X267099Y446207D01*
X267071Y446163D01*
X267038Y446091D01*
X267004Y446008D01*
X266976Y445897D01*
X266954Y445769D01*
X266949Y445619D01*
Y444409D01*
X268220D01*
Y445552D01*
X268214Y445619D01*
X268209Y445697D01*
X268203Y445786D01*
X268192Y445874D01*
X268175Y445963D01*
X268153Y446041D01*
X268148Y446052D01*
X268137Y446074D01*
X268120Y446107D01*
X268098Y446152D01*
X268064Y446202D01*
X268025Y446252D01*
X267975Y446302D01*
X267920Y446341D01*
X267915Y446346D01*
X267892Y446357D01*
X267859Y446374D01*
X267815Y446396D01*
X267765Y446413D01*
X267709Y446429D01*
X267642Y446441D01*
X267576Y446446D01*
D02*
G37*
G36*
X247750Y428451D02*
X246540D01*
Y427180D01*
X247683D01*
X247750Y427186D01*
X247827Y427191D01*
X247916Y427197D01*
X248005Y427208D01*
X248094Y427225D01*
X248171Y427247D01*
X248183Y427252D01*
X248205Y427264D01*
X248238Y427280D01*
X248283Y427303D01*
X248333Y427336D01*
X248382Y427375D01*
X248432Y427425D01*
X248471Y427480D01*
X248477Y427486D01*
X248488Y427508D01*
X248505Y427541D01*
X248527Y427586D01*
X248543Y427635D01*
X248560Y427691D01*
X248571Y427758D01*
X248577Y427824D01*
Y427830D01*
Y427835D01*
X248571Y427869D01*
X248566Y427918D01*
X248554Y427985D01*
X248527Y428052D01*
X248493Y428129D01*
X248444Y428202D01*
X248377Y428274D01*
X248366Y428279D01*
X248338Y428301D01*
X248294Y428329D01*
X248221Y428363D01*
X248138Y428396D01*
X248027Y428424D01*
X247900Y428446D01*
X247750Y428451D01*
D02*
G37*
G36*
X234595Y428518D02*
X233385D01*
Y427247D01*
X234529D01*
X234595Y427252D01*
X234673Y427258D01*
X234762Y427264D01*
X234851Y427275D01*
X234940Y427291D01*
X235017Y427314D01*
X235028Y427319D01*
X235051Y427330D01*
X235084Y427347D01*
X235128Y427369D01*
X235178Y427402D01*
X235228Y427441D01*
X235278Y427491D01*
X235317Y427547D01*
X235322Y427552D01*
X235334Y427574D01*
X235350Y427608D01*
X235372Y427652D01*
X235389Y427702D01*
X235406Y427758D01*
X235417Y427824D01*
X235422Y427891D01*
Y427896D01*
Y427902D01*
X235417Y427935D01*
X235411Y427985D01*
X235400Y428052D01*
X235372Y428118D01*
X235339Y428196D01*
X235289Y428268D01*
X235223Y428340D01*
X235211Y428346D01*
X235184Y428368D01*
X235139Y428396D01*
X235067Y428429D01*
X234984Y428462D01*
X234873Y428490D01*
X234745Y428512D01*
X234595Y428518D01*
D02*
G37*
G36*
X227963Y428573D02*
X227919D01*
X227869Y428562D01*
X227802Y428551D01*
X227730Y428529D01*
X227652Y428501D01*
X227580Y428457D01*
X227508Y428396D01*
X227502Y428390D01*
X227480Y428368D01*
X227453Y428329D01*
X227425Y428279D01*
X227392Y428218D01*
X227364Y428146D01*
X227342Y428068D01*
X227336Y427980D01*
Y427974D01*
Y427969D01*
X227342Y427935D01*
X227347Y427885D01*
X227358Y427824D01*
X227380Y427752D01*
X227408Y427680D01*
X227453Y427602D01*
X227508Y427536D01*
X227514Y427530D01*
X227541Y427508D01*
X227580Y427480D01*
X227630Y427452D01*
X227697Y427419D01*
X227774Y427391D01*
X227863Y427369D01*
X227963Y427363D01*
X227974D01*
X228008Y427369D01*
X228058Y427375D01*
X228124Y427386D01*
X228196Y427408D01*
X228268Y427436D01*
X228346Y427480D01*
X228413Y427536D01*
X228418Y427541D01*
X228440Y427569D01*
X228468Y427602D01*
X228502Y427652D01*
X228535Y427713D01*
X228563Y427785D01*
X228585Y427869D01*
X228590Y427957D01*
Y427963D01*
Y427969D01*
Y428002D01*
X228579Y428052D01*
X228568Y428113D01*
X228546Y428179D01*
X228513Y428252D01*
X228468Y428324D01*
X228407Y428396D01*
X228402Y428401D01*
X228374Y428424D01*
X228335Y428451D01*
X228285Y428485D01*
X228218Y428518D01*
X228146Y428546D01*
X228058Y428568D01*
X227963Y428573D01*
D02*
G37*
G36*
X227946Y426981D02*
X227913D01*
X227891Y426975D01*
X227830Y426969D01*
X227752Y426953D01*
X227663Y426925D01*
X227575Y426886D01*
X227480Y426831D01*
X227397Y426759D01*
X227386Y426748D01*
X227364Y426720D01*
X227330Y426670D01*
X227292Y426609D01*
X227247Y426525D01*
X227214Y426431D01*
X227192Y426326D01*
X227181Y426209D01*
Y426198D01*
Y426176D01*
X227186Y426137D01*
X227192Y426087D01*
X227203Y426026D01*
X227220Y425959D01*
X227242Y425893D01*
X227269Y425821D01*
X227275Y425815D01*
X227286Y425787D01*
X227308Y425754D01*
X227342Y425715D01*
X227380Y425665D01*
X227430Y425615D01*
X227486Y425571D01*
X227552Y425527D01*
X227564Y425521D01*
X227586Y425510D01*
X227625Y425493D01*
X227675Y425477D01*
X227736Y425460D01*
X227808Y425443D01*
X227885Y425432D01*
X227963Y425427D01*
X227996D01*
X228019Y425432D01*
X228085Y425438D01*
X228163Y425454D01*
X228252Y425482D01*
X228346Y425515D01*
X228435Y425571D01*
X228524Y425643D01*
X228535Y425654D01*
X228557Y425682D01*
X228596Y425732D01*
X228635Y425793D01*
X228674Y425871D01*
X228712Y425965D01*
X228735Y426076D01*
X228746Y426193D01*
Y426198D01*
Y426209D01*
Y426226D01*
X228740Y426248D01*
X228735Y426309D01*
X228718Y426392D01*
X228690Y426475D01*
X228651Y426570D01*
X228596Y426664D01*
X228518Y426753D01*
X228507Y426764D01*
X228479Y426786D01*
X228429Y426825D01*
X228363Y426870D01*
X228279Y426908D01*
X228180Y426947D01*
X228069Y426969D01*
X227946Y426981D01*
D02*
G37*
G36*
X178015Y421522D02*
X177374D01*
Y417557D01*
X174727Y421522D01*
X174042D01*
Y416478D01*
X174683D01*
Y420436D01*
X177322Y416478D01*
X178015D01*
Y421522D01*
D02*
G37*
G36*
X172868D02*
X172198D01*
Y416478D01*
X172868D01*
Y421522D01*
D02*
G37*
%LPD*%
D10*
X290512Y444136D02*
G03*
X290512Y444136I-492J0D01*
G01*
X192756D02*
G03*
X192756Y444136I-492J0D01*
G01*
D11*
X281921Y436453D02*
Y439602D01*
X272079Y436453D02*
Y439602D01*
X281921Y417862D02*
Y421011D01*
X272079Y417862D02*
Y421011D01*
X281921Y399362D02*
Y402511D01*
X272079Y399362D02*
Y402511D01*
X211795Y399362D02*
Y402511D01*
X201953Y399362D02*
Y402511D01*
X211795Y417862D02*
Y421011D01*
X201953Y417862D02*
Y421011D01*
X211795Y436453D02*
Y439602D01*
X201953Y436453D02*
Y439602D01*
X246457Y438015D02*
X249606D01*
X246457Y447858D02*
X249606D01*
X226772Y438015D02*
X229921D01*
X226772Y447858D02*
X229921D01*
X292520Y459884D02*
X311024D01*
X292520Y428388D02*
Y459884D01*
Y428388D02*
X311024D01*
X171260D02*
X189764D01*
Y459884D01*
X171260D02*
X189764D01*
D12*
X305118Y381890D02*
G03*
X316929Y393701I0J11811D01*
G01*
X165000D02*
G03*
X176811Y381890I11811J0D01*
G01*
X316929Y458689D02*
G03*
X305118Y470500I-11811J0D01*
G01*
X176811D02*
G03*
X165000Y458689I0J-11811D01*
G01*
X316929Y393701D02*
Y458689D01*
X176811Y381890D02*
X305118D01*
X165000Y393701D02*
Y458500D01*
X176811Y470500D02*
X305118D01*
M02*
