G04*
G04 #@! TF.GenerationSoftware,Altium Limited,Altium Designer,20.0.10 (225)*
G04*
G04 Layer_Color=32768*
%FSLAX25Y25*%
%MOIN*%
G70*
G01*
G75*
%ADD11C,0.00787*%
%ADD12C,0.01000*%
%ADD23C,0.00394*%
%ADD24C,0.00197*%
D11*
X352579Y428920D02*
Y459353D01*
X293091Y428920D02*
X352579D01*
X293091D02*
Y459353D01*
X352579D01*
X129705Y428920D02*
Y459353D01*
X189193D01*
Y428920D02*
Y459353D01*
X129705Y428920D02*
X189193D01*
D12*
X305118Y381890D02*
G03*
X316929Y393701I0J11811D01*
G01*
X165000D02*
G03*
X176811Y381890I11811J0D01*
G01*
X316929Y458689D02*
G03*
X305118Y470500I-11811J0D01*
G01*
X176811D02*
G03*
X165000Y458689I0J-11811D01*
G01*
X316929Y393701D02*
Y458689D01*
X176811Y381890D02*
X305118D01*
X165000Y393701D02*
Y458500D01*
X176811Y470500D02*
X305118D01*
D23*
X275031Y438028D02*
X278969D01*
X277000Y436059D02*
Y439996D01*
X275031Y419437D02*
X278969D01*
X277000Y417468D02*
Y421405D01*
X275031Y400937D02*
X278969D01*
X277000Y398968D02*
Y402905D01*
X204906Y400937D02*
X208842D01*
X206874Y398968D02*
Y402905D01*
X204906Y419437D02*
X208842D01*
X206874Y417468D02*
Y421405D01*
X204906Y438028D02*
X208842D01*
X206874Y436059D02*
Y439996D01*
X248031Y440968D02*
Y444905D01*
X246063Y442937D02*
X250000D01*
X228346Y440968D02*
Y444905D01*
X226378Y442937D02*
X230315D01*
D24*
X283299Y428972D02*
Y447083D01*
X270701Y428972D02*
Y447083D01*
X283299D01*
X270701Y428972D02*
X283299D01*
Y410382D02*
Y428492D01*
X270701Y410382D02*
Y428492D01*
X283299D01*
X270701Y410382D02*
X283299D01*
Y391881D02*
Y409992D01*
X270701Y391881D02*
Y409992D01*
X283299D01*
X270701Y391881D02*
X283299D01*
X213173D02*
Y409992D01*
X200575Y391881D02*
Y409992D01*
X213173D01*
X200575Y391881D02*
X213173D01*
Y410382D02*
Y428492D01*
X200575Y410382D02*
Y428492D01*
X213173D01*
X200575Y410382D02*
X213173D01*
Y428972D02*
Y447083D01*
X200575Y428972D02*
Y447083D01*
X213173D01*
X200575Y428972D02*
X213173D01*
X238976Y436637D02*
X257087D01*
X238976Y449236D02*
X257087D01*
Y436637D02*
Y449236D01*
X238976Y436637D02*
Y449236D01*
X219291Y436637D02*
X237402D01*
X219291Y449236D02*
X237402D01*
Y436637D02*
Y449236D01*
X219291Y436637D02*
Y449236D01*
M02*
