G04*
G04 #@! TF.GenerationSoftware,Altium Limited,Altium Designer,20.0.10 (225)*
G04*
G04 Layer_Physical_Order=1*
G04 Layer_Color=255*
%FSLAX25Y25*%
%MOIN*%
G70*
G01*
G75*
%ADD12C,0.01000*%
%ADD13R,0.10630X0.04921*%
%ADD14R,0.04921X0.10630*%
%ADD15R,0.19685X0.04724*%
%ADD16R,0.19685X0.06299*%
%ADD20C,0.05906*%
%ADD21C,0.10524*%
%ADD22C,0.05000*%
G36*
X307427Y470298D02*
X308923Y469897D01*
X310353Y469305D01*
X311694Y468531D01*
X312922Y467588D01*
X314017Y466493D01*
X314960Y465265D01*
X315734Y463924D01*
X316326Y462494D01*
X316727Y460998D01*
X316929Y459463D01*
Y458689D01*
Y393701D01*
Y392927D01*
X316727Y391392D01*
X316326Y389896D01*
X315734Y388466D01*
X314960Y387125D01*
X314017Y385896D01*
X312922Y384802D01*
X311694Y383859D01*
X310353Y383085D01*
X308923Y382493D01*
X307427Y382092D01*
X305892Y381890D01*
X305118D01*
Y381890D01*
X176811D01*
Y381890D01*
X176037D01*
X174502Y382092D01*
X173006Y382493D01*
X171576Y383085D01*
X170235Y383859D01*
X169007Y384802D01*
X167912Y385896D01*
X166970Y387125D01*
X166195Y388466D01*
X165603Y389896D01*
X165202Y391392D01*
X165000Y392927D01*
Y393701D01*
X165000D01*
Y458689D01*
Y459463D01*
X165202Y460998D01*
X165603Y462494D01*
X166195Y463924D01*
X166969Y465265D01*
X167912Y466493D01*
X169007Y467588D01*
X170235Y468531D01*
X171576Y469305D01*
X173006Y469897D01*
X174502Y470298D01*
X176037Y470500D01*
X176811D01*
Y470500D01*
X305118D01*
X305892Y470500D01*
X307427Y470298D01*
D02*
G37*
%LPC*%
G36*
X189032Y459191D02*
X178689D01*
Y455542D01*
X189032D01*
Y459191D01*
D02*
G37*
G36*
X177689D02*
X167347D01*
Y455542D01*
X177689D01*
Y459191D01*
D02*
G37*
G36*
X314937D02*
X304594D01*
Y455542D01*
X314937D01*
Y459191D01*
D02*
G37*
G36*
X303594D02*
X293252D01*
Y455542D01*
X303594D01*
Y459191D01*
D02*
G37*
G36*
X189032Y454542D02*
X178189D01*
X167347D01*
Y450892D01*
X175608D01*
X175633Y450392D01*
X174773Y450307D01*
X173592Y449949D01*
X172504Y449368D01*
X171551Y448585D01*
X170768Y447632D01*
X170697Y447498D01*
X167347D01*
Y440774D01*
X170697D01*
X170768Y440640D01*
X171551Y439687D01*
X172504Y438904D01*
X173592Y438323D01*
X174773Y437965D01*
X175633Y437880D01*
X175608Y437380D01*
X167347D01*
Y433731D01*
X178189D01*
X189032D01*
Y437344D01*
X189032Y437380D01*
X189119Y437844D01*
X196556D01*
X196592Y437825D01*
X197773Y437467D01*
X199000Y437346D01*
X213318D01*
X213734Y437123D01*
X214914Y436765D01*
X216142Y436645D01*
X216142Y436645D01*
X218890D01*
X219215Y436677D01*
X219276Y436622D01*
Y436622D01*
X226015D01*
X226110Y436558D01*
X226500Y436480D01*
X234271D01*
X234337Y436493D01*
X234404Y436489D01*
X234500Y436502D01*
X234596Y436489D01*
X234663Y436493D01*
X234729Y436480D01*
X247209D01*
X247275Y436493D01*
X247342Y436489D01*
X247439Y436502D01*
X247535Y436489D01*
X247602Y436493D01*
X247668Y436480D01*
X250181D01*
X250571Y436558D01*
X250666Y436622D01*
X257102D01*
Y436698D01*
X263715D01*
X264943Y436819D01*
X266123Y437177D01*
X266439Y437346D01*
X277000D01*
X277540Y437399D01*
X279907D01*
X281135Y437520D01*
X282204Y437844D01*
X286753D01*
X286852Y437344D01*
X286735Y437295D01*
X286004Y436734D01*
X285443Y436003D01*
X285090Y435152D01*
X285036Y434738D01*
X291964D01*
X291910Y435152D01*
X291557Y436003D01*
X290996Y436734D01*
X290265Y437295D01*
X290148Y437344D01*
X290247Y437844D01*
X293165D01*
X293252Y437380D01*
X293252Y437344D01*
Y433731D01*
X304095D01*
X314937D01*
Y437380D01*
X304486D01*
X304462Y437880D01*
X305322Y437965D01*
X306502Y438323D01*
X307590Y438904D01*
X308544Y439687D01*
X309326Y440640D01*
X309398Y440774D01*
X314937D01*
Y447498D01*
X309398D01*
X309326Y447632D01*
X308544Y448585D01*
X307590Y449368D01*
X306502Y449949D01*
X305322Y450307D01*
X304462Y450392D01*
X304486Y450892D01*
X314937D01*
Y454542D01*
X304095D01*
X293252D01*
Y450928D01*
X293252Y450892D01*
X293165Y450428D01*
X280353D01*
X280353Y450428D01*
X279125Y450307D01*
X278056Y449983D01*
X277053D01*
X277053Y449983D01*
X276513Y449930D01*
X264363D01*
X263136Y449809D01*
X261955Y449451D01*
X261639Y449282D01*
X256490D01*
X256182Y449252D01*
X250181D01*
Y448520D01*
X245882D01*
Y449252D01*
X238961D01*
Y448520D01*
X237417D01*
Y449252D01*
X230496D01*
Y448520D01*
X226500D01*
X226197Y448768D01*
Y449252D01*
X219276D01*
Y449252D01*
X219215Y449197D01*
X218890Y449229D01*
X218264D01*
X217848Y449451D01*
X216668Y449809D01*
X215441Y449930D01*
X209265D01*
X209229Y449949D01*
X208048Y450307D01*
X206821Y450428D01*
X189119D01*
X189032Y450892D01*
X189032Y450928D01*
Y454542D01*
D02*
G37*
G36*
X291964Y433738D02*
X289000D01*
Y430774D01*
X289414Y430828D01*
X290265Y431181D01*
X290996Y431742D01*
X291557Y432473D01*
X291910Y433324D01*
X291964Y433738D01*
D02*
G37*
G36*
X288000D02*
X285036D01*
X285090Y433324D01*
X285443Y432473D01*
X286004Y431742D01*
X286735Y431181D01*
X287586Y430828D01*
X288000Y430774D01*
Y433738D01*
D02*
G37*
G36*
X314937Y432731D02*
X304594D01*
Y429081D01*
X314937D01*
Y432731D01*
D02*
G37*
G36*
X303594D02*
X293252D01*
Y429081D01*
X303594D01*
Y432731D01*
D02*
G37*
G36*
X189032Y432731D02*
X178689D01*
Y429081D01*
X189032D01*
Y432731D01*
D02*
G37*
G36*
X177689D02*
X167347D01*
Y429081D01*
X177689D01*
Y432731D01*
D02*
G37*
G36*
X277000Y436404D02*
X275968Y436268D01*
X275026Y435878D01*
X270685D01*
Y428957D01*
X270685Y428957D01*
Y428508D01*
X270685D01*
X270685Y428457D01*
Y421586D01*
X275026D01*
X275968Y421196D01*
X277000Y421060D01*
X278032Y421196D01*
X278974Y421586D01*
X283315D01*
Y428457D01*
X283315Y428508D01*
X283315D01*
Y428957D01*
X283315D01*
Y435878D01*
X278974D01*
X278032Y436268D01*
X277000Y436404D01*
D02*
G37*
G36*
X206874D02*
X205842Y436268D01*
X204900Y435878D01*
X200559D01*
Y428957D01*
X200559Y428957D01*
Y428508D01*
X200559D01*
X200559Y428457D01*
Y421586D01*
X204900D01*
X205842Y421196D01*
X206874Y421060D01*
X207834Y421186D01*
X207906Y421196D01*
X208848Y421586D01*
X213189D01*
Y428457D01*
X213189Y428508D01*
X213189D01*
Y428957D01*
X213189D01*
Y435878D01*
X208848D01*
X207906Y436268D01*
X206874Y436404D01*
D02*
G37*
G36*
X277000Y417813D02*
X275968Y417677D01*
X275026Y417287D01*
X270685D01*
Y416287D01*
Y410366D01*
X270685Y410366D01*
Y410007D01*
X270685D01*
X270685Y409866D01*
Y403086D01*
X275026D01*
X275968Y402696D01*
X277000Y402560D01*
X278032Y402696D01*
X278974Y403086D01*
X283315D01*
Y409866D01*
X283315Y410007D01*
X283315D01*
Y410366D01*
X283315D01*
Y416287D01*
Y417287D01*
X278974D01*
X278032Y417677D01*
X277000Y417813D01*
D02*
G37*
G36*
X206874D02*
X205842Y417677D01*
X204900Y417287D01*
X200559D01*
Y410366D01*
X200559Y410366D01*
Y410007D01*
X200559D01*
X200559Y409866D01*
Y403086D01*
X204900D01*
X205842Y402696D01*
X206874Y402560D01*
X207906Y402696D01*
X208848Y403086D01*
X213189D01*
Y409866D01*
X213189Y410007D01*
X213189D01*
Y410366D01*
X213189D01*
Y417287D01*
X208848D01*
X207906Y417677D01*
X206874Y417813D01*
D02*
G37*
G36*
X283315Y398787D02*
X277500D01*
Y398250D01*
Y395826D01*
X283315D01*
Y398603D01*
Y398787D01*
D02*
G37*
G36*
X213189D02*
X207374D01*
Y395826D01*
X213189D01*
Y398787D01*
D02*
G37*
G36*
X276500D02*
X270685D01*
Y395826D01*
X276500D01*
Y398787D01*
D02*
G37*
G36*
X206374D02*
X200559D01*
Y398037D01*
Y395826D01*
X206374D01*
Y398787D01*
D02*
G37*
G36*
X283315Y394826D02*
X277500D01*
Y391866D01*
X283315D01*
Y394826D01*
D02*
G37*
G36*
X276500D02*
X270685D01*
Y391866D01*
X276500D01*
Y394826D01*
D02*
G37*
G36*
X213189D02*
X207374D01*
Y391866D01*
X213189D01*
Y394826D01*
D02*
G37*
G36*
X206374D02*
X200559D01*
Y391866D01*
X206374D01*
Y394826D01*
D02*
G37*
%LPD*%
G36*
X250181Y437500D02*
X247668D01*
X247439Y437530D01*
X247209Y437500D01*
X234729D01*
X234500Y437530D01*
X234271Y437500D01*
X226500D01*
Y447500D01*
X250181D01*
Y437500D01*
D02*
G37*
G36*
X279972Y431482D02*
X280123Y429981D01*
X281922D01*
X281548Y429931D01*
X281213Y429783D01*
X280918Y429537D01*
X280662Y429191D01*
X280445Y428747D01*
X280442Y428737D01*
X280445Y428726D01*
X280662Y428283D01*
X280918Y427939D01*
X281213Y427692D01*
X281548Y427545D01*
X281922Y427495D01*
X280121D01*
X280031Y426823D01*
X279972Y425984D01*
X279953Y425047D01*
X274047D01*
X274028Y425984D01*
X273877Y427495D01*
X272078D01*
X272452Y427545D01*
X272787Y427692D01*
X273082Y427939D01*
X273338Y428283D01*
X273555Y428726D01*
X273558Y428737D01*
X273555Y428747D01*
X273338Y429191D01*
X273082Y429537D01*
X272787Y429783D01*
X272452Y429931D01*
X272078Y429981D01*
X273880D01*
X273969Y430646D01*
X274028Y431482D01*
X274047Y432417D01*
X279953D01*
X279972Y431482D01*
D02*
G37*
G36*
X209846D02*
X209997Y429981D01*
X211796D01*
X211422Y429931D01*
X211087Y429783D01*
X210792Y429537D01*
X210536Y429191D01*
X210319Y428747D01*
X210316Y428737D01*
X210319Y428726D01*
X210536Y428283D01*
X210792Y427939D01*
X211087Y427692D01*
X211422Y427545D01*
X211796Y427495D01*
X209995D01*
X209906Y426823D01*
X209846Y425984D01*
X209827Y425047D01*
X203921D01*
X203902Y425984D01*
X203751Y427495D01*
X201952D01*
X202326Y427545D01*
X202661Y427692D01*
X202956Y427939D01*
X203212Y428283D01*
X203429Y428726D01*
X203432Y428737D01*
X203429Y428747D01*
X203212Y429191D01*
X202956Y429537D01*
X202661Y429783D01*
X202326Y429931D01*
X201952Y429981D01*
X203754D01*
X203842Y430646D01*
X203902Y431482D01*
X203921Y432417D01*
X209827D01*
X209846Y431482D01*
D02*
G37*
G36*
X279972Y412909D02*
X280119Y411390D01*
X281831D01*
X281474Y411341D01*
X281155Y411196D01*
X280873Y410954D01*
X280629Y410615D01*
X280428Y410191D01*
X280629Y409768D01*
X280873Y409430D01*
X281155Y409189D01*
X281474Y409044D01*
X281831Y408995D01*
X280119D01*
X280028Y408290D01*
X279972Y407467D01*
X279953Y406547D01*
X274047D01*
X274028Y407467D01*
X273880Y408995D01*
X272169D01*
X272526Y409044D01*
X272845Y409189D01*
X273127Y409430D01*
X273371Y409768D01*
X273572Y410191D01*
X273371Y410615D01*
X273127Y410954D01*
X272845Y411196D01*
X272526Y411341D01*
X272169Y411390D01*
X273882D01*
X273972Y412087D01*
X274028Y412909D01*
X274047Y413826D01*
X279953D01*
X279972Y412909D01*
D02*
G37*
G36*
X209846D02*
X209993Y411390D01*
X211705D01*
X211348Y411341D01*
X211029Y411196D01*
X210747Y410954D01*
X210503Y410615D01*
X210302Y410191D01*
X210503Y409768D01*
X210747Y409430D01*
X211029Y409189D01*
X211348Y409044D01*
X211705Y408995D01*
X209993D01*
X209902Y408290D01*
X209846Y407467D01*
X209827Y406547D01*
X203921D01*
X203903Y407467D01*
X203754Y408995D01*
X202043D01*
X202400Y409044D01*
X202719Y409189D01*
X203001Y409430D01*
X203245Y409768D01*
X203446Y410191D01*
X203245Y410615D01*
X203001Y410954D01*
X202719Y411196D01*
X202400Y411341D01*
X202043Y411390D01*
X203756D01*
X203846Y412087D01*
X203903Y412909D01*
X203921Y413826D01*
X209827D01*
X209846Y412909D01*
D02*
G37*
D12*
X305118Y381890D02*
G03*
X316929Y393701I0J11811D01*
G01*
X165000D02*
G03*
X176811Y381890I11811J0D01*
G01*
X316929Y458689D02*
G03*
X305118Y470500I-11811J0D01*
G01*
X176811D02*
G03*
X165000Y458689I0J-11811D01*
G01*
X316929Y393701D02*
Y458689D01*
X176811Y381890D02*
X305118D01*
X165000Y393701D02*
Y458500D01*
X176811Y470500D02*
X305118D01*
D13*
X277000Y443638D02*
D03*
Y432417D02*
D03*
Y425047D02*
D03*
Y413826D02*
D03*
Y406547D02*
D03*
Y395326D02*
D03*
X206874Y406547D02*
D03*
Y395326D02*
D03*
Y425047D02*
D03*
Y413826D02*
D03*
Y443638D02*
D03*
Y432417D02*
D03*
D14*
X253642Y442937D02*
D03*
X242421D02*
D03*
X233957D02*
D03*
X222736D02*
D03*
D15*
X304095Y444136D02*
D03*
X178189D02*
D03*
D16*
X304095Y455042D02*
D03*
Y433231D02*
D03*
X178189D02*
D03*
Y455042D02*
D03*
D20*
X206874Y425047D02*
Y432417D01*
Y406547D02*
Y413826D01*
X277000Y406547D02*
Y413826D01*
Y425047D02*
Y432417D01*
D21*
X206874Y443638D02*
X215441D01*
X199000D02*
X206874D01*
X178189Y444136D02*
X206821D01*
X176000D02*
X178189D01*
X256490Y442990D02*
X263715D01*
X277000Y443638D02*
X277053Y443691D01*
X279907D01*
X280353Y444136D01*
X304095D01*
X264363Y443638D02*
X277000D01*
X263715Y442990D02*
X264363Y443638D01*
X215441D02*
X216142Y442937D01*
X218890D01*
X206821Y444136D02*
X206874Y444083D01*
D22*
X179000Y463500D02*
D03*
X288500Y434238D02*
D03*
X279167Y453000D02*
D03*
X288500D02*
D03*
X194000Y433500D02*
D03*
X294500Y463000D02*
D03*
X266500Y434000D02*
D03*
X216500Y412500D02*
D03*
Y404500D02*
D03*
X197000Y407500D02*
D03*
Y415500D02*
D03*
X288500Y418000D02*
D03*
Y409908D02*
D03*
X266500Y399433D02*
D03*
X288500D02*
D03*
X266500Y412989D02*
D03*
Y425000D02*
D03*
X239000Y453000D02*
D03*
X234500Y434000D02*
D03*
X247439D02*
D03*
X252500Y453000D02*
D03*
X197000Y426000D02*
D03*
X216500Y425500D02*
D03*
X266500Y453000D02*
D03*
X257000Y434000D02*
D03*
X288500Y426500D02*
D03*
X193500Y455500D02*
D03*
X216500Y432500D02*
D03*
X224000Y434000D02*
D03*
X226542Y453000D02*
D03*
X217155D02*
D03*
X208500D02*
D03*
X201000D02*
D03*
X277500Y388000D02*
D03*
X206500Y387500D02*
D03*
M02*
