G04*
G04 #@! TF.GenerationSoftware,Altium Limited,Altium Designer,20.0.10 (225)*
G04*
G04 Layer_Color=16711935*
%FSLAX25Y25*%
%MOIN*%
G70*
G01*
G75*
%ADD11C,0.00787*%
%ADD12C,0.01000*%
G36*
X323634Y443834D02*
X323630D01*
X323623D01*
X323608D01*
X323587Y443830D01*
X323565Y443827D01*
X323539D01*
X323477Y443816D01*
X323412Y443805D01*
X323346Y443783D01*
X323288Y443761D01*
X323263Y443747D01*
X323241Y443729D01*
X323237Y443725D01*
X323226Y443710D01*
X323208Y443689D01*
X323190Y443659D01*
X323168Y443619D01*
X323153Y443576D01*
X323139Y443521D01*
X323135Y443463D01*
Y443441D01*
X323139Y443419D01*
X323143Y443386D01*
X323150Y443354D01*
X323157Y443317D01*
X323172Y443281D01*
X323190Y443245D01*
X323194Y443241D01*
X323201Y443230D01*
X323215Y443215D01*
X323230Y443193D01*
X323255Y443175D01*
X323281Y443153D01*
X323310Y443135D01*
X323346Y443121D01*
X323350D01*
X323365Y443113D01*
X323390Y443110D01*
X323423Y443103D01*
X323466Y443095D01*
X323521Y443092D01*
X323587Y443084D01*
X323663D01*
X325399D01*
Y442749D01*
X323681D01*
X323678D01*
X323667D01*
X323652D01*
X323630D01*
X323601Y442753D01*
X323572D01*
X323503Y442760D01*
X323423Y442768D01*
X323339Y442782D01*
X323263Y442804D01*
X323190Y442830D01*
X323186D01*
X323183Y442833D01*
X323161Y442844D01*
X323132Y442862D01*
X323092Y442888D01*
X323052Y442924D01*
X323008Y442964D01*
X322964Y443015D01*
X322928Y443073D01*
X322924Y443081D01*
X322913Y443103D01*
X322899Y443135D01*
X322884Y443183D01*
X322866Y443241D01*
X322851Y443306D01*
X322840Y443379D01*
X322837Y443459D01*
Y443492D01*
X322840Y443514D01*
X322844Y443543D01*
X322848Y443572D01*
X322862Y443648D01*
X322884Y443729D01*
X322917Y443812D01*
X322939Y443856D01*
X322964Y443896D01*
X322993Y443932D01*
X323026Y443969D01*
X323030Y443972D01*
X323033Y443976D01*
X323048Y443983D01*
X323062Y443994D01*
X323081Y444009D01*
X323106Y444023D01*
X323135Y444038D01*
X323168Y444056D01*
X323204Y444071D01*
X323248Y444085D01*
X323292Y444100D01*
X323343Y444114D01*
X323397Y444122D01*
X323459Y444133D01*
X323521Y444136D01*
X323590D01*
X323634Y443834D01*
D02*
G37*
G36*
X324777Y442091D02*
X324784Y442083D01*
X324788Y442069D01*
X324799Y442051D01*
X324810Y442029D01*
X324824Y442003D01*
X324861Y441941D01*
X324901Y441869D01*
X324952Y441796D01*
X325010Y441719D01*
X325072Y441643D01*
X325075Y441639D01*
X325079Y441636D01*
X325090Y441625D01*
X325101Y441610D01*
X325137Y441577D01*
X325181Y441534D01*
X325232Y441490D01*
X325290Y441443D01*
X325348Y441403D01*
X325410Y441366D01*
Y441166D01*
X322881D01*
Y441475D01*
X324850D01*
X324846Y441479D01*
X324832Y441497D01*
X324810Y441519D01*
X324784Y441556D01*
X324751Y441596D01*
X324715Y441646D01*
X324675Y441705D01*
X324635Y441770D01*
Y441774D01*
X324631Y441778D01*
X324617Y441799D01*
X324599Y441836D01*
X324577Y441880D01*
X324551Y441930D01*
X324526Y441985D01*
X324500Y442040D01*
X324478Y442094D01*
X324777D01*
Y442091D01*
D02*
G37*
G36*
X324235Y440369D02*
X324278D01*
X324326Y440365D01*
X324380Y440362D01*
X324493Y440351D01*
X324613Y440333D01*
X324733Y440311D01*
X324788Y440296D01*
X324842Y440281D01*
X324846D01*
X324853Y440278D01*
X324868Y440271D01*
X324886Y440263D01*
X324912Y440256D01*
X324937Y440241D01*
X324999Y440212D01*
X325064Y440176D01*
X325134Y440129D01*
X325203Y440074D01*
X325261Y440008D01*
Y440005D01*
X325268Y440001D01*
X325276Y439990D01*
X325283Y439976D01*
X325297Y439958D01*
X325308Y439936D01*
X325338Y439881D01*
X325363Y439816D01*
X325388Y439739D01*
X325403Y439648D01*
X325410Y439550D01*
Y439517D01*
X325407Y439477D01*
X325399Y439430D01*
X325388Y439375D01*
X325374Y439317D01*
X325356Y439255D01*
X325327Y439197D01*
Y439193D01*
X325323Y439189D01*
X325312Y439171D01*
X325294Y439142D01*
X325268Y439106D01*
X325232Y439066D01*
X325192Y439022D01*
X325145Y438982D01*
X325090Y438942D01*
X325083Y438938D01*
X325064Y438924D01*
X325032Y438909D01*
X324984Y438884D01*
X324930Y438862D01*
X324868Y438833D01*
X324795Y438807D01*
X324715Y438786D01*
X324711D01*
X324704Y438782D01*
X324693Y438778D01*
X324675Y438775D01*
X324653Y438771D01*
X324628Y438767D01*
X324595Y438760D01*
X324558Y438756D01*
X324518Y438749D01*
X324475Y438745D01*
X324424Y438742D01*
X324373Y438734D01*
X324315Y438731D01*
X324256D01*
X324191Y438727D01*
X324122D01*
X324118D01*
X324103D01*
X324078D01*
X324049D01*
X324009Y438731D01*
X323965D01*
X323918Y438734D01*
X323867Y438738D01*
X323750Y438749D01*
X323630Y438767D01*
X323514Y438789D01*
X323459Y438804D01*
X323405Y438822D01*
X323401D01*
X323394Y438826D01*
X323379Y438833D01*
X323361Y438840D01*
X323336Y438847D01*
X323310Y438862D01*
X323248Y438891D01*
X323183Y438927D01*
X323110Y438975D01*
X323044Y439029D01*
X322982Y439095D01*
Y439099D01*
X322975Y439102D01*
X322968Y439113D01*
X322961Y439128D01*
X322950Y439146D01*
X322935Y439164D01*
X322910Y439219D01*
X322884Y439284D01*
X322859Y439361D01*
X322844Y439452D01*
X322837Y439550D01*
Y439586D01*
X322840Y439612D01*
X322844Y439641D01*
X322851Y439677D01*
X322859Y439717D01*
X322870Y439761D01*
X322884Y439805D01*
X322899Y439852D01*
X322920Y439899D01*
X322946Y439947D01*
X322975Y439994D01*
X323011Y440041D01*
X323052Y440085D01*
X323095Y440125D01*
X323099Y440129D01*
X323110Y440136D01*
X323128Y440147D01*
X323157Y440165D01*
X323190Y440183D01*
X323234Y440201D01*
X323285Y440227D01*
X323343Y440249D01*
X323408Y440271D01*
X323485Y440292D01*
X323568Y440314D01*
X323663Y440333D01*
X323765Y440351D01*
X323874Y440362D01*
X323994Y440369D01*
X324122Y440373D01*
X324125D01*
X324140D01*
X324165D01*
X324195D01*
X324235Y440369D01*
D02*
G37*
G36*
X158213Y447594D02*
X158260D01*
X158315Y447590D01*
X158369Y447583D01*
X158493Y447572D01*
X158624Y447554D01*
X158748Y447529D01*
X158810Y447510D01*
X158864Y447492D01*
X158868D01*
X158875Y447489D01*
X158890Y447481D01*
X158912Y447474D01*
X158933Y447463D01*
X158963Y447449D01*
X159024Y447412D01*
X159094Y447368D01*
X159166Y447318D01*
X159236Y447252D01*
X159297Y447179D01*
Y447176D01*
X159305Y447168D01*
X159312Y447157D01*
X159319Y447143D01*
X159330Y447121D01*
X159345Y447099D01*
X159359Y447070D01*
X159370Y447041D01*
X159399Y446972D01*
X159425Y446888D01*
X159439Y446797D01*
X159447Y446695D01*
Y446666D01*
X159443Y446648D01*
Y446622D01*
X159439Y446593D01*
X159425Y446524D01*
X159407Y446448D01*
X159378Y446368D01*
X159337Y446287D01*
X159312Y446247D01*
X159283Y446211D01*
X159279Y446207D01*
X159276Y446204D01*
X159265Y446193D01*
X159254Y446182D01*
X159236Y446167D01*
X159214Y446149D01*
X159163Y446113D01*
X159097Y446076D01*
X159017Y446040D01*
X158926Y446011D01*
X158821Y445989D01*
X158795Y446287D01*
X158799D01*
X158806Y446291D01*
X158813D01*
X158828Y446295D01*
X158868Y446306D01*
X158912Y446320D01*
X158963Y446338D01*
X159013Y446364D01*
X159061Y446393D01*
X159101Y446429D01*
X159105Y446433D01*
X159115Y446448D01*
X159130Y446473D01*
X159144Y446502D01*
X159163Y446542D01*
X159177Y446590D01*
X159188Y446644D01*
X159192Y446702D01*
Y446728D01*
X159188Y446753D01*
X159185Y446786D01*
X159177Y446826D01*
X159166Y446866D01*
X159152Y446910D01*
X159130Y446950D01*
X159126Y446953D01*
X159119Y446968D01*
X159105Y446990D01*
X159083Y447012D01*
X159057Y447041D01*
X159028Y447070D01*
X158995Y447099D01*
X158955Y447128D01*
X158952Y447132D01*
X158933Y447139D01*
X158908Y447154D01*
X158875Y447168D01*
X158832Y447187D01*
X158781Y447205D01*
X158722Y447223D01*
X158657Y447241D01*
X158653D01*
X158650Y447245D01*
X158639D01*
X158624Y447248D01*
X158588Y447256D01*
X158540Y447267D01*
X158482Y447274D01*
X158420Y447281D01*
X158351Y447285D01*
X158278Y447288D01*
X158275D01*
X158264D01*
X158246D01*
X158216D01*
X158224Y447285D01*
X158242Y447270D01*
X158267Y447248D01*
X158304Y447223D01*
X158340Y447187D01*
X158380Y447143D01*
X158420Y447092D01*
X158457Y447034D01*
X158460Y447026D01*
X158471Y447005D01*
X158486Y446972D01*
X158500Y446932D01*
X158519Y446877D01*
X158533Y446819D01*
X158544Y446753D01*
X158548Y446684D01*
Y446655D01*
X158544Y446633D01*
X158540Y446604D01*
X158537Y446575D01*
X158529Y446539D01*
X158519Y446502D01*
X158493Y446419D01*
X158475Y446375D01*
X158453Y446331D01*
X158428Y446284D01*
X158395Y446240D01*
X158362Y446196D01*
X158322Y446156D01*
X158318Y446153D01*
X158311Y446145D01*
X158300Y446138D01*
X158282Y446124D01*
X158256Y446105D01*
X158231Y446087D01*
X158198Y446069D01*
X158162Y446051D01*
X158122Y446029D01*
X158078Y446011D01*
X158027Y445993D01*
X157976Y445974D01*
X157918Y445960D01*
X157856Y445953D01*
X157794Y445945D01*
X157725Y445942D01*
X157721D01*
X157707D01*
X157688D01*
X157663Y445945D01*
X157630Y445949D01*
X157590Y445953D01*
X157550Y445960D01*
X157503Y445971D01*
X157408Y445996D01*
X157357Y446014D01*
X157303Y446036D01*
X157252Y446062D01*
X157204Y446095D01*
X157153Y446127D01*
X157110Y446167D01*
X157106Y446171D01*
X157099Y446178D01*
X157088Y446189D01*
X157073Y446207D01*
X157055Y446229D01*
X157033Y446258D01*
X157015Y446287D01*
X156990Y446324D01*
X156968Y446360D01*
X156950Y446404D01*
X156910Y446502D01*
X156895Y446553D01*
X156884Y446611D01*
X156877Y446670D01*
X156873Y446732D01*
Y446757D01*
X156877Y446775D01*
Y446793D01*
X156880Y446819D01*
X156891Y446881D01*
X156906Y446950D01*
X156931Y447026D01*
X156964Y447103D01*
X157008Y447179D01*
Y447183D01*
X157015Y447187D01*
X157022Y447197D01*
X157033Y447212D01*
X157062Y447248D01*
X157103Y447296D01*
X157157Y447343D01*
X157223Y447398D01*
X157299Y447445D01*
X157386Y447489D01*
X157390D01*
X157397Y447492D01*
X157412Y447500D01*
X157430Y447507D01*
X157456Y447514D01*
X157488Y447525D01*
X157525Y447532D01*
X157565Y447543D01*
X157612Y447554D01*
X157667Y447565D01*
X157725Y447572D01*
X157787Y447580D01*
X157856Y447587D01*
X157929Y447594D01*
X158009Y447598D01*
X158093D01*
X158096D01*
X158114D01*
X158140D01*
X158173D01*
X158213Y447594D01*
D02*
G37*
G36*
X158682Y445519D02*
X158711D01*
X158781Y445512D01*
X158861Y445505D01*
X158944Y445490D01*
X159021Y445468D01*
X159094Y445443D01*
X159097D01*
X159101Y445439D01*
X159123Y445428D01*
X159152Y445410D01*
X159192Y445385D01*
X159232Y445348D01*
X159276Y445308D01*
X159319Y445257D01*
X159356Y445199D01*
X159359Y445192D01*
X159370Y445170D01*
X159385Y445137D01*
X159399Y445090D01*
X159417Y445032D01*
X159432Y444966D01*
X159443Y444893D01*
X159447Y444813D01*
Y444780D01*
X159443Y444759D01*
X159439Y444730D01*
X159436Y444700D01*
X159421Y444624D01*
X159399Y444544D01*
X159367Y444460D01*
X159345Y444416D01*
X159319Y444376D01*
X159290Y444340D01*
X159257Y444304D01*
X159254Y444300D01*
X159250Y444296D01*
X159236Y444289D01*
X159221Y444278D01*
X159203Y444264D01*
X159177Y444249D01*
X159148Y444235D01*
X159115Y444216D01*
X159079Y444202D01*
X159035Y444187D01*
X158992Y444173D01*
X158941Y444158D01*
X158886Y444151D01*
X158824Y444140D01*
X158762Y444136D01*
X158693D01*
X158650Y444438D01*
X158653D01*
X158660D01*
X158675D01*
X158697Y444442D01*
X158719Y444446D01*
X158744D01*
X158806Y444456D01*
X158871Y444467D01*
X158937Y444489D01*
X158995Y444511D01*
X159021Y444526D01*
X159043Y444544D01*
X159046Y444548D01*
X159057Y444562D01*
X159075Y444584D01*
X159094Y444613D01*
X159115Y444653D01*
X159130Y444697D01*
X159144Y444751D01*
X159148Y444810D01*
Y444831D01*
X159144Y444853D01*
X159141Y444886D01*
X159134Y444919D01*
X159126Y444955D01*
X159112Y444992D01*
X159094Y445028D01*
X159090Y445032D01*
X159083Y445043D01*
X159068Y445057D01*
X159054Y445079D01*
X159028Y445097D01*
X159003Y445119D01*
X158974Y445137D01*
X158937Y445152D01*
X158933D01*
X158919Y445159D01*
X158893Y445163D01*
X158861Y445170D01*
X158817Y445177D01*
X158762Y445181D01*
X158697Y445188D01*
X158620D01*
X156884D01*
Y445523D01*
X158602D01*
X158606D01*
X158617D01*
X158631D01*
X158653D01*
X158682Y445519D01*
D02*
G37*
%LPC*%
G36*
X324122Y440056D02*
X324114D01*
X324096D01*
X324063D01*
X324020Y440052D01*
X323973D01*
X323914Y440049D01*
X323852Y440045D01*
X323787Y440038D01*
X323645Y440019D01*
X323576Y440008D01*
X323510Y439994D01*
X323448Y439979D01*
X323390Y439958D01*
X323339Y439936D01*
X323295Y439910D01*
X323292D01*
X323288Y439903D01*
X323263Y439885D01*
X323230Y439852D01*
X323194Y439812D01*
X323157Y439757D01*
X323124Y439696D01*
X323099Y439626D01*
X323095Y439590D01*
X323092Y439550D01*
Y439528D01*
X323095Y439513D01*
X323102Y439477D01*
X323117Y439426D01*
X323143Y439371D01*
X323179Y439310D01*
X323201Y439281D01*
X323230Y439251D01*
X323259Y439222D01*
X323295Y439193D01*
X323299D01*
X323306Y439186D01*
X323317Y439179D01*
X323336Y439171D01*
X323361Y439157D01*
X323394Y439146D01*
X323430Y439131D01*
X323474Y439117D01*
X323528Y439106D01*
X323587Y439091D01*
X323656Y439077D01*
X323729Y439066D01*
X323816Y439058D01*
X323907Y439051D01*
X324009Y439044D01*
X324122D01*
X324125D01*
X324129D01*
X324147D01*
X324180D01*
X324224Y439048D01*
X324271D01*
X324329Y439051D01*
X324391Y439055D01*
X324460Y439062D01*
X324599Y439080D01*
X324668Y439091D01*
X324733Y439106D01*
X324795Y439120D01*
X324853Y439142D01*
X324904Y439164D01*
X324948Y439189D01*
X324952D01*
X324955Y439197D01*
X324966Y439204D01*
X324981Y439215D01*
X325013Y439248D01*
X325054Y439288D01*
X325090Y439342D01*
X325123Y439404D01*
X325137Y439437D01*
X325148Y439473D01*
X325152Y439513D01*
X325155Y439553D01*
Y439575D01*
X325152Y439590D01*
X325145Y439630D01*
X325134Y439677D01*
X325112Y439732D01*
X325079Y439790D01*
X325057Y439819D01*
X325035Y439848D01*
X325006Y439874D01*
X324974Y439899D01*
X324970D01*
X324963Y439907D01*
X324948Y439914D01*
X324930Y439925D01*
X324901Y439936D01*
X324868Y439950D01*
X324828Y439961D01*
X324781Y439976D01*
X324726Y439990D01*
X324664Y440005D01*
X324595Y440019D01*
X324518Y440030D01*
X324431Y440041D01*
X324337Y440049D01*
X324235Y440052D01*
X324122Y440056D01*
D02*
G37*
G36*
X157710Y447256D02*
X157707D01*
X157700D01*
X157685D01*
X157667Y447252D01*
X157641D01*
X157616Y447248D01*
X157557Y447237D01*
X157488Y447223D01*
X157415Y447197D01*
X157346Y447161D01*
X157284Y447114D01*
X157281D01*
X157277Y447106D01*
X157259Y447088D01*
X157234Y447059D01*
X157204Y447019D01*
X157179Y446968D01*
X157153Y446910D01*
X157135Y446844D01*
X157128Y446808D01*
Y446750D01*
X157132Y446735D01*
X157135Y446695D01*
X157150Y446648D01*
X157168Y446590D01*
X157201Y446528D01*
X157241Y446466D01*
X157270Y446437D01*
X157299Y446408D01*
X157303D01*
X157306Y446400D01*
X157317Y446393D01*
X157328Y446386D01*
X157365Y446360D01*
X157415Y446335D01*
X157477Y446306D01*
X157554Y446280D01*
X157641Y446266D01*
X157736Y446258D01*
X157739D01*
X157747D01*
X157758D01*
X157776Y446262D01*
X157798D01*
X157820Y446266D01*
X157874Y446277D01*
X157936Y446295D01*
X158002Y446316D01*
X158067Y446353D01*
X158125Y446400D01*
X158133Y446408D01*
X158147Y446426D01*
X158173Y446458D01*
X158198Y446498D01*
X158227Y446553D01*
X158253Y446615D01*
X158267Y446684D01*
X158275Y446761D01*
Y446782D01*
X158271Y446797D01*
X158267Y446837D01*
X158256Y446884D01*
X158238Y446943D01*
X158213Y447001D01*
X158176Y447059D01*
X158125Y447114D01*
X158118Y447121D01*
X158096Y447135D01*
X158063Y447157D01*
X158016Y447187D01*
X157958Y447212D01*
X157889Y447234D01*
X157805Y447248D01*
X157710Y447256D01*
D02*
G37*
%LPD*%
D11*
X352579Y428920D02*
Y459353D01*
X293091Y428920D02*
X352579D01*
X293091D02*
Y459353D01*
X352579D01*
X129705Y428920D02*
Y459353D01*
X189193D01*
Y428920D02*
Y459353D01*
X129705Y428920D02*
X189193D01*
D12*
X305118Y381890D02*
G03*
X316929Y393701I0J11811D01*
G01*
X165000D02*
G03*
X176811Y381890I11811J0D01*
G01*
X316929Y458689D02*
G03*
X305118Y470500I-11811J0D01*
G01*
X176811D02*
G03*
X165000Y458689I0J-11811D01*
G01*
X316929Y393701D02*
Y458689D01*
X176811Y381890D02*
X305118D01*
X165000Y393701D02*
Y458500D01*
X176811Y470500D02*
X305118D01*
M02*
