G04*
G04 #@! TF.GenerationSoftware,Altium Limited,Altium Designer,20.0.10 (225)*
G04*
G04 Layer_Color=16711935*
%FSLAX25Y25*%
%MOIN*%
G70*
G01*
G75*
%ADD11C,0.00787*%
%ADD12C,0.01000*%
%ADD23C,0.00394*%
D11*
X351417Y431636D02*
Y456636D01*
X313937Y431636D02*
X351417D01*
X313937D02*
Y456636D01*
X351417D01*
X313937Y428920D02*
Y459353D01*
X130866Y431636D02*
Y456636D01*
X168347D01*
Y431636D02*
Y456636D01*
X130866Y431636D02*
X168347D01*
Y428920D02*
Y459353D01*
D12*
X305118Y381890D02*
G03*
X316929Y393701I0J11811D01*
G01*
X165000D02*
G03*
X176811Y381890I11811J0D01*
G01*
X316929Y458689D02*
G03*
X305118Y470500I-11811J0D01*
G01*
X176811D02*
G03*
X165000Y458689I0J-11811D01*
G01*
X316929Y393701D02*
Y458689D01*
X176811Y381890D02*
X305118D01*
X165000Y393701D02*
Y458500D01*
X176811Y470500D02*
X305118D01*
D23*
X282315Y431335D02*
Y444721D01*
X271685Y431335D02*
Y444721D01*
X282315D01*
X271685Y431335D02*
X282315D01*
Y412744D02*
Y426129D01*
X271685Y412744D02*
Y426129D01*
X282315D01*
X271685Y412744D02*
X282315D01*
Y394244D02*
Y407629D01*
X271685Y394244D02*
Y407629D01*
X282315D01*
X271685Y394244D02*
X282315D01*
X212189D02*
Y407629D01*
X201559Y394244D02*
Y407629D01*
X212189D01*
X201559Y394244D02*
X212189D01*
Y412744D02*
Y426129D01*
X201559Y412744D02*
Y426129D01*
X212189D01*
X201559Y412744D02*
X212189D01*
Y431335D02*
Y444721D01*
X201559Y431335D02*
Y444721D01*
X212189D01*
X201559Y431335D02*
X212189D01*
X241339Y437622D02*
X254724D01*
X241339Y448252D02*
X254724D01*
Y437622D02*
Y448252D01*
X241339Y437622D02*
Y448252D01*
X221654Y437622D02*
X235039D01*
X221654Y448252D02*
X235039D01*
Y437622D02*
Y448252D01*
X221654Y437622D02*
Y448252D01*
M02*
