G04*
G04 #@! TF.GenerationSoftware,Altium Limited,Altium Designer,20.0.10 (225)*
G04*
G04 Layer_Color=2752767*
%FSLAX25Y25*%
%MOIN*%
G70*
G01*
G75*
%ADD12C,0.01000*%
%ADD25C,0.00200*%
D12*
X305118Y381890D02*
G03*
X316929Y393701I0J11811D01*
G01*
X165000D02*
G03*
X176811Y381890I11811J0D01*
G01*
X316929Y458689D02*
G03*
X305118Y470500I-11811J0D01*
G01*
X176811D02*
G03*
X165000Y458689I0J-11811D01*
G01*
X316929Y393701D02*
Y458689D01*
X176811Y381890D02*
X305118D01*
X165000Y393701D02*
Y458500D01*
X176811Y470500D02*
X305118D01*
D25*
X178200Y462700D02*
Y464300D01*
X179800D01*
Y462700D01*
X178200D01*
X287700Y433438D02*
Y435038D01*
X289300D01*
Y433438D01*
X287700D01*
X278367Y452200D02*
Y453800D01*
X279967D01*
Y452200D01*
X278367D01*
X287700D02*
Y453800D01*
X289300D01*
Y452200D01*
X287700D01*
X193200Y432700D02*
Y434300D01*
X194800D01*
Y432700D01*
X193200D01*
X293700Y462200D02*
Y463800D01*
X295300D01*
Y462200D01*
X293700D01*
X265700Y433200D02*
Y434800D01*
X267300D01*
Y433200D01*
X265700D01*
X215700Y411700D02*
Y413300D01*
X217300D01*
Y411700D01*
X215700D01*
Y403700D02*
Y405300D01*
X217300D01*
Y403700D01*
X215700D01*
X196200Y406700D02*
Y408300D01*
X197800D01*
Y406700D01*
X196200D01*
Y414700D02*
Y416300D01*
X197800D01*
Y414700D01*
X196200D01*
X287700Y417200D02*
Y418800D01*
X289300D01*
Y417200D01*
X287700D01*
Y409108D02*
Y410709D01*
X289300D01*
Y409108D01*
X287700D01*
X265700Y398633D02*
Y400233D01*
X267300D01*
Y398633D01*
X265700D01*
X287700D02*
Y400233D01*
X289300D01*
Y398633D01*
X287700D01*
X265700Y412188D02*
Y413789D01*
X267300D01*
Y412188D01*
X265700D01*
Y424200D02*
Y425800D01*
X267300D01*
Y424200D01*
X265700D01*
X238200Y452200D02*
Y453800D01*
X239800D01*
Y452200D01*
X238200D01*
X233700Y433200D02*
Y434800D01*
X235300D01*
Y433200D01*
X233700D01*
X246638D02*
Y434800D01*
X248238D01*
Y433200D01*
X246638D01*
X251700Y452200D02*
Y453800D01*
X253300D01*
Y452200D01*
X251700D01*
X196200Y425200D02*
Y426800D01*
X197800D01*
Y425200D01*
X196200D01*
X215700Y424700D02*
Y426300D01*
X217300D01*
Y424700D01*
X215700D01*
X265700Y452200D02*
Y453800D01*
X267300D01*
Y452200D01*
X265700D01*
X256200Y433200D02*
Y434800D01*
X257800D01*
Y433200D01*
X256200D01*
X287700Y425700D02*
Y427300D01*
X289300D01*
Y425700D01*
X287700D01*
X192700Y454700D02*
Y456300D01*
X194300D01*
Y454700D01*
X192700D01*
X215700Y431700D02*
Y433300D01*
X217300D01*
Y431700D01*
X215700D01*
X223200Y433200D02*
Y434800D01*
X224800D01*
Y433200D01*
X223200D01*
X225743Y452200D02*
Y453800D01*
X227343D01*
Y452200D01*
X225743D01*
X216355D02*
Y453800D01*
X217955D01*
Y452200D01*
X216355D01*
X207700D02*
Y453800D01*
X209300D01*
Y452200D01*
X207700D01*
X200200D02*
Y453800D01*
X201800D01*
Y452200D01*
X200200D01*
X276700Y387200D02*
Y388800D01*
X278300D01*
Y387200D01*
X276700D01*
X205700Y386700D02*
Y388300D01*
X207300D01*
Y386700D01*
X205700D01*
M02*
