G04*
G04 #@! TF.GenerationSoftware,Altium Limited,Altium Designer,20.0.10 (225)*
G04*
G04 Layer_Physical_Order=2*
G04 Layer_Color=16711680*
%FSLAX25Y25*%
%MOIN*%
G70*
G01*
G75*
%ADD12C,0.01000*%
%ADD16R,0.19685X0.06299*%
%ADD22C,0.05000*%
G36*
X307427Y470298D02*
X308923Y469897D01*
X310353Y469305D01*
X311694Y468531D01*
X312922Y467588D01*
X314017Y466493D01*
X314960Y465265D01*
X315734Y463924D01*
X316326Y462494D01*
X316727Y460998D01*
X316929Y459463D01*
Y458689D01*
Y393701D01*
Y392927D01*
X316727Y391392D01*
X316326Y389896D01*
X315734Y388466D01*
X314960Y387125D01*
X314017Y385896D01*
X312922Y384802D01*
X311694Y383859D01*
X310353Y383085D01*
X308923Y382493D01*
X307427Y382092D01*
X305892Y381890D01*
X305118D01*
Y381890D01*
X176811D01*
Y381890D01*
X176037D01*
X174502Y382092D01*
X173006Y382493D01*
X171576Y383085D01*
X170235Y383859D01*
X169007Y384802D01*
X167912Y385896D01*
X166970Y387125D01*
X166195Y388466D01*
X165603Y389896D01*
X165202Y391392D01*
X165000Y392927D01*
Y393701D01*
X165000D01*
Y458689D01*
Y459463D01*
X165202Y460998D01*
X165603Y462494D01*
X166195Y463924D01*
X166969Y465265D01*
X167912Y466493D01*
X169007Y467588D01*
X170235Y468531D01*
X171576Y469305D01*
X173006Y469897D01*
X174502Y470298D01*
X176037Y470500D01*
X176811D01*
Y470500D01*
X305118D01*
X305892Y470500D01*
X307427Y470298D01*
D02*
G37*
%LPC*%
G36*
X189032Y459191D02*
X178689D01*
Y455542D01*
X189032D01*
Y459191D01*
D02*
G37*
G36*
X177689D02*
X167347D01*
Y455542D01*
X177689D01*
Y459191D01*
D02*
G37*
G36*
X314937D02*
X304594D01*
Y455542D01*
X314937D01*
Y459191D01*
D02*
G37*
G36*
X303594D02*
X293252D01*
Y455542D01*
X303594D01*
Y459191D01*
D02*
G37*
G36*
X314937Y454542D02*
X304594D01*
Y450892D01*
X314937D01*
Y454542D01*
D02*
G37*
G36*
X303594D02*
X293252D01*
Y450892D01*
X303594D01*
Y454542D01*
D02*
G37*
G36*
X189032Y454542D02*
X178689D01*
Y450892D01*
X189032D01*
Y454542D01*
D02*
G37*
G36*
X177689D02*
X167347D01*
Y450892D01*
X177689D01*
Y454542D01*
D02*
G37*
G36*
X289000Y437703D02*
Y434738D01*
X291964D01*
X291910Y435152D01*
X291557Y436003D01*
X290996Y436734D01*
X290265Y437295D01*
X289414Y437648D01*
X289000Y437703D01*
D02*
G37*
G36*
X288000D02*
X287586Y437648D01*
X286735Y437295D01*
X286004Y436734D01*
X285443Y436003D01*
X285090Y435152D01*
X285036Y434738D01*
X288000D01*
Y437703D01*
D02*
G37*
G36*
X189032Y437380D02*
X178689D01*
Y433731D01*
X189032D01*
Y437380D01*
D02*
G37*
G36*
X177689D02*
X167347D01*
Y433731D01*
X177689D01*
Y437380D01*
D02*
G37*
G36*
X314937D02*
X304594D01*
Y433731D01*
X314937D01*
Y437380D01*
D02*
G37*
G36*
X303594D02*
X293252D01*
Y433731D01*
X303594D01*
Y437380D01*
D02*
G37*
G36*
X291964Y433738D02*
X289000D01*
Y430774D01*
X289414Y430828D01*
X290265Y431181D01*
X290996Y431742D01*
X291557Y432473D01*
X291910Y433324D01*
X291964Y433738D01*
D02*
G37*
G36*
X288000D02*
X285036D01*
X285090Y433324D01*
X285443Y432473D01*
X286004Y431742D01*
X286735Y431181D01*
X287586Y430828D01*
X288000Y430774D01*
Y433738D01*
D02*
G37*
G36*
X314937Y432731D02*
X304594D01*
Y429081D01*
X314937D01*
Y432731D01*
D02*
G37*
G36*
X303594D02*
X293252D01*
Y429081D01*
X303594D01*
Y432731D01*
D02*
G37*
G36*
X189032Y432731D02*
X178689D01*
Y429081D01*
X189032D01*
Y432731D01*
D02*
G37*
G36*
X177689D02*
X167347D01*
Y429081D01*
X177689D01*
Y432731D01*
D02*
G37*
%LPD*%
D12*
X305118Y381890D02*
G03*
X316929Y393701I0J11811D01*
G01*
X165000D02*
G03*
X176811Y381890I11811J0D01*
G01*
X316929Y458689D02*
G03*
X305118Y470500I-11811J0D01*
G01*
X176811D02*
G03*
X165000Y458689I0J-11811D01*
G01*
X316929Y393701D02*
Y458689D01*
X176811Y381890D02*
X305118D01*
X165000Y393701D02*
Y458500D01*
X176811Y470500D02*
X305118D01*
D16*
X304095Y455042D02*
D03*
Y433231D02*
D03*
X178189D02*
D03*
Y455042D02*
D03*
D22*
X179000Y463500D02*
D03*
X288500Y434238D02*
D03*
X279167Y453000D02*
D03*
X288500D02*
D03*
X194000Y433500D02*
D03*
X294500Y463000D02*
D03*
X266500Y434000D02*
D03*
X216500Y412500D02*
D03*
Y404500D02*
D03*
X197000Y407500D02*
D03*
Y415500D02*
D03*
X288500Y418000D02*
D03*
Y409908D02*
D03*
X266500Y399433D02*
D03*
X288500D02*
D03*
X266500Y412989D02*
D03*
Y425000D02*
D03*
X239000Y453000D02*
D03*
X234500Y434000D02*
D03*
X247439D02*
D03*
X252500Y453000D02*
D03*
X197000Y426000D02*
D03*
X216500Y425500D02*
D03*
X266500Y453000D02*
D03*
X257000Y434000D02*
D03*
X288500Y426500D02*
D03*
X193500Y455500D02*
D03*
X216500Y432500D02*
D03*
X224000Y434000D02*
D03*
X226542Y453000D02*
D03*
X217155D02*
D03*
X208500D02*
D03*
X201000D02*
D03*
X277500Y388000D02*
D03*
X206500Y387500D02*
D03*
M02*
