G04*
G04 #@! TF.GenerationSoftware,Altium Limited,Altium Designer,20.0.10 (225)*
G04*
G04 Layer_Color=32896*
%FSLAX25Y25*%
%MOIN*%
G70*
G01*
G75*
%ADD12C,0.01000*%
G36*
X260000Y391000D02*
X214889D01*
Y400091D01*
X260000D01*
Y391000D01*
D02*
G37*
%LPC*%
G36*
X232655Y398123D02*
X229353Y398123D01*
X231008Y398123D01*
X230927Y398115D01*
X230833Y398101D01*
X230716Y398079D01*
X230585Y398042D01*
X230453Y397999D01*
X230322Y397940D01*
X230315D01*
X230308Y397933D01*
X230264Y397911D01*
X230198Y397867D01*
X230125Y397816D01*
X230038Y397743D01*
X229950Y397663D01*
X229863Y397568D01*
X229790Y397459D01*
X229783Y397445D01*
X229761Y397408D01*
X229732Y397342D01*
X229695Y397262D01*
X229659Y397167D01*
X229630Y397058D01*
X229608Y396934D01*
X229601Y396810D01*
Y396796D01*
Y396752D01*
X229608Y396694D01*
X229622Y396614D01*
X229644Y396519D01*
X229681Y396417D01*
X229724Y396315D01*
X229783Y396213D01*
X229790Y396198D01*
X229812Y396169D01*
X229856Y396118D01*
X229914Y396059D01*
X229987Y395994D01*
X230074Y395921D01*
X230176Y395855D01*
X230300Y395790D01*
X230293D01*
X230278Y395782D01*
X230257Y395775D01*
X230227Y395768D01*
X230147Y395739D01*
X230045Y395695D01*
X229928Y395637D01*
X229812Y395564D01*
X229703Y395469D01*
X229601Y395360D01*
X229593Y395345D01*
X229564Y395301D01*
X229520Y395228D01*
X229477Y395134D01*
X229433Y395017D01*
X229389Y394879D01*
X229360Y394718D01*
X229353Y394543D01*
Y394478D01*
X229360Y394434D01*
X229367Y394375D01*
X229382Y394310D01*
X229396Y394237D01*
X229411Y394157D01*
X229469Y393982D01*
X229513Y393887D01*
X229557Y393800D01*
X229615Y393705D01*
X229681Y393610D01*
X229754Y393515D01*
X229841Y393428D01*
X229848Y393421D01*
X229863Y393406D01*
X229892Y393384D01*
X229928Y393355D01*
X229972Y393318D01*
X230031Y393282D01*
X230096Y393238D01*
X230176Y393202D01*
X230257Y393158D01*
X230351Y393114D01*
X230446Y393078D01*
X230556Y393041D01*
X230672Y393012D01*
X230796Y392990D01*
X230920Y392976D01*
X231059Y392969D01*
X232655D01*
X231124D01*
X231168Y392976D01*
X231226Y392983D01*
X231292Y392990D01*
X231365Y393005D01*
X231445Y393020D01*
X231620Y393063D01*
X231802Y393136D01*
X231897Y393180D01*
X231984Y393231D01*
X232072Y393297D01*
X232159Y393362D01*
X232167Y393370D01*
X232181Y393384D01*
X232203Y393406D01*
X232225Y393435D01*
X232261Y393472D01*
X232298Y393523D01*
X232342Y393574D01*
X232385Y393639D01*
X232429Y393712D01*
X232473Y393785D01*
X232553Y393960D01*
X232619Y394164D01*
X232640Y394273D01*
X232655Y394390D01*
X232035Y394470D01*
Y394463D01*
X232028Y394448D01*
X232021Y394419D01*
X232014Y394383D01*
X232006Y394339D01*
X231992Y394288D01*
X231955Y394179D01*
X231904Y394047D01*
X231838Y393923D01*
X231766Y393807D01*
X231678Y393705D01*
X231664Y393698D01*
X231634Y393668D01*
X231576Y393632D01*
X231503Y393595D01*
X231416Y393552D01*
X231306Y393515D01*
X231182Y393486D01*
X231051Y393479D01*
X231008D01*
X230978Y393486D01*
X230898Y393493D01*
X230796Y393515D01*
X230679Y393552D01*
X230556Y393603D01*
X230432Y393676D01*
X230315Y393778D01*
X230300Y393792D01*
X230264Y393836D01*
X230220Y393902D01*
X230162Y393989D01*
X230103Y394098D01*
X230060Y394222D01*
X230023Y394368D01*
X230009Y394529D01*
Y394536D01*
Y394550D01*
Y394572D01*
X230016Y394601D01*
X230023Y394682D01*
X230045Y394776D01*
X230074Y394893D01*
X230125Y395010D01*
X230198Y395126D01*
X230293Y395236D01*
X230308Y395250D01*
X230344Y395279D01*
X230402Y395323D01*
X230483Y395374D01*
X230585Y395425D01*
X230709Y395469D01*
X230847Y395498D01*
X231000Y395513D01*
X231066D01*
X231117Y395505D01*
X231182Y395498D01*
X231255Y395484D01*
X231343Y395469D01*
X231438Y395447D01*
X231365Y395994D01*
X231328D01*
X231299Y395987D01*
X231204D01*
X231124Y396001D01*
X231029Y396016D01*
X230920Y396038D01*
X230796Y396074D01*
X230679Y396125D01*
X230556Y396191D01*
X230548D01*
X230541Y396198D01*
X230504Y396227D01*
X230453Y396278D01*
X230395Y396344D01*
X230337Y396439D01*
X230286Y396548D01*
X230249Y396672D01*
X230235Y396745D01*
Y396825D01*
Y396832D01*
Y396839D01*
Y396883D01*
X230249Y396942D01*
X230264Y397022D01*
X230293Y397109D01*
X230329Y397204D01*
X230388Y397299D01*
X230468Y397386D01*
X230475Y397393D01*
X230512Y397423D01*
X230563Y397459D01*
X230628Y397503D01*
X230716Y397539D01*
X230818Y397576D01*
X230935Y397605D01*
X231066Y397612D01*
X231124D01*
X231190Y397598D01*
X231277Y397583D01*
X231372Y397554D01*
X231467Y397517D01*
X231569Y397459D01*
X231664Y397386D01*
X231671Y397379D01*
X231700Y397342D01*
X231744Y397291D01*
X231795Y397219D01*
X231846Y397124D01*
X231897Y397007D01*
X231941Y396869D01*
X231970Y396708D01*
X232589Y396818D01*
Y396825D01*
X232582Y396847D01*
X232575Y396876D01*
X232568Y396920D01*
X232553Y396971D01*
X232531Y397029D01*
X232487Y397167D01*
X232414Y397328D01*
X232327Y397488D01*
X232218Y397641D01*
X232079Y397780D01*
X232072Y397787D01*
X232057Y397795D01*
X232035Y397809D01*
X232006Y397831D01*
X231970Y397860D01*
X231919Y397889D01*
X231868Y397918D01*
X231802Y397955D01*
X231656Y398013D01*
X231489Y398072D01*
X231292Y398108D01*
X231190Y398123D01*
X232655D01*
D02*
G37*
G36*
X228740Y398123D02*
X225445D01*
D01*
X227027D01*
X226947Y398115D01*
X226852Y398101D01*
X226743Y398079D01*
X226626Y398050D01*
X226502Y398013D01*
X226386Y397955D01*
X226378D01*
X226371Y397948D01*
X226335Y397926D01*
X226276Y397889D01*
X226203Y397838D01*
X226123Y397765D01*
X226036Y397685D01*
X225956Y397590D01*
X225875Y397481D01*
X225868Y397466D01*
X225839Y397430D01*
X225810Y397364D01*
X225759Y397270D01*
X225715Y397160D01*
X225657Y397036D01*
X225606Y396890D01*
X225562Y396730D01*
Y396723D01*
X225555Y396708D01*
X225547Y396686D01*
X225540Y396650D01*
X225533Y396606D01*
X225525Y396555D01*
X225511Y396490D01*
X225503Y396417D01*
X225489Y396337D01*
X225482Y396249D01*
X225474Y396147D01*
X225460Y396045D01*
X225452Y395928D01*
Y395812D01*
X225445Y395680D01*
Y395768D01*
Y392969D01*
Y395396D01*
X225452Y395316D01*
Y395228D01*
X225460Y395134D01*
X225467Y395032D01*
X225489Y394798D01*
X225525Y394558D01*
X225569Y394324D01*
X225598Y394215D01*
X225635Y394106D01*
Y394098D01*
X225642Y394084D01*
X225657Y394055D01*
X225671Y394018D01*
X225686Y393967D01*
X225715Y393916D01*
X225773Y393792D01*
X225846Y393661D01*
X225941Y393515D01*
X226050Y393384D01*
X226182Y393260D01*
X226189D01*
X226196Y393246D01*
X226218Y393231D01*
X226247Y393216D01*
X226284Y393195D01*
X226320Y393165D01*
X226429Y393114D01*
X226561Y393063D01*
X226714Y393012D01*
X226896Y392983D01*
X227093Y392969D01*
X227166D01*
X227217Y392976D01*
X227275Y392983D01*
X227348Y392998D01*
X227428Y393012D01*
X227516Y393034D01*
X227603Y393063D01*
X227698Y393092D01*
X227793Y393136D01*
X227887Y393187D01*
X227982Y393246D01*
X228077Y393318D01*
X228164Y393399D01*
X228245Y393486D01*
X228252Y393493D01*
X228266Y393515D01*
X228288Y393552D01*
X228325Y393610D01*
X228361Y393676D01*
X228398Y393763D01*
X228449Y393865D01*
X228492Y393982D01*
X228536Y394113D01*
X228580Y394266D01*
X228624Y394434D01*
X228660Y394623D01*
X228696Y394827D01*
X228718Y395046D01*
X228733Y395287D01*
X228740Y395542D01*
Y393574D01*
Y395695D01*
Y395688D01*
X228733Y395768D01*
Y395855D01*
X228726Y395950D01*
X228718Y396059D01*
X228696Y396285D01*
X228660Y396526D01*
X228616Y396767D01*
X228587Y396876D01*
X228558Y396985D01*
Y396993D01*
X228551Y397007D01*
X228536Y397036D01*
X228522Y397073D01*
X228507Y397124D01*
X228478Y397175D01*
X228419Y397299D01*
X228347Y397430D01*
X228252Y397568D01*
X228142Y397707D01*
X228011Y397824D01*
X228004D01*
X227997Y397838D01*
X227975Y397853D01*
X227946Y397867D01*
X227909Y397897D01*
X227866Y397918D01*
X227756Y397977D01*
X227625Y398028D01*
X227472Y398079D01*
X227290Y398108D01*
X227093Y398123D01*
X228740D01*
D01*
D02*
G37*
G36*
X239464Y398101D02*
X238779D01*
X236132Y394135D01*
Y398101D01*
X238505D01*
X235491D01*
Y393056D01*
X236183D01*
X238822Y397014D01*
Y393056D01*
X239464D01*
Y398101D01*
D02*
G37*
G36*
X258032D02*
X255378D01*
X253315Y393056D01*
X255686D01*
X254073D01*
X254663Y394587D01*
X256778D01*
X257324Y393056D01*
X258032D01*
X256107Y398101D01*
X258032D01*
D02*
G37*
G36*
X253154D02*
X249160D01*
Y397503D01*
X250822D01*
Y393056D01*
X253154D01*
Y398101D01*
D02*
G37*
G36*
X248846D02*
X244851D01*
Y397503D01*
X246513D01*
Y393056D01*
X244851D01*
X248846D01*
Y398101D01*
D02*
G37*
G36*
X244151D02*
X240499D01*
Y397503D01*
X243481D01*
Y395965D01*
X240689D01*
Y395367D01*
X243481D01*
Y393654D01*
X240382D01*
Y393056D01*
X244151D01*
Y398101D01*
D02*
G37*
G36*
X220670Y398101D02*
X216858D01*
D01*
X218687D01*
X218636Y398093D01*
X218578D01*
X218447Y398079D01*
X218301Y398064D01*
X218148Y398035D01*
X217995Y397999D01*
X217856Y397948D01*
X217849D01*
X217842Y397940D01*
X217798Y397918D01*
X217732Y397882D01*
X217659Y397831D01*
X217572Y397765D01*
X217477Y397685D01*
X217390Y397583D01*
X217310Y397474D01*
X217302Y397459D01*
X217280Y397415D01*
X217244Y397357D01*
X217208Y397270D01*
X217171Y397167D01*
X217135Y397058D01*
X217113Y396934D01*
X217105Y396810D01*
Y396796D01*
Y396759D01*
X217113Y396694D01*
X217127Y396614D01*
X217149Y396519D01*
X217186Y396417D01*
X217229Y396315D01*
X217288Y396205D01*
X217295Y396191D01*
X217317Y396162D01*
X217361Y396103D01*
X217419Y396045D01*
X217492Y395972D01*
X217579Y395892D01*
X217689Y395819D01*
X217813Y395746D01*
X217805D01*
X217791Y395739D01*
X217769Y395731D01*
X217740Y395717D01*
X217652Y395688D01*
X217550Y395637D01*
X217441Y395571D01*
X217317Y395491D01*
X217208Y395396D01*
X217105Y395279D01*
X217098Y395265D01*
X217069Y395221D01*
X217025Y395156D01*
X216982Y395068D01*
X216938Y394951D01*
X216894Y394827D01*
X216865Y394682D01*
X216858Y394521D01*
Y394463D01*
X216865Y394390D01*
X216879Y394303D01*
X216894Y394200D01*
X216923Y394091D01*
X216960Y393974D01*
X217011Y393858D01*
X217018Y393843D01*
X217040Y393807D01*
X217069Y393756D01*
X217113Y393683D01*
X217171Y393610D01*
X217229Y393530D01*
X217302Y393450D01*
X217383Y393384D01*
X217390Y393377D01*
X217419Y393355D01*
X217470Y393326D01*
X217536Y393297D01*
X217616Y393253D01*
X217710Y393209D01*
X217813Y393173D01*
X217936Y393136D01*
X217951D01*
X217995Y393122D01*
X218068Y393114D01*
X218162Y393100D01*
X218279Y393085D01*
X218418Y393071D01*
X218571Y393063D01*
X218746Y393056D01*
X218329D01*
X220670D01*
Y398101D01*
D02*
G37*
G36*
X222325D02*
X221705D01*
Y393056D01*
X222281D01*
Y393515D01*
X222289Y393508D01*
X222296Y393493D01*
X222318Y393464D01*
X222347Y393428D01*
X222383Y393391D01*
X222427Y393348D01*
X222478Y393297D01*
X222544Y393246D01*
X222609Y393195D01*
X222682Y393143D01*
X222770Y393100D01*
X222865Y393063D01*
X222959Y393027D01*
X223069Y392998D01*
X223185Y392983D01*
X223309Y392976D01*
X224877D01*
X223353D01*
X223382Y392983D01*
X223470Y392990D01*
X223572Y393005D01*
X223696Y393034D01*
X223834Y393078D01*
X223973Y393136D01*
X224111Y393216D01*
X224118D01*
X224126Y393231D01*
X224169Y393260D01*
X224235Y393318D01*
X224315Y393391D01*
X224410Y393486D01*
X224505Y393603D01*
X224600Y393734D01*
X224680Y393887D01*
Y393894D01*
X224687Y393909D01*
X224694Y393931D01*
X224709Y393960D01*
X224724Y394004D01*
X224745Y394055D01*
X224760Y394106D01*
X224775Y394171D01*
X224811Y394317D01*
X224847Y394485D01*
X224869Y394674D01*
X224877Y394879D01*
Y394973D01*
X224869Y395017D01*
Y395075D01*
X224855Y395206D01*
X224833Y395360D01*
X224796Y395527D01*
X224753Y395702D01*
X224694Y395870D01*
Y395877D01*
X224687Y395892D01*
X224673Y395914D01*
X224658Y395943D01*
X224614Y396023D01*
X224556Y396125D01*
X224483Y396234D01*
X224388Y396344D01*
X224279Y396460D01*
X224148Y396555D01*
X224140D01*
X224133Y396563D01*
X224111Y396577D01*
X224082Y396592D01*
X224009Y396628D01*
X223907Y396679D01*
X223790Y396723D01*
X223652Y396759D01*
X223499Y396789D01*
X223338Y396796D01*
X223280D01*
X223222Y396789D01*
X223142Y396781D01*
X223047Y396759D01*
X222945Y396737D01*
X222843Y396701D01*
X222748Y396650D01*
X222733Y396643D01*
X222704Y396628D01*
X222660Y396592D01*
X222602Y396555D01*
X222529Y396504D01*
X222464Y396439D01*
X222391Y396373D01*
X222325Y396293D01*
Y398101D01*
D02*
G37*
%LPD*%
G36*
X227173Y397605D02*
X227253Y397590D01*
X227348Y397568D01*
X227457Y397525D01*
X227574Y397459D01*
X227632Y397415D01*
X227691Y397372D01*
X227742Y397313D01*
X227793Y397248D01*
Y397240D01*
X227807Y397226D01*
X227822Y397197D01*
X227844Y397160D01*
X227866Y397102D01*
X227895Y397036D01*
X227917Y396956D01*
X227946Y396861D01*
X227975Y396752D01*
X228004Y396628D01*
X228033Y396490D01*
X228055Y396337D01*
X228077Y396162D01*
X228092Y395972D01*
X228099Y395768D01*
X228106Y395542D01*
Y395527D01*
Y395491D01*
Y395425D01*
X228099Y395338D01*
Y395243D01*
X228092Y395126D01*
X228084Y395002D01*
X228070Y394871D01*
X228033Y394587D01*
X228011Y394448D01*
X227982Y394317D01*
X227953Y394193D01*
X227909Y394077D01*
X227866Y393974D01*
X227814Y393887D01*
Y393880D01*
X227800Y393872D01*
X227763Y393821D01*
X227698Y393756D01*
X227618Y393683D01*
X227508Y393610D01*
X227384Y393544D01*
X227246Y393493D01*
X227173Y393486D01*
X227093Y393479D01*
X227049D01*
X227020Y393486D01*
X226947Y393501D01*
X226845Y393530D01*
X226735Y393581D01*
X226612Y393654D01*
X226553Y393698D01*
X226495Y393756D01*
X226437Y393814D01*
X226378Y393887D01*
Y393894D01*
X226364Y393909D01*
X226349Y393931D01*
X226335Y393967D01*
X226305Y394018D01*
X226284Y394084D01*
X226254Y394157D01*
X226225Y394244D01*
X226203Y394354D01*
X226174Y394470D01*
X226145Y394609D01*
X226123Y394755D01*
X226109Y394930D01*
X226094Y395112D01*
X226079Y395316D01*
Y395542D01*
Y395549D01*
Y395556D01*
Y395593D01*
Y395658D01*
X226087Y395746D01*
Y395841D01*
X226094Y395957D01*
X226101Y396081D01*
X226116Y396220D01*
X226152Y396497D01*
X226174Y396635D01*
X226203Y396767D01*
X226233Y396890D01*
X226276Y397007D01*
X226320Y397109D01*
X226371Y397197D01*
Y397204D01*
X226386Y397211D01*
X226400Y397233D01*
X226422Y397262D01*
X226488Y397328D01*
X226568Y397408D01*
X226677Y397481D01*
X226801Y397547D01*
X226867Y397576D01*
X226940Y397598D01*
X227020Y397605D01*
X227100Y397612D01*
X227144D01*
X227173Y397605D01*
D02*
G37*
G36*
X255757Y397568D02*
X255764Y397554D01*
Y397525D01*
X255779Y397496D01*
X255786Y397445D01*
X255801Y397393D01*
X255830Y397270D01*
X255866Y397124D01*
X255917Y396963D01*
X255968Y396789D01*
X256034Y396606D01*
X256581Y395134D01*
X254875D01*
X255400Y396519D01*
Y396526D01*
X255407Y396548D01*
X255422Y396584D01*
X255436Y396628D01*
X255458Y396679D01*
X255480Y396745D01*
X255502Y396818D01*
X255531Y396890D01*
X255589Y397058D01*
X255648Y397233D01*
X255706Y397408D01*
X255757Y397576D01*
Y397568D01*
D02*
G37*
G36*
X253154Y393056D02*
X251492D01*
Y397503D01*
X253154D01*
Y393056D01*
D02*
G37*
G36*
X248846D02*
X247184D01*
Y397503D01*
X248846D01*
Y393056D01*
D02*
G37*
G36*
X220000Y395987D02*
X218760D01*
X218666Y395994D01*
X218563Y396001D01*
X218461Y396008D01*
X218359Y396023D01*
X218279Y396038D01*
X218265Y396045D01*
X218235Y396052D01*
X218192Y396074D01*
X218133Y396103D01*
X218075Y396132D01*
X218009Y396176D01*
X217944Y396234D01*
X217893Y396293D01*
X217885Y396300D01*
X217871Y396322D01*
X217849Y396366D01*
X217827Y396417D01*
X217805Y396475D01*
X217783Y396548D01*
X217769Y396635D01*
X217761Y396730D01*
Y396745D01*
Y396774D01*
X217769Y396818D01*
X217776Y396876D01*
X217791Y396949D01*
X217813Y397022D01*
X217842Y397095D01*
X217885Y397167D01*
X217893Y397175D01*
X217907Y397197D01*
X217936Y397233D01*
X217973Y397270D01*
X218024Y397313D01*
X218082Y397357D01*
X218155Y397401D01*
X218235Y397430D01*
X218243D01*
X218279Y397445D01*
X218330Y397452D01*
X218410Y397466D01*
X218520Y397481D01*
X218644Y397488D01*
X218804Y397503D01*
X220000D01*
Y395987D01*
D02*
G37*
G36*
Y393654D02*
X218563D01*
X218410Y393661D01*
X218345Y393668D01*
X218286Y393676D01*
X218279D01*
X218250Y393683D01*
X218206Y393690D01*
X218155Y393705D01*
X218031Y393748D01*
X217907Y393807D01*
X217900Y393814D01*
X217878Y393829D01*
X217849Y393851D01*
X217813Y393880D01*
X217776Y393923D01*
X217725Y393967D01*
X217689Y394025D01*
X217645Y394091D01*
X217638Y394098D01*
X217630Y394120D01*
X217616Y394164D01*
X217594Y394215D01*
X217572Y394273D01*
X217557Y394346D01*
X217550Y394434D01*
X217543Y394521D01*
Y394536D01*
Y394565D01*
X217550Y394623D01*
X217565Y394689D01*
X217579Y394762D01*
X217608Y394842D01*
X217645Y394922D01*
X217696Y395002D01*
X217703Y395010D01*
X217725Y395039D01*
X217754Y395075D01*
X217798Y395119D01*
X217856Y395170D01*
X217929Y395221D01*
X218009Y395265D01*
X218104Y395301D01*
X218119Y395309D01*
X218148Y395316D01*
X218214Y395331D01*
X218294Y395345D01*
X218396Y395360D01*
X218520Y395374D01*
X218673Y395389D01*
X220000D01*
Y393654D01*
D02*
G37*
G36*
X223338Y396278D02*
X223419Y396271D01*
X223513Y396242D01*
X223623Y396205D01*
X223739Y396140D01*
X223856Y396059D01*
X223914Y396001D01*
X223965Y395943D01*
Y395936D01*
X223980Y395928D01*
X223987Y395906D01*
X224009Y395877D01*
X224031Y395841D01*
X224053Y395797D01*
X224075Y395746D01*
X224104Y395688D01*
X224133Y395615D01*
X224155Y395535D01*
X224177Y395447D01*
X224199Y395352D01*
X224213Y395250D01*
X224228Y395134D01*
X224242Y395010D01*
Y394879D01*
Y394871D01*
Y394849D01*
Y394813D01*
X224235Y394762D01*
Y394704D01*
X224228Y394638D01*
X224206Y394485D01*
X224169Y394317D01*
X224118Y394142D01*
X224045Y393974D01*
X224002Y393902D01*
X223951Y393829D01*
X223943D01*
X223936Y393814D01*
X223900Y393778D01*
X223834Y393719D01*
X223754Y393661D01*
X223652Y393595D01*
X223528Y393537D01*
X223397Y393501D01*
X223324Y393493D01*
X223251Y393486D01*
X223215D01*
X223185Y393493D01*
X223105Y393501D01*
X223010Y393530D01*
X222901Y393566D01*
X222784Y393625D01*
X222668Y393705D01*
X222609Y393756D01*
X222558Y393814D01*
Y393821D01*
X222544Y393829D01*
X222529Y393851D01*
X222515Y393880D01*
X222493Y393916D01*
X222464Y393953D01*
X222442Y394011D01*
X222413Y394069D01*
X222383Y394135D01*
X222361Y394208D01*
X222332Y394295D01*
X222310Y394383D01*
X222296Y394485D01*
X222281Y394587D01*
X222267Y394704D01*
Y394827D01*
Y394835D01*
Y394864D01*
Y394900D01*
X222274Y394951D01*
Y395010D01*
X222281Y395083D01*
X222289Y395163D01*
X222303Y395250D01*
X222340Y395425D01*
X222391Y395607D01*
X222464Y395782D01*
X222507Y395855D01*
X222558Y395928D01*
Y395936D01*
X222573Y395943D01*
X222609Y395987D01*
X222675Y396045D01*
X222755Y396111D01*
X222857Y396176D01*
X222981Y396227D01*
X223120Y396271D01*
X223193Y396278D01*
X223273Y396285D01*
X223309D01*
X223338Y396278D01*
D02*
G37*
D12*
X305118Y381890D02*
G03*
X316929Y393701I0J11811D01*
G01*
X165000D02*
G03*
X176811Y381890I11811J0D01*
G01*
X316929Y458689D02*
G03*
X305118Y470500I-11811J0D01*
G01*
X176811D02*
G03*
X165000Y458689I0J-11811D01*
G01*
X316929Y393701D02*
Y458689D01*
X176811Y381890D02*
X305118D01*
X165000Y393701D02*
Y458500D01*
X176811Y470500D02*
X305118D01*
M02*
