%TF.GenerationSoftware,Altium Limited,Altium Designer,20.0.10 (225)*%
G04 Layer_Physical_Order=2*
G04 Layer_Color=16711680*
%FSLAX26Y26*%
%MOIN*%
%TF.FileFunction,Copper,L2,Bot,Signal*%
%TF.Part,Single*%
G01*
G75*
%TA.AperFunction,SMDPad,CuDef*%
%ADD13R,0.196850X0.062992*%
%TA.AperFunction,ViaPad*%
%ADD16C,0.050000*%
G36*
X3074273Y4702979D02*
X3089228Y4698972D01*
X3103532Y4693047D01*
X3116940Y4685306D01*
X3129224Y4675880D01*
X3140171Y4664932D01*
X3149597Y4652649D01*
X3157338Y4639241D01*
X3163263Y4624936D01*
X3167270Y4609981D01*
X3169291Y4594631D01*
Y4586890D01*
Y3937008D01*
Y3929267D01*
X3167270Y3913916D01*
X3163263Y3898961D01*
X3157338Y3884657D01*
X3149597Y3871249D01*
X3140171Y3858965D01*
X3129224Y3848017D01*
X3116940Y3838592D01*
X3103532Y3830851D01*
X3089228Y3824926D01*
X3074273Y3820919D01*
X3058922Y3818898D01*
X3051181D01*
Y3818898D01*
X1768110D01*
Y3818898D01*
X1760369D01*
X1745019Y3820919D01*
X1730063Y3824926D01*
X1715759Y3830851D01*
X1702351Y3838592D01*
X1690068Y3848017D01*
X1679120Y3858965D01*
X1669695Y3871249D01*
X1661953Y3884657D01*
X1656028Y3898961D01*
X1652021Y3913916D01*
X1650000Y3929267D01*
Y3937008D01*
X1650000D01*
Y4586890D01*
Y4594631D01*
X1652021Y4609981D01*
X1656028Y4624936D01*
X1661953Y4639241D01*
X1669694Y4652649D01*
X1679120Y4664932D01*
X1690068Y4675880D01*
X1702351Y4685306D01*
X1715759Y4693047D01*
X1730063Y4698972D01*
X1745019Y4702979D01*
X1760369Y4705000D01*
X1768110D01*
Y4705000D01*
X3051181D01*
X3058922Y4705000D01*
X3074273Y4702979D01*
D02*
G37*
%LPC*%
G36*
X1890315Y4591913D02*
X1786890D01*
Y4555418D01*
X1890315D01*
Y4591913D01*
D02*
G37*
G36*
X1776890D02*
X1673465D01*
Y4555418D01*
X1776890D01*
Y4591913D01*
D02*
G37*
G36*
X3149370D02*
X3045945D01*
Y4555417D01*
X3149370D01*
Y4591913D01*
D02*
G37*
G36*
X3035945D02*
X2932520D01*
Y4555417D01*
X3035945D01*
Y4591913D01*
D02*
G37*
G36*
X3149370Y4545417D02*
X3045945D01*
Y4508921D01*
X3149370D01*
Y4545417D01*
D02*
G37*
G36*
X3035945D02*
X2932520D01*
Y4508921D01*
X3035945D01*
Y4545417D01*
D02*
G37*
G36*
X1890315Y4545418D02*
X1786890D01*
Y4508921D01*
X1890315D01*
Y4545418D01*
D02*
G37*
G36*
X1776890D02*
X1673465D01*
Y4508921D01*
X1776890D01*
Y4545418D01*
D02*
G37*
G36*
X2890000Y4377026D02*
Y4347382D01*
X2919644D01*
X2919099Y4351519D01*
X2915572Y4360033D01*
X2909962Y4367344D01*
X2902651Y4372954D01*
X2894137Y4376481D01*
X2890000Y4377026D01*
D02*
G37*
G36*
X2880000D02*
X2875863Y4376481D01*
X2867349Y4372954D01*
X2860038Y4367344D01*
X2854428Y4360033D01*
X2850901Y4351519D01*
X2850356Y4347382D01*
X2880000D01*
Y4377026D01*
D02*
G37*
G36*
X1890315Y4373803D02*
X1786890D01*
Y4337307D01*
X1890315D01*
Y4373803D01*
D02*
G37*
G36*
X1776890D02*
X1673465D01*
Y4337307D01*
X1776890D01*
Y4373803D01*
D02*
G37*
G36*
X3149370D02*
X3045945D01*
Y4337307D01*
X3149370D01*
Y4373803D01*
D02*
G37*
G36*
X3035945D02*
X2932520D01*
Y4337307D01*
X3035945D01*
Y4373803D01*
D02*
G37*
G36*
X2919644Y4337382D02*
X2890000D01*
Y4307738D01*
X2894137Y4308283D01*
X2902651Y4311810D01*
X2909962Y4317420D01*
X2915572Y4324731D01*
X2919099Y4333245D01*
X2919644Y4337382D01*
D02*
G37*
G36*
X2880000D02*
X2850356D01*
X2850901Y4333245D01*
X2854428Y4324731D01*
X2860038Y4317420D01*
X2867349Y4311810D01*
X2875863Y4308283D01*
X2880000Y4307738D01*
Y4337382D01*
D02*
G37*
G36*
X3149370Y4327307D02*
X3045945D01*
Y4290811D01*
X3149370D01*
Y4327307D01*
D02*
G37*
G36*
X3035945D02*
X2932520D01*
Y4290811D01*
X3035945D01*
Y4327307D01*
D02*
G37*
G36*
X1890315Y4327307D02*
X1786890D01*
Y4290811D01*
X1890315D01*
Y4327307D01*
D02*
G37*
G36*
X1776890D02*
X1673465D01*
Y4290811D01*
X1776890D01*
Y4327307D01*
D02*
G37*
%LPD*%
D13*
X3040945Y4550417D02*
D03*
Y4332307D02*
D03*
X1781890D02*
D03*
Y4550417D02*
D03*
D16*
X1790000Y4635000D02*
D03*
X2885000Y4342382D02*
D03*
X2791673Y4530000D02*
D03*
X2885000D02*
D03*
X1940000Y4335000D02*
D03*
X2945000Y4630000D02*
D03*
X2665000Y4340000D02*
D03*
X2165000Y4125000D02*
D03*
Y4045000D02*
D03*
X1970000Y4075000D02*
D03*
Y4155000D02*
D03*
X2885000Y4180000D02*
D03*
Y4099085D02*
D03*
X2665000Y3994327D02*
D03*
X2885000D02*
D03*
X2665000Y4129885D02*
D03*
Y4250000D02*
D03*
X2390000Y4530000D02*
D03*
X2345000Y4340000D02*
D03*
X2474385D02*
D03*
X2525000Y4530000D02*
D03*
X1970000Y4260000D02*
D03*
X2165000Y4255000D02*
D03*
X2665000Y4530000D02*
D03*
X2570000Y4340000D02*
D03*
X2885000Y4265000D02*
D03*
X1935000Y4555000D02*
D03*
X2165000Y4325000D02*
D03*
X2240000Y4340000D02*
D03*
X2265425Y4530000D02*
D03*
X2171548D02*
D03*
X2085000D02*
D03*
X2010000D02*
D03*
X2775000Y3880000D02*
D03*
X2065000Y3875000D02*
D03*
%TF.MD5,1705925e9f8d0884c5871fda8e19f02c*%
M02*
