%TF.GenerationSoftware,Altium Limited,Altium Designer,20.0.10 (225)*%
G04 Layer_Color=16711935*
%FSLAX26Y26*%
%MOIN*%
%TF.FileFunction,Other,Top_3D_Body*%
%TF.Part,Single*%
G01*
G75*
%TA.AperFunction,NonConductor*%
%ADD19C,0.007874*%
%ADD22C,0.003937*%
D19*
X3840177Y4820472D02*
X4144508D01*
X3867342D02*
Y5195276D01*
Y4820472D02*
X4117342D01*
Y5195276D01*
X3867342D02*
X4117342D01*
X3840177Y3376378D02*
X4144508D01*
X4117342Y3001575D02*
Y3376378D01*
X3867342D02*
X4117342D01*
X3867342Y3001575D02*
Y3376378D01*
Y3001575D02*
X4117342D01*
D22*
X4188626Y3753150D02*
X4322484D01*
X4188626Y3646850D02*
X4322484D01*
X4188626D02*
Y3753150D01*
X4322484Y3646850D02*
Y3753150D01*
X3986500D02*
X4120358D01*
X3986500Y3646850D02*
X4120358D01*
X3986500D02*
Y3753150D01*
X4120358Y3646850D02*
Y3753150D01*
X4048150Y3816968D02*
Y3950827D01*
X3941850Y3816968D02*
Y3950827D01*
X4048150D01*
X3941850Y3816968D02*
X4048150D01*
Y4025571D02*
Y4159429D01*
X3941850Y4025571D02*
Y4159429D01*
X4048150D01*
X3941850Y4025571D02*
X4048150D01*
Y4233071D02*
Y4366929D01*
X3941850Y4233071D02*
Y4366929D01*
X4048150D01*
X3941850Y4233071D02*
X4048150D01*
X4188626Y4533150D02*
X4322484D01*
X4188626Y4426850D02*
X4322484D01*
X4188626D02*
Y4533150D01*
X4322484Y4426850D02*
Y4533150D01*
X3986500D02*
X4120358D01*
X3986500Y4426850D02*
X4120358D01*
X3986500D02*
Y4533150D01*
X4120358Y4426850D02*
Y4533150D01*
%TF.MD5,a00d0c77486902117dcfb872f42a5625*%
M02*
