%TF.GenerationSoftware,Altium Limited,Altium Designer,20.0.10 (225)*%
G04 Layer_Physical_Order=1*
G04 Layer_Color=255*
%FSLAX26Y26*%
%MOIN*%
%TF.FileFunction,Copper,L1,Top,Signal*%
%TF.Part,Single*%
G01*
G75*
%TA.AperFunction,SMDPad,CuDef*%
%ADD10R,0.106299X0.049213*%
%ADD11R,0.049213X0.106299*%
%ADD12R,0.196850X0.047244*%
%ADD13R,0.196850X0.062992*%
%TA.AperFunction,Conductor*%
%ADD14C,0.059055*%
%ADD15C,0.105236*%
%TA.AperFunction,ViaPad*%
%ADD16C,0.050000*%
G36*
X3074273Y4702979D02*
X3089228Y4698972D01*
X3103532Y4693047D01*
X3116940Y4685306D01*
X3129224Y4675880D01*
X3140171Y4664932D01*
X3149597Y4652649D01*
X3157338Y4639241D01*
X3163263Y4624936D01*
X3167270Y4609981D01*
X3169291Y4594631D01*
Y4586890D01*
Y3937008D01*
Y3929267D01*
X3167270Y3913916D01*
X3163263Y3898961D01*
X3157338Y3884657D01*
X3149597Y3871249D01*
X3140171Y3858965D01*
X3129224Y3848017D01*
X3116940Y3838592D01*
X3103532Y3830851D01*
X3089228Y3824926D01*
X3074273Y3820919D01*
X3058922Y3818898D01*
X3051181D01*
Y3818898D01*
X1768110D01*
Y3818898D01*
X1760369D01*
X1745019Y3820919D01*
X1730063Y3824926D01*
X1715759Y3830851D01*
X1702351Y3838592D01*
X1690068Y3848017D01*
X1679120Y3858965D01*
X1669695Y3871249D01*
X1661953Y3884657D01*
X1656028Y3898961D01*
X1652021Y3913916D01*
X1650000Y3929267D01*
Y3937008D01*
X1650000D01*
Y4586890D01*
Y4594631D01*
X1652021Y4609981D01*
X1656028Y4624936D01*
X1661953Y4639241D01*
X1669694Y4652649D01*
X1679120Y4664932D01*
X1690068Y4675880D01*
X1702351Y4685306D01*
X1715759Y4693047D01*
X1730063Y4698972D01*
X1745019Y4702979D01*
X1760369Y4705000D01*
X1768110D01*
Y4705000D01*
X3051181D01*
X3058922Y4705000D01*
X3074273Y4702979D01*
D02*
G37*
%LPC*%
G36*
X1890315Y4591913D02*
X1786890D01*
Y4555418D01*
X1890315D01*
Y4591913D01*
D02*
G37*
G36*
X1776890D02*
X1673465D01*
Y4555418D01*
X1776890D01*
Y4591913D01*
D02*
G37*
G36*
X3149370D02*
X3045945D01*
Y4555417D01*
X3149370D01*
Y4591913D01*
D02*
G37*
G36*
X3035945D02*
X2932520D01*
Y4555417D01*
X3035945D01*
Y4591913D01*
D02*
G37*
G36*
X1890315Y4545418D02*
X1781890D01*
X1673465D01*
Y4508921D01*
X1756080D01*
X1756325Y4503921D01*
X1747725Y4503074D01*
X1735921Y4499494D01*
X1725043Y4493679D01*
X1715508Y4485854D01*
X1707683Y4476319D01*
X1706969Y4474984D01*
X1673465D01*
Y4407740D01*
X1706969D01*
X1707683Y4406405D01*
X1715508Y4396870D01*
X1725043Y4389045D01*
X1735921Y4383231D01*
X1747725Y4379650D01*
X1756325Y4378803D01*
X1756080Y4373803D01*
X1673465D01*
Y4337307D01*
X1781890D01*
X1890315D01*
Y4373441D01*
X1890315Y4373803D01*
X1891189Y4378441D01*
X1965557D01*
X1965921Y4378247D01*
X1977725Y4374666D01*
X1990000Y4373457D01*
X2133181D01*
X2137339Y4371235D01*
X2149142Y4367654D01*
X2161418Y4366445D01*
X2161419Y4366445D01*
X2188898D01*
X2192150Y4366766D01*
X2192756Y4366217D01*
Y4366217D01*
X2260146D01*
X2261098Y4365580D01*
X2265000Y4364804D01*
X2342706D01*
X2343366Y4364935D01*
X2344037Y4364891D01*
X2345000Y4365018D01*
X2345963Y4364891D01*
X2346634Y4364935D01*
X2347294Y4364804D01*
X2472091D01*
X2472751Y4364935D01*
X2473422Y4364891D01*
X2474385Y4365018D01*
X2475348Y4364891D01*
X2476019Y4364935D01*
X2476679Y4364804D01*
X2501811D01*
X2505713Y4365580D01*
X2506665Y4366217D01*
X2571024D01*
Y4366977D01*
X2637151D01*
X2649426Y4368186D01*
X2661229Y4371766D01*
X2664392Y4373457D01*
X2770000D01*
X2775398Y4373989D01*
X2799075D01*
X2811350Y4375198D01*
X2822043Y4378441D01*
X2867530D01*
X2868524Y4373441D01*
X2867349Y4372954D01*
X2860038Y4367344D01*
X2854428Y4360033D01*
X2850901Y4351519D01*
X2850356Y4347382D01*
X2919644D01*
X2919099Y4351519D01*
X2915572Y4360033D01*
X2909962Y4367344D01*
X2902651Y4372954D01*
X2901476Y4373441D01*
X2902470Y4378441D01*
X2931646D01*
X2932520Y4373803D01*
X2932520Y4373441D01*
Y4337307D01*
X3040945D01*
X3149370D01*
Y4373803D01*
X3044865D01*
X3044619Y4378803D01*
X3053220Y4379650D01*
X3065024Y4383231D01*
X3075902Y4389045D01*
X3085437Y4396870D01*
X3093262Y4406405D01*
X3093975Y4407740D01*
X3149370D01*
Y4474984D01*
X3093975D01*
X3093262Y4476319D01*
X3085437Y4485854D01*
X3075902Y4493679D01*
X3065024Y4499494D01*
X3053220Y4503074D01*
X3044619Y4503921D01*
X3044865Y4508921D01*
X3149370D01*
Y4545417D01*
X3040945D01*
X2932520D01*
Y4509283D01*
X2932520Y4508921D01*
X2931646Y4504283D01*
X2803529D01*
X2803528Y4504283D01*
X2791252Y4503074D01*
X2780559Y4499831D01*
X2770533D01*
X2770532Y4499831D01*
X2765134Y4499299D01*
X2643631D01*
X2631355Y4498090D01*
X2619552Y4494509D01*
X2616389Y4492819D01*
X2564898D01*
X2561820Y4492516D01*
X2501811D01*
Y4485196D01*
X2458819D01*
Y4492516D01*
X2389606D01*
Y4485196D01*
X2374173D01*
Y4492516D01*
X2304961D01*
Y4485196D01*
X2265000D01*
X2261968Y4487684D01*
Y4492516D01*
X2192756D01*
Y4492516D01*
X2192150Y4491967D01*
X2188898Y4492287D01*
X2182642D01*
X2178485Y4494509D01*
X2166681Y4498090D01*
X2154406Y4499299D01*
X2092652D01*
X2092287Y4499494D01*
X2080484Y4503074D01*
X2068209Y4504283D01*
X1891189D01*
X1890315Y4508921D01*
X1890315Y4509283D01*
Y4545418D01*
D02*
G37*
G36*
X2919644Y4337382D02*
X2890000D01*
Y4307738D01*
X2894137Y4308283D01*
X2902651Y4311810D01*
X2909962Y4317420D01*
X2915572Y4324731D01*
X2919099Y4333245D01*
X2919644Y4337382D01*
D02*
G37*
G36*
X2880000D02*
X2850356D01*
X2850901Y4333245D01*
X2854428Y4324731D01*
X2860038Y4317420D01*
X2867349Y4311810D01*
X2875863Y4308283D01*
X2880000Y4307738D01*
Y4337382D01*
D02*
G37*
G36*
X3149370Y4327307D02*
X3045945D01*
Y4290811D01*
X3149370D01*
Y4327307D01*
D02*
G37*
G36*
X3035945D02*
X2932520D01*
Y4290811D01*
X3035945D01*
Y4327307D01*
D02*
G37*
G36*
X1890315Y4327307D02*
X1786890D01*
Y4290811D01*
X1890315D01*
Y4327307D01*
D02*
G37*
G36*
X1776890D02*
X1673465D01*
Y4290811D01*
X1776890D01*
Y4327307D01*
D02*
G37*
G36*
X2770000Y4364042D02*
X2759681Y4362683D01*
X2750257Y4358780D01*
X2706850D01*
Y4289567D01*
X2706850Y4289567D01*
Y4285075D01*
X2706850D01*
X2706850Y4284567D01*
Y4215862D01*
X2750257D01*
X2759681Y4211958D01*
X2770000Y4210600D01*
X2780319Y4211958D01*
X2789743Y4215862D01*
X2833150D01*
Y4284567D01*
X2833150Y4285075D01*
X2833150D01*
Y4289567D01*
X2833150D01*
Y4358780D01*
X2789743D01*
X2780319Y4362683D01*
X2770000Y4364042D01*
D02*
G37*
G36*
X2068740D02*
X2058421Y4362683D01*
X2048997Y4358780D01*
X2005591D01*
Y4289567D01*
X2005590Y4289567D01*
Y4285075D01*
X2005591D01*
X2005591Y4284567D01*
Y4215862D01*
X2048997D01*
X2058421Y4211958D01*
X2068740Y4210600D01*
X2078344Y4211864D01*
X2079059Y4211958D01*
X2088483Y4215862D01*
X2131890D01*
Y4284567D01*
X2131890Y4285075D01*
X2131890D01*
Y4289567D01*
X2131890D01*
Y4358780D01*
X2088483D01*
X2079059Y4362683D01*
X2068740Y4364042D01*
D02*
G37*
G36*
X2770000Y4178132D02*
X2759681Y4176774D01*
X2750257Y4172870D01*
X2706850D01*
Y4162870D01*
Y4103658D01*
X2706850Y4103658D01*
Y4100075D01*
X2706850D01*
X2706850Y4098658D01*
Y4030862D01*
X2750257D01*
X2759681Y4026958D01*
X2770000Y4025600D01*
X2780319Y4026958D01*
X2789743Y4030862D01*
X2833150D01*
Y4098658D01*
X2833150Y4100075D01*
X2833150D01*
Y4103658D01*
X2833150D01*
Y4162870D01*
Y4172870D01*
X2789743D01*
X2780319Y4176774D01*
X2770000Y4178132D01*
D02*
G37*
G36*
X2068740D02*
X2058421Y4176774D01*
X2048997Y4172870D01*
X2005591D01*
Y4103658D01*
X2005590Y4103658D01*
Y4100075D01*
X2005591D01*
X2005591Y4098658D01*
Y4030862D01*
X2048997D01*
X2058421Y4026958D01*
X2068740Y4025600D01*
X2079059Y4026958D01*
X2088483Y4030862D01*
X2131890D01*
Y4098658D01*
X2131890Y4100075D01*
X2131890D01*
Y4103658D01*
X2131890D01*
Y4172870D01*
X2088483D01*
X2079059Y4176774D01*
X2068740Y4178132D01*
D02*
G37*
G36*
X2833150Y3987870D02*
X2775000D01*
Y3982503D01*
Y3958264D01*
X2833150D01*
Y3986031D01*
Y3987870D01*
D02*
G37*
G36*
X2131890D02*
X2073740D01*
Y3958264D01*
X2131890D01*
Y3987870D01*
D02*
G37*
G36*
X2765000D02*
X2706850D01*
Y3958264D01*
X2765000D01*
Y3987870D01*
D02*
G37*
G36*
X2063740D02*
X2005591D01*
Y3980371D01*
Y3958264D01*
X2063740D01*
Y3987870D01*
D02*
G37*
G36*
X2833150Y3948264D02*
X2775000D01*
Y3918657D01*
X2833150D01*
Y3948264D01*
D02*
G37*
G36*
X2765000D02*
X2706850D01*
Y3918657D01*
X2765000D01*
Y3948264D01*
D02*
G37*
G36*
X2131890D02*
X2073740D01*
Y3918657D01*
X2131890D01*
Y3948264D01*
D02*
G37*
G36*
X2063740D02*
X2005591D01*
Y3918657D01*
X2063740D01*
Y3948264D01*
D02*
G37*
%LPD*%
G36*
X2501811Y4375000D02*
X2476679D01*
X2474385Y4375302D01*
X2472091Y4375000D01*
X2347294D01*
X2345000Y4375302D01*
X2342706Y4375000D01*
X2265000D01*
Y4475000D01*
X2501811D01*
Y4375000D01*
D02*
G37*
G36*
X2799724Y4314822D02*
X2801226Y4299807D01*
X2819218D01*
X2815477Y4299314D01*
X2812130Y4297833D01*
X2809176Y4295367D01*
X2806616Y4291913D01*
X2804450Y4287472D01*
X2804416Y4287366D01*
X2804450Y4287259D01*
X2806616Y4282830D01*
X2809176Y4279385D01*
X2812130Y4276923D01*
X2815477Y4275447D01*
X2819218Y4274955D01*
X2801210D01*
X2800315Y4268230D01*
X2799724Y4259843D01*
X2799528Y4250468D01*
X2740472D01*
X2740276Y4259843D01*
X2738768Y4274955D01*
X2720782D01*
X2724523Y4275447D01*
X2727870Y4276923D01*
X2730824Y4279385D01*
X2733384Y4282830D01*
X2735550Y4287259D01*
X2735584Y4287366D01*
X2735550Y4287472D01*
X2733384Y4291913D01*
X2730824Y4295367D01*
X2727870Y4297833D01*
X2724523Y4299314D01*
X2720782Y4299807D01*
X2738798D01*
X2739685Y4306455D01*
X2740276Y4314822D01*
X2740472Y4324173D01*
X2799528D01*
X2799724Y4314822D01*
D02*
G37*
G36*
X2098465D02*
X2099966Y4299807D01*
X2117959D01*
X2114217Y4299314D01*
X2110870Y4297833D01*
X2107916Y4295367D01*
X2105356Y4291913D01*
X2103191Y4287472D01*
X2103156Y4287366D01*
X2103191Y4287259D01*
X2105356Y4282830D01*
X2107916Y4279385D01*
X2110870Y4276923D01*
X2114217Y4275447D01*
X2117959Y4274955D01*
X2099950D01*
X2099055Y4268230D01*
X2098465Y4259843D01*
X2098268Y4250468D01*
X2039213D01*
X2039016Y4259843D01*
X2037508Y4274955D01*
X2019522D01*
X2023263Y4275447D01*
X2026610Y4276923D01*
X2029564Y4279385D01*
X2032124Y4282830D01*
X2034290Y4287259D01*
X2034325Y4287366D01*
X2034290Y4287472D01*
X2032124Y4291913D01*
X2029564Y4295367D01*
X2026610Y4297833D01*
X2023263Y4299314D01*
X2019522Y4299807D01*
X2037539D01*
X2038425Y4306455D01*
X2039016Y4314822D01*
X2039213Y4324173D01*
X2098268D01*
X2098465Y4314822D01*
D02*
G37*
G36*
X2799715Y4129085D02*
X2801191Y4113898D01*
X2818309D01*
X2814740Y4113413D01*
X2811548Y4111960D01*
X2808731Y4109539D01*
X2806289Y4106149D01*
X2804280Y4101911D01*
X2806289Y4097684D01*
X2808731Y4094303D01*
X2811548Y4091887D01*
X2814740Y4090438D01*
X2818309Y4089955D01*
X2801190D01*
X2800279Y4082903D01*
X2799715Y4074670D01*
X2799528Y4065468D01*
X2740472D01*
X2740285Y4074670D01*
X2738803Y4089955D01*
X2721691D01*
X2725260Y4090438D01*
X2728452Y4091887D01*
X2731269Y4094303D01*
X2733711Y4097684D01*
X2735720Y4101911D01*
X2733711Y4106149D01*
X2731269Y4109539D01*
X2728452Y4111960D01*
X2725260Y4113413D01*
X2721691Y4113898D01*
X2738817D01*
X2739721Y4120873D01*
X2740285Y4129085D01*
X2740472Y4138264D01*
X2799528D01*
X2799715Y4129085D01*
D02*
G37*
G36*
X2098456D02*
X2099932Y4113898D01*
X2117049D01*
X2113481Y4113413D01*
X2110288Y4111960D01*
X2107471Y4109539D01*
X2105029Y4106149D01*
X2103021Y4101911D01*
X2105029Y4097684D01*
X2107471Y4094303D01*
X2110288Y4091887D01*
X2113481Y4090438D01*
X2117049Y4089955D01*
X2099931D01*
X2099019Y4082903D01*
X2098456Y4074670D01*
X2098268Y4065468D01*
X2039213D01*
X2039025Y4074670D01*
X2037543Y4089955D01*
X2020431D01*
X2024000Y4090438D01*
X2027193Y4091887D01*
X2030010Y4094303D01*
X2032451Y4097684D01*
X2034460Y4101911D01*
X2032451Y4106149D01*
X2030010Y4109539D01*
X2027193Y4111960D01*
X2024000Y4113413D01*
X2020431Y4113898D01*
X2037557D01*
X2038461Y4120873D01*
X2039025Y4129085D01*
X2039213Y4138264D01*
X2098268D01*
X2098456Y4129085D01*
D02*
G37*
D10*
X2770000Y4436378D02*
D03*
Y4324173D02*
D03*
Y4250468D02*
D03*
Y4138264D02*
D03*
Y4065468D02*
D03*
Y3953264D02*
D03*
X2068740Y4065468D02*
D03*
Y3953264D02*
D03*
Y4250468D02*
D03*
Y4138264D02*
D03*
Y4436378D02*
D03*
Y4324173D02*
D03*
D11*
X2536417Y4429366D02*
D03*
X2424213D02*
D03*
X2339567D02*
D03*
X2227362D02*
D03*
D12*
X3040945Y4441362D02*
D03*
X1781890D02*
D03*
D13*
X3040945Y4550417D02*
D03*
Y4332307D02*
D03*
X1781890D02*
D03*
Y4550417D02*
D03*
D14*
X2068740Y4250468D02*
Y4324173D01*
Y4065468D02*
Y4138264D01*
X2770000Y4065468D02*
Y4138264D01*
Y4250468D02*
Y4324173D01*
D15*
X2068740Y4436378D02*
X2154406D01*
X1990000D02*
X2068740D01*
X1781890Y4441362D02*
X2068209D01*
X1760000D02*
X1781890D01*
X2564898Y4429898D02*
X2637151D01*
X2770000Y4436378D02*
X2770532Y4436910D01*
X2799075D01*
X2803528Y4441362D01*
X3040945D01*
X2643631Y4436378D02*
X2770000D01*
X2637151Y4429898D02*
X2643631Y4436378D01*
X2154406D02*
X2161418Y4429366D01*
X2188898D01*
X2068209Y4441362D02*
X2068740Y4440831D01*
D16*
X1790000Y4635000D02*
D03*
X2885000Y4342382D02*
D03*
X2791673Y4530000D02*
D03*
X2885000D02*
D03*
X1940000Y4335000D02*
D03*
X2945000Y4630000D02*
D03*
X2665000Y4340000D02*
D03*
X2165000Y4125000D02*
D03*
Y4045000D02*
D03*
X1970000Y4075000D02*
D03*
Y4155000D02*
D03*
X2885000Y4180000D02*
D03*
Y4099085D02*
D03*
X2665000Y3994327D02*
D03*
X2885000D02*
D03*
X2665000Y4129885D02*
D03*
Y4250000D02*
D03*
X2390000Y4530000D02*
D03*
X2345000Y4340000D02*
D03*
X2474385D02*
D03*
X2525000Y4530000D02*
D03*
X1970000Y4260000D02*
D03*
X2165000Y4255000D02*
D03*
X2665000Y4530000D02*
D03*
X2570000Y4340000D02*
D03*
X2885000Y4265000D02*
D03*
X1935000Y4555000D02*
D03*
X2165000Y4325000D02*
D03*
X2240000Y4340000D02*
D03*
X2265425Y4530000D02*
D03*
X2171548D02*
D03*
X2085000D02*
D03*
X2010000D02*
D03*
X2775000Y3880000D02*
D03*
X2065000Y3875000D02*
D03*
%TF.MD5,cfa2eec621e9a35dce8ed7a55873512c*%
M02*
