%TF.GenerationSoftware,Altium Limited,Altium Designer,20.0.10 (225)*%
G04 Layer_Physical_Order=1*
G04 Layer_Color=255*
%FSLAX26Y26*%
%MOIN*%
%TF.FileFunction,Copper,L1,Top,Signal*%
%TF.Part,Single*%
G01*
G75*
%TA.AperFunction,SMDPad,CuDef*%
%ADD10R,0.047244X0.196850*%
%ADD11R,0.062992X0.196850*%
%ADD12R,0.049213X0.106299*%
%ADD13R,0.106299X0.049213*%
%TA.AperFunction,Conductor*%
%ADD14C,0.105236*%
%ADD15C,0.059055*%
%TA.AperFunction,ViaPad*%
%ADD16C,0.050000*%
G36*
X5264981Y4893255D02*
X5279936Y4889247D01*
X5294241Y4883323D01*
X5307649Y4875581D01*
X5319932Y4866156D01*
X5330880Y4855208D01*
X5340306Y4842925D01*
X5348047Y4829516D01*
X5353972Y4815212D01*
X5357979Y4800257D01*
X5360000Y4784907D01*
Y4777165D01*
X5360000D01*
X5360000Y3494095D01*
X5360000Y3486353D01*
X5357979Y3471003D01*
X5353972Y3456048D01*
X5348047Y3441744D01*
X5340306Y3428335D01*
X5330880Y3416052D01*
X5319932Y3405104D01*
X5307649Y3395679D01*
X5294241Y3387937D01*
X5279937Y3382012D01*
X5264981Y3378005D01*
X5249631Y3375984D01*
X4590369D01*
X4575019Y3378005D01*
X4560063Y3382012D01*
X4545759Y3387937D01*
X4532351Y3395679D01*
X4520068Y3405104D01*
X4509120Y3416052D01*
X4499694Y3428335D01*
X4491953Y3441744D01*
X4486028Y3456048D01*
X4482021Y3471003D01*
X4480000Y3486353D01*
Y3494095D01*
X4480000D01*
X4480000Y4777165D01*
X4480000Y4784907D01*
X4482021Y4800257D01*
X4486028Y4815212D01*
X4491953Y4829516D01*
X4499694Y4842925D01*
X4509120Y4855208D01*
X4520068Y4866156D01*
X4532351Y4875581D01*
X4545759Y4883323D01*
X4560063Y4889247D01*
X4575019Y4893255D01*
X4590369Y4895276D01*
X5249631D01*
X5264981Y4893255D01*
D02*
G37*
%LPC*%
G36*
X4886201Y4861968D02*
X4849705D01*
Y4758543D01*
X4886201D01*
Y4861968D01*
D02*
G37*
G36*
X4839705D02*
X4803209D01*
Y4758543D01*
X4839705D01*
Y4861968D01*
D02*
G37*
G36*
X4668091D02*
X4631595D01*
Y4758543D01*
X4668091D01*
Y4861968D01*
D02*
G37*
G36*
X4621595D02*
X4585099D01*
Y4758543D01*
X4621595D01*
Y4861968D01*
D02*
G37*
G36*
X4886201Y4748543D02*
X4849705D01*
Y4645118D01*
X4886201D01*
Y4748543D01*
D02*
G37*
G36*
X4668091D02*
X4631595D01*
Y4645118D01*
X4668091D01*
Y4748543D01*
D02*
G37*
G36*
X4621595D02*
X4585099D01*
Y4645118D01*
X4621595D01*
Y4748543D01*
D02*
G37*
G36*
X5095045Y4425115D02*
X5095006Y4425108D01*
X5094967Y4425115D01*
X5085173Y4425039D01*
X5084925D01*
Y4425038D01*
X5076411Y4424972D01*
X5076342Y4425039D01*
Y4425039D01*
X5066604D01*
X5066222Y4425115D01*
X5065841Y4425039D01*
X5007130D01*
Y4414394D01*
X5006779Y4414207D01*
X4997244Y4406382D01*
X4989419Y4396847D01*
X4983605Y4385969D01*
X4980024Y4374165D01*
X4978815Y4361890D01*
X4980024Y4349614D01*
X4983605Y4337811D01*
X4989419Y4326933D01*
X4997244Y4317398D01*
X5006779Y4309573D01*
X5007130Y4309385D01*
Y4298740D01*
X5065841D01*
X5066222Y4298664D01*
X5066262Y4298672D01*
X5066301Y4298665D01*
X5076095Y4298740D01*
X5076342D01*
Y4298742D01*
X5084857Y4298808D01*
X5084925Y4298740D01*
Y4298740D01*
X5094664D01*
X5095045Y4298664D01*
X5095427Y4298740D01*
X5154138D01*
Y4309385D01*
X5154489Y4309573D01*
X5164023Y4317398D01*
X5171849Y4326933D01*
X5177663Y4337811D01*
X5181244Y4349614D01*
X5182453Y4361890D01*
X5181244Y4374165D01*
X5177663Y4385969D01*
X5171849Y4396847D01*
X5164023Y4406382D01*
X5154489Y4414207D01*
X5154138Y4414394D01*
Y4425039D01*
X5095427D01*
X5095045Y4425115D01*
D02*
G37*
G36*
X4964138Y4425039D02*
X4894925D01*
Y4415329D01*
X4894923Y4415323D01*
X4894811Y4414394D01*
X4891219Y4412157D01*
D01*
D01*
X4891100Y4412106D01*
D01*
X4887501Y4414315D01*
X4887445Y4414359D01*
Y4425039D01*
X4818232D01*
Y4381633D01*
X4814328Y4372209D01*
X4812970Y4361890D01*
X4814328Y4351571D01*
X4818232Y4342146D01*
Y4298740D01*
X4887445D01*
Y4309421D01*
X4887501Y4309464D01*
X4891100Y4311673D01*
X4891222Y4311621D01*
X4894811Y4309386D01*
X4894923Y4308457D01*
X4894925Y4308451D01*
Y4298740D01*
X4964138D01*
Y4342146D01*
X4968042Y4351571D01*
X4969400Y4361890D01*
X4968042Y4372209D01*
X4964138Y4381633D01*
Y4425039D01*
D02*
G37*
G36*
X5266342D02*
X5236736D01*
Y4366889D01*
X5266342D01*
Y4425039D01*
D02*
G37*
G36*
X5226736D02*
X5197130D01*
Y4366889D01*
X5226736D01*
Y4425039D01*
D02*
G37*
G36*
X5266342Y4356889D02*
X5236736D01*
Y4298740D01*
X5266342D01*
Y4356889D01*
D02*
G37*
G36*
X5226736D02*
X5197130D01*
Y4298740D01*
X5226736D01*
Y4356889D01*
D02*
G37*
G36*
X4769272Y4861968D02*
X4702028D01*
Y4757579D01*
X4695508Y4752228D01*
X4687683Y4742693D01*
X4681868Y4731815D01*
X4678288Y4720011D01*
X4677079Y4707736D01*
Y4405481D01*
X4677181Y4404441D01*
Y4362421D01*
X4677713Y4357025D01*
Y4250036D01*
X4677520Y4249401D01*
X4677013Y4244252D01*
X4676083D01*
Y4175039D01*
X4730760D01*
X4739232Y4174205D01*
X4747705Y4175039D01*
X4802382D01*
Y4226616D01*
D01*
X4803555Y4238528D01*
Y4361890D01*
X4803024Y4367286D01*
Y4405379D01*
X4802921Y4406418D01*
Y4640237D01*
X4803209Y4645118D01*
X4807921Y4645118D01*
X4839705D01*
Y4748543D01*
X4803209D01*
Y4732302D01*
X4798209Y4731561D01*
X4798132Y4731815D01*
X4792317Y4742693D01*
X4784492Y4752228D01*
X4774957Y4760053D01*
X4769272Y4763092D01*
Y4861968D01*
D02*
G37*
G36*
X4739232Y4137310D02*
X4728913Y4135951D01*
X4719489Y4132047D01*
X4676083D01*
Y4073336D01*
X4676007Y4072955D01*
X4676083Y4072573D01*
Y4062835D01*
X4684957D01*
X4687876Y4062448D01*
X4689217Y4061854D01*
X4690711Y4060603D01*
X4692486Y4058201D01*
X4694352Y4054365D01*
X4694382Y4054272D01*
X4694352Y4054179D01*
X4692486Y4050342D01*
X4690711Y4047940D01*
X4689217Y4046689D01*
X4687876Y4046095D01*
X4684957Y4045709D01*
X4676083D01*
Y4035970D01*
X4676007Y4035589D01*
X4676083Y4035207D01*
Y3976496D01*
X4719489D01*
X4728913Y3972592D01*
X4739232Y3971234D01*
X4749551Y3972592D01*
X4758975Y3976496D01*
X4802382D01*
Y4035207D01*
X4802458Y4035589D01*
X4802382Y4035970D01*
Y4045709D01*
X4793507D01*
X4790588Y4046095D01*
X4789247Y4046689D01*
X4787753Y4047940D01*
X4785978Y4050342D01*
X4784112Y4054179D01*
X4784082Y4054272D01*
X4784112Y4054365D01*
X4785978Y4058201D01*
X4787753Y4060603D01*
X4789247Y4061854D01*
X4790588Y4062448D01*
X4793507Y4062835D01*
X4802382D01*
Y4072573D01*
X4802458Y4072955D01*
X4802382Y4073336D01*
Y4132047D01*
X4758975D01*
X4749551Y4135951D01*
X4739232Y4137310D01*
D02*
G37*
G36*
X5095045Y3841966D02*
X5095006Y3841958D01*
X5094967Y3841965D01*
X5085173Y3841890D01*
X5084925D01*
Y3841888D01*
X5076411Y3841822D01*
X5076342Y3841890D01*
Y3841890D01*
X5066604D01*
X5066222Y3841966D01*
X5065841Y3841890D01*
X5007130D01*
Y3831245D01*
X5006779Y3831057D01*
X4997244Y3823232D01*
X4989419Y3813697D01*
X4983605Y3802819D01*
X4980024Y3791015D01*
X4978815Y3778740D01*
X4980024Y3766465D01*
X4983605Y3754661D01*
X4989419Y3743783D01*
X4997244Y3734248D01*
X5006779Y3726423D01*
X5007130Y3726236D01*
Y3715591D01*
X5065841D01*
X5066222Y3715515D01*
X5066262Y3715523D01*
X5066301Y3715515D01*
X5076095Y3715591D01*
X5076342D01*
Y3715593D01*
X5084857Y3715658D01*
X5084925Y3715590D01*
Y3715591D01*
X5094664D01*
X5095045Y3715515D01*
X5095427Y3715591D01*
X5154138D01*
Y3726236D01*
X5154489Y3726423D01*
X5164023Y3734248D01*
X5171849Y3743783D01*
X5177663Y3754661D01*
X5181244Y3766465D01*
X5182453Y3778740D01*
X5181244Y3791015D01*
X5179995Y3795131D01*
D01*
X5177663Y3802819D01*
X5171849Y3813697D01*
X5164023Y3823232D01*
X5154489Y3831057D01*
X5154138Y3831245D01*
Y3841890D01*
X5095427D01*
X5095045Y3841966D01*
D02*
G37*
G36*
X4964138Y3841890D02*
X4894925D01*
Y3832179D01*
X4894923Y3832173D01*
X4894811Y3831244D01*
X4891219Y3829008D01*
X4891100Y3828956D01*
X4887501Y3831166D01*
X4887445Y3831209D01*
Y3841890D01*
X4818232D01*
Y3798483D01*
X4814328Y3789059D01*
X4812970Y3778740D01*
X4814328Y3768421D01*
X4818232Y3758997D01*
Y3715591D01*
X4887445D01*
Y3726271D01*
D01*
X4887501Y3726315D01*
D01*
D01*
X4891100Y3728523D01*
D01*
D01*
X4891222Y3728471D01*
D01*
D01*
X4894811Y3726236D01*
X4894923Y3725307D01*
X4894925Y3725301D01*
Y3715591D01*
X4964138D01*
Y3758997D01*
X4968042Y3768421D01*
X4969400Y3778740D01*
X4968042Y3789059D01*
X4964138Y3798483D01*
Y3807981D01*
D01*
Y3841890D01*
D02*
G37*
G36*
X5266342D02*
X5236736D01*
Y3783740D01*
X5266342D01*
Y3841890D01*
D02*
G37*
G36*
X5226736D02*
X5197130D01*
Y3783740D01*
X5226736D01*
Y3841890D01*
D02*
G37*
G36*
X5266342Y3773740D02*
X5236736D01*
Y3715591D01*
X5266342D01*
Y3773740D01*
D02*
G37*
G36*
X5226736D02*
X5197130D01*
Y3715591D01*
X5226736D01*
Y3773740D01*
D02*
G37*
G36*
X4886201Y3622599D02*
X4849705D01*
Y3519173D01*
X4886201D01*
Y3589622D01*
Y3622599D01*
D02*
G37*
G36*
X4621594D02*
X4585099D01*
Y3519173D01*
X4621594D01*
Y3622599D01*
D02*
G37*
G36*
X4886201Y3509173D02*
X4849705D01*
Y3405748D01*
X4886201D01*
Y3509173D01*
D02*
G37*
G36*
X4739232Y3961819D02*
X4726957Y3960610D01*
X4715153Y3957029D01*
X4704275Y3951215D01*
X4694740Y3943390D01*
X4686915Y3933855D01*
X4686728Y3933504D01*
X4676083D01*
Y3874793D01*
X4676007Y3874411D01*
X4676017Y3874361D01*
X4676007Y3874310D01*
X4676083Y3866703D01*
Y3864291D01*
X4676106D01*
X4676775Y3796876D01*
X4673288Y3785382D01*
X4672079Y3773106D01*
Y3625041D01*
X4668091Y3622599D01*
D01*
D01*
X4667080Y3622599D01*
X4667079D01*
X4631594D01*
Y3514173D01*
Y3405748D01*
X4668091D01*
Y3504306D01*
D01*
X4673091Y3504552D01*
D01*
X4673288Y3502548D01*
X4676868Y3490744D01*
X4682683Y3479866D01*
X4690508Y3470331D01*
X4691158Y3469681D01*
X4700693Y3461856D01*
X4702028Y3461143D01*
Y3405748D01*
X4769272D01*
Y3461143D01*
X4770607Y3461856D01*
X4780142Y3469681D01*
X4787967Y3479216D01*
X4793781Y3490095D01*
X4797362Y3501898D01*
X4798209Y3510498D01*
X4803209Y3510252D01*
Y3405748D01*
X4839705D01*
Y3514173D01*
Y3622599D01*
X4803209D01*
Y3524228D01*
X4798209Y3522466D01*
X4797921Y3522823D01*
Y3753082D01*
X4798765Y3754661D01*
X4802346Y3766465D01*
X4803555Y3778740D01*
X4802685Y3787575D01*
Y3898366D01*
X4802382Y3901443D01*
Y3933504D01*
X4791932D01*
X4784256Y3942858D01*
X4783724Y3943390D01*
X4774189Y3951215D01*
X4763311Y3957029D01*
X4751507Y3960610D01*
X4739232Y3961819D01*
D02*
G37*
G36*
X4621594Y3509173D02*
X4585099D01*
Y3405748D01*
X4621594D01*
Y3509173D01*
D02*
G37*
%LPD*%
G36*
X5095045Y4414634D02*
X5119532Y4414508D01*
Y4309272D01*
X5095045Y4309083D01*
Y4308860D01*
X5094512Y4308938D01*
X5092913Y4309008D01*
X5088410Y4309032D01*
X5066222Y4308860D01*
Y4309146D01*
X5041736Y4309272D01*
Y4414508D01*
X5066222Y4414697D01*
Y4414919D01*
X5066756Y4414841D01*
X5068355Y4414771D01*
X5072857Y4414748D01*
X5095045Y4414919D01*
Y4414634D01*
D02*
G37*
G36*
X4905045Y4393141D02*
X4910694Y4392324D01*
X4919589Y4391644D01*
X4929532Y4391417D01*
Y4332362D01*
X4919589Y4332136D01*
X4910694Y4331455D01*
X4905045Y4330639D01*
Y4309683D01*
X4904523Y4313992D01*
X4902957Y4317848D01*
X4900347Y4321249D01*
X4896692Y4324198D01*
X4891994Y4326693D01*
X4891141Y4326995D01*
X4890287Y4326693D01*
X4885577Y4324198D01*
X4881914Y4321249D01*
X4879298Y4317848D01*
X4877728Y4313992D01*
X4877205Y4309683D01*
Y4330648D01*
X4871633Y4331455D01*
X4862758Y4332136D01*
X4852839Y4332362D01*
Y4391417D01*
X4862758Y4391644D01*
X4871633Y4392324D01*
X4877205Y4393131D01*
Y4414096D01*
X4877728Y4409787D01*
X4879298Y4405932D01*
X4881914Y4402530D01*
X4885577Y4399582D01*
X4890287Y4397087D01*
X4891141Y4396784D01*
X4891994Y4397087D01*
X4896692Y4399582D01*
X4900347Y4402530D01*
X4902957Y4405932D01*
X4904523Y4409787D01*
X4905045Y4414096D01*
Y4393141D01*
D02*
G37*
G36*
X4768995Y4083423D02*
X4770036Y4072955D01*
X4792262D01*
X4787796Y4072364D01*
X4783801Y4070592D01*
X4780276Y4067640D01*
X4777221Y4063506D01*
X4774635Y4058191D01*
X4773359Y4054272D01*
X4774635Y4050352D01*
X4777221Y4045037D01*
X4780276Y4040904D01*
X4783801Y4037951D01*
X4787796Y4036179D01*
X4792262Y4035589D01*
X4769757D01*
X4769700Y4035159D01*
X4768995Y4025120D01*
X4768760Y4013899D01*
X4709705D01*
X4709470Y4025120D01*
X4708428Y4035589D01*
X4686203D01*
X4690668Y4036179D01*
X4694663Y4037951D01*
X4698189Y4040904D01*
X4701244Y4045037D01*
X4703829Y4050352D01*
X4705105Y4054272D01*
X4703829Y4058191D01*
X4701244Y4063506D01*
X4698189Y4067640D01*
X4694663Y4070592D01*
X4690668Y4072364D01*
X4686203Y4072955D01*
X4708708D01*
X4708765Y4073384D01*
X4709470Y4083423D01*
X4709705Y4094644D01*
X4768760D01*
X4768995Y4083423D01*
D02*
G37*
G36*
X5095045Y3831484D02*
X5119532Y3831358D01*
Y3726122D01*
X5095045Y3725933D01*
Y3725711D01*
X5094512Y3725789D01*
X5092913Y3725859D01*
X5088410Y3725882D01*
X5066222Y3725711D01*
Y3725996D01*
X5041736Y3726122D01*
Y3831358D01*
X5066222Y3831547D01*
Y3831770D01*
X5066756Y3831692D01*
X5068355Y3831622D01*
X5072857Y3831599D01*
X5095045Y3831770D01*
Y3831484D01*
D02*
G37*
G36*
X4905045Y3809991D02*
X4910694Y3809175D01*
X4919589Y3808494D01*
X4929532Y3808268D01*
Y3749213D01*
X4919589Y3748986D01*
X4910694Y3748305D01*
X4905045Y3747489D01*
Y3726534D01*
X4904523Y3730843D01*
X4902957Y3734698D01*
X4900347Y3738100D01*
X4896692Y3741048D01*
X4891994Y3743543D01*
X4891141Y3743846D01*
X4890287Y3743543D01*
X4885577Y3741048D01*
X4881914Y3738100D01*
X4879298Y3734698D01*
X4877728Y3730843D01*
X4877205Y3726534D01*
Y3747499D01*
X4871633Y3748305D01*
X4862758Y3748986D01*
X4852839Y3749213D01*
Y3808268D01*
X4862758Y3808494D01*
X4871633Y3809175D01*
X4877205Y3809982D01*
Y3830947D01*
X4877728Y3826638D01*
X4879298Y3822782D01*
X4881914Y3819381D01*
X4885577Y3816432D01*
X4890287Y3813938D01*
X4891141Y3813635D01*
X4891994Y3813938D01*
X4896692Y3816432D01*
X4900347Y3819381D01*
X4902957Y3822782D01*
X4904523Y3826638D01*
X4905045Y3830947D01*
Y3809991D01*
D02*
G37*
G36*
X4792382Y3779272D02*
X4687146D01*
X4686203Y3874411D01*
X4792262D01*
X4792382Y3779272D01*
D02*
G37*
D10*
X4735650Y3514173D02*
D03*
Y4753543D02*
D03*
D11*
X4844705Y3514173D02*
D03*
X4626595D02*
D03*
X4844705Y4753543D02*
D03*
X4626595D02*
D03*
D12*
X5119532Y4361890D02*
D03*
X5231736D02*
D03*
X4929532D02*
D03*
X5041736D02*
D03*
X4740634D02*
D03*
X4852839D02*
D03*
X5119532Y3778740D02*
D03*
X5231736D02*
D03*
X4929532D02*
D03*
X5041736D02*
D03*
X4740634D02*
D03*
X4852839D02*
D03*
D13*
X4739232Y4209646D02*
D03*
Y4097441D02*
D03*
Y4011102D02*
D03*
Y3898898D02*
D03*
D14*
X4740102Y4362421D02*
X4740634Y4361890D01*
X4740102Y4362421D02*
Y4405379D01*
X4740000Y4405481D02*
X4740102Y4405379D01*
X4740000Y4405481D02*
Y4707736D01*
X4739232Y4237126D02*
X4740634Y4238528D01*
Y4361890D01*
X5041736D02*
X5119532D01*
X4735000Y3773106D02*
X4740634Y3778740D01*
X4735000Y3514823D02*
Y3773106D01*
X4739764Y3779272D02*
Y3898366D01*
X4735000Y3514823D02*
X4735650Y3514173D01*
X5041736Y3778740D02*
X5119532D01*
X4739232Y3898898D02*
X4739764Y3898366D01*
D15*
X4739232Y4011102D02*
Y4097441D01*
X4852839Y4361890D02*
X4929532D01*
X4852839Y3778740D02*
X4929532D01*
D16*
X4830000Y4605000D02*
D03*
X4835000Y4550000D02*
D03*
X4645000Y4575000D02*
D03*
X4651374Y4354943D02*
D03*
X4651390Y4434470D02*
D03*
X4645000Y4500000D02*
D03*
X4835000Y4490000D02*
D03*
X4867563Y4273740D02*
D03*
X5110000Y4595000D02*
D03*
X5095000Y4265000D02*
D03*
X4651083Y4121092D02*
D03*
X5015000Y4265000D02*
D03*
X4945000D02*
D03*
X4647382Y3726074D02*
D03*
X4835000Y3665000D02*
D03*
X4530000Y3545000D02*
D03*
X4535000Y3615000D02*
D03*
X5024022Y3867192D02*
D03*
X4944494D02*
D03*
X4960069Y3691069D02*
D03*
X5039592Y3690289D02*
D03*
X5119120D02*
D03*
X5100000Y3875000D02*
D03*
X5085000Y4455000D02*
D03*
X5025000D02*
D03*
X4960672Y4455266D02*
D03*
X5150000Y4455000D02*
D03*
X4884254Y4459176D02*
D03*
X4651260Y4275415D02*
D03*
X4650781Y4195889D02*
D03*
X4651796Y4043418D02*
D03*
X4659057Y3964223D02*
D03*
X4650781Y3885127D02*
D03*
X4651390Y3805602D02*
D03*
X4630000Y3660000D02*
D03*
X4895000Y3685000D02*
D03*
X4880000Y3870000D02*
D03*
X4827684Y3904945D02*
D03*
X4827417Y3984472D02*
D03*
X4846786Y4061630D02*
D03*
X4849192Y4146745D02*
D03*
X4852292Y4221964D02*
D03*
%TF.MD5,fa4877b866fd8bd705502e9b1bfb000d*%
M02*
