%TF.GenerationSoftware,Altium Limited,Altium Designer,20.0.10 (225)*%
G04 Layer_Color=32768*
%FSLAX26Y26*%
%MOIN*%
%TF.FileFunction,Other,Top_Courtyard*%
%TF.Part,Single*%
G01*
G75*
%TA.AperFunction,NonConductor*%
%ADD19C,0.007874*%
%ADD22C,0.003937*%
%ADD24C,0.001968*%
D19*
X3592716Y2517122D02*
Y2821453D01*
X2997835Y2517122D02*
X3592716D01*
X2997835D02*
Y2821453D01*
X3592716D01*
X1375787Y2517122D02*
Y2821453D01*
X1970669D01*
Y2517122D02*
Y2821453D01*
X1375787Y2517122D02*
X1970669D01*
D22*
X2645315Y2274287D02*
X2684685D01*
X2665000Y2254602D02*
Y2293972D01*
X2645315Y2044287D02*
X2684685D01*
X2665000Y2024602D02*
Y2063972D01*
X2070315Y2044287D02*
X2109685D01*
X2090000Y2024602D02*
Y2063972D01*
X2070315Y2274287D02*
X2109685D01*
X2090000Y2254602D02*
Y2293972D01*
X2611102Y2649602D02*
Y2688972D01*
X2591417Y2669287D02*
X2630787D01*
X2611102Y2464602D02*
Y2503972D01*
X2591417Y2484287D02*
X2630787D01*
X2378602Y2464602D02*
Y2503972D01*
X2358917Y2484287D02*
X2398287D01*
X2378602Y2649602D02*
Y2688972D01*
X2358917Y2669287D02*
X2398287D01*
X2146102Y2464602D02*
Y2503972D01*
X2126417Y2484287D02*
X2165787D01*
X2146102Y2649602D02*
Y2688972D01*
X2126417Y2669287D02*
X2165787D01*
D24*
X2727992Y2183736D02*
Y2364839D01*
X2602008Y2183736D02*
Y2364839D01*
X2727992D01*
X2602008Y2183736D02*
X2727992D01*
Y1953736D02*
Y2134839D01*
X2602008Y1953736D02*
Y2134839D01*
X2727992D01*
X2602008Y1953736D02*
X2727992D01*
X2152992D02*
Y2134839D01*
X2027008Y1953736D02*
Y2134839D01*
X2152992D01*
X2027008Y1953736D02*
X2152992D01*
Y2183736D02*
Y2364839D01*
X2027008Y2183736D02*
Y2364839D01*
X2152992D01*
X2027008Y2183736D02*
X2152992D01*
X2520551Y2606295D02*
X2701653D01*
X2520551Y2732280D02*
X2701653D01*
Y2606295D02*
Y2732280D01*
X2520551Y2606295D02*
Y2732280D01*
Y2421295D02*
X2701653D01*
X2520551Y2547280D02*
X2701653D01*
Y2421295D02*
Y2547280D01*
X2520551Y2421295D02*
Y2547280D01*
X2288051Y2421295D02*
X2469153D01*
X2288051Y2547280D02*
X2469153D01*
Y2421295D02*
Y2547280D01*
X2288051Y2421295D02*
Y2547280D01*
Y2606295D02*
X2469153D01*
X2288051Y2732280D02*
X2469153D01*
Y2606295D02*
Y2732280D01*
X2288051Y2606295D02*
Y2732280D01*
X2055551Y2421295D02*
X2236653D01*
X2055551Y2547280D02*
X2236653D01*
Y2421295D02*
Y2547280D01*
X2055551Y2421295D02*
Y2547280D01*
Y2606295D02*
X2236653D01*
X2055551Y2732280D02*
X2236653D01*
Y2606295D02*
Y2732280D01*
X2055551Y2606295D02*
Y2732280D01*
%TF.MD5,e561fb7317c6896d949c5be43ffa9717*%
M02*
