%TF.GenerationSoftware,Altium Limited,Altium Designer,20.0.10 (225)*%
G04 Layer_Color=16711935*
%FSLAX26Y26*%
%MOIN*%
%TF.FileFunction,Other,Top_Assembly*%
%TF.Part,Single*%
G01*
G75*
%TA.AperFunction,NonConductor*%
%ADD19C,0.007874*%
G36*
X3236340Y4438342D02*
X3236303D01*
X3236230D01*
X3236085D01*
X3235866Y4438305D01*
X3235648Y4438269D01*
X3235393D01*
X3234774Y4438160D01*
X3234119Y4438050D01*
X3233464Y4437832D01*
X3232882Y4437614D01*
X3232627Y4437468D01*
X3232408Y4437286D01*
X3232372Y4437250D01*
X3232263Y4437104D01*
X3232081Y4436886D01*
X3231899Y4436594D01*
X3231680Y4436194D01*
X3231535Y4435757D01*
X3231389Y4435211D01*
X3231353Y4434629D01*
Y4434410D01*
X3231389Y4434192D01*
X3231426Y4433864D01*
X3231498Y4433537D01*
X3231571Y4433173D01*
X3231717Y4432809D01*
X3231899Y4432445D01*
X3231935Y4432408D01*
X3232008Y4432299D01*
X3232154Y4432154D01*
X3232299Y4431935D01*
X3232554Y4431753D01*
X3232809Y4431535D01*
X3233100Y4431353D01*
X3233464Y4431207D01*
X3233500D01*
X3233646Y4431134D01*
X3233901Y4431098D01*
X3234228Y4431025D01*
X3234665Y4430952D01*
X3235211Y4430916D01*
X3235866Y4430843D01*
X3236631D01*
X3253994D01*
Y4427494D01*
X3236813D01*
X3236776D01*
X3236667D01*
X3236522D01*
X3236303D01*
X3236012Y4427531D01*
X3235721D01*
X3235029Y4427604D01*
X3234228Y4427676D01*
X3233391Y4427822D01*
X3232627Y4428040D01*
X3231899Y4428295D01*
X3231862D01*
X3231826Y4428332D01*
X3231608Y4428441D01*
X3231316Y4428623D01*
X3230916Y4428878D01*
X3230516Y4429242D01*
X3230079Y4429642D01*
X3229642Y4430152D01*
X3229278Y4430734D01*
X3229242Y4430807D01*
X3229132Y4431025D01*
X3228987Y4431353D01*
X3228841Y4431826D01*
X3228659Y4432408D01*
X3228514Y4433064D01*
X3228404Y4433792D01*
X3228368Y4434592D01*
Y4434920D01*
X3228404Y4435138D01*
X3228441Y4435430D01*
X3228477Y4435721D01*
X3228623Y4436485D01*
X3228841Y4437286D01*
X3229169Y4438123D01*
X3229387Y4438560D01*
X3229642Y4438960D01*
X3229933Y4439324D01*
X3230261Y4439688D01*
X3230297Y4439725D01*
X3230334Y4439761D01*
X3230479Y4439834D01*
X3230625Y4439943D01*
X3230807Y4440089D01*
X3231062Y4440234D01*
X3231353Y4440380D01*
X3231680Y4440562D01*
X3232044Y4440708D01*
X3232481Y4440853D01*
X3232918Y4440999D01*
X3233428Y4441144D01*
X3233974Y4441217D01*
X3234592Y4441326D01*
X3235211Y4441363D01*
X3235903D01*
X3236340Y4438342D01*
D02*
G37*
G36*
X3247769Y4420906D02*
X3247842Y4420833D01*
X3247878Y4420688D01*
X3247988Y4420506D01*
X3248097Y4420287D01*
X3248242Y4420032D01*
X3248606Y4419414D01*
X3249007Y4418686D01*
X3249516Y4417958D01*
X3250099Y4417193D01*
X3250718Y4416429D01*
X3250754Y4416392D01*
X3250790Y4416356D01*
X3250900Y4416247D01*
X3251009Y4416101D01*
X3251373Y4415774D01*
X3251810Y4415337D01*
X3252319Y4414900D01*
X3252902Y4414427D01*
X3253484Y4414026D01*
X3254103Y4413662D01*
Y4411660D01*
X3228805D01*
Y4414754D01*
X3248497D01*
X3248461Y4414791D01*
X3248315Y4414973D01*
X3248097Y4415191D01*
X3247842Y4415555D01*
X3247514Y4415956D01*
X3247150Y4416465D01*
X3246750Y4417048D01*
X3246350Y4417703D01*
Y4417739D01*
X3246313Y4417776D01*
X3246168Y4417994D01*
X3245986Y4418358D01*
X3245767Y4418795D01*
X3245512Y4419304D01*
X3245258Y4419850D01*
X3245003Y4420396D01*
X3244784Y4420942D01*
X3247769D01*
Y4420906D01*
D02*
G37*
G36*
X3242346Y4403689D02*
X3242782D01*
X3243256Y4403652D01*
X3243802Y4403616D01*
X3244930Y4403507D01*
X3246131Y4403325D01*
X3247332Y4403106D01*
X3247878Y4402961D01*
X3248424Y4402815D01*
X3248461D01*
X3248534Y4402779D01*
X3248679Y4402706D01*
X3248861Y4402633D01*
X3249116Y4402560D01*
X3249371Y4402415D01*
X3249990Y4402124D01*
X3250645Y4401760D01*
X3251336Y4401286D01*
X3252028Y4400740D01*
X3252610Y4400085D01*
Y4400049D01*
X3252683Y4400012D01*
X3252756Y4399903D01*
X3252829Y4399758D01*
X3252974Y4399576D01*
X3253084Y4399357D01*
X3253375Y4398811D01*
X3253630Y4398156D01*
X3253884Y4397392D01*
X3254030Y4396482D01*
X3254103Y4395499D01*
Y4395171D01*
X3254066Y4394771D01*
X3253994Y4394298D01*
X3253884Y4393752D01*
X3253739Y4393169D01*
X3253557Y4392550D01*
X3253266Y4391968D01*
Y4391932D01*
X3253229Y4391895D01*
X3253120Y4391713D01*
X3252938Y4391422D01*
X3252683Y4391058D01*
X3252319Y4390658D01*
X3251919Y4390221D01*
X3251446Y4389820D01*
X3250900Y4389420D01*
X3250827Y4389384D01*
X3250645Y4389238D01*
X3250317Y4389092D01*
X3249844Y4388838D01*
X3249298Y4388619D01*
X3248679Y4388328D01*
X3247951Y4388073D01*
X3247150Y4387855D01*
X3247114D01*
X3247041Y4387818D01*
X3246932Y4387782D01*
X3246750Y4387746D01*
X3246532Y4387709D01*
X3246277Y4387673D01*
X3245949Y4387600D01*
X3245585Y4387564D01*
X3245185Y4387491D01*
X3244748Y4387454D01*
X3244238Y4387418D01*
X3243729Y4387345D01*
X3243146Y4387309D01*
X3242564D01*
X3241909Y4387272D01*
X3241217D01*
X3241181D01*
X3241035D01*
X3240780D01*
X3240489D01*
X3240089Y4387309D01*
X3239652D01*
X3239179Y4387345D01*
X3238669Y4387382D01*
X3237504Y4387491D01*
X3236303Y4387673D01*
X3235138Y4387891D01*
X3234592Y4388037D01*
X3234046Y4388219D01*
X3234010D01*
X3233937Y4388255D01*
X3233792Y4388328D01*
X3233610Y4388401D01*
X3233355Y4388474D01*
X3233100Y4388619D01*
X3232481Y4388910D01*
X3231826Y4389274D01*
X3231098Y4389748D01*
X3230443Y4390294D01*
X3229824Y4390949D01*
Y4390985D01*
X3229751Y4391022D01*
X3229678Y4391131D01*
X3229606Y4391276D01*
X3229496Y4391458D01*
X3229351Y4391640D01*
X3229096Y4392186D01*
X3228841Y4392842D01*
X3228586Y4393606D01*
X3228441Y4394516D01*
X3228368Y4395499D01*
Y4395863D01*
X3228404Y4396118D01*
X3228441Y4396409D01*
X3228514Y4396773D01*
X3228586Y4397173D01*
X3228696Y4397610D01*
X3228841Y4398047D01*
X3228987Y4398520D01*
X3229205Y4398993D01*
X3229460Y4399466D01*
X3229751Y4399940D01*
X3230115Y4400413D01*
X3230516Y4400850D01*
X3230952Y4401250D01*
X3230989Y4401286D01*
X3231098Y4401359D01*
X3231280Y4401468D01*
X3231571Y4401650D01*
X3231899Y4401832D01*
X3232336Y4402014D01*
X3232845Y4402269D01*
X3233428Y4402488D01*
X3234083Y4402706D01*
X3234847Y4402924D01*
X3235684Y4403143D01*
X3236631Y4403325D01*
X3237650Y4403507D01*
X3238742Y4403616D01*
X3239943Y4403689D01*
X3241217Y4403725D01*
X3241254D01*
X3241399D01*
X3241654D01*
X3241945D01*
X3242346Y4403689D01*
D02*
G37*
G36*
X1582127Y4475942D02*
X1582600D01*
X1583146Y4475905D01*
X1583692Y4475833D01*
X1584930Y4475723D01*
X1586240Y4475541D01*
X1587478Y4475287D01*
X1588097Y4475105D01*
X1588643Y4474922D01*
X1588679D01*
X1588752Y4474886D01*
X1588897Y4474813D01*
X1589116Y4474740D01*
X1589334Y4474631D01*
X1589625Y4474486D01*
X1590244Y4474122D01*
X1590936Y4473685D01*
X1591664Y4473175D01*
X1592355Y4472520D01*
X1592974Y4471792D01*
Y4471756D01*
X1593047Y4471683D01*
X1593120Y4471574D01*
X1593193Y4471428D01*
X1593302Y4471210D01*
X1593447Y4470991D01*
X1593593Y4470700D01*
X1593702Y4470409D01*
X1593993Y4469717D01*
X1594248Y4468880D01*
X1594394Y4467970D01*
X1594467Y4466951D01*
Y4466660D01*
X1594430Y4466478D01*
Y4466223D01*
X1594394Y4465932D01*
X1594248Y4465240D01*
X1594066Y4464476D01*
X1593775Y4463675D01*
X1593375Y4462874D01*
X1593120Y4462474D01*
X1592829Y4462110D01*
X1592792Y4462073D01*
X1592756Y4462037D01*
X1592647Y4461928D01*
X1592537Y4461819D01*
X1592355Y4461673D01*
X1592137Y4461491D01*
X1591627Y4461127D01*
X1590972Y4460763D01*
X1590171Y4460399D01*
X1589261Y4460108D01*
X1588206Y4459889D01*
X1587951Y4462874D01*
X1587987D01*
X1588060Y4462910D01*
X1588133D01*
X1588279Y4462947D01*
X1588679Y4463056D01*
X1589116Y4463202D01*
X1589625Y4463384D01*
X1590135Y4463639D01*
X1590608Y4463930D01*
X1591009Y4464294D01*
X1591045Y4464330D01*
X1591154Y4464476D01*
X1591300Y4464730D01*
X1591445Y4465022D01*
X1591627Y4465422D01*
X1591773Y4465895D01*
X1591882Y4466441D01*
X1591919Y4467024D01*
Y4467279D01*
X1591882Y4467533D01*
X1591846Y4467861D01*
X1591773Y4468261D01*
X1591664Y4468662D01*
X1591518Y4469099D01*
X1591300Y4469499D01*
X1591263Y4469535D01*
X1591191Y4469681D01*
X1591045Y4469899D01*
X1590827Y4470118D01*
X1590572Y4470409D01*
X1590281Y4470700D01*
X1589953Y4470991D01*
X1589553Y4471283D01*
X1589516Y4471319D01*
X1589334Y4471392D01*
X1589079Y4471537D01*
X1588752Y4471683D01*
X1588315Y4471865D01*
X1587805Y4472047D01*
X1587223Y4472229D01*
X1586568Y4472411D01*
X1586531D01*
X1586495Y4472447D01*
X1586386D01*
X1586240Y4472484D01*
X1585876Y4472556D01*
X1585403Y4472666D01*
X1584821Y4472739D01*
X1584202Y4472811D01*
X1583510Y4472848D01*
X1582782Y4472884D01*
X1582746D01*
X1582637D01*
X1582455D01*
X1582163D01*
X1582236Y4472848D01*
X1582418Y4472702D01*
X1582673Y4472484D01*
X1583037Y4472229D01*
X1583401Y4471865D01*
X1583801Y4471428D01*
X1584202Y4470918D01*
X1584566Y4470336D01*
X1584602Y4470263D01*
X1584711Y4470045D01*
X1584857Y4469717D01*
X1585003Y4469317D01*
X1585185Y4468771D01*
X1585330Y4468189D01*
X1585439Y4467533D01*
X1585476Y4466842D01*
Y4466551D01*
X1585439Y4466332D01*
X1585403Y4466041D01*
X1585367Y4465750D01*
X1585294Y4465386D01*
X1585185Y4465022D01*
X1584930Y4464185D01*
X1584748Y4463748D01*
X1584529Y4463311D01*
X1584275Y4462838D01*
X1583947Y4462401D01*
X1583619Y4461964D01*
X1583219Y4461564D01*
X1583183Y4461527D01*
X1583110Y4461454D01*
X1583001Y4461382D01*
X1582819Y4461236D01*
X1582564Y4461054D01*
X1582309Y4460872D01*
X1581981Y4460690D01*
X1581617Y4460508D01*
X1581217Y4460290D01*
X1580780Y4460108D01*
X1580271Y4459926D01*
X1579761Y4459744D01*
X1579179Y4459598D01*
X1578560Y4459525D01*
X1577941Y4459453D01*
X1577249Y4459416D01*
X1577213D01*
X1577067D01*
X1576885D01*
X1576631Y4459453D01*
X1576303Y4459489D01*
X1575903Y4459525D01*
X1575502Y4459598D01*
X1575029Y4459707D01*
X1574083Y4459962D01*
X1573573Y4460144D01*
X1573027Y4460363D01*
X1572517Y4460617D01*
X1572044Y4460945D01*
X1571535Y4461273D01*
X1571098Y4461673D01*
X1571061Y4461709D01*
X1570989Y4461782D01*
X1570879Y4461891D01*
X1570734Y4462073D01*
X1570552Y4462292D01*
X1570333Y4462583D01*
X1570151Y4462874D01*
X1569897Y4463238D01*
X1569678Y4463602D01*
X1569496Y4464039D01*
X1569096Y4465022D01*
X1568950Y4465531D01*
X1568841Y4466114D01*
X1568768Y4466696D01*
X1568732Y4467315D01*
Y4467570D01*
X1568768Y4467752D01*
Y4467934D01*
X1568805Y4468189D01*
X1568914Y4468807D01*
X1569059Y4469499D01*
X1569314Y4470263D01*
X1569642Y4471028D01*
X1570079Y4471792D01*
Y4471828D01*
X1570151Y4471865D01*
X1570224Y4471974D01*
X1570333Y4472120D01*
X1570625Y4472484D01*
X1571025Y4472957D01*
X1571571Y4473430D01*
X1572226Y4473976D01*
X1572991Y4474449D01*
X1573864Y4474886D01*
X1573901D01*
X1573973Y4474922D01*
X1574119Y4474995D01*
X1574301Y4475068D01*
X1574556Y4475141D01*
X1574883Y4475250D01*
X1575247Y4475323D01*
X1575648Y4475432D01*
X1576121Y4475541D01*
X1576667Y4475650D01*
X1577249Y4475723D01*
X1577868Y4475796D01*
X1578560Y4475869D01*
X1579288Y4475942D01*
X1580089Y4475978D01*
X1580926D01*
X1580962D01*
X1581144D01*
X1581399D01*
X1581727D01*
X1582127Y4475942D01*
D02*
G37*
G36*
X1586823Y4455194D02*
X1587114D01*
X1587805Y4455121D01*
X1588606Y4455048D01*
X1589443Y4454903D01*
X1590208Y4454684D01*
X1590936Y4454429D01*
X1590972D01*
X1591009Y4454393D01*
X1591227Y4454284D01*
X1591518Y4454102D01*
X1591919Y4453847D01*
X1592319Y4453483D01*
X1592756Y4453083D01*
X1593193Y4452573D01*
X1593557Y4451990D01*
X1593593Y4451918D01*
X1593702Y4451699D01*
X1593848Y4451372D01*
X1593993Y4450899D01*
X1594175Y4450316D01*
X1594321Y4449661D01*
X1594430Y4448933D01*
X1594467Y4448132D01*
Y4447805D01*
X1594430Y4447586D01*
X1594394Y4447295D01*
X1594357Y4447004D01*
X1594212Y4446239D01*
X1593993Y4445439D01*
X1593666Y4444601D01*
X1593447Y4444164D01*
X1593193Y4443764D01*
X1592901Y4443400D01*
X1592574Y4443036D01*
X1592537Y4443000D01*
X1592501Y4442963D01*
X1592355Y4442891D01*
X1592210Y4442781D01*
X1592028Y4442636D01*
X1591773Y4442490D01*
X1591482Y4442345D01*
X1591154Y4442163D01*
X1590790Y4442017D01*
X1590353Y4441871D01*
X1589917Y4441726D01*
X1589407Y4441580D01*
X1588861Y4441507D01*
X1588242Y4441398D01*
X1587623Y4441362D01*
X1586932D01*
X1586495Y4444383D01*
X1586531D01*
X1586604D01*
X1586750D01*
X1586968Y4444419D01*
X1587187Y4444456D01*
X1587441D01*
X1588060Y4444565D01*
X1588715Y4444674D01*
X1589371Y4444892D01*
X1589953Y4445111D01*
X1590208Y4445257D01*
X1590426Y4445439D01*
X1590463Y4445475D01*
X1590572Y4445620D01*
X1590754Y4445839D01*
X1590936Y4446130D01*
X1591154Y4446530D01*
X1591300Y4446967D01*
X1591445Y4447513D01*
X1591482Y4448096D01*
Y4448314D01*
X1591445Y4448533D01*
X1591409Y4448860D01*
X1591336Y4449188D01*
X1591263Y4449552D01*
X1591118Y4449916D01*
X1590936Y4450280D01*
X1590899Y4450316D01*
X1590827Y4450425D01*
X1590681Y4450571D01*
X1590535Y4450789D01*
X1590281Y4450971D01*
X1590026Y4451190D01*
X1589735Y4451372D01*
X1589371Y4451517D01*
X1589334D01*
X1589189Y4451590D01*
X1588934Y4451627D01*
X1588606Y4451699D01*
X1588169Y4451772D01*
X1587623Y4451809D01*
X1586968Y4451881D01*
X1586204D01*
X1568841D01*
Y4455230D01*
X1586022D01*
X1586058D01*
X1586167D01*
X1586313D01*
X1586531D01*
X1586823Y4455194D01*
D02*
G37*
%LPC*%
G36*
X3241217Y4400558D02*
X3241144D01*
X3240962D01*
X3240635D01*
X3240198Y4400522D01*
X3239725D01*
X3239142Y4400486D01*
X3238524Y4400449D01*
X3237868Y4400376D01*
X3236449Y4400194D01*
X3235757Y4400085D01*
X3235102Y4399940D01*
X3234483Y4399794D01*
X3233901Y4399576D01*
X3233391Y4399357D01*
X3232954Y4399102D01*
X3232918D01*
X3232882Y4399030D01*
X3232627Y4398848D01*
X3232299Y4398520D01*
X3231935Y4398120D01*
X3231571Y4397574D01*
X3231244Y4396955D01*
X3230989Y4396263D01*
X3230952Y4395899D01*
X3230916Y4395499D01*
Y4395280D01*
X3230952Y4395135D01*
X3231025Y4394771D01*
X3231171Y4394261D01*
X3231426Y4393715D01*
X3231790Y4393096D01*
X3232008Y4392805D01*
X3232299Y4392514D01*
X3232590Y4392223D01*
X3232954Y4391932D01*
X3232991D01*
X3233064Y4391859D01*
X3233173Y4391786D01*
X3233355Y4391713D01*
X3233610Y4391568D01*
X3233937Y4391458D01*
X3234301Y4391313D01*
X3234738Y4391167D01*
X3235284Y4391058D01*
X3235866Y4390912D01*
X3236558Y4390767D01*
X3237286Y4390658D01*
X3238160Y4390585D01*
X3239070Y4390512D01*
X3240089Y4390439D01*
X3241217D01*
X3241254D01*
X3241290D01*
X3241472D01*
X3241800D01*
X3242236Y4390476D01*
X3242710D01*
X3243292Y4390512D01*
X3243911Y4390548D01*
X3244602Y4390621D01*
X3245986Y4390803D01*
X3246677Y4390912D01*
X3247332Y4391058D01*
X3247951Y4391204D01*
X3248534Y4391422D01*
X3249043Y4391640D01*
X3249480Y4391895D01*
X3249516D01*
X3249553Y4391968D01*
X3249662Y4392041D01*
X3249808Y4392150D01*
X3250135Y4392478D01*
X3250536Y4392878D01*
X3250900Y4393424D01*
X3251227Y4394043D01*
X3251373Y4394370D01*
X3251482Y4394734D01*
X3251518Y4395135D01*
X3251555Y4395535D01*
Y4395754D01*
X3251518Y4395899D01*
X3251446Y4396300D01*
X3251336Y4396773D01*
X3251118Y4397319D01*
X3250790Y4397901D01*
X3250572Y4398192D01*
X3250354Y4398484D01*
X3250062Y4398738D01*
X3249735Y4398993D01*
X3249698D01*
X3249626Y4399066D01*
X3249480Y4399139D01*
X3249298Y4399248D01*
X3249007Y4399357D01*
X3248679Y4399503D01*
X3248279Y4399612D01*
X3247806Y4399758D01*
X3247260Y4399903D01*
X3246641Y4400049D01*
X3245949Y4400194D01*
X3245185Y4400304D01*
X3244311Y4400413D01*
X3243365Y4400486D01*
X3242346Y4400522D01*
X3241217Y4400558D01*
D02*
G37*
G36*
X1577104Y4472556D02*
X1577067D01*
X1576995D01*
X1576849D01*
X1576667Y4472520D01*
X1576412D01*
X1576157Y4472484D01*
X1575575Y4472374D01*
X1574883Y4472229D01*
X1574155Y4471974D01*
X1573464Y4471610D01*
X1572845Y4471137D01*
X1572809D01*
X1572772Y4471064D01*
X1572590Y4470882D01*
X1572335Y4470591D01*
X1572044Y4470190D01*
X1571789Y4469681D01*
X1571535Y4469099D01*
X1571353Y4468443D01*
X1571280Y4468079D01*
Y4467497D01*
X1571316Y4467351D01*
X1571353Y4466951D01*
X1571498Y4466478D01*
X1571680Y4465895D01*
X1572008Y4465276D01*
X1572408Y4464658D01*
X1572699Y4464367D01*
X1572991Y4464075D01*
X1573027D01*
X1573063Y4464002D01*
X1573173Y4463930D01*
X1573282Y4463857D01*
X1573646Y4463602D01*
X1574155Y4463347D01*
X1574774Y4463056D01*
X1575539Y4462801D01*
X1576412Y4462656D01*
X1577359Y4462583D01*
X1577395D01*
X1577468D01*
X1577577D01*
X1577759Y4462619D01*
X1577977D01*
X1578196Y4462656D01*
X1578742Y4462765D01*
X1579361Y4462947D01*
X1580016Y4463165D01*
X1580671Y4463529D01*
X1581253Y4464002D01*
X1581326Y4464075D01*
X1581472Y4464257D01*
X1581727Y4464585D01*
X1581981Y4464985D01*
X1582273Y4465531D01*
X1582527Y4466150D01*
X1582673Y4466842D01*
X1582746Y4467606D01*
Y4467824D01*
X1582709Y4467970D01*
X1582673Y4468370D01*
X1582564Y4468844D01*
X1582382Y4469426D01*
X1582127Y4470008D01*
X1581763Y4470591D01*
X1581253Y4471137D01*
X1581181Y4471210D01*
X1580962Y4471355D01*
X1580635Y4471574D01*
X1580161Y4471865D01*
X1579579Y4472120D01*
X1578887Y4472338D01*
X1578050Y4472484D01*
X1577104Y4472556D01*
D02*
G37*
%LPD*%
D19*
X3525787Y4289197D02*
Y4593528D01*
X2930906Y4289197D02*
X3525787D01*
X2930906D02*
Y4593528D01*
X3525787D01*
X1297047Y4289197D02*
Y4593528D01*
X1891929D01*
Y4289197D02*
Y4593528D01*
X1297047Y4289197D02*
X1891929D01*
%TF.MD5,f48a22c13b25aadf21314d3a48897340*%
M02*
