%TF.GenerationSoftware,Altium Limited,Altium Designer,20.0.10 (225)*%
G04 Layer_Physical_Order=1*
G04 Layer_Color=255*
%FSLAX26Y26*%
%MOIN*%
%TF.FileFunction,Copper,L1,Top,Signal*%
%TF.Part,Single*%
G01*
G75*
%TA.AperFunction,SMDPad,CuDef*%
%ADD10R,0.106299X0.049213*%
%ADD11R,0.049213X0.106299*%
%ADD12R,0.196850X0.047244*%
%ADD13R,0.196850X0.062992*%
%TA.AperFunction,Conductor*%
%ADD14C,0.105236*%
%TA.AperFunction,ViaPad*%
%ADD15C,0.050000*%
G36*
X3077816Y3657979D02*
X3092771Y3653972D01*
X3107075Y3648047D01*
X3120484Y3640305D01*
X3132767Y3630880D01*
X3143715Y3619932D01*
X3153140Y3607649D01*
X3160881Y3594241D01*
X3166806Y3579936D01*
X3170814Y3564981D01*
X3172835Y3549631D01*
Y3541890D01*
Y3188976D01*
Y3181235D01*
X3170814Y3165885D01*
X3166806Y3150930D01*
X3160881Y3136626D01*
X3153140Y3123217D01*
X3143715Y3110934D01*
X3132767Y3099986D01*
X3120484Y3090561D01*
X3107075Y3082819D01*
X3092771Y3076894D01*
X3077816Y3072887D01*
X3062466Y3070866D01*
X1763912D01*
X1748562Y3072887D01*
X1733607Y3076894D01*
X1719303Y3082819D01*
X1705894Y3090561D01*
X1693611Y3099986D01*
X1682663Y3110934D01*
X1673238Y3123217D01*
X1665496Y3136626D01*
X1659571Y3150930D01*
X1655564Y3165885D01*
X1653543Y3181235D01*
Y3188976D01*
Y3541890D01*
Y3549631D01*
X1655564Y3564981D01*
X1659571Y3579936D01*
X1665496Y3594241D01*
X1673238Y3607649D01*
X1682663Y3619932D01*
X1693611Y3630880D01*
X1705894Y3640305D01*
X1719303Y3648047D01*
X1733607Y3653972D01*
X1748562Y3657979D01*
X1763912Y3660000D01*
X3062466D01*
X3077816Y3657979D01*
D02*
G37*
%LPC*%
G36*
X1902383Y3563122D02*
X1798958D01*
Y3526626D01*
X1902383D01*
Y3563122D01*
D02*
G37*
G36*
X1788958D02*
X1685533D01*
Y3526626D01*
X1788958D01*
Y3563122D01*
D02*
G37*
G36*
X3149370D02*
X3045945D01*
Y3526626D01*
X3149370D01*
Y3563122D01*
D02*
G37*
G36*
X3035945D02*
X2932520D01*
Y3526626D01*
X3035945D01*
Y3563122D01*
D02*
G37*
G36*
X2400514Y3482552D02*
X2400492Y3482548D01*
X2400469Y3482552D01*
X2353665Y3482348D01*
X2340709Y3482386D01*
Y3482477D01*
X2331926D01*
X2331430Y3482518D01*
X2331070Y3482477D01*
X2330970D01*
X2330589Y3482552D01*
X2330207Y3482477D01*
X2271496D01*
Y3471831D01*
X2271145Y3471644D01*
X2261610Y3463819D01*
X2253785Y3454284D01*
X2247971Y3443406D01*
X2244390Y3431602D01*
X2243181Y3419327D01*
X2244390Y3407052D01*
X2247971Y3395248D01*
X2253785Y3384370D01*
X2261610Y3374835D01*
X2271145Y3367010D01*
X2271496Y3366822D01*
Y3356177D01*
X2330207D01*
X2330589Y3356101D01*
X2330611Y3356106D01*
X2330633Y3356102D01*
X2377438Y3356305D01*
X2390394Y3356268D01*
Y3356177D01*
X2399176D01*
X2399672Y3356136D01*
X2400032Y3356177D01*
X2400132D01*
X2400514Y3356101D01*
X2400895Y3356177D01*
X2459606D01*
Y3366822D01*
X2459957Y3367010D01*
X2469492Y3374835D01*
X2477317Y3384370D01*
X2483131Y3395248D01*
X2486712Y3407052D01*
X2487921Y3419327D01*
X2486712Y3431602D01*
X2483131Y3443406D01*
X2477317Y3454284D01*
X2469492Y3463819D01*
X2459957Y3471644D01*
X2459606Y3471831D01*
Y3482477D01*
X2400895D01*
X2400514Y3482552D01*
D02*
G37*
G36*
X3149370Y3516626D02*
X3045945D01*
Y3480130D01*
X3149370D01*
Y3516626D01*
D02*
G37*
G36*
X3035945D02*
X2932520D01*
Y3480492D01*
X2932520Y3480130D01*
X2931646Y3475492D01*
X2719984D01*
X2716978Y3475196D01*
X2571811Y3475196D01*
Y3482477D01*
X2502598D01*
Y3356177D01*
X2505564D01*
X2505580Y3356098D01*
X2507790Y3352790D01*
X2511098Y3350580D01*
X2515000Y3349804D01*
X2718418Y3349804D01*
X2719984Y3349650D01*
X2931646D01*
X2932520Y3345012D01*
X2932520Y3344650D01*
Y3308516D01*
X3035945D01*
Y3345012D01*
X2963094D01*
X2962849Y3350012D01*
X2971448Y3350859D01*
X2983252Y3354439D01*
X2994130Y3360254D01*
X3003665Y3368079D01*
X3011490Y3377614D01*
X3012204Y3378949D01*
X3149370D01*
Y3446193D01*
X3012204D01*
X3011490Y3447528D01*
X3003665Y3457063D01*
X2994130Y3464888D01*
X2983252Y3470702D01*
X2971448Y3474283D01*
X2962849Y3475130D01*
X2963094Y3480130D01*
X3035945D01*
Y3516626D01*
D02*
G37*
G36*
X1902383Y3516626D02*
X1793958D01*
X1685533D01*
Y3480130D01*
X1778155D01*
X1778896Y3475130D01*
X1772309Y3473132D01*
X1761430Y3467317D01*
X1751895Y3459492D01*
X1749466Y3457063D01*
X1741641Y3447528D01*
X1740928Y3446193D01*
X1685533D01*
Y3378949D01*
X1740928D01*
X1741641Y3377614D01*
X1749466Y3368079D01*
X1759001Y3360254D01*
X1769879Y3354439D01*
X1781683Y3350859D01*
X1790283Y3350012D01*
X1790038Y3345012D01*
X1685533D01*
Y3308516D01*
X1793958D01*
X1902383D01*
Y3345012D01*
X1797879D01*
X1797633Y3350012D01*
X1806234Y3350859D01*
X1810256Y3352079D01*
X1987445D01*
X1999720Y3353288D01*
X2005910Y3355166D01*
X2033489D01*
X2045764Y3356375D01*
X2048086Y3357079D01*
X2159291D01*
Y3356177D01*
X2228504D01*
Y3410854D01*
X2229338Y3419327D01*
X2228504Y3427800D01*
Y3482477D01*
X2170258D01*
X2165744Y3482921D01*
X2035402D01*
X2023127Y3481712D01*
X2020805Y3481008D01*
X1990532D01*
X1978256Y3479799D01*
X1972066Y3477921D01*
X1906468D01*
X1902383Y3480130D01*
X1902383Y3482921D01*
Y3516626D01*
D02*
G37*
G36*
X2071024Y3339957D02*
X2012874D01*
Y3310350D01*
X2071024D01*
Y3339957D01*
D02*
G37*
G36*
X2833150D02*
X2775000D01*
Y3310350D01*
X2833150D01*
Y3339957D01*
D02*
G37*
G36*
X2002874D02*
X1944724D01*
Y3310350D01*
X2002874D01*
Y3339957D01*
D02*
G37*
G36*
X2765000D02*
X2706850D01*
Y3310350D01*
X2765000D01*
Y3339957D01*
D02*
G37*
G36*
X3149370Y3345012D02*
X3045945D01*
Y3308516D01*
X3149370D01*
Y3345012D01*
D02*
G37*
G36*
X2833150Y3300350D02*
X2775000D01*
Y3270744D01*
X2833150D01*
Y3300350D01*
D02*
G37*
G36*
X2765000D02*
X2706850D01*
Y3270744D01*
X2765000D01*
Y3300350D01*
D02*
G37*
G36*
X2071024D02*
X2012874D01*
Y3270744D01*
X2071024D01*
Y3300350D01*
D02*
G37*
G36*
X2002874D02*
X1944724D01*
Y3270744D01*
X2002874D01*
Y3300350D01*
D02*
G37*
G36*
X3149370Y3298516D02*
X3045945D01*
Y3262020D01*
X3149370D01*
Y3298516D01*
D02*
G37*
G36*
X3035945D02*
X2932520D01*
Y3262020D01*
X3035945D01*
Y3298516D01*
D02*
G37*
G36*
X1902383Y3298516D02*
X1798958D01*
Y3262020D01*
X1902383D01*
Y3298516D01*
D02*
G37*
G36*
X1788958D02*
X1685533D01*
Y3262020D01*
X1788958D01*
Y3298516D01*
D02*
G37*
%LPD*%
G36*
X2400514Y3472016D02*
X2425000Y3471945D01*
Y3366709D01*
X2400514Y3366602D01*
Y3366297D01*
X2399570Y3366376D01*
X2396737Y3366445D01*
X2377437Y3366501D01*
X2330589Y3366297D01*
Y3366638D01*
X2306102Y3366709D01*
Y3471945D01*
X2330589Y3472052D01*
Y3472356D01*
X2331533Y3472278D01*
X2334365Y3472208D01*
X2353666Y3472152D01*
X2400514Y3472356D01*
Y3472016D01*
D02*
G37*
G36*
X2840000Y3360000D02*
X2515000Y3360000D01*
X2515000Y3465000D01*
X2840000Y3465000D01*
X2840000Y3360000D01*
D02*
G37*
%LPC*%
G36*
X2833150Y3452162D02*
X2775000D01*
Y3422555D01*
X2833150D01*
Y3452162D01*
D02*
G37*
G36*
X2765000D02*
X2706850D01*
Y3422555D01*
X2765000D01*
Y3452162D01*
D02*
G37*
G36*
X2833150Y3412555D02*
X2775000D01*
Y3382949D01*
X2833150D01*
Y3412555D01*
D02*
G37*
G36*
X2765000D02*
X2706850D01*
Y3382949D01*
X2765000D01*
Y3412555D01*
D02*
G37*
%LPD*%
D10*
X2770000Y3417555D02*
D03*
Y3305351D02*
D03*
X2007874Y3417555D02*
D03*
Y3305351D02*
D03*
D11*
X2537205Y3419327D02*
D03*
X2425000D02*
D03*
X2306102D02*
D03*
X2193898D02*
D03*
D12*
X3040945Y3412571D02*
D03*
X1793958D02*
D03*
D13*
X3040945Y3521626D02*
D03*
Y3303516D02*
D03*
X1793958D02*
D03*
Y3521626D02*
D03*
D14*
Y3412571D02*
X1796387Y3415000D01*
X1987445D02*
X1990000Y3417555D01*
X1796387Y3415000D02*
X1987445D01*
X2306102Y3419327D02*
X2425000D01*
X2035402Y3420000D02*
X2165744D01*
X1990532Y3418087D02*
X2033489D01*
X2035402Y3420000D01*
X2165744D02*
X2166417Y3419327D01*
X2719984Y3412571D02*
X2959173D01*
D15*
X2370000Y3527618D02*
D03*
X2680000Y3240000D02*
D03*
X2875000Y3310000D02*
D03*
X2900000Y3600000D02*
D03*
X2885000Y3520000D02*
D03*
X1810000Y3600000D02*
D03*
X1940000Y3580000D02*
D03*
X1945000Y3230000D02*
D03*
X2030000D02*
D03*
X1975000Y3515000D02*
D03*
X2085000D02*
D03*
X2105000Y3310875D02*
D03*
X2195000D02*
D03*
X2180000Y3515000D02*
D03*
X2470000Y3310875D02*
D03*
X2274169Y3515000D02*
D03*
X2271856Y3310875D02*
D03*
X2380000D02*
D03*
X2540000D02*
D03*
X2458743Y3515000D02*
D03*
X2815000D02*
D03*
X2735000D02*
D03*
X2641332D02*
D03*
X2555000D02*
D03*
X2625000Y3310875D02*
D03*
X2825000Y3235000D02*
D03*
X1855000Y3205000D02*
D03*
%TF.MD5,ec7ede39f90bdefa054e8e6cd4390a15*%
M02*
