%TF.GenerationSoftware,Altium Limited,Altium Designer,20.0.10 (225)*%
G04 Layer_Color=65535*
%FSLAX26Y26*%
%MOIN*%
%TF.FileFunction,Legend,Top*%
%TF.Part,Single*%
G01*
G75*
G36*
X4499882Y1312405D02*
X4478227D01*
Y1334059D01*
X4499882D01*
Y1312405D01*
D02*
G37*
G36*
X4472814D02*
X4451160D01*
Y1334059D01*
X4472814D01*
Y1312405D01*
D02*
G37*
G36*
X4445747D02*
X4424092Y1312405D01*
Y1334059D01*
X4445747Y1334059D01*
Y1312405D01*
D02*
G37*
G36*
X4418679Y1312405D02*
X4397025D01*
Y1334059D01*
X4418679D01*
Y1312405D01*
D02*
G37*
G36*
X4364544D02*
X4342890D01*
Y1334059D01*
X4364544D01*
Y1312405D01*
D02*
G37*
G36*
X4256274D02*
X4234620D01*
Y1334059D01*
X4256274D01*
Y1312405D01*
D02*
G37*
G36*
X4202139D02*
X4180485D01*
Y1334059D01*
X4202139D01*
Y1312405D01*
D02*
G37*
G36*
X4175072D02*
X4153417D01*
Y1334059D01*
X4175072D01*
Y1312405D01*
D02*
G37*
G36*
X4148004D02*
X4126350D01*
Y1334059D01*
X4148004D01*
Y1312405D01*
D02*
G37*
G36*
X4120936D02*
X4099283D01*
Y1334059D01*
X4120936D01*
Y1312405D01*
D02*
G37*
G36*
X4093869D02*
X4072215D01*
Y1334059D01*
X4093869D01*
Y1312405D01*
D02*
G37*
G36*
X4012666D02*
X3991012D01*
Y1334059D01*
X4012666D01*
Y1312405D01*
D02*
G37*
G36*
X3985599D02*
X3963945D01*
Y1334059D01*
X3985599D01*
Y1312405D01*
D02*
G37*
G36*
X3958532D02*
X3936878D01*
Y1334059D01*
X3958532D01*
Y1312405D01*
D02*
G37*
G36*
X3850262Y1312405D02*
X3828608D01*
Y1334059D01*
X3850262D01*
Y1312405D01*
D02*
G37*
G36*
X3823194D02*
X3801540D01*
Y1334059D01*
X3823194D01*
Y1312405D01*
D02*
G37*
G36*
X3796126D02*
X3774472D01*
Y1334059D01*
X3796126D01*
Y1312405D01*
D02*
G37*
G36*
X3687856D02*
X3666202D01*
Y1334059D01*
X3687856D01*
Y1312405D01*
D02*
G37*
G36*
X4526949Y1285338D02*
X4505295D01*
Y1306992D01*
X4526949D01*
Y1285338D01*
D02*
G37*
G36*
X4418679Y1285338D02*
X4397025D01*
Y1306992D01*
X4418679D01*
Y1285338D01*
D02*
G37*
G36*
X4364544D02*
X4342890D01*
Y1306992D01*
X4364544D01*
Y1285338D01*
D02*
G37*
G36*
X4337476D02*
X4315823D01*
Y1306992D01*
X4337476D01*
Y1285338D01*
D02*
G37*
G36*
X4283342D02*
X4261688D01*
Y1306992D01*
X4283342D01*
Y1285338D01*
D02*
G37*
G36*
X4256274D02*
X4234620D01*
Y1306992D01*
X4256274D01*
Y1285338D01*
D02*
G37*
G36*
X4148004D02*
X4126350D01*
Y1306992D01*
X4148004D01*
Y1285338D01*
D02*
G37*
G36*
X4039734D02*
X4018080D01*
Y1306992D01*
X4039734D01*
Y1285338D01*
D02*
G37*
G36*
X3931464D02*
X3909810D01*
Y1306992D01*
X3931464D01*
Y1285338D01*
D02*
G37*
G36*
X3877329D02*
X3855675Y1285338D01*
Y1306992D01*
X3877329Y1306992D01*
Y1285338D01*
D02*
G37*
G36*
X3769059Y1285338D02*
X3747405D01*
Y1306992D01*
X3769059D01*
Y1285338D01*
D02*
G37*
G36*
X3687856D02*
X3666202D01*
Y1306992D01*
X3687856D01*
Y1285338D01*
D02*
G37*
G36*
X3660789D02*
X3639135D01*
Y1306992D01*
X3660789D01*
Y1285338D01*
D02*
G37*
G36*
X4526949Y1258270D02*
X4505295D01*
Y1279924D01*
X4526949D01*
Y1258270D01*
D02*
G37*
G36*
X4418679Y1258270D02*
X4397025D01*
Y1279924D01*
X4418679D01*
Y1258270D01*
D02*
G37*
G36*
X4364544D02*
X4342890D01*
Y1279924D01*
X4364544D01*
Y1258270D01*
D02*
G37*
G36*
X4310409D02*
X4288755D01*
Y1279924D01*
X4310409D01*
Y1258270D01*
D02*
G37*
G36*
X4256274D02*
X4234620D01*
Y1279924D01*
X4256274D01*
Y1258270D01*
D02*
G37*
G36*
X4148004D02*
X4126350D01*
Y1279924D01*
X4148004D01*
Y1258270D01*
D02*
G37*
G36*
X3931464D02*
X3909810D01*
Y1279924D01*
X3931464D01*
Y1258270D01*
D02*
G37*
G36*
X3769059Y1258270D02*
X3747405D01*
Y1279924D01*
X3769059D01*
Y1258270D01*
D02*
G37*
G36*
X3687856D02*
X3666202D01*
Y1279924D01*
X3687856D01*
Y1258270D01*
D02*
G37*
G36*
X3633722D02*
X3612068D01*
Y1279924D01*
X3633722D01*
Y1258270D01*
D02*
G37*
G36*
X4499882Y1231203D02*
X4478227D01*
Y1252857D01*
X4499882D01*
Y1231203D01*
D02*
G37*
G36*
X4472814D02*
X4451160D01*
Y1252857D01*
X4472814D01*
Y1231203D01*
D02*
G37*
G36*
X4445747D02*
X4424092Y1231203D01*
Y1252857D01*
X4445747Y1252857D01*
Y1231203D01*
D02*
G37*
G36*
X4418679Y1231203D02*
X4397025D01*
Y1252857D01*
X4418679D01*
Y1231203D01*
D02*
G37*
G36*
X4364544D02*
X4342890D01*
Y1252857D01*
X4364544D01*
Y1231203D01*
D02*
G37*
G36*
X4256274D02*
X4234620D01*
Y1252857D01*
X4256274D01*
Y1231203D01*
D02*
G37*
G36*
X4148004D02*
X4126350D01*
Y1252857D01*
X4148004D01*
Y1231203D01*
D02*
G37*
G36*
X4012666D02*
X3991012D01*
Y1252857D01*
X4012666D01*
Y1231203D01*
D02*
G37*
G36*
X3985599D02*
X3963945D01*
Y1252857D01*
X3985599D01*
Y1231203D01*
D02*
G37*
G36*
X3958532D02*
X3936878D01*
Y1252857D01*
X3958532D01*
Y1231203D01*
D02*
G37*
G36*
X3931464D02*
X3909810D01*
Y1252857D01*
X3931464D01*
Y1231203D01*
D02*
G37*
G36*
X3850262Y1231203D02*
X3828608D01*
Y1252857D01*
X3850262D01*
Y1231203D01*
D02*
G37*
G36*
X3823194D02*
X3801540D01*
Y1252857D01*
X3823194D01*
Y1231203D01*
D02*
G37*
G36*
X3796126D02*
X3774472D01*
Y1252857D01*
X3796126D01*
Y1231203D01*
D02*
G37*
G36*
X3687856D02*
X3666202D01*
Y1252857D01*
X3687856D01*
Y1231203D01*
D02*
G37*
G36*
X3606654D02*
X3585000D01*
Y1252857D01*
X3606654D01*
Y1231203D01*
D02*
G37*
G36*
X4418679Y1204135D02*
X4397025D01*
Y1225789D01*
X4418679D01*
Y1204135D01*
D02*
G37*
G36*
X4364544D02*
X4342890D01*
Y1225789D01*
X4364544D01*
Y1204135D01*
D02*
G37*
G36*
X4256274D02*
X4234620D01*
Y1225789D01*
X4256274D01*
Y1204135D01*
D02*
G37*
G36*
X4148004D02*
X4126350D01*
Y1225789D01*
X4148004D01*
Y1204135D01*
D02*
G37*
G36*
X4039734D02*
X4018080D01*
Y1225789D01*
X4039734D01*
Y1204135D01*
D02*
G37*
G36*
X3931464D02*
X3909810D01*
Y1225789D01*
X3931464D01*
Y1204135D01*
D02*
G37*
G36*
X3877329D02*
X3855675Y1204135D01*
Y1225789D01*
X3877329Y1225789D01*
Y1204135D01*
D02*
G37*
G36*
X3714924Y1204135D02*
X3693270D01*
Y1225789D01*
X3714924D01*
Y1204135D01*
D02*
G37*
G36*
X3687856D02*
X3666202D01*
Y1225789D01*
X3687856D01*
Y1204135D01*
D02*
G37*
G36*
X3660789D02*
X3639135D01*
Y1225789D01*
X3660789D01*
Y1204135D01*
D02*
G37*
G36*
X3633722D02*
X3612068D01*
Y1225789D01*
X3633722D01*
Y1204135D01*
D02*
G37*
G36*
X3606654D02*
X3585000D01*
Y1225789D01*
X3606654D01*
Y1204135D01*
D02*
G37*
G36*
X4418679Y1177068D02*
X4397025D01*
Y1198722D01*
X4418679D01*
Y1177068D01*
D02*
G37*
G36*
X4364544D02*
X4342890D01*
Y1198722D01*
X4364544D01*
Y1177068D01*
D02*
G37*
G36*
X4256274D02*
X4234620D01*
Y1198722D01*
X4256274D01*
Y1177068D01*
D02*
G37*
G36*
X4148004D02*
X4126350D01*
Y1198722D01*
X4148004D01*
Y1177068D01*
D02*
G37*
G36*
X4039734D02*
X4018080D01*
Y1198722D01*
X4039734D01*
Y1177068D01*
D02*
G37*
G36*
X3931464D02*
X3909810D01*
Y1198722D01*
X3931464D01*
Y1177068D01*
D02*
G37*
G36*
X3877329D02*
X3855675Y1177068D01*
Y1198722D01*
X3877329Y1198722D01*
Y1177068D01*
D02*
G37*
G36*
X3769059Y1177068D02*
X3747405D01*
Y1198722D01*
X3769059D01*
Y1177068D01*
D02*
G37*
G36*
X3687856D02*
X3666202D01*
Y1198722D01*
X3687856D01*
Y1177068D01*
D02*
G37*
G36*
X4418679Y1150000D02*
X4397025D01*
Y1171654D01*
X4418679D01*
Y1150000D01*
D02*
G37*
G36*
X4364544D02*
X4342890D01*
Y1171654D01*
X4364544D01*
Y1150000D01*
D02*
G37*
G36*
X4256274D02*
X4234620D01*
Y1171654D01*
X4256274D01*
Y1150000D01*
D02*
G37*
G36*
X4148004D02*
X4126350D01*
Y1171654D01*
X4148004D01*
Y1150000D01*
D02*
G37*
G36*
X4012666D02*
X3991012D01*
Y1171654D01*
X4012666D01*
Y1150000D01*
D02*
G37*
G36*
X3985599D02*
X3963945D01*
Y1171654D01*
X3985599D01*
Y1150000D01*
D02*
G37*
G36*
X3958532D02*
X3936878D01*
Y1171654D01*
X3958532D01*
Y1150000D01*
D02*
G37*
G36*
X3850262Y1150000D02*
X3828608D01*
Y1171654D01*
X3850262D01*
Y1150000D01*
D02*
G37*
G36*
X3823194D02*
X3801540D01*
Y1171654D01*
X3823194D01*
Y1150000D01*
D02*
G37*
G36*
X3796126D02*
X3774472D01*
Y1171654D01*
X3796126D01*
Y1150000D01*
D02*
G37*
G36*
X3687856D02*
X3666202D01*
Y1171654D01*
X3687856D01*
Y1150000D01*
D02*
G37*
%TF.MD5,96c62c1abf0ba2ff8000f687a190c5b9*%
M02*
