%TF.GenerationSoftware,Altium Limited,Altium Designer,20.0.10 (225)*%
G04 Layer_Color=16711935*
%FSLAX26Y26*%
%MOIN*%
%TF.FileFunction,Soldermask,Bot*%
%TF.Part,Single*%
G01*
G75*
%TA.AperFunction,SMDPad,CuDef*%
%ADD12R,0.062992X0.196850*%
%TA.AperFunction,ViaPad*%
%ADD17C,0.058000*%
D12*
X4101398Y4722047D02*
D03*
X3883287D02*
D03*
Y3474803D02*
D03*
X4101398D02*
D03*
D17*
X4185000Y4660000D02*
D03*
X3810000Y4730000D02*
D03*
X3885000Y4570000D02*
D03*
X3855000Y3625000D02*
D03*
X4105906Y3610084D02*
D03*
X4215000Y4375000D02*
D03*
X4190000Y4605000D02*
D03*
X4199453Y3586359D02*
D03*
X4233196Y3787249D02*
D03*
X3910153Y4204356D02*
D03*
X3906548Y4124910D02*
D03*
Y4045383D02*
D03*
X3906626Y3965855D02*
D03*
X3920619Y3887568D02*
D03*
X4100000Y3960000D02*
D03*
X4095000Y4040000D02*
D03*
X4082991Y4120496D02*
D03*
X4077327Y4199822D02*
D03*
X4081588Y4279235D02*
D03*
X3906548Y3827910D02*
D03*
X3907157Y3748385D02*
D03*
X3903968Y3668921D02*
D03*
X4083906Y3790509D02*
D03*
X4078797Y3869872D02*
D03*
X3903968Y4499222D02*
D03*
X3907157Y4419759D02*
D03*
X3906548Y4340234D02*
D03*
X4083452Y4340348D02*
D03*
X4325000Y3400000D02*
D03*
X4145000Y4380000D02*
D03*
%TF.MD5,fe5b104f1edcb0d871b46b1fa8162a4e*%
M02*
