%TF.GenerationSoftware,Altium Limited,Altium Designer,20.0.10 (225)*%
G04 Layer_Physical_Order=2*
G04 Layer_Color=16711680*
%FSLAX26Y26*%
%MOIN*%
%TF.FileFunction,Copper,L2,Bot,Signal*%
%TF.Part,Single*%
G01*
G75*
%TA.AperFunction,SMDPad,CuDef*%
%ADD13R,0.196850X0.062992*%
%TA.AperFunction,ViaPad*%
%ADD15C,0.050000*%
G36*
X3077816Y3657979D02*
X3092771Y3653972D01*
X3107075Y3648047D01*
X3120484Y3640305D01*
X3132767Y3630880D01*
X3143715Y3619932D01*
X3153140Y3607649D01*
X3160881Y3594241D01*
X3166806Y3579936D01*
X3170814Y3564981D01*
X3172835Y3549631D01*
Y3541890D01*
Y3188976D01*
Y3181235D01*
X3170814Y3165885D01*
X3166806Y3150930D01*
X3160881Y3136626D01*
X3153140Y3123217D01*
X3143715Y3110934D01*
X3132767Y3099986D01*
X3120484Y3090561D01*
X3107075Y3082819D01*
X3092771Y3076894D01*
X3077816Y3072887D01*
X3062466Y3070866D01*
X1763912D01*
X1748562Y3072887D01*
X1733607Y3076894D01*
X1719303Y3082819D01*
X1705894Y3090561D01*
X1693611Y3099986D01*
X1682663Y3110934D01*
X1673238Y3123217D01*
X1665496Y3136626D01*
X1659571Y3150930D01*
X1655564Y3165885D01*
X1653543Y3181235D01*
Y3188976D01*
Y3541890D01*
Y3549631D01*
X1655564Y3564981D01*
X1659571Y3579936D01*
X1665496Y3594241D01*
X1673238Y3607649D01*
X1682663Y3619932D01*
X1693611Y3630880D01*
X1705894Y3640305D01*
X1719303Y3648047D01*
X1733607Y3653972D01*
X1748562Y3657979D01*
X1763912Y3660000D01*
X3062466D01*
X3077816Y3657979D01*
D02*
G37*
%LPC*%
G36*
X1902383Y3563122D02*
X1798958D01*
Y3526626D01*
X1902383D01*
Y3563122D01*
D02*
G37*
G36*
X1788958D02*
X1685533D01*
Y3526626D01*
X1788958D01*
Y3563122D01*
D02*
G37*
G36*
X3149370D02*
X3045945D01*
Y3526626D01*
X3149370D01*
Y3563122D01*
D02*
G37*
G36*
X3035945D02*
X2932520D01*
Y3526626D01*
X3035945D01*
Y3563122D01*
D02*
G37*
G36*
X3149370Y3516626D02*
X3045945D01*
Y3480130D01*
X3149370D01*
Y3516626D01*
D02*
G37*
G36*
X3035945D02*
X2932520D01*
Y3480130D01*
X3035945D01*
Y3516626D01*
D02*
G37*
G36*
X1902383Y3516626D02*
X1798958D01*
Y3480130D01*
X1902383D01*
Y3516626D01*
D02*
G37*
G36*
X1788958D02*
X1685533D01*
Y3480130D01*
X1788958D01*
Y3516626D01*
D02*
G37*
G36*
X1902383Y3345012D02*
X1798958D01*
Y3308516D01*
X1902383D01*
Y3345012D01*
D02*
G37*
G36*
X1788958D02*
X1685533D01*
Y3308516D01*
X1788958D01*
Y3345012D01*
D02*
G37*
G36*
X3149370D02*
X3045945D01*
Y3308516D01*
X3149370D01*
Y3345012D01*
D02*
G37*
G36*
X3035945D02*
X2932520D01*
Y3308516D01*
X3035945D01*
Y3345012D01*
D02*
G37*
G36*
X3149370Y3298516D02*
X3045945D01*
Y3262020D01*
X3149370D01*
Y3298516D01*
D02*
G37*
G36*
X3035945D02*
X2932520D01*
Y3262020D01*
X3035945D01*
Y3298516D01*
D02*
G37*
G36*
X1902383Y3298516D02*
X1798958D01*
Y3262020D01*
X1902383D01*
Y3298516D01*
D02*
G37*
G36*
X1788958D02*
X1685533D01*
Y3262020D01*
X1788958D01*
Y3298516D01*
D02*
G37*
%LPD*%
D13*
X3040945Y3521626D02*
D03*
Y3303516D02*
D03*
X1793958D02*
D03*
Y3521626D02*
D03*
D15*
X2370000Y3527618D02*
D03*
X2680000Y3240000D02*
D03*
X2875000Y3310000D02*
D03*
X2900000Y3600000D02*
D03*
X2885000Y3520000D02*
D03*
X1810000Y3600000D02*
D03*
X1940000Y3580000D02*
D03*
X1945000Y3230000D02*
D03*
X2030000D02*
D03*
X1975000Y3515000D02*
D03*
X2085000D02*
D03*
X2105000Y3310875D02*
D03*
X2195000D02*
D03*
X2180000Y3515000D02*
D03*
X2470000Y3310875D02*
D03*
X2274169Y3515000D02*
D03*
X2271856Y3310875D02*
D03*
X2380000D02*
D03*
X2540000D02*
D03*
X2458743Y3515000D02*
D03*
X2815000D02*
D03*
X2735000D02*
D03*
X2641332D02*
D03*
X2555000D02*
D03*
X2625000Y3310875D02*
D03*
X2825000Y3235000D02*
D03*
X1855000Y3205000D02*
D03*
%TF.MD5,4e9ef5ac80ea920e38089c06379daabe*%
M02*
