%TF.GenerationSoftware,Altium Limited,Altium Designer,20.0.10 (225)*%
G04 Layer_Physical_Order=1*
G04 Layer_Color=255*
%FSLAX26Y26*%
%MOIN*%
%TF.FileFunction,Copper,L1,Top,Signal*%
%TF.Part,Single*%
G01*
G75*
%TA.AperFunction,SMDPad,CuDef*%
%ADD10R,0.049213X0.106299*%
%ADD11R,0.106299X0.049213*%
%ADD12R,0.062992X0.196850*%
%ADD13R,0.047244X0.196850*%
%TA.AperFunction,Conductor*%
%ADD14C,0.105236*%
%ADD15C,0.059055*%
%TA.AperFunction,ViaPad*%
%ADD16C,0.050000*%
G36*
X4314430Y4863727D02*
X4329385Y4859720D01*
X4343689Y4853795D01*
X4357098Y4846053D01*
X4369381Y4836628D01*
X4380329Y4825680D01*
X4389754Y4813397D01*
X4397496Y4799989D01*
X4403421Y4785685D01*
X4407428Y4770729D01*
X4409449Y4755379D01*
Y4747638D01*
Y3464567D01*
Y3456825D01*
X4407428Y3441475D01*
X4403421Y3426520D01*
X4397496Y3412216D01*
X4389754Y3398807D01*
X4380329Y3386524D01*
X4369381Y3375576D01*
X4357098Y3366151D01*
X4343689Y3358410D01*
X4329385Y3352485D01*
X4314430Y3348477D01*
X4299080Y3346457D01*
X3811156D01*
X3795806Y3348477D01*
X3780851Y3352485D01*
X3766547Y3358410D01*
X3753138Y3366151D01*
X3740855Y3375576D01*
X3729907Y3386524D01*
X3720482Y3398807D01*
X3712740Y3412216D01*
X3706816Y3426520D01*
X3702808Y3441475D01*
X3700787Y3456825D01*
Y3464567D01*
Y4747638D01*
Y4755379D01*
X3702808Y4770729D01*
X3706816Y4785685D01*
X3712740Y4799989D01*
X3720482Y4813397D01*
X3729907Y4825680D01*
X3740855Y4836628D01*
X3753138Y4846053D01*
X3766547Y4853795D01*
X3780851Y4859720D01*
X3795806Y4863727D01*
X3811156Y4865748D01*
X4299080D01*
X4314430Y4863727D01*
D02*
G37*
%LPC*%
G36*
X4142894Y4830472D02*
X4106398D01*
Y4727047D01*
X4142894D01*
Y4830472D01*
D02*
G37*
G36*
X4096398D02*
X4059901D01*
Y4727047D01*
X4096398D01*
Y4830472D01*
D02*
G37*
G36*
X3924783D02*
X3888287D01*
Y4727047D01*
X3924783D01*
Y4830472D01*
D02*
G37*
G36*
X3878287D02*
X3841791D01*
Y4727047D01*
X3878287D01*
Y4830472D01*
D02*
G37*
G36*
X4025964D02*
X3958720D01*
Y4727834D01*
X3957385Y4727120D01*
X3947851Y4719295D01*
X3940025Y4709760D01*
X3934211Y4698882D01*
X3930630Y4687078D01*
X3929783Y4678479D01*
X3924783Y4678724D01*
Y4717047D01*
X3888287D01*
Y4613622D01*
X3924421D01*
X3924783Y4613622D01*
X3929421Y4612748D01*
Y4480532D01*
X3930630Y4468256D01*
X3932605Y4461748D01*
X3932153Y4390709D01*
X3931850D01*
Y4380970D01*
X3931774Y4380589D01*
X3931850Y4380207D01*
Y4321496D01*
X3942495D01*
X3942683Y4321145D01*
X3950508Y4311610D01*
X3960043Y4303785D01*
X3970921Y4297971D01*
X3982725Y4294390D01*
X3995000Y4293181D01*
X4007275Y4294390D01*
X4019079Y4297971D01*
X4029957Y4303785D01*
X4039492Y4311610D01*
X4040023Y4312142D01*
X4047700Y4321496D01*
X4058150D01*
Y4353557D01*
X4058453Y4356634D01*
Y4465792D01*
X4059039Y4467725D01*
X4060248Y4480000D01*
X4059039Y4492275D01*
X4055458Y4504079D01*
X4055264Y4504443D01*
Y4612748D01*
X4059901Y4613622D01*
X4060264Y4613622D01*
X4096398D01*
Y4717047D01*
X4059901D01*
Y4678724D01*
X4054901Y4678479D01*
X4054055Y4687078D01*
X4050474Y4698882D01*
X4044659Y4709760D01*
X4036834Y4719295D01*
X4027300Y4727120D01*
X4025964Y4727834D01*
Y4830472D01*
D02*
G37*
G36*
X4142894Y4717047D02*
X4106398D01*
Y4613622D01*
X4142894D01*
Y4717047D01*
D02*
G37*
G36*
X3878287D02*
X3841791D01*
Y4613622D01*
X3878287D01*
Y4717047D01*
D02*
G37*
G36*
X4174966Y4543225D02*
X4174585Y4543150D01*
X4164846D01*
Y4534275D01*
X4164460Y4531356D01*
X4163866Y4530015D01*
X4162615Y4528521D01*
X4160213Y4526746D01*
X4156376Y4524880D01*
X4154492Y4524266D01*
X4152608Y4524880D01*
X4148771Y4526746D01*
X4146369Y4528521D01*
X4145118Y4530015D01*
X4144524Y4531356D01*
X4144138Y4534275D01*
Y4543150D01*
X4134399D01*
X4134018Y4543225D01*
X4133636Y4543150D01*
X4074925D01*
Y4499743D01*
X4071021Y4490319D01*
X4069663Y4480000D01*
X4071021Y4469681D01*
X4074925Y4460257D01*
Y4416850D01*
X4133636D01*
X4134018Y4416775D01*
X4134399Y4416850D01*
X4144138D01*
Y4425725D01*
X4144524Y4428644D01*
X4145118Y4429985D01*
X4146369Y4431479D01*
X4148771Y4433254D01*
X4152608Y4435120D01*
X4154492Y4435734D01*
X4156376Y4435120D01*
X4160213Y4433254D01*
X4162615Y4431479D01*
X4163866Y4429985D01*
X4164460Y4428644D01*
X4164846Y4425725D01*
Y4416850D01*
X4174585D01*
X4174966Y4416775D01*
X4175348Y4416850D01*
X4234059D01*
Y4460257D01*
X4237963Y4469681D01*
X4239321Y4480000D01*
X4237963Y4490319D01*
X4234059Y4499743D01*
Y4543150D01*
X4175348D01*
X4174966Y4543225D01*
D02*
G37*
G36*
X4346264Y4543150D02*
X4316658D01*
Y4485000D01*
X4346264D01*
Y4543150D01*
D02*
G37*
G36*
X4306658D02*
X4277051D01*
Y4525674D01*
Y4485000D01*
X4306658D01*
Y4543150D01*
D02*
G37*
G36*
X4346264Y4475000D02*
X4316658D01*
Y4416850D01*
X4346264D01*
Y4475000D01*
D02*
G37*
G36*
X4306658D02*
X4277051D01*
Y4416850D01*
X4306658D01*
Y4475000D01*
D02*
G37*
G36*
X3995000Y4283766D02*
X3984681Y4282408D01*
X3975257Y4278504D01*
X3931850D01*
Y4219793D01*
X3931774Y4219411D01*
X3931850Y4219030D01*
Y4209291D01*
X3940725D01*
X3943644Y4208905D01*
X3944985Y4208310D01*
X3946479Y4207060D01*
X3948254Y4204658D01*
X3950120Y4200821D01*
X3951608Y4196250D01*
X3950120Y4191679D01*
X3948254Y4187842D01*
X3946479Y4185440D01*
X3944985Y4184189D01*
X3943644Y4183595D01*
X3940725Y4183209D01*
X3931850D01*
Y4173470D01*
X3931774Y4173089D01*
X3931850Y4172707D01*
Y4113996D01*
X3975257D01*
X3984681Y4110092D01*
X3995000Y4108734D01*
X4005319Y4110092D01*
X4014743Y4113996D01*
X4058150D01*
Y4172707D01*
X4058226Y4173089D01*
X4058150Y4173470D01*
Y4183209D01*
X4049275D01*
X4046356Y4183595D01*
X4045015Y4184189D01*
X4043521Y4185440D01*
X4041746Y4187842D01*
X4039880Y4191679D01*
X4038392Y4196250D01*
X4039880Y4200821D01*
X4041746Y4204658D01*
X4043521Y4207060D01*
X4045015Y4208310D01*
X4046356Y4208905D01*
X4049275Y4209291D01*
X4058150D01*
Y4219030D01*
X4058226Y4219411D01*
X4058150Y4219793D01*
Y4251635D01*
D01*
Y4268290D01*
Y4278504D01*
X4014743D01*
X4005319Y4282408D01*
X3995000Y4283766D01*
D02*
G37*
G36*
Y4099319D02*
X3982725Y4098110D01*
X3970921Y4094529D01*
X3960043Y4088715D01*
X3950508Y4080890D01*
X3942683Y4071355D01*
X3942495Y4071004D01*
X3931850D01*
Y4012293D01*
X3931774Y4011911D01*
X3931780Y4011882D01*
X3931775Y4011853D01*
X3931959Y3979603D01*
X3931850Y3974606D01*
X3931850D01*
Y3965737D01*
X3931834Y3965589D01*
X3931850Y3965406D01*
Y3964868D01*
X3931774Y3964486D01*
X3931850Y3964105D01*
Y3905394D01*
X3942495D01*
X3942683Y3905043D01*
X3950508Y3895508D01*
X3960043Y3887683D01*
X3970921Y3881869D01*
X3982725Y3878288D01*
X3995000Y3877079D01*
X4007275Y3878288D01*
X4019079Y3881869D01*
X4029957Y3887683D01*
X4039492Y3895508D01*
X4047317Y3905043D01*
X4047505Y3905394D01*
X4058150D01*
Y3907233D01*
D01*
Y3924953D01*
Y3964105D01*
X4058226Y3964486D01*
X4058220Y3964515D01*
X4058225Y3964545D01*
X4058041Y3996795D01*
X4058150Y4001791D01*
X4058150D01*
Y4010661D01*
X4058166Y4010809D01*
X4058150Y4010991D01*
Y4011530D01*
X4058226Y4011911D01*
X4058150Y4012293D01*
Y4071004D01*
X4047505D01*
X4047317Y4071355D01*
X4039492Y4080890D01*
X4029957Y4088715D01*
X4019079Y4094529D01*
X4007275Y4098110D01*
X3995000Y4099319D01*
D02*
G37*
G36*
X4174966Y3763226D02*
X4174585Y3763150D01*
X4164846D01*
Y3754275D01*
X4164460Y3751356D01*
X4163866Y3750015D01*
X4162615Y3748521D01*
X4160213Y3746746D01*
X4156376Y3744880D01*
X4154492Y3744267D01*
X4152608Y3744880D01*
X4148771Y3746746D01*
X4146369Y3748521D01*
X4145118Y3750015D01*
X4144524Y3751356D01*
X4144138Y3754275D01*
Y3763150D01*
X4134399D01*
X4134018Y3763226D01*
X4133636Y3763150D01*
X4074925D01*
Y3719743D01*
X4071021Y3710319D01*
X4069663Y3700000D01*
X4071021Y3689681D01*
X4074925Y3680257D01*
Y3636850D01*
X4133636D01*
X4134018Y3636774D01*
X4134399Y3636850D01*
X4144138D01*
Y3645725D01*
X4144524Y3648644D01*
X4145118Y3649985D01*
X4146369Y3651479D01*
X4148771Y3653254D01*
X4152608Y3655120D01*
X4154492Y3655733D01*
X4156376Y3655120D01*
X4160213Y3653254D01*
X4162615Y3651479D01*
X4163866Y3649985D01*
X4164460Y3648644D01*
X4164846Y3645725D01*
Y3636850D01*
X4174585D01*
X4174966Y3636774D01*
X4175348Y3636850D01*
X4234059D01*
Y3680257D01*
X4237963Y3689681D01*
X4239321Y3700000D01*
X4237963Y3710319D01*
X4234059Y3719743D01*
D01*
Y3763150D01*
X4175348D01*
X4174966Y3763226D01*
D02*
G37*
G36*
X4346264Y3763150D02*
X4316658D01*
Y3705000D01*
X4346264D01*
Y3763150D01*
D02*
G37*
G36*
X4306658D02*
X4277051D01*
Y3705000D01*
X4306658D01*
Y3763150D01*
D02*
G37*
G36*
X4346264Y3695000D02*
X4316658D01*
Y3636850D01*
X4346264D01*
Y3695000D01*
D02*
G37*
G36*
X4306658D02*
X4277051D01*
Y3636850D01*
X4306658D01*
Y3695000D01*
D02*
G37*
G36*
X3995532Y3862705D02*
X3992455Y3862402D01*
X3931850D01*
Y3793189D01*
X3932610D01*
Y3712082D01*
X3931386Y3708047D01*
X3930177Y3695772D01*
Y3483402D01*
X3929783Y3482696D01*
X3924783Y3483996D01*
D01*
Y3583228D01*
X3888287D01*
Y3474803D01*
X3883287D01*
D01*
X3888287D01*
Y3366378D01*
X3924783D01*
Y3366378D01*
Y3470883D01*
D01*
D01*
X3929783Y3471128D01*
X3930630Y3462528D01*
D01*
X3934211Y3450724D01*
X3940025Y3439846D01*
X3947851Y3430311D01*
X3957385Y3422486D01*
X3958720Y3421773D01*
Y3366378D01*
X4025964D01*
Y3367466D01*
Y3421773D01*
X4027300Y3422486D01*
X4036834Y3430311D01*
X4037590Y3431067D01*
X4045415Y3440602D01*
X4051230Y3451480D01*
X4054811Y3463284D01*
X4054901Y3464208D01*
X4059901Y3463962D01*
Y3366378D01*
X4096398D01*
Y3474803D01*
Y3583228D01*
X4061020D01*
X4059901Y3583229D01*
X4056019Y3585927D01*
Y3677771D01*
X4059039Y3687725D01*
X4060248Y3700000D01*
X4059039Y3712275D01*
X4058453Y3714208D01*
Y3799784D01*
X4058150Y3802860D01*
Y3862402D01*
X3998608D01*
X3995532Y3862705D01*
D02*
G37*
G36*
X4106398Y3583228D02*
Y3479803D01*
X4142894D01*
Y3583228D01*
X4106398D01*
D02*
G37*
G36*
X3878287D02*
X3841791D01*
Y3479803D01*
X3878287D01*
Y3583228D01*
D02*
G37*
G36*
X4142894Y3469803D02*
X4106398D01*
Y3366378D01*
X4142894D01*
Y3469803D01*
D02*
G37*
G36*
X3878287D02*
X3841791D01*
Y3366378D01*
X3878287D01*
Y3469803D01*
D02*
G37*
%LPD*%
G36*
X4048030Y4380589D02*
X3941970D01*
X3942150Y4381577D01*
X3942310Y4384544D01*
X3942913Y4479468D01*
X4048150D01*
X4048030Y4380589D01*
D02*
G37*
G36*
X4174966Y4510246D02*
X4181852Y4509763D01*
X4193073Y4509528D01*
Y4450472D01*
X4181852Y4450237D01*
X4174966Y4449552D01*
Y4426970D01*
X4174376Y4431436D01*
X4172604Y4435431D01*
X4169651Y4438956D01*
X4165518Y4442012D01*
X4160203Y4444597D01*
X4154492Y4446456D01*
X4148782Y4444597D01*
X4143467Y4442012D01*
X4139333Y4438956D01*
X4136380Y4435431D01*
X4134608Y4431436D01*
X4134018Y4426970D01*
Y4449754D01*
X4127132Y4450237D01*
X4115911Y4450472D01*
Y4509528D01*
X4127132Y4509763D01*
X4134018Y4510448D01*
Y4533030D01*
X4134608Y4528564D01*
X4136380Y4524569D01*
X4139333Y4521044D01*
X4143467Y4517988D01*
X4148782Y4515403D01*
X4154492Y4513544D01*
X4160203Y4515403D01*
X4165518Y4517988D01*
X4169651Y4521044D01*
X4172604Y4524569D01*
X4174376Y4528564D01*
X4174966Y4533030D01*
Y4510246D01*
D02*
G37*
G36*
X4024763Y4220923D02*
X4024913Y4219411D01*
X4048030D01*
X4043564Y4218821D01*
X4039569Y4217049D01*
X4036044Y4214096D01*
X4032988Y4209962D01*
X4030403Y4204648D01*
X4028288Y4198151D01*
X4027880Y4196250D01*
X4028288Y4194348D01*
X4030403Y4187852D01*
X4032988Y4182537D01*
X4036044Y4178404D01*
X4039569Y4175451D01*
X4043564Y4173679D01*
X4048030Y4173089D01*
X4024869D01*
X4024763Y4171577D01*
X4024528Y4160356D01*
X3965472D01*
X3965237Y4171577D01*
X3965087Y4173089D01*
X3941970D01*
X3946436Y4173679D01*
X3950431Y4175451D01*
X3953956Y4178404D01*
X3957012Y4182537D01*
X3959597Y4187852D01*
X3961712Y4194348D01*
X3962120Y4196250D01*
X3961712Y4198151D01*
X3959597Y4204648D01*
X3957012Y4209962D01*
X3953956Y4214096D01*
X3950431Y4217049D01*
X3946436Y4218821D01*
X3941970Y4219411D01*
X3965131D01*
X3965237Y4220923D01*
X3965472Y4232144D01*
X4024528D01*
X4024763Y4220923D01*
D02*
G37*
G36*
X4047758Y4011911D02*
X4048030D01*
X4047951Y4011192D01*
X4047881Y4009035D01*
X4047839Y3997835D01*
X4048030Y3964486D01*
X4047711D01*
X4047618Y3940000D01*
X3942382D01*
X3942242Y3964486D01*
X3941970D01*
X3942049Y3965205D01*
X3942119Y3967363D01*
X3942161Y3978563D01*
X3941970Y4011911D01*
X3942289D01*
X3942382Y4036398D01*
X4047618D01*
X4047758Y4011911D01*
D02*
G37*
G36*
X4174966Y3730246D02*
X4181852Y3729763D01*
X4193073Y3729528D01*
Y3670472D01*
X4181852Y3670237D01*
X4174966Y3669552D01*
Y3646970D01*
X4174376Y3651436D01*
X4172604Y3655431D01*
X4169651Y3658956D01*
X4165518Y3662012D01*
X4160203Y3664597D01*
X4154492Y3666456D01*
X4148782Y3664597D01*
X4143467Y3662012D01*
X4139333Y3658956D01*
X4136380Y3655431D01*
X4134608Y3651436D01*
X4134018Y3646970D01*
Y3669754D01*
X4127132Y3670237D01*
X4115911Y3670472D01*
Y3729528D01*
X4127132Y3729763D01*
X4134018Y3730448D01*
Y3753030D01*
X4134608Y3748564D01*
X4136380Y3744569D01*
X4139333Y3741044D01*
X4143467Y3737988D01*
X4148782Y3735403D01*
X4154492Y3733544D01*
X4160203Y3735403D01*
X4165518Y3737988D01*
X4169651Y3741044D01*
X4172604Y3744569D01*
X4174376Y3748564D01*
X4174966Y3753030D01*
Y3730246D01*
D02*
G37*
D10*
X4199453Y3700000D02*
D03*
X4311657D02*
D03*
X3997327D02*
D03*
X4109531D02*
D03*
X4199453Y4480000D02*
D03*
X4311657D02*
D03*
X3997327D02*
D03*
X4109531D02*
D03*
D11*
X3995000Y3940000D02*
D03*
Y3827795D02*
D03*
Y4148602D02*
D03*
Y4036398D02*
D03*
Y4356102D02*
D03*
Y4243898D02*
D03*
D12*
X4101398Y4722047D02*
D03*
X3883287D02*
D03*
Y3474803D02*
D03*
X4101398D02*
D03*
D13*
X3992342Y4722047D02*
D03*
Y3474803D02*
D03*
D14*
Y4480532D02*
Y4674803D01*
X3996063Y4480000D02*
X3997327D01*
X3992874D02*
X3996063D01*
X3992342Y4480532D02*
X3992874Y4480000D01*
X3993098Y3695772D02*
X3997327Y3700000D01*
X3993098Y3475559D02*
Y3695772D01*
X3992342Y3474803D02*
X3993098Y3475559D01*
X3995532Y3700532D02*
X3996063Y3700000D01*
X3995532Y3700532D02*
Y3799784D01*
X3995000Y3940000D02*
Y4036398D01*
Y4356102D02*
X3995532Y4356634D01*
Y4479468D01*
X3996063Y4480000D01*
D15*
X4109531Y3700000D02*
X4199453D01*
X3995000Y4148602D02*
Y4243898D01*
X4109531Y4480000D02*
X4199453D01*
D16*
X4185000Y4660000D02*
D03*
X3810000Y4730000D02*
D03*
X3885000Y4570000D02*
D03*
X3855000Y3625000D02*
D03*
X4105906Y3610084D02*
D03*
X4215000Y4375000D02*
D03*
X4190000Y4605000D02*
D03*
X4199453Y3586359D02*
D03*
X4233196Y3787249D02*
D03*
X3910153Y4204356D02*
D03*
X3906548Y4124910D02*
D03*
Y4045383D02*
D03*
X3906626Y3965855D02*
D03*
X3920619Y3887568D02*
D03*
X4100000Y3960000D02*
D03*
X4095000Y4040000D02*
D03*
X4082991Y4120496D02*
D03*
X4077327Y4199822D02*
D03*
X4081588Y4279235D02*
D03*
X3906548Y3827910D02*
D03*
X3907157Y3748385D02*
D03*
X3903968Y3668921D02*
D03*
X4083906Y3790509D02*
D03*
X4078797Y3869872D02*
D03*
X3903968Y4499222D02*
D03*
X3907157Y4419759D02*
D03*
X3906548Y4340234D02*
D03*
X4083452Y4340348D02*
D03*
X4325000Y3400000D02*
D03*
X4145000Y4380000D02*
D03*
%TF.MD5,7586dfebcf3f3a47772c134d18f505c7*%
M02*
