%TF.GenerationSoftware,Altium Limited,Altium Designer,20.0.10 (225)*%
G04 Layer_Color=32768*
%FSLAX26Y26*%
%MOIN*%
%TF.FileFunction,Other,Top_Courtyard*%
%TF.Part,Single*%
G01*
G75*
%TA.AperFunction,NonConductor*%
%ADD22C,0.007874*%
%ADD25C,0.003937*%
%ADD27C,0.001968*%
D22*
X3486417Y1395016D02*
Y1699346D01*
X2891535Y1395016D02*
X3486417D01*
X2891535D02*
Y1699346D01*
X3486417D01*
X1270158Y1388780D02*
Y1693110D01*
X1865039D01*
Y1388780D02*
Y1693110D01*
X1270158Y1388780D02*
X1865039D01*
D25*
X2750315Y1496063D02*
X2789685D01*
X2770000Y1476378D02*
Y1515748D01*
X2750315Y1242690D02*
X2789685D01*
X2770000Y1223005D02*
Y1262375D01*
X2066929Y1242690D02*
X2106299D01*
X2086614Y1223005D02*
Y1262375D01*
X2066929Y1491218D02*
X2106299D01*
X2086614Y1471533D02*
Y1510903D01*
X2511102Y1530315D02*
Y1569685D01*
X2491417Y1550000D02*
X2530787D01*
X2255000Y1530315D02*
Y1569685D01*
X2235315Y1550000D02*
X2274685D01*
D27*
X2832992Y1405512D02*
Y1586614D01*
X2707008Y1405512D02*
Y1586614D01*
X2832992D01*
X2707008Y1405512D02*
X2832992D01*
Y1152139D02*
Y1333241D01*
X2707008Y1152139D02*
Y1333241D01*
X2832992D01*
X2707008Y1152139D02*
X2832992D01*
X2149606D02*
Y1333241D01*
X2023622Y1152139D02*
Y1333241D01*
X2149606D01*
X2023622Y1152139D02*
X2149606D01*
Y1400666D02*
Y1581769D01*
X2023622Y1400666D02*
Y1581769D01*
X2149606D01*
X2023622Y1400666D02*
X2149606D01*
X2420551Y1487008D02*
X2601653D01*
X2420551Y1612992D02*
X2601653D01*
Y1487008D02*
Y1612992D01*
X2420551Y1487008D02*
Y1612992D01*
X2164449Y1487008D02*
X2345551D01*
X2164449Y1612992D02*
X2345551D01*
Y1487008D02*
Y1612992D01*
X2164449Y1487008D02*
Y1612992D01*
%TF.MD5,2c2a8ed3ed5ef93ff1f4f26b5a2d8ad3*%
M02*
