%TF.GenerationSoftware,Altium Limited,Altium Designer,20.0.10 (225)*%
G04 Layer_Color=8388736*
%FSLAX26Y26*%
%MOIN*%
%TF.FileFunction,Soldermask,Top*%
%TF.Part,Single*%
G01*
G75*
%TA.AperFunction,SMDPad,CuDef*%
%ADD12R,0.196850X0.047244*%
%ADD13R,0.196850X0.062992*%
%TA.AperFunction,ViaPad*%
%ADD16C,0.058000*%
%TA.AperFunction,SMDPad,CuDef*%
%ADD19R,0.114299X0.057213*%
%ADD20R,0.057213X0.114299*%
D12*
X3040945Y3412571D02*
D03*
X1793958D02*
D03*
D13*
X3040945Y3521626D02*
D03*
Y3303516D02*
D03*
X1793958D02*
D03*
Y3521626D02*
D03*
D16*
X2370000Y3527618D02*
D03*
X2680000Y3240000D02*
D03*
X2875000Y3310000D02*
D03*
X2900000Y3600000D02*
D03*
X2885000Y3520000D02*
D03*
X1810000Y3600000D02*
D03*
X1940000Y3580000D02*
D03*
X1945000Y3230000D02*
D03*
X2030000D02*
D03*
X1975000Y3515000D02*
D03*
X2085000D02*
D03*
X2105000Y3310875D02*
D03*
X2195000D02*
D03*
X2180000Y3515000D02*
D03*
X2470000Y3310875D02*
D03*
X2274169Y3515000D02*
D03*
X2271856Y3310875D02*
D03*
X2380000D02*
D03*
X2540000D02*
D03*
X2458743Y3515000D02*
D03*
X2815000D02*
D03*
X2735000D02*
D03*
X2641332D02*
D03*
X2555000D02*
D03*
X2625000Y3310875D02*
D03*
X2825000Y3235000D02*
D03*
X1855000Y3205000D02*
D03*
D19*
X2770000Y3417555D02*
D03*
Y3305351D02*
D03*
X2007874Y3417555D02*
D03*
Y3305351D02*
D03*
D20*
X2537205Y3419327D02*
D03*
X2425000D02*
D03*
X2306102D02*
D03*
X2193898D02*
D03*
%TF.MD5,ee3db8f310b81c9337f8dee71b4039af*%
M02*
