%TF.GenerationSoftware,Altium Limited,Altium Designer,20.0.10 (225)*%
G04 Layer_Color=16711935*
%FSLAX26Y26*%
%MOIN*%
%TF.FileFunction,Other,Top_3D_Body*%
%TF.Part,Single*%
G01*
G75*
%TA.AperFunction,NonConductor*%
%ADD18C,0.007874*%
%ADD21C,0.003937*%
D18*
X3514173Y3287571D02*
Y3537571D01*
X3139370Y3287571D02*
X3514173D01*
X3139370D02*
Y3537571D01*
X3514173D01*
X3139370Y3260405D02*
Y3564736D01*
X1320730Y3287571D02*
Y3537571D01*
X1695533D01*
Y3287571D02*
Y3537571D01*
X1320730Y3287571D02*
X1695533D01*
Y3260405D02*
Y3564736D01*
D21*
X2823150Y3294524D02*
Y3428382D01*
X2716850Y3294524D02*
Y3428382D01*
X2823150D01*
X2716850Y3294524D02*
X2823150D01*
X2414173Y3366177D02*
X2548032D01*
X2414173Y3472477D02*
X2548032D01*
Y3366177D02*
Y3472477D01*
X2414173Y3366177D02*
Y3472477D01*
X2183071Y3366177D02*
X2316929D01*
X2183071Y3472477D02*
X2316929D01*
Y3366177D02*
Y3472477D01*
X2183071Y3366177D02*
Y3472477D01*
X2061024Y3294524D02*
Y3428382D01*
X1954724Y3294524D02*
Y3428382D01*
X2061024D01*
X1954724Y3294524D02*
X2061024D01*
%TF.MD5,5d7ccb4e26705a58d99c8c62c4604399*%
M02*
