%TF.GenerationSoftware,Altium Limited,Altium Designer,20.0.10 (225)*%
G04 Layer_Color=65535*
%FSLAX26Y26*%
%MOIN*%
%TF.FileFunction,Legend,Top*%
%TF.Part,Single*%
G01*
G75*
%TA.AperFunction,NonConductor*%
%ADD18C,0.009842*%
%ADD19C,0.007874*%
G36*
X3185181Y2366333D02*
X2982221D01*
Y2477585D01*
X3185181D01*
Y2366333D01*
D02*
G37*
G36*
X3019351Y2059173D02*
X3019740D01*
X3020184Y2059117D01*
X3021238Y2058896D01*
X3022403Y2058618D01*
X3023624Y2058174D01*
X3024845Y2057508D01*
X3025456Y2057119D01*
X3026011Y2056675D01*
X3026066Y2056620D01*
X3026122Y2056564D01*
X3026289Y2056398D01*
X3026455Y2056231D01*
X3026733Y2055954D01*
X3026954Y2055621D01*
X3027565Y2054844D01*
X3028175Y2053845D01*
X3028731Y2052624D01*
X3029230Y2051236D01*
X3029563Y2049682D01*
X3024845Y2049294D01*
Y2049349D01*
X3024790Y2049405D01*
X3024735Y2049738D01*
X3024568Y2050238D01*
X3024346Y2050848D01*
X3024124Y2051514D01*
X3023791Y2052180D01*
X3023403Y2052791D01*
X3023014Y2053290D01*
X3022903Y2053401D01*
X3022681Y2053623D01*
X3022293Y2053956D01*
X3021738Y2054345D01*
X3021016Y2054677D01*
X3020239Y2055010D01*
X3019296Y2055233D01*
X3018296Y2055343D01*
X3017908D01*
X3017464Y2055288D01*
X3016965Y2055177D01*
X3016298Y2055010D01*
X3015633Y2054789D01*
X3014966Y2054511D01*
X3014300Y2054067D01*
X3014189Y2054012D01*
X3013912Y2053789D01*
X3013523Y2053401D01*
X3013024Y2052846D01*
X3012469Y2052180D01*
X3011858Y2051403D01*
X3011303Y2050404D01*
X3010749Y2049294D01*
Y2049238D01*
X3010693Y2049128D01*
X3010637Y2048961D01*
X3010526Y2048739D01*
X3010471Y2048406D01*
X3010360Y2048017D01*
X3010249Y2047573D01*
X3010138Y2047018D01*
X3009972Y2046408D01*
X3009860Y2045742D01*
X3009749Y2045021D01*
X3009694Y2044244D01*
X3009583Y2043355D01*
X3009528Y2042467D01*
X3009472Y2041468D01*
Y2040469D01*
X3009528Y2040525D01*
X3009749Y2040858D01*
X3010138Y2041302D01*
X3010637Y2041857D01*
X3011193Y2042523D01*
X3011914Y2043133D01*
X3012691Y2043744D01*
X3013579Y2044299D01*
X3013635D01*
X3013690Y2044354D01*
X3014023Y2044521D01*
X3014523Y2044688D01*
X3015189Y2044965D01*
X3015965Y2045187D01*
X3016854Y2045353D01*
X3017797Y2045520D01*
X3018796Y2045575D01*
X3019240D01*
X3019573Y2045520D01*
X3020017Y2045465D01*
X3020461Y2045409D01*
X3021016Y2045298D01*
X3021571Y2045131D01*
X3022847Y2044743D01*
X3023514Y2044466D01*
X3024180Y2044077D01*
X3024845Y2043688D01*
X3025567Y2043245D01*
X3026233Y2042689D01*
X3026843Y2042079D01*
X3026899Y2042024D01*
X3027010Y2041912D01*
X3027177Y2041746D01*
X3027343Y2041468D01*
X3027620Y2041080D01*
X3027898Y2040691D01*
X3028175Y2040192D01*
X3028508Y2039637D01*
X3028841Y2039026D01*
X3029119Y2038361D01*
X3029396Y2037583D01*
X3029674Y2036806D01*
X3029840Y2035974D01*
X3030007Y2035031D01*
X3030118Y2034087D01*
X3030173Y2033088D01*
Y2033033D01*
Y2032921D01*
Y2032755D01*
Y2032477D01*
X3030118Y2032145D01*
Y2031812D01*
X3029952Y2030924D01*
X3029785Y2029869D01*
X3029508Y2028759D01*
X3029119Y2027538D01*
X3028564Y2026372D01*
Y2026317D01*
X3028508Y2026262D01*
X3028398Y2026095D01*
X3028287Y2025873D01*
X3027954Y2025318D01*
X3027454Y2024597D01*
X3026843Y2023820D01*
X3026122Y2023043D01*
X3025234Y2022265D01*
X3024291Y2021600D01*
X3024235D01*
X3024180Y2021544D01*
X3024013Y2021433D01*
X3023791Y2021378D01*
X3023236Y2021100D01*
X3022515Y2020822D01*
X3021571Y2020489D01*
X3020517Y2020267D01*
X3019351Y2020045D01*
X3018075Y2019990D01*
X3017797D01*
X3017519Y2020045D01*
X3017075D01*
X3016576Y2020101D01*
X3016021Y2020212D01*
X3015355Y2020379D01*
X3014689Y2020545D01*
X3013912Y2020767D01*
X3013135Y2021044D01*
X3012358Y2021378D01*
X3011526Y2021822D01*
X3010749Y2022321D01*
X3009972Y2022876D01*
X3009195Y2023542D01*
X3008473Y2024319D01*
X3008418Y2024374D01*
X3008307Y2024541D01*
X3008140Y2024763D01*
X3007918Y2025151D01*
X3007585Y2025651D01*
X3007307Y2026206D01*
X3006974Y2026928D01*
X3006642Y2027705D01*
X3006253Y2028648D01*
X3005920Y2029703D01*
X3005642Y2030868D01*
X3005365Y2032145D01*
X3005088Y2033588D01*
X3004921Y2035141D01*
X3004810Y2036806D01*
X3004755Y2038582D01*
Y2038638D01*
Y2038694D01*
Y2038860D01*
Y2039082D01*
X3004810Y2039637D01*
Y2040414D01*
X3004865Y2041302D01*
X3004977Y2042357D01*
X3005088Y2043522D01*
X3005254Y2044799D01*
X3005476Y2046075D01*
X3005753Y2047463D01*
X3006086Y2048794D01*
X3006475Y2050126D01*
X3006974Y2051403D01*
X3007530Y2052624D01*
X3008140Y2053789D01*
X3008861Y2054789D01*
X3008917Y2054844D01*
X3009028Y2054955D01*
X3009250Y2055177D01*
X3009528Y2055510D01*
X3009860Y2055843D01*
X3010305Y2056176D01*
X3010860Y2056620D01*
X3011414Y2057008D01*
X3012081Y2057397D01*
X3012802Y2057841D01*
X3013635Y2058174D01*
X3014467Y2058562D01*
X3015410Y2058840D01*
X3016410Y2059062D01*
X3017464Y2059173D01*
X3018574Y2059229D01*
X3019018D01*
X3019351Y2059173D01*
D02*
G37*
G36*
X3109039Y2049072D02*
X3109427Y2049017D01*
X3110260Y2048906D01*
X3111259Y2048684D01*
X3112314Y2048351D01*
X3113368Y2047851D01*
X3114423Y2047241D01*
X3114478D01*
X3114534Y2047130D01*
X3114867Y2046908D01*
X3115366Y2046464D01*
X3115977Y2045909D01*
X3116642Y2045187D01*
X3117309Y2044299D01*
X3117974Y2043245D01*
X3118530Y2042079D01*
Y2042024D01*
X3118585Y2041913D01*
X3118640Y2041746D01*
X3118751Y2041524D01*
X3118863Y2041191D01*
X3118974Y2040803D01*
X3119251Y2039915D01*
X3119528Y2038805D01*
X3119751Y2037584D01*
X3119917Y2036196D01*
X3119972Y2034753D01*
Y2034698D01*
Y2034587D01*
Y2034365D01*
Y2034032D01*
X3119917Y2033643D01*
Y2033199D01*
X3119806Y2032200D01*
X3119584Y2030979D01*
X3119307Y2029703D01*
X3118918Y2028371D01*
X3118419Y2027039D01*
Y2026983D01*
X3118363Y2026872D01*
X3118252Y2026706D01*
X3118141Y2026484D01*
X3117753Y2025873D01*
X3117253Y2025096D01*
X3116642Y2024264D01*
X3115865Y2023431D01*
X3114977Y2022599D01*
X3113923Y2021822D01*
X3113867D01*
X3113812Y2021766D01*
X3113646Y2021655D01*
X3113423Y2021544D01*
X3112869Y2021267D01*
X3112091Y2020934D01*
X3111148Y2020601D01*
X3110149Y2020323D01*
X3108983Y2020101D01*
X3107818Y2020046D01*
X3107430D01*
X3106985Y2020101D01*
X3106430Y2020157D01*
X3105765Y2020268D01*
X3105043Y2020434D01*
X3104322Y2020656D01*
X3103600Y2020989D01*
X3103544Y2021045D01*
X3103267Y2021156D01*
X3102934Y2021378D01*
X3102490Y2021711D01*
X3102046Y2022044D01*
X3101491Y2022488D01*
X3100992Y2022987D01*
X3100548Y2023542D01*
Y2010000D01*
X3095830D01*
Y2048517D01*
X3100104D01*
Y2044854D01*
X3100159Y2044965D01*
X3100381Y2045187D01*
X3100659Y2045575D01*
X3101102Y2046020D01*
X3101602Y2046575D01*
X3102157Y2047074D01*
X3102823Y2047574D01*
X3103489Y2048018D01*
X3103600Y2048073D01*
X3103822Y2048184D01*
X3104266Y2048351D01*
X3104821Y2048573D01*
X3105487Y2048795D01*
X3106264Y2048961D01*
X3107152Y2049072D01*
X3108151Y2049128D01*
X3108762D01*
X3109039Y2049072D01*
D02*
G37*
G36*
X3227143D02*
X3227532D01*
X3227920Y2049017D01*
X3228863Y2048850D01*
X3229863Y2048573D01*
X3230917Y2048129D01*
X3231972Y2047574D01*
X3232860Y2046797D01*
X3232970Y2046686D01*
X3233193Y2046353D01*
X3233581Y2045853D01*
X3233747Y2045465D01*
X3233970Y2045076D01*
X3234191Y2044577D01*
X3234358Y2044077D01*
X3234580Y2043522D01*
X3234747Y2042856D01*
X3234858Y2042190D01*
X3234968Y2041413D01*
X3235079Y2040636D01*
Y2039748D01*
Y2020656D01*
X3230362D01*
Y2038139D01*
Y2038194D01*
Y2038250D01*
Y2038583D01*
Y2039082D01*
X3230307Y2039693D01*
X3230251Y2040359D01*
X3230195Y2041025D01*
X3230084Y2041691D01*
X3229918Y2042190D01*
Y2042246D01*
X3229807Y2042412D01*
X3229696Y2042634D01*
X3229530Y2042912D01*
X3229307Y2043245D01*
X3229030Y2043578D01*
X3228697Y2043911D01*
X3228253Y2044244D01*
X3228198Y2044299D01*
X3228031Y2044355D01*
X3227809Y2044466D01*
X3227421Y2044632D01*
X3227032Y2044799D01*
X3226532Y2044910D01*
X3226033Y2044965D01*
X3225423Y2045021D01*
X3225145D01*
X3224923Y2044965D01*
X3224368Y2044910D01*
X3223702Y2044799D01*
X3222925Y2044521D01*
X3222093Y2044188D01*
X3221260Y2043689D01*
X3220483Y2043023D01*
X3220427Y2042912D01*
X3220206Y2042634D01*
X3219872Y2042190D01*
X3219539Y2041524D01*
X3219151Y2040636D01*
X3218874Y2039582D01*
X3218651Y2038305D01*
X3218541Y2036807D01*
Y2020656D01*
X3213823D01*
Y2038694D01*
Y2038749D01*
Y2038860D01*
Y2038971D01*
Y2039193D01*
X3213767Y2039804D01*
X3213657Y2040470D01*
X3213546Y2041247D01*
X3213323Y2042024D01*
X3213046Y2042745D01*
X3212657Y2043411D01*
X3212602Y2043467D01*
X3212436Y2043689D01*
X3212158Y2043911D01*
X3211769Y2044244D01*
X3211270Y2044521D01*
X3210604Y2044799D01*
X3209827Y2044965D01*
X3208883Y2045021D01*
X3208550D01*
X3208162Y2044965D01*
X3207718Y2044910D01*
X3207163Y2044743D01*
X3206497Y2044577D01*
X3205887Y2044299D01*
X3205220Y2043966D01*
X3205165Y2043911D01*
X3204943Y2043744D01*
X3204666Y2043522D01*
X3204277Y2043189D01*
X3203889Y2042745D01*
X3203500Y2042190D01*
X3203111Y2041580D01*
X3202778Y2040858D01*
X3202723Y2040747D01*
X3202668Y2040470D01*
X3202557Y2040026D01*
X3202390Y2039415D01*
X3202224Y2038583D01*
X3202113Y2037584D01*
X3202057Y2036418D01*
X3202001Y2035086D01*
Y2020656D01*
X3197284D01*
Y2048517D01*
X3201502D01*
Y2044521D01*
X3201557Y2044632D01*
X3201724Y2044854D01*
X3202057Y2045243D01*
X3202445Y2045687D01*
X3202945Y2046242D01*
X3203555Y2046797D01*
X3204222Y2047352D01*
X3204999Y2047851D01*
X3205110Y2047907D01*
X3205387Y2048073D01*
X3205831Y2048240D01*
X3206441Y2048517D01*
X3207163Y2048739D01*
X3207995Y2048906D01*
X3208939Y2049072D01*
X3209938Y2049128D01*
X3210438D01*
X3211048Y2049072D01*
X3211714Y2048961D01*
X3212546Y2048795D01*
X3213379Y2048573D01*
X3214211Y2048240D01*
X3214988Y2047796D01*
X3215099Y2047740D01*
X3215322Y2047574D01*
X3215655Y2047296D01*
X3216099Y2046852D01*
X3216543Y2046353D01*
X3217042Y2045742D01*
X3217486Y2045021D01*
X3217819Y2044188D01*
X3217874Y2044244D01*
X3217985Y2044410D01*
X3218152Y2044632D01*
X3218430Y2044965D01*
X3218762Y2045354D01*
X3219151Y2045742D01*
X3219595Y2046186D01*
X3220150Y2046686D01*
X3220760Y2047130D01*
X3221371Y2047574D01*
X3222093Y2047962D01*
X3222869Y2048351D01*
X3223702Y2048684D01*
X3224590Y2048906D01*
X3225478Y2049072D01*
X3226477Y2049128D01*
X3226865D01*
X3227143Y2049072D01*
D02*
G37*
G36*
X3080901Y2049072D02*
X3081289D01*
X3081677Y2049017D01*
X3082621Y2048850D01*
X3083620Y2048573D01*
X3084675Y2048128D01*
X3085729Y2047573D01*
X3086617Y2046796D01*
X3086728Y2046686D01*
X3086950Y2046352D01*
X3087338Y2045853D01*
X3087505Y2045465D01*
X3087727Y2045076D01*
X3087949Y2044576D01*
X3088115Y2044077D01*
X3088338Y2043522D01*
X3088504Y2042856D01*
X3088615Y2042190D01*
X3088726Y2041413D01*
X3088837Y2040636D01*
Y2039748D01*
Y2020656D01*
X3084119D01*
Y2038139D01*
Y2038194D01*
Y2038249D01*
Y2038582D01*
Y2039082D01*
X3084064Y2039693D01*
X3084008Y2040359D01*
X3083953Y2041024D01*
X3083842Y2041690D01*
X3083675Y2042190D01*
Y2042245D01*
X3083564Y2042412D01*
X3083454Y2042634D01*
X3083287Y2042911D01*
X3083065Y2043245D01*
X3082787Y2043578D01*
X3082454Y2043910D01*
X3082010Y2044244D01*
X3081955Y2044299D01*
X3081789Y2044354D01*
X3081566Y2044466D01*
X3081178Y2044632D01*
X3080789Y2044799D01*
X3080290Y2044909D01*
X3079791Y2044965D01*
X3079180Y2045021D01*
X3078903D01*
X3078680Y2044965D01*
X3078126Y2044909D01*
X3077459Y2044799D01*
X3076682Y2044521D01*
X3075850Y2044188D01*
X3075017Y2043688D01*
X3074240Y2043023D01*
X3074185Y2042911D01*
X3073963Y2042634D01*
X3073630Y2042190D01*
X3073297Y2041524D01*
X3072909Y2040636D01*
X3072631Y2039582D01*
X3072409Y2038305D01*
X3072298Y2036806D01*
Y2020656D01*
X3067581D01*
Y2038694D01*
Y2038749D01*
Y2038860D01*
Y2038971D01*
Y2039193D01*
X3067525Y2039803D01*
X3067414Y2040469D01*
X3067303Y2041246D01*
X3067081Y2042024D01*
X3066803Y2042745D01*
X3066415Y2043411D01*
X3066360Y2043466D01*
X3066193Y2043688D01*
X3065916Y2043910D01*
X3065527Y2044244D01*
X3065028Y2044521D01*
X3064361Y2044799D01*
X3063584Y2044965D01*
X3062641Y2045021D01*
X3062308D01*
X3061919Y2044965D01*
X3061476Y2044909D01*
X3060921Y2044743D01*
X3060255Y2044576D01*
X3059644Y2044299D01*
X3058978Y2043966D01*
X3058923Y2043910D01*
X3058700Y2043744D01*
X3058423Y2043522D01*
X3058035Y2043189D01*
X3057646Y2042745D01*
X3057258Y2042190D01*
X3056869Y2041580D01*
X3056536Y2040858D01*
X3056481Y2040747D01*
X3056425Y2040469D01*
X3056314Y2040025D01*
X3056148Y2039415D01*
X3055981Y2038582D01*
X3055870Y2037583D01*
X3055814Y2036418D01*
X3055759Y2035086D01*
Y2020656D01*
X3051041D01*
Y2048517D01*
X3055260D01*
Y2044521D01*
X3055315Y2044632D01*
X3055481Y2044854D01*
X3055814Y2045243D01*
X3056203Y2045687D01*
X3056702Y2046242D01*
X3057313Y2046796D01*
X3057979Y2047351D01*
X3058756Y2047851D01*
X3058867Y2047907D01*
X3059144Y2048073D01*
X3059588Y2048240D01*
X3060199Y2048517D01*
X3060921Y2048739D01*
X3061753Y2048905D01*
X3062697Y2049072D01*
X3063695Y2049128D01*
X3064195D01*
X3064805Y2049072D01*
X3065472Y2048961D01*
X3066304Y2048794D01*
X3067137Y2048573D01*
X3067969Y2048240D01*
X3068746Y2047795D01*
X3068857Y2047740D01*
X3069079Y2047573D01*
X3069412Y2047296D01*
X3069856Y2046852D01*
X3070300Y2046352D01*
X3070800Y2045742D01*
X3071244Y2045021D01*
X3071577Y2044188D01*
X3071632Y2044244D01*
X3071743Y2044410D01*
X3071910Y2044632D01*
X3072187Y2044965D01*
X3072520Y2045353D01*
X3072909Y2045742D01*
X3073352Y2046186D01*
X3073907Y2046686D01*
X3074518Y2047130D01*
X3075128Y2047573D01*
X3075850Y2047962D01*
X3076627Y2048351D01*
X3077459Y2048684D01*
X3078347Y2048905D01*
X3079235Y2049072D01*
X3080235Y2049128D01*
X3080623D01*
X3080901Y2049072D01*
D02*
G37*
G36*
X2989714D02*
X2990546Y2049017D01*
X2991434Y2048905D01*
X2992378Y2048684D01*
X2993377Y2048461D01*
X2994320Y2048128D01*
X2994376D01*
X2994432Y2048073D01*
X2994709Y2047962D01*
X2995153Y2047740D01*
X2995708Y2047463D01*
X2996318Y2047074D01*
X2996929Y2046630D01*
X2997484Y2046130D01*
X2997983Y2045575D01*
X2998039Y2045520D01*
X2998150Y2045298D01*
X2998372Y2044909D01*
X2998649Y2044466D01*
X2998927Y2043800D01*
X2999204Y2043078D01*
X2999427Y2042245D01*
X2999648Y2041302D01*
X2995042Y2040691D01*
Y2040803D01*
X2994986Y2041024D01*
X2994876Y2041413D01*
X2994709Y2041912D01*
X2994432Y2042412D01*
X2994099Y2042967D01*
X2993710Y2043522D01*
X2993155Y2044022D01*
X2993099Y2044077D01*
X2992878Y2044188D01*
X2992544Y2044410D01*
X2992045Y2044632D01*
X2991490Y2044854D01*
X2990769Y2045076D01*
X2989881Y2045187D01*
X2988937Y2045243D01*
X2988382D01*
X2987827Y2045187D01*
X2987106Y2045131D01*
X2986384Y2044965D01*
X2985607Y2044799D01*
X2984885Y2044521D01*
X2984275Y2044132D01*
X2984220Y2044077D01*
X2984053Y2043966D01*
X2983831Y2043744D01*
X2983609Y2043411D01*
X2983331Y2043078D01*
X2983110Y2042634D01*
X2982943Y2042134D01*
X2982887Y2041635D01*
Y2041580D01*
Y2041468D01*
X2982943Y2041302D01*
Y2041080D01*
X2983110Y2040525D01*
X2983443Y2039970D01*
X2983498Y2039915D01*
X2983553Y2039859D01*
X2983664Y2039693D01*
X2983887Y2039526D01*
X2984108Y2039360D01*
X2984441Y2039138D01*
X2984830Y2038971D01*
X2985274Y2038749D01*
X2985329D01*
X2985441Y2038694D01*
X2985662Y2038638D01*
X2986051Y2038472D01*
X2986606Y2038305D01*
X2987327Y2038139D01*
X2987771Y2037972D01*
X2988271Y2037861D01*
X2988826Y2037695D01*
X2989436Y2037528D01*
X2989492D01*
X2989659Y2037473D01*
X2989936Y2037417D01*
X2990269Y2037306D01*
X2990657Y2037195D01*
X2991157Y2037084D01*
X2992211Y2036751D01*
X2993377Y2036418D01*
X2994543Y2036030D01*
X2995597Y2035641D01*
X2996041Y2035475D01*
X2996430Y2035308D01*
X2996541Y2035253D01*
X2996762Y2035141D01*
X2997095Y2034975D01*
X2997595Y2034697D01*
X2998095Y2034364D01*
X2998594Y2033920D01*
X2999093Y2033421D01*
X2999537Y2032866D01*
X2999593Y2032811D01*
X2999704Y2032589D01*
X2999926Y2032255D01*
X3000148Y2031756D01*
X3000314Y2031146D01*
X3000537Y2030479D01*
X3000648Y2029703D01*
X3000703Y2028814D01*
Y2028704D01*
Y2028426D01*
X3000648Y2027982D01*
X3000537Y2027371D01*
X3000370Y2026706D01*
X3000093Y2025984D01*
X2999760Y2025151D01*
X2999316Y2024374D01*
X2999260Y2024264D01*
X2999038Y2024042D01*
X2998760Y2023653D01*
X2998316Y2023209D01*
X2997706Y2022709D01*
X2997040Y2022155D01*
X2996263Y2021655D01*
X2995320Y2021156D01*
X2995264D01*
X2995209Y2021100D01*
X2994876Y2020989D01*
X2994320Y2020822D01*
X2993599Y2020601D01*
X2992711Y2020379D01*
X2991712Y2020212D01*
X2990657Y2020101D01*
X2989436Y2020045D01*
X2988937D01*
X2988548Y2020101D01*
X2988104D01*
X2987550Y2020157D01*
X2986994Y2020212D01*
X2986384Y2020323D01*
X2985052Y2020601D01*
X2983664Y2020989D01*
X2982332Y2021544D01*
X2981722Y2021877D01*
X2981167Y2022265D01*
X2981111Y2022321D01*
X2981056Y2022377D01*
X2980723Y2022709D01*
X2980224Y2023209D01*
X2979669Y2023986D01*
X2979058Y2024929D01*
X2978448Y2026040D01*
X2977948Y2027427D01*
X2977559Y2028981D01*
X2982222Y2029703D01*
Y2029647D01*
Y2029591D01*
X2982332Y2029258D01*
X2982443Y2028704D01*
X2982666Y2028093D01*
X2982943Y2027427D01*
X2983276Y2026706D01*
X2983776Y2025984D01*
X2984386Y2025373D01*
X2984497Y2025318D01*
X2984719Y2025151D01*
X2985163Y2024929D01*
X2985718Y2024652D01*
X2986439Y2024374D01*
X2987272Y2024152D01*
X2988271Y2023986D01*
X2989436Y2023930D01*
X2989992D01*
X2990546Y2023986D01*
X2991268Y2024097D01*
X2992045Y2024264D01*
X2992878Y2024486D01*
X2993599Y2024763D01*
X2994265Y2025207D01*
X2994320Y2025263D01*
X2994543Y2025429D01*
X2994765Y2025707D01*
X2995097Y2026095D01*
X2995375Y2026539D01*
X2995653Y2027094D01*
X2995819Y2027649D01*
X2995874Y2028315D01*
Y2028370D01*
Y2028592D01*
X2995819Y2028870D01*
X2995708Y2029258D01*
X2995541Y2029647D01*
X2995264Y2030035D01*
X2994931Y2030479D01*
X2994432Y2030812D01*
X2994376Y2030868D01*
X2994209Y2030924D01*
X2993932Y2031090D01*
X2993488Y2031256D01*
X2992822Y2031478D01*
X2992434Y2031645D01*
X2991990Y2031756D01*
X2991490Y2031922D01*
X2990935Y2032089D01*
X2990325Y2032255D01*
X2989603Y2032422D01*
X2989548D01*
X2989381Y2032477D01*
X2989104Y2032533D01*
X2988771Y2032644D01*
X2988327Y2032755D01*
X2987827Y2032921D01*
X2986773Y2033199D01*
X2985552Y2033588D01*
X2984386Y2033920D01*
X2983276Y2034309D01*
X2982776Y2034531D01*
X2982388Y2034697D01*
X2982277Y2034753D01*
X2982055Y2034864D01*
X2981722Y2035086D01*
X2981278Y2035363D01*
X2980778Y2035752D01*
X2980279Y2036196D01*
X2979780Y2036696D01*
X2979336Y2037306D01*
X2979280Y2037361D01*
X2979169Y2037583D01*
X2979003Y2037972D01*
X2978836Y2038416D01*
X2978669Y2038971D01*
X2978503Y2039637D01*
X2978392Y2040303D01*
X2978336Y2041080D01*
Y2041191D01*
Y2041413D01*
X2978392Y2041746D01*
X2978448Y2042245D01*
X2978559Y2042745D01*
X2978669Y2043355D01*
X2978892Y2043910D01*
X2979169Y2044521D01*
X2979224Y2044576D01*
X2979336Y2044799D01*
X2979502Y2045076D01*
X2979780Y2045465D01*
X2980113Y2045853D01*
X2980501Y2046352D01*
X2980945Y2046796D01*
X2981500Y2047185D01*
X2981555Y2047241D01*
X2981722Y2047296D01*
X2981944Y2047463D01*
X2982277Y2047629D01*
X2982721Y2047851D01*
X2983220Y2048073D01*
X2983831Y2048295D01*
X2984497Y2048517D01*
X2984608Y2048573D01*
X2984830Y2048628D01*
X2985218Y2048739D01*
X2985718Y2048850D01*
X2986329Y2048961D01*
X2986994Y2049017D01*
X2987771Y2049128D01*
X2989104D01*
X2989714Y2049072D01*
D02*
G37*
G36*
X3152662Y2049072D02*
X3152995D01*
X3153439Y2049017D01*
X3154494Y2048850D01*
X3155659Y2048573D01*
X3156880Y2048129D01*
X3158101Y2047574D01*
X3159267Y2046797D01*
X3159322D01*
X3159378Y2046686D01*
X3159711Y2046353D01*
X3160210Y2045853D01*
X3160820Y2045132D01*
X3161431Y2044244D01*
X3162041Y2043134D01*
X3162597Y2041857D01*
X3162985Y2040359D01*
X3158378Y2039637D01*
Y2039693D01*
X3158323Y2039748D01*
X3158267Y2040081D01*
X3158101Y2040581D01*
X3157823Y2041191D01*
X3157546Y2041857D01*
X3157102Y2042579D01*
X3156602Y2043245D01*
X3156048Y2043800D01*
X3155992Y2043855D01*
X3155770Y2044022D01*
X3155381Y2044244D01*
X3154938Y2044521D01*
X3154327Y2044799D01*
X3153661Y2045021D01*
X3152884Y2045187D01*
X3152052Y2045243D01*
X3151718D01*
X3151441Y2045187D01*
X3150831Y2045132D01*
X3149998Y2044910D01*
X3149110Y2044632D01*
X3148111Y2044188D01*
X3147168Y2043522D01*
X3146724Y2043134D01*
X3146280Y2042690D01*
Y2042634D01*
X3146169Y2042579D01*
X3146057Y2042412D01*
X3145947Y2042190D01*
X3145780Y2041913D01*
X3145558Y2041580D01*
X3145392Y2041191D01*
X3145169Y2040747D01*
X3144948Y2040192D01*
X3144781Y2039582D01*
X3144559Y2038916D01*
X3144392Y2038194D01*
X3144282Y2037417D01*
X3144171Y2036529D01*
X3144059Y2035586D01*
Y2034587D01*
Y2034531D01*
Y2034365D01*
Y2034032D01*
X3144115Y2033699D01*
Y2033199D01*
X3144171Y2032700D01*
X3144337Y2031479D01*
X3144559Y2030147D01*
X3144948Y2028759D01*
X3145447Y2027538D01*
X3145780Y2026928D01*
X3146169Y2026428D01*
X3146280Y2026317D01*
X3146557Y2026040D01*
X3147057Y2025651D01*
X3147667Y2025207D01*
X3148499Y2024708D01*
X3149443Y2024319D01*
X3150553Y2024042D01*
X3151164Y2023986D01*
X3151774Y2023931D01*
X3151885D01*
X3152218Y2023986D01*
X3152773Y2024042D01*
X3153383Y2024153D01*
X3154105Y2024319D01*
X3154882Y2024652D01*
X3155659Y2025041D01*
X3156381Y2025596D01*
X3156492Y2025651D01*
X3156658Y2025929D01*
X3156991Y2026317D01*
X3157380Y2026928D01*
X3157768Y2027649D01*
X3158212Y2028537D01*
X3158545Y2029647D01*
X3158767Y2030868D01*
X3163429Y2030258D01*
Y2030202D01*
X3163374Y2030036D01*
X3163318Y2029814D01*
X3163262Y2029481D01*
X3163151Y2029037D01*
X3163041Y2028593D01*
X3162652Y2027483D01*
X3162153Y2026317D01*
X3161431Y2025041D01*
X3160543Y2023820D01*
X3160044Y2023265D01*
X3159488Y2022710D01*
X3159433Y2022654D01*
X3159322Y2022599D01*
X3159155Y2022488D01*
X3158934Y2022321D01*
X3158656Y2022099D01*
X3158267Y2021877D01*
X3157823Y2021655D01*
X3157380Y2021378D01*
X3156269Y2020878D01*
X3154938Y2020490D01*
X3153494Y2020157D01*
X3152662Y2020101D01*
X3151829Y2020046D01*
X3151274D01*
X3150886Y2020101D01*
X3150387Y2020157D01*
X3149831Y2020268D01*
X3149221Y2020379D01*
X3148555Y2020490D01*
X3147057Y2020934D01*
X3146335Y2021267D01*
X3145558Y2021600D01*
X3144781Y2022044D01*
X3144059Y2022543D01*
X3143338Y2023098D01*
X3142672Y2023764D01*
X3142617Y2023820D01*
X3142506Y2023931D01*
X3142339Y2024153D01*
X3142117Y2024430D01*
X3141895Y2024819D01*
X3141562Y2025318D01*
X3141285Y2025873D01*
X3140952Y2026484D01*
X3140619Y2027205D01*
X3140341Y2028038D01*
X3140008Y2028870D01*
X3139786Y2029869D01*
X3139564Y2030868D01*
X3139398Y2032034D01*
X3139287Y2033199D01*
X3139231Y2034476D01*
Y2034531D01*
Y2034698D01*
Y2034920D01*
Y2035253D01*
X3139287Y2035641D01*
Y2036085D01*
X3139342Y2036585D01*
X3139398Y2037140D01*
X3139564Y2038361D01*
X3139841Y2039693D01*
X3140175Y2041025D01*
X3140674Y2042357D01*
Y2042412D01*
X3140729Y2042523D01*
X3140840Y2042690D01*
X3140952Y2042912D01*
X3141285Y2043522D01*
X3141784Y2044244D01*
X3142450Y2045076D01*
X3143227Y2045909D01*
X3144171Y2046741D01*
X3145225Y2047407D01*
X3145280D01*
X3145392Y2047463D01*
X3145558Y2047574D01*
X3145780Y2047685D01*
X3146057Y2047796D01*
X3146390Y2047962D01*
X3147223Y2048295D01*
X3148166Y2048573D01*
X3149332Y2048850D01*
X3150553Y2049072D01*
X3151885Y2049128D01*
X3152329D01*
X3152662Y2049072D01*
D02*
G37*
G36*
X2921893Y2020656D02*
X2917064D01*
X2912624Y2037306D01*
X2911515Y2042079D01*
X2905909Y2020656D01*
X2900914D01*
X2892478Y2048517D01*
X2897418D01*
X2901858Y2032422D01*
X2903412Y2026428D01*
Y2026484D01*
X2903467Y2026594D01*
X2903523Y2026872D01*
X2903578Y2027039D01*
X2903633Y2027316D01*
X2903689Y2027649D01*
X2903800Y2028037D01*
X2903911Y2028482D01*
X2904077Y2029036D01*
X2904244Y2029647D01*
X2904410Y2030369D01*
X2904633Y2031201D01*
X2904854Y2032145D01*
X2909294Y2048517D01*
X2914123D01*
X2918285Y2032311D01*
X2919673Y2026983D01*
X2921282Y2032367D01*
X2926055Y2048517D01*
X2930662D01*
X2921893Y2020656D01*
D02*
G37*
G36*
X2883154D02*
X2878325D01*
X2873885Y2037306D01*
X2872776Y2042079D01*
X2867170Y2020656D01*
X2862175D01*
X2853739Y2048517D01*
X2858678D01*
X2863119Y2032422D01*
X2864673Y2026428D01*
Y2026484D01*
X2864728Y2026594D01*
X2864784Y2026872D01*
X2864839Y2027039D01*
X2864894Y2027316D01*
X2864950Y2027649D01*
X2865061Y2028037D01*
X2865172Y2028482D01*
X2865338Y2029036D01*
X2865505Y2029647D01*
X2865671Y2030369D01*
X2865894Y2031201D01*
X2866115Y2032145D01*
X2870555Y2048517D01*
X2875384D01*
X2879546Y2032311D01*
X2880934Y2026983D01*
X2882544Y2032367D01*
X2887316Y2048517D01*
X2891923D01*
X2883154Y2020656D01*
D02*
G37*
G36*
X2844415D02*
X2839586D01*
X2835146Y2037306D01*
X2834037Y2042079D01*
X2828431Y2020656D01*
X2823436D01*
X2815000Y2048517D01*
X2819939D01*
X2824380Y2032422D01*
X2825934Y2026428D01*
Y2026484D01*
X2825989Y2026594D01*
X2826044Y2026872D01*
X2826100Y2027039D01*
X2826155Y2027316D01*
X2826211Y2027649D01*
X2826322Y2028037D01*
X2826433Y2028482D01*
X2826599Y2029036D01*
X2826766Y2029647D01*
X2826932Y2030369D01*
X2827155Y2031201D01*
X2827376Y2032145D01*
X2831816Y2048517D01*
X2836645D01*
X2840807Y2032311D01*
X2842195Y2026983D01*
X2843805Y2032367D01*
X2848577Y2048517D01*
X2853184D01*
X2844415Y2020656D01*
D02*
G37*
G36*
X3132405Y2020656D02*
X3127021D01*
Y2026040D01*
X3132405D01*
Y2020656D01*
D02*
G37*
G36*
X2968069Y2034198D02*
X2973286D01*
Y2029869D01*
X2968069D01*
Y2020656D01*
X2963352D01*
Y2029869D01*
X2946646D01*
Y2034198D01*
X2964240Y2059062D01*
X2968069D01*
Y2034198D01*
D02*
G37*
G36*
X2941374Y2020656D02*
X2935990D01*
Y2026040D01*
X2941374D01*
Y2020656D01*
D02*
G37*
G36*
X3041662Y2048517D02*
X3046435D01*
Y2044854D01*
X3041662D01*
Y2028482D01*
Y2028370D01*
Y2028149D01*
Y2027815D01*
X3041718Y2027427D01*
X3041773Y2026539D01*
X3041829Y2026150D01*
X3041884Y2025873D01*
X3041939Y2025762D01*
X3042106Y2025540D01*
X3042328Y2025263D01*
X3042716Y2024985D01*
X3042827Y2024929D01*
X3043105Y2024819D01*
X3043604Y2024707D01*
X3044326Y2024652D01*
X3044881D01*
X3045159Y2024707D01*
X3045547D01*
X3045991Y2024763D01*
X3046435Y2024819D01*
X3047046Y2020656D01*
X3046934D01*
X3046713Y2020601D01*
X3046324Y2020545D01*
X3045825Y2020489D01*
X3045269Y2020379D01*
X3044659Y2020323D01*
X3043438Y2020267D01*
X3042994D01*
X3042550Y2020323D01*
X3041995Y2020379D01*
X3041329Y2020434D01*
X3040663Y2020601D01*
X3040052Y2020767D01*
X3039442Y2021044D01*
X3039387Y2021100D01*
X3039220Y2021211D01*
X3038998Y2021378D01*
X3038665Y2021655D01*
X3038387Y2021932D01*
X3038055Y2022321D01*
X3037722Y2022709D01*
X3037499Y2023209D01*
Y2023264D01*
X3037389Y2023486D01*
X3037333Y2023875D01*
X3037222Y2024430D01*
X3037111Y2025151D01*
X3037055Y2025595D01*
Y2026095D01*
X3037000Y2026706D01*
X3036945Y2027316D01*
Y2027982D01*
Y2028759D01*
Y2044854D01*
X3033448D01*
Y2048517D01*
X3036945D01*
Y2055399D01*
X3041662Y2058229D01*
Y2048517D01*
D02*
G37*
G36*
X3179691Y2049072D02*
X3180190Y2049017D01*
X3180745Y2048906D01*
X3181356Y2048795D01*
X3182077Y2048684D01*
X3183575Y2048184D01*
X3184352Y2047907D01*
X3185130Y2047518D01*
X3185907Y2047130D01*
X3186684Y2046575D01*
X3187405Y2046020D01*
X3188126Y2045354D01*
X3188182Y2045298D01*
X3188293Y2045187D01*
X3188459Y2044965D01*
X3188682Y2044688D01*
X3188959Y2044299D01*
X3189292Y2043800D01*
X3189625Y2043245D01*
X3189958Y2042634D01*
X3190291Y2041968D01*
X3190624Y2041136D01*
X3190957Y2040303D01*
X3191235Y2039360D01*
X3191456Y2038361D01*
X3191623Y2037306D01*
X3191734Y2036196D01*
X3191789Y2034975D01*
Y2034920D01*
Y2034753D01*
Y2034476D01*
Y2034087D01*
X3191734Y2033643D01*
X3191678Y2033088D01*
Y2032533D01*
X3191568Y2031923D01*
X3191401Y2030535D01*
X3191068Y2029148D01*
X3190680Y2027760D01*
X3190124Y2026484D01*
Y2026428D01*
X3190069Y2026373D01*
X3189958Y2026206D01*
X3189847Y2025984D01*
X3189459Y2025429D01*
X3188959Y2024763D01*
X3188293Y2023986D01*
X3187461Y2023209D01*
X3186517Y2022432D01*
X3185407Y2021711D01*
X3185352D01*
X3185296Y2021655D01*
X3185130Y2021544D01*
X3184852Y2021433D01*
X3184575Y2021322D01*
X3184242Y2021211D01*
X3183409Y2020878D01*
X3182465Y2020601D01*
X3181300Y2020323D01*
X3180079Y2020101D01*
X3178747Y2020046D01*
X3178192D01*
X3177748Y2020101D01*
X3177249Y2020157D01*
X3176693Y2020268D01*
X3176028Y2020379D01*
X3175361Y2020490D01*
X3173863Y2020934D01*
X3173030Y2021267D01*
X3172253Y2021600D01*
X3171477Y2022044D01*
X3170700Y2022543D01*
X3169978Y2023098D01*
X3169256Y2023764D01*
X3169201Y2023820D01*
X3169090Y2023931D01*
X3168923Y2024153D01*
X3168702Y2024486D01*
X3168424Y2024874D01*
X3168146Y2025318D01*
X3167814Y2025873D01*
X3167481Y2026539D01*
X3167148Y2027261D01*
X3166814Y2028093D01*
X3166537Y2028981D01*
X3166260Y2029925D01*
X3166037Y2030979D01*
X3165871Y2032089D01*
X3165760Y2033310D01*
X3165704Y2034587D01*
Y2034698D01*
Y2034920D01*
X3165760Y2035308D01*
Y2035863D01*
X3165816Y2036474D01*
X3165927Y2037251D01*
X3166037Y2038028D01*
X3166260Y2038916D01*
X3166481Y2039804D01*
X3166759Y2040747D01*
X3167092Y2041746D01*
X3167536Y2042690D01*
X3167980Y2043578D01*
X3168590Y2044466D01*
X3169201Y2045298D01*
X3169978Y2046020D01*
X3170034Y2046075D01*
X3170144Y2046131D01*
X3170367Y2046297D01*
X3170644Y2046519D01*
X3170977Y2046741D01*
X3171421Y2047019D01*
X3171865Y2047296D01*
X3172420Y2047574D01*
X3173030Y2047851D01*
X3173697Y2048129D01*
X3175195Y2048628D01*
X3176916Y2049017D01*
X3177803Y2049072D01*
X3178747Y2049128D01*
X3179302D01*
X3179691Y2049072D01*
D02*
G37*
G36*
X3246109Y2075000D02*
X2795000D01*
Y2165910D01*
X3246109D01*
Y2075000D01*
D02*
G37*
G36*
X2562465Y2055038D02*
X2562798D01*
X2563686Y2054872D01*
X2564740Y2054705D01*
X2565850Y2054428D01*
X2567071Y2054039D01*
X2568237Y2053484D01*
X2568292D01*
X2568348Y2053429D01*
X2568514Y2053318D01*
X2568736Y2053207D01*
X2569291Y2052874D01*
X2570013Y2052374D01*
X2570790Y2051764D01*
X2571567Y2051042D01*
X2572344Y2050154D01*
X2573010Y2049211D01*
Y2049155D01*
X2573065Y2049100D01*
X2573176Y2048933D01*
X2573232Y2048711D01*
X2573509Y2048156D01*
X2573787Y2047435D01*
X2574120Y2046491D01*
X2574342Y2045437D01*
X2574564Y2044271D01*
X2574619Y2042995D01*
Y2042717D01*
X2574564Y2042440D01*
Y2041996D01*
X2574508Y2041496D01*
X2574397Y2040941D01*
X2574231Y2040275D01*
X2574064Y2039609D01*
X2573842Y2038832D01*
X2573565Y2038055D01*
X2573232Y2037278D01*
X2572788Y2036446D01*
X2572288Y2035669D01*
X2571733Y2034892D01*
X2571067Y2034115D01*
X2570290Y2033393D01*
X2570235Y2033338D01*
X2570068Y2033227D01*
X2569846Y2033060D01*
X2569458Y2032838D01*
X2568958Y2032505D01*
X2568403Y2032228D01*
X2567682Y2031895D01*
X2566905Y2031562D01*
X2565961Y2031173D01*
X2564907Y2030840D01*
X2563741Y2030563D01*
X2562465Y2030285D01*
X2561022Y2030008D01*
X2559468Y2029841D01*
X2557803Y2029730D01*
X2556027Y2029675D01*
X2555971D01*
X2555916D01*
X2555749D01*
X2555527D01*
X2554972Y2029730D01*
X2554195D01*
X2553307Y2029786D01*
X2552253Y2029897D01*
X2551087Y2030008D01*
X2549811Y2030174D01*
X2548534Y2030396D01*
X2547147Y2030674D01*
X2545815Y2031007D01*
X2544483Y2031395D01*
X2543206Y2031895D01*
X2541985Y2032450D01*
X2540820Y2033060D01*
X2539821Y2033782D01*
X2539765Y2033837D01*
X2539654Y2033948D01*
X2539432Y2034170D01*
X2539099Y2034448D01*
X2538766Y2034781D01*
X2538433Y2035225D01*
X2537989Y2035780D01*
X2537601Y2036335D01*
X2537212Y2037001D01*
X2536768Y2037722D01*
X2536435Y2038555D01*
X2536047Y2039387D01*
X2535769Y2040331D01*
X2535547Y2041330D01*
X2535436Y2042384D01*
X2535381Y2043494D01*
Y2043938D01*
X2535436Y2044271D01*
Y2044660D01*
X2535492Y2045104D01*
X2535714Y2046158D01*
X2535991Y2047324D01*
X2536435Y2048545D01*
X2537101Y2049766D01*
X2537490Y2050376D01*
X2537934Y2050931D01*
X2537989Y2050987D01*
X2538045Y2051042D01*
X2538211Y2051209D01*
X2538378Y2051375D01*
X2538655Y2051653D01*
X2538988Y2051875D01*
X2539765Y2052485D01*
X2540764Y2053096D01*
X2541985Y2053651D01*
X2543373Y2054150D01*
X2544927Y2054483D01*
X2545315Y2049766D01*
X2545260D01*
X2545204Y2049710D01*
X2544871Y2049655D01*
X2544372Y2049488D01*
X2543761Y2049266D01*
X2543095Y2049044D01*
X2542429Y2048711D01*
X2541819Y2048323D01*
X2541319Y2047934D01*
X2541208Y2047823D01*
X2540986Y2047601D01*
X2540653Y2047213D01*
X2540265Y2046658D01*
X2539932Y2045936D01*
X2539599Y2045159D01*
X2539377Y2044216D01*
X2539266Y2043217D01*
Y2042828D01*
X2539321Y2042384D01*
X2539432Y2041885D01*
X2539599Y2041219D01*
X2539821Y2040553D01*
X2540098Y2039887D01*
X2540542Y2039221D01*
X2540598Y2039110D01*
X2540820Y2038832D01*
X2541208Y2038444D01*
X2541763Y2037944D01*
X2542429Y2037389D01*
X2543206Y2036779D01*
X2544205Y2036224D01*
X2545315Y2035669D01*
X2545371D01*
X2545482Y2035613D01*
X2545648Y2035558D01*
X2545870Y2035447D01*
X2546203Y2035391D01*
X2546592Y2035280D01*
X2547036Y2035169D01*
X2547591Y2035058D01*
X2548201Y2034892D01*
X2548867Y2034781D01*
X2549589Y2034670D01*
X2550366Y2034614D01*
X2551254Y2034503D01*
X2552142Y2034448D01*
X2553141Y2034392D01*
X2554140D01*
X2554084Y2034448D01*
X2553751Y2034670D01*
X2553307Y2035058D01*
X2552752Y2035558D01*
X2552086Y2036113D01*
X2551476Y2036834D01*
X2550865Y2037611D01*
X2550310Y2038499D01*
Y2038555D01*
X2550255Y2038610D01*
X2550088Y2038943D01*
X2549922Y2039443D01*
X2549644Y2040109D01*
X2549422Y2040886D01*
X2549256Y2041774D01*
X2549089Y2042717D01*
X2549034Y2043716D01*
Y2044160D01*
X2549089Y2044493D01*
X2549145Y2044937D01*
X2549200Y2045381D01*
X2549311Y2045936D01*
X2549478Y2046491D01*
X2549866Y2047768D01*
X2550144Y2048434D01*
X2550532Y2049100D01*
X2550921Y2049766D01*
X2551365Y2050487D01*
X2551920Y2051153D01*
X2552530Y2051764D01*
X2552586Y2051819D01*
X2552697Y2051930D01*
X2552863Y2052097D01*
X2553141Y2052263D01*
X2553529Y2052541D01*
X2553918Y2052818D01*
X2554417Y2053096D01*
X2554972Y2053429D01*
X2555583Y2053762D01*
X2556249Y2054039D01*
X2557026Y2054317D01*
X2557803Y2054594D01*
X2558635Y2054761D01*
X2559579Y2054927D01*
X2560522Y2055038D01*
X2561521Y2055094D01*
X2561577D01*
X2561688D01*
X2561854D01*
X2562132D01*
X2562465Y2055038D01*
D02*
G37*
G36*
X2573953Y2020573D02*
X2565961Y2015522D01*
X2565906D01*
X2565795Y2015411D01*
X2565628Y2015300D01*
X2565406Y2015134D01*
X2564796Y2014745D01*
X2564019Y2014246D01*
X2563186Y2013635D01*
X2562298Y2013025D01*
X2561466Y2012414D01*
X2560689Y2011859D01*
X2560633Y2011804D01*
X2560411Y2011637D01*
X2560078Y2011360D01*
X2559690Y2010971D01*
X2558857Y2010139D01*
X2558469Y2009695D01*
X2558136Y2009251D01*
X2558080Y2009195D01*
X2558025Y2009084D01*
X2557914Y2008862D01*
X2557747Y2008529D01*
X2557581Y2008196D01*
X2557414Y2007808D01*
X2557137Y2006920D01*
Y2006864D01*
X2557081Y2006753D01*
Y2006531D01*
X2557026Y2006254D01*
X2556970Y2005865D01*
Y2005421D01*
X2556915Y2004811D01*
Y1998262D01*
X2573953D01*
Y1993156D01*
X2535547D01*
Y2010971D01*
X2535603Y2011415D01*
Y2011915D01*
X2535658Y2013080D01*
X2535825Y2014301D01*
X2535991Y2015633D01*
X2536269Y2016854D01*
X2536435Y2017465D01*
X2536602Y2017964D01*
Y2018020D01*
X2536657Y2018075D01*
X2536824Y2018408D01*
X2537046Y2018908D01*
X2537434Y2019518D01*
X2537934Y2020184D01*
X2538600Y2020906D01*
X2539377Y2021572D01*
X2540265Y2022238D01*
X2540320D01*
X2540376Y2022293D01*
X2540709Y2022515D01*
X2541264Y2022737D01*
X2541985Y2023070D01*
X2542818Y2023348D01*
X2543817Y2023625D01*
X2544871Y2023792D01*
X2546037Y2023847D01*
X2546092D01*
X2546203D01*
X2546425D01*
X2546703Y2023792D01*
X2547091D01*
X2547480Y2023736D01*
X2548423Y2023514D01*
X2549533Y2023181D01*
X2550699Y2022737D01*
X2551864Y2022071D01*
X2552419Y2021627D01*
X2552974Y2021183D01*
X2553030Y2021128D01*
X2553085Y2021072D01*
X2553252Y2020906D01*
X2553418Y2020684D01*
X2553640Y2020406D01*
X2553862Y2020073D01*
X2554140Y2019629D01*
X2554473Y2019185D01*
X2554750Y2018630D01*
X2555028Y2018020D01*
X2555361Y2017354D01*
X2555638Y2016632D01*
X2555860Y2015800D01*
X2556138Y2014967D01*
X2556304Y2014024D01*
X2556471Y2013025D01*
X2556526Y2013136D01*
X2556637Y2013358D01*
X2556859Y2013691D01*
X2557081Y2014135D01*
X2557692Y2015134D01*
X2558080Y2015633D01*
X2558413Y2016077D01*
X2558524Y2016188D01*
X2558802Y2016466D01*
X2559246Y2016910D01*
X2559801Y2017465D01*
X2560578Y2018075D01*
X2561410Y2018797D01*
X2562409Y2019518D01*
X2563519Y2020295D01*
X2573953Y2026900D01*
Y2020573D01*
D02*
G37*
G36*
Y1974341D02*
X2543928D01*
X2543983Y1974286D01*
X2544205Y1974008D01*
X2544538Y1973675D01*
X2544927Y1973120D01*
X2545426Y1972510D01*
X2545981Y1971733D01*
X2546592Y1970845D01*
X2547202Y1969846D01*
Y1969790D01*
X2547258Y1969735D01*
X2547480Y1969402D01*
X2547757Y1968847D01*
X2548090Y1968181D01*
X2548479Y1967404D01*
X2548867Y1966571D01*
X2549256Y1965739D01*
X2549589Y1964906D01*
X2545038D01*
Y1964962D01*
X2544927Y1965073D01*
X2544871Y1965295D01*
X2544705Y1965572D01*
X2544538Y1965905D01*
X2544316Y1966294D01*
X2543761Y1967237D01*
X2543151Y1968347D01*
X2542374Y1969457D01*
X2541486Y1970623D01*
X2540542Y1971788D01*
X2540487Y1971844D01*
X2540431Y1971899D01*
X2540265Y1972066D01*
X2540098Y1972288D01*
X2539543Y1972787D01*
X2538877Y1973453D01*
X2538100Y1974119D01*
X2537212Y1974841D01*
X2536324Y1975451D01*
X2535381Y1976006D01*
Y1979059D01*
X2573953D01*
Y1974341D01*
D02*
G37*
G36*
X2002465Y2055038D02*
X2002798D01*
X2003686Y2054872D01*
X2004740Y2054705D01*
X2005850Y2054428D01*
X2007071Y2054039D01*
X2008237Y2053484D01*
X2008292D01*
X2008348Y2053429D01*
X2008514Y2053318D01*
X2008736Y2053207D01*
X2009291Y2052874D01*
X2010013Y2052374D01*
X2010790Y2051764D01*
X2011567Y2051042D01*
X2012344Y2050154D01*
X2013010Y2049211D01*
Y2049155D01*
X2013065Y2049100D01*
X2013176Y2048933D01*
X2013232Y2048711D01*
X2013509Y2048156D01*
X2013787Y2047435D01*
X2014120Y2046491D01*
X2014342Y2045437D01*
X2014564Y2044271D01*
X2014619Y2042995D01*
Y2042717D01*
X2014564Y2042440D01*
Y2041996D01*
X2014508Y2041496D01*
X2014397Y2040941D01*
X2014231Y2040275D01*
X2014064Y2039609D01*
X2013842Y2038832D01*
X2013565Y2038055D01*
X2013232Y2037278D01*
X2012788Y2036446D01*
X2012288Y2035669D01*
X2011733Y2034892D01*
X2011067Y2034115D01*
X2010290Y2033393D01*
X2010235Y2033338D01*
X2010068Y2033227D01*
X2009846Y2033060D01*
X2009458Y2032838D01*
X2008958Y2032505D01*
X2008403Y2032228D01*
X2007682Y2031895D01*
X2006905Y2031562D01*
X2005961Y2031173D01*
X2004907Y2030840D01*
X2003741Y2030563D01*
X2002465Y2030285D01*
X2001022Y2030008D01*
X1999468Y2029841D01*
X1997803Y2029730D01*
X1996027Y2029675D01*
X1995971D01*
X1995916D01*
X1995749D01*
X1995527D01*
X1994972Y2029730D01*
X1994195D01*
X1993307Y2029786D01*
X1992253Y2029897D01*
X1991087Y2030008D01*
X1989811Y2030174D01*
X1988534Y2030396D01*
X1987147Y2030674D01*
X1985815Y2031007D01*
X1984483Y2031395D01*
X1983206Y2031895D01*
X1981985Y2032450D01*
X1980820Y2033060D01*
X1979821Y2033782D01*
X1979765Y2033837D01*
X1979654Y2033948D01*
X1979432Y2034170D01*
X1979099Y2034448D01*
X1978766Y2034781D01*
X1978433Y2035225D01*
X1977989Y2035780D01*
X1977601Y2036335D01*
X1977212Y2037001D01*
X1976768Y2037722D01*
X1976435Y2038555D01*
X1976047Y2039387D01*
X1975769Y2040331D01*
X1975547Y2041330D01*
X1975436Y2042384D01*
X1975381Y2043494D01*
Y2043938D01*
X1975436Y2044271D01*
Y2044660D01*
X1975492Y2045104D01*
X1975714Y2046158D01*
X1975991Y2047324D01*
X1976435Y2048545D01*
X1977101Y2049766D01*
X1977490Y2050376D01*
X1977934Y2050931D01*
X1977989Y2050987D01*
X1978045Y2051042D01*
X1978211Y2051209D01*
X1978378Y2051375D01*
X1978655Y2051653D01*
X1978988Y2051875D01*
X1979765Y2052485D01*
X1980764Y2053096D01*
X1981985Y2053651D01*
X1983373Y2054150D01*
X1984927Y2054483D01*
X1985315Y2049766D01*
X1985260D01*
X1985204Y2049710D01*
X1984871Y2049655D01*
X1984372Y2049488D01*
X1983761Y2049266D01*
X1983095Y2049044D01*
X1982429Y2048711D01*
X1981819Y2048323D01*
X1981319Y2047934D01*
X1981208Y2047823D01*
X1980986Y2047601D01*
X1980653Y2047213D01*
X1980265Y2046658D01*
X1979932Y2045936D01*
X1979599Y2045159D01*
X1979377Y2044216D01*
X1979266Y2043217D01*
Y2042828D01*
X1979321Y2042384D01*
X1979432Y2041885D01*
X1979599Y2041219D01*
X1979821Y2040553D01*
X1980098Y2039887D01*
X1980542Y2039221D01*
X1980598Y2039110D01*
X1980820Y2038832D01*
X1981208Y2038444D01*
X1981763Y2037944D01*
X1982429Y2037389D01*
X1983206Y2036779D01*
X1984205Y2036224D01*
X1985315Y2035669D01*
X1985371D01*
X1985482Y2035613D01*
X1985648Y2035558D01*
X1985870Y2035447D01*
X1986203Y2035391D01*
X1986592Y2035280D01*
X1987036Y2035169D01*
X1987591Y2035058D01*
X1988201Y2034892D01*
X1988867Y2034781D01*
X1989589Y2034670D01*
X1990366Y2034614D01*
X1991254Y2034503D01*
X1992142Y2034448D01*
X1993141Y2034392D01*
X1994140D01*
X1994084Y2034448D01*
X1993751Y2034670D01*
X1993307Y2035058D01*
X1992752Y2035558D01*
X1992086Y2036113D01*
X1991476Y2036834D01*
X1990865Y2037611D01*
X1990310Y2038499D01*
Y2038555D01*
X1990255Y2038610D01*
X1990088Y2038943D01*
X1989922Y2039443D01*
X1989644Y2040109D01*
X1989422Y2040886D01*
X1989256Y2041774D01*
X1989089Y2042717D01*
X1989034Y2043716D01*
Y2044160D01*
X1989089Y2044493D01*
X1989145Y2044937D01*
X1989200Y2045381D01*
X1989311Y2045936D01*
X1989478Y2046491D01*
X1989866Y2047768D01*
X1990144Y2048434D01*
X1990532Y2049100D01*
X1990921Y2049766D01*
X1991365Y2050487D01*
X1991920Y2051153D01*
X1992530Y2051764D01*
X1992586Y2051819D01*
X1992697Y2051930D01*
X1992863Y2052097D01*
X1993141Y2052263D01*
X1993529Y2052541D01*
X1993918Y2052818D01*
X1994417Y2053096D01*
X1994972Y2053429D01*
X1995583Y2053762D01*
X1996249Y2054039D01*
X1997026Y2054317D01*
X1997803Y2054594D01*
X1998635Y2054761D01*
X1999579Y2054927D01*
X2000522Y2055038D01*
X2001521Y2055094D01*
X2001577D01*
X2001688D01*
X2001854D01*
X2002132D01*
X2002465Y2055038D01*
D02*
G37*
G36*
X2013953Y2020573D02*
X2005961Y2015522D01*
X2005906D01*
X2005795Y2015411D01*
X2005628Y2015300D01*
X2005406Y2015134D01*
X2004796Y2014745D01*
X2004019Y2014246D01*
X2003186Y2013635D01*
X2002298Y2013025D01*
X2001466Y2012414D01*
X2000689Y2011859D01*
X2000633Y2011804D01*
X2000411Y2011637D01*
X2000078Y2011360D01*
X1999690Y2010971D01*
X1998857Y2010139D01*
X1998469Y2009695D01*
X1998136Y2009251D01*
X1998080Y2009195D01*
X1998025Y2009084D01*
X1997914Y2008862D01*
X1997747Y2008529D01*
X1997581Y2008196D01*
X1997414Y2007808D01*
X1997137Y2006920D01*
Y2006864D01*
X1997081Y2006753D01*
Y2006531D01*
X1997026Y2006254D01*
X1996970Y2005865D01*
Y2005421D01*
X1996915Y2004811D01*
Y1998262D01*
X2013953D01*
Y1993156D01*
X1975547D01*
Y2010971D01*
X1975603Y2011415D01*
Y2011915D01*
X1975658Y2013080D01*
X1975825Y2014301D01*
X1975991Y2015633D01*
X1976269Y2016854D01*
X1976435Y2017465D01*
X1976602Y2017964D01*
Y2018020D01*
X1976657Y2018075D01*
X1976824Y2018408D01*
X1977046Y2018908D01*
X1977434Y2019518D01*
X1977934Y2020184D01*
X1978600Y2020906D01*
X1979377Y2021572D01*
X1980265Y2022238D01*
X1980320D01*
X1980376Y2022293D01*
X1980709Y2022515D01*
X1981264Y2022737D01*
X1981985Y2023070D01*
X1982818Y2023348D01*
X1983817Y2023625D01*
X1984871Y2023792D01*
X1986037Y2023847D01*
X1986092D01*
X1986203D01*
X1986425D01*
X1986703Y2023792D01*
X1987091D01*
X1987480Y2023736D01*
X1988423Y2023514D01*
X1989533Y2023181D01*
X1990699Y2022737D01*
X1991864Y2022071D01*
X1992419Y2021627D01*
X1992974Y2021183D01*
X1993030Y2021128D01*
X1993085Y2021072D01*
X1993252Y2020906D01*
X1993418Y2020684D01*
X1993640Y2020406D01*
X1993862Y2020073D01*
X1994140Y2019629D01*
X1994473Y2019185D01*
X1994750Y2018630D01*
X1995028Y2018020D01*
X1995361Y2017354D01*
X1995638Y2016632D01*
X1995860Y2015800D01*
X1996138Y2014967D01*
X1996304Y2014024D01*
X1996471Y2013025D01*
X1996526Y2013136D01*
X1996637Y2013358D01*
X1996859Y2013691D01*
X1997081Y2014135D01*
X1997692Y2015134D01*
X1998080Y2015633D01*
X1998413Y2016077D01*
X1998524Y2016188D01*
X1998802Y2016466D01*
X1999246Y2016910D01*
X1999801Y2017465D01*
X2000578Y2018075D01*
X2001410Y2018797D01*
X2002409Y2019518D01*
X2003519Y2020295D01*
X2013953Y2026900D01*
Y2020573D01*
D02*
G37*
G36*
Y1974341D02*
X1983928D01*
X1983983Y1974286D01*
X1984205Y1974008D01*
X1984538Y1973675D01*
X1984927Y1973120D01*
X1985426Y1972510D01*
X1985981Y1971733D01*
X1986592Y1970845D01*
X1987202Y1969846D01*
Y1969790D01*
X1987258Y1969735D01*
X1987480Y1969402D01*
X1987757Y1968847D01*
X1988090Y1968181D01*
X1988479Y1967404D01*
X1988867Y1966571D01*
X1989256Y1965739D01*
X1989589Y1964906D01*
X1985038D01*
Y1964962D01*
X1984927Y1965073D01*
X1984871Y1965295D01*
X1984705Y1965572D01*
X1984538Y1965905D01*
X1984316Y1966294D01*
X1983761Y1967237D01*
X1983151Y1968347D01*
X1982374Y1969457D01*
X1981486Y1970623D01*
X1980542Y1971788D01*
X1980487Y1971844D01*
X1980431Y1971899D01*
X1980265Y1972066D01*
X1980098Y1972288D01*
X1979543Y1972787D01*
X1978877Y1973453D01*
X1978100Y1974119D01*
X1977212Y1974841D01*
X1976324Y1975451D01*
X1975381Y1976006D01*
Y1979059D01*
X2013953D01*
Y1974341D01*
D02*
G37*
G36*
X1979821Y2307576D02*
X1979932Y2307465D01*
X1980154Y2307243D01*
X1980487Y2307021D01*
X1980875Y2306688D01*
X1981319Y2306244D01*
X1981874Y2305800D01*
X1982540Y2305301D01*
X1983206Y2304801D01*
X1983983Y2304191D01*
X1984871Y2303580D01*
X1985759Y2302970D01*
X1986758Y2302304D01*
X1987813Y2301638D01*
X1988978Y2300972D01*
X1990144Y2300306D01*
X1990199Y2300250D01*
X1990421Y2300139D01*
X1990754Y2299973D01*
X1991254Y2299695D01*
X1991864Y2299418D01*
X1992530Y2299085D01*
X1993307Y2298696D01*
X1994195Y2298308D01*
X1995194Y2297864D01*
X1996193Y2297364D01*
X1997303Y2296920D01*
X1998469Y2296476D01*
X2000855Y2295588D01*
X2003408Y2294756D01*
X2003464D01*
X2003630Y2294700D01*
X2003908Y2294645D01*
X2004241Y2294534D01*
X2004685Y2294423D01*
X2005240Y2294312D01*
X2005850Y2294145D01*
X2006516Y2294034D01*
X2007293Y2293868D01*
X2008126Y2293701D01*
X2009902Y2293424D01*
X2011844Y2293146D01*
X2013953Y2292980D01*
Y2288151D01*
X2013898D01*
X2013731D01*
X2013509D01*
X2013176Y2288207D01*
X2012732D01*
X2012177Y2288262D01*
X2011567Y2288318D01*
X2010901Y2288373D01*
X2010124Y2288484D01*
X2009347Y2288595D01*
X2008403Y2288762D01*
X2007460Y2288928D01*
X2006461Y2289095D01*
X2005351Y2289317D01*
X2003075Y2289872D01*
X2003020D01*
X2002798Y2289927D01*
X2002465Y2290038D01*
X2001965Y2290205D01*
X2001410Y2290371D01*
X2000744Y2290593D01*
X1999967Y2290815D01*
X1999135Y2291148D01*
X1998191Y2291481D01*
X1997248Y2291814D01*
X1995139Y2292647D01*
X1992919Y2293646D01*
X1990699Y2294756D01*
X1990643Y2294811D01*
X1990421Y2294922D01*
X1990144Y2295089D01*
X1989700Y2295311D01*
X1989200Y2295588D01*
X1988590Y2295977D01*
X1987924Y2296365D01*
X1987202Y2296809D01*
X1985593Y2297864D01*
X1983928Y2298974D01*
X1982207Y2300250D01*
X1980598Y2301582D01*
Y2282768D01*
X1976047D01*
Y2307632D01*
X1979765D01*
X1979821Y2307576D01*
D02*
G37*
G36*
X2013953Y2273111D02*
X2005961Y2268060D01*
X2005906D01*
X2005795Y2267949D01*
X2005628Y2267838D01*
X2005406Y2267672D01*
X2004796Y2267283D01*
X2004019Y2266784D01*
X2003186Y2266173D01*
X2002298Y2265563D01*
X2001466Y2264952D01*
X2000689Y2264397D01*
X2000633Y2264342D01*
X2000411Y2264175D01*
X2000078Y2263898D01*
X1999690Y2263509D01*
X1998857Y2262677D01*
X1998469Y2262233D01*
X1998136Y2261789D01*
X1998080Y2261733D01*
X1998025Y2261622D01*
X1997914Y2261400D01*
X1997747Y2261067D01*
X1997581Y2260734D01*
X1997414Y2260346D01*
X1997137Y2259458D01*
Y2259402D01*
X1997081Y2259291D01*
Y2259069D01*
X1997026Y2258792D01*
X1996970Y2258403D01*
Y2257959D01*
X1996915Y2257349D01*
Y2250800D01*
X2013953D01*
Y2245694D01*
X1975547D01*
Y2263509D01*
X1975603Y2263953D01*
Y2264453D01*
X1975658Y2265618D01*
X1975825Y2266839D01*
X1975991Y2268171D01*
X1976269Y2269392D01*
X1976435Y2270003D01*
X1976602Y2270502D01*
Y2270558D01*
X1976657Y2270613D01*
X1976824Y2270946D01*
X1977046Y2271446D01*
X1977434Y2272056D01*
X1977934Y2272722D01*
X1978600Y2273444D01*
X1979377Y2274110D01*
X1980265Y2274776D01*
X1980320D01*
X1980376Y2274831D01*
X1980709Y2275053D01*
X1981264Y2275275D01*
X1981985Y2275608D01*
X1982818Y2275886D01*
X1983817Y2276163D01*
X1984871Y2276330D01*
X1986037Y2276385D01*
X1986092D01*
X1986203D01*
X1986425D01*
X1986703Y2276330D01*
X1987091D01*
X1987480Y2276274D01*
X1988423Y2276052D01*
X1989533Y2275719D01*
X1990699Y2275275D01*
X1991864Y2274609D01*
X1992419Y2274165D01*
X1992974Y2273721D01*
X1993030Y2273666D01*
X1993085Y2273610D01*
X1993252Y2273444D01*
X1993418Y2273222D01*
X1993640Y2272944D01*
X1993862Y2272611D01*
X1994140Y2272167D01*
X1994473Y2271723D01*
X1994750Y2271168D01*
X1995028Y2270558D01*
X1995361Y2269892D01*
X1995638Y2269170D01*
X1995860Y2268338D01*
X1996138Y2267505D01*
X1996304Y2266562D01*
X1996471Y2265563D01*
X1996526Y2265674D01*
X1996637Y2265896D01*
X1996859Y2266229D01*
X1997081Y2266673D01*
X1997692Y2267672D01*
X1998080Y2268171D01*
X1998413Y2268615D01*
X1998524Y2268726D01*
X1998802Y2269004D01*
X1999246Y2269448D01*
X1999801Y2270003D01*
X2000578Y2270613D01*
X2001410Y2271335D01*
X2002409Y2272056D01*
X2003519Y2272833D01*
X2013953Y2279438D01*
Y2273111D01*
D02*
G37*
G36*
X2003852Y2239034D02*
X2004241Y2238978D01*
X2004740Y2238923D01*
X2005295Y2238812D01*
X2005906Y2238645D01*
X2007182Y2238257D01*
X2007904Y2237979D01*
X2008570Y2237591D01*
X2009291Y2237202D01*
X2009957Y2236758D01*
X2010623Y2236203D01*
X2011289Y2235593D01*
X2011345Y2235537D01*
X2011456Y2235426D01*
X2011622Y2235260D01*
X2011789Y2234982D01*
X2012066Y2234594D01*
X2012344Y2234205D01*
X2012621Y2233706D01*
X2012954Y2233151D01*
X2013287Y2232540D01*
X2013565Y2231819D01*
X2013842Y2231042D01*
X2014120Y2230265D01*
X2014286Y2229377D01*
X2014453Y2228433D01*
X2014564Y2227490D01*
X2014619Y2226435D01*
Y2225880D01*
X2014564Y2225492D01*
X2014508Y2224992D01*
X2014453Y2224437D01*
X2014342Y2223827D01*
X2014175Y2223161D01*
X2013787Y2221662D01*
X2013509Y2220885D01*
X2013232Y2220164D01*
X2012843Y2219387D01*
X2012399Y2218610D01*
X2011900Y2217888D01*
X2011289Y2217222D01*
X2011234Y2217167D01*
X2011123Y2217056D01*
X2010956Y2216889D01*
X2010679Y2216667D01*
X2010346Y2216445D01*
X2009957Y2216112D01*
X2009513Y2215835D01*
X2008958Y2215502D01*
X2008403Y2215169D01*
X2007737Y2214891D01*
X2006350Y2214336D01*
X2005517Y2214114D01*
X2004685Y2213948D01*
X2003797Y2213837D01*
X2002909Y2213781D01*
X2002853D01*
X2002742D01*
X2002520D01*
X2002298Y2213837D01*
X2001965D01*
X2001577Y2213892D01*
X2000689Y2214003D01*
X1999690Y2214225D01*
X1998691Y2214558D01*
X1997636Y2215058D01*
X1996637Y2215668D01*
X1996582D01*
X1996526Y2215779D01*
X1996249Y2216001D01*
X1995805Y2216445D01*
X1995250Y2217056D01*
X1994695Y2217833D01*
X1994084Y2218776D01*
X1993585Y2219831D01*
X1993196Y2221107D01*
Y2221052D01*
X1993141Y2220996D01*
X1993085Y2220830D01*
X1992974Y2220608D01*
X1992752Y2220108D01*
X1992419Y2219442D01*
X1991975Y2218721D01*
X1991420Y2217999D01*
X1990810Y2217333D01*
X1990144Y2216723D01*
X1990033Y2216667D01*
X1989811Y2216501D01*
X1989367Y2216279D01*
X1988812Y2216057D01*
X1988090Y2215779D01*
X1987258Y2215557D01*
X1986314Y2215391D01*
X1985315Y2215335D01*
X1985260D01*
X1985149D01*
X1984927D01*
X1984594Y2215391D01*
X1984261Y2215446D01*
X1983817Y2215502D01*
X1982873Y2215724D01*
X1981763Y2216057D01*
X1980598Y2216612D01*
X1979987Y2216945D01*
X1979377Y2217333D01*
X1978822Y2217833D01*
X1978267Y2218332D01*
X1978211Y2218388D01*
X1978156Y2218499D01*
X1977989Y2218665D01*
X1977823Y2218887D01*
X1977601Y2219165D01*
X1977379Y2219553D01*
X1977101Y2219997D01*
X1976824Y2220441D01*
X1976546Y2220996D01*
X1976269Y2221607D01*
X1976047Y2222273D01*
X1975825Y2222994D01*
X1975492Y2224548D01*
X1975436Y2225436D01*
X1975381Y2226324D01*
Y2226824D01*
X1975436Y2227157D01*
X1975492Y2227601D01*
X1975547Y2228100D01*
X1975603Y2228655D01*
X1975769Y2229210D01*
X1976102Y2230542D01*
X1976602Y2231874D01*
X1976935Y2232540D01*
X1977323Y2233206D01*
X1977823Y2233817D01*
X1978322Y2234427D01*
X1978378Y2234483D01*
X1978433Y2234538D01*
X1978600Y2234705D01*
X1978822Y2234927D01*
X1979155Y2235149D01*
X1979488Y2235426D01*
X1980320Y2235981D01*
X1981375Y2236536D01*
X1982596Y2237036D01*
X1983983Y2237424D01*
X1984705Y2237480D01*
X1985482Y2237535D01*
X1985537D01*
X1985593D01*
X1985926D01*
X1986425Y2237480D01*
X1987036Y2237369D01*
X1987813Y2237202D01*
X1988590Y2236925D01*
X1989367Y2236592D01*
X1990144Y2236092D01*
X1990255Y2236037D01*
X1990477Y2235815D01*
X1990810Y2235482D01*
X1991254Y2235038D01*
X1991753Y2234427D01*
X1992253Y2233706D01*
X1992752Y2232873D01*
X1993196Y2231874D01*
Y2231930D01*
X1993252Y2232041D01*
X1993307Y2232207D01*
X1993418Y2232429D01*
X1993696Y2233095D01*
X1994084Y2233872D01*
X1994639Y2234705D01*
X1995250Y2235593D01*
X1996027Y2236425D01*
X1996915Y2237202D01*
X1996970D01*
X1997026Y2237258D01*
X1997359Y2237480D01*
X1997914Y2237813D01*
X1998635Y2238146D01*
X1999523Y2238479D01*
X2000578Y2238812D01*
X2001743Y2239034D01*
X2003020Y2239089D01*
X2003075D01*
X2003242D01*
X2003519D01*
X2003852Y2239034D01*
D02*
G37*
G36*
X2004740Y2203791D02*
X2013953D01*
Y2199074D01*
X2004740D01*
Y2182368D01*
X2000411D01*
X1975547Y2199962D01*
Y2203791D01*
X2000411D01*
Y2209008D01*
X2004740D01*
Y2203791D01*
D02*
G37*
G36*
X2499821Y2307576D02*
X2499932Y2307465D01*
X2500154Y2307243D01*
X2500487Y2307021D01*
X2500875Y2306688D01*
X2501319Y2306244D01*
X2501874Y2305800D01*
X2502540Y2305301D01*
X2503206Y2304801D01*
X2503983Y2304191D01*
X2504871Y2303580D01*
X2505759Y2302970D01*
X2506758Y2302304D01*
X2507813Y2301638D01*
X2508978Y2300972D01*
X2510144Y2300306D01*
X2510199Y2300250D01*
X2510421Y2300139D01*
X2510754Y2299973D01*
X2511254Y2299695D01*
X2511864Y2299418D01*
X2512530Y2299085D01*
X2513307Y2298696D01*
X2514195Y2298308D01*
X2515194Y2297864D01*
X2516193Y2297364D01*
X2517303Y2296920D01*
X2518469Y2296476D01*
X2520855Y2295588D01*
X2523408Y2294756D01*
X2523464D01*
X2523630Y2294700D01*
X2523908Y2294645D01*
X2524241Y2294534D01*
X2524685Y2294423D01*
X2525240Y2294312D01*
X2525850Y2294145D01*
X2526516Y2294034D01*
X2527293Y2293868D01*
X2528126Y2293701D01*
X2529902Y2293424D01*
X2531844Y2293146D01*
X2533953Y2292980D01*
Y2288151D01*
X2533898D01*
X2533731D01*
X2533509D01*
X2533176Y2288207D01*
X2532732D01*
X2532177Y2288262D01*
X2531567Y2288318D01*
X2530901Y2288373D01*
X2530124Y2288484D01*
X2529347Y2288595D01*
X2528403Y2288762D01*
X2527460Y2288928D01*
X2526461Y2289095D01*
X2525351Y2289317D01*
X2523075Y2289872D01*
X2523020D01*
X2522798Y2289927D01*
X2522465Y2290038D01*
X2521965Y2290205D01*
X2521410Y2290371D01*
X2520744Y2290593D01*
X2519967Y2290815D01*
X2519135Y2291148D01*
X2518191Y2291481D01*
X2517248Y2291814D01*
X2515139Y2292647D01*
X2512919Y2293646D01*
X2510699Y2294756D01*
X2510643Y2294811D01*
X2510421Y2294922D01*
X2510144Y2295089D01*
X2509700Y2295311D01*
X2509200Y2295588D01*
X2508590Y2295977D01*
X2507924Y2296365D01*
X2507202Y2296809D01*
X2505593Y2297864D01*
X2503928Y2298974D01*
X2502207Y2300250D01*
X2500598Y2301582D01*
Y2282768D01*
X2496047D01*
Y2307632D01*
X2499765D01*
X2499821Y2307576D01*
D02*
G37*
G36*
X2533953Y2273111D02*
X2525961Y2268060D01*
X2525906D01*
X2525795Y2267949D01*
X2525628Y2267838D01*
X2525406Y2267672D01*
X2524796Y2267283D01*
X2524019Y2266784D01*
X2523186Y2266173D01*
X2522298Y2265563D01*
X2521466Y2264952D01*
X2520689Y2264397D01*
X2520633Y2264342D01*
X2520411Y2264175D01*
X2520078Y2263898D01*
X2519690Y2263509D01*
X2518857Y2262677D01*
X2518469Y2262233D01*
X2518136Y2261789D01*
X2518080Y2261733D01*
X2518025Y2261622D01*
X2517914Y2261400D01*
X2517747Y2261067D01*
X2517581Y2260734D01*
X2517414Y2260346D01*
X2517137Y2259458D01*
Y2259402D01*
X2517081Y2259291D01*
Y2259069D01*
X2517026Y2258792D01*
X2516970Y2258403D01*
Y2257959D01*
X2516915Y2257349D01*
Y2250800D01*
X2533953D01*
Y2245694D01*
X2495547D01*
Y2263509D01*
X2495603Y2263953D01*
Y2264453D01*
X2495658Y2265618D01*
X2495825Y2266839D01*
X2495991Y2268171D01*
X2496269Y2269392D01*
X2496435Y2270003D01*
X2496602Y2270502D01*
Y2270558D01*
X2496657Y2270613D01*
X2496824Y2270946D01*
X2497046Y2271446D01*
X2497434Y2272056D01*
X2497934Y2272722D01*
X2498600Y2273444D01*
X2499377Y2274110D01*
X2500265Y2274776D01*
X2500320D01*
X2500376Y2274831D01*
X2500709Y2275053D01*
X2501264Y2275275D01*
X2501985Y2275608D01*
X2502818Y2275886D01*
X2503817Y2276163D01*
X2504871Y2276330D01*
X2506037Y2276385D01*
X2506092D01*
X2506203D01*
X2506425D01*
X2506703Y2276330D01*
X2507091D01*
X2507480Y2276274D01*
X2508423Y2276052D01*
X2509533Y2275719D01*
X2510699Y2275275D01*
X2511864Y2274609D01*
X2512419Y2274165D01*
X2512974Y2273721D01*
X2513030Y2273666D01*
X2513085Y2273610D01*
X2513252Y2273444D01*
X2513418Y2273222D01*
X2513640Y2272944D01*
X2513862Y2272611D01*
X2514140Y2272167D01*
X2514473Y2271723D01*
X2514750Y2271168D01*
X2515028Y2270558D01*
X2515361Y2269892D01*
X2515638Y2269170D01*
X2515860Y2268338D01*
X2516138Y2267505D01*
X2516304Y2266562D01*
X2516471Y2265563D01*
X2516526Y2265674D01*
X2516637Y2265896D01*
X2516859Y2266229D01*
X2517081Y2266673D01*
X2517692Y2267672D01*
X2518080Y2268171D01*
X2518413Y2268615D01*
X2518524Y2268726D01*
X2518802Y2269004D01*
X2519246Y2269448D01*
X2519801Y2270003D01*
X2520578Y2270613D01*
X2521410Y2271335D01*
X2522409Y2272056D01*
X2523519Y2272833D01*
X2533953Y2279438D01*
Y2273111D01*
D02*
G37*
G36*
X2523852Y2239034D02*
X2524241Y2238978D01*
X2524740Y2238923D01*
X2525295Y2238812D01*
X2525906Y2238645D01*
X2527182Y2238257D01*
X2527904Y2237979D01*
X2528570Y2237591D01*
X2529291Y2237202D01*
X2529957Y2236758D01*
X2530623Y2236203D01*
X2531289Y2235593D01*
X2531345Y2235537D01*
X2531456Y2235426D01*
X2531622Y2235260D01*
X2531789Y2234982D01*
X2532066Y2234594D01*
X2532344Y2234205D01*
X2532621Y2233706D01*
X2532954Y2233151D01*
X2533287Y2232540D01*
X2533565Y2231819D01*
X2533842Y2231042D01*
X2534120Y2230265D01*
X2534286Y2229377D01*
X2534453Y2228433D01*
X2534564Y2227490D01*
X2534619Y2226435D01*
Y2225880D01*
X2534564Y2225492D01*
X2534508Y2224992D01*
X2534453Y2224437D01*
X2534342Y2223827D01*
X2534175Y2223161D01*
X2533787Y2221662D01*
X2533509Y2220885D01*
X2533232Y2220164D01*
X2532843Y2219387D01*
X2532399Y2218610D01*
X2531900Y2217888D01*
X2531289Y2217222D01*
X2531234Y2217167D01*
X2531123Y2217056D01*
X2530956Y2216889D01*
X2530679Y2216667D01*
X2530346Y2216445D01*
X2529957Y2216112D01*
X2529513Y2215835D01*
X2528958Y2215502D01*
X2528403Y2215169D01*
X2527737Y2214891D01*
X2526350Y2214336D01*
X2525517Y2214114D01*
X2524685Y2213948D01*
X2523797Y2213837D01*
X2522909Y2213781D01*
X2522853D01*
X2522742D01*
X2522520D01*
X2522298Y2213837D01*
X2521965D01*
X2521577Y2213892D01*
X2520689Y2214003D01*
X2519690Y2214225D01*
X2518691Y2214558D01*
X2517636Y2215058D01*
X2516637Y2215668D01*
X2516582D01*
X2516526Y2215779D01*
X2516249Y2216001D01*
X2515805Y2216445D01*
X2515250Y2217056D01*
X2514695Y2217833D01*
X2514084Y2218776D01*
X2513585Y2219831D01*
X2513196Y2221107D01*
Y2221052D01*
X2513141Y2220996D01*
X2513085Y2220830D01*
X2512974Y2220608D01*
X2512752Y2220108D01*
X2512419Y2219442D01*
X2511975Y2218721D01*
X2511420Y2217999D01*
X2510810Y2217333D01*
X2510144Y2216723D01*
X2510033Y2216667D01*
X2509811Y2216501D01*
X2509367Y2216279D01*
X2508812Y2216057D01*
X2508090Y2215779D01*
X2507258Y2215557D01*
X2506314Y2215391D01*
X2505315Y2215335D01*
X2505260D01*
X2505149D01*
X2504927D01*
X2504594Y2215391D01*
X2504261Y2215446D01*
X2503817Y2215502D01*
X2502873Y2215724D01*
X2501763Y2216057D01*
X2500598Y2216612D01*
X2499987Y2216945D01*
X2499377Y2217333D01*
X2498822Y2217833D01*
X2498267Y2218332D01*
X2498211Y2218388D01*
X2498156Y2218499D01*
X2497989Y2218665D01*
X2497823Y2218887D01*
X2497601Y2219165D01*
X2497379Y2219553D01*
X2497101Y2219997D01*
X2496824Y2220441D01*
X2496546Y2220996D01*
X2496269Y2221607D01*
X2496047Y2222273D01*
X2495825Y2222994D01*
X2495492Y2224548D01*
X2495436Y2225436D01*
X2495381Y2226324D01*
Y2226824D01*
X2495436Y2227157D01*
X2495492Y2227601D01*
X2495547Y2228100D01*
X2495603Y2228655D01*
X2495769Y2229210D01*
X2496102Y2230542D01*
X2496602Y2231874D01*
X2496935Y2232540D01*
X2497323Y2233206D01*
X2497823Y2233817D01*
X2498322Y2234427D01*
X2498378Y2234483D01*
X2498433Y2234538D01*
X2498600Y2234705D01*
X2498822Y2234927D01*
X2499155Y2235149D01*
X2499488Y2235426D01*
X2500320Y2235981D01*
X2501375Y2236536D01*
X2502596Y2237036D01*
X2503983Y2237424D01*
X2504705Y2237480D01*
X2505482Y2237535D01*
X2505537D01*
X2505593D01*
X2505926D01*
X2506425Y2237480D01*
X2507036Y2237369D01*
X2507813Y2237202D01*
X2508590Y2236925D01*
X2509367Y2236592D01*
X2510144Y2236092D01*
X2510255Y2236037D01*
X2510477Y2235815D01*
X2510810Y2235482D01*
X2511254Y2235038D01*
X2511753Y2234427D01*
X2512253Y2233706D01*
X2512752Y2232873D01*
X2513196Y2231874D01*
Y2231930D01*
X2513252Y2232041D01*
X2513307Y2232207D01*
X2513418Y2232429D01*
X2513696Y2233095D01*
X2514084Y2233872D01*
X2514639Y2234705D01*
X2515250Y2235593D01*
X2516027Y2236425D01*
X2516915Y2237202D01*
X2516970D01*
X2517026Y2237258D01*
X2517359Y2237480D01*
X2517914Y2237813D01*
X2518635Y2238146D01*
X2519523Y2238479D01*
X2520578Y2238812D01*
X2521743Y2239034D01*
X2523020Y2239089D01*
X2523075D01*
X2523242D01*
X2523519D01*
X2523852Y2239034D01*
D02*
G37*
G36*
X2524740Y2203791D02*
X2533953D01*
Y2199074D01*
X2524740D01*
Y2182368D01*
X2520411D01*
X2495547Y2199962D01*
Y2203791D01*
X2520411D01*
Y2209008D01*
X2524740D01*
Y2203791D01*
D02*
G37*
G36*
X2660477Y2599564D02*
X2660921Y2599508D01*
X2661476Y2599453D01*
X2662087Y2599342D01*
X2662697Y2599231D01*
X2664140Y2598842D01*
X2665583Y2598287D01*
X2666305Y2597954D01*
X2667026Y2597566D01*
X2667692Y2597066D01*
X2668303Y2596511D01*
X2668358Y2596456D01*
X2668469Y2596400D01*
X2668580Y2596178D01*
X2668802Y2595956D01*
X2669080Y2595679D01*
X2669357Y2595290D01*
X2669635Y2594902D01*
X2669968Y2594402D01*
X2670523Y2593348D01*
X2671078Y2592016D01*
X2671300Y2591350D01*
X2671411Y2590573D01*
X2671522Y2589796D01*
X2671577Y2588963D01*
Y2588852D01*
Y2588575D01*
X2671522Y2588131D01*
X2671466Y2587520D01*
X2671355Y2586854D01*
X2671133Y2586077D01*
X2670911Y2585245D01*
X2670578Y2584412D01*
X2670523Y2584301D01*
X2670412Y2584024D01*
X2670190Y2583580D01*
X2669857Y2582969D01*
X2669413Y2582303D01*
X2668858Y2581471D01*
X2668192Y2580638D01*
X2667415Y2579695D01*
X2667304Y2579584D01*
X2667026Y2579251D01*
X2666749Y2578973D01*
X2666471Y2578696D01*
X2666138Y2578363D01*
X2665694Y2577919D01*
X2665250Y2577475D01*
X2664695Y2576975D01*
X2664140Y2576420D01*
X2663474Y2575810D01*
X2662753Y2575199D01*
X2661976Y2574478D01*
X2661088Y2573756D01*
X2660200Y2572979D01*
X2660144Y2572924D01*
X2660033Y2572813D01*
X2659811Y2572646D01*
X2659534Y2572424D01*
X2659201Y2572091D01*
X2658812Y2571758D01*
X2657924Y2571037D01*
X2656981Y2570204D01*
X2656093Y2569372D01*
X2655316Y2568650D01*
X2654983Y2568373D01*
X2654705Y2568095D01*
X2654650Y2568040D01*
X2654483Y2567873D01*
X2654261Y2567651D01*
X2653984Y2567318D01*
X2653706Y2566930D01*
X2653373Y2566541D01*
X2652707Y2565598D01*
X2671633D01*
Y2561047D01*
X2646158D01*
Y2561102D01*
Y2561324D01*
Y2561657D01*
X2646214Y2562101D01*
X2646269Y2562601D01*
X2646380Y2563156D01*
X2646491Y2563711D01*
X2646713Y2564321D01*
Y2564377D01*
X2646769Y2564432D01*
X2646880Y2564765D01*
X2647102Y2565265D01*
X2647435Y2565931D01*
X2647879Y2566708D01*
X2648434Y2567596D01*
X2649044Y2568484D01*
X2649821Y2569427D01*
Y2569483D01*
X2649932Y2569538D01*
X2650210Y2569871D01*
X2650709Y2570371D01*
X2651431Y2571092D01*
X2652263Y2571925D01*
X2653318Y2572924D01*
X2654594Y2574034D01*
X2655982Y2575199D01*
X2656037Y2575255D01*
X2656259Y2575421D01*
X2656592Y2575699D01*
X2656981Y2576032D01*
X2657480Y2576476D01*
X2658091Y2576975D01*
X2658701Y2577530D01*
X2659423Y2578141D01*
X2660810Y2579473D01*
X2662198Y2580805D01*
X2662864Y2581471D01*
X2663474Y2582137D01*
X2664029Y2582747D01*
X2664473Y2583358D01*
Y2583413D01*
X2664584Y2583469D01*
X2664695Y2583635D01*
X2664806Y2583857D01*
X2665195Y2584468D01*
X2665639Y2585189D01*
X2666027Y2586077D01*
X2666416Y2587021D01*
X2666638Y2588075D01*
X2666749Y2589074D01*
Y2589130D01*
Y2589185D01*
X2666693Y2589518D01*
X2666638Y2590073D01*
X2666471Y2590684D01*
X2666249Y2591461D01*
X2665861Y2592238D01*
X2665361Y2593015D01*
X2664695Y2593792D01*
X2664584Y2593903D01*
X2664307Y2594125D01*
X2663918Y2594402D01*
X2663308Y2594791D01*
X2662531Y2595124D01*
X2661643Y2595457D01*
X2660588Y2595679D01*
X2659423Y2595734D01*
X2659090D01*
X2658868Y2595679D01*
X2658202Y2595623D01*
X2657425Y2595457D01*
X2656592Y2595235D01*
X2655649Y2594846D01*
X2654761Y2594347D01*
X2653928Y2593681D01*
X2653817Y2593570D01*
X2653595Y2593292D01*
X2653262Y2592848D01*
X2652929Y2592182D01*
X2652541Y2591405D01*
X2652208Y2590406D01*
X2651986Y2589296D01*
X2651875Y2588020D01*
X2647046Y2588519D01*
Y2588575D01*
X2647102Y2588741D01*
Y2589019D01*
X2647157Y2589407D01*
X2647268Y2589851D01*
X2647379Y2590351D01*
X2647546Y2590961D01*
X2647712Y2591572D01*
X2648156Y2592904D01*
X2648822Y2594236D01*
X2649211Y2594902D01*
X2649710Y2595568D01*
X2650210Y2596178D01*
X2650765Y2596733D01*
X2650820Y2596789D01*
X2650931Y2596844D01*
X2651098Y2597011D01*
X2651375Y2597177D01*
X2651708Y2597399D01*
X2652097Y2597621D01*
X2652541Y2597899D01*
X2653096Y2598176D01*
X2653706Y2598454D01*
X2654372Y2598731D01*
X2655094Y2598953D01*
X2655871Y2599175D01*
X2656703Y2599342D01*
X2657591Y2599508D01*
X2658535Y2599564D01*
X2659534Y2599619D01*
X2660089D01*
X2660477Y2599564D01*
D02*
G37*
G36*
X2630618D02*
X2631062Y2599508D01*
X2631617Y2599453D01*
X2632228Y2599342D01*
X2632838Y2599231D01*
X2634281Y2598842D01*
X2635724Y2598287D01*
X2636446Y2597954D01*
X2637167Y2597566D01*
X2637833Y2597066D01*
X2638444Y2596511D01*
X2638499Y2596456D01*
X2638610Y2596400D01*
X2638721Y2596178D01*
X2638943Y2595956D01*
X2639221Y2595679D01*
X2639498Y2595290D01*
X2639776Y2594902D01*
X2640109Y2594402D01*
X2640664Y2593348D01*
X2641219Y2592016D01*
X2641441Y2591350D01*
X2641552Y2590573D01*
X2641663Y2589796D01*
X2641718Y2588963D01*
Y2588852D01*
Y2588575D01*
X2641663Y2588131D01*
X2641607Y2587520D01*
X2641496Y2586854D01*
X2641274Y2586077D01*
X2641052Y2585245D01*
X2640719Y2584412D01*
X2640664Y2584301D01*
X2640553Y2584024D01*
X2640331Y2583580D01*
X2639998Y2582969D01*
X2639554Y2582303D01*
X2638999Y2581471D01*
X2638333Y2580638D01*
X2637556Y2579695D01*
X2637445Y2579584D01*
X2637167Y2579251D01*
X2636890Y2578973D01*
X2636612Y2578696D01*
X2636279Y2578363D01*
X2635835Y2577919D01*
X2635391Y2577475D01*
X2634836Y2576975D01*
X2634281Y2576420D01*
X2633615Y2575810D01*
X2632894Y2575199D01*
X2632117Y2574478D01*
X2631229Y2573756D01*
X2630341Y2572979D01*
X2630285Y2572924D01*
X2630174Y2572813D01*
X2629952Y2572646D01*
X2629675Y2572424D01*
X2629342Y2572091D01*
X2628953Y2571758D01*
X2628065Y2571037D01*
X2627122Y2570204D01*
X2626234Y2569372D01*
X2625457Y2568650D01*
X2625124Y2568373D01*
X2624846Y2568095D01*
X2624791Y2568040D01*
X2624624Y2567873D01*
X2624402Y2567651D01*
X2624125Y2567318D01*
X2623847Y2566930D01*
X2623514Y2566541D01*
X2622848Y2565598D01*
X2641774D01*
Y2561047D01*
X2616299D01*
Y2561102D01*
Y2561324D01*
Y2561657D01*
X2616355Y2562101D01*
X2616410Y2562601D01*
X2616521Y2563156D01*
X2616632Y2563711D01*
X2616854Y2564321D01*
Y2564377D01*
X2616910Y2564432D01*
X2617021Y2564765D01*
X2617243Y2565265D01*
X2617576Y2565931D01*
X2618020Y2566708D01*
X2618575Y2567596D01*
X2619185Y2568484D01*
X2619962Y2569427D01*
Y2569483D01*
X2620073Y2569538D01*
X2620351Y2569871D01*
X2620850Y2570371D01*
X2621572Y2571092D01*
X2622404Y2571925D01*
X2623459Y2572924D01*
X2624735Y2574034D01*
X2626123Y2575199D01*
X2626178Y2575255D01*
X2626400Y2575421D01*
X2626733Y2575699D01*
X2627122Y2576032D01*
X2627621Y2576476D01*
X2628232Y2576975D01*
X2628842Y2577530D01*
X2629564Y2578141D01*
X2630951Y2579473D01*
X2632339Y2580805D01*
X2633005Y2581471D01*
X2633615Y2582137D01*
X2634170Y2582747D01*
X2634614Y2583358D01*
Y2583413D01*
X2634725Y2583469D01*
X2634836Y2583635D01*
X2634947Y2583857D01*
X2635336Y2584468D01*
X2635780Y2585189D01*
X2636168Y2586077D01*
X2636557Y2587021D01*
X2636779Y2588075D01*
X2636890Y2589074D01*
Y2589130D01*
Y2589185D01*
X2636834Y2589518D01*
X2636779Y2590073D01*
X2636612Y2590684D01*
X2636390Y2591461D01*
X2636002Y2592238D01*
X2635502Y2593015D01*
X2634836Y2593792D01*
X2634725Y2593903D01*
X2634448Y2594125D01*
X2634059Y2594402D01*
X2633449Y2594791D01*
X2632672Y2595124D01*
X2631784Y2595457D01*
X2630729Y2595679D01*
X2629564Y2595734D01*
X2629231D01*
X2629009Y2595679D01*
X2628343Y2595623D01*
X2627566Y2595457D01*
X2626733Y2595235D01*
X2625790Y2594846D01*
X2624902Y2594347D01*
X2624069Y2593681D01*
X2623958Y2593570D01*
X2623736Y2593292D01*
X2623403Y2592848D01*
X2623070Y2592182D01*
X2622682Y2591405D01*
X2622349Y2590406D01*
X2622127Y2589296D01*
X2622016Y2588020D01*
X2617187Y2588519D01*
Y2588575D01*
X2617243Y2588741D01*
Y2589019D01*
X2617298Y2589407D01*
X2617409Y2589851D01*
X2617520Y2590351D01*
X2617687Y2590961D01*
X2617853Y2591572D01*
X2618297Y2592904D01*
X2618963Y2594236D01*
X2619352Y2594902D01*
X2619851Y2595568D01*
X2620351Y2596178D01*
X2620906Y2596733D01*
X2620961Y2596789D01*
X2621072Y2596844D01*
X2621239Y2597011D01*
X2621516Y2597177D01*
X2621849Y2597399D01*
X2622238Y2597621D01*
X2622682Y2597899D01*
X2623237Y2598176D01*
X2623847Y2598454D01*
X2624513Y2598731D01*
X2625235Y2598953D01*
X2626012Y2599175D01*
X2626844Y2599342D01*
X2627732Y2599508D01*
X2628676Y2599564D01*
X2629675Y2599619D01*
X2630230D01*
X2630618Y2599564D01*
D02*
G37*
G36*
X2598484Y2599397D02*
X2598983D01*
X2600149Y2599342D01*
X2601370Y2599175D01*
X2602702Y2599009D01*
X2603923Y2598731D01*
X2604533Y2598565D01*
X2605033Y2598398D01*
X2605088D01*
X2605144Y2598343D01*
X2605477Y2598176D01*
X2605976Y2597954D01*
X2606587Y2597566D01*
X2607253Y2597066D01*
X2607974Y2596400D01*
X2608640Y2595623D01*
X2609306Y2594735D01*
Y2594680D01*
X2609362Y2594624D01*
X2609584Y2594291D01*
X2609806Y2593736D01*
X2610139Y2593015D01*
X2610416Y2592182D01*
X2610694Y2591183D01*
X2610860Y2590129D01*
X2610916Y2588963D01*
Y2588908D01*
Y2588797D01*
Y2588575D01*
X2610860Y2588297D01*
Y2587909D01*
X2610805Y2587520D01*
X2610583Y2586577D01*
X2610250Y2585467D01*
X2609806Y2584301D01*
X2609140Y2583136D01*
X2608696Y2582581D01*
X2608252Y2582026D01*
X2608196Y2581970D01*
X2608141Y2581915D01*
X2607974Y2581748D01*
X2607752Y2581582D01*
X2607475Y2581360D01*
X2607142Y2581138D01*
X2606698Y2580860D01*
X2606254Y2580527D01*
X2605699Y2580250D01*
X2605088Y2579972D01*
X2604422Y2579639D01*
X2603701Y2579362D01*
X2602868Y2579140D01*
X2602036Y2578862D01*
X2601092Y2578696D01*
X2600093Y2578529D01*
X2600204Y2578474D01*
X2600426Y2578363D01*
X2600759Y2578141D01*
X2601203Y2577919D01*
X2602202Y2577308D01*
X2602702Y2576920D01*
X2603146Y2576587D01*
X2603257Y2576476D01*
X2603534Y2576198D01*
X2603978Y2575754D01*
X2604533Y2575199D01*
X2605144Y2574422D01*
X2605865Y2573590D01*
X2606587Y2572591D01*
X2607364Y2571481D01*
X2613968Y2561047D01*
X2607641D01*
X2602591Y2569039D01*
Y2569094D01*
X2602480Y2569205D01*
X2602369Y2569372D01*
X2602202Y2569594D01*
X2601814Y2570204D01*
X2601314Y2570981D01*
X2600704Y2571814D01*
X2600093Y2572702D01*
X2599483Y2573534D01*
X2598928Y2574311D01*
X2598872Y2574367D01*
X2598706Y2574589D01*
X2598428Y2574922D01*
X2598040Y2575310D01*
X2597207Y2576143D01*
X2596763Y2576531D01*
X2596319Y2576864D01*
X2596264Y2576920D01*
X2596153Y2576975D01*
X2595931Y2577086D01*
X2595598Y2577253D01*
X2595265Y2577419D01*
X2594876Y2577586D01*
X2593988Y2577863D01*
X2593933D01*
X2593822Y2577919D01*
X2593600D01*
X2593322Y2577974D01*
X2592934Y2578030D01*
X2592490D01*
X2591879Y2578085D01*
X2585330D01*
Y2561047D01*
X2580224D01*
Y2599453D01*
X2598040D01*
X2598484Y2599397D01*
D02*
G37*
G36*
X2562020Y2599564D02*
X2562742Y2599453D01*
X2563574Y2599286D01*
X2564462Y2599064D01*
X2565406Y2598787D01*
X2566294Y2598343D01*
X2566349D01*
X2566405Y2598287D01*
X2566682Y2598121D01*
X2567126Y2597843D01*
X2567681Y2597455D01*
X2568292Y2596900D01*
X2568958Y2596289D01*
X2569568Y2595568D01*
X2570179Y2594735D01*
X2570234Y2594624D01*
X2570456Y2594347D01*
X2570678Y2593847D01*
X2571067Y2593126D01*
X2571400Y2592293D01*
X2571844Y2591350D01*
X2572232Y2590240D01*
X2572565Y2589019D01*
Y2588963D01*
X2572621Y2588852D01*
X2572676Y2588686D01*
X2572732Y2588408D01*
X2572787Y2588075D01*
X2572843Y2587687D01*
X2572954Y2587187D01*
X2573009Y2586632D01*
X2573120Y2586022D01*
X2573176Y2585356D01*
X2573231Y2584579D01*
X2573342Y2583802D01*
X2573398Y2582914D01*
Y2582026D01*
X2573453Y2581027D01*
Y2579972D01*
Y2579917D01*
Y2579695D01*
Y2579306D01*
Y2578862D01*
X2573398Y2578252D01*
Y2577586D01*
X2573342Y2576864D01*
X2573287Y2576087D01*
X2573120Y2574311D01*
X2572843Y2572480D01*
X2572510Y2570704D01*
X2572288Y2569871D01*
X2572010Y2569039D01*
Y2568983D01*
X2571955Y2568872D01*
X2571844Y2568650D01*
X2571733Y2568373D01*
X2571622Y2567984D01*
X2571400Y2567596D01*
X2570956Y2566652D01*
X2570401Y2565653D01*
X2569679Y2564543D01*
X2568847Y2563544D01*
X2567848Y2562601D01*
X2567792D01*
X2567737Y2562490D01*
X2567570Y2562379D01*
X2567348Y2562268D01*
X2567071Y2562101D01*
X2566793Y2561879D01*
X2565961Y2561491D01*
X2564962Y2561102D01*
X2563796Y2560714D01*
X2562409Y2560492D01*
X2560910Y2560381D01*
X2560355D01*
X2559967Y2560436D01*
X2559523Y2560492D01*
X2558968Y2560603D01*
X2558357Y2560714D01*
X2557691Y2560880D01*
X2557025Y2561102D01*
X2556304Y2561324D01*
X2555582Y2561657D01*
X2554861Y2562046D01*
X2554139Y2562490D01*
X2553418Y2563045D01*
X2552752Y2563655D01*
X2552141Y2564321D01*
X2552086Y2564377D01*
X2551975Y2564543D01*
X2551808Y2564821D01*
X2551531Y2565265D01*
X2551253Y2565764D01*
X2550976Y2566430D01*
X2550587Y2567207D01*
X2550254Y2568095D01*
X2549921Y2569094D01*
X2549588Y2570260D01*
X2549255Y2571536D01*
X2548978Y2572979D01*
X2548700Y2574533D01*
X2548534Y2576198D01*
X2548423Y2578030D01*
X2548367Y2579972D01*
Y2580028D01*
Y2580250D01*
Y2580638D01*
Y2581082D01*
X2548423Y2581693D01*
Y2582359D01*
X2548478Y2583080D01*
X2548534Y2583913D01*
X2548700Y2585633D01*
X2548978Y2587465D01*
X2549311Y2589296D01*
X2549533Y2590129D01*
X2549755Y2590961D01*
Y2591017D01*
X2549810Y2591128D01*
X2549921Y2591350D01*
X2550032Y2591627D01*
X2550143Y2592016D01*
X2550365Y2592404D01*
X2550809Y2593348D01*
X2551364Y2594347D01*
X2552086Y2595401D01*
X2552918Y2596456D01*
X2553917Y2597344D01*
X2553973D01*
X2554028Y2597455D01*
X2554195Y2597566D01*
X2554417Y2597677D01*
X2554694Y2597899D01*
X2555027Y2598065D01*
X2555860Y2598509D01*
X2556859Y2598898D01*
X2558024Y2599286D01*
X2559412Y2599508D01*
X2560910Y2599619D01*
X2561410D01*
X2562020Y2599564D01*
D02*
G37*
G36*
X2385442Y2599397D02*
X2385941D01*
X2387107Y2599342D01*
X2388328Y2599175D01*
X2389660Y2599009D01*
X2390881Y2598731D01*
X2391491Y2598565D01*
X2391991Y2598398D01*
X2392046D01*
X2392102Y2598343D01*
X2392435Y2598176D01*
X2392934Y2597954D01*
X2393545Y2597566D01*
X2394211Y2597066D01*
X2394932Y2596400D01*
X2395598Y2595623D01*
X2396264Y2594735D01*
Y2594680D01*
X2396320Y2594624D01*
X2396542Y2594291D01*
X2396764Y2593736D01*
X2397097Y2593015D01*
X2397374Y2592182D01*
X2397652Y2591183D01*
X2397818Y2590129D01*
X2397874Y2588963D01*
Y2588908D01*
Y2588797D01*
Y2588575D01*
X2397818Y2588297D01*
Y2587909D01*
X2397763Y2587520D01*
X2397541Y2586577D01*
X2397208Y2585467D01*
X2396764Y2584301D01*
X2396098Y2583136D01*
X2395654Y2582581D01*
X2395210Y2582026D01*
X2395154Y2581970D01*
X2395099Y2581915D01*
X2394932Y2581748D01*
X2394710Y2581582D01*
X2394433Y2581360D01*
X2394100Y2581138D01*
X2393656Y2580860D01*
X2393212Y2580527D01*
X2392657Y2580250D01*
X2392046Y2579972D01*
X2391380Y2579639D01*
X2390659Y2579362D01*
X2389826Y2579140D01*
X2388994Y2578862D01*
X2388050Y2578696D01*
X2387051Y2578529D01*
X2387162Y2578474D01*
X2387384Y2578363D01*
X2387717Y2578141D01*
X2388161Y2577919D01*
X2389160Y2577308D01*
X2389660Y2576920D01*
X2390104Y2576587D01*
X2390215Y2576476D01*
X2390492Y2576198D01*
X2390936Y2575754D01*
X2391491Y2575199D01*
X2392102Y2574422D01*
X2392823Y2573590D01*
X2393545Y2572591D01*
X2394322Y2571481D01*
X2400926Y2561047D01*
X2394599D01*
X2389549Y2569039D01*
Y2569094D01*
X2389438Y2569205D01*
X2389327Y2569372D01*
X2389160Y2569594D01*
X2388772Y2570204D01*
X2388272Y2570981D01*
X2387662Y2571814D01*
X2387051Y2572702D01*
X2386441Y2573534D01*
X2385886Y2574311D01*
X2385830Y2574367D01*
X2385664Y2574589D01*
X2385386Y2574922D01*
X2384998Y2575310D01*
X2384165Y2576143D01*
X2383721Y2576531D01*
X2383277Y2576864D01*
X2383222Y2576920D01*
X2383111Y2576975D01*
X2382889Y2577086D01*
X2382556Y2577253D01*
X2382223Y2577419D01*
X2381834Y2577586D01*
X2380946Y2577863D01*
X2380891D01*
X2380780Y2577919D01*
X2380558D01*
X2380280Y2577974D01*
X2379892Y2578030D01*
X2379448D01*
X2378837Y2578085D01*
X2372288D01*
Y2561047D01*
X2367182D01*
Y2599453D01*
X2384998D01*
X2385442Y2599397D01*
D02*
G37*
G36*
X2353085Y2561047D02*
X2348368D01*
Y2591072D01*
X2348312Y2591017D01*
X2348035Y2590795D01*
X2347702Y2590462D01*
X2347147Y2590073D01*
X2346536Y2589574D01*
X2345759Y2589019D01*
X2344871Y2588408D01*
X2343872Y2587798D01*
X2343817D01*
X2343761Y2587742D01*
X2343428Y2587520D01*
X2342873Y2587243D01*
X2342207Y2586910D01*
X2341430Y2586521D01*
X2340598Y2586133D01*
X2339765Y2585744D01*
X2338933Y2585411D01*
Y2589962D01*
X2338988D01*
X2339099Y2590073D01*
X2339321Y2590129D01*
X2339599Y2590295D01*
X2339932Y2590462D01*
X2340320Y2590684D01*
X2341264Y2591239D01*
X2342374Y2591849D01*
X2343484Y2592626D01*
X2344649Y2593514D01*
X2345815Y2594458D01*
X2345870Y2594513D01*
X2345926Y2594569D01*
X2346092Y2594735D01*
X2346314Y2594902D01*
X2346814Y2595457D01*
X2347480Y2596123D01*
X2348146Y2596900D01*
X2348867Y2597788D01*
X2349478Y2598676D01*
X2350033Y2599619D01*
X2353085D01*
Y2561047D01*
D02*
G37*
G36*
X2323226D02*
X2318509D01*
Y2591072D01*
X2318453Y2591017D01*
X2318176Y2590795D01*
X2317843Y2590462D01*
X2317288Y2590073D01*
X2316677Y2589574D01*
X2315900Y2589019D01*
X2315012Y2588408D01*
X2314013Y2587798D01*
X2313958D01*
X2313902Y2587742D01*
X2313569Y2587520D01*
X2313014Y2587243D01*
X2312348Y2586910D01*
X2311571Y2586521D01*
X2310739Y2586133D01*
X2309906Y2585744D01*
X2309074Y2585411D01*
Y2589962D01*
X2309129D01*
X2309240Y2590073D01*
X2309462Y2590129D01*
X2309740Y2590295D01*
X2310073Y2590462D01*
X2310461Y2590684D01*
X2311405Y2591239D01*
X2312515Y2591849D01*
X2313625Y2592626D01*
X2314790Y2593514D01*
X2315956Y2594458D01*
X2316011Y2594513D01*
X2316067Y2594569D01*
X2316233Y2594735D01*
X2316455Y2594902D01*
X2316955Y2595457D01*
X2317621Y2596123D01*
X2318287Y2596900D01*
X2319008Y2597788D01*
X2319619Y2598676D01*
X2320174Y2599619D01*
X2323226D01*
Y2561047D01*
D02*
G37*
G36*
X2145782Y2594458D02*
X2130409D01*
X2128355Y2584079D01*
X2128410Y2584135D01*
X2128521Y2584190D01*
X2128688Y2584301D01*
X2128965Y2584468D01*
X2129298Y2584634D01*
X2129687Y2584856D01*
X2130575Y2585300D01*
X2131685Y2585744D01*
X2132906Y2586133D01*
X2134238Y2586410D01*
X2134904Y2586521D01*
X2136125D01*
X2136458Y2586466D01*
X2136902Y2586410D01*
X2137401Y2586355D01*
X2137956Y2586244D01*
X2138567Y2586077D01*
X2139899Y2585689D01*
X2140620Y2585411D01*
X2141342Y2585023D01*
X2142064Y2584634D01*
X2142785Y2584190D01*
X2143451Y2583635D01*
X2144117Y2583025D01*
X2144173Y2582969D01*
X2144284Y2582858D01*
X2144450Y2582692D01*
X2144672Y2582414D01*
X2144950Y2582026D01*
X2145227Y2581637D01*
X2145560Y2581138D01*
X2145893Y2580583D01*
X2146171Y2579972D01*
X2146503Y2579306D01*
X2146781Y2578529D01*
X2147059Y2577752D01*
X2147280Y2576920D01*
X2147447Y2575976D01*
X2147558Y2575033D01*
X2147613Y2574034D01*
Y2573978D01*
Y2573812D01*
Y2573534D01*
X2147558Y2573146D01*
X2147503Y2572702D01*
X2147447Y2572202D01*
X2147336Y2571592D01*
X2147225Y2570981D01*
X2146892Y2569538D01*
X2146337Y2568040D01*
X2146004Y2567263D01*
X2145560Y2566541D01*
X2145116Y2565764D01*
X2144561Y2565043D01*
X2144506Y2564987D01*
X2144394Y2564821D01*
X2144173Y2564599D01*
X2143895Y2564321D01*
X2143506Y2563988D01*
X2143062Y2563544D01*
X2142508Y2563156D01*
X2141897Y2562712D01*
X2141231Y2562268D01*
X2140454Y2561879D01*
X2139622Y2561491D01*
X2138733Y2561102D01*
X2137790Y2560825D01*
X2136735Y2560603D01*
X2135626Y2560436D01*
X2134460Y2560381D01*
X2133961D01*
X2133572Y2560436D01*
X2133128Y2560492D01*
X2132628Y2560547D01*
X2132018Y2560603D01*
X2131407Y2560769D01*
X2130020Y2561102D01*
X2128633Y2561602D01*
X2127911Y2561935D01*
X2127189Y2562323D01*
X2126523Y2562767D01*
X2125858Y2563267D01*
X2125802Y2563322D01*
X2125691Y2563378D01*
X2125580Y2563600D01*
X2125358Y2563822D01*
X2125081Y2564099D01*
X2124803Y2564432D01*
X2124470Y2564876D01*
X2124193Y2565376D01*
X2123860Y2565875D01*
X2123526Y2566486D01*
X2122916Y2567818D01*
X2122416Y2569372D01*
X2122250Y2570204D01*
X2122139Y2571092D01*
X2127079Y2571481D01*
Y2571425D01*
Y2571314D01*
X2127134Y2571148D01*
X2127189Y2570870D01*
X2127356Y2570260D01*
X2127578Y2569427D01*
X2127911Y2568595D01*
X2128355Y2567651D01*
X2128910Y2566819D01*
X2129576Y2566042D01*
X2129687Y2565986D01*
X2129909Y2565764D01*
X2130353Y2565487D01*
X2130963Y2565154D01*
X2131630Y2564821D01*
X2132462Y2564543D01*
X2133405Y2564321D01*
X2134460Y2564266D01*
X2134793D01*
X2135015Y2564321D01*
X2135681Y2564377D01*
X2136458Y2564599D01*
X2137401Y2564876D01*
X2138345Y2565320D01*
X2139344Y2565986D01*
X2139788Y2566375D01*
X2140232Y2566819D01*
X2140287Y2566874D01*
X2140343Y2566930D01*
X2140454Y2567096D01*
X2140620Y2567263D01*
X2141009Y2567873D01*
X2141453Y2568650D01*
X2141841Y2569594D01*
X2142230Y2570759D01*
X2142508Y2572147D01*
X2142619Y2572868D01*
Y2573645D01*
Y2573701D01*
Y2573812D01*
Y2574034D01*
X2142563Y2574311D01*
Y2574644D01*
X2142508Y2575033D01*
X2142341Y2575921D01*
X2142064Y2576975D01*
X2141675Y2578030D01*
X2141120Y2579029D01*
X2140343Y2579972D01*
Y2580028D01*
X2140232Y2580083D01*
X2139954Y2580361D01*
X2139455Y2580749D01*
X2138789Y2581193D01*
X2137901Y2581582D01*
X2136902Y2581970D01*
X2135736Y2582248D01*
X2135070Y2582359D01*
X2134016D01*
X2133572Y2582303D01*
X2133017Y2582248D01*
X2132351Y2582081D01*
X2131685Y2581915D01*
X2130963Y2581637D01*
X2130242Y2581304D01*
X2130186Y2581249D01*
X2129965Y2581138D01*
X2129631Y2580860D01*
X2129188Y2580583D01*
X2128744Y2580194D01*
X2128300Y2579695D01*
X2127800Y2579195D01*
X2127412Y2578585D01*
X2122972Y2579195D01*
X2126690Y2598953D01*
X2145782D01*
Y2594458D01*
D02*
G37*
G36*
X2158048Y2577530D02*
X2169203Y2588908D01*
X2175363D01*
X2164652Y2578529D01*
X2176418Y2561047D01*
X2170590D01*
X2161322Y2575255D01*
X2158048Y2572091D01*
Y2561047D01*
X2153330D01*
Y2599453D01*
X2158048D01*
Y2577530D01*
D02*
G37*
G36*
X2110040Y2561047D02*
X2105323D01*
Y2591072D01*
X2105267Y2591017D01*
X2104990Y2590795D01*
X2104657Y2590462D01*
X2104102Y2590073D01*
X2103491Y2589574D01*
X2102714Y2589019D01*
X2101826Y2588408D01*
X2100827Y2587798D01*
X2100771D01*
X2100716Y2587742D01*
X2100383Y2587520D01*
X2099828Y2587243D01*
X2099162Y2586910D01*
X2098385Y2586521D01*
X2097552Y2586133D01*
X2096720Y2585744D01*
X2095887Y2585411D01*
Y2589962D01*
X2095943D01*
X2096054Y2590073D01*
X2096276Y2590129D01*
X2096553Y2590295D01*
X2096887Y2590462D01*
X2097275Y2590684D01*
X2098218Y2591239D01*
X2099329Y2591849D01*
X2100439Y2592626D01*
X2101604Y2593514D01*
X2102769Y2594458D01*
X2102825Y2594513D01*
X2102881Y2594569D01*
X2103047Y2594735D01*
X2103269Y2594902D01*
X2103769Y2595457D01*
X2104434Y2596123D01*
X2105101Y2596900D01*
X2105822Y2597788D01*
X2106432Y2598676D01*
X2106988Y2599619D01*
X2110040D01*
Y2561047D01*
D02*
G37*
G36*
X2192180Y2599564D02*
X2192624Y2599508D01*
X2193124Y2599453D01*
X2193678Y2599397D01*
X2194233Y2599231D01*
X2195566Y2598898D01*
X2196898Y2598398D01*
X2197564Y2598065D01*
X2198229Y2597677D01*
X2198840Y2597177D01*
X2199450Y2596678D01*
X2199506Y2596622D01*
X2199561Y2596567D01*
X2199728Y2596400D01*
X2199950Y2596178D01*
X2200172Y2595845D01*
X2200450Y2595512D01*
X2201005Y2594680D01*
X2201559Y2593625D01*
X2202059Y2592404D01*
X2202448Y2591017D01*
X2202503Y2590295D01*
X2202559Y2589518D01*
Y2589463D01*
Y2589407D01*
Y2589074D01*
X2202503Y2588575D01*
X2202392Y2587964D01*
X2202226Y2587187D01*
X2201948Y2586410D01*
X2201615Y2585633D01*
X2201115Y2584856D01*
X2201060Y2584745D01*
X2200838Y2584523D01*
X2200505Y2584190D01*
X2200061Y2583746D01*
X2199450Y2583247D01*
X2198729Y2582747D01*
X2197896Y2582248D01*
X2196898Y2581804D01*
X2196953D01*
X2197064Y2581748D01*
X2197231Y2581693D01*
X2197452Y2581582D01*
X2198119Y2581304D01*
X2198896Y2580916D01*
X2199728Y2580361D01*
X2200616Y2579750D01*
X2201448Y2578973D01*
X2202226Y2578085D01*
Y2578030D01*
X2202281Y2577974D01*
X2202503Y2577641D01*
X2202836Y2577086D01*
X2203169Y2576365D01*
X2203502Y2575477D01*
X2203835Y2574422D01*
X2204057Y2573257D01*
X2204113Y2571980D01*
Y2571925D01*
Y2571758D01*
Y2571481D01*
X2204057Y2571148D01*
X2204001Y2570759D01*
X2203946Y2570260D01*
X2203835Y2569705D01*
X2203669Y2569094D01*
X2203280Y2567818D01*
X2203003Y2567096D01*
X2202614Y2566430D01*
X2202226Y2565709D01*
X2201782Y2565043D01*
X2201227Y2564377D01*
X2200616Y2563711D01*
X2200561Y2563655D01*
X2200450Y2563544D01*
X2200283Y2563378D01*
X2200006Y2563211D01*
X2199617Y2562934D01*
X2199229Y2562656D01*
X2198729Y2562379D01*
X2198174Y2562046D01*
X2197564Y2561713D01*
X2196842Y2561435D01*
X2196065Y2561158D01*
X2195288Y2560880D01*
X2194400Y2560714D01*
X2193456Y2560547D01*
X2192513Y2560436D01*
X2191459Y2560381D01*
X2190903D01*
X2190515Y2560436D01*
X2190015Y2560492D01*
X2189461Y2560547D01*
X2188850Y2560658D01*
X2188184Y2560825D01*
X2186686Y2561213D01*
X2185909Y2561491D01*
X2185187Y2561768D01*
X2184410Y2562157D01*
X2183633Y2562601D01*
X2182912Y2563100D01*
X2182245Y2563711D01*
X2182190Y2563766D01*
X2182079Y2563877D01*
X2181912Y2564044D01*
X2181691Y2564321D01*
X2181468Y2564654D01*
X2181135Y2565043D01*
X2180858Y2565487D01*
X2180525Y2566042D01*
X2180192Y2566597D01*
X2179914Y2567263D01*
X2179360Y2568650D01*
X2179137Y2569483D01*
X2178971Y2570315D01*
X2178860Y2571203D01*
X2178805Y2572091D01*
Y2572147D01*
Y2572258D01*
Y2572480D01*
X2178860Y2572702D01*
Y2573035D01*
X2178916Y2573423D01*
X2179026Y2574311D01*
X2179249Y2575310D01*
X2179581Y2576309D01*
X2180081Y2577364D01*
X2180691Y2578363D01*
Y2578418D01*
X2180802Y2578474D01*
X2181024Y2578751D01*
X2181468Y2579195D01*
X2182079Y2579750D01*
X2182856Y2580305D01*
X2183800Y2580916D01*
X2184854Y2581415D01*
X2186131Y2581804D01*
X2186075D01*
X2186019Y2581859D01*
X2185853Y2581915D01*
X2185631Y2582026D01*
X2185131Y2582248D01*
X2184465Y2582581D01*
X2183744Y2583025D01*
X2183023Y2583580D01*
X2182356Y2584190D01*
X2181746Y2584856D01*
X2181691Y2584967D01*
X2181524Y2585189D01*
X2181302Y2585633D01*
X2181080Y2586188D01*
X2180802Y2586910D01*
X2180581Y2587742D01*
X2180414Y2588686D01*
X2180358Y2589685D01*
Y2589740D01*
Y2589851D01*
Y2590073D01*
X2180414Y2590406D01*
X2180470Y2590739D01*
X2180525Y2591183D01*
X2180747Y2592127D01*
X2181080Y2593237D01*
X2181635Y2594402D01*
X2181968Y2595013D01*
X2182356Y2595623D01*
X2182856Y2596178D01*
X2183356Y2596733D01*
X2183411Y2596789D01*
X2183522Y2596844D01*
X2183689Y2597011D01*
X2183910Y2597177D01*
X2184188Y2597399D01*
X2184577Y2597621D01*
X2185021Y2597899D01*
X2185465Y2598176D01*
X2186019Y2598454D01*
X2186630Y2598731D01*
X2187296Y2598953D01*
X2188017Y2599175D01*
X2189572Y2599508D01*
X2190459Y2599564D01*
X2191347Y2599619D01*
X2191847D01*
X2192180Y2599564D01*
D02*
G37*
G36*
X1888418Y2375249D02*
X1771188D01*
Y2484751D01*
X1888418D01*
Y2375249D01*
D02*
G37*
%LPC*%
G36*
X3108341Y2447183D02*
X3101634D01*
Y2418023D01*
Y2416346D01*
X3101488Y2414742D01*
X3101343Y2413357D01*
X3101124Y2412045D01*
X3100905Y2410878D01*
X3100614Y2409785D01*
X3100395Y2408837D01*
X3100103Y2408035D01*
X3099812Y2407379D01*
X3099520Y2406723D01*
X3099229Y2406286D01*
X3099010Y2405848D01*
X3098791Y2405557D01*
X3098645Y2405338D01*
X3098572Y2405265D01*
X3098499Y2405192D01*
X3097843Y2404609D01*
X3097114Y2404099D01*
X3095511Y2403297D01*
X3093834Y2402714D01*
X3092084Y2402349D01*
X3090481Y2402057D01*
X3089824Y2401985D01*
X3089168D01*
X3088731Y2401912D01*
X3088002D01*
X3086471Y2401985D01*
X3085086Y2402203D01*
X3083774Y2402422D01*
X3082753Y2402787D01*
X3081878Y2403078D01*
X3081222Y2403297D01*
X3080858Y2403515D01*
X3080712Y2403588D01*
X3079691Y2404244D01*
X3078816Y2405046D01*
X3078088Y2405848D01*
X3077577Y2406577D01*
X3077140Y2407306D01*
X3076775Y2407817D01*
X3076630Y2408181D01*
X3076557Y2408327D01*
X3076338Y2408983D01*
X3076192Y2409639D01*
X3075901Y2411170D01*
X3075682Y2412774D01*
X3075536Y2414378D01*
X3075463Y2415763D01*
Y2416419D01*
X3075390Y2416929D01*
Y2417367D01*
Y2417731D01*
Y2417950D01*
Y2418023D01*
Y2447183D01*
X3068683D01*
Y2416565D01*
X3068756Y2415180D01*
X3068829Y2413867D01*
X3068975Y2412628D01*
X3069121Y2411535D01*
X3069267Y2410514D01*
X3069485Y2409566D01*
X3069631Y2408691D01*
X3069777Y2407890D01*
X3069996Y2407233D01*
X3070141Y2406650D01*
X3070287Y2406213D01*
X3070433Y2405848D01*
X3070506Y2405557D01*
X3070579Y2405411D01*
Y2405338D01*
X3071381Y2403734D01*
X3072401Y2402276D01*
X3073422Y2401110D01*
X3074515Y2400089D01*
X3075463Y2399287D01*
X3076265Y2398704D01*
X3076557Y2398558D01*
X3076775Y2398412D01*
X3076921Y2398267D01*
X3076994D01*
X3078816Y2397465D01*
X3080712Y2396882D01*
X3082680Y2396444D01*
X3084503Y2396153D01*
X3085305Y2396080D01*
X3086106Y2396007D01*
X3086836Y2395934D01*
X3087419D01*
X3087929Y2395861D01*
X3088585D01*
X3091209Y2396007D01*
X3092376Y2396153D01*
X3093469Y2396298D01*
X3094563Y2396517D01*
X3095511Y2396736D01*
X3096385Y2396954D01*
X3097187Y2397246D01*
X3097916Y2397538D01*
X3098499Y2397756D01*
X3099083Y2397975D01*
X3099520Y2398194D01*
X3099885Y2398412D01*
X3100103Y2398485D01*
X3100249Y2398631D01*
X3100322D01*
X3101926Y2399725D01*
X3103238Y2400964D01*
X3104259Y2402130D01*
X3105133Y2403297D01*
X3105789Y2404317D01*
X3106227Y2405119D01*
X3106373Y2405411D01*
X3106519Y2405630D01*
X3106591Y2405775D01*
Y2405848D01*
X3106883Y2406723D01*
X3107175Y2407671D01*
X3107612Y2409639D01*
X3107904Y2411680D01*
X3108122Y2413649D01*
X3108195Y2414523D01*
X3108268Y2415398D01*
Y2416127D01*
X3108341Y2416783D01*
Y2447183D01*
D02*
G37*
G36*
X3155653D02*
X3115704D01*
Y2441205D01*
X3132325D01*
Y2396736D01*
X3139032D01*
Y2441205D01*
X3155653D01*
Y2447183D01*
D02*
G37*
G36*
X3036535Y2448057D02*
X3035878D01*
X3033910Y2447985D01*
X3032088Y2447766D01*
X3030338Y2447401D01*
X3028661Y2446964D01*
X3027130Y2446381D01*
X3025672Y2445798D01*
X3024360Y2445141D01*
X3023194Y2444485D01*
X3022100Y2443829D01*
X3021153Y2443173D01*
X3020351Y2442590D01*
X3019695Y2442007D01*
X3019184Y2441569D01*
X3018747Y2441205D01*
X3018528Y2440986D01*
X3018455Y2440913D01*
X3017289Y2439528D01*
X3016268Y2438070D01*
X3015321Y2436466D01*
X3014592Y2434863D01*
X3013936Y2433186D01*
X3013352Y2431582D01*
X3012915Y2429978D01*
X3012623Y2428447D01*
X3012332Y2426989D01*
X3012113Y2425604D01*
X3011967Y2424365D01*
X3011821Y2423344D01*
Y2422470D01*
X3011749Y2421813D01*
Y2421230D01*
X3011894Y2418752D01*
X3012186Y2416492D01*
X3012623Y2414305D01*
X3012915Y2413357D01*
X3013206Y2412409D01*
X3013425Y2411607D01*
X3013717Y2410878D01*
X3013936Y2410222D01*
X3014154Y2409639D01*
X3014300Y2409202D01*
X3014446Y2408910D01*
X3014592Y2408691D01*
Y2408619D01*
X3015831Y2406504D01*
X3017143Y2404682D01*
X3018601Y2403078D01*
X3019986Y2401766D01*
X3021226Y2400672D01*
X3021736Y2400235D01*
X3022173Y2399943D01*
X3022611Y2399652D01*
X3022902Y2399433D01*
X3023048Y2399360D01*
X3023121Y2399287D01*
X3024214Y2398704D01*
X3025308Y2398194D01*
X3027495Y2397319D01*
X3029609Y2396736D01*
X3031577Y2396298D01*
X3032525Y2396153D01*
X3033327Y2396080D01*
X3034056Y2395934D01*
X3034712D01*
X3035149Y2395861D01*
X3035878D01*
X3038284Y2396007D01*
X3040544Y2396371D01*
X3042658Y2396809D01*
X3043606Y2397100D01*
X3044481Y2397392D01*
X3045282Y2397684D01*
X3046012Y2397975D01*
X3046595Y2398194D01*
X3047105Y2398412D01*
X3047542Y2398631D01*
X3047907Y2398777D01*
X3048053Y2398923D01*
X3048126D01*
X3050167Y2400235D01*
X3051916Y2401693D01*
X3053374Y2403224D01*
X3054614Y2404682D01*
X3055634Y2406067D01*
X3055999Y2406577D01*
X3056290Y2407088D01*
X3056582Y2407525D01*
X3056728Y2407817D01*
X3056874Y2408035D01*
Y2408108D01*
X3057457Y2409275D01*
X3057894Y2410441D01*
X3058696Y2412774D01*
X3059279Y2415107D01*
X3059644Y2417221D01*
X3059717Y2418168D01*
X3059863Y2419043D01*
X3059935Y2419845D01*
Y2420501D01*
X3060008Y2421084D01*
Y2421813D01*
X3059863Y2424584D01*
X3059571Y2427135D01*
X3059352Y2428302D01*
X3059061Y2429468D01*
X3058769Y2430488D01*
X3058550Y2431436D01*
X3058259Y2432311D01*
X3057967Y2433113D01*
X3057748Y2433769D01*
X3057457Y2434352D01*
X3057311Y2434790D01*
X3057165Y2435081D01*
X3057019Y2435300D01*
Y2435373D01*
X3055853Y2437487D01*
X3054468Y2439382D01*
X3053010Y2440986D01*
X3051698Y2442298D01*
X3050458Y2443319D01*
X3049875Y2443756D01*
X3049438Y2444121D01*
X3049000Y2444340D01*
X3048709Y2444558D01*
X3048563Y2444631D01*
X3048490Y2444704D01*
X3047397Y2445287D01*
X3046303Y2445798D01*
X3044189Y2446672D01*
X3042002Y2447256D01*
X3040107Y2447620D01*
X3039232Y2447766D01*
X3038357Y2447912D01*
X3037701Y2447985D01*
X3037045D01*
X3036535Y2448057D01*
D02*
G37*
%LPD*%
G36*
X3037701Y2442225D02*
X3039450Y2441934D01*
X3040981Y2441496D01*
X3042294Y2441059D01*
X3043387Y2440549D01*
X3043825Y2440330D01*
X3044189Y2440184D01*
X3044553Y2439965D01*
X3044772Y2439893D01*
X3044845Y2439747D01*
X3044918D01*
X3046303Y2438726D01*
X3047542Y2437560D01*
X3048636Y2436393D01*
X3049511Y2435227D01*
X3050167Y2434206D01*
X3050677Y2433332D01*
X3050823Y2433040D01*
X3050969Y2432821D01*
X3051042Y2432675D01*
Y2432603D01*
X3051771Y2430853D01*
X3052281Y2428958D01*
X3052645Y2427208D01*
X3052864Y2425531D01*
X3053010Y2424729D01*
X3053083Y2424073D01*
Y2423417D01*
X3053156Y2422907D01*
Y2422470D01*
Y2422178D01*
Y2421959D01*
Y2421886D01*
X3053083Y2420137D01*
X3052937Y2418460D01*
X3052718Y2416856D01*
X3052427Y2415398D01*
X3051989Y2414086D01*
X3051625Y2412847D01*
X3051187Y2411680D01*
X3050750Y2410660D01*
X3050240Y2409785D01*
X3049802Y2408983D01*
X3049438Y2408327D01*
X3049073Y2407817D01*
X3048709Y2407379D01*
X3048490Y2407015D01*
X3048344Y2406869D01*
X3048271Y2406796D01*
X3047324Y2405848D01*
X3046303Y2405046D01*
X3045282Y2404390D01*
X3044262Y2403734D01*
X3043241Y2403224D01*
X3042148Y2402859D01*
X3041200Y2402495D01*
X3040180Y2402203D01*
X3039305Y2401985D01*
X3038430Y2401839D01*
X3037701Y2401693D01*
X3037045Y2401620D01*
X3036535D01*
X3036170Y2401547D01*
X3035805D01*
X3034420Y2401620D01*
X3033108Y2401766D01*
X3031942Y2402057D01*
X3030775Y2402349D01*
X3029682Y2402787D01*
X3028661Y2403224D01*
X3027714Y2403661D01*
X3026839Y2404172D01*
X3026110Y2404682D01*
X3025454Y2405119D01*
X3024870Y2405557D01*
X3024360Y2405994D01*
X3023996Y2406286D01*
X3023704Y2406577D01*
X3023558Y2406723D01*
X3023485Y2406796D01*
X3022611Y2407817D01*
X3021882Y2408910D01*
X3021226Y2410077D01*
X3020642Y2411243D01*
X3020205Y2412482D01*
X3019767Y2413649D01*
X3019184Y2415981D01*
X3019039Y2417002D01*
X3018893Y2418023D01*
X3018747Y2418897D01*
X3018674Y2419626D01*
X3018601Y2420282D01*
Y2420793D01*
Y2421084D01*
Y2421157D01*
X3018674Y2423198D01*
X3018820Y2425094D01*
X3019039Y2426916D01*
X3019403Y2428520D01*
X3019767Y2429978D01*
X3020205Y2431290D01*
X3020715Y2432530D01*
X3021153Y2433550D01*
X3021663Y2434498D01*
X3022100Y2435300D01*
X3022538Y2435956D01*
X3022902Y2436466D01*
X3023267Y2436904D01*
X3023485Y2437195D01*
X3023631Y2437341D01*
X3023704Y2437414D01*
X3024652Y2438289D01*
X3025672Y2439018D01*
X3026693Y2439674D01*
X3027787Y2440257D01*
X3028807Y2440695D01*
X3029828Y2441132D01*
X3031723Y2441715D01*
X3032598Y2441861D01*
X3033400Y2442007D01*
X3034056Y2442153D01*
X3034712Y2442225D01*
X3035222Y2442298D01*
X3035878D01*
X3037701Y2442225D01*
D02*
G37*
%LPC*%
G36*
X3017852Y2041413D02*
X3017519D01*
X3017298Y2041358D01*
X3016742Y2041302D01*
X3015965Y2041136D01*
X3015133Y2040858D01*
X3014189Y2040414D01*
X3013302Y2039859D01*
X3012414Y2039082D01*
X3012302Y2038971D01*
X3012081Y2038694D01*
X3011692Y2038194D01*
X3011303Y2037473D01*
X3010915Y2036640D01*
X3010526Y2035585D01*
X3010305Y2034420D01*
X3010193Y2033088D01*
Y2032977D01*
Y2032699D01*
X3010249Y2032200D01*
X3010305Y2031590D01*
X3010416Y2030868D01*
X3010637Y2030091D01*
X3010860Y2029258D01*
X3011193Y2028426D01*
X3011248Y2028315D01*
X3011414Y2028037D01*
X3011637Y2027649D01*
X3011970Y2027149D01*
X3012358Y2026650D01*
X3012858Y2026040D01*
X3013412Y2025540D01*
X3014079Y2025041D01*
X3014189Y2024985D01*
X3014412Y2024874D01*
X3014800Y2024652D01*
X3015300Y2024486D01*
X3015854Y2024264D01*
X3016521Y2024042D01*
X3017242Y2023930D01*
X3018019Y2023875D01*
X3018296D01*
X3018519Y2023930D01*
X3019073Y2023986D01*
X3019795Y2024152D01*
X3020572Y2024486D01*
X3021460Y2024874D01*
X3022348Y2025485D01*
X3022792Y2025818D01*
X3023180Y2026262D01*
Y2026317D01*
X3023291Y2026372D01*
X3023514Y2026706D01*
X3023847Y2027261D01*
X3024291Y2027982D01*
X3024679Y2028926D01*
X3025012Y2030035D01*
X3025234Y2031312D01*
X3025345Y2032811D01*
Y2032866D01*
Y2032977D01*
Y2033199D01*
X3025289Y2033476D01*
Y2033810D01*
X3025234Y2034198D01*
X3025068Y2035086D01*
X3024845Y2036085D01*
X3024457Y2037139D01*
X3023902Y2038139D01*
X3023180Y2039082D01*
X3023070Y2039193D01*
X3022792Y2039470D01*
X3022348Y2039803D01*
X3021738Y2040247D01*
X3020961Y2040691D01*
X3020073Y2041024D01*
X3019018Y2041302D01*
X3017852Y2041413D01*
D02*
G37*
G36*
X3107707Y2045409D02*
X3107430D01*
X3107207Y2045354D01*
X3106653Y2045243D01*
X3105931Y2045076D01*
X3105099Y2044743D01*
X3104211Y2044244D01*
X3103711Y2043911D01*
X3103267Y2043522D01*
X3102823Y2043078D01*
X3102379Y2042579D01*
Y2042523D01*
X3102268Y2042468D01*
X3102157Y2042301D01*
X3102046Y2042079D01*
X3101880Y2041746D01*
X3101657Y2041413D01*
X3101436Y2040969D01*
X3101269Y2040525D01*
X3101047Y2039970D01*
X3100825Y2039360D01*
X3100659Y2038694D01*
X3100436Y2037972D01*
X3100325Y2037139D01*
X3100215Y2036307D01*
X3100104Y2035419D01*
Y2034420D01*
Y2034364D01*
Y2034198D01*
Y2033920D01*
X3100159Y2033532D01*
Y2033088D01*
X3100215Y2032589D01*
X3100381Y2031423D01*
X3100659Y2030091D01*
X3100992Y2028815D01*
X3101546Y2027538D01*
X3101880Y2026983D01*
X3102268Y2026484D01*
X3102379Y2026373D01*
X3102657Y2026095D01*
X3103101Y2025651D01*
X3103711Y2025207D01*
X3104488Y2024763D01*
X3105376Y2024319D01*
X3106375Y2024042D01*
X3106930Y2023986D01*
X3107485Y2023931D01*
X3107818D01*
X3108040Y2023986D01*
X3108595Y2024097D01*
X3109372Y2024264D01*
X3110204Y2024597D01*
X3111093Y2025041D01*
X3111981Y2025707D01*
X3112425Y2026095D01*
X3112869Y2026539D01*
Y2026595D01*
X3112979Y2026650D01*
X3113090Y2026817D01*
X3113202Y2027039D01*
X3113423Y2027316D01*
X3113590Y2027705D01*
X3113812Y2028093D01*
X3114034Y2028593D01*
X3114200Y2029092D01*
X3114423Y2029758D01*
X3114644Y2030424D01*
X3114811Y2031146D01*
X3114922Y2031978D01*
X3115033Y2032866D01*
X3115144Y2033810D01*
Y2034809D01*
Y2034864D01*
Y2035031D01*
Y2035308D01*
X3115088Y2035697D01*
Y2036141D01*
X3115033Y2036640D01*
X3114867Y2037806D01*
X3114589Y2039082D01*
X3114200Y2040359D01*
X3113646Y2041635D01*
X3113312Y2042246D01*
X3112924Y2042745D01*
Y2042801D01*
X3112813Y2042856D01*
X3112535Y2043189D01*
X3112091Y2043578D01*
X3111481Y2044077D01*
X3110704Y2044577D01*
X3109816Y2045021D01*
X3108817Y2045298D01*
X3108262Y2045354D01*
X3107707Y2045409D01*
D02*
G37*
G36*
X2963352Y2051403D02*
X2951253Y2034198D01*
X2963352D01*
Y2051403D01*
D02*
G37*
G36*
X3178747Y2045243D02*
X3178414D01*
X3178137Y2045187D01*
X3177526Y2045132D01*
X3176693Y2044910D01*
X3175750Y2044577D01*
X3174751Y2044133D01*
X3173807Y2043467D01*
X3173308Y2043023D01*
X3172864Y2042579D01*
Y2042523D01*
X3172753Y2042468D01*
X3172642Y2042301D01*
X3172476Y2042079D01*
X3172309Y2041802D01*
X3172142Y2041469D01*
X3171921Y2041025D01*
X3171698Y2040581D01*
X3171477Y2040026D01*
X3171255Y2039471D01*
X3171088Y2038805D01*
X3170921Y2038083D01*
X3170755Y2037306D01*
X3170644Y2036474D01*
X3170588Y2035530D01*
X3170533Y2034587D01*
Y2034531D01*
Y2034365D01*
Y2034087D01*
X3170588Y2033699D01*
Y2033255D01*
X3170644Y2032755D01*
X3170811Y2031590D01*
X3171088Y2030258D01*
X3171532Y2028926D01*
X3172087Y2027649D01*
X3172476Y2027094D01*
X3172864Y2026539D01*
X3172919D01*
X3172975Y2026428D01*
X3173308Y2026151D01*
X3173807Y2025707D01*
X3174474Y2025263D01*
X3175306Y2024763D01*
X3176305Y2024319D01*
X3177470Y2024042D01*
X3178081Y2023986D01*
X3178747Y2023931D01*
X3179080D01*
X3179358Y2023986D01*
X3179968Y2024097D01*
X3180800Y2024264D01*
X3181689Y2024597D01*
X3182688Y2025041D01*
X3183631Y2025707D01*
X3184131Y2026151D01*
X3184575Y2026595D01*
X3184630Y2026650D01*
X3184686Y2026706D01*
X3184796Y2026872D01*
X3184963Y2027094D01*
X3185130Y2027372D01*
X3185352Y2027705D01*
X3185573Y2028149D01*
X3185796Y2028593D01*
X3186017Y2029148D01*
X3186184Y2029758D01*
X3186406Y2030424D01*
X3186573Y2031146D01*
X3186739Y2031978D01*
X3186850Y2032811D01*
X3186961Y2033754D01*
Y2034753D01*
Y2034809D01*
Y2034975D01*
Y2035253D01*
X3186905Y2035586D01*
Y2036030D01*
X3186850Y2036529D01*
X3186684Y2037695D01*
X3186406Y2038916D01*
X3185962Y2040248D01*
X3185352Y2041469D01*
X3185019Y2042079D01*
X3184575Y2042579D01*
Y2042634D01*
X3184463Y2042690D01*
X3184131Y2043023D01*
X3183631Y2043411D01*
X3182965Y2043911D01*
X3182133Y2044410D01*
X3181133Y2044854D01*
X3180023Y2045132D01*
X3179413Y2045187D01*
X3178747Y2045243D01*
D02*
G37*
G36*
X3040092Y2146007D02*
X3033677D01*
D01*
X3030891D01*
X3033677D01*
Y2106349D01*
X3007214Y2146007D01*
X3000361D01*
Y2095560D01*
X3032279D01*
X3006776D01*
Y2135144D01*
X3033166Y2095560D01*
X3040092D01*
Y2146007D01*
D02*
G37*
G36*
X3177946Y2146007D02*
X3171749D01*
Y2127927D01*
X3171093Y2128729D01*
X3170364Y2129385D01*
X3169708Y2130042D01*
X3168979Y2130552D01*
X3168396Y2130916D01*
X3167958Y2131281D01*
X3167667Y2131427D01*
X3167521Y2131500D01*
X3166573Y2132010D01*
X3165553Y2132374D01*
X3164532Y2132593D01*
X3163584Y2132812D01*
X3162782Y2132885D01*
X3162199Y2132958D01*
X3161616D01*
X3160012Y2132885D01*
X3158481Y2132593D01*
X3157096Y2132229D01*
X3155930Y2131791D01*
X3154909Y2131281D01*
X3154180Y2130916D01*
X3153889Y2130771D01*
X3153670Y2130625D01*
X3153597Y2130552D01*
X3153524D01*
X3152212Y2129604D01*
X3151119Y2128438D01*
X3150171Y2127344D01*
X3149442Y2126251D01*
X3148859Y2125230D01*
X3148421Y2124428D01*
X3148275Y2124137D01*
X3148130Y2123918D01*
X3148057Y2123772D01*
Y2123699D01*
X3147474Y2122023D01*
X3147036Y2120273D01*
X3146672Y2118596D01*
X3146453Y2117065D01*
X3146307Y2115753D01*
Y2115170D01*
X3146234Y2114733D01*
Y2115024D01*
Y2094758D01*
X3177946D01*
Y2146007D01*
D02*
G37*
G36*
X3101838Y2145351D02*
Y2112619D01*
X3101765Y2113931D01*
X3101619Y2115170D01*
X3101401Y2116409D01*
X3101109Y2117503D01*
X3100745Y2118523D01*
X3100380Y2119544D01*
X3099943Y2120419D01*
X3099578Y2121221D01*
X3099141Y2121950D01*
X3098703Y2122606D01*
X3098339Y2123116D01*
X3097974Y2123626D01*
X3097683Y2123991D01*
X3097464Y2124209D01*
X3097318Y2124355D01*
X3097245Y2124428D01*
X3096371Y2125230D01*
X3095496Y2125959D01*
X3094548Y2126542D01*
X3093600Y2127053D01*
X3092653Y2127563D01*
X3091705Y2127927D01*
X3089955Y2128438D01*
X3089153Y2128656D01*
X3088425Y2128802D01*
X3087768Y2128875D01*
X3087185Y2128948D01*
X3086748Y2129021D01*
X3085144D01*
X3084269Y2128875D01*
X3082520Y2128511D01*
X3080916Y2128000D01*
X3079458Y2127417D01*
X3078291Y2126834D01*
X3077781Y2126542D01*
X3077344Y2126324D01*
X3076979Y2126105D01*
X3076760Y2125959D01*
X3076615Y2125886D01*
X3076542Y2125813D01*
X3079239Y2139446D01*
X3099432D01*
Y2145351D01*
X3074355D01*
X3069470Y2119398D01*
X3075302Y2118596D01*
X3075813Y2119398D01*
X3076469Y2120054D01*
X3077052Y2120710D01*
X3077635Y2121221D01*
X3078218Y2121585D01*
X3078656Y2121950D01*
X3078948Y2122095D01*
X3079020Y2122168D01*
X3079968Y2122606D01*
X3080916Y2122970D01*
X3081791Y2123189D01*
X3082665Y2123408D01*
X3083394Y2123481D01*
X3083978Y2123553D01*
X3085363D01*
X3086238Y2123408D01*
X3087768Y2123043D01*
X3089081Y2122533D01*
X3090247Y2122023D01*
X3091122Y2121439D01*
X3091778Y2120929D01*
X3092142Y2120564D01*
X3092288Y2120492D01*
Y2120419D01*
X3093309Y2119179D01*
X3094038Y2117867D01*
X3094548Y2116482D01*
X3094913Y2115097D01*
X3095131Y2113931D01*
X3095204Y2113420D01*
Y2112983D01*
X3095277Y2112618D01*
Y2112327D01*
Y2112181D01*
Y2112108D01*
Y2111088D01*
X3095131Y2110140D01*
X3094767Y2108317D01*
X3094256Y2106786D01*
X3093746Y2105547D01*
X3093163Y2104526D01*
X3092653Y2103725D01*
X3092434Y2103506D01*
X3092288Y2103287D01*
X3092215Y2103214D01*
X3092142Y2103141D01*
X3091559Y2102558D01*
X3090976Y2102048D01*
X3089664Y2101173D01*
X3088425Y2100590D01*
X3087185Y2100225D01*
X3086165Y2099934D01*
X3085290Y2099861D01*
X3084998Y2099788D01*
X3084561D01*
X3083176Y2099861D01*
X3081936Y2100153D01*
X3080843Y2100517D01*
X3079968Y2100954D01*
X3079166Y2101392D01*
X3078583Y2101756D01*
X3078291Y2102048D01*
X3078146Y2102121D01*
X3077271Y2103141D01*
X3076542Y2104235D01*
X3075959Y2105474D01*
X3075521Y2106568D01*
X3075230Y2107661D01*
X3075011Y2108463D01*
X3074938Y2108828D01*
X3074865Y2109046D01*
Y2109192D01*
Y2109265D01*
X3068377Y2108755D01*
X3068523Y2107588D01*
X3068742Y2106495D01*
X3069398Y2104454D01*
X3070200Y2102704D01*
X3070637Y2101902D01*
X3071074Y2101246D01*
X3071439Y2100590D01*
X3071876Y2100007D01*
X3072241Y2099569D01*
X3072605Y2099205D01*
X3072897Y2098913D01*
X3073043Y2098622D01*
X3073188Y2098549D01*
X3073261Y2098476D01*
X3074136Y2097820D01*
X3075011Y2097236D01*
X3075959Y2096726D01*
X3076906Y2096289D01*
X3078729Y2095633D01*
X3080551Y2095195D01*
X3081353Y2094977D01*
X3082155Y2094904D01*
X3082811Y2094831D01*
X3083394Y2094758D01*
X3083905Y2094685D01*
X3068377D01*
D01*
X3101838Y2094685D01*
Y2145351D01*
D02*
G37*
G36*
X3226424Y2146007D02*
X3188298D01*
Y2095560D01*
X3226424D01*
Y2110213D01*
X3226351Y2111817D01*
X3226060Y2113275D01*
X3225622Y2114514D01*
X3225185Y2115680D01*
X3224747Y2116555D01*
X3224310Y2117211D01*
X3224019Y2117649D01*
X3223946Y2117794D01*
X3222925Y2118961D01*
X3221831Y2119909D01*
X3220592Y2120710D01*
X3219499Y2121367D01*
X3218478Y2121877D01*
X3217603Y2122168D01*
X3217312Y2122314D01*
X3217093Y2122387D01*
X3216947Y2122460D01*
X3216874D01*
X3218114Y2123189D01*
X3219207Y2123918D01*
X3220082Y2124720D01*
X3220811Y2125449D01*
X3221394Y2126032D01*
X3221831Y2126615D01*
X3222050Y2126907D01*
X3222123Y2127053D01*
X3222706Y2128146D01*
X3223144Y2129167D01*
X3223508Y2130187D01*
X3223727Y2131135D01*
X3223873Y2131937D01*
X3223946Y2132593D01*
Y2132958D01*
Y2133103D01*
X3223873Y2134343D01*
X3223654Y2135582D01*
X3223289Y2136675D01*
X3222925Y2137696D01*
X3222561Y2138571D01*
X3222196Y2139154D01*
X3221977Y2139591D01*
X3221904Y2139737D01*
X3221102Y2140831D01*
X3220228Y2141851D01*
X3219280Y2142653D01*
X3218405Y2143309D01*
X3217676Y2143820D01*
X3217020Y2144184D01*
X3216583Y2144403D01*
X3216510Y2144476D01*
X3216437D01*
X3215052Y2144986D01*
X3213521Y2145351D01*
X3211990Y2145642D01*
X3210532Y2145788D01*
X3209220Y2145934D01*
X3208637D01*
X3208126Y2146007D01*
X3226424D01*
D02*
G37*
G36*
X2990010Y2146007D02*
X2953487D01*
Y2095560D01*
X2991176D01*
Y2101538D01*
Y2101538D01*
X2960193D01*
Y2118669D01*
X2988114D01*
Y2124647D01*
X2960193D01*
Y2140029D01*
X2990010D01*
Y2146007D01*
D02*
G37*
G36*
X2946488D02*
X2906539D01*
Y2140029D01*
X2923160D01*
Y2095560D01*
X2906539D01*
D01*
X2946488D01*
Y2146007D01*
D02*
G37*
G36*
X2903404D02*
X2863455D01*
Y2140029D01*
X2880076D01*
Y2095560D01*
X2863455D01*
D01*
X2903404D01*
Y2146007D01*
D02*
G37*
G36*
X2841221D02*
X2833931D01*
X2814685Y2095560D01*
D01*
X2861851D01*
D01*
X2841221Y2146007D01*
D02*
G37*
G36*
X3124729Y2146225D02*
X3124073D01*
X3122104Y2146080D01*
X3120282Y2145788D01*
X3118751Y2145278D01*
X3117439Y2144767D01*
X3116345Y2144184D01*
X3115908Y2143965D01*
X3115543Y2143674D01*
X3115252Y2143528D01*
X3115033Y2143382D01*
X3114960Y2143236D01*
X3114887D01*
X3113575Y2142070D01*
X3112481Y2140685D01*
X3111534Y2139300D01*
X3110805Y2137988D01*
X3110222Y2136748D01*
X3109930Y2136238D01*
X3109784Y2135728D01*
X3109638Y2135363D01*
X3109493Y2135072D01*
X3109420Y2134926D01*
Y2134853D01*
X3109128Y2133760D01*
X3108836Y2132666D01*
X3108399Y2130260D01*
X3108035Y2127855D01*
X3107816Y2125595D01*
X3107743Y2124501D01*
X3107670Y2123553D01*
Y2122679D01*
X3107597Y2121877D01*
Y2120419D01*
X3107670Y2117867D01*
X3107816Y2115462D01*
X3108035Y2113275D01*
X3108399Y2111233D01*
X3108764Y2109338D01*
X3109201Y2107661D01*
X3109638Y2106130D01*
X3110076Y2104818D01*
X3110513Y2103652D01*
X3111023Y2102631D01*
X3111388Y2101756D01*
X3111753Y2101100D01*
X3112117Y2100517D01*
X3112336Y2100153D01*
X3112481Y2099934D01*
X3112554Y2099861D01*
X3113356Y2098986D01*
X3114231Y2098184D01*
X3115179Y2097455D01*
X3116126Y2096872D01*
X3117074Y2096362D01*
X3118022Y2095924D01*
X3118970Y2095633D01*
X3119844Y2095341D01*
X3120719Y2095122D01*
X3121521Y2094977D01*
X3122250Y2094831D01*
X3122833Y2094758D01*
X3123344Y2094685D01*
X3107597D01*
D01*
X3140548D01*
X3124073D01*
X3126041Y2094831D01*
X3127863Y2095122D01*
X3129394Y2095633D01*
X3130706Y2096143D01*
X3131800Y2096653D01*
X3132164Y2096945D01*
X3132529Y2097164D01*
X3132821Y2097309D01*
X3133039Y2097455D01*
X3133112Y2097601D01*
X3133185D01*
X3134497Y2098840D01*
X3135591Y2100153D01*
X3136539Y2101611D01*
X3137267Y2102923D01*
X3137851Y2104162D01*
X3138142Y2104672D01*
X3138288Y2105183D01*
X3138434Y2105547D01*
X3138580Y2105839D01*
X3138653Y2105985D01*
Y2106057D01*
X3139017Y2107151D01*
X3139309Y2108244D01*
X3139746Y2110577D01*
X3140111Y2112983D01*
X3140329Y2115316D01*
X3140402Y2116336D01*
X3140475Y2117284D01*
Y2118159D01*
X3140548Y2118961D01*
Y2121804D01*
X3140475Y2123116D01*
Y2124282D01*
X3140402Y2125449D01*
X3140256Y2126470D01*
X3140184Y2127490D01*
X3140111Y2128365D01*
X3139965Y2129167D01*
X3139892Y2129896D01*
X3139746Y2130552D01*
X3139673Y2131062D01*
X3139600Y2131500D01*
X3139527Y2131864D01*
X3139454Y2132083D01*
X3139382Y2132229D01*
Y2132302D01*
X3138944Y2133905D01*
X3138434Y2135363D01*
X3137851Y2136603D01*
X3137413Y2137696D01*
X3136903Y2138644D01*
X3136611Y2139300D01*
X3136320Y2139664D01*
X3136247Y2139810D01*
X3135445Y2140904D01*
X3134643Y2141851D01*
X3133768Y2142653D01*
X3132966Y2143382D01*
X3132237Y2143893D01*
X3131654Y2144257D01*
X3131290Y2144476D01*
X3131217Y2144549D01*
X3131144D01*
X3129977Y2145132D01*
X3128738Y2145496D01*
X3127572Y2145788D01*
X3126478Y2146007D01*
X3125531Y2146153D01*
X3124729Y2146225D01*
D02*
G37*
%LPD*%
G36*
X3163074Y2127782D02*
X3163803Y2127709D01*
X3165188Y2127271D01*
X3166427Y2126761D01*
X3167448Y2126105D01*
X3168250Y2125449D01*
X3168906Y2124866D01*
X3169271Y2124428D01*
X3169416Y2124355D01*
Y2124282D01*
X3169927Y2123553D01*
X3170364Y2122825D01*
X3171093Y2121075D01*
X3171603Y2119252D01*
X3171968Y2117503D01*
X3172114Y2116628D01*
X3172187Y2115826D01*
X3172260Y2115097D01*
Y2114514D01*
X3172332Y2114004D01*
Y2113639D01*
Y2113347D01*
Y2113275D01*
Y2112035D01*
X3172187Y2110869D01*
X3172041Y2109848D01*
X3171895Y2108828D01*
X3171676Y2107953D01*
X3171385Y2107078D01*
X3171166Y2106349D01*
X3170874Y2105693D01*
X3170583Y2105110D01*
X3170364Y2104527D01*
X3170073Y2104162D01*
X3169854Y2103798D01*
X3169708Y2103506D01*
X3169562Y2103287D01*
X3169416Y2103214D01*
Y2103142D01*
X3168906Y2102558D01*
X3168323Y2102048D01*
X3167157Y2101246D01*
X3165990Y2100663D01*
X3164897Y2100298D01*
X3163949Y2100007D01*
X3163147Y2099934D01*
X3162855Y2099861D01*
X3162491D01*
X3161762Y2099934D01*
X3161033Y2100007D01*
X3159721Y2100371D01*
X3158481Y2100954D01*
X3157461Y2101611D01*
X3156659Y2102194D01*
X3156003Y2102777D01*
X3155638Y2103142D01*
X3155565Y2103287D01*
X3155492D01*
X3154982Y2104016D01*
X3154545Y2104745D01*
X3153816Y2106422D01*
X3153305Y2108172D01*
X3152941Y2109848D01*
X3152722Y2111379D01*
X3152649Y2112035D01*
Y2112619D01*
X3152577Y2113129D01*
Y2113493D01*
Y2113712D01*
Y2113785D01*
Y2115097D01*
X3152722Y2116336D01*
X3152868Y2117503D01*
X3153014Y2118523D01*
X3153233Y2119471D01*
X3153451Y2120346D01*
X3153670Y2121148D01*
X3153962Y2121877D01*
X3154253Y2122460D01*
X3154472Y2122970D01*
X3154691Y2123408D01*
X3154909Y2123772D01*
X3155128Y2124064D01*
X3155201Y2124282D01*
X3155347Y2124355D01*
Y2124428D01*
X3155857Y2125012D01*
X3156440Y2125595D01*
X3157607Y2126397D01*
X3158773Y2127053D01*
X3159867Y2127417D01*
X3160814Y2127709D01*
X3161616Y2127782D01*
X3161908Y2127855D01*
X3162272D01*
X3163074Y2127782D01*
D02*
G37*
G36*
X3172187Y2095560D02*
X3177946D01*
Y2094758D01*
X3161908D01*
X3163147Y2094831D01*
X3164313Y2094977D01*
X3165407Y2095268D01*
X3166355Y2095633D01*
X3167302Y2095997D01*
X3168177Y2096435D01*
X3168906Y2096945D01*
X3169562Y2097455D01*
X3170218Y2097966D01*
X3170729Y2098476D01*
X3171166Y2098913D01*
X3171530Y2099278D01*
X3171822Y2099642D01*
X3172041Y2099934D01*
X3172114Y2100080D01*
X3172187Y2100153D01*
Y2095560D01*
D02*
G37*
G36*
X3146307Y2111744D02*
X3146526Y2109848D01*
X3146890Y2108172D01*
X3147255Y2106714D01*
X3147401Y2106057D01*
X3147546Y2105547D01*
X3147765Y2105037D01*
X3147911Y2104599D01*
X3148057Y2104308D01*
X3148130Y2104089D01*
X3148202Y2103943D01*
Y2103870D01*
X3149004Y2102340D01*
X3149952Y2101027D01*
X3150900Y2099861D01*
X3151847Y2098913D01*
X3152649Y2098184D01*
X3153305Y2097601D01*
X3153743Y2097309D01*
X3153816Y2097164D01*
X3153889D01*
X3155274Y2096362D01*
X3156659Y2095779D01*
X3158044Y2095341D01*
X3159283Y2095050D01*
X3160304Y2094904D01*
X3161179Y2094831D01*
X3161470Y2094758D01*
X3146234D01*
Y2113785D01*
X3146307Y2111744D01*
D02*
G37*
G36*
X3101838Y2094685D02*
X3084561Y2094685D01*
X3086092Y2094758D01*
X3087550Y2094977D01*
X3088935Y2095268D01*
X3090174Y2095633D01*
X3091340Y2096143D01*
X3092434Y2096653D01*
X3093455Y2097164D01*
X3094329Y2097747D01*
X3095131Y2098330D01*
X3095860Y2098840D01*
X3096443Y2099423D01*
X3096954Y2099861D01*
X3097318Y2100225D01*
X3097610Y2100517D01*
X3097756Y2100736D01*
X3097829Y2100809D01*
X3098558Y2101756D01*
X3099141Y2102777D01*
X3099724Y2103725D01*
X3100161Y2104745D01*
X3100890Y2106714D01*
X3101328Y2108609D01*
X3101474Y2109411D01*
X3101619Y2110213D01*
X3101692Y2110869D01*
X3101765Y2111452D01*
X3101838Y2111962D01*
Y2094685D01*
D02*
G37*
G36*
X3208564Y2139883D02*
X3209803Y2139810D01*
X3210896Y2139664D01*
X3211698Y2139519D01*
X3212209Y2139446D01*
X3212573Y2139300D01*
X3212646D01*
X3213448Y2139008D01*
X3214177Y2138571D01*
X3214760Y2138133D01*
X3215271Y2137696D01*
X3215635Y2137332D01*
X3215927Y2136967D01*
X3216072Y2136748D01*
X3216145Y2136675D01*
X3216583Y2135947D01*
X3216874Y2135218D01*
X3217093Y2134488D01*
X3217239Y2133760D01*
X3217312Y2133176D01*
X3217385Y2132739D01*
Y2132447D01*
Y2132302D01*
X3217312Y2131354D01*
X3217166Y2130479D01*
X3216947Y2129750D01*
X3216729Y2129167D01*
X3216510Y2128657D01*
X3216291Y2128219D01*
X3216145Y2128000D01*
X3216072Y2127927D01*
X3215562Y2127344D01*
X3214906Y2126761D01*
X3214250Y2126324D01*
X3213667Y2126032D01*
X3213084Y2125740D01*
X3212646Y2125522D01*
X3212354Y2125449D01*
X3212209Y2125376D01*
X3211407Y2125230D01*
X3210386Y2125084D01*
X3209366Y2125012D01*
X3208345Y2124939D01*
X3207397Y2124866D01*
X3195004D01*
Y2140029D01*
X3206960D01*
X3208564Y2139883D01*
D02*
G37*
G36*
X3209803Y2118742D02*
X3211042Y2118596D01*
X3212063Y2118450D01*
X3212865Y2118305D01*
X3213521Y2118159D01*
X3213812Y2118086D01*
X3213958Y2118013D01*
X3214906Y2117649D01*
X3215708Y2117211D01*
X3216437Y2116701D01*
X3217020Y2116191D01*
X3217457Y2115753D01*
X3217749Y2115389D01*
X3217968Y2115097D01*
X3218041Y2115024D01*
X3218551Y2114222D01*
X3218916Y2113420D01*
X3219207Y2112619D01*
X3219353Y2111890D01*
X3219499Y2111233D01*
X3219572Y2110650D01*
Y2110359D01*
Y2110213D01*
X3219499Y2109338D01*
X3219426Y2108463D01*
X3219280Y2107734D01*
X3219061Y2107151D01*
X3218843Y2106641D01*
X3218697Y2106203D01*
X3218624Y2105985D01*
X3218551Y2105912D01*
X3218114Y2105256D01*
X3217749Y2104672D01*
X3217239Y2104235D01*
X3216874Y2103798D01*
X3216510Y2103506D01*
X3216218Y2103287D01*
X3215999Y2103142D01*
X3215927Y2103069D01*
X3214687Y2102485D01*
X3213448Y2102048D01*
X3212938Y2101902D01*
X3212500Y2101829D01*
X3212209Y2101756D01*
X3212136D01*
X3211553Y2101684D01*
X3210896Y2101611D01*
X3209366Y2101538D01*
X3195004D01*
Y2118888D01*
X3208272D01*
X3209803Y2118742D01*
D02*
G37*
G36*
X3226424Y2095560D02*
X3207543D01*
X3209293Y2095633D01*
X3210824Y2095706D01*
X3212209Y2095852D01*
X3213375Y2095997D01*
X3214323Y2096143D01*
X3215052Y2096216D01*
X3215489Y2096362D01*
X3215635D01*
X3216874Y2096726D01*
X3217895Y2097091D01*
X3218843Y2097528D01*
X3219644Y2097966D01*
X3220301Y2098257D01*
X3220811Y2098549D01*
X3221102Y2098767D01*
X3221175Y2098840D01*
X3221977Y2099497D01*
X3222706Y2100298D01*
X3223289Y2101100D01*
X3223873Y2101829D01*
X3224310Y2102558D01*
X3224602Y2103069D01*
X3224820Y2103433D01*
X3224893Y2103579D01*
X3225404Y2104745D01*
X3225768Y2105912D01*
X3226060Y2107005D01*
X3226206Y2108026D01*
X3226351Y2108901D01*
X3226424Y2109630D01*
Y2095560D01*
D02*
G37*
G36*
X2946488Y2095560D02*
X2929867D01*
Y2140029D01*
X2946488D01*
Y2095560D01*
D02*
G37*
G36*
X2903404D02*
X2886783D01*
Y2140029D01*
X2903404D01*
Y2095560D01*
D02*
G37*
G36*
X2837940Y2139081D02*
X2838523Y2137331D01*
X2839106Y2135582D01*
X2839690Y2133905D01*
X2839981Y2133176D01*
X2840200Y2132447D01*
X2840419Y2131791D01*
X2840637Y2131281D01*
X2840783Y2130843D01*
X2840929Y2130479D01*
X2841002Y2130260D01*
Y2130187D01*
X2846251Y2116336D01*
X2829192D01*
X2834660Y2131062D01*
X2835316Y2132885D01*
X2835826Y2134634D01*
X2836336Y2136238D01*
X2836701Y2137696D01*
X2836992Y2138935D01*
X2837138Y2139446D01*
X2837211Y2139956D01*
X2837357Y2140247D01*
Y2140539D01*
X2837430Y2140685D01*
Y2140758D01*
X2837940Y2139081D01*
D02*
G37*
G36*
X2854270Y2095560D02*
X2821756D01*
X2827224Y2110869D01*
X2848365D01*
X2854270Y2095560D01*
D02*
G37*
G36*
X3124802Y2141050D02*
X3125604Y2140977D01*
X3126332Y2140758D01*
X3126989Y2140466D01*
X3128228Y2139810D01*
X3129321Y2139081D01*
X3130123Y2138279D01*
X3130779Y2137623D01*
X3130998Y2137332D01*
X3131144Y2137113D01*
X3131290Y2137040D01*
Y2136967D01*
X3131800Y2136092D01*
X3132237Y2135072D01*
X3132675Y2133905D01*
X3132966Y2132666D01*
X3133258Y2131354D01*
X3133477Y2129969D01*
X3133841Y2127198D01*
X3133987Y2125813D01*
X3134060Y2124574D01*
X3134133Y2123408D01*
Y2122460D01*
X3134206Y2121585D01*
Y2120929D01*
Y2120565D01*
Y2120492D01*
Y2120419D01*
Y2118159D01*
X3134060Y2116118D01*
X3133914Y2114295D01*
X3133768Y2112546D01*
X3133550Y2111088D01*
X3133258Y2109702D01*
X3132966Y2108536D01*
X3132748Y2107443D01*
X3132456Y2106568D01*
X3132164Y2105839D01*
X3131946Y2105183D01*
X3131654Y2104672D01*
X3131508Y2104308D01*
X3131363Y2104089D01*
X3131217Y2103943D01*
Y2103870D01*
X3130634Y2103142D01*
X3130050Y2102558D01*
X3129467Y2101975D01*
X3128884Y2101538D01*
X3127645Y2100809D01*
X3126551Y2100298D01*
X3125531Y2100007D01*
X3124802Y2099861D01*
X3124510Y2099788D01*
X3124073D01*
X3123271Y2099861D01*
X3122542Y2099934D01*
X3121157Y2100444D01*
X3119917Y2101100D01*
X3118824Y2101829D01*
X3118022Y2102558D01*
X3117366Y2103214D01*
X3117001Y2103725D01*
X3116856Y2103798D01*
Y2103870D01*
X3116345Y2104745D01*
X3115908Y2105766D01*
X3115470Y2106932D01*
X3115179Y2108172D01*
X3114887Y2109484D01*
X3114669Y2110869D01*
X3114304Y2113712D01*
X3114158Y2115024D01*
X3114085Y2116264D01*
X3114012Y2117430D01*
Y2118378D01*
X3113939Y2119252D01*
Y2119909D01*
Y2120273D01*
Y2120419D01*
X3114012Y2122679D01*
X3114085Y2124720D01*
X3114231Y2126615D01*
X3114450Y2128365D01*
X3114669Y2129896D01*
X3114960Y2131281D01*
X3115252Y2132520D01*
X3115543Y2133614D01*
X3115835Y2134561D01*
X3116054Y2135363D01*
X3116345Y2136019D01*
X3116564Y2136603D01*
X3116783Y2136967D01*
X3116928Y2137259D01*
X3117074Y2137405D01*
Y2137477D01*
X3117584Y2138133D01*
X3118095Y2138717D01*
X3118678Y2139154D01*
X3119261Y2139591D01*
X3120428Y2140248D01*
X3121521Y2140685D01*
X3122469Y2140904D01*
X3123271Y2141050D01*
X3123562Y2141122D01*
X3124000D01*
X3124802Y2141050D01*
D02*
G37*
%LPC*%
G36*
X2561799Y2050265D02*
X2561743D01*
X2561632D01*
X2561410D01*
X2561133Y2050210D01*
X2560800D01*
X2560411Y2050154D01*
X2559523Y2049988D01*
X2558524Y2049766D01*
X2557470Y2049377D01*
X2556471Y2048822D01*
X2555527Y2048101D01*
X2555416Y2047990D01*
X2555139Y2047712D01*
X2554806Y2047268D01*
X2554362Y2046658D01*
X2553918Y2045881D01*
X2553585Y2044993D01*
X2553307Y2043938D01*
X2553196Y2042773D01*
Y2042440D01*
X2553252Y2042218D01*
X2553307Y2041663D01*
X2553474Y2040886D01*
X2553751Y2040053D01*
X2554195Y2039110D01*
X2554750Y2038222D01*
X2555527Y2037334D01*
X2555638Y2037223D01*
X2555916Y2037001D01*
X2556415Y2036612D01*
X2557137Y2036224D01*
X2557969Y2035835D01*
X2559024Y2035447D01*
X2560189Y2035225D01*
X2561521Y2035114D01*
X2561632D01*
X2561910D01*
X2562409Y2035169D01*
X2563020Y2035225D01*
X2563741Y2035336D01*
X2564518Y2035558D01*
X2565351Y2035780D01*
X2566183Y2036113D01*
X2566294Y2036168D01*
X2566572Y2036335D01*
X2566960Y2036557D01*
X2567460Y2036890D01*
X2567959Y2037278D01*
X2568570Y2037778D01*
X2569069Y2038333D01*
X2569569Y2038999D01*
X2569624Y2039110D01*
X2569735Y2039332D01*
X2569957Y2039720D01*
X2570124Y2040220D01*
X2570346Y2040775D01*
X2570568Y2041441D01*
X2570679Y2042162D01*
X2570734Y2042939D01*
Y2043217D01*
X2570679Y2043439D01*
X2570623Y2043994D01*
X2570457Y2044715D01*
X2570124Y2045492D01*
X2569735Y2046380D01*
X2569125Y2047268D01*
X2568792Y2047712D01*
X2568348Y2048101D01*
X2568292D01*
X2568237Y2048212D01*
X2567904Y2048434D01*
X2567349Y2048767D01*
X2566627Y2049211D01*
X2565684Y2049599D01*
X2564574Y2049932D01*
X2563297Y2050154D01*
X2561799Y2050265D01*
D02*
G37*
G36*
X2546092Y2018630D02*
X2546037D01*
X2545981D01*
X2545648Y2018575D01*
X2545149Y2018519D01*
X2544483Y2018408D01*
X2543817Y2018131D01*
X2543040Y2017798D01*
X2542318Y2017298D01*
X2541597Y2016632D01*
X2541541Y2016521D01*
X2541319Y2016244D01*
X2541042Y2015800D01*
X2540709Y2015078D01*
X2540376Y2014246D01*
X2540098Y2013136D01*
X2539876Y2011859D01*
X2539821Y2010361D01*
Y1998262D01*
X2552530D01*
Y2009695D01*
X2552475Y2010361D01*
X2552419Y2011138D01*
X2552364Y2012026D01*
X2552253Y2012914D01*
X2552086Y2013802D01*
X2551864Y2014579D01*
X2551809Y2014690D01*
X2551698Y2014912D01*
X2551531Y2015245D01*
X2551309Y2015689D01*
X2550976Y2016188D01*
X2550588Y2016688D01*
X2550088Y2017187D01*
X2549533Y2017576D01*
X2549478Y2017631D01*
X2549256Y2017742D01*
X2548923Y2017909D01*
X2548479Y2018131D01*
X2547979Y2018297D01*
X2547424Y2018464D01*
X2546758Y2018575D01*
X2546092Y2018630D01*
D02*
G37*
G36*
X2001799Y2050265D02*
X2001743D01*
X2001632D01*
X2001410D01*
X2001133Y2050210D01*
X2000800D01*
X2000411Y2050154D01*
X1999523Y2049988D01*
X1998524Y2049766D01*
X1997470Y2049377D01*
X1996471Y2048822D01*
X1995527Y2048101D01*
X1995416Y2047990D01*
X1995139Y2047712D01*
X1994806Y2047268D01*
X1994362Y2046658D01*
X1993918Y2045881D01*
X1993585Y2044993D01*
X1993307Y2043938D01*
X1993196Y2042773D01*
Y2042440D01*
X1993252Y2042218D01*
X1993307Y2041663D01*
X1993474Y2040886D01*
X1993751Y2040053D01*
X1994195Y2039110D01*
X1994750Y2038222D01*
X1995527Y2037334D01*
X1995638Y2037223D01*
X1995916Y2037001D01*
X1996415Y2036612D01*
X1997137Y2036224D01*
X1997969Y2035835D01*
X1999024Y2035447D01*
X2000189Y2035225D01*
X2001521Y2035114D01*
X2001632D01*
X2001910D01*
X2002409Y2035169D01*
X2003020Y2035225D01*
X2003741Y2035336D01*
X2004518Y2035558D01*
X2005351Y2035780D01*
X2006183Y2036113D01*
X2006294Y2036168D01*
X2006572Y2036335D01*
X2006960Y2036557D01*
X2007460Y2036890D01*
X2007959Y2037278D01*
X2008570Y2037778D01*
X2009069Y2038333D01*
X2009569Y2038999D01*
X2009624Y2039110D01*
X2009735Y2039332D01*
X2009957Y2039720D01*
X2010124Y2040220D01*
X2010346Y2040775D01*
X2010568Y2041441D01*
X2010679Y2042162D01*
X2010734Y2042939D01*
Y2043217D01*
X2010679Y2043439D01*
X2010623Y2043994D01*
X2010457Y2044715D01*
X2010124Y2045492D01*
X2009735Y2046380D01*
X2009125Y2047268D01*
X2008792Y2047712D01*
X2008348Y2048101D01*
X2008292D01*
X2008237Y2048212D01*
X2007904Y2048434D01*
X2007349Y2048767D01*
X2006627Y2049211D01*
X2005684Y2049599D01*
X2004574Y2049932D01*
X2003297Y2050154D01*
X2001799Y2050265D01*
D02*
G37*
G36*
X1986092Y2018630D02*
X1986037D01*
X1985981D01*
X1985648Y2018575D01*
X1985149Y2018519D01*
X1984483Y2018408D01*
X1983817Y2018131D01*
X1983040Y2017798D01*
X1982318Y2017298D01*
X1981597Y2016632D01*
X1981541Y2016521D01*
X1981319Y2016244D01*
X1981042Y2015800D01*
X1980709Y2015078D01*
X1980376Y2014246D01*
X1980098Y2013136D01*
X1979876Y2011859D01*
X1979821Y2010361D01*
Y1998262D01*
X1992530D01*
Y2009695D01*
X1992475Y2010361D01*
X1992419Y2011138D01*
X1992364Y2012026D01*
X1992253Y2012914D01*
X1992086Y2013802D01*
X1991864Y2014579D01*
X1991809Y2014690D01*
X1991698Y2014912D01*
X1991531Y2015245D01*
X1991309Y2015689D01*
X1990976Y2016188D01*
X1990588Y2016688D01*
X1990088Y2017187D01*
X1989533Y2017576D01*
X1989478Y2017631D01*
X1989256Y2017742D01*
X1988923Y2017909D01*
X1988479Y2018131D01*
X1987979Y2018297D01*
X1987424Y2018464D01*
X1986758Y2018575D01*
X1986092Y2018630D01*
D02*
G37*
G36*
Y2271168D02*
X1986037D01*
X1985981D01*
X1985648Y2271113D01*
X1985149Y2271057D01*
X1984483Y2270946D01*
X1983817Y2270669D01*
X1983040Y2270336D01*
X1982318Y2269836D01*
X1981597Y2269170D01*
X1981541Y2269059D01*
X1981319Y2268782D01*
X1981042Y2268338D01*
X1980709Y2267616D01*
X1980376Y2266784D01*
X1980098Y2265674D01*
X1979876Y2264397D01*
X1979821Y2262899D01*
Y2250800D01*
X1992530D01*
Y2262233D01*
X1992475Y2262899D01*
X1992419Y2263676D01*
X1992364Y2264564D01*
X1992253Y2265452D01*
X1992086Y2266340D01*
X1991864Y2267117D01*
X1991809Y2267228D01*
X1991698Y2267450D01*
X1991531Y2267783D01*
X1991309Y2268227D01*
X1990976Y2268726D01*
X1990588Y2269226D01*
X1990088Y2269725D01*
X1989533Y2270114D01*
X1989478Y2270169D01*
X1989256Y2270280D01*
X1988923Y2270447D01*
X1988479Y2270669D01*
X1987979Y2270835D01*
X1987424Y2271002D01*
X1986758Y2271113D01*
X1986092Y2271168D01*
D02*
G37*
G36*
X1985426Y2232707D02*
X1985371D01*
X1985315D01*
X1984982D01*
X1984483Y2232596D01*
X1983872Y2232485D01*
X1983206Y2232263D01*
X1982485Y2231930D01*
X1981763Y2231486D01*
X1981042Y2230875D01*
X1980986Y2230820D01*
X1980764Y2230542D01*
X1980487Y2230154D01*
X1980154Y2229654D01*
X1979821Y2228988D01*
X1979543Y2228267D01*
X1979321Y2227379D01*
X1979266Y2226435D01*
Y2225991D01*
X1979377Y2225492D01*
X1979488Y2224826D01*
X1979710Y2224104D01*
X1979987Y2223327D01*
X1980431Y2222606D01*
X1981042Y2221884D01*
X1981097Y2221829D01*
X1981319Y2221607D01*
X1981708Y2221329D01*
X1982207Y2221052D01*
X1982818Y2220719D01*
X1983539Y2220441D01*
X1984316Y2220219D01*
X1985204Y2220164D01*
X1985260D01*
X1985315D01*
X1985648Y2220219D01*
X1986148Y2220275D01*
X1986758Y2220386D01*
X1987480Y2220608D01*
X1988201Y2220885D01*
X1988978Y2221329D01*
X1989644Y2221884D01*
X1989700Y2221940D01*
X1989922Y2222217D01*
X1990199Y2222606D01*
X1990477Y2223105D01*
X1990810Y2223771D01*
X1991087Y2224548D01*
X1991309Y2225436D01*
X1991365Y2226435D01*
Y2226546D01*
X1991309Y2226879D01*
X1991254Y2227379D01*
X1991143Y2228045D01*
X1990921Y2228766D01*
X1990643Y2229488D01*
X1990199Y2230265D01*
X1989644Y2230931D01*
X1989589Y2230986D01*
X1989311Y2231208D01*
X1988978Y2231486D01*
X1988479Y2231819D01*
X1987868Y2232152D01*
X1987147Y2232429D01*
X1986314Y2232651D01*
X1985426Y2232707D01*
D02*
G37*
G36*
X2003075Y2234261D02*
X2003020D01*
X2002909D01*
X2002742D01*
X2002520Y2234205D01*
X2001910Y2234150D01*
X2001077Y2233983D01*
X2000245Y2233706D01*
X1999301Y2233317D01*
X1998358Y2232762D01*
X1997470Y2231985D01*
X1997359Y2231874D01*
X1997137Y2231597D01*
X1996748Y2231097D01*
X1996304Y2230431D01*
X1995916Y2229599D01*
X1995527Y2228600D01*
X1995305Y2227490D01*
X1995194Y2226269D01*
Y2225936D01*
X1995250Y2225714D01*
X1995305Y2225103D01*
X1995472Y2224326D01*
X1995749Y2223438D01*
X1996138Y2222550D01*
X1996693Y2221607D01*
X1997414Y2220774D01*
X1997525Y2220663D01*
X1997803Y2220441D01*
X1998302Y2220108D01*
X1998913Y2219720D01*
X1999745Y2219276D01*
X2000689Y2218943D01*
X2001743Y2218721D01*
X2002909Y2218610D01*
X2003020D01*
X2003242D01*
X2003630Y2218665D01*
X2004130Y2218721D01*
X2004740Y2218832D01*
X2005406Y2218998D01*
X2006072Y2219220D01*
X2006794Y2219498D01*
X2006849Y2219553D01*
X2007127Y2219664D01*
X2007460Y2219886D01*
X2007848Y2220219D01*
X2008348Y2220608D01*
X2008847Y2221107D01*
X2009291Y2221662D01*
X2009735Y2222328D01*
X2009791Y2222439D01*
X2009902Y2222661D01*
X2010068Y2223050D01*
X2010235Y2223549D01*
X2010401Y2224160D01*
X2010568Y2224881D01*
X2010679Y2225658D01*
X2010734Y2226435D01*
Y2226768D01*
X2010679Y2226990D01*
X2010623Y2227656D01*
X2010457Y2228433D01*
X2010179Y2229321D01*
X2009846Y2230265D01*
X2009291Y2231153D01*
X2008570Y2232041D01*
X2008459Y2232152D01*
X2008181Y2232374D01*
X2007682Y2232762D01*
X2007071Y2233151D01*
X2006294Y2233539D01*
X2005351Y2233928D01*
X2004241Y2234150D01*
X2003075Y2234261D01*
D02*
G37*
G36*
X2000411Y2199074D02*
X1983206D01*
X2000411Y2186975D01*
Y2199074D01*
D02*
G37*
G36*
X2506092Y2271168D02*
X2506037D01*
X2505981D01*
X2505648Y2271113D01*
X2505149Y2271057D01*
X2504483Y2270946D01*
X2503817Y2270669D01*
X2503040Y2270336D01*
X2502318Y2269836D01*
X2501597Y2269170D01*
X2501541Y2269059D01*
X2501319Y2268782D01*
X2501042Y2268338D01*
X2500709Y2267616D01*
X2500376Y2266784D01*
X2500098Y2265674D01*
X2499876Y2264397D01*
X2499821Y2262899D01*
Y2250800D01*
X2512530D01*
Y2262233D01*
X2512475Y2262899D01*
X2512419Y2263676D01*
X2512364Y2264564D01*
X2512253Y2265452D01*
X2512086Y2266340D01*
X2511864Y2267117D01*
X2511809Y2267228D01*
X2511698Y2267450D01*
X2511531Y2267783D01*
X2511309Y2268227D01*
X2510976Y2268726D01*
X2510588Y2269226D01*
X2510088Y2269725D01*
X2509533Y2270114D01*
X2509478Y2270169D01*
X2509256Y2270280D01*
X2508923Y2270447D01*
X2508479Y2270669D01*
X2507979Y2270835D01*
X2507424Y2271002D01*
X2506758Y2271113D01*
X2506092Y2271168D01*
D02*
G37*
G36*
X2505426Y2232707D02*
X2505371D01*
X2505315D01*
X2504982D01*
X2504483Y2232596D01*
X2503872Y2232485D01*
X2503206Y2232263D01*
X2502485Y2231930D01*
X2501763Y2231486D01*
X2501042Y2230875D01*
X2500986Y2230820D01*
X2500764Y2230542D01*
X2500487Y2230154D01*
X2500154Y2229654D01*
X2499821Y2228988D01*
X2499543Y2228267D01*
X2499321Y2227379D01*
X2499266Y2226435D01*
Y2225991D01*
X2499377Y2225492D01*
X2499488Y2224826D01*
X2499710Y2224104D01*
X2499987Y2223327D01*
X2500431Y2222606D01*
X2501042Y2221884D01*
X2501097Y2221829D01*
X2501319Y2221607D01*
X2501708Y2221329D01*
X2502207Y2221052D01*
X2502818Y2220719D01*
X2503539Y2220441D01*
X2504316Y2220219D01*
X2505204Y2220164D01*
X2505260D01*
X2505315D01*
X2505648Y2220219D01*
X2506148Y2220275D01*
X2506758Y2220386D01*
X2507480Y2220608D01*
X2508201Y2220885D01*
X2508978Y2221329D01*
X2509644Y2221884D01*
X2509700Y2221940D01*
X2509922Y2222217D01*
X2510199Y2222606D01*
X2510477Y2223105D01*
X2510810Y2223771D01*
X2511087Y2224548D01*
X2511309Y2225436D01*
X2511365Y2226435D01*
Y2226546D01*
X2511309Y2226879D01*
X2511254Y2227379D01*
X2511143Y2228045D01*
X2510921Y2228766D01*
X2510643Y2229488D01*
X2510199Y2230265D01*
X2509644Y2230931D01*
X2509589Y2230986D01*
X2509311Y2231208D01*
X2508978Y2231486D01*
X2508479Y2231819D01*
X2507868Y2232152D01*
X2507147Y2232429D01*
X2506314Y2232651D01*
X2505426Y2232707D01*
D02*
G37*
G36*
X2523075Y2234261D02*
X2523020D01*
X2522909D01*
X2522742D01*
X2522520Y2234205D01*
X2521910Y2234150D01*
X2521077Y2233983D01*
X2520245Y2233706D01*
X2519301Y2233317D01*
X2518358Y2232762D01*
X2517470Y2231985D01*
X2517359Y2231874D01*
X2517137Y2231597D01*
X2516748Y2231097D01*
X2516304Y2230431D01*
X2515916Y2229599D01*
X2515527Y2228600D01*
X2515305Y2227490D01*
X2515194Y2226269D01*
Y2225936D01*
X2515250Y2225714D01*
X2515305Y2225103D01*
X2515472Y2224326D01*
X2515749Y2223438D01*
X2516138Y2222550D01*
X2516693Y2221607D01*
X2517414Y2220774D01*
X2517525Y2220663D01*
X2517803Y2220441D01*
X2518302Y2220108D01*
X2518913Y2219720D01*
X2519745Y2219276D01*
X2520689Y2218943D01*
X2521743Y2218721D01*
X2522909Y2218610D01*
X2523020D01*
X2523242D01*
X2523630Y2218665D01*
X2524130Y2218721D01*
X2524740Y2218832D01*
X2525406Y2218998D01*
X2526072Y2219220D01*
X2526794Y2219498D01*
X2526849Y2219553D01*
X2527127Y2219664D01*
X2527460Y2219886D01*
X2527848Y2220219D01*
X2528348Y2220608D01*
X2528847Y2221107D01*
X2529291Y2221662D01*
X2529735Y2222328D01*
X2529791Y2222439D01*
X2529902Y2222661D01*
X2530068Y2223050D01*
X2530235Y2223549D01*
X2530401Y2224160D01*
X2530568Y2224881D01*
X2530679Y2225658D01*
X2530734Y2226435D01*
Y2226768D01*
X2530679Y2226990D01*
X2530623Y2227656D01*
X2530457Y2228433D01*
X2530179Y2229321D01*
X2529846Y2230265D01*
X2529291Y2231153D01*
X2528570Y2232041D01*
X2528459Y2232152D01*
X2528181Y2232374D01*
X2527682Y2232762D01*
X2527071Y2233151D01*
X2526294Y2233539D01*
X2525351Y2233928D01*
X2524241Y2234150D01*
X2523075Y2234261D01*
D02*
G37*
G36*
X2520411Y2199074D02*
X2503206D01*
X2520411Y2186975D01*
Y2199074D01*
D02*
G37*
G36*
X2597429Y2595179D02*
X2585330D01*
Y2582470D01*
X2596763D01*
X2597429Y2582525D01*
X2598206Y2582581D01*
X2599094Y2582636D01*
X2599982Y2582747D01*
X2600870Y2582914D01*
X2601647Y2583136D01*
X2601758Y2583191D01*
X2601980Y2583302D01*
X2602313Y2583469D01*
X2602757Y2583691D01*
X2603257Y2584024D01*
X2603756Y2584412D01*
X2604256Y2584912D01*
X2604644Y2585467D01*
X2604700Y2585522D01*
X2604811Y2585744D01*
X2604977Y2586077D01*
X2605199Y2586521D01*
X2605366Y2587021D01*
X2605532Y2587576D01*
X2605643Y2588242D01*
X2605699Y2588908D01*
Y2588963D01*
Y2589019D01*
X2605643Y2589352D01*
X2605588Y2589851D01*
X2605477Y2590517D01*
X2605199Y2591183D01*
X2604866Y2591960D01*
X2604367Y2592682D01*
X2603701Y2593403D01*
X2603590Y2593459D01*
X2603312Y2593681D01*
X2602868Y2593958D01*
X2602147Y2594291D01*
X2601314Y2594624D01*
X2600204Y2594902D01*
X2598928Y2595124D01*
X2597429Y2595179D01*
D02*
G37*
G36*
X2560855Y2595734D02*
X2560522D01*
X2560300Y2595679D01*
X2559689Y2595568D01*
X2558968Y2595401D01*
X2558135Y2595068D01*
X2557247Y2594569D01*
X2556803Y2594236D01*
X2556359Y2593903D01*
X2555971Y2593459D01*
X2555582Y2592959D01*
Y2592904D01*
X2555471Y2592793D01*
X2555360Y2592571D01*
X2555194Y2592293D01*
X2555027Y2591849D01*
X2554805Y2591350D01*
X2554639Y2590739D01*
X2554417Y2590018D01*
X2554195Y2589185D01*
X2553973Y2588242D01*
X2553751Y2587187D01*
X2553584Y2586022D01*
X2553418Y2584690D01*
X2553307Y2583247D01*
X2553251Y2581693D01*
X2553196Y2579972D01*
Y2579861D01*
Y2579584D01*
Y2579084D01*
X2553251Y2578418D01*
Y2577697D01*
X2553307Y2576809D01*
X2553362Y2575865D01*
X2553473Y2574866D01*
X2553751Y2572702D01*
X2553917Y2571647D01*
X2554139Y2570648D01*
X2554361Y2569705D01*
X2554694Y2568817D01*
X2555027Y2568040D01*
X2555416Y2567374D01*
Y2567318D01*
X2555527Y2567263D01*
X2555804Y2566874D01*
X2556304Y2566375D01*
X2556914Y2565820D01*
X2557747Y2565265D01*
X2558690Y2564765D01*
X2559745Y2564377D01*
X2560300Y2564321D01*
X2560910Y2564266D01*
X2561243D01*
X2561465Y2564321D01*
X2562020Y2564432D01*
X2562797Y2564654D01*
X2563630Y2565043D01*
X2564573Y2565598D01*
X2565017Y2565931D01*
X2565461Y2566375D01*
X2565905Y2566819D01*
X2566349Y2567374D01*
Y2567429D01*
X2566460Y2567540D01*
X2566571Y2567707D01*
X2566682Y2567984D01*
X2566904Y2568373D01*
X2567071Y2568872D01*
X2567293Y2569427D01*
X2567515Y2570093D01*
X2567681Y2570926D01*
X2567903Y2571814D01*
X2568125Y2572868D01*
X2568292Y2573978D01*
X2568403Y2575310D01*
X2568514Y2576698D01*
X2568625Y2578252D01*
Y2579972D01*
Y2580028D01*
Y2580083D01*
Y2580361D01*
Y2580860D01*
X2568569Y2581526D01*
Y2582248D01*
X2568514Y2583136D01*
X2568458Y2584079D01*
X2568347Y2585134D01*
X2568070Y2587243D01*
X2567903Y2588297D01*
X2567681Y2589296D01*
X2567459Y2590240D01*
X2567126Y2591128D01*
X2566793Y2591905D01*
X2566405Y2592571D01*
Y2592626D01*
X2566294Y2592682D01*
X2566183Y2592848D01*
X2566016Y2593070D01*
X2565517Y2593570D01*
X2564906Y2594180D01*
X2564074Y2594735D01*
X2563130Y2595235D01*
X2562631Y2595457D01*
X2562076Y2595623D01*
X2561465Y2595679D01*
X2560855Y2595734D01*
D02*
G37*
G36*
X2384387Y2595179D02*
X2372288D01*
Y2582470D01*
X2383721D01*
X2384387Y2582525D01*
X2385164Y2582581D01*
X2386052Y2582636D01*
X2386940Y2582747D01*
X2387828Y2582914D01*
X2388605Y2583136D01*
X2388716Y2583191D01*
X2388938Y2583302D01*
X2389271Y2583469D01*
X2389715Y2583691D01*
X2390215Y2584024D01*
X2390714Y2584412D01*
X2391214Y2584912D01*
X2391602Y2585467D01*
X2391658Y2585522D01*
X2391769Y2585744D01*
X2391935Y2586077D01*
X2392157Y2586521D01*
X2392324Y2587021D01*
X2392490Y2587576D01*
X2392601Y2588242D01*
X2392657Y2588908D01*
Y2588963D01*
Y2589019D01*
X2392601Y2589352D01*
X2392546Y2589851D01*
X2392435Y2590517D01*
X2392157Y2591183D01*
X2391824Y2591960D01*
X2391325Y2592682D01*
X2390659Y2593403D01*
X2390548Y2593459D01*
X2390270Y2593681D01*
X2389826Y2593958D01*
X2389105Y2594291D01*
X2388272Y2594624D01*
X2387162Y2594902D01*
X2385886Y2595124D01*
X2384387Y2595179D01*
D02*
G37*
G36*
X2191459Y2595734D02*
X2191015D01*
X2190515Y2595623D01*
X2189849Y2595512D01*
X2189128Y2595290D01*
X2188351Y2595013D01*
X2187629Y2594569D01*
X2186907Y2593958D01*
X2186852Y2593903D01*
X2186630Y2593681D01*
X2186352Y2593292D01*
X2186075Y2592793D01*
X2185742Y2592182D01*
X2185465Y2591461D01*
X2185242Y2590684D01*
X2185187Y2589796D01*
Y2589740D01*
Y2589685D01*
X2185242Y2589352D01*
X2185298Y2588852D01*
X2185409Y2588242D01*
X2185631Y2587520D01*
X2185909Y2586799D01*
X2186352Y2586022D01*
X2186907Y2585356D01*
X2186963Y2585300D01*
X2187240Y2585078D01*
X2187629Y2584801D01*
X2188128Y2584523D01*
X2188794Y2584190D01*
X2189572Y2583913D01*
X2190459Y2583691D01*
X2191459Y2583635D01*
X2191570D01*
X2191903Y2583691D01*
X2192402Y2583746D01*
X2193068Y2583857D01*
X2193789Y2584079D01*
X2194511Y2584357D01*
X2195288Y2584801D01*
X2195954Y2585356D01*
X2196010Y2585411D01*
X2196231Y2585689D01*
X2196509Y2586022D01*
X2196842Y2586521D01*
X2197175Y2587132D01*
X2197452Y2587853D01*
X2197675Y2588686D01*
X2197730Y2589574D01*
Y2589629D01*
Y2589685D01*
Y2590018D01*
X2197619Y2590517D01*
X2197508Y2591128D01*
X2197286Y2591794D01*
X2196953Y2592515D01*
X2196509Y2593237D01*
X2195898Y2593958D01*
X2195843Y2594014D01*
X2195566Y2594236D01*
X2195177Y2594513D01*
X2194677Y2594846D01*
X2194012Y2595179D01*
X2193290Y2595457D01*
X2192402Y2595679D01*
X2191459Y2595734D01*
D02*
G37*
G36*
X2191292Y2579806D02*
X2190959D01*
X2190737Y2579750D01*
X2190126Y2579695D01*
X2189349Y2579528D01*
X2188461Y2579251D01*
X2187573Y2578862D01*
X2186630Y2578307D01*
X2185798Y2577586D01*
X2185686Y2577475D01*
X2185465Y2577197D01*
X2185131Y2576698D01*
X2184743Y2576087D01*
X2184299Y2575255D01*
X2183966Y2574311D01*
X2183744Y2573257D01*
X2183633Y2572091D01*
Y2571980D01*
Y2571758D01*
X2183689Y2571370D01*
X2183744Y2570870D01*
X2183855Y2570260D01*
X2184021Y2569594D01*
X2184244Y2568928D01*
X2184521Y2568206D01*
X2184577Y2568151D01*
X2184688Y2567873D01*
X2184910Y2567540D01*
X2185242Y2567152D01*
X2185631Y2566652D01*
X2186131Y2566153D01*
X2186686Y2565709D01*
X2187352Y2565265D01*
X2187463Y2565209D01*
X2187684Y2565098D01*
X2188073Y2564932D01*
X2188573Y2564765D01*
X2189183Y2564599D01*
X2189905Y2564432D01*
X2190682Y2564321D01*
X2191459Y2564266D01*
X2191791D01*
X2192014Y2564321D01*
X2192680Y2564377D01*
X2193456Y2564543D01*
X2194345Y2564821D01*
X2195288Y2565154D01*
X2196176Y2565709D01*
X2197064Y2566430D01*
X2197175Y2566541D01*
X2197397Y2566819D01*
X2197785Y2567318D01*
X2198174Y2567929D01*
X2198562Y2568706D01*
X2198951Y2569649D01*
X2199173Y2570759D01*
X2199284Y2571925D01*
Y2571980D01*
Y2572091D01*
Y2572258D01*
X2199229Y2572480D01*
X2199173Y2573090D01*
X2199006Y2573923D01*
X2198729Y2574755D01*
X2198340Y2575699D01*
X2197785Y2576642D01*
X2197008Y2577530D01*
X2196898Y2577641D01*
X2196620Y2577863D01*
X2196120Y2578252D01*
X2195454Y2578696D01*
X2194622Y2579084D01*
X2193623Y2579473D01*
X2192513Y2579695D01*
X2191292Y2579806D01*
D02*
G37*
G36*
X1858890Y2455223D02*
X1852475D01*
Y2415566D01*
X1826012Y2455223D01*
X1819160D01*
Y2404777D01*
X1825575D01*
Y2444361D01*
X1851965Y2404777D01*
X1858890D01*
Y2455223D01*
D02*
G37*
G36*
X1807423D02*
X1800716D01*
Y2404777D01*
X1807423D01*
Y2455223D01*
D02*
G37*
%LPD*%
D18*
X2972047Y2669287D02*
G03*
X2972047Y2669287I-4921J0D01*
G01*
X2006299D02*
G03*
X2006299Y2669287I-4921J0D01*
G01*
D19*
X2714213Y2258539D02*
Y2290035D01*
X2615787Y2258539D02*
Y2290035D01*
X2714213Y2028539D02*
Y2060035D01*
X2615787Y2028539D02*
Y2060035D01*
X2139213Y2028539D02*
Y2060035D01*
X2040787Y2028539D02*
Y2060035D01*
X2139213Y2258539D02*
Y2290035D01*
X2040787Y2258539D02*
Y2290035D01*
X2595354Y2620075D02*
X2626850D01*
X2595354Y2718500D02*
X2626850D01*
X2595354Y2435075D02*
X2626850D01*
X2595354Y2533500D02*
X2626850D01*
X2362854Y2435075D02*
X2394350D01*
X2362854Y2533500D02*
X2394350D01*
X2362854Y2620075D02*
X2394350D01*
X2362854Y2718500D02*
X2394350D01*
X2130354Y2435075D02*
X2161850D01*
X2130354Y2533500D02*
X2161850D01*
X2130354Y2620075D02*
X2161850D01*
X2130354Y2718500D02*
X2161850D01*
X2992126Y2826768D02*
X3177165D01*
X2992126Y2511807D02*
Y2826768D01*
Y2511807D02*
X3177165D01*
X1791339D02*
X1976378D01*
Y2826768D01*
X1791339D02*
X1976378D01*
%TF.MD5,fc8629eb965d23ad4d1de94f2e85215c*%
M02*
