%TF.GenerationSoftware,Altium Limited,Altium Designer,20.0.10 (225)*%
G04 Layer_Color=16711935*
%FSLAX26Y26*%
%MOIN*%
%TF.FileFunction,Soldermask,Bot*%
%TF.Part,Single*%
G01*
G75*
%TA.AperFunction,SMDPad,CuDef*%
%ADD13R,0.196850X0.062992*%
%TA.AperFunction,ViaPad*%
%ADD17C,0.058000*%
D13*
X3107874Y2778343D02*
D03*
Y2560232D02*
D03*
X1860630D02*
D03*
Y2778343D02*
D03*
D17*
X2190000Y2355000D02*
D03*
X2005000Y2795000D02*
D03*
X1995000Y2580000D02*
D03*
X2692400Y2757662D02*
D03*
X2771927D02*
D03*
X2851455D02*
D03*
X2930982D02*
D03*
X2582185Y2771136D02*
D03*
X2473248Y2766764D02*
D03*
X2505000Y2575000D02*
D03*
X2435000D02*
D03*
X2376491Y2380841D02*
D03*
X2465000Y2380000D02*
D03*
X2536013Y2395836D02*
D03*
X2272342Y2395913D02*
D03*
X2228175Y2766798D02*
D03*
X2272342Y2580913D02*
D03*
X2372185Y2771136D02*
D03*
X2576548Y2336507D02*
D03*
X2579872Y2257049D02*
D03*
X2580616Y2177525D02*
D03*
X2576548Y2098101D02*
D03*
X2753452Y2107662D02*
D03*
X2752610Y2187185D02*
D03*
X2744249Y2266271D02*
D03*
X2753906Y2345211D02*
D03*
Y2424738D02*
D03*
X2755579Y2504248D02*
D03*
X2776724Y2580913D02*
D03*
X2856251D02*
D03*
X2935779D02*
D03*
X2057925Y2757662D02*
D03*
X1998594Y2502947D02*
D03*
X1999698Y2423427D02*
D03*
Y2343900D02*
D03*
X2123743Y2756536D02*
D03*
X1848414Y2073808D02*
D03*
X2400000Y2120000D02*
D03*
%TF.MD5,b72e496faaf0c6e30b5ced606079d4c8*%
M02*
