%TF.GenerationSoftware,Altium Limited,Altium Designer,20.0.10 (225)*%
G04 Layer_Physical_Order=2*
G04 Layer_Color=16711680*
%FSLAX26Y26*%
%MOIN*%
%TF.FileFunction,Copper,L2,Bot,Signal*%
%TF.Part,Single*%
G01*
G75*
G36*
X4944299Y3034677D02*
X4973229Y3001659D01*
X4999480Y2966473D01*
X5022890Y2929336D01*
X5043313Y2890476D01*
X5060625Y2850134D01*
X5074718Y2808558D01*
X5085506Y2766005D01*
X5092921Y2722736D01*
X5096919Y2679019D01*
X5097475Y2635123D01*
X5094585Y2591319D01*
X5088267Y2547876D01*
X5078560Y2505063D01*
X5065524Y2463144D01*
X5049239Y2422377D01*
X5029805Y2383013D01*
X5007343Y2345295D01*
X4981991Y2309456D01*
X4953906Y2275716D01*
X4941832Y2263333D01*
X4938583Y2260000D01*
Y2260000D01*
X4938582Y2260000D01*
X3600000Y2260000D01*
X3584284Y2275323D01*
X3555353Y2308341D01*
X3529102Y2343527D01*
X3505693Y2380664D01*
X3485269Y2419524D01*
X3467958Y2459866D01*
X3453865Y2501442D01*
X3443077Y2543995D01*
X3435661Y2587264D01*
X3431663Y2630981D01*
X3431108Y2674877D01*
X3433998Y2718681D01*
X3440316Y2762124D01*
X3450023Y2804937D01*
X3463059Y2846856D01*
X3479344Y2887623D01*
X3498777Y2926987D01*
X3521239Y2964705D01*
X3546591Y3000544D01*
X3574677Y3034284D01*
X3590000Y3050000D01*
X4928583D01*
X4944299Y3034677D01*
D02*
G37*
%LPC*%
G36*
X3543307Y2709839D02*
X3529114Y2707971D01*
X3515887Y2702492D01*
X3504530Y2693777D01*
X3495815Y2682420D01*
X3490336Y2669193D01*
X3488468Y2655000D01*
X3490336Y2640807D01*
X3495815Y2627580D01*
X3504530Y2616223D01*
X3515887Y2607508D01*
X3529114Y2602029D01*
X3543307Y2600161D01*
X3557501Y2602029D01*
X3570727Y2607508D01*
X3582084Y2616223D01*
X3590799Y2627580D01*
X3596278Y2640807D01*
X3598146Y2655000D01*
X3596278Y2669193D01*
X3590799Y2682420D01*
X3582084Y2693777D01*
X3570727Y2702492D01*
X3557501Y2707971D01*
X3543307Y2709839D01*
D02*
G37*
%LPD*%
%TF.MD5,b1e0f8bbbd44abd5e9606011f112885b*%
M02*
