%TF.GenerationSoftware,Altium Limited,Altium Designer,20.0.10 (225)*%
G04 Layer_Color=16711935*
%FSLAX26Y26*%
%MOIN*%
%TF.FileFunction,Soldermask,Bot*%
%TF.Part,Single*%
G01*
G75*
%TA.AperFunction,ConnectorPad*%
%ADD13R,0.196850X0.062992*%
%TA.AperFunction,SMDPad,CuDef*%
%ADD15R,0.196850X0.062992*%
%TA.AperFunction,ViaPad*%
%ADD20C,0.058000*%
D13*
X3001575Y1656236D02*
D03*
Y1438126D02*
D03*
D15*
X1755000Y1431890D02*
D03*
Y1650000D02*
D03*
D20*
X2870000Y1225000D02*
D03*
X2850000Y1715000D02*
D03*
X2835000Y1645000D02*
D03*
X2755000D02*
D03*
X1855000Y1345000D02*
D03*
X1920000Y1710000D02*
D03*
X1845000Y1745000D02*
D03*
X1942846Y1639741D02*
D03*
X1915000Y1445000D02*
D03*
X1970000Y1425000D02*
D03*
X2195000Y1345000D02*
D03*
X1970000Y1360000D02*
D03*
X1975000Y1285000D02*
D03*
X2200000Y1275000D02*
D03*
X2670000Y1340000D02*
D03*
X2858374Y1309542D02*
D03*
Y1389070D02*
D03*
X2409228Y1631158D02*
D03*
X2330036Y1638452D02*
D03*
X2277523Y1462730D02*
D03*
X2356818Y1468810D02*
D03*
X2436013Y1461548D02*
D03*
X2110000Y1655000D02*
D03*
X2025000Y1650000D02*
D03*
X2200000Y1405000D02*
D03*
X2198486Y1461548D02*
D03*
X2232641Y1637249D02*
D03*
X2672015Y1638906D02*
D03*
X2592488D02*
D03*
X2514392Y1623884D02*
D03*
X2511679Y1480037D02*
D03*
X2589028Y1461548D02*
D03*
X2668553Y1462157D02*
D03*
X2665000Y1405000D02*
D03*
%TF.MD5,e88cc7f100a1da1db2194974321f8279*%
M02*
