%TF.GenerationSoftware,Altium Limited,Altium Designer,20.0.10 (225)*%
G04 Layer_Color=32768*
%FSLAX26Y26*%
%MOIN*%
%TF.FileFunction,Other,Top_Courtyard*%
%TF.Part,Single*%
G01*
G75*
%TA.AperFunction,NonConductor*%
%ADD19C,0.007874*%
%ADD22C,0.003937*%
%ADD24C,0.001968*%
D19*
X3525787Y4289197D02*
Y4593528D01*
X2930906Y4289197D02*
X3525787D01*
X2930906D02*
Y4593528D01*
X3525787D01*
X1297047Y4289197D02*
Y4593528D01*
X1891929D01*
Y4289197D02*
Y4593528D01*
X1297047Y4289197D02*
X1891929D01*
D22*
X2750315Y4380276D02*
X2789685D01*
X2770000Y4360591D02*
Y4399961D01*
X2750315Y4194366D02*
X2789685D01*
X2770000Y4174681D02*
Y4214051D01*
X2750315Y4009366D02*
X2789685D01*
X2770000Y3989681D02*
Y4029051D01*
X2049055Y4009366D02*
X2088425D01*
X2068740Y3989681D02*
Y4029051D01*
X2049055Y4194366D02*
X2088425D01*
X2068740Y4174681D02*
Y4214051D01*
X2049055Y4380276D02*
X2088425D01*
X2068740Y4360591D02*
Y4399961D01*
X2480315Y4409681D02*
Y4449051D01*
X2460630Y4429366D02*
X2500000D01*
X2283465Y4409681D02*
Y4449051D01*
X2263780Y4429366D02*
X2303150D01*
D24*
X2832992Y4289725D02*
Y4470827D01*
X2707008Y4289725D02*
Y4470827D01*
X2832992D01*
X2707008Y4289725D02*
X2832992D01*
Y4103815D02*
Y4284917D01*
X2707008Y4103815D02*
Y4284917D01*
X2832992D01*
X2707008Y4103815D02*
X2832992D01*
Y3918815D02*
Y4099917D01*
X2707008Y3918815D02*
Y4099917D01*
X2832992D01*
X2707008Y3918815D02*
X2832992D01*
X2131732D02*
Y4099917D01*
X2005748Y3918815D02*
Y4099917D01*
X2131732D01*
X2005748Y3918815D02*
X2131732D01*
Y4103815D02*
Y4284917D01*
X2005748Y4103815D02*
Y4284917D01*
X2131732D01*
X2005748Y4103815D02*
X2131732D01*
Y4289725D02*
Y4470827D01*
X2005748Y4289725D02*
Y4470827D01*
X2131732D01*
X2005748Y4289725D02*
X2131732D01*
X2389764Y4366374D02*
X2570866D01*
X2389764Y4492358D02*
X2570866D01*
Y4366374D02*
Y4492358D01*
X2389764Y4366374D02*
Y4492358D01*
X2192913Y4366374D02*
X2374016D01*
X2192913Y4492358D02*
X2374016D01*
Y4366374D02*
Y4492358D01*
X2192913Y4366374D02*
Y4492358D01*
%TF.MD5,bbb30bdb68e2862d7a2edb5f62f4bae9*%
M02*
