%TF.GenerationSoftware,Altium Limited,Altium Designer,20.0.10 (225)*%
G04 Layer_Color=16711935*
%FSLAX26Y26*%
%MOIN*%
%TF.FileFunction,Other,Top_3D_Body*%
%TF.Part,Single*%
G01*
G75*
%TA.AperFunction,NonConductor*%
%ADD19C,0.007874*%
%ADD22C,0.003937*%
D19*
X3514173Y4316362D02*
Y4566362D01*
X3139370Y4316362D02*
X3514173D01*
X3139370D02*
Y4566362D01*
X3514173D01*
X3139370Y4289197D02*
Y4593528D01*
X1308661Y4316362D02*
Y4566362D01*
X1683465D01*
Y4316362D02*
Y4566362D01*
X1308661Y4316362D02*
X1683465D01*
Y4289197D02*
Y4593528D01*
D22*
X2823150Y4313346D02*
Y4447205D01*
X2716850Y4313346D02*
Y4447205D01*
X2823150D01*
X2716850Y4313346D02*
X2823150D01*
Y4127437D02*
Y4261295D01*
X2716850Y4127437D02*
Y4261295D01*
X2823150D01*
X2716850Y4127437D02*
X2823150D01*
Y3942437D02*
Y4076295D01*
X2716850Y3942437D02*
Y4076295D01*
X2823150D01*
X2716850Y3942437D02*
X2823150D01*
X2121890D02*
Y4076295D01*
X2015591Y3942437D02*
Y4076295D01*
X2121890D01*
X2015591Y3942437D02*
X2121890D01*
Y4127437D02*
Y4261295D01*
X2015591Y4127437D02*
Y4261295D01*
X2121890D01*
X2015591Y4127437D02*
X2121890D01*
Y4313346D02*
Y4447205D01*
X2015591Y4313346D02*
Y4447205D01*
X2121890D01*
X2015591Y4313346D02*
X2121890D01*
X2413386Y4376217D02*
X2547244D01*
X2413386Y4482516D02*
X2547244D01*
Y4376217D02*
Y4482516D01*
X2413386Y4376217D02*
Y4482516D01*
X2216535Y4376217D02*
X2350394D01*
X2216535Y4482516D02*
X2350394D01*
Y4376217D02*
Y4482516D01*
X2216535Y4376217D02*
Y4482516D01*
%TF.MD5,62626e5587b46433f5c8c0200552274c*%
M02*
