%TF.GenerationSoftware,Altium Limited,Altium Designer,20.0.10 (225)*%
G04 Layer_Color=16711935*
%FSLAX26Y26*%
%MOIN*%
%TF.FileFunction,Other,Top_Assembly*%
%TF.Part,Single*%
G01*
G75*
%TA.AperFunction,NonConductor*%
%ADD22C,0.007874*%
G36*
X3196970Y1544160D02*
X3196933D01*
X3196860D01*
X3196715D01*
X3196496Y1544124D01*
X3196278Y1544087D01*
X3196023D01*
X3195404Y1543978D01*
X3194749Y1543869D01*
X3194094Y1543650D01*
X3193512Y1543432D01*
X3193257Y1543286D01*
X3193038Y1543104D01*
X3193002Y1543068D01*
X3192893Y1542922D01*
X3192711Y1542704D01*
X3192529Y1542413D01*
X3192310Y1542013D01*
X3192165Y1541576D01*
X3192019Y1541030D01*
X3191983Y1540447D01*
Y1540229D01*
X3192019Y1540011D01*
X3192055Y1539683D01*
X3192128Y1539355D01*
X3192201Y1538991D01*
X3192347Y1538627D01*
X3192529Y1538263D01*
X3192565Y1538227D01*
X3192638Y1538118D01*
X3192784Y1537972D01*
X3192929Y1537754D01*
X3193184Y1537572D01*
X3193439Y1537353D01*
X3193730Y1537171D01*
X3194094Y1537026D01*
X3194130D01*
X3194276Y1536953D01*
X3194531Y1536917D01*
X3194858Y1536844D01*
X3195295Y1536771D01*
X3195841Y1536735D01*
X3196496Y1536662D01*
X3197261D01*
X3214624D01*
Y1533313D01*
X3197443D01*
X3197406D01*
X3197297D01*
X3197151D01*
X3196933D01*
X3196642Y1533349D01*
X3196351D01*
X3195659Y1533422D01*
X3194858Y1533495D01*
X3194021Y1533640D01*
X3193257Y1533859D01*
X3192529Y1534114D01*
X3192492D01*
X3192456Y1534150D01*
X3192238Y1534259D01*
X3191946Y1534441D01*
X3191546Y1534696D01*
X3191146Y1535060D01*
X3190709Y1535460D01*
X3190272Y1535970D01*
X3189908Y1536553D01*
X3189872Y1536625D01*
X3189762Y1536844D01*
X3189617Y1537171D01*
X3189471Y1537645D01*
X3189289Y1538227D01*
X3189144Y1538882D01*
X3189034Y1539610D01*
X3188998Y1540411D01*
Y1540738D01*
X3189034Y1540957D01*
X3189071Y1541248D01*
X3189107Y1541539D01*
X3189253Y1542304D01*
X3189471Y1543104D01*
X3189799Y1543942D01*
X3190017Y1544379D01*
X3190272Y1544779D01*
X3190563Y1545143D01*
X3190891Y1545507D01*
X3190927Y1545543D01*
X3190963Y1545580D01*
X3191109Y1545652D01*
X3191255Y1545762D01*
X3191437Y1545907D01*
X3191691Y1546053D01*
X3191983Y1546198D01*
X3192310Y1546380D01*
X3192674Y1546526D01*
X3193111Y1546672D01*
X3193548Y1546817D01*
X3194057Y1546963D01*
X3194604Y1547036D01*
X3195222Y1547145D01*
X3195841Y1547181D01*
X3196533D01*
X3196970Y1544160D01*
D02*
G37*
G36*
X3208399Y1526725D02*
X3208472Y1526652D01*
X3208508Y1526506D01*
X3208617Y1526324D01*
X3208727Y1526106D01*
X3208872Y1525851D01*
X3209236Y1525232D01*
X3209637Y1524504D01*
X3210146Y1523776D01*
X3210729Y1523012D01*
X3211347Y1522247D01*
X3211384Y1522211D01*
X3211420Y1522175D01*
X3211530Y1522065D01*
X3211639Y1521920D01*
X3212003Y1521592D01*
X3212439Y1521155D01*
X3212949Y1520718D01*
X3213532Y1520245D01*
X3214114Y1519845D01*
X3214733Y1519481D01*
Y1517479D01*
X3189435D01*
Y1520573D01*
X3209127D01*
X3209091Y1520609D01*
X3208945Y1520791D01*
X3208727Y1521010D01*
X3208472Y1521374D01*
X3208144Y1521774D01*
X3207780Y1522284D01*
X3207380Y1522866D01*
X3206979Y1523521D01*
Y1523558D01*
X3206943Y1523594D01*
X3206798Y1523812D01*
X3206615Y1524177D01*
X3206397Y1524613D01*
X3206142Y1525123D01*
X3205887Y1525669D01*
X3205633Y1526215D01*
X3205414Y1526761D01*
X3208399D01*
Y1526725D01*
D02*
G37*
G36*
X3190126Y1509944D02*
X3190454Y1509908D01*
X3190818Y1509835D01*
X3191182Y1509762D01*
X3191582Y1509617D01*
X3191619D01*
X3191655Y1509580D01*
X3191874Y1509507D01*
X3192201Y1509362D01*
X3192638Y1509143D01*
X3193148Y1508852D01*
X3193730Y1508488D01*
X3194312Y1508088D01*
X3194931Y1507578D01*
X3194968D01*
X3195004Y1507505D01*
X3195222Y1507323D01*
X3195550Y1506996D01*
X3196023Y1506523D01*
X3196569Y1505976D01*
X3197224Y1505285D01*
X3197952Y1504448D01*
X3198717Y1503538D01*
X3198753Y1503501D01*
X3198862Y1503356D01*
X3199044Y1503137D01*
X3199263Y1502882D01*
X3199554Y1502555D01*
X3199881Y1502155D01*
X3200245Y1501754D01*
X3200646Y1501281D01*
X3201519Y1500371D01*
X3202393Y1499461D01*
X3202830Y1499024D01*
X3203267Y1498624D01*
X3203667Y1498260D01*
X3204068Y1497968D01*
X3204104D01*
X3204140Y1497896D01*
X3204249Y1497823D01*
X3204395Y1497750D01*
X3204796Y1497495D01*
X3205269Y1497204D01*
X3205851Y1496949D01*
X3206470Y1496695D01*
X3207162Y1496549D01*
X3207817Y1496476D01*
X3207853D01*
X3207890D01*
X3208108Y1496513D01*
X3208472Y1496549D01*
X3208872Y1496658D01*
X3209382Y1496804D01*
X3209892Y1497059D01*
X3210401Y1497386D01*
X3210911Y1497823D01*
X3210983Y1497896D01*
X3211129Y1498078D01*
X3211311Y1498332D01*
X3211566Y1498733D01*
X3211784Y1499243D01*
X3212003Y1499825D01*
X3212148Y1500516D01*
X3212185Y1501281D01*
Y1501499D01*
X3212148Y1501645D01*
X3212112Y1502082D01*
X3212003Y1502591D01*
X3211857Y1503137D01*
X3211602Y1503756D01*
X3211275Y1504339D01*
X3210838Y1504884D01*
X3210765Y1504957D01*
X3210583Y1505103D01*
X3210292Y1505321D01*
X3209855Y1505540D01*
X3209345Y1505794D01*
X3208690Y1506013D01*
X3207962Y1506159D01*
X3207125Y1506231D01*
X3207453Y1509398D01*
X3207489D01*
X3207598Y1509362D01*
X3207780D01*
X3208035Y1509325D01*
X3208326Y1509253D01*
X3208654Y1509180D01*
X3209054Y1509071D01*
X3209455Y1508961D01*
X3210328Y1508670D01*
X3211202Y1508233D01*
X3211639Y1507978D01*
X3212075Y1507651D01*
X3212476Y1507323D01*
X3212840Y1506959D01*
X3212876Y1506923D01*
X3212913Y1506850D01*
X3213022Y1506741D01*
X3213131Y1506559D01*
X3213277Y1506341D01*
X3213422Y1506086D01*
X3213604Y1505794D01*
X3213786Y1505430D01*
X3213968Y1505030D01*
X3214150Y1504593D01*
X3214296Y1504120D01*
X3214441Y1503611D01*
X3214551Y1503064D01*
X3214660Y1502482D01*
X3214696Y1501863D01*
X3214733Y1501208D01*
Y1500844D01*
X3214696Y1500589D01*
X3214660Y1500298D01*
X3214624Y1499934D01*
X3214551Y1499534D01*
X3214478Y1499133D01*
X3214223Y1498187D01*
X3213859Y1497241D01*
X3213641Y1496767D01*
X3213386Y1496294D01*
X3213058Y1495857D01*
X3212694Y1495457D01*
X3212658Y1495420D01*
X3212622Y1495348D01*
X3212476Y1495275D01*
X3212330Y1495129D01*
X3212148Y1494947D01*
X3211894Y1494765D01*
X3211639Y1494583D01*
X3211311Y1494365D01*
X3210619Y1494001D01*
X3209746Y1493637D01*
X3209309Y1493491D01*
X3208800Y1493418D01*
X3208290Y1493346D01*
X3207744Y1493309D01*
X3207671D01*
X3207489D01*
X3207198Y1493346D01*
X3206798Y1493382D01*
X3206361Y1493455D01*
X3205851Y1493601D01*
X3205305Y1493746D01*
X3204759Y1493965D01*
X3204686Y1494001D01*
X3204504Y1494074D01*
X3204213Y1494219D01*
X3203813Y1494438D01*
X3203376Y1494729D01*
X3202830Y1495093D01*
X3202284Y1495530D01*
X3201665Y1496039D01*
X3201592Y1496112D01*
X3201374Y1496294D01*
X3201192Y1496476D01*
X3201010Y1496658D01*
X3200791Y1496877D01*
X3200500Y1497168D01*
X3200209Y1497459D01*
X3199881Y1497823D01*
X3199517Y1498187D01*
X3199117Y1498624D01*
X3198717Y1499097D01*
X3198244Y1499607D01*
X3197770Y1500189D01*
X3197261Y1500771D01*
X3197224Y1500808D01*
X3197151Y1500880D01*
X3197042Y1501026D01*
X3196897Y1501208D01*
X3196678Y1501427D01*
X3196460Y1501681D01*
X3195987Y1502264D01*
X3195441Y1502882D01*
X3194895Y1503465D01*
X3194421Y1503975D01*
X3194240Y1504193D01*
X3194057Y1504375D01*
X3194021Y1504411D01*
X3193912Y1504521D01*
X3193766Y1504666D01*
X3193548Y1504848D01*
X3193293Y1505030D01*
X3193038Y1505248D01*
X3192419Y1505685D01*
Y1493273D01*
X3189435D01*
Y1509980D01*
X3189471D01*
X3189617D01*
X3189835D01*
X3190126Y1509944D01*
D02*
G37*
G36*
X1567140Y1587136D02*
X1547448D01*
X1547484Y1587100D01*
X1547630Y1586918D01*
X1547848Y1586699D01*
X1548103Y1586335D01*
X1548430Y1585935D01*
X1548794Y1585425D01*
X1549195Y1584843D01*
X1549595Y1584188D01*
Y1584151D01*
X1549632Y1584115D01*
X1549777Y1583896D01*
X1549959Y1583532D01*
X1550178Y1583095D01*
X1550432Y1582586D01*
X1550687Y1582040D01*
X1550942Y1581494D01*
X1551160Y1580948D01*
X1548176D01*
Y1580984D01*
X1548103Y1581057D01*
X1548066Y1581203D01*
X1547957Y1581385D01*
X1547848Y1581603D01*
X1547702Y1581858D01*
X1547338Y1582477D01*
X1546938Y1583205D01*
X1546428Y1583933D01*
X1545846Y1584697D01*
X1545227Y1585461D01*
X1545191Y1585498D01*
X1545154Y1585534D01*
X1545045Y1585643D01*
X1544936Y1585789D01*
X1544572Y1586117D01*
X1544135Y1586553D01*
X1543626Y1586990D01*
X1543043Y1587464D01*
X1542461Y1587864D01*
X1541842Y1588228D01*
Y1590230D01*
X1567140D01*
Y1587136D01*
D02*
G37*
G36*
Y1567553D02*
X1547448D01*
X1547484Y1567516D01*
X1547630Y1567334D01*
X1547848Y1567116D01*
X1548103Y1566752D01*
X1548430Y1566351D01*
X1548794Y1565842D01*
X1549195Y1565259D01*
X1549595Y1564604D01*
Y1564568D01*
X1549632Y1564532D01*
X1549777Y1564313D01*
X1549959Y1563949D01*
X1550178Y1563512D01*
X1550432Y1563003D01*
X1550687Y1562457D01*
X1550942Y1561911D01*
X1551160Y1561365D01*
X1548176D01*
Y1561401D01*
X1548103Y1561474D01*
X1548066Y1561620D01*
X1547957Y1561802D01*
X1547848Y1562020D01*
X1547702Y1562275D01*
X1547338Y1562893D01*
X1546938Y1563621D01*
X1546428Y1564350D01*
X1545846Y1565114D01*
X1545227Y1565878D01*
X1545191Y1565915D01*
X1545154Y1565951D01*
X1545045Y1566060D01*
X1544936Y1566206D01*
X1544572Y1566534D01*
X1544135Y1566970D01*
X1543626Y1567407D01*
X1543043Y1567880D01*
X1542461Y1568281D01*
X1541842Y1568645D01*
Y1570647D01*
X1567140D01*
Y1567553D01*
D02*
G37*
G36*
X1559933Y1554776D02*
X1560224D01*
X1560916Y1554704D01*
X1561716Y1554631D01*
X1562554Y1554485D01*
X1563318Y1554267D01*
X1564046Y1554012D01*
X1564082D01*
X1564119Y1553976D01*
X1564337Y1553866D01*
X1564628Y1553684D01*
X1565029Y1553429D01*
X1565429Y1553065D01*
X1565866Y1552665D01*
X1566303Y1552156D01*
X1566667Y1551573D01*
X1566703Y1551500D01*
X1566812Y1551282D01*
X1566958Y1550954D01*
X1567104Y1550481D01*
X1567286Y1549899D01*
X1567431Y1549244D01*
X1567540Y1548515D01*
X1567577Y1547715D01*
Y1547387D01*
X1567540Y1547169D01*
X1567504Y1546878D01*
X1567468Y1546586D01*
X1567322Y1545822D01*
X1567104Y1545021D01*
X1566776Y1544184D01*
X1566558Y1543747D01*
X1566303Y1543347D01*
X1566012Y1542983D01*
X1565684Y1542619D01*
X1565648Y1542582D01*
X1565611Y1542546D01*
X1565466Y1542473D01*
X1565320Y1542364D01*
X1565138Y1542218D01*
X1564883Y1542073D01*
X1564592Y1541927D01*
X1564264Y1541745D01*
X1563900Y1541600D01*
X1563464Y1541454D01*
X1563027Y1541308D01*
X1562517Y1541163D01*
X1561971Y1541090D01*
X1561352Y1540981D01*
X1560734Y1540944D01*
X1560042D01*
X1559605Y1543966D01*
X1559642D01*
X1559714D01*
X1559860D01*
X1560078Y1544002D01*
X1560297Y1544038D01*
X1560552D01*
X1561170Y1544148D01*
X1561826Y1544257D01*
X1562481Y1544475D01*
X1563063Y1544694D01*
X1563318Y1544839D01*
X1563536Y1545021D01*
X1563573Y1545057D01*
X1563682Y1545203D01*
X1563864Y1545421D01*
X1564046Y1545713D01*
X1564264Y1546113D01*
X1564410Y1546550D01*
X1564556Y1547096D01*
X1564592Y1547678D01*
Y1547897D01*
X1564556Y1548115D01*
X1564519Y1548443D01*
X1564446Y1548770D01*
X1564374Y1549134D01*
X1564228Y1549498D01*
X1564046Y1549862D01*
X1564010Y1549899D01*
X1563937Y1550008D01*
X1563791Y1550153D01*
X1563646Y1550372D01*
X1563391Y1550554D01*
X1563136Y1550772D01*
X1562845Y1550954D01*
X1562481Y1551100D01*
X1562444D01*
X1562299Y1551173D01*
X1562044Y1551209D01*
X1561716Y1551282D01*
X1561280Y1551355D01*
X1560734Y1551391D01*
X1560078Y1551464D01*
X1559314D01*
X1541951D01*
Y1554813D01*
X1559132D01*
X1559168D01*
X1559278D01*
X1559423D01*
X1559642D01*
X1559933Y1554776D01*
D02*
G37*
D22*
X3486417Y1395016D02*
Y1699346D01*
X2891535Y1395016D02*
X3486417D01*
X2891535D02*
Y1699346D01*
X3486417D01*
X1270158Y1388780D02*
Y1693110D01*
X1865039D01*
Y1388780D02*
Y1693110D01*
X1270158Y1388780D02*
X1865039D01*
%TF.MD5,477b2f1de00d1ee0a63dffe9562ddad6*%
M02*
