%TF.GenerationSoftware,Altium Limited,Altium Designer,20.0.10 (225)*%
G04 Layer_Color=16711935*
%FSLAX26Y26*%
%MOIN*%
%TF.FileFunction,Soldermask,Bot*%
%TF.Part,Single*%
G01*
G75*
G36*
X4483873Y2922731D02*
X4489778Y2921419D01*
X4494371Y2919450D01*
X4498963Y2917482D01*
X4502244Y2914858D01*
X4504868Y2912890D01*
X4506181Y2911577D01*
X4506837Y2910921D01*
X4510773Y2906329D01*
X4513398Y2901736D01*
X4516022Y2897143D01*
X4517334Y2892550D01*
X4517990Y2888614D01*
X4518646Y2885333D01*
Y2883365D01*
Y2882709D01*
X4517990Y2876804D01*
X4516678Y2872211D01*
X4515366Y2867619D01*
X4513398Y2863682D01*
X4511429Y2860401D01*
X4509461Y2857777D01*
X4508805Y2856465D01*
X4508149Y2855809D01*
X4503556Y2851872D01*
X4498963Y2849248D01*
X4494371Y2847280D01*
X4490434Y2845967D01*
X4486498Y2845311D01*
X4483217Y2844655D01*
X4480593D01*
X4473376Y2845311D01*
X4467471Y2846623D01*
X4462222Y2848592D01*
X4457629Y2851216D01*
X4453693Y2853840D01*
X4450412Y2857121D01*
X4445819Y2864994D01*
X4442539Y2872211D01*
X4441227Y2878772D01*
X4440571Y2880741D01*
Y2882709D01*
Y2884021D01*
Y2884677D01*
X4441227Y2890582D01*
X4441883Y2896487D01*
X4443851Y2901080D01*
X4445819Y2905016D01*
X4447788Y2908297D01*
X4449100Y2910265D01*
X4450412Y2911577D01*
X4451068Y2912233D01*
X4455005Y2916170D01*
X4459597Y2918794D01*
X4464190Y2920763D01*
X4468127Y2922075D01*
X4472063Y2922731D01*
X4475344Y2923387D01*
X4477968D01*
X4483873Y2922731D01*
D02*
G37*
G36*
X4291636Y2826284D02*
X4302790Y2824972D01*
X4312631Y2822348D01*
X4321160Y2819723D01*
X4328377Y2817099D01*
X4332970Y2814474D01*
X4336251Y2813162D01*
X4337563Y2812506D01*
X4345436Y2807257D01*
X4351341Y2801352D01*
X4355934Y2796104D01*
X4358558Y2790855D01*
X4360526Y2786918D01*
X4361182Y2783638D01*
X4361839Y2781013D01*
Y2780357D01*
X4361183Y2776421D01*
X4360526Y2772484D01*
X4357902Y2766579D01*
X4356590Y2763955D01*
X4355278Y2761986D01*
X4353966Y2761330D01*
Y2760674D01*
X4350685Y2758050D01*
X4347404Y2756082D01*
X4341500Y2754113D01*
X4338875Y2753457D01*
X4336907Y2752801D01*
X4334939D01*
X4332314Y2753457D01*
X4328378Y2754113D01*
X4320504Y2757394D01*
X4317224Y2759362D01*
X4313943Y2760674D01*
X4311975Y2761330D01*
X4311319Y2761986D01*
X4304758Y2765267D01*
X4298853Y2767235D01*
X4293604Y2769204D01*
X4289012Y2769860D01*
X4285075Y2770516D01*
X4282451Y2771172D01*
X4279826D01*
X4268672Y2770516D01*
X4258831Y2767235D01*
X4249646Y2763299D01*
X4242428Y2757394D01*
X4235868Y2750833D01*
X4229963Y2742960D01*
X4225370Y2735086D01*
X4222089Y2727213D01*
X4218809Y2718684D01*
X4216185Y2710811D01*
X4214872Y2702938D01*
X4213560Y2696376D01*
X4212248Y2690472D01*
X4211592Y2686535D01*
Y2683911D01*
Y2682598D01*
X4220777Y2691784D01*
X4231275Y2698345D01*
X4241772Y2703594D01*
X4252926Y2706874D01*
X4262768Y2708842D01*
X4270641Y2709499D01*
X4273265Y2710155D01*
X4287043D01*
X4295573Y2708842D01*
X4311975Y2705562D01*
X4325753Y2700313D01*
X4337563Y2695064D01*
X4346748Y2689159D01*
X4350685Y2686535D01*
X4353309Y2683911D01*
X4355934Y2681942D01*
X4357902Y2680630D01*
X4358558Y2679974D01*
X4359214Y2679318D01*
X4364463Y2673413D01*
X4369056Y2666852D01*
X4376929Y2653730D01*
X4382178Y2639952D01*
X4385458Y2626830D01*
X4388083Y2615020D01*
X4388739Y2610427D01*
Y2605835D01*
X4389395Y2602554D01*
Y2599274D01*
Y2597961D01*
Y2597305D01*
X4388739Y2588120D01*
X4388083Y2578935D01*
X4384802Y2563188D01*
X4380209Y2549410D01*
X4374961Y2538256D01*
X4370368Y2529071D01*
X4365775Y2522510D01*
X4363807Y2520542D01*
X4362495Y2518573D01*
X4361183Y2517917D01*
Y2517261D01*
X4355934Y2512012D01*
X4349373Y2508076D01*
X4336907Y2500859D01*
X4323785Y2496266D01*
X4311319Y2492329D01*
X4300165Y2490361D01*
X4294917Y2489705D01*
X4290980D01*
X4287043Y2489049D01*
X4282451D01*
X4271953Y2489705D01*
X4262768Y2491017D01*
X4254894Y2493642D01*
X4247677Y2496266D01*
X4241772Y2498234D01*
X4237836Y2500859D01*
X4235211Y2502171D01*
Y2501515D01*
Y2500859D01*
Y2495610D01*
X4233899Y2491673D01*
X4231275Y2484456D01*
X4227338Y2479207D01*
X4222089Y2475927D01*
X4217497Y2473302D01*
X4213560Y2472646D01*
X4210936Y2471990D01*
X4209623D01*
X4205031Y2472646D01*
X4201094Y2473959D01*
X4197814Y2475927D01*
X4193877Y2478551D01*
X4187972Y2485112D01*
X4183380Y2492985D01*
X4179443Y2500203D01*
X4176819Y2506764D01*
X4176162Y2509388D01*
X4175506Y2511356D01*
X4174850Y2512669D01*
Y2513325D01*
X4168289Y2541537D01*
X4163040Y2567781D01*
X4161072Y2580247D01*
X4159760Y2592057D01*
X4157792Y2603210D01*
X4157136Y2613708D01*
X4156479Y2623549D01*
X4155823Y2632079D01*
X4155167Y2639296D01*
X4154511Y2645857D01*
Y2651106D01*
Y2654386D01*
Y2657010D01*
Y2657667D01*
X4155167Y2672757D01*
X4155823Y2687191D01*
X4157792Y2700969D01*
X4159760Y2713435D01*
X4163040Y2725245D01*
X4166321Y2736399D01*
X4169601Y2746240D01*
X4174194Y2755425D01*
X4178787Y2763955D01*
X4183380Y2771828D01*
X4188628Y2779045D01*
X4193877Y2785606D01*
X4205687Y2796760D01*
X4216841Y2805945D01*
X4228650Y2812506D01*
X4240460Y2817755D01*
X4250958Y2821692D01*
X4260143Y2824316D01*
X4268016Y2825628D01*
X4274577Y2826940D01*
X4279826D01*
X4291636Y2826284D01*
D02*
G37*
G36*
X3770693Y2826284D02*
X3781846Y2824972D01*
X3791688Y2822348D01*
X3800217Y2819723D01*
X3807434Y2817099D01*
X3812027Y2814474D01*
X3815307Y2813162D01*
X3816619Y2812506D01*
X3824493Y2807257D01*
X3830398Y2801352D01*
X3834990Y2796104D01*
X3837615Y2790855D01*
X3839583Y2786918D01*
X3840239Y2783638D01*
X3840895Y2781013D01*
Y2780357D01*
X3840239Y2776421D01*
X3839583Y2772484D01*
X3836959Y2766579D01*
X3835646Y2763955D01*
X3834334Y2761986D01*
X3833022Y2761330D01*
Y2760674D01*
X3829742Y2758050D01*
X3826461Y2756081D01*
X3820556Y2754113D01*
X3817932Y2753457D01*
X3815963Y2752801D01*
X3813995D01*
X3811371Y2753457D01*
X3807434Y2754113D01*
X3799561Y2757394D01*
X3796280Y2759362D01*
X3793000Y2760674D01*
X3791032Y2761330D01*
X3790376Y2761986D01*
X3783815Y2765267D01*
X3777910Y2767235D01*
X3772661Y2769204D01*
X3768068Y2769860D01*
X3764132Y2770516D01*
X3761507Y2771172D01*
X3758883D01*
X3747729Y2770516D01*
X3737888Y2767235D01*
X3728702Y2763299D01*
X3721485Y2757394D01*
X3714924Y2750833D01*
X3709019Y2742959D01*
X3704427Y2735086D01*
X3701146Y2727213D01*
X3697865Y2718684D01*
X3695241Y2710811D01*
X3693929Y2702937D01*
X3692617Y2696376D01*
X3691305Y2690472D01*
X3690648Y2686535D01*
Y2683910D01*
Y2682598D01*
X3699834Y2691784D01*
X3710331Y2698345D01*
X3720829Y2703593D01*
X3731983Y2706874D01*
X3741824Y2708842D01*
X3749697Y2709498D01*
X3752322Y2710155D01*
X3766100D01*
X3774629Y2708842D01*
X3791032Y2705562D01*
X3804810Y2700313D01*
X3816620Y2695064D01*
X3825805Y2689159D01*
X3829742Y2686535D01*
X3832366Y2683910D01*
X3834990Y2681942D01*
X3836959Y2680630D01*
X3837615Y2679974D01*
X3838271Y2679318D01*
X3843520Y2673413D01*
X3848112Y2666852D01*
X3855986Y2653730D01*
X3861234Y2639952D01*
X3864515Y2626830D01*
X3867139Y2615020D01*
X3867795Y2610427D01*
Y2605835D01*
X3868452Y2602554D01*
Y2599274D01*
Y2597961D01*
Y2597305D01*
X3867795Y2588120D01*
X3867139Y2578934D01*
X3863859Y2563188D01*
X3859266Y2549410D01*
X3854017Y2538256D01*
X3849425Y2529071D01*
X3844832Y2522510D01*
X3842864Y2520542D01*
X3841551Y2518573D01*
X3840239Y2517917D01*
Y2517261D01*
X3834990Y2512012D01*
X3828429Y2508076D01*
X3815963Y2500859D01*
X3802841Y2496266D01*
X3790376Y2492329D01*
X3779222Y2490361D01*
X3773973Y2489705D01*
X3770037D01*
X3766100Y2489049D01*
X3761507D01*
X3751010Y2489705D01*
X3741824Y2491017D01*
X3733951Y2493642D01*
X3726734Y2496266D01*
X3720829Y2498234D01*
X3716892Y2500859D01*
X3714268Y2502171D01*
Y2501515D01*
Y2500859D01*
Y2495610D01*
X3712956Y2491673D01*
X3710331Y2484456D01*
X3706395Y2479207D01*
X3701146Y2475927D01*
X3696553Y2473302D01*
X3692617Y2472646D01*
X3689992Y2471990D01*
X3688680D01*
X3684087Y2472646D01*
X3680151Y2473959D01*
X3676870Y2475927D01*
X3672934Y2478551D01*
X3667029Y2485112D01*
X3662436Y2492985D01*
X3658499Y2500202D01*
X3655875Y2506764D01*
X3655219Y2509388D01*
X3654563Y2511356D01*
X3653907Y2512668D01*
Y2513325D01*
X3647346Y2541537D01*
X3642097Y2567781D01*
X3640129Y2580247D01*
X3638816Y2592057D01*
X3636848Y2603210D01*
X3636192Y2613708D01*
X3635536Y2623549D01*
X3634880Y2632079D01*
X3634224Y2639296D01*
X3633568Y2645857D01*
Y2651106D01*
Y2654386D01*
Y2657010D01*
Y2657666D01*
X3634224Y2672757D01*
X3634880Y2687191D01*
X3636848Y2700969D01*
X3638816Y2713435D01*
X3642097Y2725245D01*
X3645378Y2736398D01*
X3648658Y2746240D01*
X3653251Y2755425D01*
X3657843Y2763955D01*
X3662436Y2771828D01*
X3667685Y2779045D01*
X3672934Y2785606D01*
X3684743Y2796760D01*
X3695897Y2805945D01*
X3707707Y2812506D01*
X3719517Y2817755D01*
X3730014Y2821691D01*
X3739200Y2824316D01*
X3747073Y2825628D01*
X3753634Y2826940D01*
X3758883D01*
X3770693Y2826284D01*
D02*
G37*
G36*
X4077747Y2815131D02*
X4081684Y2814474D01*
X4088245Y2811850D01*
X4090869Y2809882D01*
X4092838Y2808570D01*
X4093494Y2807913D01*
X4094150Y2807257D01*
X4097430Y2803977D01*
X4099399Y2800696D01*
X4102023Y2794791D01*
X4102679Y2792167D01*
X4103335Y2790855D01*
Y2789543D01*
Y2788887D01*
X4102679Y2785606D01*
X4102023Y2781669D01*
X4099399Y2774452D01*
X4098087Y2771172D01*
X4097430Y2769204D01*
X4096118Y2767235D01*
Y2766579D01*
X4091526Y2758706D01*
X4088245Y2752801D01*
X4086277Y2748864D01*
X4084308Y2745584D01*
X4082996Y2744272D01*
X4082340Y2742959D01*
Y2742303D01*
X4075779Y2725901D01*
X4071186Y2707530D01*
X4067250Y2689815D01*
X4065282Y2672101D01*
X4063969Y2664227D01*
Y2656354D01*
X4063313Y2649793D01*
X4062657Y2643888D01*
Y2639296D01*
Y2636015D01*
Y2633391D01*
Y2632735D01*
Y2623549D01*
X4063969Y2614364D01*
X4064625Y2605178D01*
X4065938Y2597305D01*
X4067250Y2590088D01*
X4068562Y2584183D01*
X4069218Y2580903D01*
X4069874Y2580247D01*
Y2579591D01*
X4071843Y2569749D01*
X4073811Y2562532D01*
X4075123Y2556627D01*
X4075779Y2552034D01*
Y2549410D01*
X4076435Y2547442D01*
Y2546130D01*
X4075123Y2536944D01*
X4071843Y2530383D01*
X4067906Y2525134D01*
X4062657Y2521854D01*
X4057408Y2519885D01*
X4053472Y2519229D01*
X4050191Y2518573D01*
X4048879D01*
X4044942Y2519229D01*
X4041662Y2519885D01*
X4035101Y2523822D01*
X4029852Y2529071D01*
X4024603Y2535632D01*
X4021323Y2541537D01*
X4018042Y2546786D01*
X4016730Y2550722D01*
X4016074Y2551378D01*
Y2552034D01*
X4012137Y2565156D01*
X4009513Y2579591D01*
X4006889Y2594681D01*
X4005576Y2608459D01*
X4004920Y2621581D01*
Y2626830D01*
X4004264Y2631423D01*
Y2635359D01*
Y2637983D01*
Y2639952D01*
Y2640608D01*
Y2673413D01*
X4003608Y2685223D01*
X4002296Y2695720D01*
X4000328Y2704906D01*
X3997703Y2712123D01*
X3995079Y2718028D01*
X3993110Y2722620D01*
X3991798Y2725245D01*
X3991142Y2725901D01*
X3985893Y2732462D01*
X3979988Y2737055D01*
X3974084Y2740991D01*
X3968835Y2742959D01*
X3963586Y2744272D01*
X3959649Y2745584D01*
X3956369D01*
X3953744Y2744928D01*
X3950464Y2744272D01*
X3943903Y2740991D01*
X3941279Y2739023D01*
X3939310Y2737711D01*
X3937998Y2737055D01*
X3937342Y2736398D01*
X3933405Y2733118D01*
X3929469Y2731150D01*
X3922908Y2728525D01*
X3918971Y2727213D01*
X3917659D01*
X3913722Y2727869D01*
X3910442Y2728525D01*
X3904537Y2731150D01*
X3901256Y2733774D01*
X3899944Y2735086D01*
X3897320Y2738367D01*
X3896008Y2741647D01*
X3893383Y2748208D01*
Y2750833D01*
X3892727Y2752801D01*
Y2754113D01*
Y2754769D01*
X3893383Y2761986D01*
X3895352Y2768547D01*
X3898632Y2773796D01*
X3901256Y2778389D01*
X3904537Y2782325D01*
X3907817Y2784950D01*
X3909786Y2786918D01*
X3910442Y2787574D01*
X3917003Y2792167D01*
X3924220Y2795448D01*
X3932093Y2797416D01*
X3938654Y2799384D01*
X3945215Y2800040D01*
X3949808Y2800696D01*
X3954401D01*
X3963586Y2800040D01*
X3972771Y2798728D01*
X3980644Y2796104D01*
X3987862Y2792823D01*
X3995079Y2789543D01*
X4000984Y2784950D01*
X4010825Y2776421D01*
X4018698Y2767235D01*
X4024603Y2759362D01*
X4025916Y2756081D01*
X4027228Y2753457D01*
X4028540Y2752145D01*
Y2751489D01*
X4031164Y2762642D01*
X4034445Y2772484D01*
X4038381Y2781013D01*
X4041662Y2788887D01*
X4045598Y2794791D01*
X4048879Y2800040D01*
X4052816Y2804633D01*
X4056752Y2807913D01*
X4060033Y2810538D01*
X4063313Y2812506D01*
X4068562Y2815131D01*
X4072499Y2815787D01*
X4073811D01*
X4077747Y2815131D01*
D02*
G37*
G36*
X4908370Y2914202D02*
X4912963Y2913546D01*
X4916899Y2911577D01*
X4919524Y2909609D01*
X4924116Y2904360D01*
X4926741Y2898455D01*
X4928053Y2892550D01*
Y2887302D01*
Y2883365D01*
Y2882709D01*
Y2882053D01*
Y2881397D01*
Y2879428D01*
Y2876804D01*
X4927397Y2872867D01*
Y2868931D01*
Y2863682D01*
X4926741Y2853184D01*
X4926085Y2842687D01*
Y2837438D01*
Y2833501D01*
X4925428Y2829565D01*
Y2826941D01*
Y2824972D01*
Y2824316D01*
X4924772Y2802665D01*
X4924116Y2782326D01*
X4923460Y2762643D01*
Y2754113D01*
X4922804Y2745584D01*
Y2737711D01*
Y2731150D01*
Y2725245D01*
Y2719996D01*
Y2716060D01*
Y2712779D01*
Y2710811D01*
Y2710155D01*
Y2689160D01*
X4923460Y2668820D01*
X4924773Y2649137D01*
X4926085Y2630110D01*
X4927397Y2612396D01*
X4929365Y2595337D01*
X4931333Y2579591D01*
X4933302Y2565157D01*
X4935270Y2551378D01*
X4937238Y2539569D01*
X4939207Y2529727D01*
X4940519Y2521198D01*
X4941831Y2513981D01*
X4943143Y2508732D01*
X4943799Y2506108D01*
Y2504795D01*
X4944456Y2502171D01*
X4945768Y2498890D01*
X4947736Y2491017D01*
X4949048Y2487081D01*
X4950360Y2483800D01*
X4951016Y2481176D01*
Y2480520D01*
X4952329Y2475271D01*
X4952985Y2470678D01*
X4953641Y2466742D01*
Y2463461D01*
X4954297Y2461493D01*
Y2459524D01*
Y2458868D01*
Y2458212D01*
X4953641Y2454276D01*
X4952985Y2450339D01*
X4950360Y2443778D01*
X4948392Y2439841D01*
X4947080Y2439185D01*
Y2438529D01*
X4944456Y2435905D01*
X4941175Y2433937D01*
X4935270Y2431312D01*
X4932646Y2430656D01*
X4930677Y2430000D01*
X4928709D01*
X4923460Y2430656D01*
X4918212Y2431968D01*
X4913619Y2434593D01*
X4909682Y2437873D01*
X4901809Y2446403D01*
X4895904Y2455588D01*
X4891311Y2464773D01*
X4888031Y2473303D01*
X4886719Y2476583D01*
X4886063Y2479207D01*
X4885407Y2480520D01*
Y2481176D01*
X4882782Y2491017D01*
X4880814Y2501515D01*
X4878189Y2513325D01*
X4876221Y2525791D01*
X4872941Y2551378D01*
X4869660Y2576966D01*
X4868348Y2588776D01*
X4867036Y2599930D01*
X4866380Y2609771D01*
X4865067Y2618957D01*
X4864411Y2626174D01*
Y2631423D01*
X4863755Y2634703D01*
Y2636015D01*
X4857194Y2639952D01*
X4850633Y2644545D01*
X4843416Y2649137D01*
X4836199Y2653730D01*
X4830294Y2657667D01*
X4825701Y2660947D01*
X4822421Y2663572D01*
X4821109Y2664228D01*
X4807331Y2657011D01*
X4794209Y2649137D01*
X4781087Y2639952D01*
X4768621Y2630767D01*
X4744345Y2611084D01*
X4733191Y2601242D01*
X4723350Y2591401D01*
X4713508Y2581559D01*
X4704979Y2573030D01*
X4697762Y2565157D01*
X4691201Y2557939D01*
X4685952Y2552035D01*
X4682672Y2548098D01*
X4680047Y2545474D01*
X4679391Y2544161D01*
X4672830Y2535632D01*
X4666925Y2527103D01*
X4660364Y2517917D01*
X4654459Y2509388D01*
X4649211Y2502171D01*
X4645274Y2495610D01*
X4642650Y2491673D01*
X4641993Y2491017D01*
Y2490361D01*
X4634776Y2479207D01*
X4628871Y2470022D01*
X4623623Y2462805D01*
X4619686Y2457556D01*
X4617062Y2452963D01*
X4614437Y2450339D01*
X4613781Y2449027D01*
X4613125Y2448371D01*
X4609845Y2445090D01*
X4605908Y2442466D01*
X4601971Y2440497D01*
X4598035Y2439185D01*
X4594754Y2438529D01*
X4592130Y2437873D01*
X4589505D01*
X4584913Y2438529D01*
X4580320Y2439185D01*
X4573103Y2442466D01*
X4570479Y2444434D01*
X4568510Y2445746D01*
X4567854Y2446402D01*
X4567198Y2447059D01*
X4563917Y2450339D01*
X4561949Y2454276D01*
X4559325Y2460837D01*
X4558669Y2463461D01*
X4558013Y2466085D01*
Y2467398D01*
Y2468054D01*
X4558669Y2473959D01*
X4561293Y2481832D01*
X4565230Y2489705D01*
X4569166Y2497578D01*
X4573759Y2505451D01*
X4577039Y2511356D01*
X4579008Y2513981D01*
X4579664Y2515949D01*
X4580976Y2516605D01*
Y2517261D01*
X4591474Y2533664D01*
X4602627Y2549410D01*
X4614437Y2565157D01*
X4625591Y2578935D01*
X4630840Y2584840D01*
X4635432Y2590744D01*
X4640025Y2595993D01*
X4643962Y2599930D01*
X4646586Y2603866D01*
X4649211Y2606491D01*
X4650523Y2607803D01*
X4651179Y2608459D01*
X4671518Y2628798D01*
X4691857Y2647169D01*
X4711540Y2663572D01*
X4720725Y2670133D01*
X4729911Y2676694D01*
X4738440Y2682599D01*
X4745657Y2687191D01*
X4752218Y2691784D01*
X4758123Y2695064D01*
X4762716Y2697689D01*
X4766652Y2700313D01*
X4768621Y2700969D01*
X4769277Y2701625D01*
X4753530Y2713435D01*
X4739096Y2725245D01*
X4725318Y2736399D01*
X4712852Y2747552D01*
X4701042Y2757394D01*
X4689889Y2767235D01*
X4680047Y2777077D01*
X4670862Y2786262D01*
X4662332Y2794791D01*
X4653803Y2802665D01*
X4646586Y2810538D01*
X4640025Y2817755D01*
X4628871Y2831533D01*
X4619686Y2843999D01*
X4613125Y2854497D01*
X4607876Y2863026D01*
X4603940Y2870899D01*
X4601315Y2876804D01*
X4600003Y2881397D01*
X4598691Y2884677D01*
Y2886646D01*
Y2887302D01*
X4600003Y2895831D01*
X4602627Y2902392D01*
X4607220Y2906985D01*
X4611813Y2910265D01*
X4617061Y2912233D01*
X4621654Y2912890D01*
X4624279Y2913546D01*
X4625591D01*
X4630840Y2912890D01*
X4635432Y2911577D01*
X4640025Y2909609D01*
X4643962Y2907641D01*
X4646586Y2905016D01*
X4649210Y2903048D01*
X4650523Y2901736D01*
X4651179Y2901080D01*
X4651835Y2900424D01*
X4653147Y2899111D01*
X4657084Y2894519D01*
X4661676Y2889270D01*
X4666925Y2882709D01*
X4672174Y2876804D01*
X4676767Y2871555D01*
X4679391Y2867619D01*
X4680703Y2866963D01*
Y2866307D01*
X4694481Y2849904D01*
X4708916Y2834158D01*
X4739096Y2803977D01*
X4754186Y2790199D01*
X4769277Y2776421D01*
X4783711Y2763955D01*
X4798145Y2752145D01*
X4811267Y2741648D01*
X4823077Y2731806D01*
X4834231Y2723277D01*
X4843416Y2716060D01*
X4851289Y2710811D01*
X4857194Y2706218D01*
X4860475Y2703594D01*
X4861787Y2702938D01*
Y2715403D01*
X4862443Y2726557D01*
Y2748209D01*
X4863099Y2767235D01*
X4863099Y2784294D01*
X4863755Y2798728D01*
X4864411Y2811850D01*
Y2822348D01*
X4865067Y2831533D01*
Y2839406D01*
X4865723Y2845311D01*
Y2850560D01*
Y2854497D01*
X4866380Y2857121D01*
Y2858433D01*
Y2859745D01*
X4867692Y2869587D01*
X4869660Y2878116D01*
X4871628Y2885333D01*
X4874909Y2891894D01*
X4877533Y2897143D01*
X4880814Y2901736D01*
X4883438Y2905016D01*
X4886719Y2908297D01*
X4893280Y2912233D01*
X4897872Y2914202D01*
X4901809Y2914858D01*
X4903121D01*
X4908370Y2914202D01*
D02*
G37*
G36*
X4486498Y2821035D02*
X4492403Y2818411D01*
X4496995Y2815131D01*
X4500932Y2811850D01*
X4503556Y2807914D01*
X4505525Y2804633D01*
X4506181Y2802009D01*
X4506837Y2801352D01*
X4508805Y2796104D01*
X4510117Y2789543D01*
X4511429Y2781669D01*
X4512086Y2774452D01*
Y2767235D01*
X4512742Y2761330D01*
Y2756738D01*
Y2756082D01*
Y2755425D01*
Y2754113D01*
Y2750833D01*
Y2746896D01*
X4512086Y2742303D01*
Y2737711D01*
Y2734430D01*
Y2731806D01*
Y2730494D01*
Y2721964D01*
X4511430Y2714091D01*
Y2706874D01*
Y2700313D01*
Y2695064D01*
Y2690472D01*
Y2687847D01*
Y2687191D01*
Y2670133D01*
X4512086Y2654386D01*
X4512742Y2640608D01*
X4513398Y2628142D01*
X4514054Y2618301D01*
X4514710Y2614364D01*
Y2611084D01*
Y2608459D01*
X4515366Y2606491D01*
Y2605179D01*
Y2604523D01*
X4516678Y2594681D01*
X4517990Y2585496D01*
X4519303Y2577622D01*
X4520615Y2570405D01*
X4521271Y2565157D01*
X4522583Y2561220D01*
X4523239Y2558595D01*
Y2557939D01*
X4521271Y2552691D01*
X4519959Y2548098D01*
Y2544161D01*
Y2541537D01*
X4520615Y2539569D01*
X4521271Y2538256D01*
X4521927Y2537600D01*
X4523239Y2533664D01*
X4523895Y2529727D01*
X4523239Y2526447D01*
X4522583Y2523166D01*
X4520615Y2519229D01*
X4519303Y2518573D01*
Y2517917D01*
X4516022Y2515293D01*
X4512086Y2513325D01*
X4505525Y2511356D01*
X4502900Y2510700D01*
X4500276Y2510044D01*
X4498307D01*
X4491747Y2510700D01*
X4486498Y2512669D01*
X4481905Y2515949D01*
X4477968Y2519229D01*
X4475344Y2522510D01*
X4472720Y2525791D01*
X4472064Y2527759D01*
X4471407Y2528415D01*
X4469439Y2532352D01*
X4468127Y2538256D01*
X4466159Y2544161D01*
X4464846Y2550722D01*
X4464190Y2556627D01*
X4462878Y2561876D01*
X4462222Y2565157D01*
Y2566469D01*
X4460254Y2580903D01*
X4458285Y2596649D01*
X4456973Y2613708D01*
X4455661Y2632079D01*
X4453693Y2668820D01*
X4453037Y2687191D01*
X4452381Y2704906D01*
X4451724Y2721964D01*
Y2737711D01*
X4451068Y2752145D01*
Y2764611D01*
Y2775108D01*
X4451068Y2779701D01*
Y2782982D01*
Y2785606D01*
Y2787574D01*
Y2788887D01*
Y2789543D01*
Y2795448D01*
X4452380Y2800040D01*
X4453693Y2804633D01*
X4455661Y2807914D01*
X4460254Y2813818D01*
X4464846Y2817755D01*
X4470095Y2819723D01*
X4474688Y2821035D01*
X4477968Y2821692D01*
X4479280D01*
X4486498Y2821035D01*
D02*
G37*
%LPC*%
G36*
X4273265Y2657667D02*
X4270641D01*
X4260799Y2657010D01*
X4252270Y2655042D01*
X4245053Y2652418D01*
X4238492Y2648481D01*
X4233243Y2643889D01*
X4228650Y2639296D01*
X4225370Y2634047D01*
X4222089Y2628798D01*
X4218153Y2617644D01*
X4217497Y2613052D01*
X4216185Y2608459D01*
Y2604523D01*
X4215528Y2601898D01*
Y2599930D01*
Y2599274D01*
X4216185Y2589432D01*
X4218153Y2580903D01*
X4220121Y2573686D01*
X4222745Y2567781D01*
X4226026Y2563188D01*
X4227994Y2559252D01*
X4229963Y2557283D01*
X4230619Y2556627D01*
X4236524Y2551378D01*
X4243085Y2548098D01*
X4249646Y2545474D01*
X4256207Y2543505D01*
X4261455Y2542193D01*
X4266704Y2541537D01*
X4270641D01*
X4281138Y2542193D01*
X4290324Y2544161D01*
X4298197Y2546786D01*
X4305414Y2550722D01*
X4310663Y2555315D01*
X4315912Y2559908D01*
X4319848Y2565157D01*
X4323129Y2571061D01*
X4325097Y2576310D01*
X4327065Y2581559D01*
X4328378Y2586152D01*
X4329690Y2590744D01*
Y2594681D01*
X4330346Y2597305D01*
Y2599274D01*
Y2599930D01*
X4329690Y2610427D01*
X4327721Y2618957D01*
X4325097Y2626830D01*
X4321160Y2633391D01*
X4316568Y2638640D01*
X4311319Y2643889D01*
X4306070Y2647169D01*
X4300165Y2650450D01*
X4294917Y2653074D01*
X4289668Y2654386D01*
X4284419Y2655698D01*
X4279826Y2657010D01*
X4275890D01*
X4273265Y2657667D01*
D02*
G37*
G36*
X4235211Y2503483D02*
X4234555D01*
Y2502827D01*
X4235211Y2502171D01*
Y2502827D01*
Y2503483D01*
D02*
G37*
G36*
X3752322Y2657666D02*
X3749697D01*
X3739856Y2657010D01*
X3731327Y2655042D01*
X3724110Y2652418D01*
X3717548Y2648481D01*
X3712300Y2643888D01*
X3707707Y2639296D01*
X3704427Y2634047D01*
X3701146Y2628798D01*
X3697209Y2617644D01*
X3696553Y2613052D01*
X3695241Y2608459D01*
Y2604522D01*
X3694585Y2601898D01*
Y2599930D01*
Y2599274D01*
X3695241Y2589432D01*
X3697209Y2580903D01*
X3699178Y2573686D01*
X3701802Y2567781D01*
X3705083Y2563188D01*
X3707051Y2559251D01*
X3709019Y2557283D01*
X3709675Y2556627D01*
X3715580Y2551378D01*
X3722141Y2548098D01*
X3728702Y2545473D01*
X3735263Y2543505D01*
X3740512Y2542193D01*
X3745761Y2541537D01*
X3749697D01*
X3760195Y2542193D01*
X3769380Y2544161D01*
X3777254Y2546786D01*
X3784471Y2550722D01*
X3789720Y2555315D01*
X3794968Y2559908D01*
X3798905Y2565156D01*
X3802185Y2571061D01*
X3804154Y2576310D01*
X3806122Y2581559D01*
X3807434Y2586152D01*
X3808746Y2590744D01*
Y2594681D01*
X3809403Y2597305D01*
Y2599274D01*
Y2599930D01*
X3808746Y2610427D01*
X3806778Y2618957D01*
X3804154Y2626830D01*
X3800217Y2633391D01*
X3795624Y2638640D01*
X3790376Y2643888D01*
X3785127Y2647169D01*
X3779222Y2650449D01*
X3773973Y2653074D01*
X3768724Y2654386D01*
X3763476Y2655698D01*
X3758883Y2657010D01*
X3754946D01*
X3752322Y2657666D01*
D02*
G37*
G36*
X3714268Y2503483D02*
X3713612D01*
Y2502827D01*
X3714268Y2502171D01*
Y2502827D01*
Y2503483D01*
D02*
G37*
%LPD*%
%TF.MD5,c0ea6137d2915b2f59b9ccf927b7d4f1*%
M02*
