%TF.GenerationSoftware,Altium Limited,Altium Designer,20.0.10 (225)*%
G04 Layer_Color=16711935*
%FSLAX26Y26*%
%MOIN*%
%TF.FileFunction,Soldermask,Bot*%
%TF.Part,Single*%
G01*
G75*
G36*
X4523513Y2065709D02*
X4528762Y2064397D01*
X4532698Y2063085D01*
X4536635Y2061117D01*
X4539915Y2058492D01*
X4541884Y2057180D01*
X4543196Y2055868D01*
X4543852Y2055212D01*
X4547132Y2051275D01*
X4549757Y2046682D01*
X4551725Y2042746D01*
X4553037Y2038809D01*
X4553693Y2034873D01*
X4554350Y2032248D01*
Y2030280D01*
Y2029624D01*
X4553693Y2024375D01*
X4553037Y2020438D01*
X4549757Y2012565D01*
X4547788Y2009941D01*
X4546476Y2007973D01*
X4545820Y2006660D01*
X4545164Y2006004D01*
X4541227Y2002724D01*
X4537291Y2000099D01*
X4533354Y1998787D01*
X4529418Y1997475D01*
X4526137Y1996819D01*
X4523513Y1996163D01*
X4520888D01*
X4514327Y1996819D01*
X4509079Y1997475D01*
X4504486Y1999443D01*
X4500549Y2001412D01*
X4493988Y2007316D01*
X4490052Y2013878D01*
X4487427Y2020438D01*
X4486115Y2026343D01*
X4485459Y2030280D01*
Y2030936D01*
Y2031592D01*
X4486115Y2037497D01*
X4486771Y2042090D01*
X4488083Y2046682D01*
X4490052Y2049963D01*
X4492020Y2052587D01*
X4493332Y2054556D01*
X4493988Y2055868D01*
X4494644Y2056524D01*
X4498581Y2059805D01*
X4501861Y2062429D01*
X4506454Y2063741D01*
X4509735Y2065053D01*
X4513015Y2065709D01*
X4515640Y2066365D01*
X4518264D01*
X4523513Y2065709D01*
D02*
G37*
G36*
X4331275Y1967294D02*
X4342429Y1965982D01*
X4352271Y1963358D01*
X4360800Y1960733D01*
X4367361Y1958109D01*
X4372610Y1955485D01*
X4375234Y1954172D01*
X4376546Y1953516D01*
X4383764Y1948267D01*
X4389012Y1943675D01*
X4392949Y1939082D01*
X4395573Y1934489D01*
X4396886Y1930553D01*
X4397542Y1927928D01*
X4398198Y1925960D01*
Y1925304D01*
X4396886Y1918743D01*
X4394917Y1913494D01*
X4392949Y1910214D01*
X4391637Y1909558D01*
Y1908901D01*
X4386388Y1904965D01*
X4381139Y1902997D01*
X4377203Y1902341D01*
X4375890D01*
X4373266Y1902997D01*
X4369985Y1903653D01*
X4362112Y1906933D01*
X4358832Y1908901D01*
X4355551Y1910214D01*
X4353583Y1910870D01*
X4352927Y1911526D01*
X4346366Y1914806D01*
X4340461Y1916775D01*
X4334556Y1918743D01*
X4329307Y1919399D01*
X4325371Y1920055D01*
X4322090Y1920711D01*
X4319466D01*
X4307000Y1919399D01*
X4296502Y1916119D01*
X4286661Y1911526D01*
X4278131Y1904965D01*
X4271570Y1897748D01*
X4265009Y1889218D01*
X4260417Y1880033D01*
X4255824Y1870848D01*
X4252544Y1861006D01*
X4249919Y1851821D01*
X4247951Y1843948D01*
X4246639Y1836074D01*
X4245327Y1829513D01*
Y1824921D01*
X4244670Y1821640D01*
Y1820328D01*
X4250575Y1825577D01*
X4256480Y1830169D01*
X4268946Y1836730D01*
X4280756Y1841979D01*
X4292566Y1845916D01*
X4302407Y1847884D01*
X4306344Y1848540D01*
X4310280D01*
X4313561Y1849196D01*
X4326683D01*
X4335212Y1847884D01*
X4350959Y1844604D01*
X4364737Y1839355D01*
X4375890Y1834106D01*
X4385076Y1828857D01*
X4391637Y1823609D01*
X4393605Y1821640D01*
X4395573Y1820328D01*
X4396230Y1819672D01*
X4396886Y1819016D01*
X4402134Y1813111D01*
X4406727Y1807206D01*
X4413944Y1794084D01*
X4419193Y1780962D01*
X4422474Y1767840D01*
X4425098Y1756686D01*
X4425754Y1751438D01*
Y1747501D01*
X4426410Y1743564D01*
Y1740940D01*
Y1739628D01*
Y1738972D01*
X4425098Y1721257D01*
X4421817Y1706167D01*
X4417881Y1692389D01*
X4412632Y1681891D01*
X4407383Y1672706D01*
X4403447Y1666801D01*
X4400166Y1662864D01*
X4398854Y1661552D01*
X4387700Y1652366D01*
X4375234Y1645805D01*
X4362112Y1640557D01*
X4350302Y1637276D01*
X4339149Y1635308D01*
X4334556Y1634652D01*
X4329963D01*
X4326683Y1633996D01*
X4322090D01*
X4311593Y1634652D01*
X4301751Y1635964D01*
X4292566Y1638588D01*
X4284036Y1641213D01*
X4277475Y1643181D01*
X4272227Y1645805D01*
X4268946Y1647118D01*
X4267634Y1647774D01*
X4268290Y1645805D01*
Y1643181D01*
Y1641213D01*
Y1640557D01*
X4267634Y1632683D01*
X4265010Y1626778D01*
X4261729Y1622842D01*
X4257792Y1620217D01*
X4254512Y1618249D01*
X4251231Y1617593D01*
X4248607Y1616937D01*
X4247951D01*
X4244670Y1617593D01*
X4240734Y1618905D01*
X4238109Y1620217D01*
X4234829Y1622842D01*
X4229580Y1628747D01*
X4225644Y1635964D01*
X4222363Y1643181D01*
X4219739Y1649086D01*
X4219083Y1651710D01*
X4218426Y1653679D01*
X4217770Y1654335D01*
Y1654991D01*
X4211209Y1683203D01*
X4205961Y1709447D01*
X4203992Y1721913D01*
X4202680Y1734379D01*
X4200712Y1745533D01*
X4200056Y1756030D01*
X4199400Y1765872D01*
X4198743Y1774401D01*
X4198087Y1782274D01*
X4197431Y1788835D01*
Y1793428D01*
Y1797364D01*
Y1799989D01*
Y1800645D01*
X4198087Y1815735D01*
X4198743Y1830169D01*
X4200712Y1843292D01*
X4202680Y1855757D01*
X4205304Y1867567D01*
X4208585Y1878065D01*
X4212521Y1887906D01*
X4216458Y1897092D01*
X4221051Y1905621D01*
X4225643Y1913494D01*
X4230892Y1920711D01*
X4236141Y1927272D01*
X4247295Y1938426D01*
X4258448Y1946955D01*
X4269602Y1954172D01*
X4280756Y1959421D01*
X4291253Y1962702D01*
X4300439Y1965326D01*
X4308312Y1966638D01*
X4314217Y1967950D01*
X4319466D01*
X4331275Y1967294D01*
D02*
G37*
G36*
X3811644Y1967294D02*
X3822798Y1965982D01*
X3832640Y1963358D01*
X3841169Y1960733D01*
X3847730Y1958109D01*
X3852979Y1955485D01*
X3855603Y1954172D01*
X3856915Y1953516D01*
X3864132Y1948267D01*
X3869381Y1943675D01*
X3873318Y1939082D01*
X3875942Y1934489D01*
X3877254Y1930553D01*
X3877910Y1927928D01*
X3878566Y1925960D01*
Y1925304D01*
X3877254Y1918743D01*
X3875286Y1913494D01*
X3873318Y1910214D01*
X3872006Y1909557D01*
Y1908901D01*
X3866757Y1904965D01*
X3861508Y1902996D01*
X3857571Y1902340D01*
X3856259D01*
X3853635Y1902996D01*
X3850354Y1903653D01*
X3842481Y1906933D01*
X3839200Y1908901D01*
X3835920Y1910214D01*
X3833952Y1910870D01*
X3833296Y1911526D01*
X3826735Y1914806D01*
X3820830Y1916775D01*
X3814925Y1918743D01*
X3809676Y1919399D01*
X3805739Y1920055D01*
X3802459Y1920711D01*
X3799834D01*
X3787369Y1919399D01*
X3776871Y1916119D01*
X3767030Y1911526D01*
X3758500Y1904965D01*
X3751939Y1897748D01*
X3745378Y1889218D01*
X3740785Y1880033D01*
X3736193Y1870848D01*
X3732912Y1861006D01*
X3730288Y1851821D01*
X3728320Y1843947D01*
X3727008Y1836074D01*
X3725695Y1829513D01*
Y1824921D01*
X3725039Y1821640D01*
Y1820328D01*
X3730944Y1825577D01*
X3736849Y1830169D01*
X3749315Y1836730D01*
X3761125Y1841979D01*
X3772934Y1845916D01*
X3782776Y1847884D01*
X3786713Y1848540D01*
X3790649D01*
X3793930Y1849196D01*
X3807052D01*
X3815581Y1847884D01*
X3831327Y1844604D01*
X3845106Y1839355D01*
X3856259Y1834106D01*
X3865445Y1828857D01*
X3872006Y1823608D01*
X3873974Y1821640D01*
X3875942Y1820328D01*
X3876598Y1819672D01*
X3877254Y1819016D01*
X3882503Y1813111D01*
X3887096Y1807206D01*
X3894313Y1794084D01*
X3899562Y1780962D01*
X3902842Y1767840D01*
X3905467Y1756686D01*
X3906123Y1751437D01*
Y1747501D01*
X3906779Y1743564D01*
Y1740940D01*
Y1739628D01*
Y1738972D01*
X3905467Y1721257D01*
X3902186Y1706167D01*
X3898250Y1692388D01*
X3893001Y1681891D01*
X3887752Y1672705D01*
X3883815Y1666801D01*
X3880535Y1662864D01*
X3879223Y1661552D01*
X3868069Y1652366D01*
X3855603Y1645805D01*
X3842481Y1640556D01*
X3830671Y1637276D01*
X3819518Y1635308D01*
X3814925Y1634652D01*
X3810332D01*
X3807052Y1633995D01*
X3802459D01*
X3791961Y1634652D01*
X3782120Y1635964D01*
X3772934Y1638588D01*
X3764405Y1641213D01*
X3757844Y1643181D01*
X3752595Y1645805D01*
X3749315Y1647118D01*
X3748003Y1647774D01*
X3748659Y1645805D01*
Y1643181D01*
Y1641213D01*
Y1640556D01*
X3748003Y1632683D01*
X3745378Y1626778D01*
X3742098Y1622842D01*
X3738161Y1620217D01*
X3734881Y1618249D01*
X3731600Y1617593D01*
X3728976Y1616937D01*
X3728320D01*
X3725039Y1617593D01*
X3721103Y1618905D01*
X3718478Y1620217D01*
X3715198Y1622842D01*
X3709949Y1628747D01*
X3706012Y1635964D01*
X3702732Y1643181D01*
X3700107Y1649086D01*
X3699451Y1651710D01*
X3698795Y1653678D01*
X3698139Y1654335D01*
Y1654991D01*
X3691578Y1683203D01*
X3686329Y1709447D01*
X3684361Y1721913D01*
X3683049Y1734379D01*
X3681081Y1745533D01*
X3680424Y1756030D01*
X3679768Y1765872D01*
X3679112Y1774401D01*
X3678456Y1782274D01*
X3677800Y1788835D01*
Y1793428D01*
Y1797364D01*
Y1799989D01*
Y1800645D01*
X3678456Y1815735D01*
X3679112Y1830169D01*
X3681081Y1843291D01*
X3683049Y1855757D01*
X3685673Y1867567D01*
X3688954Y1878065D01*
X3692890Y1887906D01*
X3696827Y1897092D01*
X3701419Y1905621D01*
X3706012Y1913494D01*
X3711261Y1920711D01*
X3716510Y1927272D01*
X3727664Y1938426D01*
X3738817Y1946955D01*
X3749971Y1954172D01*
X3761125Y1959421D01*
X3771622Y1962702D01*
X3780808Y1965326D01*
X3788681Y1966638D01*
X3794586Y1967950D01*
X3799834D01*
X3811644Y1967294D01*
D02*
G37*
G36*
X4122636Y1955485D02*
X4127885Y1953516D01*
X4131821Y1950892D01*
X4132477Y1950236D01*
X4133133Y1949580D01*
X4135758Y1946955D01*
X4137726Y1944331D01*
X4139694Y1939082D01*
X4141007Y1935145D01*
Y1934489D01*
Y1933833D01*
X4139694Y1927928D01*
X4137726Y1921367D01*
X4136414Y1918743D01*
X4135758Y1916119D01*
X4134445Y1914806D01*
Y1914150D01*
X4129853Y1906277D01*
X4126572Y1899716D01*
X4123948Y1895123D01*
X4122636Y1892499D01*
X4121324Y1890531D01*
X4120667Y1889218D01*
Y1888562D01*
X4116731Y1880033D01*
X4113450Y1871504D01*
X4108202Y1852477D01*
X4104921Y1833450D01*
X4102297Y1815735D01*
X4101641Y1807206D01*
X4100984Y1799333D01*
X4100328Y1792116D01*
X4099672Y1786211D01*
Y1781618D01*
Y1777681D01*
Y1775057D01*
Y1774401D01*
Y1764559D01*
X4100984Y1754718D01*
X4101641Y1745533D01*
X4102953Y1737003D01*
X4104265Y1729786D01*
X4105577Y1724537D01*
X4106233Y1720601D01*
X4106889Y1719945D01*
Y1719289D01*
X4109514Y1709447D01*
X4110826Y1702230D01*
X4112138Y1696325D01*
X4113450Y1691732D01*
Y1689108D01*
X4114106Y1687140D01*
Y1685827D01*
X4112794Y1678610D01*
X4110170Y1672705D01*
X4106889Y1668769D01*
X4102297Y1666144D01*
X4098360Y1664832D01*
X4094423Y1664176D01*
X4091799Y1663520D01*
X4091143D01*
X4087863Y1664176D01*
X4085238Y1664832D01*
X4079333Y1668113D01*
X4074740Y1673361D01*
X4070804Y1678610D01*
X4067523Y1683859D01*
X4064899Y1689108D01*
X4063587Y1692388D01*
X4062931Y1693701D01*
X4058994Y1707479D01*
X4056370Y1721913D01*
X4053745Y1736347D01*
X4052433Y1750781D01*
X4051777Y1763247D01*
Y1769152D01*
X4051121Y1773745D01*
Y1777681D01*
Y1780306D01*
Y1782274D01*
Y1782930D01*
Y1816391D01*
X4050465Y1829513D01*
X4049153Y1840667D01*
X4046528Y1850508D01*
X4043904Y1858382D01*
X4041279Y1864943D01*
X4038655Y1869535D01*
X4037343Y1872816D01*
X4036687Y1873472D01*
X4030782Y1880689D01*
X4024221Y1885938D01*
X4017660Y1889874D01*
X4011099Y1892499D01*
X4005850Y1893811D01*
X4001257Y1895123D01*
X3997321D01*
X3993384Y1894467D01*
X3989447Y1893811D01*
X3982886Y1890531D01*
X3979606Y1888562D01*
X3977638Y1887250D01*
X3976325Y1886594D01*
X3975669Y1885938D01*
X3971077Y1883313D01*
X3967796Y1881345D01*
X3961891Y1878721D01*
X3958611Y1877409D01*
X3957298D01*
X3951394Y1878721D01*
X3946801Y1880689D01*
X3944177Y1882657D01*
X3942864Y1883970D01*
X3939584Y1889218D01*
X3937615Y1894467D01*
X3936959Y1898404D01*
Y1899060D01*
Y1899716D01*
X3937615Y1906277D01*
X3939584Y1912182D01*
X3942208Y1917431D01*
X3944833Y1922023D01*
X3948113Y1925304D01*
X3950738Y1927928D01*
X3952706Y1929241D01*
X3953362Y1929897D01*
X3959923Y1933833D01*
X3966484Y1936458D01*
X3973045Y1939082D01*
X3979606Y1940394D01*
X3985511Y1941050D01*
X3990104Y1941706D01*
X3994696D01*
X4003882Y1941050D01*
X4012411Y1939738D01*
X4020284Y1937114D01*
X4028157Y1933833D01*
X4041279Y1925304D01*
X4051777Y1916119D01*
X4060306Y1906933D01*
X4066867Y1898404D01*
X4068836Y1895123D01*
X4070148Y1892499D01*
X4071460Y1891187D01*
Y1890531D01*
X4074740Y1902340D01*
X4078677Y1912182D01*
X4081957Y1921367D01*
X4085894Y1928584D01*
X4089831Y1935145D01*
X4093767Y1940394D01*
X4097048Y1944987D01*
X4100984Y1948267D01*
X4104265Y1951548D01*
X4106889Y1953516D01*
X4112138Y1955485D01*
X4115419Y1956797D01*
X4120011D01*
X4122636Y1955485D01*
D02*
G37*
G36*
X4951946Y2056524D02*
X4958507Y2053244D01*
X4962444Y2048651D01*
X4965724Y2043402D01*
X4967693Y2038153D01*
X4968349Y2033561D01*
X4969005Y2030280D01*
Y2029624D01*
Y2028968D01*
Y2028312D01*
Y2026343D01*
X4968349Y2023719D01*
Y2020439D01*
X4967693Y2015846D01*
X4967036Y2010597D01*
X4966380Y2000100D01*
X4965068Y1988946D01*
Y1984353D01*
X4964412Y1979760D01*
Y1975824D01*
X4963756Y1973199D01*
Y1971231D01*
Y1970575D01*
X4961788Y1948924D01*
X4960475Y1927272D01*
X4959163Y1907589D01*
Y1898404D01*
X4958507Y1889875D01*
Y1882002D01*
X4957851Y1875440D01*
Y1868880D01*
X4957851Y1863631D01*
Y1859694D01*
Y1856414D01*
Y1854445D01*
Y1853789D01*
Y1832138D01*
X4958507Y1811143D01*
X4959819Y1790804D01*
X4961132Y1771777D01*
X4963100Y1752750D01*
X4965068Y1735691D01*
X4967037Y1719289D01*
X4969005Y1704198D01*
X4970973Y1690420D01*
X4972941Y1677954D01*
X4974910Y1667457D01*
X4976878Y1658271D01*
X4978190Y1651054D01*
X4979502Y1645805D01*
X4980158Y1642525D01*
Y1641213D01*
X4980815Y1639245D01*
X4981471Y1635964D01*
X4982783Y1632027D01*
X4983439Y1628091D01*
X4984751Y1624154D01*
X4986063Y1620874D01*
X4986720Y1618249D01*
Y1617593D01*
X4988688Y1609064D01*
X4989344Y1602503D01*
X4990000Y1599879D01*
Y1597910D01*
Y1597254D01*
Y1596598D01*
X4989344Y1590037D01*
X4986720Y1585444D01*
X4984751Y1582164D01*
X4984095Y1580852D01*
X4981471Y1578227D01*
X4979502Y1576915D01*
X4974254Y1574291D01*
X4970317Y1573634D01*
X4969005D01*
X4964412Y1574291D01*
X4959819Y1575603D01*
X4955883Y1578227D01*
X4951946Y1581508D01*
X4945385Y1590037D01*
X4939480Y1599879D01*
X4935544Y1609064D01*
X4932263Y1617593D01*
X4930951Y1620874D01*
X4930295Y1623498D01*
X4929639Y1624810D01*
Y1625466D01*
X4927014Y1634652D01*
X4925046Y1645149D01*
X4923078Y1656959D01*
X4921109Y1669425D01*
X4917173Y1695013D01*
X4913892Y1720601D01*
X4912580Y1732411D01*
X4911268Y1744220D01*
X4910612Y1754062D01*
X4909300Y1763247D01*
X4908644Y1770465D01*
Y1776369D01*
X4907988Y1779650D01*
Y1780962D01*
X4900770Y1785555D01*
X4892897Y1790148D01*
X4885024Y1795396D01*
X4877151Y1800645D01*
X4870590Y1804582D01*
X4865341Y1808518D01*
X4861404Y1811143D01*
X4860092Y1811799D01*
X4845658Y1804582D01*
X4831224Y1796052D01*
X4817446Y1786867D01*
X4804324Y1777025D01*
X4791202Y1767184D01*
X4778736Y1756686D01*
X4767582Y1746189D01*
X4756428Y1736347D01*
X4746587Y1726506D01*
X4738058Y1717320D01*
X4730184Y1709447D01*
X4723623Y1702230D01*
X4718375Y1696325D01*
X4714438Y1691733D01*
X4711814Y1689108D01*
X4711158Y1687796D01*
X4704596Y1679266D01*
X4697379Y1670081D01*
X4690818Y1660896D01*
X4684913Y1652366D01*
X4679665Y1644493D01*
X4675728Y1638588D01*
X4672448Y1633996D01*
X4671792Y1633340D01*
Y1632683D01*
X4664574Y1621530D01*
X4658669Y1612344D01*
X4654077Y1605127D01*
X4650140Y1599222D01*
X4647516Y1595286D01*
X4645547Y1592661D01*
X4644891Y1591349D01*
X4644235Y1590693D01*
X4640955Y1587412D01*
X4637674Y1585444D01*
X4630457Y1582820D01*
X4627833Y1582164D01*
X4625208Y1581508D01*
X4623240D01*
X4619303Y1582164D01*
X4615367Y1582820D01*
X4610118Y1585444D01*
X4606181Y1588069D01*
X4604869Y1589381D01*
X4602245Y1592005D01*
X4600277Y1595286D01*
X4597652Y1600534D01*
X4596996Y1605127D01*
Y1605783D01*
Y1606439D01*
X4597652Y1612344D01*
X4600277Y1619561D01*
X4604213Y1628091D01*
X4608150Y1635964D01*
X4612086Y1643181D01*
X4616023Y1649086D01*
X4618647Y1653679D01*
X4619303Y1654335D01*
Y1654991D01*
X4629801Y1671393D01*
X4641611Y1687796D01*
X4653421Y1702886D01*
X4664574Y1717320D01*
X4669823Y1723225D01*
X4674416Y1729130D01*
X4679009Y1734379D01*
X4682945Y1738315D01*
X4685570Y1742252D01*
X4688194Y1744877D01*
X4689506Y1746189D01*
X4690162Y1746845D01*
X4711158Y1767840D01*
X4732153Y1786867D01*
X4752492Y1803926D01*
X4762333Y1811143D01*
X4771519Y1818360D01*
X4780048Y1824265D01*
X4787921Y1829514D01*
X4794482Y1834106D01*
X4800387Y1838043D01*
X4805636Y1841323D01*
X4808916Y1843292D01*
X4811541Y1844604D01*
X4812197Y1845260D01*
X4796450Y1857726D01*
X4781360Y1870192D01*
X4767582Y1881345D01*
X4755116Y1892499D01*
X4743306Y1902997D01*
X4732153Y1913494D01*
X4721655Y1923336D01*
X4711814Y1932521D01*
X4703284Y1941050D01*
X4695411Y1949580D01*
X4688194Y1957453D01*
X4680977Y1965326D01*
X4669823Y1979104D01*
X4660638Y1991570D01*
X4653421Y2002068D01*
X4648172Y2010597D01*
X4644235Y2018470D01*
X4641611Y2024375D01*
X4640299Y2028968D01*
X4638986Y2032248D01*
Y2034217D01*
Y2034873D01*
X4639642Y2042090D01*
X4642267Y2047339D01*
X4645547Y2051275D01*
X4649484Y2053900D01*
X4654077Y2055212D01*
X4657357Y2056524D01*
X4660638D01*
X4665230Y2055868D01*
X4669823Y2054556D01*
X4677696Y2049963D01*
X4680977Y2047339D01*
X4683601Y2045370D01*
X4684913Y2044058D01*
X4685569Y2043402D01*
X4686226Y2042746D01*
X4686882Y2042090D01*
X4690162Y2038153D01*
X4694755Y2032904D01*
X4699348Y2026999D01*
X4704596Y2021095D01*
X4709189Y2015846D01*
X4711814Y2011909D01*
X4713126Y2011253D01*
Y2010597D01*
X4727560Y1994195D01*
X4741994Y1977792D01*
X4774143Y1946299D01*
X4789889Y1931865D01*
X4806292Y1917431D01*
X4822038Y1904309D01*
X4837129Y1892499D01*
X4850907Y1880689D01*
X4864029Y1870848D01*
X4875839Y1862319D01*
X4886336Y1854445D01*
X4894209Y1848540D01*
X4900770Y1844604D01*
X4904707Y1841323D01*
X4905363Y1840667D01*
X4906019D01*
Y1853789D01*
X4906675Y1865599D01*
X4906675Y1877409D01*
Y1888562D01*
X4907331Y1908245D01*
Y1926616D01*
X4907987Y1941707D01*
X4908644Y1955485D01*
Y1966638D01*
X4909300Y1976480D01*
Y1984353D01*
X4909956Y1990914D01*
Y1996163D01*
Y2000100D01*
X4910612Y2002724D01*
Y2004692D01*
Y2006004D01*
X4911924Y2015190D01*
X4913892Y2023063D01*
X4915861Y2030280D01*
X4918485Y2036185D01*
X4921109Y2040778D01*
X4923734Y2045370D01*
X4926358Y2048651D01*
X4929639Y2051275D01*
X4934887Y2055212D01*
X4939480Y2057180D01*
X4942105Y2057836D01*
X4948010D01*
X4951946Y2056524D01*
D02*
G37*
G36*
X4526137Y1962046D02*
X4530730Y1960077D01*
X4534667Y1958109D01*
X4537291Y1955485D01*
X4539915Y1952204D01*
X4541227Y1950236D01*
X4542540Y1948267D01*
Y1947611D01*
X4544508Y1941707D01*
X4545820Y1934489D01*
X4547132Y1926616D01*
X4547788Y1918743D01*
Y1911526D01*
X4548445Y1905621D01*
Y1901028D01*
Y1900372D01*
Y1899716D01*
Y1898404D01*
Y1895123D01*
Y1891187D01*
X4547788Y1886594D01*
Y1882001D01*
Y1878721D01*
Y1876097D01*
Y1874784D01*
X4547132Y1858382D01*
Y1850509D01*
Y1843948D01*
Y1838699D01*
Y1834762D01*
Y1831482D01*
Y1830826D01*
Y1813111D01*
X4547789Y1797364D01*
X4548445Y1782274D01*
X4549101Y1769808D01*
X4550413Y1759311D01*
Y1754718D01*
X4551069Y1750781D01*
Y1748157D01*
X4551725Y1746189D01*
Y1744877D01*
Y1744220D01*
X4553037Y1734379D01*
X4553694Y1725194D01*
X4555006Y1717320D01*
X4556318Y1710103D01*
X4557630Y1704198D01*
X4558286Y1699606D01*
X4558942Y1696981D01*
Y1695669D01*
X4560255Y1689764D01*
X4560911Y1685171D01*
X4562223Y1681891D01*
Y1679923D01*
X4562879Y1678610D01*
Y1677954D01*
X4561567Y1671393D01*
X4559598Y1666801D01*
X4557630Y1663520D01*
X4556318Y1662208D01*
X4550413Y1658271D01*
X4545164Y1656303D01*
X4540572Y1655647D01*
X4539259D01*
X4534011Y1656303D01*
X4529418Y1657615D01*
X4525481Y1659583D01*
X4522201Y1662208D01*
X4520232Y1664832D01*
X4518264Y1666801D01*
X4516952Y1668113D01*
Y1668769D01*
X4514984Y1673362D01*
X4513015Y1679266D01*
X4510391Y1692389D01*
X4509079Y1698293D01*
X4508423Y1703542D01*
X4507766Y1706823D01*
Y1708135D01*
X4505798Y1722569D01*
X4503830Y1738972D01*
X4502518Y1756686D01*
X4501206Y1774401D01*
X4499237Y1812455D01*
X4498581Y1830826D01*
X4497925Y1849196D01*
X4497269Y1866255D01*
X4497269Y1882658D01*
X4496613Y1897092D01*
Y1910214D01*
Y1920711D01*
Y1924648D01*
Y1928584D01*
Y1931209D01*
Y1933177D01*
Y1934489D01*
Y1935146D01*
X4497925Y1944331D01*
X4500549Y1950892D01*
X4503830Y1956141D01*
X4508422Y1959421D01*
X4513015Y1961389D01*
X4516296Y1962046D01*
X4518920Y1962702D01*
X4520232D01*
X4526137Y1962046D01*
D02*
G37*
%LPC*%
G36*
X4312905Y1805894D02*
X4310280D01*
X4299783Y1805238D01*
X4289941Y1803269D01*
X4282068Y1799989D01*
X4274851Y1796052D01*
X4268946Y1790803D01*
X4264353Y1785555D01*
X4260417Y1779650D01*
X4257136Y1773745D01*
X4254512Y1767184D01*
X4252544Y1761279D01*
X4251231Y1756030D01*
X4249919Y1751438D01*
Y1746845D01*
X4249263Y1743564D01*
Y1741596D01*
Y1740940D01*
X4249919Y1730442D01*
X4251887Y1720601D01*
X4254512Y1712728D01*
X4257136Y1706167D01*
X4260417Y1700918D01*
X4263041Y1696981D01*
X4265010Y1694357D01*
X4265666Y1693701D01*
X4272227Y1688452D01*
X4279444Y1684515D01*
X4287317Y1681235D01*
X4294534Y1679266D01*
X4301095Y1677954D01*
X4306344Y1677298D01*
X4310936D01*
X4322746Y1677954D01*
X4332588Y1679923D01*
X4341117Y1683203D01*
X4348990Y1687140D01*
X4354895Y1692389D01*
X4360800Y1697637D01*
X4364737Y1703542D01*
X4368017Y1709447D01*
X4371298Y1715352D01*
X4373266Y1721257D01*
X4374578Y1726506D01*
X4375234Y1731755D01*
X4375890Y1735691D01*
X4376547Y1738972D01*
Y1740940D01*
Y1741596D01*
X4375890Y1752750D01*
X4373922Y1762591D01*
X4370642Y1771120D01*
X4366049Y1778994D01*
X4361456Y1784899D01*
X4355551Y1790147D01*
X4349646Y1794740D01*
X4343085Y1798021D01*
X4337181Y1800645D01*
X4331276Y1802613D01*
X4325371Y1803926D01*
X4320778Y1805238D01*
X4316185D01*
X4312905Y1805894D01*
D02*
G37*
G36*
X3793274Y1805894D02*
X3790649D01*
X3780152Y1805238D01*
X3770310Y1803269D01*
X3762437Y1799989D01*
X3755220Y1796052D01*
X3749315Y1790803D01*
X3744722Y1785555D01*
X3740786Y1779650D01*
X3737505Y1773745D01*
X3734881Y1767184D01*
X3732912Y1761279D01*
X3731600Y1756030D01*
X3730288Y1751437D01*
Y1746845D01*
X3729632Y1743564D01*
Y1741596D01*
Y1740940D01*
X3730288Y1730442D01*
X3732256Y1720601D01*
X3734881Y1712727D01*
X3737505Y1706167D01*
X3740786Y1700918D01*
X3743410Y1696981D01*
X3745378Y1694357D01*
X3746034Y1693701D01*
X3752595Y1688452D01*
X3759812Y1684515D01*
X3767686Y1681235D01*
X3774903Y1679266D01*
X3781464Y1677954D01*
X3786713Y1677298D01*
X3791305D01*
X3803115Y1677954D01*
X3812957Y1679922D01*
X3821486Y1683203D01*
X3829359Y1687140D01*
X3835264Y1692388D01*
X3841169Y1697637D01*
X3845106Y1703542D01*
X3848386Y1709447D01*
X3851666Y1715352D01*
X3853635Y1721257D01*
X3854947Y1726506D01*
X3855603Y1731754D01*
X3856259Y1735691D01*
X3856915Y1738972D01*
Y1740940D01*
Y1741596D01*
X3856259Y1752750D01*
X3854291Y1762591D01*
X3851010Y1771120D01*
X3846418Y1778994D01*
X3841825Y1784899D01*
X3835920Y1790147D01*
X3830015Y1794740D01*
X3823454Y1798021D01*
X3817549Y1800645D01*
X3811644Y1802613D01*
X3805740Y1803925D01*
X3801147Y1805238D01*
X3796554D01*
X3793274Y1805894D01*
D02*
G37*
%LPD*%
%TF.MD5,d24ab677f3fc99af88e37ee6f617584f*%
M02*
