%TF.GenerationSoftware,Altium Limited,Altium Designer,20.0.10 (225)*%
G04 Layer_Color=32768*
%FSLAX26Y26*%
%MOIN*%
%TF.FileFunction,Other,Top_Courtyard*%
%TF.Part,Single*%
G01*
G75*
%TA.AperFunction,NonConductor*%
%ADD19C,0.007874*%
%ADD22C,0.003937*%
%ADD24C,0.001968*%
D19*
X3840177Y4612008D02*
Y5206890D01*
Y4612008D02*
X4144508D01*
Y5206890D01*
X3840177D02*
X4144508D01*
Y2989961D02*
Y3584843D01*
X3840177D02*
X4144508D01*
X3840177Y2989961D02*
Y3584843D01*
Y2989961D02*
X4144508D01*
D22*
X4255555Y3680315D02*
Y3719685D01*
X4235870Y3700000D02*
X4275240D01*
X4053429Y3680315D02*
Y3719685D01*
X4033744Y3700000D02*
X4073114D01*
X3975315Y3883898D02*
X4014685D01*
X3995000Y3864213D02*
Y3903583D01*
X3975315Y4092500D02*
X4014685D01*
X3995000Y4072815D02*
Y4112185D01*
X3975315Y4300000D02*
X4014685D01*
X3995000Y4280315D02*
Y4319685D01*
X4255555Y4460315D02*
Y4499685D01*
X4235870Y4480000D02*
X4275240D01*
X4053429Y4460315D02*
Y4499685D01*
X4033744Y4480000D02*
X4073114D01*
D24*
X4165004Y3762992D02*
X4346106D01*
X4165004Y3637008D02*
X4346106D01*
X4165004D02*
Y3762992D01*
X4346106Y3637008D02*
Y3762992D01*
X3962878D02*
X4143980D01*
X3962878Y3637008D02*
X4143980D01*
X3962878D02*
Y3762992D01*
X4143980Y3637008D02*
Y3762992D01*
X4057992Y3793347D02*
Y3974449D01*
X3932008Y3793347D02*
Y3974449D01*
X4057992D01*
X3932008Y3793347D02*
X4057992D01*
Y4001949D02*
Y4183051D01*
X3932008Y4001949D02*
Y4183051D01*
X4057992D01*
X3932008Y4001949D02*
X4057992D01*
Y4209449D02*
Y4390551D01*
X3932008Y4209449D02*
Y4390551D01*
X4057992D01*
X3932008Y4209449D02*
X4057992D01*
X4165004Y4542992D02*
X4346106D01*
X4165004Y4417008D02*
X4346106D01*
X4165004D02*
Y4542992D01*
X4346106Y4417008D02*
Y4542992D01*
X3962878D02*
X4143980D01*
X3962878Y4417008D02*
X4143980D01*
X3962878D02*
Y4542992D01*
X4143980Y4417008D02*
Y4542992D01*
%TF.MD5,d084e226ead9a171c11b1c62e9476d61*%
M02*
