%TF.GenerationSoftware,Altium Limited,Altium Designer,20.0.10 (225)*%
G04 Layer_Color=8388736*
%FSLAX26Y26*%
%MOIN*%
%TF.FileFunction,Soldermask,Top*%
%TF.Part,Single*%
G01*
G75*
G36*
X4792743Y1997547D02*
X4797481Y1996600D01*
X4803166Y1994704D01*
X4808378Y1990914D01*
X4810747Y1989019D01*
X4813116Y1986176D01*
X4815011Y1982859D01*
X4816433Y1979069D01*
X4817380Y1974805D01*
X4817854Y1969593D01*
Y1969119D01*
Y1967698D01*
X4817380Y1965329D01*
X4816907Y1962486D01*
X4815485Y1959169D01*
X4814064Y1955379D01*
X4811695Y1951589D01*
X4808852Y1948272D01*
X4808378Y1947798D01*
X4807431Y1946851D01*
X4805535Y1945429D01*
X4802693Y1944008D01*
X4799376Y1942586D01*
X4795586Y1941165D01*
X4791321Y1940217D01*
X4786583Y1939744D01*
X4784688D01*
X4782793Y1940217D01*
X4779950Y1940691D01*
X4776633Y1941639D01*
X4773317Y1943060D01*
X4769526Y1944955D01*
X4765736Y1947798D01*
X4765262Y1948272D01*
X4764315Y1949220D01*
X4762893Y1951115D01*
X4760998Y1953484D01*
X4759103Y1956327D01*
X4757681Y1959643D01*
X4756734Y1962960D01*
X4756260Y1966750D01*
Y1967224D01*
Y1969119D01*
X4756734Y1971488D01*
X4757208Y1974331D01*
X4758629Y1978121D01*
X4760051Y1981912D01*
X4762419Y1985702D01*
X4765262Y1989019D01*
X4765736Y1989493D01*
X4767158Y1990440D01*
X4769053Y1991862D01*
X4771895Y1993757D01*
X4775212Y1995178D01*
X4779002Y1996600D01*
X4783267Y1997547D01*
X4788005Y1998021D01*
X4790847D01*
X4792743Y1997547D01*
D02*
G37*
G36*
X3703950Y1966750D02*
X3713900D01*
X3725745Y1965802D01*
X3739012Y1964855D01*
X3753226Y1963907D01*
X3767913Y1962012D01*
X3782127Y1960117D01*
X3796341Y1957274D01*
X3809608Y1953957D01*
X3821453Y1950167D01*
X3826664Y1947798D01*
X3831403Y1945429D01*
X3835667Y1942586D01*
X3839457Y1939744D01*
X3842300Y1936901D01*
X3844195Y1933584D01*
X3845617Y1930267D01*
X3846090Y1926477D01*
Y1926003D01*
Y1925056D01*
X3845617Y1923634D01*
X3845143Y1921265D01*
X3843247Y1916527D01*
X3841826Y1913685D01*
X3839457Y1911315D01*
X3838983Y1910842D01*
X3838510Y1910368D01*
X3837088Y1909420D01*
X3835193Y1907999D01*
X3830455Y1905630D01*
X3828086Y1905156D01*
X3825243Y1904682D01*
X3824296D01*
X3821927Y1905156D01*
X3817662Y1906104D01*
X3812924Y1907999D01*
X3812450D01*
X3811503Y1908473D01*
X3809134Y1909894D01*
X3807713Y1910842D01*
X3807239Y1911315D01*
X3806765Y1911789D01*
X3807713Y1912263D01*
X3807239D01*
X3806291Y1912737D01*
X3804870D01*
X3802501Y1913684D01*
X3799184Y1914158D01*
X3795394Y1914632D01*
X3791130Y1915580D01*
X3785918Y1916527D01*
X3780232Y1917475D01*
X3773125Y1917949D01*
X3766018Y1918896D01*
X3757963Y1919844D01*
X3748961Y1920791D01*
X3739012Y1921739D01*
X3728588Y1922687D01*
X3717217Y1923634D01*
Y1922687D01*
Y1919844D01*
Y1916053D01*
X3717691Y1910368D01*
Y1903735D01*
X3718164Y1895680D01*
Y1887625D01*
X3718638Y1878149D01*
X3718638Y1858724D01*
X3719112Y1839298D01*
X3719586Y1829822D01*
Y1820820D01*
Y1812765D01*
Y1805184D01*
Y1804237D01*
Y1801868D01*
Y1798077D01*
Y1792392D01*
Y1786232D01*
Y1778651D01*
X3719112Y1770123D01*
Y1760647D01*
X3718638Y1750697D01*
Y1740747D01*
X3717691Y1718953D01*
X3716743Y1696684D01*
X3716269Y1686260D01*
X3715322Y1675837D01*
Y1674889D01*
Y1672994D01*
X3714848Y1669677D01*
X3714374Y1665887D01*
X3712479Y1657359D01*
X3711057Y1653568D01*
X3709636Y1650252D01*
X3709162Y1649778D01*
X3708688Y1648830D01*
X3707267Y1646935D01*
X3705372Y1645514D01*
X3702529Y1643618D01*
X3699686Y1641723D01*
X3695896Y1640776D01*
X3691632Y1640302D01*
X3690684D01*
X3688315Y1640776D01*
X3684998Y1641723D01*
X3681208Y1643618D01*
X3677418Y1646935D01*
X3675522Y1649304D01*
X3674101Y1651673D01*
X3672680Y1654990D01*
X3671732Y1658306D01*
X3671258Y1662570D01*
X3670784Y1667308D01*
Y1668256D01*
Y1670151D01*
X3671258Y1672046D01*
Y1673942D01*
Y1676311D01*
Y1679627D01*
X3671732Y1683891D01*
X3672206Y1688156D01*
Y1693841D01*
X3672680Y1700001D01*
X3673153Y1707581D01*
X3673627Y1715636D01*
Y1716110D01*
Y1718005D01*
X3674101Y1720374D01*
Y1723691D01*
Y1727955D01*
X3674575Y1733167D01*
Y1738852D01*
X3675049Y1745012D01*
X3675522Y1752119D01*
Y1759226D01*
X3675996Y1775335D01*
X3676470Y1791918D01*
Y1809448D01*
Y1809922D01*
Y1810870D01*
Y1812291D01*
Y1814660D01*
Y1817977D01*
Y1822241D01*
Y1826979D01*
Y1833138D01*
X3675996Y1840245D01*
Y1848300D01*
Y1857776D01*
X3675522Y1868200D01*
X3675522Y1880518D01*
X3675048Y1893311D01*
Y1907999D01*
X3674575Y1924108D01*
X3668889D01*
X3664625Y1923634D01*
X3659413D01*
X3653727Y1923160D01*
X3647568Y1922687D01*
X3640461Y1921739D01*
X3626247Y1920318D01*
X3612033Y1917475D01*
X3605400Y1916053D01*
X3598767Y1914158D01*
X3593081Y1911789D01*
X3587869Y1909420D01*
Y1908946D01*
Y1907999D01*
X3587396Y1906104D01*
X3586922Y1903735D01*
X3585500Y1897575D01*
X3583605Y1890942D01*
X3580289Y1883835D01*
X3575550Y1877676D01*
X3572708Y1875307D01*
X3569865Y1873411D01*
X3566075Y1872464D01*
X3562284Y1871990D01*
X3561336D01*
X3559441Y1872464D01*
X3556599Y1873411D01*
X3553282Y1875307D01*
X3549492Y1878149D01*
X3546649Y1882887D01*
X3545701Y1886204D01*
X3544753Y1889521D01*
X3543806Y1893311D01*
Y1898049D01*
Y1898523D01*
Y1899944D01*
Y1901839D01*
X3544280Y1904208D01*
X3544753Y1907525D01*
X3545227Y1910842D01*
X3547122Y1918896D01*
X3549965Y1927425D01*
X3554229Y1935479D01*
X3557072Y1939270D01*
X3560389Y1942586D01*
X3564179Y1945903D01*
X3568443Y1948272D01*
X3568917D01*
X3570339Y1949219D01*
X3572708Y1950167D01*
X3576024Y1951115D01*
X3580289Y1952536D01*
X3585500Y1954431D01*
X3591660Y1955853D01*
X3598293Y1957748D01*
X3606347Y1959643D01*
X3615350Y1961064D01*
X3625300Y1962960D01*
X3636197Y1964381D01*
X3648042Y1965329D01*
X3660834Y1966276D01*
X3674575Y1967224D01*
X3699686D01*
X3703950Y1966750D01*
D02*
G37*
G36*
X4956204Y1923161D02*
X4961889Y1922213D01*
X4968523Y1920318D01*
X4976103Y1917475D01*
X4984632Y1913685D01*
X4993160Y1908947D01*
X5001215Y1902313D01*
X5009743Y1894259D01*
X5013533Y1889521D01*
X5017324Y1884309D01*
X5020641Y1878623D01*
X5023957Y1872464D01*
X5027274Y1865831D01*
X5029643Y1858724D01*
X5032012Y1850669D01*
X5034381Y1842141D01*
X5035802Y1833139D01*
X5037224Y1823189D01*
X5037697Y1812765D01*
X5038171Y1801868D01*
Y1801394D01*
Y1799499D01*
Y1797130D01*
Y1793340D01*
X5037697Y1788601D01*
X5037224Y1783390D01*
X5036750Y1777230D01*
X5036276Y1770123D01*
X5035802Y1762543D01*
X5034381Y1754488D01*
X5033433Y1745959D01*
X5032012Y1736957D01*
X5028221Y1718005D01*
X5023483Y1697632D01*
Y1697158D01*
X5023010Y1696210D01*
X5022536Y1694789D01*
X5022062Y1692894D01*
X5020167Y1688156D01*
X5017324Y1682944D01*
X5014007Y1677258D01*
X5009743Y1672521D01*
X5006900Y1670625D01*
X5004531Y1669204D01*
X5001689Y1668256D01*
X4998372Y1667783D01*
X4997424D01*
X4995529Y1668256D01*
X4992686Y1668730D01*
X4989370Y1670625D01*
X4985579Y1672994D01*
X4982737Y1676785D01*
X4980841Y1681996D01*
X4979894Y1684839D01*
Y1688630D01*
Y1689103D01*
Y1689577D01*
X4977999Y1688630D01*
X4975156Y1686735D01*
X4970892Y1685313D01*
X4965680Y1683418D01*
X4959994Y1681523D01*
X4953361Y1680575D01*
X4945780Y1680101D01*
X4942464D01*
X4939621Y1680575D01*
X4936778D01*
X4932988Y1681049D01*
X4924933Y1682470D01*
X4915931Y1685313D01*
X4906455Y1688630D01*
X4897453Y1693841D01*
X4892715Y1696684D01*
X4888924Y1700475D01*
Y1700948D01*
X4887977Y1701422D01*
X4887029Y1702844D01*
X4885608Y1704265D01*
X4882291Y1709003D01*
X4878974Y1715636D01*
X4875184Y1723691D01*
X4871867Y1733641D01*
X4869498Y1745012D01*
X4869025Y1751645D01*
X4868551Y1758278D01*
Y1758752D01*
Y1759700D01*
Y1762069D01*
X4869025Y1764438D01*
Y1767754D01*
X4869498Y1771071D01*
X4871394Y1779599D01*
X4873763Y1789075D01*
X4877553Y1799025D01*
X4883239Y1808501D01*
X4886555Y1813239D01*
X4890346Y1817503D01*
X4890819Y1817977D01*
X4891293Y1818451D01*
X4892715Y1819398D01*
X4894610Y1820820D01*
X4896505Y1822715D01*
X4899348Y1824610D01*
X4905981Y1828874D01*
X4914509Y1832665D01*
X4924459Y1836455D01*
X4936304Y1838824D01*
X4942464Y1839772D01*
X4952413D01*
X4954309Y1839298D01*
X4959994Y1838824D01*
X4967101Y1837403D01*
X4975156Y1835034D01*
X4982737Y1831244D01*
X4990317Y1826505D01*
X4996951Y1819872D01*
Y1820820D01*
Y1822715D01*
X4996477Y1825558D01*
X4995529Y1829822D01*
X4994582Y1834560D01*
X4993634Y1840246D01*
X4991739Y1845931D01*
X4989370Y1852091D01*
X4987001Y1857776D01*
X4983684Y1863462D01*
X4979420Y1869148D01*
X4974682Y1873886D01*
X4969470Y1878150D01*
X4962837Y1880992D01*
X4955730Y1883361D01*
X4947675Y1883835D01*
X4945780D01*
X4943885Y1883361D01*
X4941042Y1882888D01*
X4937725Y1882414D01*
X4933935Y1880992D01*
X4929671Y1879571D01*
X4924933Y1877202D01*
X4924459Y1876728D01*
X4923038Y1876254D01*
X4920669Y1875307D01*
X4918300Y1873885D01*
X4912614Y1871516D01*
X4909771Y1871043D01*
X4907876Y1870569D01*
X4906455D01*
X4905033Y1871043D01*
X4903138Y1871516D01*
X4898874Y1872938D01*
X4896505Y1874359D01*
X4894136Y1876254D01*
Y1876728D01*
X4893188Y1877202D01*
X4892241Y1878623D01*
X4891293Y1880519D01*
X4889398Y1884783D01*
X4888924Y1887626D01*
X4888450Y1890468D01*
Y1890942D01*
X4888924Y1892837D01*
X4889398Y1895206D01*
X4890819Y1898049D01*
X4892715Y1901840D01*
X4896031Y1905630D01*
X4900295Y1909894D01*
X4905981Y1913685D01*
X4906928Y1914158D01*
X4909297Y1915106D01*
X4912614Y1917001D01*
X4917826Y1918896D01*
X4923985Y1920792D01*
X4931092Y1922687D01*
X4939147Y1923634D01*
X4947675Y1924108D01*
X4951466D01*
X4956204Y1923161D01*
D02*
G37*
G36*
X4171117Y1923160D02*
X4176803Y1922213D01*
X4183436Y1920318D01*
X4191017Y1917475D01*
X4199545Y1913685D01*
X4208074Y1908947D01*
X4216128Y1902313D01*
X4224657Y1894259D01*
X4228447Y1889521D01*
X4232237Y1884309D01*
X4235554Y1878623D01*
X4238870Y1872464D01*
X4242187Y1865831D01*
X4244556Y1858724D01*
X4246925Y1850669D01*
X4249294Y1842141D01*
X4250716Y1833139D01*
X4252137Y1823189D01*
X4252611Y1812765D01*
X4253085Y1801868D01*
Y1801394D01*
Y1799499D01*
Y1797130D01*
Y1793339D01*
X4252611Y1788601D01*
X4252137Y1783389D01*
X4251663Y1777230D01*
X4251189Y1770123D01*
X4250716Y1762542D01*
X4249294Y1754488D01*
X4248347Y1745959D01*
X4246925Y1736957D01*
X4243135Y1718005D01*
X4238397Y1697632D01*
Y1697158D01*
X4237923Y1696210D01*
X4237449Y1694789D01*
X4236975Y1692894D01*
X4235080Y1688156D01*
X4232237Y1682944D01*
X4228921Y1677258D01*
X4224657Y1672520D01*
X4221814Y1670625D01*
X4219445Y1669204D01*
X4216602Y1668256D01*
X4213285Y1667782D01*
X4212338D01*
X4210443Y1668256D01*
X4207600Y1668730D01*
X4204283Y1670625D01*
X4200493Y1672994D01*
X4197650Y1676784D01*
X4195755Y1681996D01*
X4194807Y1684839D01*
Y1688630D01*
Y1689103D01*
Y1689577D01*
X4192912Y1688630D01*
X4190069Y1686734D01*
X4185805Y1685313D01*
X4180593Y1683418D01*
X4174908Y1681523D01*
X4168274Y1680575D01*
X4160694Y1680101D01*
X4157377D01*
X4154534Y1680575D01*
X4151691D01*
X4147901Y1681049D01*
X4139846Y1682470D01*
X4130844Y1685313D01*
X4121368Y1688630D01*
X4112366Y1693841D01*
X4107628Y1696684D01*
X4103838Y1700475D01*
Y1700948D01*
X4102890Y1701422D01*
X4101942Y1702843D01*
X4100521Y1704265D01*
X4097204Y1709003D01*
X4093888Y1715636D01*
X4090097Y1723691D01*
X4086781Y1733640D01*
X4084412Y1745012D01*
X4083938Y1751645D01*
X4083464Y1758278D01*
Y1758752D01*
Y1759699D01*
Y1762069D01*
X4083938Y1764438D01*
Y1767754D01*
X4084412Y1771071D01*
X4086307Y1779599D01*
X4088676Y1789075D01*
X4092466Y1799025D01*
X4098152Y1808501D01*
X4101469Y1813239D01*
X4105259Y1817503D01*
X4105733Y1817977D01*
X4106207Y1818451D01*
X4107628Y1819398D01*
X4109523Y1820820D01*
X4111418Y1822715D01*
X4114261Y1824610D01*
X4120894Y1828874D01*
X4129423Y1832665D01*
X4139373Y1836455D01*
X4151218Y1838824D01*
X4157377Y1839772D01*
X4167327D01*
X4169222Y1839298D01*
X4174908Y1838824D01*
X4182015Y1837403D01*
X4190069Y1835034D01*
X4197650Y1831243D01*
X4205231Y1826505D01*
X4211864Y1819872D01*
Y1820820D01*
Y1822715D01*
X4211390Y1825558D01*
X4210443Y1829822D01*
X4209495Y1834560D01*
X4208547Y1840245D01*
X4206652Y1845931D01*
X4204283Y1852091D01*
X4201914Y1857776D01*
X4198598Y1863462D01*
X4194333Y1869147D01*
X4189595Y1873885D01*
X4184383Y1878149D01*
X4177750Y1880992D01*
X4170643Y1883361D01*
X4162589Y1883835D01*
X4160694D01*
X4158798Y1883361D01*
X4155956Y1882888D01*
X4152639Y1882414D01*
X4148849Y1880992D01*
X4144584Y1879571D01*
X4139846Y1877202D01*
X4139373Y1876728D01*
X4137951Y1876254D01*
X4135582Y1875307D01*
X4133213Y1873885D01*
X4127528Y1871516D01*
X4124685Y1871043D01*
X4122789Y1870569D01*
X4121368D01*
X4119947Y1871043D01*
X4118051Y1871516D01*
X4113787Y1872938D01*
X4111418Y1874359D01*
X4109049Y1876254D01*
Y1876728D01*
X4108102Y1877202D01*
X4107154Y1878623D01*
X4106207Y1880518D01*
X4104311Y1884783D01*
X4103837Y1887626D01*
X4103364Y1890468D01*
Y1890942D01*
X4103837Y1892837D01*
X4104311Y1895206D01*
X4105733Y1898049D01*
X4107628Y1901840D01*
X4110944Y1905630D01*
X4115209Y1909894D01*
X4120894Y1913685D01*
X4121842Y1914158D01*
X4124211Y1915106D01*
X4127528Y1917001D01*
X4132739Y1918896D01*
X4138899Y1920792D01*
X4146006Y1922687D01*
X4154060Y1923634D01*
X4162589Y1924108D01*
X4166379D01*
X4171117Y1923160D01*
D02*
G37*
G36*
X4328892Y1934532D02*
X4330788D01*
X4335526Y1932637D01*
X4337895Y1931215D01*
X4340264Y1929320D01*
X4340738D01*
X4341211Y1928372D01*
X4343580Y1926003D01*
X4345475Y1922213D01*
X4345949Y1919844D01*
X4346423Y1917475D01*
Y1916527D01*
Y1915580D01*
X4345949Y1914158D01*
Y1911789D01*
X4345475Y1909420D01*
X4345002Y1906104D01*
X4344054Y1902313D01*
Y1901840D01*
X4343580Y1900418D01*
Y1898523D01*
X4343106Y1896154D01*
X4342633Y1889995D01*
X4342159Y1883835D01*
Y1883361D01*
X4342633Y1883835D01*
X4343106Y1884783D01*
X4344528Y1886678D01*
X4345949Y1889047D01*
X4348318Y1891890D01*
X4350687Y1894733D01*
X4354004Y1898049D01*
X4357794Y1901366D01*
X4366323Y1907999D01*
X4376746Y1913685D01*
X4382906Y1916053D01*
X4389065Y1917949D01*
X4396172Y1918896D01*
X4403279Y1919370D01*
X4407069D01*
X4409439Y1918896D01*
X4412281Y1918423D01*
X4416072Y1917949D01*
X4424126Y1916054D01*
X4433602Y1912737D01*
X4438340Y1910368D01*
X4443078Y1907999D01*
X4447816Y1904682D01*
X4452081Y1900892D01*
X4456819Y1896628D01*
X4460609Y1891890D01*
X4461083Y1891416D01*
X4461556Y1890468D01*
X4462504Y1889047D01*
X4463926Y1886678D01*
X4465347Y1884309D01*
X4467242Y1880519D01*
X4469137Y1876728D01*
X4471033Y1871990D01*
X4472928Y1867252D01*
X4474823Y1861093D01*
X4476718Y1854933D01*
X4478140Y1848300D01*
X4479561Y1840719D01*
X4480509Y1832665D01*
X4481456Y1824136D01*
Y1815134D01*
Y1814660D01*
Y1813239D01*
Y1810870D01*
Y1807553D01*
X4480982Y1803763D01*
X4480509Y1799025D01*
X4480035Y1793813D01*
X4479561Y1788128D01*
X4479087Y1781494D01*
X4477666Y1774861D01*
X4475297Y1760173D01*
X4471506Y1744538D01*
X4466768Y1728429D01*
Y1727955D01*
X4466295Y1727007D01*
X4465821Y1725586D01*
X4464873Y1724165D01*
X4462978Y1719427D01*
X4460135Y1714215D01*
X4456819Y1709003D01*
X4452554Y1704265D01*
X4450185Y1702844D01*
X4447343Y1701422D01*
X4444974Y1700475D01*
X4442131Y1700001D01*
X4440709D01*
X4439288Y1700475D01*
X4436919D01*
X4432181Y1702370D01*
X4429812Y1703317D01*
X4427443Y1705213D01*
Y1705686D01*
X4426495Y1706160D01*
X4424600Y1709003D01*
X4422705Y1712793D01*
X4422231Y1715162D01*
X4421757Y1718005D01*
Y1718953D01*
X4422231Y1720374D01*
X4422705Y1722743D01*
X4423653Y1727007D01*
X4424600Y1729850D01*
X4425548Y1732693D01*
X4426495Y1736483D01*
X4427443Y1740748D01*
X4428864Y1745486D01*
X4430286Y1751171D01*
Y1751645D01*
X4430760Y1752593D01*
X4431233Y1754488D01*
X4431707Y1756383D01*
X4432181Y1759226D01*
X4433129Y1762542D01*
X4435024Y1770597D01*
X4436445Y1780073D01*
X4437867Y1790497D01*
X4438814Y1801394D01*
X4439288Y1812765D01*
Y1813713D01*
Y1815608D01*
X4438814Y1818925D01*
Y1823189D01*
X4437867Y1828401D01*
X4437393Y1834086D01*
X4434076Y1846405D01*
X4432181Y1852564D01*
X4429338Y1858250D01*
X4426022Y1863936D01*
X4422231Y1869147D01*
X4417493Y1873412D01*
X4412281Y1876728D01*
X4406122Y1878623D01*
X4399015Y1879571D01*
X4398067D01*
X4395225Y1879097D01*
X4390960Y1878623D01*
X4385275Y1877202D01*
X4379115Y1875307D01*
X4372956Y1871990D01*
X4366323Y1867726D01*
X4360637Y1862040D01*
X4360163Y1861093D01*
X4358268Y1858724D01*
X4355899Y1854933D01*
X4353056Y1849248D01*
X4350214Y1842614D01*
X4347845Y1834086D01*
X4345949Y1824610D01*
X4345476Y1814187D01*
Y1813239D01*
Y1810870D01*
X4345949Y1807080D01*
Y1801394D01*
X4346423Y1794761D01*
X4347371Y1786232D01*
X4348792Y1776283D01*
X4350214Y1765385D01*
Y1764911D01*
X4350687Y1763964D01*
Y1762542D01*
X4351161Y1760173D01*
X4352109Y1754961D01*
X4353056Y1748328D01*
X4354004Y1740747D01*
X4354478Y1733640D01*
X4355425Y1726534D01*
Y1720848D01*
Y1720374D01*
Y1719427D01*
Y1717531D01*
X4354952Y1715636D01*
X4354478Y1709950D01*
X4352583Y1703791D01*
X4350214Y1697158D01*
X4346423Y1691472D01*
X4343580Y1689577D01*
X4340738Y1687682D01*
X4337421Y1686734D01*
X4333631Y1686261D01*
X4331735D01*
X4329840Y1686734D01*
X4327471D01*
X4322733Y1688630D01*
X4320364Y1689577D01*
X4318469Y1691472D01*
X4317995Y1692420D01*
X4317521Y1693368D01*
X4316574Y1694789D01*
X4315626Y1696684D01*
X4314679Y1699053D01*
X4314205Y1702370D01*
X4313257Y1706160D01*
Y1706634D01*
Y1708529D01*
Y1710424D01*
X4312783Y1712320D01*
Y1715162D01*
X4312310Y1718479D01*
Y1722269D01*
X4311836Y1726534D01*
X4311362Y1731745D01*
X4310888Y1737905D01*
X4310414Y1744538D01*
X4309941Y1752119D01*
X4309467Y1760647D01*
X4308519Y1770123D01*
Y1771071D01*
X4308045Y1773440D01*
Y1777230D01*
X4307572Y1782442D01*
X4307098Y1788601D01*
X4306150Y1795708D01*
X4305676Y1803289D01*
X4305203Y1811344D01*
X4303781Y1828874D01*
X4302360Y1846879D01*
X4301886Y1854933D01*
Y1862988D01*
X4301412Y1870095D01*
Y1876728D01*
Y1877202D01*
Y1879097D01*
Y1881940D01*
X4301886Y1885730D01*
X4302360Y1890468D01*
X4302833Y1895206D01*
X4304729Y1906104D01*
X4307572Y1916527D01*
X4309467Y1921739D01*
X4311836Y1926003D01*
X4314678Y1929794D01*
X4317995Y1932637D01*
X4321785Y1934532D01*
X4326050Y1935005D01*
X4327471D01*
X4328892Y1934532D01*
D02*
G37*
G36*
X3897261Y1981912D02*
X3899630Y1981438D01*
X3903894Y1979543D01*
X3906263Y1978121D01*
X3908632Y1975752D01*
X3909106Y1975278D01*
X3909579Y1974805D01*
X3910527Y1973383D01*
X3911475Y1971488D01*
X3911948Y1969593D01*
X3912422Y1966750D01*
X3911948Y1963907D01*
X3911001Y1960591D01*
X3910527Y1959169D01*
X3910053Y1958222D01*
X3909579Y1956800D01*
X3909106Y1954905D01*
Y1952536D01*
X3908632Y1949219D01*
X3908158Y1945429D01*
X3907684Y1940691D01*
X3907211Y1935479D01*
X3906737Y1929320D01*
X3906263Y1921739D01*
X3905789Y1913685D01*
X3905340Y1904694D01*
X3906263Y1905156D01*
X3908632Y1907525D01*
X3912896Y1911315D01*
X3919055Y1915106D01*
X3926636Y1918896D01*
X3936112Y1922687D01*
X3947010Y1925056D01*
X3952695Y1926003D01*
X3960276D01*
X3963119Y1925530D01*
X3967383Y1925056D01*
X3972595Y1924108D01*
X3979228Y1922213D01*
X3986335Y1919370D01*
X3994390Y1915106D01*
X4002444Y1909894D01*
X4010025Y1902787D01*
X4014289Y1898523D01*
X4018080Y1894259D01*
X4021870Y1889047D01*
X4025187Y1883835D01*
X4028503Y1877676D01*
X4031820Y1871043D01*
X4034663Y1863936D01*
X4037032Y1856355D01*
X4039401Y1847826D01*
X4041296Y1838824D01*
X4043191Y1828874D01*
X4044139Y1818451D01*
X4045086Y1807553D01*
Y1795708D01*
Y1795235D01*
Y1793339D01*
Y1790496D01*
Y1787180D01*
X4044613Y1782442D01*
Y1777704D01*
X4044139Y1772018D01*
X4043665Y1765859D01*
X4042717Y1752119D01*
X4040822Y1738379D01*
X4037979Y1724638D01*
X4036558Y1718005D01*
X4034663Y1711846D01*
Y1711372D01*
X4034189Y1710424D01*
X4033715Y1709003D01*
X4032768Y1707108D01*
X4030399Y1701896D01*
X4027556Y1696210D01*
X4023292Y1690051D01*
X4018554Y1685313D01*
X4016185Y1682944D01*
X4013342Y1681523D01*
X4010499Y1680575D01*
X4007182Y1680101D01*
X4005761D01*
X4003866Y1680575D01*
X4001497Y1681049D01*
X3996285Y1682944D01*
X3993916Y1684365D01*
X3991073Y1686261D01*
X3990599Y1686734D01*
X3990126Y1687208D01*
X3987757Y1690051D01*
X3985388Y1694789D01*
X3984914Y1697632D01*
X3984440Y1700475D01*
Y1700948D01*
X3984914Y1702370D01*
X3985388Y1704265D01*
X3986335Y1708055D01*
X3987283Y1710424D01*
X3988230Y1713741D01*
X3989178Y1717057D01*
X3990126Y1721322D01*
X3991547Y1726060D01*
X3992968Y1731745D01*
Y1732219D01*
X3993442Y1733167D01*
X3993916Y1735062D01*
X3994390Y1737431D01*
X3994864Y1740274D01*
X3995811Y1743590D01*
X3997233Y1751645D01*
X3998654Y1761121D01*
X4000075Y1772018D01*
X4001023Y1783863D01*
X4001497Y1795708D01*
Y1796182D01*
Y1797603D01*
Y1800446D01*
Y1803763D01*
X4001023Y1807553D01*
Y1811818D01*
X4000075Y1822241D01*
X3998654Y1833612D01*
X3996759Y1845457D01*
X3994390Y1856355D01*
X3992495Y1861093D01*
X3990599Y1865357D01*
Y1865831D01*
X3990126Y1866304D01*
X3988704Y1868674D01*
X3985861Y1871990D01*
X3982071Y1875781D01*
X3977333Y1879571D01*
X3971647Y1882888D01*
X3964540Y1885256D01*
X3960276Y1886204D01*
X3953643D01*
X3951274Y1885730D01*
X3947957Y1885256D01*
X3943693Y1884783D01*
X3939429Y1883361D01*
X3934691Y1881940D01*
X3929479Y1879571D01*
X3929005Y1879097D01*
X3927110Y1878623D01*
X3924741Y1877202D01*
X3921898Y1875307D01*
X3915739Y1870569D01*
X3912422Y1868200D01*
X3909580Y1864883D01*
X3909106Y1864409D01*
X3908158Y1862988D01*
X3906737Y1860145D01*
X3905315Y1856355D01*
X3903420Y1851617D01*
X3901999Y1845457D01*
X3901051Y1838350D01*
X3900577Y1830296D01*
Y1818925D01*
Y1818451D01*
Y1817029D01*
Y1814187D01*
Y1810870D01*
Y1807080D01*
Y1801868D01*
Y1796656D01*
Y1790496D01*
Y1783863D01*
Y1777230D01*
Y1762542D01*
Y1746907D01*
Y1731272D01*
Y1730798D01*
Y1729376D01*
Y1727481D01*
Y1724638D01*
Y1721795D01*
Y1718005D01*
X3901051Y1710424D01*
X3901525Y1702843D01*
X3901999Y1696210D01*
X3902473Y1693368D01*
X3902946Y1690998D01*
X3903894Y1689577D01*
X3904368Y1689103D01*
Y1688156D01*
X3904842Y1685787D01*
X3904368Y1682470D01*
X3903894Y1678680D01*
X3901999Y1674416D01*
X3898682Y1671099D01*
X3896787Y1669678D01*
X3893944Y1668730D01*
X3891101Y1668256D01*
X3887311Y1667782D01*
X3885416D01*
X3883521Y1668256D01*
X3881152Y1668730D01*
X3878309Y1669678D01*
X3875466Y1671099D01*
X3873097Y1672994D01*
X3870728Y1675363D01*
Y1675837D01*
X3870254Y1676784D01*
X3869307Y1678206D01*
X3868359Y1680575D01*
X3867411Y1683418D01*
X3866464Y1687208D01*
X3865516Y1691946D01*
X3864569Y1697158D01*
Y1697632D01*
X3864095Y1699053D01*
Y1701422D01*
X3863621Y1704739D01*
X3863147Y1709003D01*
X3862673Y1714215D01*
X3862200Y1719900D01*
X3861726Y1727007D01*
X3860778Y1734588D01*
X3860304Y1743117D01*
X3859831Y1752119D01*
X3859357Y1762069D01*
X3858883Y1772966D01*
Y1784337D01*
X3858409Y1796656D01*
Y1809448D01*
Y1810396D01*
Y1812291D01*
Y1815608D01*
Y1820346D01*
X3858883Y1826032D01*
X3859357Y1833139D01*
Y1841193D01*
X3860304Y1850195D01*
X3860778Y1860145D01*
X3861726Y1870569D01*
X3862673Y1882414D01*
X3864095Y1894733D01*
X3865516Y1907999D01*
X3867411Y1921739D01*
X3869307Y1935953D01*
X3871675Y1950641D01*
Y1951589D01*
X3872149Y1953484D01*
X3872623Y1955853D01*
X3873571Y1959169D01*
X3875466Y1966276D01*
X3876414Y1969593D01*
X3877361Y1971962D01*
X3877835Y1972436D01*
X3878309Y1973383D01*
X3879730Y1975278D01*
X3881625Y1977174D01*
X3883994Y1979069D01*
X3886837Y1980964D01*
X3890154Y1981912D01*
X3894418Y1982386D01*
X3895839D01*
X3897261Y1981912D01*
D02*
G37*
G36*
X4565319Y1939270D02*
X4567214Y1938796D01*
X4571952Y1937375D01*
X4574321Y1935479D01*
X4576690Y1933584D01*
X4577164Y1933110D01*
X4577637Y1932637D01*
X4580007Y1929794D01*
X4581902Y1925530D01*
X4582376Y1922687D01*
X4582849Y1919844D01*
Y1919370D01*
Y1918423D01*
X4582376Y1916054D01*
Y1912263D01*
X4581902Y1909420D01*
X4581428Y1906578D01*
X4580954Y1902787D01*
X4580480Y1898523D01*
X4580007Y1893785D01*
X4579533Y1888573D01*
X4578585Y1882414D01*
X4577637Y1875307D01*
Y1874833D01*
Y1873412D01*
X4577164Y1871516D01*
X4576690Y1868674D01*
X4576216Y1865357D01*
Y1861093D01*
X4575742Y1856829D01*
X4575269Y1851617D01*
X4574321Y1840719D01*
X4573373Y1828401D01*
X4572900Y1815608D01*
X4572426Y1802815D01*
Y1801868D01*
Y1799499D01*
X4572900Y1796182D01*
Y1791444D01*
X4573847Y1785759D01*
X4574321Y1779599D01*
X4577164Y1766333D01*
X4579059Y1759226D01*
X4581902Y1752593D01*
X4584745Y1746433D01*
X4588535Y1740748D01*
X4592799Y1736010D01*
X4598011Y1732693D01*
X4604170Y1730324D01*
X4610804Y1729376D01*
X4613173D01*
X4615068Y1729850D01*
X4619332Y1730324D01*
X4625491Y1731745D01*
X4631651Y1734114D01*
X4638284Y1737905D01*
X4644917Y1742643D01*
X4651077Y1749276D01*
Y1749750D01*
X4651550Y1750224D01*
X4653446Y1753066D01*
X4655815Y1757804D01*
X4659131Y1764438D01*
X4661974Y1772492D01*
X4664343Y1782442D01*
X4666238Y1794287D01*
X4666712Y1807553D01*
Y1817977D01*
Y1818451D01*
Y1820820D01*
Y1823663D01*
Y1827927D01*
Y1832665D01*
Y1838350D01*
X4667186Y1844510D01*
Y1850669D01*
Y1863936D01*
X4668133Y1876728D01*
Y1882888D01*
X4668607Y1888099D01*
X4669081Y1892837D01*
X4669555Y1896628D01*
Y1897102D01*
X4670029Y1897575D01*
Y1898997D01*
X4670502Y1900892D01*
X4671924Y1905156D01*
X4674293Y1910368D01*
X4677609Y1915106D01*
X4681400Y1919370D01*
X4684243Y1921265D01*
X4686611Y1922687D01*
X4689928Y1923161D01*
X4693245Y1923634D01*
X4694192D01*
X4696087Y1923161D01*
X4699404Y1922213D01*
X4703194Y1920792D01*
X4706511Y1917475D01*
X4709828Y1913211D01*
X4710775Y1910368D01*
X4711723Y1907051D01*
X4712671Y1903261D01*
Y1898997D01*
Y1898049D01*
Y1896628D01*
Y1894259D01*
X4712197Y1890942D01*
Y1886204D01*
X4711723Y1880045D01*
Y1876254D01*
X4711249Y1871990D01*
Y1871516D01*
Y1871043D01*
X4711249Y1868200D01*
X4710775Y1863462D01*
Y1857776D01*
X4710302Y1851143D01*
Y1844036D01*
X4709828Y1828401D01*
Y1827927D01*
Y1826505D01*
Y1824136D01*
Y1820820D01*
Y1816556D01*
Y1811818D01*
X4710302Y1806606D01*
Y1800920D01*
Y1788128D01*
X4711249Y1773914D01*
X4711723Y1759700D01*
X4712671Y1745486D01*
Y1745012D01*
Y1744064D01*
X4713144Y1742169D01*
Y1739800D01*
X4714092Y1734114D01*
X4715040Y1727007D01*
X4715987Y1720374D01*
X4716935Y1714689D01*
X4717882Y1712793D01*
X4718356Y1710898D01*
X4719304Y1709951D01*
X4719778D01*
Y1709477D01*
X4720251Y1708529D01*
X4720536Y1707392D01*
X4721673Y1707582D01*
X4724989Y1708055D01*
X4726885D01*
X4728780Y1707582D01*
X4731149Y1707108D01*
X4733518Y1705686D01*
X4736361Y1704265D01*
X4738730Y1701896D01*
X4740625Y1698579D01*
Y1698106D01*
X4741572Y1697158D01*
X4743468Y1694315D01*
X4745837Y1690999D01*
X4747258Y1690051D01*
X4748206Y1689577D01*
X4748679D01*
X4750101Y1690051D01*
X4752470Y1690999D01*
X4755786Y1693368D01*
X4759103Y1696684D01*
X4760998Y1699053D01*
X4762893Y1701422D01*
X4765262Y1704739D01*
X4767158Y1708529D01*
X4769527Y1712793D01*
X4771422Y1718005D01*
Y1718479D01*
X4771896Y1719427D01*
X4772843Y1721322D01*
X4773317Y1724165D01*
X4774265Y1727481D01*
X4775686Y1731272D01*
X4776634Y1735536D01*
X4778055Y1740748D01*
X4779003Y1746907D01*
X4779950Y1753066D01*
X4781372Y1760173D01*
X4782319Y1767280D01*
X4783267Y1775335D01*
X4783741Y1783863D01*
X4784214Y1801868D01*
Y1802342D01*
Y1802815D01*
Y1805658D01*
Y1810396D01*
X4783741Y1816556D01*
X4783267Y1824136D01*
X4782793Y1832665D01*
X4781845Y1842615D01*
X4780424Y1853038D01*
Y1853512D01*
Y1854460D01*
X4779950Y1855881D01*
Y1857776D01*
X4779476Y1862988D01*
X4778529Y1868674D01*
X4778055Y1875307D01*
X4777107Y1881466D01*
X4776633Y1886204D01*
Y1888573D01*
Y1889995D01*
Y1890468D01*
Y1890942D01*
X4777107Y1893311D01*
X4777581Y1897102D01*
X4779002Y1901366D01*
X4781372Y1905156D01*
X4784688Y1908947D01*
X4789426Y1911316D01*
X4792743Y1912263D01*
X4797007D01*
X4799376Y1911789D01*
X4802219Y1910842D01*
X4806483Y1908947D01*
X4810747Y1906104D01*
X4815011Y1901366D01*
X4816907Y1898523D01*
X4818802Y1895206D01*
X4820223Y1891416D01*
X4821645Y1886678D01*
Y1886204D01*
X4822118Y1885730D01*
Y1884309D01*
X4822592Y1882414D01*
X4823066Y1880045D01*
X4823540Y1876728D01*
X4824014Y1873412D01*
X4824961Y1869147D01*
X4825435Y1863936D01*
X4825909Y1858724D01*
X4826383Y1852564D01*
X4826856Y1845931D01*
X4827330Y1838350D01*
Y1830296D01*
X4827804Y1821294D01*
Y1811818D01*
Y1810870D01*
Y1808501D01*
Y1804711D01*
X4827330Y1799025D01*
Y1792866D01*
X4826856Y1785285D01*
X4825909Y1777230D01*
X4824961Y1768228D01*
X4824014Y1758752D01*
X4822592Y1749276D01*
X4818802Y1729376D01*
X4813590Y1709951D01*
X4810273Y1700948D01*
X4806483Y1692420D01*
Y1691946D01*
X4805535Y1690525D01*
X4804114Y1688630D01*
X4802693Y1685787D01*
X4800797Y1682470D01*
X4797955Y1679154D01*
X4791795Y1671099D01*
X4783267Y1663518D01*
X4779003Y1659728D01*
X4773791Y1656411D01*
X4768105Y1653568D01*
X4762420Y1651673D01*
X4756260Y1650252D01*
X4749627Y1649778D01*
X4746310D01*
X4742994Y1650252D01*
X4738730Y1651199D01*
X4733518Y1652621D01*
X4728306Y1654990D01*
X4722620Y1657833D01*
X4717409Y1661623D01*
X4716935Y1662097D01*
X4715513Y1663518D01*
X4713144Y1665887D01*
X4710775Y1669204D01*
X4707933Y1672994D01*
X4706037Y1677258D01*
X4704142Y1681996D01*
X4703766Y1686139D01*
X4701299Y1685787D01*
X4700352D01*
X4698457Y1686261D01*
X4695140Y1688156D01*
X4693245Y1689577D01*
X4691350Y1691472D01*
X4689454Y1693841D01*
X4687085Y1696684D01*
X4684716Y1700001D01*
X4682821Y1704265D01*
X4680452Y1709477D01*
X4678557Y1715162D01*
X4676662Y1722269D01*
X4674767Y1729850D01*
X4674293Y1729376D01*
X4673345Y1727955D01*
X4671924Y1726060D01*
X4670029Y1723217D01*
X4667186Y1720374D01*
X4664343Y1716584D01*
X4660553Y1712793D01*
X4656288Y1709003D01*
X4651077Y1705213D01*
X4645865Y1701422D01*
X4640179Y1697632D01*
X4633546Y1694789D01*
X4626913Y1691946D01*
X4619332Y1690051D01*
X4611751Y1688630D01*
X4603223Y1688156D01*
X4602275D01*
X4599906Y1688630D01*
X4596116Y1689103D01*
X4591378Y1690051D01*
X4585692Y1691946D01*
X4579533Y1694315D01*
X4572900Y1698106D01*
X4565793Y1702844D01*
X4558686Y1709477D01*
X4552052Y1717058D01*
X4548736Y1721796D01*
X4545893Y1726534D01*
X4542576Y1732219D01*
X4540207Y1738379D01*
X4537365Y1744538D01*
X4535469Y1751645D01*
X4533100Y1759226D01*
X4531679Y1767754D01*
X4530258Y1776283D01*
X4529310Y1785759D01*
X4528362Y1795708D01*
Y1806606D01*
Y1807080D01*
Y1809449D01*
Y1812291D01*
Y1816556D01*
X4528836Y1821767D01*
Y1827453D01*
Y1834560D01*
X4529310Y1841667D01*
X4529784Y1849722D01*
X4530258Y1857776D01*
X4531679Y1875307D01*
X4533574Y1892837D01*
X4535943Y1909894D01*
Y1910368D01*
X4536417Y1911316D01*
Y1912737D01*
X4536891Y1914632D01*
X4538786Y1919370D01*
X4541155Y1925056D01*
X4544471Y1930268D01*
X4549209Y1935006D01*
X4552052Y1936901D01*
X4554895Y1938322D01*
X4558685Y1939270D01*
X4562476Y1939744D01*
X4563897D01*
X4565319Y1939270D01*
D02*
G37*
%LPC*%
G36*
X4954309Y1801868D02*
X4952413D01*
X4950518Y1801394D01*
X4947675D01*
X4944359Y1800446D01*
X4940568Y1799499D01*
X4936778Y1798551D01*
X4932988Y1796656D01*
X4928723Y1794287D01*
X4924933Y1791918D01*
X4921143Y1788128D01*
X4917826Y1784337D01*
X4914983Y1779599D01*
X4913088Y1773914D01*
X4911667Y1767754D01*
X4911193Y1760173D01*
Y1759700D01*
Y1758278D01*
X4911667Y1756383D01*
Y1753540D01*
X4912614Y1750224D01*
X4913562Y1746907D01*
X4914983Y1743117D01*
X4916405Y1739326D01*
X4918774Y1735062D01*
X4921616Y1731272D01*
X4925407Y1727955D01*
X4929197Y1724638D01*
X4934409Y1721796D01*
X4940095Y1719900D01*
X4946728Y1718479D01*
X4954309Y1718005D01*
X4957151D01*
X4960942Y1718479D01*
X4964732Y1719427D01*
X4969470Y1720848D01*
X4974208Y1722743D01*
X4978946Y1725112D01*
X4983210Y1728903D01*
X4983684Y1729377D01*
X4985106Y1730798D01*
X4986527Y1733641D01*
X4988896Y1736957D01*
X4990791Y1741222D01*
X4992213Y1746433D01*
X4993634Y1752593D01*
X4994108Y1759700D01*
Y1760174D01*
Y1761595D01*
X4993634Y1763490D01*
Y1766333D01*
X4992686Y1769649D01*
X4992213Y1772966D01*
X4989370Y1781021D01*
X4987001Y1784811D01*
X4984632Y1788601D01*
X4981315Y1791918D01*
X4977525Y1795235D01*
X4972787Y1798078D01*
X4967575Y1799973D01*
X4961416Y1801394D01*
X4954309Y1801868D01*
D02*
G37*
G36*
X4980368Y1690525D02*
X4979894D01*
Y1690051D01*
Y1689577D01*
X4980368Y1690051D01*
Y1690525D01*
D02*
G37*
G36*
X4169222Y1801868D02*
X4167327D01*
X4165432Y1801394D01*
X4162589D01*
X4159272Y1800446D01*
X4155482Y1799499D01*
X4151691Y1798551D01*
X4147901Y1796656D01*
X4143637Y1794287D01*
X4139846Y1791918D01*
X4136056Y1788128D01*
X4132739Y1784337D01*
X4129897Y1779599D01*
X4128001Y1773914D01*
X4126580Y1767754D01*
X4126106Y1760173D01*
Y1759699D01*
Y1758278D01*
X4126580Y1756383D01*
Y1753540D01*
X4127528Y1750224D01*
X4128475Y1746907D01*
X4129897Y1743117D01*
X4131318Y1739326D01*
X4133687Y1735062D01*
X4136530Y1731272D01*
X4140320Y1727955D01*
X4144111Y1724638D01*
X4149322Y1721795D01*
X4155008Y1719900D01*
X4161641Y1718479D01*
X4169222Y1718005D01*
X4172065D01*
X4175855Y1718479D01*
X4179646Y1719427D01*
X4184384Y1720848D01*
X4189122Y1722743D01*
X4193860Y1725112D01*
X4198124Y1728902D01*
X4198598Y1729376D01*
X4200019Y1730798D01*
X4201440Y1733640D01*
X4203809Y1736957D01*
X4205705Y1741221D01*
X4207126Y1746433D01*
X4208547Y1752592D01*
X4209021Y1759699D01*
Y1760173D01*
Y1761595D01*
X4208547Y1763490D01*
Y1766333D01*
X4207600Y1769649D01*
X4207126Y1772966D01*
X4204283Y1781021D01*
X4201914Y1784811D01*
X4199545Y1788601D01*
X4196229Y1791918D01*
X4192438Y1795235D01*
X4187700Y1798077D01*
X4182488Y1799973D01*
X4176329Y1801394D01*
X4169222Y1801868D01*
D02*
G37*
G36*
X4195281Y1690525D02*
X4194807D01*
Y1690051D01*
Y1689577D01*
X4195281Y1690051D01*
Y1690525D01*
D02*
G37*
%LPD*%
%TF.MD5,357b18e69766d1da434d5d034c1236c3*%
M02*
