%TF.GenerationSoftware,Altium Limited,Altium Designer,20.0.10 (225)*%
G04 Layer_Color=0*
%FSLAX26Y26*%
%MOIN*%
%TF.FileFunction,Profile,NP*%
%TF.Part,Single*%
G01*
G75*
%TA.AperFunction,Profile*%
%ADD12C,0.001000*%
G36*
X3530000Y1805000D02*
Y1800027D01*
X3533806Y1790839D01*
X3540839Y1783806D01*
X3550027Y1780000D01*
X3555000D01*
X3559973D01*
X3569161Y1783806D01*
X3576194Y1790839D01*
X3580000Y1800027D01*
Y1805000D01*
Y1809973D01*
X3576194Y1819161D01*
X3569161Y1826194D01*
X3559973Y1830000D01*
X3555000D01*
X3550027D01*
X3540839Y1826194D01*
X3533806Y1819161D01*
X3530000Y1809973D01*
Y1805000D01*
D01*
D02*
G37*
G36*
X3598307Y1421024D02*
D01*
D02*
G37*
D12*
X3450719Y1662058D02*
X3440169Y1704684D01*
X3432997Y1748007D01*
X3429245Y1791759D01*
X3428938Y1835671D01*
X3432077Y1879471D01*
X3438643Y1922890D01*
X3448595Y1965660D01*
X3461873Y2007517D01*
X3478393Y2048204D01*
X3498055Y2087469D01*
X3520737Y2125070D01*
X3546299Y2160776D01*
X3574584Y2194366D01*
X3590000Y2210000D01*
X4928583Y2210000D01*
X4928575D01*
X4944209Y2194583D01*
X4972961Y2161392D01*
X4999020Y2126048D01*
X5022226Y2088767D01*
X5042435Y2049781D01*
X5059523Y2009330D01*
X5073384Y1967662D01*
X5083934Y1925036D01*
X5091107Y1881713D01*
X5094858Y1837961D01*
X5095165Y1794049D01*
X5092026Y1750249D01*
X5085460Y1706830D01*
X5075508Y1664060D01*
X5062231Y1622202D01*
X5045710Y1581516D01*
X5026048Y1542251D01*
X5003367Y1504650D01*
X4977805Y1468944D01*
X4949520Y1435354D01*
X4934103Y1419720D01*
X3595528D01*
X3579894Y1435137D01*
X3551142Y1468328D01*
X3525083Y1503672D01*
X3501878Y1540953D01*
X3481669Y1579939D01*
X3464581Y1620390D01*
X3450719Y1662058D01*
%TF.MD5,35770ab34ad0bd013a1512864d1d6245*%
M02*
