%TF.GenerationSoftware,Altium Limited,Altium Designer,20.0.10 (225)*%
G04 Layer_Color=65535*
%FSLAX26Y26*%
%MOIN*%
%TF.FileFunction,Legend,Top*%
%TF.Part,Single*%
G01*
G75*
%TA.AperFunction,NonConductor*%
%ADD17C,0.009842*%
%ADD18C,0.007874*%
G36*
X3118252Y3126333D02*
X2915292D01*
Y3237585D01*
X3118252D01*
Y3126333D01*
D02*
G37*
G36*
X2374351Y3139173D02*
X2374740D01*
X2375184Y3139117D01*
X2376238Y3138896D01*
X2377403Y3138618D01*
X2378624Y3138174D01*
X2379845Y3137508D01*
X2380456Y3137119D01*
X2381011Y3136675D01*
X2381066Y3136620D01*
X2381122Y3136564D01*
X2381289Y3136398D01*
X2381455Y3136231D01*
X2381733Y3135954D01*
X2381954Y3135621D01*
X2382565Y3134844D01*
X2383175Y3133845D01*
X2383731Y3132624D01*
X2384230Y3131236D01*
X2384563Y3129682D01*
X2379845Y3129294D01*
Y3129349D01*
X2379790Y3129405D01*
X2379735Y3129738D01*
X2379568Y3130238D01*
X2379346Y3130848D01*
X2379124Y3131514D01*
X2378791Y3132180D01*
X2378403Y3132791D01*
X2378014Y3133290D01*
X2377903Y3133401D01*
X2377681Y3133623D01*
X2377293Y3133956D01*
X2376738Y3134345D01*
X2376016Y3134677D01*
X2375239Y3135010D01*
X2374296Y3135233D01*
X2373296Y3135343D01*
X2372908D01*
X2372464Y3135288D01*
X2371965Y3135177D01*
X2371298Y3135010D01*
X2370633Y3134789D01*
X2369966Y3134511D01*
X2369300Y3134067D01*
X2369189Y3134012D01*
X2368912Y3133789D01*
X2368523Y3133401D01*
X2368024Y3132846D01*
X2367469Y3132180D01*
X2366858Y3131403D01*
X2366303Y3130404D01*
X2365749Y3129294D01*
Y3129238D01*
X2365693Y3129128D01*
X2365637Y3128961D01*
X2365526Y3128739D01*
X2365471Y3128406D01*
X2365360Y3128017D01*
X2365249Y3127573D01*
X2365138Y3127019D01*
X2364972Y3126408D01*
X2364860Y3125742D01*
X2364749Y3125021D01*
X2364694Y3124244D01*
X2364583Y3123356D01*
X2364528Y3122468D01*
X2364472Y3121468D01*
Y3120470D01*
X2364528Y3120525D01*
X2364749Y3120858D01*
X2365138Y3121302D01*
X2365637Y3121857D01*
X2366193Y3122523D01*
X2366914Y3123133D01*
X2367691Y3123744D01*
X2368579Y3124299D01*
X2368635D01*
X2368690Y3124354D01*
X2369023Y3124521D01*
X2369523Y3124688D01*
X2370189Y3124965D01*
X2370965Y3125187D01*
X2371854Y3125354D01*
X2372797Y3125520D01*
X2373796Y3125575D01*
X2374240D01*
X2374573Y3125520D01*
X2375017Y3125465D01*
X2375461Y3125409D01*
X2376016Y3125298D01*
X2376571Y3125131D01*
X2377847Y3124743D01*
X2378514Y3124465D01*
X2379180Y3124077D01*
X2379845Y3123689D01*
X2380567Y3123244D01*
X2381233Y3122689D01*
X2381843Y3122079D01*
X2381899Y3122023D01*
X2382010Y3121912D01*
X2382177Y3121746D01*
X2382343Y3121468D01*
X2382620Y3121080D01*
X2382898Y3120691D01*
X2383175Y3120192D01*
X2383508Y3119637D01*
X2383841Y3119026D01*
X2384119Y3118360D01*
X2384396Y3117584D01*
X2384674Y3116807D01*
X2384840Y3115974D01*
X2385007Y3115030D01*
X2385118Y3114087D01*
X2385173Y3113088D01*
Y3113032D01*
Y3112921D01*
Y3112755D01*
Y3112477D01*
X2385118Y3112144D01*
Y3111811D01*
X2384952Y3110923D01*
X2384785Y3109869D01*
X2384508Y3108759D01*
X2384119Y3107538D01*
X2383564Y3106372D01*
Y3106317D01*
X2383508Y3106262D01*
X2383398Y3106095D01*
X2383287Y3105873D01*
X2382954Y3105318D01*
X2382454Y3104597D01*
X2381843Y3103820D01*
X2381122Y3103043D01*
X2380234Y3102265D01*
X2379291Y3101599D01*
X2379235D01*
X2379180Y3101544D01*
X2379013Y3101433D01*
X2378791Y3101378D01*
X2378236Y3101100D01*
X2377515Y3100823D01*
X2376571Y3100490D01*
X2375517Y3100267D01*
X2374351Y3100046D01*
X2373075Y3099990D01*
X2372797D01*
X2372519Y3100046D01*
X2372075D01*
X2371576Y3100101D01*
X2371021Y3100212D01*
X2370355Y3100378D01*
X2369689Y3100545D01*
X2368912Y3100767D01*
X2368135Y3101044D01*
X2367358Y3101378D01*
X2366526Y3101822D01*
X2365749Y3102321D01*
X2364972Y3102876D01*
X2364195Y3103542D01*
X2363473Y3104319D01*
X2363418Y3104374D01*
X2363307Y3104541D01*
X2363140Y3104763D01*
X2362918Y3105151D01*
X2362585Y3105651D01*
X2362307Y3106206D01*
X2361974Y3106927D01*
X2361642Y3107704D01*
X2361253Y3108648D01*
X2360920Y3109702D01*
X2360642Y3110868D01*
X2360365Y3112144D01*
X2360088Y3113588D01*
X2359921Y3115142D01*
X2359810Y3116807D01*
X2359755Y3118582D01*
Y3118638D01*
Y3118693D01*
Y3118860D01*
Y3119082D01*
X2359810Y3119637D01*
Y3120414D01*
X2359865Y3121302D01*
X2359977Y3122356D01*
X2360088Y3123522D01*
X2360254Y3124798D01*
X2360476Y3126075D01*
X2360753Y3127463D01*
X2361086Y3128794D01*
X2361475Y3130126D01*
X2361974Y3131403D01*
X2362530Y3132624D01*
X2363140Y3133789D01*
X2363861Y3134789D01*
X2363917Y3134844D01*
X2364028Y3134955D01*
X2364250Y3135177D01*
X2364528Y3135510D01*
X2364860Y3135843D01*
X2365305Y3136176D01*
X2365860Y3136620D01*
X2366414Y3137008D01*
X2367081Y3137397D01*
X2367802Y3137841D01*
X2368635Y3138174D01*
X2369467Y3138562D01*
X2370410Y3138840D01*
X2371410Y3139062D01*
X2372464Y3139173D01*
X2373574Y3139229D01*
X2374018D01*
X2374351Y3139173D01*
D02*
G37*
G36*
X2464039Y3129072D02*
X2464427Y3129017D01*
X2465260Y3128906D01*
X2466259Y3128684D01*
X2467314Y3128351D01*
X2468368Y3127851D01*
X2469423Y3127241D01*
X2469478D01*
X2469534Y3127130D01*
X2469867Y3126908D01*
X2470366Y3126464D01*
X2470977Y3125909D01*
X2471642Y3125187D01*
X2472309Y3124299D01*
X2472974Y3123245D01*
X2473530Y3122079D01*
Y3122024D01*
X2473585Y3121913D01*
X2473640Y3121746D01*
X2473751Y3121524D01*
X2473863Y3121191D01*
X2473974Y3120803D01*
X2474251Y3119915D01*
X2474528Y3118805D01*
X2474751Y3117584D01*
X2474917Y3116196D01*
X2474972Y3114753D01*
Y3114698D01*
Y3114587D01*
Y3114365D01*
Y3114032D01*
X2474917Y3113643D01*
Y3113199D01*
X2474806Y3112200D01*
X2474584Y3110979D01*
X2474307Y3109703D01*
X2473918Y3108371D01*
X2473419Y3107039D01*
Y3106983D01*
X2473363Y3106872D01*
X2473252Y3106706D01*
X2473141Y3106484D01*
X2472753Y3105873D01*
X2472253Y3105096D01*
X2471642Y3104264D01*
X2470865Y3103431D01*
X2469977Y3102599D01*
X2468923Y3101822D01*
X2468867D01*
X2468812Y3101766D01*
X2468646Y3101655D01*
X2468423Y3101544D01*
X2467869Y3101267D01*
X2467091Y3100934D01*
X2466148Y3100601D01*
X2465149Y3100323D01*
X2463983Y3100101D01*
X2462818Y3100046D01*
X2462430D01*
X2461985Y3100101D01*
X2461430Y3100157D01*
X2460765Y3100268D01*
X2460043Y3100434D01*
X2459322Y3100656D01*
X2458600Y3100989D01*
X2458544Y3101045D01*
X2458267Y3101156D01*
X2457934Y3101378D01*
X2457490Y3101711D01*
X2457046Y3102044D01*
X2456491Y3102488D01*
X2455992Y3102987D01*
X2455548Y3103542D01*
Y3090000D01*
X2450830D01*
Y3128517D01*
X2455104D01*
Y3124854D01*
X2455159Y3124965D01*
X2455381Y3125187D01*
X2455659Y3125575D01*
X2456102Y3126020D01*
X2456602Y3126575D01*
X2457157Y3127074D01*
X2457823Y3127574D01*
X2458489Y3128018D01*
X2458600Y3128073D01*
X2458822Y3128184D01*
X2459266Y3128351D01*
X2459821Y3128573D01*
X2460487Y3128795D01*
X2461264Y3128961D01*
X2462152Y3129072D01*
X2463151Y3129128D01*
X2463762D01*
X2464039Y3129072D01*
D02*
G37*
G36*
X2582143D02*
X2582532D01*
X2582920Y3129017D01*
X2583863Y3128850D01*
X2584863Y3128573D01*
X2585917Y3128129D01*
X2586972Y3127574D01*
X2587860Y3126797D01*
X2587970Y3126686D01*
X2588193Y3126353D01*
X2588581Y3125853D01*
X2588747Y3125465D01*
X2588970Y3125076D01*
X2589191Y3124577D01*
X2589358Y3124077D01*
X2589580Y3123522D01*
X2589747Y3122856D01*
X2589858Y3122190D01*
X2589968Y3121413D01*
X2590079Y3120636D01*
Y3119748D01*
Y3100656D01*
X2585362D01*
Y3118139D01*
Y3118194D01*
Y3118250D01*
Y3118583D01*
Y3119082D01*
X2585307Y3119693D01*
X2585251Y3120359D01*
X2585195Y3121025D01*
X2585084Y3121691D01*
X2584918Y3122190D01*
Y3122246D01*
X2584807Y3122412D01*
X2584696Y3122634D01*
X2584530Y3122912D01*
X2584307Y3123245D01*
X2584030Y3123578D01*
X2583697Y3123911D01*
X2583253Y3124244D01*
X2583198Y3124299D01*
X2583031Y3124355D01*
X2582809Y3124466D01*
X2582421Y3124632D01*
X2582032Y3124799D01*
X2581532Y3124910D01*
X2581033Y3124965D01*
X2580423Y3125021D01*
X2580145D01*
X2579923Y3124965D01*
X2579368Y3124910D01*
X2578702Y3124799D01*
X2577925Y3124521D01*
X2577093Y3124188D01*
X2576260Y3123689D01*
X2575483Y3123023D01*
X2575427Y3122912D01*
X2575206Y3122634D01*
X2574872Y3122190D01*
X2574539Y3121524D01*
X2574151Y3120636D01*
X2573874Y3119582D01*
X2573651Y3118305D01*
X2573541Y3116807D01*
Y3100656D01*
X2568823D01*
Y3118694D01*
Y3118749D01*
Y3118860D01*
Y3118971D01*
Y3119193D01*
X2568767Y3119804D01*
X2568657Y3120470D01*
X2568546Y3121247D01*
X2568323Y3122024D01*
X2568046Y3122745D01*
X2567657Y3123411D01*
X2567602Y3123467D01*
X2567436Y3123689D01*
X2567158Y3123911D01*
X2566769Y3124244D01*
X2566270Y3124521D01*
X2565604Y3124799D01*
X2564827Y3124965D01*
X2563883Y3125021D01*
X2563550D01*
X2563162Y3124965D01*
X2562718Y3124910D01*
X2562163Y3124743D01*
X2561497Y3124577D01*
X2560887Y3124299D01*
X2560220Y3123966D01*
X2560165Y3123911D01*
X2559943Y3123744D01*
X2559666Y3123522D01*
X2559277Y3123189D01*
X2558889Y3122745D01*
X2558500Y3122190D01*
X2558111Y3121580D01*
X2557778Y3120858D01*
X2557723Y3120747D01*
X2557668Y3120470D01*
X2557557Y3120026D01*
X2557390Y3119415D01*
X2557224Y3118583D01*
X2557113Y3117584D01*
X2557057Y3116418D01*
X2557001Y3115086D01*
Y3100656D01*
X2552284D01*
Y3128517D01*
X2556502D01*
Y3124521D01*
X2556557Y3124632D01*
X2556724Y3124854D01*
X2557057Y3125243D01*
X2557445Y3125687D01*
X2557945Y3126242D01*
X2558555Y3126797D01*
X2559222Y3127352D01*
X2559999Y3127851D01*
X2560110Y3127907D01*
X2560387Y3128073D01*
X2560831Y3128240D01*
X2561441Y3128517D01*
X2562163Y3128739D01*
X2562995Y3128906D01*
X2563939Y3129072D01*
X2564938Y3129128D01*
X2565438D01*
X2566048Y3129072D01*
X2566714Y3128961D01*
X2567546Y3128795D01*
X2568379Y3128573D01*
X2569211Y3128240D01*
X2569988Y3127796D01*
X2570099Y3127740D01*
X2570322Y3127574D01*
X2570655Y3127296D01*
X2571099Y3126852D01*
X2571543Y3126353D01*
X2572042Y3125742D01*
X2572486Y3125021D01*
X2572819Y3124188D01*
X2572874Y3124244D01*
X2572985Y3124410D01*
X2573152Y3124632D01*
X2573430Y3124965D01*
X2573762Y3125354D01*
X2574151Y3125742D01*
X2574595Y3126186D01*
X2575150Y3126686D01*
X2575760Y3127130D01*
X2576371Y3127574D01*
X2577093Y3127962D01*
X2577869Y3128351D01*
X2578702Y3128684D01*
X2579590Y3128906D01*
X2580478Y3129072D01*
X2581477Y3129128D01*
X2581865D01*
X2582143Y3129072D01*
D02*
G37*
G36*
X2435901Y3129072D02*
X2436289D01*
X2436677Y3129017D01*
X2437621Y3128850D01*
X2438620Y3128573D01*
X2439675Y3128128D01*
X2440729Y3127573D01*
X2441617Y3126796D01*
X2441728Y3126686D01*
X2441950Y3126352D01*
X2442338Y3125853D01*
X2442505Y3125465D01*
X2442727Y3125076D01*
X2442949Y3124577D01*
X2443115Y3124077D01*
X2443338Y3123522D01*
X2443504Y3122856D01*
X2443615Y3122190D01*
X2443726Y3121413D01*
X2443837Y3120636D01*
Y3119748D01*
Y3100656D01*
X2439119D01*
Y3118139D01*
Y3118194D01*
Y3118249D01*
Y3118582D01*
Y3119082D01*
X2439064Y3119693D01*
X2439008Y3120358D01*
X2438953Y3121024D01*
X2438842Y3121691D01*
X2438675Y3122190D01*
Y3122245D01*
X2438564Y3122412D01*
X2438454Y3122634D01*
X2438287Y3122912D01*
X2438065Y3123244D01*
X2437787Y3123577D01*
X2437454Y3123910D01*
X2437010Y3124244D01*
X2436955Y3124299D01*
X2436789Y3124354D01*
X2436566Y3124465D01*
X2436178Y3124632D01*
X2435789Y3124798D01*
X2435290Y3124910D01*
X2434791Y3124965D01*
X2434180Y3125021D01*
X2433903D01*
X2433680Y3124965D01*
X2433126Y3124910D01*
X2432459Y3124798D01*
X2431682Y3124521D01*
X2430850Y3124188D01*
X2430017Y3123689D01*
X2429240Y3123023D01*
X2429185Y3122912D01*
X2428963Y3122634D01*
X2428630Y3122190D01*
X2428297Y3121524D01*
X2427909Y3120636D01*
X2427631Y3119581D01*
X2427409Y3118305D01*
X2427298Y3116807D01*
Y3100656D01*
X2422581D01*
Y3118693D01*
Y3118749D01*
Y3118860D01*
Y3118971D01*
Y3119193D01*
X2422525Y3119803D01*
X2422414Y3120470D01*
X2422303Y3121247D01*
X2422081Y3122023D01*
X2421803Y3122745D01*
X2421415Y3123411D01*
X2421360Y3123466D01*
X2421193Y3123689D01*
X2420916Y3123910D01*
X2420527Y3124244D01*
X2420028Y3124521D01*
X2419361Y3124798D01*
X2418584Y3124965D01*
X2417641Y3125021D01*
X2417308D01*
X2416919Y3124965D01*
X2416476Y3124910D01*
X2415921Y3124743D01*
X2415255Y3124577D01*
X2414644Y3124299D01*
X2413978Y3123966D01*
X2413923Y3123910D01*
X2413700Y3123744D01*
X2413423Y3123522D01*
X2413035Y3123189D01*
X2412646Y3122745D01*
X2412258Y3122190D01*
X2411869Y3121579D01*
X2411536Y3120858D01*
X2411481Y3120747D01*
X2411425Y3120470D01*
X2411314Y3120026D01*
X2411148Y3119415D01*
X2410981Y3118582D01*
X2410870Y3117584D01*
X2410814Y3116418D01*
X2410759Y3115086D01*
Y3100656D01*
X2406041D01*
Y3128517D01*
X2410260D01*
Y3124521D01*
X2410315Y3124632D01*
X2410481Y3124854D01*
X2410814Y3125242D01*
X2411203Y3125686D01*
X2411702Y3126242D01*
X2412313Y3126796D01*
X2412979Y3127352D01*
X2413756Y3127851D01*
X2413867Y3127907D01*
X2414144Y3128073D01*
X2414588Y3128240D01*
X2415199Y3128517D01*
X2415921Y3128739D01*
X2416753Y3128905D01*
X2417697Y3129072D01*
X2418695Y3129128D01*
X2419195D01*
X2419805Y3129072D01*
X2420472Y3128961D01*
X2421304Y3128794D01*
X2422137Y3128573D01*
X2422969Y3128240D01*
X2423746Y3127796D01*
X2423857Y3127740D01*
X2424079Y3127573D01*
X2424412Y3127296D01*
X2424856Y3126852D01*
X2425300Y3126352D01*
X2425800Y3125742D01*
X2426244Y3125021D01*
X2426577Y3124188D01*
X2426632Y3124244D01*
X2426743Y3124410D01*
X2426910Y3124632D01*
X2427187Y3124965D01*
X2427520Y3125354D01*
X2427909Y3125742D01*
X2428352Y3126186D01*
X2428907Y3126686D01*
X2429518Y3127130D01*
X2430128Y3127573D01*
X2430850Y3127962D01*
X2431627Y3128351D01*
X2432459Y3128684D01*
X2433347Y3128905D01*
X2434235Y3129072D01*
X2435235Y3129128D01*
X2435623D01*
X2435901Y3129072D01*
D02*
G37*
G36*
X2344714D02*
X2345546Y3129017D01*
X2346434Y3128905D01*
X2347378Y3128684D01*
X2348377Y3128461D01*
X2349320Y3128128D01*
X2349376D01*
X2349432Y3128073D01*
X2349709Y3127962D01*
X2350153Y3127740D01*
X2350708Y3127463D01*
X2351318Y3127074D01*
X2351929Y3126630D01*
X2352484Y3126131D01*
X2352983Y3125575D01*
X2353039Y3125520D01*
X2353150Y3125298D01*
X2353372Y3124910D01*
X2353649Y3124465D01*
X2353927Y3123800D01*
X2354204Y3123078D01*
X2354427Y3122245D01*
X2354648Y3121302D01*
X2350042Y3120691D01*
Y3120802D01*
X2349986Y3121024D01*
X2349876Y3121413D01*
X2349709Y3121912D01*
X2349432Y3122412D01*
X2349099Y3122967D01*
X2348710Y3123522D01*
X2348155Y3124021D01*
X2348099Y3124077D01*
X2347878Y3124188D01*
X2347544Y3124410D01*
X2347045Y3124632D01*
X2346490Y3124854D01*
X2345769Y3125076D01*
X2344881Y3125187D01*
X2343937Y3125242D01*
X2343382D01*
X2342827Y3125187D01*
X2342106Y3125131D01*
X2341384Y3124965D01*
X2340607Y3124798D01*
X2339885Y3124521D01*
X2339275Y3124133D01*
X2339220Y3124077D01*
X2339053Y3123966D01*
X2338831Y3123744D01*
X2338609Y3123411D01*
X2338331Y3123078D01*
X2338110Y3122634D01*
X2337943Y3122135D01*
X2337887Y3121635D01*
Y3121579D01*
Y3121468D01*
X2337943Y3121302D01*
Y3121080D01*
X2338110Y3120525D01*
X2338443Y3119970D01*
X2338498Y3119914D01*
X2338553Y3119859D01*
X2338664Y3119693D01*
X2338887Y3119526D01*
X2339108Y3119360D01*
X2339441Y3119137D01*
X2339830Y3118971D01*
X2340274Y3118749D01*
X2340329D01*
X2340441Y3118693D01*
X2340662Y3118638D01*
X2341051Y3118472D01*
X2341606Y3118305D01*
X2342327Y3118139D01*
X2342771Y3117972D01*
X2343271Y3117861D01*
X2343826Y3117695D01*
X2344436Y3117528D01*
X2344492D01*
X2344659Y3117472D01*
X2344936Y3117417D01*
X2345269Y3117306D01*
X2345657Y3117195D01*
X2346157Y3117084D01*
X2347211Y3116751D01*
X2348377Y3116418D01*
X2349543Y3116030D01*
X2350597Y3115641D01*
X2351041Y3115474D01*
X2351430Y3115308D01*
X2351541Y3115253D01*
X2351762Y3115142D01*
X2352095Y3114975D01*
X2352595Y3114698D01*
X2353095Y3114365D01*
X2353594Y3113921D01*
X2354093Y3113421D01*
X2354537Y3112866D01*
X2354593Y3112811D01*
X2354704Y3112588D01*
X2354926Y3112256D01*
X2355148Y3111756D01*
X2355314Y3111146D01*
X2355537Y3110479D01*
X2355648Y3109702D01*
X2355703Y3108814D01*
Y3108704D01*
Y3108426D01*
X2355648Y3107982D01*
X2355537Y3107372D01*
X2355370Y3106706D01*
X2355093Y3105984D01*
X2354760Y3105151D01*
X2354316Y3104374D01*
X2354260Y3104264D01*
X2354038Y3104041D01*
X2353760Y3103653D01*
X2353316Y3103209D01*
X2352706Y3102709D01*
X2352040Y3102155D01*
X2351263Y3101655D01*
X2350320Y3101155D01*
X2350264D01*
X2350209Y3101100D01*
X2349876Y3100989D01*
X2349320Y3100823D01*
X2348599Y3100601D01*
X2347711Y3100378D01*
X2346712Y3100212D01*
X2345657Y3100101D01*
X2344436Y3100046D01*
X2343937D01*
X2343548Y3100101D01*
X2343104D01*
X2342550Y3100157D01*
X2341994Y3100212D01*
X2341384Y3100323D01*
X2340052Y3100601D01*
X2338664Y3100989D01*
X2337332Y3101544D01*
X2336722Y3101877D01*
X2336167Y3102265D01*
X2336111Y3102321D01*
X2336056Y3102376D01*
X2335723Y3102709D01*
X2335224Y3103209D01*
X2334669Y3103986D01*
X2334058Y3104930D01*
X2333448Y3106039D01*
X2332948Y3107427D01*
X2332559Y3108981D01*
X2337222Y3109702D01*
Y3109647D01*
Y3109591D01*
X2337332Y3109258D01*
X2337443Y3108704D01*
X2337666Y3108093D01*
X2337943Y3107427D01*
X2338276Y3106706D01*
X2338776Y3105984D01*
X2339386Y3105374D01*
X2339497Y3105318D01*
X2339719Y3105151D01*
X2340163Y3104930D01*
X2340718Y3104652D01*
X2341439Y3104374D01*
X2342272Y3104153D01*
X2343271Y3103986D01*
X2344436Y3103930D01*
X2344992D01*
X2345546Y3103986D01*
X2346268Y3104097D01*
X2347045Y3104264D01*
X2347878Y3104485D01*
X2348599Y3104763D01*
X2349265Y3105207D01*
X2349320Y3105262D01*
X2349543Y3105429D01*
X2349765Y3105706D01*
X2350097Y3106095D01*
X2350375Y3106539D01*
X2350653Y3107094D01*
X2350819Y3107649D01*
X2350874Y3108315D01*
Y3108370D01*
Y3108593D01*
X2350819Y3108870D01*
X2350708Y3109258D01*
X2350541Y3109647D01*
X2350264Y3110035D01*
X2349931Y3110479D01*
X2349432Y3110812D01*
X2349376Y3110868D01*
X2349209Y3110923D01*
X2348932Y3111090D01*
X2348488Y3111256D01*
X2347822Y3111479D01*
X2347434Y3111645D01*
X2346990Y3111756D01*
X2346490Y3111923D01*
X2345935Y3112089D01*
X2345325Y3112256D01*
X2344603Y3112422D01*
X2344548D01*
X2344381Y3112477D01*
X2344104Y3112533D01*
X2343771Y3112644D01*
X2343327Y3112755D01*
X2342827Y3112921D01*
X2341773Y3113199D01*
X2340552Y3113588D01*
X2339386Y3113921D01*
X2338276Y3114309D01*
X2337776Y3114531D01*
X2337388Y3114698D01*
X2337277Y3114753D01*
X2337055Y3114864D01*
X2336722Y3115086D01*
X2336278Y3115363D01*
X2335778Y3115752D01*
X2335279Y3116196D01*
X2334780Y3116695D01*
X2334336Y3117306D01*
X2334280Y3117361D01*
X2334169Y3117584D01*
X2334003Y3117972D01*
X2333836Y3118416D01*
X2333669Y3118971D01*
X2333503Y3119637D01*
X2333392Y3120303D01*
X2333336Y3121080D01*
Y3121191D01*
Y3121413D01*
X2333392Y3121746D01*
X2333448Y3122245D01*
X2333559Y3122745D01*
X2333669Y3123356D01*
X2333892Y3123910D01*
X2334169Y3124521D01*
X2334224Y3124577D01*
X2334336Y3124798D01*
X2334502Y3125076D01*
X2334780Y3125465D01*
X2335113Y3125853D01*
X2335501Y3126352D01*
X2335945Y3126796D01*
X2336500Y3127185D01*
X2336555Y3127240D01*
X2336722Y3127296D01*
X2336944Y3127463D01*
X2337277Y3127629D01*
X2337721Y3127851D01*
X2338220Y3128073D01*
X2338831Y3128295D01*
X2339497Y3128517D01*
X2339608Y3128573D01*
X2339830Y3128628D01*
X2340218Y3128739D01*
X2340718Y3128850D01*
X2341329Y3128961D01*
X2341994Y3129017D01*
X2342771Y3129128D01*
X2344104D01*
X2344714Y3129072D01*
D02*
G37*
G36*
X2507662Y3129072D02*
X2507995D01*
X2508439Y3129017D01*
X2509494Y3128850D01*
X2510659Y3128573D01*
X2511880Y3128129D01*
X2513101Y3127574D01*
X2514267Y3126797D01*
X2514322D01*
X2514378Y3126686D01*
X2514711Y3126353D01*
X2515210Y3125853D01*
X2515820Y3125132D01*
X2516431Y3124244D01*
X2517041Y3123134D01*
X2517597Y3121857D01*
X2517985Y3120359D01*
X2513378Y3119637D01*
Y3119693D01*
X2513323Y3119748D01*
X2513267Y3120081D01*
X2513101Y3120581D01*
X2512823Y3121191D01*
X2512546Y3121857D01*
X2512102Y3122579D01*
X2511602Y3123245D01*
X2511048Y3123800D01*
X2510992Y3123855D01*
X2510770Y3124022D01*
X2510381Y3124244D01*
X2509938Y3124521D01*
X2509327Y3124799D01*
X2508661Y3125021D01*
X2507884Y3125187D01*
X2507052Y3125243D01*
X2506718D01*
X2506441Y3125187D01*
X2505831Y3125132D01*
X2504998Y3124910D01*
X2504110Y3124632D01*
X2503111Y3124188D01*
X2502168Y3123522D01*
X2501724Y3123134D01*
X2501280Y3122690D01*
Y3122634D01*
X2501169Y3122579D01*
X2501057Y3122412D01*
X2500947Y3122190D01*
X2500780Y3121913D01*
X2500558Y3121580D01*
X2500392Y3121191D01*
X2500169Y3120747D01*
X2499948Y3120192D01*
X2499781Y3119582D01*
X2499559Y3118916D01*
X2499392Y3118194D01*
X2499282Y3117417D01*
X2499171Y3116529D01*
X2499059Y3115586D01*
Y3114587D01*
Y3114531D01*
Y3114365D01*
Y3114032D01*
X2499115Y3113699D01*
Y3113199D01*
X2499171Y3112700D01*
X2499337Y3111479D01*
X2499559Y3110147D01*
X2499948Y3108759D01*
X2500447Y3107538D01*
X2500780Y3106928D01*
X2501169Y3106428D01*
X2501280Y3106317D01*
X2501557Y3106040D01*
X2502057Y3105651D01*
X2502667Y3105207D01*
X2503499Y3104708D01*
X2504443Y3104319D01*
X2505553Y3104042D01*
X2506164Y3103986D01*
X2506774Y3103931D01*
X2506885D01*
X2507218Y3103986D01*
X2507773Y3104042D01*
X2508383Y3104153D01*
X2509105Y3104319D01*
X2509882Y3104652D01*
X2510659Y3105041D01*
X2511381Y3105596D01*
X2511492Y3105651D01*
X2511658Y3105929D01*
X2511991Y3106317D01*
X2512380Y3106928D01*
X2512768Y3107649D01*
X2513212Y3108537D01*
X2513545Y3109647D01*
X2513767Y3110868D01*
X2518429Y3110258D01*
Y3110202D01*
X2518374Y3110036D01*
X2518318Y3109814D01*
X2518262Y3109481D01*
X2518151Y3109037D01*
X2518041Y3108593D01*
X2517652Y3107483D01*
X2517153Y3106317D01*
X2516431Y3105041D01*
X2515543Y3103820D01*
X2515044Y3103265D01*
X2514488Y3102710D01*
X2514433Y3102654D01*
X2514322Y3102599D01*
X2514155Y3102488D01*
X2513934Y3102321D01*
X2513656Y3102099D01*
X2513267Y3101877D01*
X2512823Y3101655D01*
X2512380Y3101378D01*
X2511269Y3100878D01*
X2509938Y3100490D01*
X2508494Y3100157D01*
X2507662Y3100101D01*
X2506829Y3100046D01*
X2506274D01*
X2505886Y3100101D01*
X2505387Y3100157D01*
X2504831Y3100268D01*
X2504221Y3100379D01*
X2503555Y3100490D01*
X2502057Y3100934D01*
X2501335Y3101267D01*
X2500558Y3101600D01*
X2499781Y3102044D01*
X2499059Y3102543D01*
X2498338Y3103098D01*
X2497672Y3103764D01*
X2497617Y3103820D01*
X2497506Y3103931D01*
X2497339Y3104153D01*
X2497117Y3104430D01*
X2496895Y3104819D01*
X2496562Y3105318D01*
X2496285Y3105873D01*
X2495952Y3106484D01*
X2495619Y3107205D01*
X2495341Y3108038D01*
X2495008Y3108870D01*
X2494786Y3109869D01*
X2494564Y3110868D01*
X2494398Y3112034D01*
X2494287Y3113199D01*
X2494231Y3114476D01*
Y3114531D01*
Y3114698D01*
Y3114920D01*
Y3115253D01*
X2494287Y3115641D01*
Y3116085D01*
X2494342Y3116585D01*
X2494398Y3117140D01*
X2494564Y3118361D01*
X2494841Y3119693D01*
X2495175Y3121025D01*
X2495674Y3122357D01*
Y3122412D01*
X2495729Y3122523D01*
X2495840Y3122690D01*
X2495952Y3122912D01*
X2496285Y3123522D01*
X2496784Y3124244D01*
X2497450Y3125076D01*
X2498227Y3125909D01*
X2499171Y3126741D01*
X2500225Y3127407D01*
X2500280D01*
X2500392Y3127463D01*
X2500558Y3127574D01*
X2500780Y3127685D01*
X2501057Y3127796D01*
X2501390Y3127962D01*
X2502223Y3128295D01*
X2503166Y3128573D01*
X2504332Y3128850D01*
X2505553Y3129072D01*
X2506885Y3129128D01*
X2507329D01*
X2507662Y3129072D01*
D02*
G37*
G36*
X2276893Y3100656D02*
X2272064D01*
X2267624Y3117306D01*
X2266515Y3122079D01*
X2260909Y3100656D01*
X2255914D01*
X2247478Y3128517D01*
X2252418D01*
X2256858Y3112422D01*
X2258412Y3106428D01*
Y3106483D01*
X2258467Y3106595D01*
X2258523Y3106872D01*
X2258578Y3107039D01*
X2258633Y3107316D01*
X2258689Y3107649D01*
X2258800Y3108037D01*
X2258911Y3108481D01*
X2259077Y3109037D01*
X2259244Y3109647D01*
X2259410Y3110369D01*
X2259633Y3111201D01*
X2259854Y3112144D01*
X2264294Y3128517D01*
X2269123D01*
X2273285Y3112311D01*
X2274673Y3106983D01*
X2276282Y3112367D01*
X2281055Y3128517D01*
X2285662D01*
X2276893Y3100656D01*
D02*
G37*
G36*
X2238154D02*
X2233325D01*
X2228885Y3117306D01*
X2227776Y3122079D01*
X2222170Y3100656D01*
X2217175D01*
X2208739Y3128517D01*
X2213678D01*
X2218119Y3112422D01*
X2219673Y3106428D01*
Y3106483D01*
X2219728Y3106595D01*
X2219784Y3106872D01*
X2219839Y3107039D01*
X2219894Y3107316D01*
X2219950Y3107649D01*
X2220061Y3108037D01*
X2220172Y3108481D01*
X2220338Y3109037D01*
X2220505Y3109647D01*
X2220671Y3110369D01*
X2220894Y3111201D01*
X2221115Y3112144D01*
X2225555Y3128517D01*
X2230384D01*
X2234546Y3112311D01*
X2235934Y3106983D01*
X2237544Y3112367D01*
X2242316Y3128517D01*
X2246923D01*
X2238154Y3100656D01*
D02*
G37*
G36*
X2199415D02*
X2194586D01*
X2190146Y3117306D01*
X2189037Y3122079D01*
X2183431Y3100656D01*
X2178436D01*
X2170000Y3128517D01*
X2174939D01*
X2179380Y3112422D01*
X2180934Y3106428D01*
Y3106483D01*
X2180989Y3106595D01*
X2181044Y3106872D01*
X2181100Y3107039D01*
X2181155Y3107316D01*
X2181211Y3107649D01*
X2181322Y3108037D01*
X2181433Y3108481D01*
X2181599Y3109037D01*
X2181766Y3109647D01*
X2181932Y3110369D01*
X2182155Y3111201D01*
X2182376Y3112144D01*
X2186816Y3128517D01*
X2191645D01*
X2195807Y3112311D01*
X2197195Y3106983D01*
X2198805Y3112367D01*
X2203577Y3128517D01*
X2208184D01*
X2199415Y3100656D01*
D02*
G37*
G36*
X2487405Y3100656D02*
X2482021D01*
Y3106040D01*
X2487405D01*
Y3100656D01*
D02*
G37*
G36*
X2323069Y3114198D02*
X2328286D01*
Y3109869D01*
X2323069D01*
Y3100656D01*
X2318352D01*
Y3109869D01*
X2301646D01*
Y3114198D01*
X2319240Y3139062D01*
X2323069D01*
Y3114198D01*
D02*
G37*
G36*
X2296374Y3100656D02*
X2290990D01*
Y3106039D01*
X2296374D01*
Y3100656D01*
D02*
G37*
G36*
X2396662Y3128517D02*
X2401435D01*
Y3124854D01*
X2396662D01*
Y3108481D01*
Y3108370D01*
Y3108148D01*
Y3107816D01*
X2396718Y3107427D01*
X2396773Y3106539D01*
X2396829Y3106151D01*
X2396884Y3105873D01*
X2396939Y3105762D01*
X2397106Y3105540D01*
X2397328Y3105262D01*
X2397716Y3104985D01*
X2397827Y3104930D01*
X2398105Y3104818D01*
X2398604Y3104707D01*
X2399326Y3104652D01*
X2399881D01*
X2400159Y3104707D01*
X2400547D01*
X2400991Y3104763D01*
X2401435Y3104818D01*
X2402046Y3100656D01*
X2401934D01*
X2401713Y3100601D01*
X2401324Y3100545D01*
X2400825Y3100490D01*
X2400269Y3100378D01*
X2399659Y3100323D01*
X2398438Y3100267D01*
X2397994D01*
X2397550Y3100323D01*
X2396995Y3100378D01*
X2396329Y3100434D01*
X2395663Y3100601D01*
X2395052Y3100767D01*
X2394442Y3101044D01*
X2394387Y3101100D01*
X2394220Y3101211D01*
X2393998Y3101378D01*
X2393665Y3101655D01*
X2393387Y3101932D01*
X2393055Y3102321D01*
X2392722Y3102709D01*
X2392499Y3103209D01*
Y3103265D01*
X2392389Y3103486D01*
X2392333Y3103875D01*
X2392222Y3104430D01*
X2392111Y3105151D01*
X2392055Y3105595D01*
Y3106095D01*
X2392000Y3106706D01*
X2391945Y3107316D01*
Y3107982D01*
Y3108759D01*
Y3124854D01*
X2388448D01*
Y3128517D01*
X2391945D01*
Y3135399D01*
X2396662Y3138229D01*
Y3128517D01*
D02*
G37*
G36*
X2534691Y3129072D02*
X2535190Y3129017D01*
X2535745Y3128906D01*
X2536356Y3128795D01*
X2537077Y3128684D01*
X2538575Y3128184D01*
X2539352Y3127907D01*
X2540130Y3127518D01*
X2540907Y3127130D01*
X2541684Y3126575D01*
X2542405Y3126020D01*
X2543126Y3125354D01*
X2543182Y3125298D01*
X2543293Y3125187D01*
X2543459Y3124965D01*
X2543682Y3124688D01*
X2543959Y3124299D01*
X2544292Y3123800D01*
X2544625Y3123245D01*
X2544958Y3122634D01*
X2545291Y3121968D01*
X2545624Y3121136D01*
X2545957Y3120303D01*
X2546235Y3119360D01*
X2546456Y3118361D01*
X2546623Y3117306D01*
X2546734Y3116196D01*
X2546789Y3114975D01*
Y3114920D01*
Y3114753D01*
Y3114476D01*
Y3114087D01*
X2546734Y3113643D01*
X2546678Y3113088D01*
Y3112533D01*
X2546568Y3111923D01*
X2546401Y3110535D01*
X2546068Y3109148D01*
X2545680Y3107760D01*
X2545124Y3106484D01*
Y3106428D01*
X2545069Y3106373D01*
X2544958Y3106206D01*
X2544847Y3105984D01*
X2544459Y3105429D01*
X2543959Y3104763D01*
X2543293Y3103986D01*
X2542461Y3103209D01*
X2541517Y3102432D01*
X2540407Y3101711D01*
X2540352D01*
X2540296Y3101655D01*
X2540130Y3101544D01*
X2539852Y3101433D01*
X2539575Y3101322D01*
X2539242Y3101211D01*
X2538409Y3100878D01*
X2537465Y3100601D01*
X2536300Y3100323D01*
X2535079Y3100101D01*
X2533747Y3100046D01*
X2533192D01*
X2532748Y3100101D01*
X2532249Y3100157D01*
X2531693Y3100268D01*
X2531028Y3100379D01*
X2530361Y3100490D01*
X2528863Y3100934D01*
X2528030Y3101267D01*
X2527253Y3101600D01*
X2526477Y3102044D01*
X2525700Y3102543D01*
X2524978Y3103098D01*
X2524256Y3103764D01*
X2524201Y3103820D01*
X2524090Y3103931D01*
X2523923Y3104153D01*
X2523702Y3104486D01*
X2523424Y3104874D01*
X2523146Y3105318D01*
X2522814Y3105873D01*
X2522481Y3106539D01*
X2522148Y3107261D01*
X2521814Y3108093D01*
X2521537Y3108981D01*
X2521260Y3109925D01*
X2521037Y3110979D01*
X2520871Y3112089D01*
X2520760Y3113310D01*
X2520704Y3114587D01*
Y3114698D01*
Y3114920D01*
X2520760Y3115308D01*
Y3115863D01*
X2520816Y3116474D01*
X2520927Y3117251D01*
X2521037Y3118028D01*
X2521260Y3118916D01*
X2521481Y3119804D01*
X2521759Y3120747D01*
X2522092Y3121746D01*
X2522536Y3122690D01*
X2522980Y3123578D01*
X2523590Y3124466D01*
X2524201Y3125298D01*
X2524978Y3126020D01*
X2525034Y3126075D01*
X2525144Y3126131D01*
X2525367Y3126297D01*
X2525644Y3126519D01*
X2525977Y3126741D01*
X2526421Y3127019D01*
X2526865Y3127296D01*
X2527420Y3127574D01*
X2528030Y3127851D01*
X2528697Y3128129D01*
X2530195Y3128628D01*
X2531916Y3129017D01*
X2532803Y3129072D01*
X2533747Y3129128D01*
X2534302D01*
X2534691Y3129072D01*
D02*
G37*
G36*
X2626109Y3645910D02*
Y3555000D01*
X2175000D01*
Y3645910D01*
X2626109D01*
D02*
G37*
G36*
X2693953Y3451403D02*
X2685961Y3446352D01*
X2685906D01*
X2685795Y3446242D01*
X2685628Y3446131D01*
X2685406Y3445964D01*
X2684796Y3445575D01*
X2684019Y3445076D01*
X2683186Y3444465D01*
X2682298Y3443855D01*
X2681466Y3443244D01*
X2680689Y3442689D01*
X2680633Y3442634D01*
X2680411Y3442468D01*
X2680078Y3442190D01*
X2679690Y3441802D01*
X2678857Y3440969D01*
X2678469Y3440525D01*
X2678136Y3440081D01*
X2678080Y3440026D01*
X2678025Y3439914D01*
X2677914Y3439693D01*
X2677747Y3439360D01*
X2677581Y3439026D01*
X2677414Y3438638D01*
X2677137Y3437750D01*
Y3437695D01*
X2677081Y3437584D01*
Y3437361D01*
X2677026Y3437084D01*
X2676970Y3436695D01*
Y3436251D01*
X2676915Y3435641D01*
Y3429092D01*
X2693953D01*
Y3423986D01*
X2655547D01*
Y3441802D01*
X2655603Y3442245D01*
Y3442745D01*
X2655658Y3443910D01*
X2655825Y3445131D01*
X2655991Y3446463D01*
X2656269Y3447684D01*
X2656435Y3448295D01*
X2656602Y3448794D01*
Y3448850D01*
X2656657Y3448905D01*
X2656824Y3449238D01*
X2657046Y3449738D01*
X2657434Y3450349D01*
X2657934Y3451015D01*
X2658600Y3451736D01*
X2659377Y3452402D01*
X2660265Y3453068D01*
X2660320D01*
X2660376Y3453124D01*
X2660709Y3453345D01*
X2661264Y3453568D01*
X2661985Y3453901D01*
X2662818Y3454178D01*
X2663817Y3454456D01*
X2664871Y3454622D01*
X2666037Y3454677D01*
X2666092D01*
X2666203D01*
X2666425D01*
X2666703Y3454622D01*
X2667091D01*
X2667480Y3454566D01*
X2668423Y3454345D01*
X2669533Y3454012D01*
X2670699Y3453568D01*
X2671864Y3452901D01*
X2672419Y3452457D01*
X2672974Y3452014D01*
X2673030Y3451958D01*
X2673085Y3451903D01*
X2673252Y3451736D01*
X2673418Y3451514D01*
X2673640Y3451236D01*
X2673862Y3450903D01*
X2674140Y3450459D01*
X2674473Y3450015D01*
X2674750Y3449461D01*
X2675028Y3448850D01*
X2675361Y3448184D01*
X2675638Y3447463D01*
X2675860Y3446630D01*
X2676138Y3445798D01*
X2676304Y3444854D01*
X2676471Y3443855D01*
X2676526Y3443966D01*
X2676637Y3444188D01*
X2676859Y3444521D01*
X2677081Y3444965D01*
X2677692Y3445964D01*
X2678080Y3446463D01*
X2678413Y3446907D01*
X2678524Y3447019D01*
X2678802Y3447296D01*
X2679246Y3447740D01*
X2679801Y3448295D01*
X2680578Y3448905D01*
X2681410Y3449627D01*
X2682409Y3450349D01*
X2683519Y3451126D01*
X2693953Y3457730D01*
Y3451403D01*
D02*
G37*
G36*
Y3405171D02*
X2663928D01*
X2663983Y3405116D01*
X2664205Y3404838D01*
X2664538Y3404506D01*
X2664927Y3403950D01*
X2665426Y3403340D01*
X2665981Y3402563D01*
X2666592Y3401675D01*
X2667202Y3400676D01*
Y3400620D01*
X2667258Y3400565D01*
X2667480Y3400232D01*
X2667757Y3399677D01*
X2668090Y3399011D01*
X2668479Y3398234D01*
X2668867Y3397401D01*
X2669256Y3396569D01*
X2669589Y3395736D01*
X2665038D01*
Y3395792D01*
X2664927Y3395903D01*
X2664871Y3396125D01*
X2664705Y3396403D01*
X2664538Y3396735D01*
X2664316Y3397124D01*
X2663761Y3398068D01*
X2663151Y3399177D01*
X2662374Y3400287D01*
X2661486Y3401453D01*
X2660542Y3402619D01*
X2660487Y3402674D01*
X2660431Y3402729D01*
X2660265Y3402896D01*
X2660098Y3403118D01*
X2659543Y3403617D01*
X2658877Y3404284D01*
X2658100Y3404950D01*
X2657212Y3405671D01*
X2656324Y3406282D01*
X2655381Y3406836D01*
Y3409889D01*
X2693953D01*
Y3405171D01*
D02*
G37*
G36*
X2681854Y3387689D02*
X2682298Y3387633D01*
X2682798Y3387578D01*
X2683408Y3387467D01*
X2684019Y3387356D01*
X2685462Y3387023D01*
X2686960Y3386468D01*
X2687737Y3386135D01*
X2688459Y3385691D01*
X2689236Y3385247D01*
X2689957Y3384692D01*
X2690013Y3384637D01*
X2690179Y3384526D01*
X2690401Y3384303D01*
X2690679Y3384026D01*
X2691012Y3383637D01*
X2691456Y3383193D01*
X2691844Y3382639D01*
X2692288Y3382028D01*
X2692732Y3381362D01*
X2693121Y3380585D01*
X2693509Y3379753D01*
X2693898Y3378865D01*
X2694175Y3377921D01*
X2694397Y3376867D01*
X2694564Y3375756D01*
X2694619Y3374591D01*
Y3374091D01*
X2694564Y3373703D01*
X2694508Y3373259D01*
X2694453Y3372760D01*
X2694397Y3372149D01*
X2694231Y3371539D01*
X2693898Y3370151D01*
X2693398Y3368764D01*
X2693065Y3368042D01*
X2692677Y3367320D01*
X2692233Y3366655D01*
X2691733Y3365988D01*
X2691678Y3365933D01*
X2691622Y3365822D01*
X2691400Y3365711D01*
X2691178Y3365489D01*
X2690901Y3365211D01*
X2690568Y3364934D01*
X2690124Y3364601D01*
X2689624Y3364323D01*
X2689125Y3363990D01*
X2688514Y3363657D01*
X2687182Y3363047D01*
X2685628Y3362548D01*
X2684796Y3362381D01*
X2683908Y3362270D01*
X2683519Y3367209D01*
X2683575D01*
X2683686D01*
X2683852Y3367265D01*
X2684130Y3367320D01*
X2684740Y3367487D01*
X2685573Y3367709D01*
X2686405Y3368042D01*
X2687349Y3368486D01*
X2688181Y3369041D01*
X2688958Y3369707D01*
X2689014Y3369818D01*
X2689236Y3370040D01*
X2689513Y3370484D01*
X2689846Y3371095D01*
X2690179Y3371760D01*
X2690457Y3372593D01*
X2690679Y3373537D01*
X2690734Y3374591D01*
Y3374924D01*
X2690679Y3375146D01*
X2690623Y3375812D01*
X2690401Y3376589D01*
X2690124Y3377532D01*
X2689680Y3378476D01*
X2689014Y3379475D01*
X2688625Y3379919D01*
X2688181Y3380363D01*
X2688126Y3380419D01*
X2688070Y3380474D01*
X2687904Y3380585D01*
X2687737Y3380751D01*
X2687127Y3381140D01*
X2686350Y3381584D01*
X2685406Y3381972D01*
X2684241Y3382361D01*
X2682853Y3382639D01*
X2682132Y3382749D01*
X2681355D01*
X2681299D01*
X2681188D01*
X2680966D01*
X2680689Y3382694D01*
X2680356D01*
X2679967Y3382639D01*
X2679079Y3382472D01*
X2678025Y3382195D01*
X2676970Y3381806D01*
X2675971Y3381251D01*
X2675028Y3380474D01*
X2674972D01*
X2674917Y3380363D01*
X2674639Y3380086D01*
X2674251Y3379586D01*
X2673807Y3378920D01*
X2673418Y3378032D01*
X2673030Y3377033D01*
X2672752Y3375867D01*
X2672641Y3375202D01*
Y3374147D01*
X2672697Y3373703D01*
X2672752Y3373148D01*
X2672919Y3372482D01*
X2673085Y3371816D01*
X2673363Y3371095D01*
X2673696Y3370373D01*
X2673751Y3370318D01*
X2673862Y3370095D01*
X2674140Y3369762D01*
X2674417Y3369318D01*
X2674806Y3368874D01*
X2675305Y3368430D01*
X2675805Y3367931D01*
X2676415Y3367543D01*
X2675805Y3363102D01*
X2656047Y3366821D01*
Y3385913D01*
X2660542D01*
Y3370539D01*
X2670921Y3368486D01*
X2670865Y3368541D01*
X2670810Y3368653D01*
X2670699Y3368819D01*
X2670532Y3369097D01*
X2670366Y3369430D01*
X2670144Y3369818D01*
X2669700Y3370706D01*
X2669256Y3371816D01*
X2668867Y3373037D01*
X2668590Y3374369D01*
X2668479Y3375035D01*
Y3376256D01*
X2668534Y3376589D01*
X2668590Y3377033D01*
X2668645Y3377532D01*
X2668756Y3378088D01*
X2668923Y3378698D01*
X2669311Y3380030D01*
X2669589Y3380751D01*
X2669977Y3381473D01*
X2670366Y3382195D01*
X2670810Y3382916D01*
X2671365Y3383582D01*
X2671975Y3384248D01*
X2672031Y3384303D01*
X2672142Y3384414D01*
X2672308Y3384581D01*
X2672586Y3384803D01*
X2672974Y3385081D01*
X2673363Y3385358D01*
X2673862Y3385691D01*
X2674417Y3386024D01*
X2675028Y3386302D01*
X2675694Y3386635D01*
X2676471Y3386912D01*
X2677248Y3387189D01*
X2678080Y3387412D01*
X2679024Y3387578D01*
X2679967Y3387689D01*
X2680966Y3387744D01*
X2681022D01*
X2681188D01*
X2681466D01*
X2681854Y3387689D01*
D02*
G37*
G36*
X1978787Y3194458D02*
X1963414D01*
X1961360Y3184079D01*
X1961416Y3184135D01*
X1961526Y3184190D01*
X1961693Y3184301D01*
X1961970Y3184468D01*
X1962303Y3184634D01*
X1962692Y3184856D01*
X1963580Y3185300D01*
X1964690Y3185744D01*
X1965911Y3186133D01*
X1967243Y3186410D01*
X1967909Y3186521D01*
X1969130D01*
X1969463Y3186466D01*
X1969907Y3186410D01*
X1970407Y3186355D01*
X1970961Y3186244D01*
X1971572Y3186077D01*
X1972904Y3185689D01*
X1973626Y3185411D01*
X1974347Y3185023D01*
X1975069Y3184634D01*
X1975790Y3184190D01*
X1976456Y3183635D01*
X1977122Y3183025D01*
X1977178Y3182969D01*
X1977289Y3182858D01*
X1977455Y3182692D01*
X1977677Y3182414D01*
X1977955Y3182026D01*
X1978232Y3181637D01*
X1978565Y3181138D01*
X1978898Y3180583D01*
X1979176Y3179972D01*
X1979508Y3179306D01*
X1979786Y3178529D01*
X1980063Y3177752D01*
X1980285Y3176920D01*
X1980452Y3175976D01*
X1980563Y3175033D01*
X1980619Y3174034D01*
Y3173978D01*
Y3173812D01*
Y3173534D01*
X1980563Y3173146D01*
X1980507Y3172702D01*
X1980452Y3172202D01*
X1980341Y3171592D01*
X1980230Y3170981D01*
X1979897Y3169538D01*
X1979342Y3168040D01*
X1979009Y3167263D01*
X1978565Y3166541D01*
X1978121Y3165764D01*
X1977566Y3165043D01*
X1977511Y3164987D01*
X1977399Y3164821D01*
X1977178Y3164599D01*
X1976900Y3164321D01*
X1976512Y3163988D01*
X1976068Y3163544D01*
X1975513Y3163156D01*
X1974902Y3162712D01*
X1974236Y3162268D01*
X1973459Y3161879D01*
X1972627Y3161491D01*
X1971738Y3161102D01*
X1970795Y3160825D01*
X1969741Y3160603D01*
X1968630Y3160436D01*
X1967465Y3160381D01*
X1966966D01*
X1966577Y3160436D01*
X1966133Y3160492D01*
X1965633Y3160547D01*
X1965023Y3160603D01*
X1964412Y3160769D01*
X1963025Y3161102D01*
X1961638Y3161602D01*
X1960916Y3161935D01*
X1960195Y3162323D01*
X1959528Y3162767D01*
X1958862Y3163267D01*
X1958807Y3163322D01*
X1958696Y3163378D01*
X1958585Y3163600D01*
X1958363Y3163822D01*
X1958085Y3164099D01*
X1957808Y3164432D01*
X1957475Y3164876D01*
X1957197Y3165376D01*
X1956864Y3165875D01*
X1956532Y3166486D01*
X1955921Y3167818D01*
X1955421Y3169372D01*
X1955255Y3170204D01*
X1955144Y3171092D01*
X1960083Y3171481D01*
Y3171425D01*
Y3171314D01*
X1960139Y3171148D01*
X1960195Y3170870D01*
X1960361Y3170260D01*
X1960583Y3169427D01*
X1960916Y3168595D01*
X1961360Y3167651D01*
X1961915Y3166819D01*
X1962581Y3166042D01*
X1962692Y3165986D01*
X1962914Y3165764D01*
X1963358Y3165487D01*
X1963968Y3165154D01*
X1964634Y3164821D01*
X1965467Y3164543D01*
X1966410Y3164321D01*
X1967465Y3164266D01*
X1967798D01*
X1968020Y3164321D01*
X1968686Y3164377D01*
X1969463Y3164599D01*
X1970407Y3164876D01*
X1971350Y3165320D01*
X1972349Y3165986D01*
X1972793Y3166375D01*
X1973237Y3166819D01*
X1973293Y3166874D01*
X1973348Y3166930D01*
X1973459Y3167096D01*
X1973626Y3167263D01*
X1974014Y3167873D01*
X1974458Y3168650D01*
X1974847Y3169594D01*
X1975235Y3170759D01*
X1975513Y3172147D01*
X1975623Y3172868D01*
Y3173645D01*
Y3173701D01*
Y3173812D01*
Y3174034D01*
X1975568Y3174311D01*
Y3174644D01*
X1975513Y3175033D01*
X1975346Y3175921D01*
X1975069Y3176975D01*
X1974680Y3178030D01*
X1974125Y3179029D01*
X1973348Y3179972D01*
Y3180028D01*
X1973237Y3180083D01*
X1972959Y3180361D01*
X1972460Y3180749D01*
X1971794Y3181193D01*
X1970906Y3181582D01*
X1969907Y3181970D01*
X1968742Y3182248D01*
X1968075Y3182359D01*
X1967021D01*
X1966577Y3182303D01*
X1966022Y3182248D01*
X1965356Y3182081D01*
X1964690Y3181915D01*
X1963968Y3181637D01*
X1963247Y3181304D01*
X1963191Y3181249D01*
X1962969Y3181138D01*
X1962637Y3180860D01*
X1962193Y3180583D01*
X1961748Y3180194D01*
X1961304Y3179695D01*
X1960805Y3179195D01*
X1960417Y3178585D01*
X1955976Y3179195D01*
X1959695Y3198953D01*
X1978787D01*
Y3194458D01*
D02*
G37*
G36*
X2035120Y3199397D02*
X2035619D01*
X2036784Y3199342D01*
X2038005Y3199175D01*
X2039338Y3199009D01*
X2040559Y3198731D01*
X2041169Y3198565D01*
X2041668Y3198398D01*
X2041724D01*
X2041780Y3198343D01*
X2042112Y3198176D01*
X2042612Y3197954D01*
X2043223Y3197566D01*
X2043889Y3197066D01*
X2044610Y3196400D01*
X2045276Y3195623D01*
X2045942Y3194735D01*
Y3194680D01*
X2045997Y3194624D01*
X2046219Y3194291D01*
X2046441Y3193736D01*
X2046774Y3193015D01*
X2047052Y3192182D01*
X2047330Y3191183D01*
X2047496Y3190129D01*
X2047552Y3188963D01*
Y3188908D01*
Y3188797D01*
Y3188575D01*
X2047496Y3188297D01*
Y3187909D01*
X2047440Y3187520D01*
X2047218Y3186577D01*
X2046886Y3185467D01*
X2046441Y3184301D01*
X2045775Y3183136D01*
X2045332Y3182581D01*
X2044888Y3182026D01*
X2044832Y3181970D01*
X2044776Y3181915D01*
X2044610Y3181748D01*
X2044388Y3181582D01*
X2044111Y3181360D01*
X2043777Y3181138D01*
X2043333Y3180860D01*
X2042889Y3180527D01*
X2042334Y3180250D01*
X2041724Y3179972D01*
X2041058Y3179639D01*
X2040336Y3179362D01*
X2039504Y3179140D01*
X2038671Y3178862D01*
X2037728Y3178696D01*
X2036729Y3178529D01*
X2036840Y3178474D01*
X2037062Y3178363D01*
X2037395Y3178141D01*
X2037839Y3177919D01*
X2038838Y3177308D01*
X2039338Y3176920D01*
X2039782Y3176587D01*
X2039892Y3176476D01*
X2040170Y3176198D01*
X2040614Y3175754D01*
X2041169Y3175199D01*
X2041780Y3174422D01*
X2042501Y3173590D01*
X2043223Y3172591D01*
X2043999Y3171481D01*
X2050604Y3161047D01*
X2044277D01*
X2039226Y3169039D01*
Y3169094D01*
X2039116Y3169205D01*
X2039005Y3169372D01*
X2038838Y3169594D01*
X2038449Y3170204D01*
X2037950Y3170981D01*
X2037340Y3171814D01*
X2036729Y3172702D01*
X2036119Y3173534D01*
X2035563Y3174311D01*
X2035508Y3174367D01*
X2035341Y3174589D01*
X2035064Y3174922D01*
X2034676Y3175310D01*
X2033843Y3176143D01*
X2033399Y3176531D01*
X2032955Y3176864D01*
X2032899Y3176920D01*
X2032789Y3176975D01*
X2032566Y3177086D01*
X2032234Y3177253D01*
X2031900Y3177419D01*
X2031512Y3177586D01*
X2030624Y3177863D01*
X2030569D01*
X2030457Y3177919D01*
X2030236D01*
X2029958Y3177974D01*
X2029570Y3178030D01*
X2029126D01*
X2028515Y3178085D01*
X2021966D01*
Y3161047D01*
X2016860D01*
Y3199453D01*
X2034676D01*
X2035120Y3199397D01*
D02*
G37*
G36*
X2002763Y3161047D02*
X1998045D01*
Y3191072D01*
X1997990Y3191017D01*
X1997713Y3190795D01*
X1997380Y3190462D01*
X1996824Y3190073D01*
X1996214Y3189574D01*
X1995437Y3189019D01*
X1994549Y3188408D01*
X1993550Y3187798D01*
X1993495D01*
X1993439Y3187742D01*
X1993106Y3187520D01*
X1992551Y3187243D01*
X1991885Y3186910D01*
X1991108Y3186521D01*
X1990275Y3186133D01*
X1989443Y3185744D01*
X1988611Y3185411D01*
Y3189962D01*
X1988666D01*
X1988777Y3190073D01*
X1988999Y3190129D01*
X1989276Y3190295D01*
X1989610Y3190462D01*
X1989998Y3190684D01*
X1990941Y3191239D01*
X1992052Y3191849D01*
X1993161Y3192626D01*
X1994327Y3193514D01*
X1995493Y3194458D01*
X1995548Y3194513D01*
X1995603Y3194569D01*
X1995770Y3194735D01*
X1995992Y3194902D01*
X1996492Y3195457D01*
X1997158Y3196123D01*
X1997823Y3196900D01*
X1998545Y3197788D01*
X1999156Y3198676D01*
X1999710Y3199619D01*
X2002763D01*
Y3161047D01*
D02*
G37*
G36*
X2531005Y3269564D02*
X2531393D01*
X2531837Y3269508D01*
X2532892Y3269286D01*
X2534057Y3269009D01*
X2535278Y3268565D01*
X2536499Y3267899D01*
X2537110Y3267510D01*
X2537664Y3267066D01*
X2537720Y3267011D01*
X2537776Y3266955D01*
X2537942Y3266789D01*
X2538108Y3266622D01*
X2538386Y3266345D01*
X2538608Y3266012D01*
X2539218Y3265235D01*
X2539829Y3264236D01*
X2540384Y3263015D01*
X2540883Y3261627D01*
X2541216Y3260073D01*
X2536499Y3259685D01*
Y3259740D01*
X2536443Y3259796D01*
X2536388Y3260129D01*
X2536222Y3260628D01*
X2535999Y3261239D01*
X2535778Y3261905D01*
X2535445Y3262571D01*
X2535056Y3263181D01*
X2534668Y3263681D01*
X2534557Y3263792D01*
X2534334Y3264014D01*
X2533946Y3264347D01*
X2533391Y3264735D01*
X2532669Y3265068D01*
X2531892Y3265401D01*
X2530949Y3265623D01*
X2529950Y3265734D01*
X2529561D01*
X2529117Y3265679D01*
X2528618Y3265568D01*
X2527952Y3265401D01*
X2527286Y3265179D01*
X2526620Y3264902D01*
X2525954Y3264458D01*
X2525843Y3264402D01*
X2525566Y3264180D01*
X2525177Y3263792D01*
X2524677Y3263237D01*
X2524122Y3262571D01*
X2523512Y3261794D01*
X2522957Y3260795D01*
X2522402Y3259685D01*
Y3259629D01*
X2522347Y3259518D01*
X2522291Y3259352D01*
X2522180Y3259130D01*
X2522124Y3258797D01*
X2522014Y3258408D01*
X2521903Y3257964D01*
X2521791Y3257409D01*
X2521625Y3256799D01*
X2521514Y3256133D01*
X2521403Y3255411D01*
X2521347Y3254634D01*
X2521236Y3253746D01*
X2521181Y3252858D01*
X2521126Y3251859D01*
Y3250860D01*
X2521181Y3250916D01*
X2521403Y3251249D01*
X2521791Y3251693D01*
X2522291Y3252248D01*
X2522846Y3252914D01*
X2523568Y3253524D01*
X2524345Y3254135D01*
X2525233Y3254690D01*
X2525288D01*
X2525343Y3254745D01*
X2525677Y3254912D01*
X2526176Y3255078D01*
X2526842Y3255356D01*
X2527619Y3255578D01*
X2528507Y3255744D01*
X2529450Y3255911D01*
X2530450Y3255966D01*
X2530894D01*
X2531227Y3255911D01*
X2531671Y3255855D01*
X2532115Y3255800D01*
X2532669Y3255689D01*
X2533224Y3255522D01*
X2534501Y3255134D01*
X2535167Y3254856D01*
X2535833Y3254468D01*
X2536499Y3254079D01*
X2537220Y3253635D01*
X2537887Y3253080D01*
X2538497Y3252470D01*
X2538552Y3252414D01*
X2538664Y3252303D01*
X2538830Y3252137D01*
X2538997Y3251859D01*
X2539274Y3251471D01*
X2539552Y3251082D01*
X2539829Y3250583D01*
X2540162Y3250028D01*
X2540495Y3249417D01*
X2540773Y3248751D01*
X2541050Y3247974D01*
X2541327Y3247197D01*
X2541494Y3246365D01*
X2541660Y3245421D01*
X2541771Y3244478D01*
X2541827Y3243479D01*
Y3243423D01*
Y3243312D01*
Y3243146D01*
Y3242868D01*
X2541771Y3242535D01*
Y3242202D01*
X2541605Y3241314D01*
X2541439Y3240260D01*
X2541161Y3239150D01*
X2540773Y3237929D01*
X2540218Y3236763D01*
Y3236708D01*
X2540162Y3236652D01*
X2540051Y3236486D01*
X2539940Y3236264D01*
X2539607Y3235709D01*
X2539108Y3234987D01*
X2538497Y3234210D01*
X2537776Y3233433D01*
X2536887Y3232656D01*
X2535944Y3231990D01*
X2535889D01*
X2535833Y3231935D01*
X2535666Y3231824D01*
X2535445Y3231768D01*
X2534890Y3231491D01*
X2534168Y3231213D01*
X2533224Y3230880D01*
X2532170Y3230658D01*
X2531005Y3230436D01*
X2529728Y3230381D01*
X2529450D01*
X2529173Y3230436D01*
X2528729D01*
X2528229Y3230492D01*
X2527675Y3230603D01*
X2527008Y3230769D01*
X2526343Y3230936D01*
X2525566Y3231158D01*
X2524789Y3231435D01*
X2524012Y3231768D01*
X2523179Y3232212D01*
X2522402Y3232712D01*
X2521625Y3233267D01*
X2520848Y3233933D01*
X2520126Y3234710D01*
X2520071Y3234765D01*
X2519960Y3234932D01*
X2519794Y3235154D01*
X2519572Y3235542D01*
X2519238Y3236042D01*
X2518961Y3236597D01*
X2518628Y3237318D01*
X2518295Y3238095D01*
X2517907Y3239039D01*
X2517573Y3240093D01*
X2517296Y3241259D01*
X2517019Y3242535D01*
X2516741Y3243978D01*
X2516575Y3245532D01*
X2516463Y3247197D01*
X2516408Y3248973D01*
Y3249029D01*
Y3249084D01*
Y3249251D01*
Y3249473D01*
X2516463Y3250028D01*
Y3250805D01*
X2516519Y3251693D01*
X2516630Y3252747D01*
X2516741Y3253913D01*
X2516907Y3255189D01*
X2517130Y3256466D01*
X2517407Y3257853D01*
X2517740Y3259185D01*
X2518128Y3260517D01*
X2518628Y3261794D01*
X2519183Y3263015D01*
X2519794Y3264180D01*
X2520515Y3265179D01*
X2520570Y3265235D01*
X2520682Y3265346D01*
X2520903Y3265568D01*
X2521181Y3265901D01*
X2521514Y3266234D01*
X2521958Y3266567D01*
X2522513Y3267011D01*
X2523068Y3267399D01*
X2523734Y3267788D01*
X2524456Y3268232D01*
X2525288Y3268565D01*
X2526120Y3268953D01*
X2527064Y3269231D01*
X2528063Y3269453D01*
X2529117Y3269564D01*
X2530227Y3269619D01*
X2530671D01*
X2531005Y3269564D01*
D02*
G37*
G36*
X2430883D02*
X2431160D01*
X2431548Y3269508D01*
X2432492Y3269342D01*
X2433546Y3269120D01*
X2434712Y3268731D01*
X2435878Y3268232D01*
X2437043Y3267566D01*
X2437099D01*
X2437154Y3267455D01*
X2437320Y3267344D01*
X2437543Y3267177D01*
X2438097Y3266733D01*
X2438819Y3266123D01*
X2439541Y3265290D01*
X2440373Y3264291D01*
X2441095Y3263126D01*
X2441760Y3261794D01*
Y3261738D01*
X2441816Y3261627D01*
X2441927Y3261405D01*
X2442038Y3261128D01*
X2442149Y3260739D01*
X2442316Y3260240D01*
X2442427Y3259685D01*
X2442593Y3259074D01*
X2442760Y3258353D01*
X2442926Y3257520D01*
X2443037Y3256632D01*
X2443148Y3255689D01*
X2443259Y3254634D01*
X2443370Y3253524D01*
X2443425Y3252303D01*
Y3251027D01*
Y3250971D01*
Y3250694D01*
Y3250305D01*
Y3249806D01*
X2443370Y3249195D01*
Y3248474D01*
X2443314Y3247641D01*
X2443204Y3246809D01*
X2443037Y3244922D01*
X2442760Y3242924D01*
X2442371Y3241037D01*
X2442093Y3240093D01*
X2441816Y3239261D01*
Y3239205D01*
X2441760Y3239094D01*
X2441649Y3238872D01*
X2441539Y3238539D01*
X2441372Y3238206D01*
X2441150Y3237762D01*
X2440595Y3236819D01*
X2439929Y3235764D01*
X2439152Y3234654D01*
X2438153Y3233600D01*
X2437043Y3232656D01*
X2436988D01*
X2436876Y3232545D01*
X2436710Y3232434D01*
X2436488Y3232323D01*
X2436155Y3232157D01*
X2435822Y3231935D01*
X2435378Y3231713D01*
X2434934Y3231546D01*
X2433880Y3231102D01*
X2432603Y3230714D01*
X2431215Y3230492D01*
X2429662Y3230381D01*
X2429218D01*
X2428940Y3230436D01*
X2428552D01*
X2428108Y3230492D01*
X2427053Y3230714D01*
X2425887Y3230991D01*
X2424666Y3231435D01*
X2423445Y3232046D01*
X2422835Y3232434D01*
X2422280Y3232878D01*
X2422224Y3232934D01*
X2422169Y3232989D01*
X2422003Y3233156D01*
X2421836Y3233322D01*
X2421614Y3233600D01*
X2421336Y3233933D01*
X2420782Y3234710D01*
X2420227Y3235709D01*
X2419671Y3236930D01*
X2419227Y3238317D01*
X2418894Y3239927D01*
X2423445Y3240315D01*
Y3240260D01*
X2423501Y3240149D01*
Y3240038D01*
X2423557Y3239816D01*
X2423723Y3239205D01*
X2423945Y3238539D01*
X2424222Y3237762D01*
X2424611Y3236985D01*
X2425055Y3236264D01*
X2425610Y3235653D01*
X2425666Y3235598D01*
X2425887Y3235431D01*
X2426276Y3235209D01*
X2426720Y3234987D01*
X2427331Y3234710D01*
X2428052Y3234488D01*
X2428885Y3234321D01*
X2429773Y3234266D01*
X2430161D01*
X2430550Y3234321D01*
X2431049Y3234377D01*
X2431660Y3234488D01*
X2432270Y3234654D01*
X2432936Y3234876D01*
X2433546Y3235209D01*
X2433602Y3235265D01*
X2433824Y3235376D01*
X2434157Y3235598D01*
X2434490Y3235931D01*
X2434934Y3236319D01*
X2435378Y3236763D01*
X2435822Y3237263D01*
X2436266Y3237873D01*
X2436322Y3237929D01*
X2436432Y3238206D01*
X2436655Y3238595D01*
X2436876Y3239094D01*
X2437154Y3239760D01*
X2437432Y3240537D01*
X2437709Y3241425D01*
X2437986Y3242424D01*
Y3242480D01*
X2438042Y3242535D01*
Y3242702D01*
X2438097Y3242924D01*
X2438209Y3243479D01*
X2438375Y3244200D01*
X2438486Y3245088D01*
X2438597Y3246032D01*
X2438653Y3247086D01*
X2438708Y3248196D01*
Y3248252D01*
Y3248418D01*
Y3248696D01*
Y3249140D01*
X2438653Y3249029D01*
X2438430Y3248751D01*
X2438097Y3248363D01*
X2437709Y3247808D01*
X2437154Y3247253D01*
X2436488Y3246642D01*
X2435711Y3246032D01*
X2434823Y3245477D01*
X2434712Y3245421D01*
X2434379Y3245255D01*
X2433880Y3245033D01*
X2433269Y3244811D01*
X2432436Y3244533D01*
X2431548Y3244311D01*
X2430550Y3244145D01*
X2429495Y3244089D01*
X2429051D01*
X2428718Y3244145D01*
X2428274Y3244200D01*
X2427830Y3244256D01*
X2427275Y3244367D01*
X2426720Y3244533D01*
X2425443Y3244922D01*
X2424778Y3245199D01*
X2424111Y3245532D01*
X2423390Y3245921D01*
X2422724Y3246420D01*
X2422058Y3246920D01*
X2421448Y3247530D01*
X2421392Y3247586D01*
X2421281Y3247697D01*
X2421170Y3247863D01*
X2420948Y3248141D01*
X2420671Y3248529D01*
X2420393Y3248918D01*
X2420115Y3249417D01*
X2419838Y3249972D01*
X2419505Y3250583D01*
X2419227Y3251249D01*
X2418950Y3252026D01*
X2418673Y3252803D01*
X2418450Y3253691D01*
X2418340Y3254634D01*
X2418229Y3255578D01*
X2418173Y3256632D01*
Y3256688D01*
Y3256910D01*
Y3257187D01*
X2418229Y3257576D01*
X2418284Y3258075D01*
X2418340Y3258686D01*
X2418450Y3259296D01*
X2418617Y3260018D01*
X2419006Y3261461D01*
X2419283Y3262238D01*
X2419616Y3263070D01*
X2420005Y3263847D01*
X2420504Y3264569D01*
X2421003Y3265346D01*
X2421614Y3266012D01*
X2421669Y3266067D01*
X2421780Y3266178D01*
X2421947Y3266345D01*
X2422224Y3266567D01*
X2422557Y3266844D01*
X2423001Y3267177D01*
X2423445Y3267455D01*
X2424001Y3267843D01*
X2424555Y3268176D01*
X2425222Y3268454D01*
X2426720Y3269064D01*
X2427497Y3269286D01*
X2428385Y3269453D01*
X2429273Y3269564D01*
X2430216Y3269619D01*
X2430605D01*
X2430883Y3269564D01*
D02*
G37*
G36*
X2511968Y3265235D02*
X2511912Y3265179D01*
X2511802Y3265068D01*
X2511579Y3264846D01*
X2511358Y3264513D01*
X2511024Y3264125D01*
X2510581Y3263681D01*
X2510137Y3263126D01*
X2509637Y3262460D01*
X2509137Y3261794D01*
X2508527Y3261017D01*
X2507916Y3260129D01*
X2507306Y3259241D01*
X2506640Y3258242D01*
X2505974Y3257187D01*
X2505308Y3256022D01*
X2504642Y3254856D01*
X2504586Y3254801D01*
X2504476Y3254579D01*
X2504309Y3254246D01*
X2504032Y3253746D01*
X2503754Y3253136D01*
X2503421Y3252470D01*
X2503032Y3251693D01*
X2502644Y3250805D01*
X2502200Y3249806D01*
X2501700Y3248807D01*
X2501256Y3247697D01*
X2500812Y3246531D01*
X2499925Y3244145D01*
X2499092Y3241592D01*
Y3241536D01*
X2499037Y3241370D01*
X2498981Y3241092D01*
X2498870Y3240759D01*
X2498759Y3240315D01*
X2498648Y3239760D01*
X2498481Y3239150D01*
X2498370Y3238484D01*
X2498204Y3237707D01*
X2498037Y3236874D01*
X2497760Y3235098D01*
X2497483Y3233156D01*
X2497316Y3231047D01*
X2492488D01*
Y3231102D01*
Y3231269D01*
Y3231491D01*
X2492543Y3231824D01*
Y3232268D01*
X2492599Y3232823D01*
X2492654Y3233433D01*
X2492709Y3234099D01*
X2492820Y3234876D01*
X2492932Y3235653D01*
X2493098Y3236597D01*
X2493265Y3237540D01*
X2493431Y3238539D01*
X2493653Y3239649D01*
X2494208Y3241925D01*
Y3241980D01*
X2494264Y3242202D01*
X2494374Y3242535D01*
X2494541Y3243035D01*
X2494707Y3243590D01*
X2494930Y3244256D01*
X2495151Y3245033D01*
X2495485Y3245865D01*
X2495818Y3246809D01*
X2496151Y3247752D01*
X2496983Y3249861D01*
X2497982Y3252081D01*
X2499092Y3254301D01*
X2499148Y3254357D01*
X2499258Y3254579D01*
X2499425Y3254856D01*
X2499647Y3255300D01*
X2499925Y3255800D01*
X2500313Y3256410D01*
X2500702Y3257076D01*
X2501146Y3257798D01*
X2502200Y3259407D01*
X2503310Y3261072D01*
X2504586Y3262793D01*
X2505919Y3264402D01*
X2487104D01*
Y3268953D01*
X2511968D01*
Y3265235D01*
D02*
G37*
G36*
X2468289Y3269397D02*
X2468789D01*
X2469954Y3269342D01*
X2471175Y3269175D01*
X2472508Y3269009D01*
X2473729Y3268731D01*
X2474339Y3268565D01*
X2474838Y3268398D01*
X2474894D01*
X2474950Y3268343D01*
X2475282Y3268176D01*
X2475782Y3267954D01*
X2476392Y3267566D01*
X2477059Y3267066D01*
X2477780Y3266400D01*
X2478446Y3265623D01*
X2479112Y3264735D01*
Y3264680D01*
X2479168Y3264624D01*
X2479390Y3264291D01*
X2479611Y3263736D01*
X2479945Y3263015D01*
X2480222Y3262182D01*
X2480499Y3261183D01*
X2480666Y3260129D01*
X2480722Y3258963D01*
Y3258908D01*
Y3258797D01*
Y3258575D01*
X2480666Y3258297D01*
Y3257909D01*
X2480610Y3257520D01*
X2480389Y3256577D01*
X2480055Y3255467D01*
X2479611Y3254301D01*
X2478945Y3253136D01*
X2478501Y3252581D01*
X2478057Y3252026D01*
X2478002Y3251970D01*
X2477947Y3251915D01*
X2477780Y3251748D01*
X2477558Y3251582D01*
X2477280Y3251360D01*
X2476948Y3251138D01*
X2476503Y3250860D01*
X2476059Y3250527D01*
X2475505Y3250250D01*
X2474894Y3249972D01*
X2474228Y3249639D01*
X2473506Y3249362D01*
X2472674Y3249140D01*
X2471841Y3248862D01*
X2470898Y3248696D01*
X2469899Y3248529D01*
X2470010Y3248474D01*
X2470232Y3248363D01*
X2470565Y3248141D01*
X2471009Y3247919D01*
X2472008Y3247308D01*
X2472508Y3246920D01*
X2472952Y3246587D01*
X2473062Y3246476D01*
X2473340Y3246198D01*
X2473784Y3245754D01*
X2474339Y3245199D01*
X2474950Y3244422D01*
X2475671Y3243590D01*
X2476392Y3242591D01*
X2477169Y3241481D01*
X2483774Y3231047D01*
X2477447D01*
X2472396Y3239039D01*
Y3239094D01*
X2472285Y3239205D01*
X2472175Y3239372D01*
X2472008Y3239594D01*
X2471619Y3240204D01*
X2471120Y3240981D01*
X2470510Y3241814D01*
X2469899Y3242702D01*
X2469289Y3243534D01*
X2468733Y3244311D01*
X2468678Y3244367D01*
X2468512Y3244589D01*
X2468234Y3244922D01*
X2467845Y3245310D01*
X2467013Y3246143D01*
X2466569Y3246531D01*
X2466125Y3246864D01*
X2466070Y3246920D01*
X2465959Y3246975D01*
X2465736Y3247086D01*
X2465403Y3247253D01*
X2465070Y3247419D01*
X2464682Y3247586D01*
X2463794Y3247863D01*
X2463738D01*
X2463628Y3247919D01*
X2463405D01*
X2463128Y3247974D01*
X2462740Y3248030D01*
X2462296D01*
X2461685Y3248085D01*
X2455136D01*
Y3231047D01*
X2450030D01*
Y3269453D01*
X2467845D01*
X2468289Y3269397D01*
D02*
G37*
G36*
X2235171Y3269564D02*
X2235449D01*
X2235838Y3269508D01*
X2236781Y3269342D01*
X2237836Y3269120D01*
X2239001Y3268731D01*
X2240166Y3268232D01*
X2241332Y3267566D01*
X2241387D01*
X2241443Y3267455D01*
X2241610Y3267344D01*
X2241831Y3267177D01*
X2242387Y3266733D01*
X2243108Y3266123D01*
X2243829Y3265290D01*
X2244662Y3264291D01*
X2245383Y3263126D01*
X2246050Y3261794D01*
Y3261738D01*
X2246105Y3261627D01*
X2246216Y3261405D01*
X2246327Y3261128D01*
X2246438Y3260739D01*
X2246604Y3260240D01*
X2246715Y3259685D01*
X2246882Y3259074D01*
X2247048Y3258353D01*
X2247215Y3257520D01*
X2247326Y3256632D01*
X2247437Y3255689D01*
X2247548Y3254634D01*
X2247659Y3253524D01*
X2247715Y3252303D01*
Y3251027D01*
Y3250971D01*
Y3250694D01*
Y3250305D01*
Y3249806D01*
X2247659Y3249195D01*
Y3248474D01*
X2247604Y3247641D01*
X2247492Y3246809D01*
X2247326Y3244922D01*
X2247048Y3242924D01*
X2246660Y3241037D01*
X2246383Y3240093D01*
X2246105Y3239261D01*
Y3239205D01*
X2246050Y3239094D01*
X2245939Y3238872D01*
X2245827Y3238539D01*
X2245661Y3238206D01*
X2245439Y3237762D01*
X2244884Y3236819D01*
X2244218Y3235764D01*
X2243441Y3234654D01*
X2242442Y3233600D01*
X2241332Y3232656D01*
X2241276D01*
X2241166Y3232545D01*
X2240999Y3232434D01*
X2240777Y3232323D01*
X2240444Y3232157D01*
X2240111Y3231935D01*
X2239667Y3231713D01*
X2239223Y3231546D01*
X2238169Y3231102D01*
X2236892Y3230714D01*
X2235505Y3230492D01*
X2233950Y3230381D01*
X2233506D01*
X2233229Y3230436D01*
X2232840D01*
X2232396Y3230492D01*
X2231342Y3230714D01*
X2230177Y3230991D01*
X2228956Y3231435D01*
X2227735Y3232046D01*
X2227124Y3232434D01*
X2226569Y3232878D01*
X2226514Y3232934D01*
X2226458Y3232989D01*
X2226291Y3233156D01*
X2226125Y3233322D01*
X2225903Y3233600D01*
X2225626Y3233933D01*
X2225070Y3234710D01*
X2224515Y3235709D01*
X2223961Y3236930D01*
X2223517Y3238317D01*
X2223184Y3239927D01*
X2227735Y3240315D01*
Y3240260D01*
X2227790Y3240149D01*
Y3240038D01*
X2227845Y3239816D01*
X2228012Y3239205D01*
X2228234Y3238539D01*
X2228512Y3237762D01*
X2228900Y3236985D01*
X2229344Y3236264D01*
X2229899Y3235653D01*
X2229954Y3235598D01*
X2230177Y3235431D01*
X2230565Y3235209D01*
X2231009Y3234987D01*
X2231619Y3234710D01*
X2232341Y3234488D01*
X2233173Y3234321D01*
X2234061Y3234266D01*
X2234450D01*
X2234838Y3234321D01*
X2235338Y3234377D01*
X2235948Y3234488D01*
X2236559Y3234654D01*
X2237225Y3234876D01*
X2237836Y3235209D01*
X2237891Y3235265D01*
X2238113Y3235376D01*
X2238446Y3235598D01*
X2238779Y3235931D01*
X2239223Y3236319D01*
X2239667Y3236763D01*
X2240111Y3237263D01*
X2240555Y3237873D01*
X2240610Y3237929D01*
X2240722Y3238206D01*
X2240943Y3238595D01*
X2241166Y3239094D01*
X2241443Y3239760D01*
X2241720Y3240537D01*
X2241998Y3241425D01*
X2242276Y3242424D01*
Y3242480D01*
X2242331Y3242535D01*
Y3242702D01*
X2242387Y3242924D01*
X2242497Y3243479D01*
X2242664Y3244200D01*
X2242775Y3245088D01*
X2242886Y3246032D01*
X2242941Y3247086D01*
X2242997Y3248196D01*
Y3248252D01*
Y3248418D01*
Y3248696D01*
Y3249140D01*
X2242941Y3249029D01*
X2242720Y3248751D01*
X2242387Y3248363D01*
X2241998Y3247808D01*
X2241443Y3247253D01*
X2240777Y3246642D01*
X2240000Y3246032D01*
X2239112Y3245477D01*
X2239001Y3245421D01*
X2238668Y3245255D01*
X2238169Y3245033D01*
X2237558Y3244811D01*
X2236726Y3244533D01*
X2235838Y3244311D01*
X2234838Y3244145D01*
X2233784Y3244089D01*
X2233340D01*
X2233007Y3244145D01*
X2232563Y3244200D01*
X2232119Y3244256D01*
X2231564Y3244367D01*
X2231009Y3244533D01*
X2229733Y3244922D01*
X2229066Y3245199D01*
X2228401Y3245532D01*
X2227679Y3245921D01*
X2227013Y3246420D01*
X2226347Y3246920D01*
X2225736Y3247530D01*
X2225681Y3247586D01*
X2225570Y3247697D01*
X2225459Y3247863D01*
X2225237Y3248141D01*
X2224959Y3248529D01*
X2224682Y3248918D01*
X2224405Y3249417D01*
X2224127Y3249972D01*
X2223794Y3250583D01*
X2223517Y3251249D01*
X2223239Y3252026D01*
X2222961Y3252803D01*
X2222740Y3253691D01*
X2222628Y3254634D01*
X2222517Y3255578D01*
X2222462Y3256632D01*
Y3256688D01*
Y3256910D01*
Y3257187D01*
X2222517Y3257576D01*
X2222573Y3258075D01*
X2222628Y3258686D01*
X2222740Y3259296D01*
X2222906Y3260018D01*
X2223294Y3261461D01*
X2223572Y3262238D01*
X2223905Y3263070D01*
X2224294Y3263847D01*
X2224793Y3264569D01*
X2225293Y3265346D01*
X2225903Y3266012D01*
X2225959Y3266067D01*
X2226070Y3266178D01*
X2226236Y3266345D01*
X2226514Y3266567D01*
X2226847Y3266844D01*
X2227291Y3267177D01*
X2227735Y3267455D01*
X2228289Y3267843D01*
X2228845Y3268176D01*
X2229510Y3268454D01*
X2231009Y3269064D01*
X2231786Y3269286D01*
X2232674Y3269453D01*
X2233562Y3269564D01*
X2234506Y3269619D01*
X2234894D01*
X2235171Y3269564D01*
D02*
G37*
G36*
X2302438Y3269397D02*
X2302937D01*
X2304102Y3269342D01*
X2305323Y3269175D01*
X2306655Y3269009D01*
X2307876Y3268731D01*
X2308487Y3268565D01*
X2308986Y3268398D01*
X2309042D01*
X2309097Y3268343D01*
X2309430Y3268176D01*
X2309930Y3267954D01*
X2310541Y3267566D01*
X2311206Y3267066D01*
X2311928Y3266400D01*
X2312594Y3265623D01*
X2313260Y3264735D01*
Y3264680D01*
X2313316Y3264624D01*
X2313537Y3264291D01*
X2313760Y3263736D01*
X2314093Y3263015D01*
X2314370Y3262182D01*
X2314648Y3261183D01*
X2314814Y3260129D01*
X2314869Y3258963D01*
Y3258908D01*
Y3258797D01*
Y3258575D01*
X2314814Y3258297D01*
Y3257909D01*
X2314758Y3257520D01*
X2314537Y3256577D01*
X2314204Y3255467D01*
X2313760Y3254301D01*
X2313093Y3253136D01*
X2312649Y3252581D01*
X2312206Y3252026D01*
X2312150Y3251970D01*
X2312095Y3251915D01*
X2311928Y3251748D01*
X2311706Y3251582D01*
X2311428Y3251360D01*
X2311095Y3251138D01*
X2310651Y3250860D01*
X2310207Y3250527D01*
X2309653Y3250250D01*
X2309042Y3249972D01*
X2308376Y3249639D01*
X2307655Y3249362D01*
X2306822Y3249140D01*
X2305990Y3248862D01*
X2305046Y3248696D01*
X2304047Y3248529D01*
X2304158Y3248474D01*
X2304380Y3248363D01*
X2304713Y3248141D01*
X2305157Y3247919D01*
X2306156Y3247308D01*
X2306655Y3246920D01*
X2307099Y3246587D01*
X2307211Y3246476D01*
X2307488Y3246198D01*
X2307932Y3245754D01*
X2308487Y3245199D01*
X2309097Y3244422D01*
X2309819Y3243590D01*
X2310541Y3242591D01*
X2311318Y3241481D01*
X2317922Y3231047D01*
X2311595D01*
X2306544Y3239039D01*
Y3239094D01*
X2306434Y3239205D01*
X2306323Y3239372D01*
X2306156Y3239594D01*
X2305767Y3240204D01*
X2305268Y3240981D01*
X2304657Y3241814D01*
X2304047Y3242702D01*
X2303436Y3243534D01*
X2302881Y3244311D01*
X2302826Y3244367D01*
X2302660Y3244589D01*
X2302382Y3244922D01*
X2301994Y3245310D01*
X2301161Y3246143D01*
X2300717Y3246531D01*
X2300273Y3246864D01*
X2300218Y3246920D01*
X2300106Y3246975D01*
X2299885Y3247086D01*
X2299552Y3247253D01*
X2299218Y3247419D01*
X2298830Y3247586D01*
X2297942Y3247863D01*
X2297887D01*
X2297776Y3247919D01*
X2297553D01*
X2297276Y3247974D01*
X2296887Y3248030D01*
X2296443D01*
X2295833Y3248085D01*
X2289284D01*
Y3231047D01*
X2284178D01*
Y3269453D01*
X2301994D01*
X2302438Y3269397D01*
D02*
G37*
G36*
X2212416Y3244589D02*
X2217633D01*
Y3240260D01*
X2212416D01*
Y3231047D01*
X2207699D01*
Y3240260D01*
X2190994D01*
Y3244589D01*
X2208587Y3269453D01*
X2212416D01*
Y3244589D01*
D02*
G37*
G36*
X2176397Y3269564D02*
X2176841Y3269508D01*
X2177396Y3269453D01*
X2178006Y3269342D01*
X2178617Y3269231D01*
X2180060Y3268842D01*
X2181503Y3268287D01*
X2182224Y3267954D01*
X2182946Y3267566D01*
X2183612Y3267066D01*
X2184222Y3266511D01*
X2184278Y3266456D01*
X2184389Y3266400D01*
X2184500Y3266178D01*
X2184722Y3265956D01*
X2184999Y3265679D01*
X2185277Y3265290D01*
X2185555Y3264902D01*
X2185887Y3264402D01*
X2186443Y3263348D01*
X2186997Y3262016D01*
X2187220Y3261350D01*
X2187331Y3260573D01*
X2187441Y3259796D01*
X2187497Y3258963D01*
Y3258852D01*
Y3258575D01*
X2187441Y3258131D01*
X2187386Y3257520D01*
X2187275Y3256854D01*
X2187053Y3256077D01*
X2186831Y3255245D01*
X2186498Y3254412D01*
X2186443Y3254301D01*
X2186331Y3254024D01*
X2186110Y3253580D01*
X2185776Y3252969D01*
X2185332Y3252303D01*
X2184778Y3251471D01*
X2184111Y3250638D01*
X2183334Y3249695D01*
X2183224Y3249584D01*
X2182946Y3249251D01*
X2182669Y3248973D01*
X2182391Y3248696D01*
X2182058Y3248363D01*
X2181614Y3247919D01*
X2181170Y3247475D01*
X2180615Y3246975D01*
X2180060Y3246420D01*
X2179394Y3245810D01*
X2178673Y3245199D01*
X2177896Y3244478D01*
X2177008Y3243756D01*
X2176119Y3242979D01*
X2176064Y3242924D01*
X2175953Y3242813D01*
X2175731Y3242646D01*
X2175454Y3242424D01*
X2175120Y3242091D01*
X2174732Y3241758D01*
X2173844Y3241037D01*
X2172901Y3240204D01*
X2172012Y3239372D01*
X2171235Y3238650D01*
X2170903Y3238373D01*
X2170625Y3238095D01*
X2170570Y3238040D01*
X2170403Y3237873D01*
X2170181Y3237651D01*
X2169903Y3237318D01*
X2169626Y3236930D01*
X2169293Y3236541D01*
X2168627Y3235598D01*
X2187552D01*
Y3231047D01*
X2162078D01*
Y3231102D01*
Y3231324D01*
Y3231657D01*
X2162133Y3232101D01*
X2162189Y3232601D01*
X2162300Y3233156D01*
X2162411Y3233711D01*
X2162633Y3234321D01*
Y3234377D01*
X2162689Y3234432D01*
X2162800Y3234765D01*
X2163021Y3235265D01*
X2163354Y3235931D01*
X2163798Y3236708D01*
X2164354Y3237596D01*
X2164964Y3238484D01*
X2165741Y3239427D01*
Y3239483D01*
X2165852Y3239538D01*
X2166130Y3239871D01*
X2166629Y3240371D01*
X2167351Y3241092D01*
X2168183Y3241925D01*
X2169238Y3242924D01*
X2170514Y3244034D01*
X2171901Y3245199D01*
X2171957Y3245255D01*
X2172179Y3245421D01*
X2172512Y3245699D01*
X2172901Y3246032D01*
X2173400Y3246476D01*
X2174010Y3246975D01*
X2174621Y3247530D01*
X2175343Y3248141D01*
X2176730Y3249473D01*
X2178117Y3250805D01*
X2178784Y3251471D01*
X2179394Y3252137D01*
X2179949Y3252747D01*
X2180393Y3253358D01*
Y3253413D01*
X2180504Y3253469D01*
X2180615Y3253635D01*
X2180726Y3253857D01*
X2181115Y3254468D01*
X2181559Y3255189D01*
X2181947Y3256077D01*
X2182336Y3257021D01*
X2182557Y3258075D01*
X2182669Y3259074D01*
Y3259130D01*
Y3259185D01*
X2182613Y3259518D01*
X2182557Y3260073D01*
X2182391Y3260684D01*
X2182169Y3261461D01*
X2181780Y3262238D01*
X2181281Y3263015D01*
X2180615Y3263792D01*
X2180504Y3263903D01*
X2180227Y3264125D01*
X2179838Y3264402D01*
X2179227Y3264791D01*
X2178450Y3265124D01*
X2177562Y3265457D01*
X2176508Y3265679D01*
X2175343Y3265734D01*
X2175010D01*
X2174787Y3265679D01*
X2174122Y3265623D01*
X2173345Y3265457D01*
X2172512Y3265235D01*
X2171568Y3264846D01*
X2170680Y3264347D01*
X2169848Y3263681D01*
X2169737Y3263570D01*
X2169515Y3263292D01*
X2169182Y3262848D01*
X2168849Y3262182D01*
X2168461Y3261405D01*
X2168128Y3260406D01*
X2167905Y3259296D01*
X2167794Y3258020D01*
X2162966Y3258519D01*
Y3258575D01*
X2163021Y3258741D01*
Y3259019D01*
X2163077Y3259407D01*
X2163188Y3259851D01*
X2163299Y3260351D01*
X2163465Y3260961D01*
X2163632Y3261572D01*
X2164076Y3262904D01*
X2164742Y3264236D01*
X2165131Y3264902D01*
X2165630Y3265568D01*
X2166130Y3266178D01*
X2166684Y3266733D01*
X2166740Y3266789D01*
X2166851Y3266844D01*
X2167017Y3267011D01*
X2167295Y3267177D01*
X2167628Y3267399D01*
X2168017Y3267621D01*
X2168461Y3267899D01*
X2169015Y3268176D01*
X2169626Y3268454D01*
X2170292Y3268731D01*
X2171014Y3268953D01*
X2171791Y3269175D01*
X2172623Y3269342D01*
X2173511Y3269508D01*
X2174454Y3269564D01*
X2175454Y3269619D01*
X2176008D01*
X2176397Y3269564D01*
D02*
G37*
G36*
X2265974D02*
X2266695Y3269453D01*
X2267528Y3269286D01*
X2268416Y3269064D01*
X2269360Y3268787D01*
X2270247Y3268343D01*
X2270303D01*
X2270358Y3268287D01*
X2270636Y3268121D01*
X2271080Y3267843D01*
X2271635Y3267455D01*
X2272245Y3266900D01*
X2272912Y3266289D01*
X2273522Y3265568D01*
X2274133Y3264735D01*
X2274188Y3264624D01*
X2274410Y3264347D01*
X2274632Y3263847D01*
X2275021Y3263126D01*
X2275354Y3262293D01*
X2275798Y3261350D01*
X2276186Y3260240D01*
X2276519Y3259019D01*
Y3258963D01*
X2276575Y3258852D01*
X2276630Y3258686D01*
X2276686Y3258408D01*
X2276741Y3258075D01*
X2276796Y3257687D01*
X2276907Y3257187D01*
X2276963Y3256632D01*
X2277074Y3256022D01*
X2277130Y3255356D01*
X2277185Y3254579D01*
X2277296Y3253802D01*
X2277352Y3252914D01*
Y3252026D01*
X2277407Y3251027D01*
Y3249972D01*
Y3249917D01*
Y3249695D01*
Y3249306D01*
Y3248862D01*
X2277352Y3248252D01*
Y3247586D01*
X2277296Y3246864D01*
X2277240Y3246087D01*
X2277074Y3244311D01*
X2276796Y3242480D01*
X2276463Y3240704D01*
X2276242Y3239871D01*
X2275964Y3239039D01*
Y3238983D01*
X2275909Y3238872D01*
X2275798Y3238650D01*
X2275686Y3238373D01*
X2275575Y3237984D01*
X2275354Y3237596D01*
X2274910Y3236652D01*
X2274354Y3235653D01*
X2273633Y3234543D01*
X2272800Y3233544D01*
X2271802Y3232601D01*
X2271746D01*
X2271691Y3232490D01*
X2271524Y3232379D01*
X2271302Y3232268D01*
X2271024Y3232101D01*
X2270747Y3231879D01*
X2269914Y3231491D01*
X2268916Y3231102D01*
X2267750Y3230714D01*
X2266363Y3230492D01*
X2264864Y3230381D01*
X2264309D01*
X2263921Y3230436D01*
X2263477Y3230492D01*
X2262921Y3230603D01*
X2262311Y3230714D01*
X2261645Y3230880D01*
X2260979Y3231102D01*
X2260258Y3231324D01*
X2259536Y3231657D01*
X2258814Y3232046D01*
X2258093Y3232490D01*
X2257372Y3233045D01*
X2256706Y3233655D01*
X2256095Y3234321D01*
X2256039Y3234377D01*
X2255928Y3234543D01*
X2255762Y3234821D01*
X2255485Y3235265D01*
X2255207Y3235764D01*
X2254930Y3236430D01*
X2254541Y3237207D01*
X2254208Y3238095D01*
X2253875Y3239094D01*
X2253542Y3240260D01*
X2253209Y3241536D01*
X2252932Y3242979D01*
X2252654Y3244533D01*
X2252488Y3246198D01*
X2252376Y3248030D01*
X2252321Y3249972D01*
Y3250028D01*
Y3250250D01*
Y3250638D01*
Y3251082D01*
X2252376Y3251693D01*
Y3252359D01*
X2252432Y3253080D01*
X2252488Y3253913D01*
X2252654Y3255633D01*
X2252932Y3257465D01*
X2253265Y3259296D01*
X2253486Y3260129D01*
X2253709Y3260961D01*
Y3261017D01*
X2253764Y3261128D01*
X2253875Y3261350D01*
X2253986Y3261627D01*
X2254097Y3262016D01*
X2254319Y3262404D01*
X2254763Y3263348D01*
X2255318Y3264347D01*
X2256039Y3265401D01*
X2256872Y3266456D01*
X2257871Y3267344D01*
X2257927D01*
X2257982Y3267455D01*
X2258148Y3267566D01*
X2258370Y3267677D01*
X2258648Y3267899D01*
X2258981Y3268065D01*
X2259814Y3268509D01*
X2260812Y3268898D01*
X2261978Y3269286D01*
X2263365Y3269508D01*
X2264864Y3269619D01*
X2265363D01*
X2265974Y3269564D01*
D02*
G37*
G36*
X1821746Y3122820D02*
X1704517D01*
Y3232322D01*
X1821746D01*
Y3122820D01*
D02*
G37*
%LPC*%
G36*
X3041412Y3207183D02*
X3034705D01*
Y3178023D01*
Y3176346D01*
X3034559Y3174742D01*
X3034414Y3173357D01*
X3034195Y3172045D01*
X3033976Y3170878D01*
X3033684Y3169785D01*
X3033466Y3168837D01*
X3033174Y3168035D01*
X3032883Y3167379D01*
X3032591Y3166723D01*
X3032299Y3166286D01*
X3032081Y3165848D01*
X3031862Y3165557D01*
X3031716Y3165338D01*
X3031643Y3165265D01*
X3031570Y3165192D01*
X3030914Y3164609D01*
X3030185Y3164099D01*
X3028581Y3163297D01*
X3026905Y3162714D01*
X3025155Y3162349D01*
X3023551Y3162057D01*
X3022895Y3161985D01*
X3022239D01*
X3021802Y3161912D01*
X3021073D01*
X3019542Y3161985D01*
X3018157Y3162203D01*
X3016845Y3162422D01*
X3015824Y3162787D01*
X3014949Y3163078D01*
X3014293Y3163297D01*
X3013929Y3163515D01*
X3013783Y3163588D01*
X3012762Y3164244D01*
X3011887Y3165046D01*
X3011158Y3165848D01*
X3010648Y3166577D01*
X3010211Y3167306D01*
X3009846Y3167817D01*
X3009700Y3168181D01*
X3009628Y3168327D01*
X3009409Y3168983D01*
X3009263Y3169639D01*
X3008971Y3171170D01*
X3008753Y3172774D01*
X3008607Y3174378D01*
X3008534Y3175763D01*
Y3176419D01*
X3008461Y3176929D01*
Y3177367D01*
Y3177731D01*
Y3177950D01*
Y3178023D01*
Y3207183D01*
X3001754D01*
Y3176565D01*
X3001827Y3175180D01*
X3001900Y3173867D01*
X3002046Y3172628D01*
X3002192Y3171535D01*
X3002338Y3170514D01*
X3002556Y3169566D01*
X3002702Y3168691D01*
X3002848Y3167890D01*
X3003066Y3167233D01*
X3003212Y3166650D01*
X3003358Y3166213D01*
X3003504Y3165848D01*
X3003577Y3165557D01*
X3003650Y3165411D01*
Y3165338D01*
X3004452Y3163734D01*
X3005472Y3162276D01*
X3006493Y3161110D01*
X3007586Y3160089D01*
X3008534Y3159287D01*
X3009336Y3158704D01*
X3009628Y3158558D01*
X3009846Y3158412D01*
X3009992Y3158267D01*
X3010065D01*
X3011887Y3157465D01*
X3013783Y3156882D01*
X3015751Y3156444D01*
X3017574Y3156153D01*
X3018376Y3156080D01*
X3019177Y3156007D01*
X3019906Y3155934D01*
X3020490D01*
X3021000Y3155861D01*
X3021656D01*
X3024280Y3156007D01*
X3025447Y3156153D01*
X3026540Y3156298D01*
X3027634Y3156517D01*
X3028581Y3156736D01*
X3029456Y3156954D01*
X3030258Y3157246D01*
X3030987Y3157538D01*
X3031570Y3157756D01*
X3032154Y3157975D01*
X3032591Y3158194D01*
X3032956Y3158412D01*
X3033174Y3158485D01*
X3033320Y3158631D01*
X3033393D01*
X3034997Y3159725D01*
X3036309Y3160964D01*
X3037329Y3162130D01*
X3038204Y3163297D01*
X3038860Y3164317D01*
X3039298Y3165119D01*
X3039444Y3165411D01*
X3039589Y3165630D01*
X3039662Y3165775D01*
Y3165848D01*
X3039954Y3166723D01*
X3040245Y3167671D01*
X3040683Y3169639D01*
X3040974Y3171680D01*
X3041193Y3173649D01*
X3041266Y3174523D01*
X3041339Y3175398D01*
Y3176127D01*
X3041412Y3176783D01*
Y3207183D01*
D02*
G37*
G36*
X3088724D02*
X3048775D01*
Y3201205D01*
X3065396D01*
Y3156736D01*
X3072103D01*
Y3201205D01*
X3088724D01*
Y3207183D01*
D02*
G37*
G36*
X2969605Y3208057D02*
X2968949D01*
X2966981Y3207985D01*
X2965159Y3207766D01*
X2963409Y3207401D01*
X2961732Y3206964D01*
X2960201Y3206381D01*
X2958743Y3205798D01*
X2957431Y3205141D01*
X2956265Y3204485D01*
X2955171Y3203829D01*
X2954224Y3203173D01*
X2953422Y3202590D01*
X2952765Y3202007D01*
X2952255Y3201569D01*
X2951818Y3201205D01*
X2951599Y3200986D01*
X2951526Y3200913D01*
X2950360Y3199528D01*
X2949339Y3198070D01*
X2948392Y3196466D01*
X2947662Y3194863D01*
X2947006Y3193186D01*
X2946423Y3191582D01*
X2945986Y3189978D01*
X2945694Y3188447D01*
X2945403Y3186989D01*
X2945184Y3185604D01*
X2945038Y3184365D01*
X2944892Y3183344D01*
Y3182470D01*
X2944819Y3181813D01*
Y3181230D01*
X2944965Y3178752D01*
X2945257Y3176492D01*
X2945694Y3174305D01*
X2945986Y3173357D01*
X2946277Y3172409D01*
X2946496Y3171607D01*
X2946788Y3170878D01*
X2947006Y3170222D01*
X2947225Y3169639D01*
X2947371Y3169202D01*
X2947517Y3168910D01*
X2947662Y3168691D01*
Y3168619D01*
X2948902Y3166504D01*
X2950214Y3164682D01*
X2951672Y3163078D01*
X2953057Y3161766D01*
X2954296Y3160672D01*
X2954807Y3160235D01*
X2955244Y3159943D01*
X2955682Y3159652D01*
X2955973Y3159433D01*
X2956119Y3159360D01*
X2956192Y3159287D01*
X2957285Y3158704D01*
X2958379Y3158194D01*
X2960566Y3157319D01*
X2962680Y3156736D01*
X2964648Y3156298D01*
X2965596Y3156153D01*
X2966398Y3156080D01*
X2967127Y3155934D01*
X2967783D01*
X2968220Y3155861D01*
X2968949D01*
X2971355Y3156007D01*
X2973615Y3156371D01*
X2975729Y3156809D01*
X2976677Y3157100D01*
X2977552Y3157392D01*
X2978353Y3157684D01*
X2979082Y3157975D01*
X2979666Y3158194D01*
X2980176Y3158412D01*
X2980613Y3158631D01*
X2980978Y3158777D01*
X2981124Y3158923D01*
X2981197D01*
X2983238Y3160235D01*
X2984987Y3161693D01*
X2986445Y3163224D01*
X2987685Y3164682D01*
X2988705Y3166067D01*
X2989070Y3166577D01*
X2989361Y3167088D01*
X2989653Y3167525D01*
X2989799Y3167817D01*
X2989945Y3168035D01*
Y3168108D01*
X2990528Y3169275D01*
X2990965Y3170441D01*
X2991767Y3172774D01*
X2992350Y3175107D01*
X2992715Y3177221D01*
X2992788Y3178168D01*
X2992933Y3179043D01*
X2993006Y3179845D01*
Y3180501D01*
X2993079Y3181084D01*
Y3181813D01*
X2992933Y3184584D01*
X2992642Y3187135D01*
X2992423Y3188302D01*
X2992131Y3189468D01*
X2991840Y3190488D01*
X2991621Y3191436D01*
X2991330Y3192311D01*
X2991038Y3193113D01*
X2990819Y3193769D01*
X2990528Y3194352D01*
X2990382Y3194790D01*
X2990236Y3195081D01*
X2990090Y3195300D01*
Y3195373D01*
X2988924Y3197487D01*
X2987539Y3199382D01*
X2986081Y3200986D01*
X2984769Y3202298D01*
X2983529Y3203319D01*
X2982946Y3203756D01*
X2982509Y3204121D01*
X2982071Y3204340D01*
X2981780Y3204558D01*
X2981634Y3204631D01*
X2981561Y3204704D01*
X2980468Y3205287D01*
X2979374Y3205798D01*
X2977260Y3206672D01*
X2975073Y3207256D01*
X2973177Y3207620D01*
X2972303Y3207766D01*
X2971428Y3207912D01*
X2970772Y3207985D01*
X2970116D01*
X2969605Y3208057D01*
D02*
G37*
%LPD*%
G36*
X2970772Y3202225D02*
X2972521Y3201934D01*
X2974052Y3201496D01*
X2975365Y3201059D01*
X2976458Y3200549D01*
X2976895Y3200330D01*
X2977260Y3200184D01*
X2977624Y3199965D01*
X2977843Y3199893D01*
X2977916Y3199747D01*
X2977989D01*
X2979374Y3198726D01*
X2980613Y3197560D01*
X2981707Y3196393D01*
X2982582Y3195227D01*
X2983238Y3194206D01*
X2983748Y3193332D01*
X2983894Y3193040D01*
X2984040Y3192821D01*
X2984113Y3192675D01*
Y3192603D01*
X2984841Y3190853D01*
X2985352Y3188958D01*
X2985716Y3187208D01*
X2985935Y3185531D01*
X2986081Y3184729D01*
X2986154Y3184073D01*
Y3183417D01*
X2986227Y3182907D01*
Y3182470D01*
Y3182178D01*
Y3181959D01*
Y3181886D01*
X2986154Y3180137D01*
X2986008Y3178460D01*
X2985789Y3176856D01*
X2985498Y3175398D01*
X2985060Y3174086D01*
X2984696Y3172847D01*
X2984258Y3171680D01*
X2983821Y3170660D01*
X2983311Y3169785D01*
X2982873Y3168983D01*
X2982509Y3168327D01*
X2982144Y3167817D01*
X2981780Y3167379D01*
X2981561Y3167015D01*
X2981415Y3166869D01*
X2981342Y3166796D01*
X2980395Y3165848D01*
X2979374Y3165046D01*
X2978353Y3164390D01*
X2977333Y3163734D01*
X2976312Y3163224D01*
X2975219Y3162859D01*
X2974271Y3162495D01*
X2973250Y3162203D01*
X2972376Y3161985D01*
X2971501Y3161839D01*
X2970772Y3161693D01*
X2970116Y3161620D01*
X2969605D01*
X2969241Y3161547D01*
X2968876D01*
X2967491Y3161620D01*
X2966179Y3161766D01*
X2965013Y3162057D01*
X2963846Y3162349D01*
X2962753Y3162787D01*
X2961732Y3163224D01*
X2960785Y3163661D01*
X2959910Y3164172D01*
X2959181Y3164682D01*
X2958525Y3165119D01*
X2957941Y3165557D01*
X2957431Y3165994D01*
X2957067Y3166286D01*
X2956775Y3166577D01*
X2956629Y3166723D01*
X2956556Y3166796D01*
X2955682Y3167817D01*
X2954952Y3168910D01*
X2954296Y3170077D01*
X2953713Y3171243D01*
X2953276Y3172482D01*
X2952838Y3173649D01*
X2952255Y3175981D01*
X2952109Y3177002D01*
X2951964Y3178023D01*
X2951818Y3178897D01*
X2951745Y3179626D01*
X2951672Y3180282D01*
Y3180793D01*
Y3181084D01*
Y3181157D01*
X2951745Y3183198D01*
X2951891Y3185094D01*
X2952109Y3186916D01*
X2952474Y3188520D01*
X2952838Y3189978D01*
X2953276Y3191290D01*
X2953786Y3192530D01*
X2954224Y3193550D01*
X2954734Y3194498D01*
X2955171Y3195300D01*
X2955609Y3195956D01*
X2955973Y3196466D01*
X2956338Y3196904D01*
X2956556Y3197195D01*
X2956702Y3197341D01*
X2956775Y3197414D01*
X2957723Y3198289D01*
X2958743Y3199018D01*
X2959764Y3199674D01*
X2960857Y3200257D01*
X2961878Y3200695D01*
X2962899Y3201132D01*
X2964794Y3201715D01*
X2965669Y3201861D01*
X2966471Y3202007D01*
X2967127Y3202153D01*
X2967783Y3202225D01*
X2968293Y3202298D01*
X2968949D01*
X2970772Y3202225D01*
D02*
G37*
%LPC*%
G36*
X2372852Y3121413D02*
X2372519D01*
X2372298Y3121358D01*
X2371742Y3121302D01*
X2370965Y3121135D01*
X2370133Y3120858D01*
X2369189Y3120414D01*
X2368302Y3119859D01*
X2367414Y3119082D01*
X2367302Y3118971D01*
X2367081Y3118693D01*
X2366692Y3118194D01*
X2366303Y3117472D01*
X2365915Y3116640D01*
X2365526Y3115586D01*
X2365305Y3114420D01*
X2365193Y3113088D01*
Y3112977D01*
Y3112700D01*
X2365249Y3112200D01*
X2365305Y3111590D01*
X2365416Y3110868D01*
X2365637Y3110091D01*
X2365860Y3109258D01*
X2366193Y3108426D01*
X2366248Y3108315D01*
X2366414Y3108037D01*
X2366637Y3107649D01*
X2366970Y3107149D01*
X2367358Y3106650D01*
X2367858Y3106039D01*
X2368412Y3105540D01*
X2369079Y3105041D01*
X2369189Y3104985D01*
X2369412Y3104874D01*
X2369800Y3104652D01*
X2370300Y3104485D01*
X2370854Y3104264D01*
X2371521Y3104041D01*
X2372242Y3103930D01*
X2373019Y3103875D01*
X2373296D01*
X2373519Y3103930D01*
X2374073Y3103986D01*
X2374795Y3104153D01*
X2375572Y3104485D01*
X2376460Y3104874D01*
X2377348Y3105485D01*
X2377792Y3105818D01*
X2378180Y3106262D01*
Y3106317D01*
X2378291Y3106372D01*
X2378514Y3106706D01*
X2378847Y3107260D01*
X2379291Y3107982D01*
X2379679Y3108925D01*
X2380012Y3110035D01*
X2380234Y3111312D01*
X2380345Y3112811D01*
Y3112866D01*
Y3112977D01*
Y3113199D01*
X2380289Y3113477D01*
Y3113809D01*
X2380234Y3114198D01*
X2380068Y3115086D01*
X2379845Y3116085D01*
X2379457Y3117140D01*
X2378902Y3118139D01*
X2378180Y3119082D01*
X2378070Y3119193D01*
X2377792Y3119470D01*
X2377348Y3119803D01*
X2376738Y3120247D01*
X2375961Y3120691D01*
X2375073Y3121024D01*
X2374018Y3121302D01*
X2372852Y3121413D01*
D02*
G37*
G36*
X2462707Y3125409D02*
X2462430D01*
X2462207Y3125354D01*
X2461653Y3125243D01*
X2460931Y3125076D01*
X2460099Y3124743D01*
X2459211Y3124244D01*
X2458711Y3123911D01*
X2458267Y3123522D01*
X2457823Y3123078D01*
X2457379Y3122579D01*
Y3122523D01*
X2457268Y3122468D01*
X2457157Y3122301D01*
X2457046Y3122079D01*
X2456880Y3121746D01*
X2456657Y3121413D01*
X2456436Y3120969D01*
X2456269Y3120525D01*
X2456047Y3119970D01*
X2455825Y3119360D01*
X2455659Y3118693D01*
X2455436Y3117972D01*
X2455325Y3117140D01*
X2455215Y3116307D01*
X2455104Y3115419D01*
Y3114420D01*
Y3114365D01*
Y3114198D01*
Y3113921D01*
X2455159Y3113532D01*
Y3113088D01*
X2455215Y3112588D01*
X2455381Y3111423D01*
X2455659Y3110091D01*
X2455992Y3108815D01*
X2456546Y3107538D01*
X2456880Y3106983D01*
X2457268Y3106484D01*
X2457379Y3106373D01*
X2457657Y3106095D01*
X2458101Y3105651D01*
X2458711Y3105207D01*
X2459488Y3104763D01*
X2460376Y3104319D01*
X2461375Y3104042D01*
X2461930Y3103986D01*
X2462485Y3103931D01*
X2462818D01*
X2463040Y3103986D01*
X2463595Y3104097D01*
X2464372Y3104264D01*
X2465204Y3104597D01*
X2466093Y3105041D01*
X2466981Y3105707D01*
X2467425Y3106095D01*
X2467869Y3106539D01*
Y3106595D01*
X2467979Y3106650D01*
X2468090Y3106817D01*
X2468202Y3107039D01*
X2468423Y3107316D01*
X2468590Y3107705D01*
X2468812Y3108093D01*
X2469034Y3108593D01*
X2469200Y3109092D01*
X2469423Y3109758D01*
X2469644Y3110424D01*
X2469811Y3111146D01*
X2469922Y3111978D01*
X2470033Y3112866D01*
X2470144Y3113810D01*
Y3114809D01*
Y3114864D01*
Y3115031D01*
Y3115308D01*
X2470088Y3115697D01*
Y3116141D01*
X2470033Y3116640D01*
X2469867Y3117806D01*
X2469589Y3119082D01*
X2469200Y3120359D01*
X2468646Y3121635D01*
X2468312Y3122246D01*
X2467924Y3122745D01*
Y3122801D01*
X2467813Y3122856D01*
X2467535Y3123189D01*
X2467091Y3123578D01*
X2466481Y3124077D01*
X2465704Y3124577D01*
X2464816Y3125021D01*
X2463817Y3125298D01*
X2463262Y3125354D01*
X2462707Y3125409D01*
D02*
G37*
G36*
X2318352Y3131403D02*
X2306253Y3114198D01*
X2318352D01*
Y3131403D01*
D02*
G37*
G36*
X2533747Y3125243D02*
X2533414D01*
X2533137Y3125187D01*
X2532526Y3125132D01*
X2531693Y3124910D01*
X2530750Y3124577D01*
X2529751Y3124133D01*
X2528807Y3123467D01*
X2528308Y3123023D01*
X2527864Y3122579D01*
Y3122523D01*
X2527753Y3122468D01*
X2527642Y3122301D01*
X2527476Y3122079D01*
X2527309Y3121802D01*
X2527142Y3121469D01*
X2526921Y3121025D01*
X2526698Y3120581D01*
X2526477Y3120026D01*
X2526255Y3119471D01*
X2526088Y3118805D01*
X2525921Y3118083D01*
X2525755Y3117306D01*
X2525644Y3116474D01*
X2525588Y3115530D01*
X2525533Y3114587D01*
Y3114531D01*
Y3114365D01*
Y3114087D01*
X2525588Y3113699D01*
Y3113255D01*
X2525644Y3112755D01*
X2525811Y3111590D01*
X2526088Y3110258D01*
X2526532Y3108926D01*
X2527087Y3107649D01*
X2527476Y3107094D01*
X2527864Y3106539D01*
X2527919D01*
X2527975Y3106428D01*
X2528308Y3106151D01*
X2528807Y3105707D01*
X2529474Y3105263D01*
X2530306Y3104763D01*
X2531305Y3104319D01*
X2532470Y3104042D01*
X2533081Y3103986D01*
X2533747Y3103931D01*
X2534080D01*
X2534358Y3103986D01*
X2534968Y3104097D01*
X2535800Y3104264D01*
X2536689Y3104597D01*
X2537688Y3105041D01*
X2538631Y3105707D01*
X2539131Y3106151D01*
X2539575Y3106595D01*
X2539630Y3106650D01*
X2539686Y3106706D01*
X2539796Y3106872D01*
X2539963Y3107094D01*
X2540130Y3107372D01*
X2540352Y3107705D01*
X2540573Y3108149D01*
X2540796Y3108593D01*
X2541017Y3109148D01*
X2541184Y3109758D01*
X2541406Y3110424D01*
X2541573Y3111146D01*
X2541739Y3111978D01*
X2541850Y3112811D01*
X2541961Y3113754D01*
Y3114753D01*
Y3114809D01*
Y3114975D01*
Y3115253D01*
X2541905Y3115586D01*
Y3116030D01*
X2541850Y3116529D01*
X2541684Y3117695D01*
X2541406Y3118916D01*
X2540962Y3120248D01*
X2540352Y3121469D01*
X2540019Y3122079D01*
X2539575Y3122579D01*
Y3122634D01*
X2539463Y3122690D01*
X2539131Y3123023D01*
X2538631Y3123411D01*
X2537965Y3123911D01*
X2537133Y3124410D01*
X2536133Y3124854D01*
X2535023Y3125132D01*
X2534413Y3125187D01*
X2533747Y3125243D01*
D02*
G37*
G36*
X2557946Y3626007D02*
X2526234D01*
X2551749D01*
Y3607927D01*
X2551093Y3608729D01*
X2550364Y3609385D01*
X2549708Y3610042D01*
X2548979Y3610552D01*
X2548396Y3610916D01*
X2547958Y3611281D01*
X2547667Y3611427D01*
X2547521Y3611500D01*
X2546573Y3612010D01*
X2545553Y3612374D01*
X2544532Y3612593D01*
X2543584Y3612812D01*
X2542782Y3612885D01*
X2542199Y3612958D01*
X2541616D01*
X2540012Y3612885D01*
X2538481Y3612593D01*
X2537096Y3612229D01*
X2535930Y3611791D01*
X2534909Y3611281D01*
X2534180Y3610916D01*
X2533889Y3610771D01*
X2533670Y3610625D01*
X2533597Y3610552D01*
X2533524D01*
X2532212Y3609604D01*
X2531119Y3608438D01*
X2530171Y3607344D01*
X2529442Y3606251D01*
X2528859Y3605230D01*
X2528421Y3604428D01*
X2528275Y3604137D01*
X2528130Y3603918D01*
X2528057Y3603772D01*
Y3603699D01*
X2527474Y3602023D01*
X2527036Y3600273D01*
X2526672Y3598596D01*
X2526453Y3597065D01*
X2526307Y3595753D01*
Y3595170D01*
X2526234Y3594733D01*
Y3595024D01*
Y3574758D01*
Y3593785D01*
X2526307Y3591744D01*
X2526526Y3589848D01*
X2526890Y3588172D01*
X2527255Y3586714D01*
X2527401Y3586057D01*
X2527546Y3585547D01*
X2527765Y3585037D01*
X2527911Y3584599D01*
X2528057Y3584308D01*
X2528130Y3584089D01*
X2528202Y3583943D01*
Y3583870D01*
X2529004Y3582340D01*
X2529952Y3581027D01*
X2530900Y3579861D01*
X2531847Y3578913D01*
X2532649Y3578184D01*
X2533305Y3577601D01*
X2533743Y3577309D01*
X2533816Y3577164D01*
X2533889D01*
X2535274Y3576362D01*
X2536659Y3575779D01*
X2538044Y3575341D01*
X2539283Y3575050D01*
X2540304Y3574904D01*
X2541179Y3574831D01*
X2541470Y3574758D01*
X2557946D01*
Y3626007D01*
D02*
G37*
G36*
X2481255D02*
Y3593347D01*
X2474402Y3593347D01*
Y3626007D01*
X2446263D01*
X2469372D01*
X2446263Y3593347D01*
Y3575560D01*
Y3587661D01*
X2468206D01*
Y3575560D01*
X2481255Y3575560D01*
X2474402Y3575560D01*
Y3587661D01*
X2481255Y3587661D01*
Y3626007D01*
D02*
G37*
G36*
X2420092Y3626007D02*
X2413677D01*
Y3586349D01*
X2387214Y3626007D01*
X2389951D01*
X2380361D01*
Y3575560D01*
X2420092D01*
Y3626007D01*
D02*
G37*
G36*
X2326488D02*
X2286539D01*
Y3620029D01*
X2303160D01*
Y3575560D01*
X2309867D01*
Y3620029D01*
X2326488D01*
Y3583725D01*
Y3626007D01*
D02*
G37*
G36*
X2588126Y3626007D02*
X2568298D01*
Y3575560D01*
X2587543D01*
X2589293Y3575633D01*
X2590824Y3575706D01*
X2592209Y3575852D01*
X2593375Y3575997D01*
X2594323Y3576143D01*
X2595052Y3576216D01*
X2595489Y3576362D01*
X2595635D01*
X2596874Y3576726D01*
X2597895Y3577091D01*
X2598843Y3577528D01*
X2599644Y3577966D01*
X2600301Y3578257D01*
X2600811Y3578549D01*
X2601102Y3578767D01*
X2601175Y3578840D01*
X2601977Y3579497D01*
X2602706Y3580298D01*
X2603289Y3581100D01*
X2603873Y3581829D01*
X2604310Y3582558D01*
X2604602Y3583069D01*
X2604820Y3583433D01*
X2604893Y3583579D01*
X2605404Y3584745D01*
X2605768Y3585912D01*
X2606060Y3587005D01*
X2606206Y3588026D01*
X2606351Y3588901D01*
X2606424Y3589630D01*
Y3575560D01*
X2591708D01*
X2606424D01*
Y3590213D01*
X2606351Y3591817D01*
X2606060Y3593275D01*
X2605622Y3594514D01*
X2605185Y3595680D01*
X2604747Y3596555D01*
X2604310Y3597211D01*
X2604019Y3597649D01*
X2603946Y3597794D01*
X2602925Y3598961D01*
X2601831Y3599909D01*
X2600592Y3600710D01*
X2599499Y3601367D01*
X2598478Y3601877D01*
X2597603Y3602168D01*
X2597312Y3602314D01*
X2597093Y3602387D01*
X2596947Y3602460D01*
X2596874D01*
X2598114Y3603189D01*
X2599207Y3603918D01*
X2600082Y3604720D01*
X2600811Y3605449D01*
X2601394Y3606032D01*
X2601831Y3606615D01*
X2602050Y3606907D01*
X2602123Y3607053D01*
X2602706Y3608146D01*
X2603144Y3609167D01*
X2603508Y3610187D01*
X2603727Y3611135D01*
X2603873Y3611937D01*
X2603946Y3612593D01*
Y3612958D01*
Y3613103D01*
X2603873Y3614343D01*
X2603654Y3615582D01*
X2603289Y3616675D01*
X2602925Y3617696D01*
X2602561Y3618571D01*
X2602196Y3619154D01*
X2601977Y3619591D01*
X2601904Y3619737D01*
X2601102Y3620831D01*
X2600228Y3621851D01*
X2599280Y3622653D01*
X2598405Y3623309D01*
X2597676Y3623820D01*
X2597020Y3624184D01*
X2596583Y3624403D01*
X2596510Y3624476D01*
X2596437D01*
X2595052Y3624986D01*
X2593521Y3625351D01*
X2591990Y3625642D01*
X2590532Y3625788D01*
X2589220Y3625934D01*
X2588637D01*
X2588126Y3626007D01*
D02*
G37*
G36*
X2371176Y3626007D02*
X2333487D01*
Y3575560D01*
X2371176D01*
Y3581538D01*
Y3581538D01*
X2340193D01*
Y3598669D01*
X2368114D01*
Y3604647D01*
X2340193D01*
Y3620029D01*
X2370010D01*
Y3626007D01*
X2371176D01*
D02*
G37*
G36*
X2283404D02*
X2243455D01*
Y3620029D01*
X2260076D01*
Y3575560D01*
X2283404D01*
Y3626007D01*
D02*
G37*
G36*
X2241851D02*
X2213931D01*
X2194685Y3575560D01*
X2218143D01*
X2201756D01*
X2207224Y3590869D01*
X2228365D01*
X2234270Y3575560D01*
X2241851D01*
X2221221Y3626007D01*
X2241851D01*
D02*
G37*
G36*
X2504729Y3626225D02*
X2487597D01*
X2504073D01*
X2502104Y3626080D01*
X2500282Y3625788D01*
X2498751Y3625278D01*
X2497439Y3624767D01*
X2496345Y3624184D01*
X2495908Y3623965D01*
X2495543Y3623674D01*
X2495252Y3623528D01*
X2495033Y3623382D01*
X2494960Y3623236D01*
X2494887D01*
X2493575Y3622070D01*
X2492481Y3620685D01*
X2491534Y3619300D01*
X2490805Y3617988D01*
X2490222Y3616748D01*
X2489930Y3616238D01*
X2489784Y3615728D01*
X2489638Y3615363D01*
X2489493Y3615072D01*
X2489420Y3614926D01*
Y3614853D01*
X2489128Y3613760D01*
X2488836Y3612666D01*
X2488399Y3610260D01*
X2488035Y3607855D01*
X2487816Y3605595D01*
X2487743Y3604501D01*
X2487670Y3603553D01*
Y3602679D01*
X2487597Y3601877D01*
Y3600419D01*
X2487670Y3597867D01*
X2487816Y3595462D01*
X2488035Y3593275D01*
X2488399Y3591233D01*
X2488764Y3589338D01*
X2489201Y3587661D01*
X2489638Y3586130D01*
X2490076Y3584818D01*
X2490513Y3583652D01*
X2491023Y3582631D01*
X2491388Y3581756D01*
X2491753Y3581100D01*
X2492117Y3580517D01*
X2492336Y3580153D01*
X2492481Y3579934D01*
X2492554Y3579861D01*
X2493356Y3578986D01*
X2494231Y3578184D01*
X2495179Y3577455D01*
X2496126Y3576872D01*
X2497074Y3576362D01*
X2498022Y3575924D01*
X2498970Y3575633D01*
X2499844Y3575341D01*
X2500719Y3575122D01*
X2501521Y3574977D01*
X2502250Y3574831D01*
X2502833Y3574758D01*
X2503344Y3574685D01*
X2504073D01*
X2506041Y3574831D01*
X2507863Y3575122D01*
X2509394Y3575633D01*
X2510706Y3576143D01*
X2511800Y3576653D01*
X2512164Y3576945D01*
X2512529Y3577164D01*
X2512821Y3577309D01*
X2513039Y3577455D01*
X2513112Y3577601D01*
X2513185D01*
X2514497Y3578840D01*
X2515591Y3580153D01*
X2516539Y3581611D01*
X2517267Y3582923D01*
X2517851Y3584162D01*
X2518142Y3584672D01*
X2518288Y3585183D01*
X2518434Y3585547D01*
X2518580Y3585839D01*
X2518653Y3585985D01*
Y3586057D01*
X2519017Y3587151D01*
X2519309Y3588244D01*
X2519746Y3590577D01*
X2520111Y3592983D01*
X2520329Y3595316D01*
X2520402Y3596336D01*
X2520475Y3597284D01*
Y3598159D01*
X2520548Y3598961D01*
Y3601804D01*
X2520475Y3603116D01*
Y3604282D01*
X2520402Y3605449D01*
X2520256Y3606470D01*
X2520184Y3607490D01*
X2520111Y3608365D01*
X2519965Y3609167D01*
X2519892Y3609896D01*
X2519746Y3610552D01*
X2519673Y3611062D01*
X2519600Y3611500D01*
X2519527Y3611864D01*
X2519454Y3612083D01*
X2519382Y3612229D01*
Y3612302D01*
X2518944Y3613905D01*
X2518434Y3615363D01*
X2517851Y3616603D01*
X2517413Y3617696D01*
X2516903Y3618644D01*
X2516611Y3619300D01*
X2516320Y3619664D01*
X2516247Y3619810D01*
X2515445Y3620904D01*
X2514643Y3621851D01*
X2513768Y3622653D01*
X2512966Y3623382D01*
X2512237Y3623893D01*
X2511654Y3624257D01*
X2511290Y3624476D01*
X2511217Y3624549D01*
X2511144D01*
X2509977Y3625132D01*
X2508738Y3625496D01*
X2507572Y3625788D01*
X2506478Y3626007D01*
X2505531Y3626153D01*
X2504729Y3626225D01*
D02*
G37*
%LPD*%
G36*
X2543074Y3607782D02*
X2543803Y3607709D01*
X2545188Y3607271D01*
X2546427Y3606761D01*
X2547448Y3606105D01*
X2548250Y3605449D01*
X2548906Y3604866D01*
X2549271Y3604428D01*
X2549416Y3604355D01*
Y3604282D01*
X2549927Y3603553D01*
X2550364Y3602825D01*
X2551093Y3601075D01*
X2551603Y3599252D01*
X2551968Y3597503D01*
X2552114Y3596628D01*
X2552187Y3595826D01*
X2552260Y3595097D01*
Y3594514D01*
X2552332Y3594004D01*
Y3593639D01*
Y3593347D01*
Y3593275D01*
Y3592035D01*
X2552187Y3590869D01*
X2552041Y3589848D01*
X2551895Y3588828D01*
X2551676Y3587953D01*
X2551385Y3587078D01*
X2551166Y3586349D01*
X2550874Y3585693D01*
X2550583Y3585110D01*
X2550364Y3584527D01*
X2550073Y3584162D01*
X2549854Y3583798D01*
X2549708Y3583506D01*
X2549562Y3583287D01*
X2549416Y3583214D01*
Y3583142D01*
X2548906Y3582558D01*
X2548323Y3582048D01*
X2547157Y3581246D01*
X2545990Y3580663D01*
X2544897Y3580298D01*
X2543949Y3580007D01*
X2543147Y3579934D01*
X2542855Y3579861D01*
X2542491D01*
X2541762Y3579934D01*
X2541033Y3580007D01*
X2539721Y3580371D01*
X2538481Y3580954D01*
X2537461Y3581611D01*
X2536659Y3582194D01*
X2536003Y3582777D01*
X2535638Y3583142D01*
X2535565Y3583287D01*
X2535492D01*
X2534982Y3584016D01*
X2534545Y3584745D01*
X2533816Y3586422D01*
X2533305Y3588172D01*
X2532941Y3589848D01*
X2532722Y3591379D01*
X2532649Y3592035D01*
Y3592619D01*
X2532577Y3593129D01*
Y3593493D01*
Y3593712D01*
Y3593785D01*
Y3595097D01*
X2532722Y3596336D01*
X2532868Y3597503D01*
X2533014Y3598523D01*
X2533233Y3599471D01*
X2533451Y3600346D01*
X2533670Y3601148D01*
X2533962Y3601877D01*
X2534253Y3602460D01*
X2534472Y3602970D01*
X2534691Y3603408D01*
X2534909Y3603772D01*
X2535128Y3604064D01*
X2535201Y3604282D01*
X2535347Y3604355D01*
Y3604428D01*
X2535857Y3605012D01*
X2536440Y3605595D01*
X2537607Y3606397D01*
X2538773Y3607053D01*
X2539867Y3607417D01*
X2540814Y3607709D01*
X2541616Y3607782D01*
X2541908Y3607855D01*
X2542272D01*
X2543074Y3607782D01*
D02*
G37*
G36*
X2552187Y3575560D02*
X2557946D01*
Y3574758D01*
X2541908D01*
X2543147Y3574831D01*
X2544313Y3574977D01*
X2545407Y3575268D01*
X2546355Y3575633D01*
X2547302Y3575997D01*
X2548177Y3576435D01*
X2548906Y3576945D01*
X2549562Y3577455D01*
X2550218Y3577966D01*
X2550729Y3578476D01*
X2551166Y3578913D01*
X2551530Y3579278D01*
X2551822Y3579642D01*
X2552041Y3579934D01*
X2552114Y3580080D01*
X2552187Y3580153D01*
Y3575560D01*
D02*
G37*
G36*
X2468206Y3593347D02*
X2452314D01*
X2468206Y3615946D01*
Y3593347D01*
D02*
G37*
G36*
X2413166Y3575560D02*
X2386776D01*
Y3615144D01*
X2413166Y3575560D01*
D02*
G37*
G36*
X2588564Y3619883D02*
X2589803Y3619810D01*
X2590896Y3619664D01*
X2591698Y3619519D01*
X2592209Y3619446D01*
X2592573Y3619300D01*
X2592646D01*
X2593448Y3619008D01*
X2594177Y3618571D01*
X2594760Y3618133D01*
X2595271Y3617696D01*
X2595635Y3617332D01*
X2595927Y3616967D01*
X2596072Y3616748D01*
X2596145Y3616675D01*
X2596583Y3615947D01*
X2596874Y3615218D01*
X2597093Y3614488D01*
X2597239Y3613760D01*
X2597312Y3613176D01*
X2597385Y3612739D01*
Y3612447D01*
Y3612302D01*
X2597312Y3611354D01*
X2597166Y3610479D01*
X2596947Y3609750D01*
X2596729Y3609167D01*
X2596510Y3608657D01*
X2596291Y3608219D01*
X2596145Y3608000D01*
X2596072Y3607927D01*
X2595562Y3607344D01*
X2594906Y3606761D01*
X2594250Y3606324D01*
X2593667Y3606032D01*
X2593084Y3605740D01*
X2592646Y3605522D01*
X2592354Y3605449D01*
X2592209Y3605376D01*
X2591407Y3605230D01*
X2590386Y3605084D01*
X2589366Y3605012D01*
X2588345Y3604939D01*
X2587397Y3604866D01*
X2575004D01*
Y3620029D01*
X2586960D01*
X2588564Y3619883D01*
D02*
G37*
G36*
X2589803Y3598742D02*
X2591042Y3598596D01*
X2592063Y3598450D01*
X2592865Y3598305D01*
X2593521Y3598159D01*
X2593812Y3598086D01*
X2593958Y3598013D01*
X2594906Y3597649D01*
X2595708Y3597211D01*
X2596437Y3596701D01*
X2597020Y3596191D01*
X2597457Y3595753D01*
X2597749Y3595389D01*
X2597968Y3595097D01*
X2598041Y3595024D01*
X2598551Y3594222D01*
X2598916Y3593420D01*
X2599207Y3592619D01*
X2599353Y3591890D01*
X2599499Y3591233D01*
X2599572Y3590650D01*
Y3590359D01*
Y3590213D01*
X2599499Y3589338D01*
X2599426Y3588463D01*
X2599280Y3587734D01*
X2599061Y3587151D01*
X2598843Y3586641D01*
X2598697Y3586203D01*
X2598624Y3585985D01*
X2598551Y3585912D01*
X2598114Y3585256D01*
X2597749Y3584672D01*
X2597239Y3584235D01*
X2596874Y3583798D01*
X2596510Y3583506D01*
X2596218Y3583287D01*
X2595999Y3583142D01*
X2595927Y3583069D01*
X2594687Y3582485D01*
X2593448Y3582048D01*
X2592938Y3581902D01*
X2592500Y3581829D01*
X2592209Y3581756D01*
X2592136D01*
X2591553Y3581684D01*
X2590896Y3581611D01*
X2589366Y3581538D01*
X2575004D01*
Y3598888D01*
X2588272D01*
X2589803Y3598742D01*
D02*
G37*
G36*
X2283404Y3575560D02*
X2266783D01*
Y3620029D01*
X2283404D01*
Y3575560D01*
D02*
G37*
G36*
X2217940Y3619081D02*
X2218523Y3617331D01*
X2219106Y3615582D01*
X2219690Y3613905D01*
X2219981Y3613176D01*
X2220200Y3612447D01*
X2220419Y3611791D01*
X2220637Y3611281D01*
X2220783Y3610843D01*
X2220929Y3610479D01*
X2221002Y3610260D01*
Y3610187D01*
X2226251Y3596336D01*
X2209192D01*
X2214660Y3611062D01*
X2215316Y3612885D01*
X2215826Y3614634D01*
X2216336Y3616238D01*
X2216701Y3617696D01*
X2216992Y3618935D01*
X2217138Y3619446D01*
X2217211Y3619956D01*
X2217357Y3620247D01*
Y3620539D01*
X2217430Y3620685D01*
Y3620758D01*
X2217940Y3619081D01*
D02*
G37*
G36*
X2504802Y3621050D02*
X2505604Y3620977D01*
X2506332Y3620758D01*
X2506989Y3620466D01*
X2508228Y3619810D01*
X2509321Y3619081D01*
X2510123Y3618279D01*
X2510779Y3617623D01*
X2510998Y3617332D01*
X2511144Y3617113D01*
X2511290Y3617040D01*
Y3616967D01*
X2511800Y3616092D01*
X2512237Y3615072D01*
X2512675Y3613905D01*
X2512966Y3612666D01*
X2513258Y3611354D01*
X2513477Y3609969D01*
X2513841Y3607198D01*
X2513987Y3605813D01*
X2514060Y3604574D01*
X2514133Y3603408D01*
Y3602460D01*
X2514206Y3601585D01*
Y3600929D01*
Y3600565D01*
Y3600492D01*
Y3600419D01*
Y3598159D01*
X2514060Y3596118D01*
X2513914Y3594295D01*
X2513768Y3592546D01*
X2513550Y3591088D01*
X2513258Y3589702D01*
X2512966Y3588536D01*
X2512748Y3587443D01*
X2512456Y3586568D01*
X2512164Y3585839D01*
X2511946Y3585183D01*
X2511654Y3584672D01*
X2511508Y3584308D01*
X2511363Y3584089D01*
X2511217Y3583943D01*
Y3583870D01*
X2510634Y3583142D01*
X2510050Y3582558D01*
X2509467Y3581975D01*
X2508884Y3581538D01*
X2507645Y3580809D01*
X2506551Y3580298D01*
X2505531Y3580007D01*
X2504802Y3579861D01*
X2504510Y3579788D01*
X2504073D01*
X2503271Y3579861D01*
X2502542Y3579934D01*
X2501157Y3580444D01*
X2499917Y3581100D01*
X2498824Y3581829D01*
X2498022Y3582558D01*
X2497366Y3583214D01*
X2497001Y3583725D01*
X2496856Y3583798D01*
Y3583870D01*
X2496345Y3584745D01*
X2495908Y3585766D01*
X2495470Y3586932D01*
X2495179Y3588172D01*
X2494887Y3589484D01*
X2494669Y3590869D01*
X2494304Y3593712D01*
X2494158Y3595024D01*
X2494085Y3596264D01*
X2494012Y3597430D01*
Y3598378D01*
X2493939Y3599252D01*
Y3599909D01*
Y3600273D01*
Y3600419D01*
X2494012Y3602679D01*
X2494085Y3604720D01*
X2494231Y3606615D01*
X2494450Y3608365D01*
X2494669Y3609896D01*
X2494960Y3611281D01*
X2495252Y3612520D01*
X2495543Y3613614D01*
X2495835Y3614561D01*
X2496054Y3615363D01*
X2496345Y3616019D01*
X2496564Y3616603D01*
X2496783Y3616967D01*
X2496928Y3617259D01*
X2497074Y3617405D01*
Y3617477D01*
X2497584Y3618133D01*
X2498095Y3618717D01*
X2498678Y3619154D01*
X2499261Y3619591D01*
X2500428Y3620248D01*
X2501521Y3620685D01*
X2502469Y3620904D01*
X2503271Y3621050D01*
X2503562Y3621122D01*
X2504000D01*
X2504802Y3621050D01*
D02*
G37*
%LPC*%
G36*
X2666092Y3449461D02*
X2666037D01*
X2665981D01*
X2665648Y3449405D01*
X2665149Y3449349D01*
X2664483Y3449238D01*
X2663817Y3448961D01*
X2663040Y3448628D01*
X2662318Y3448128D01*
X2661597Y3447463D01*
X2661541Y3447352D01*
X2661319Y3447074D01*
X2661042Y3446630D01*
X2660709Y3445909D01*
X2660376Y3445076D01*
X2660098Y3443966D01*
X2659876Y3442689D01*
X2659821Y3441191D01*
Y3429092D01*
X2672530D01*
Y3440525D01*
X2672475Y3441191D01*
X2672419Y3441968D01*
X2672364Y3442856D01*
X2672253Y3443744D01*
X2672086Y3444632D01*
X2671864Y3445409D01*
X2671809Y3445520D01*
X2671698Y3445742D01*
X2671531Y3446075D01*
X2671309Y3446519D01*
X2670976Y3447019D01*
X2670588Y3447518D01*
X2670088Y3448017D01*
X2669533Y3448406D01*
X2669478Y3448461D01*
X2669256Y3448573D01*
X2668923Y3448739D01*
X2668479Y3448961D01*
X2667979Y3449128D01*
X2667424Y3449294D01*
X2666758Y3449405D01*
X2666092Y3449461D01*
D02*
G37*
G36*
X2034065Y3195179D02*
X2021966D01*
Y3182470D01*
X2033399D01*
X2034065Y3182525D01*
X2034842Y3182581D01*
X2035730Y3182636D01*
X2036618Y3182747D01*
X2037506Y3182914D01*
X2038283Y3183136D01*
X2038394Y3183191D01*
X2038616Y3183302D01*
X2038949Y3183469D01*
X2039393Y3183691D01*
X2039892Y3184024D01*
X2040392Y3184412D01*
X2040891Y3184912D01*
X2041280Y3185467D01*
X2041335Y3185522D01*
X2041447Y3185744D01*
X2041613Y3186077D01*
X2041835Y3186521D01*
X2042002Y3187021D01*
X2042168Y3187576D01*
X2042279Y3188242D01*
X2042334Y3188908D01*
Y3188963D01*
Y3189019D01*
X2042279Y3189352D01*
X2042224Y3189851D01*
X2042112Y3190517D01*
X2041835Y3191183D01*
X2041502Y3191960D01*
X2041003Y3192682D01*
X2040336Y3193403D01*
X2040226Y3193459D01*
X2039948Y3193681D01*
X2039504Y3193958D01*
X2038783Y3194291D01*
X2037950Y3194624D01*
X2036840Y3194902D01*
X2035563Y3195124D01*
X2034065Y3195179D01*
D02*
G37*
G36*
X2529506Y3251804D02*
X2529173D01*
X2528951Y3251748D01*
X2528396Y3251693D01*
X2527619Y3251526D01*
X2526787Y3251249D01*
X2525843Y3250805D01*
X2524955Y3250250D01*
X2524067Y3249473D01*
X2523956Y3249362D01*
X2523734Y3249084D01*
X2523345Y3248585D01*
X2522957Y3247863D01*
X2522568Y3247031D01*
X2522180Y3245976D01*
X2521958Y3244811D01*
X2521847Y3243479D01*
Y3243368D01*
Y3243090D01*
X2521903Y3242591D01*
X2521958Y3241980D01*
X2522069Y3241259D01*
X2522291Y3240482D01*
X2522513Y3239649D01*
X2522846Y3238817D01*
X2522901Y3238706D01*
X2523068Y3238428D01*
X2523290Y3238040D01*
X2523623Y3237540D01*
X2524012Y3237041D01*
X2524511Y3236430D01*
X2525066Y3235931D01*
X2525732Y3235431D01*
X2525843Y3235376D01*
X2526065Y3235265D01*
X2526454Y3235043D01*
X2526953Y3234876D01*
X2527508Y3234654D01*
X2528174Y3234432D01*
X2528896Y3234321D01*
X2529673Y3234266D01*
X2529950D01*
X2530172Y3234321D01*
X2530727Y3234377D01*
X2531448Y3234543D01*
X2532226Y3234876D01*
X2533113Y3235265D01*
X2534001Y3235875D01*
X2534445Y3236208D01*
X2534834Y3236652D01*
Y3236708D01*
X2534945Y3236763D01*
X2535167Y3237096D01*
X2535500Y3237651D01*
X2535944Y3238373D01*
X2536332Y3239316D01*
X2536666Y3240426D01*
X2536887Y3241703D01*
X2536999Y3243201D01*
Y3243257D01*
Y3243368D01*
Y3243590D01*
X2536943Y3243867D01*
Y3244200D01*
X2536887Y3244589D01*
X2536721Y3245477D01*
X2536499Y3246476D01*
X2536110Y3247530D01*
X2535555Y3248529D01*
X2534834Y3249473D01*
X2534723Y3249584D01*
X2534445Y3249861D01*
X2534001Y3250194D01*
X2533391Y3250638D01*
X2532614Y3251082D01*
X2531726Y3251415D01*
X2530671Y3251693D01*
X2529506Y3251804D01*
D02*
G37*
G36*
X2431382Y3265734D02*
X2430494D01*
X2430272Y3265679D01*
X2429662Y3265623D01*
X2428940Y3265401D01*
X2428052Y3265124D01*
X2427108Y3264624D01*
X2426165Y3264014D01*
X2425721Y3263570D01*
X2425277Y3263126D01*
Y3263070D01*
X2425166Y3263015D01*
X2425055Y3262848D01*
X2424944Y3262682D01*
X2424555Y3262127D01*
X2424167Y3261350D01*
X2423723Y3260406D01*
X2423334Y3259241D01*
X2423113Y3257909D01*
X2423001Y3256466D01*
Y3256410D01*
Y3256299D01*
Y3256133D01*
X2423057Y3255855D01*
Y3255522D01*
X2423113Y3255189D01*
X2423279Y3254357D01*
X2423557Y3253413D01*
X2423890Y3252414D01*
X2424445Y3251415D01*
X2425166Y3250527D01*
X2425277Y3250416D01*
X2425555Y3250194D01*
X2426054Y3249806D01*
X2426664Y3249417D01*
X2427497Y3248973D01*
X2428441Y3248585D01*
X2429495Y3248363D01*
X2430660Y3248252D01*
X2430994D01*
X2431215Y3248307D01*
X2431826Y3248363D01*
X2432548Y3248529D01*
X2433436Y3248807D01*
X2434323Y3249195D01*
X2435211Y3249750D01*
X2436044Y3250527D01*
X2436155Y3250638D01*
X2436377Y3250971D01*
X2436710Y3251471D01*
X2437154Y3252192D01*
X2437543Y3253080D01*
X2437876Y3254135D01*
X2438097Y3255411D01*
X2438209Y3256854D01*
Y3256910D01*
Y3257021D01*
Y3257243D01*
X2438153Y3257520D01*
Y3257909D01*
X2438097Y3258297D01*
X2437931Y3259185D01*
X2437709Y3260240D01*
X2437320Y3261350D01*
X2436765Y3262404D01*
X2436044Y3263348D01*
Y3263403D01*
X2435933Y3263459D01*
X2435655Y3263736D01*
X2435211Y3264125D01*
X2434601Y3264569D01*
X2433824Y3264957D01*
X2432936Y3265346D01*
X2431937Y3265623D01*
X2431382Y3265734D01*
D02*
G37*
G36*
X2467235Y3265179D02*
X2455136D01*
Y3252470D01*
X2466569D01*
X2467235Y3252525D01*
X2468012Y3252581D01*
X2468900Y3252636D01*
X2469788Y3252747D01*
X2470676Y3252914D01*
X2471453Y3253136D01*
X2471564Y3253191D01*
X2471786Y3253302D01*
X2472119Y3253469D01*
X2472563Y3253691D01*
X2473062Y3254024D01*
X2473562Y3254412D01*
X2474061Y3254912D01*
X2474450Y3255467D01*
X2474506Y3255522D01*
X2474617Y3255744D01*
X2474783Y3256077D01*
X2475005Y3256521D01*
X2475171Y3257021D01*
X2475338Y3257576D01*
X2475449Y3258242D01*
X2475505Y3258908D01*
Y3258963D01*
Y3259019D01*
X2475449Y3259352D01*
X2475394Y3259851D01*
X2475282Y3260517D01*
X2475005Y3261183D01*
X2474672Y3261960D01*
X2474173Y3262682D01*
X2473506Y3263403D01*
X2473396Y3263459D01*
X2473118Y3263681D01*
X2472674Y3263958D01*
X2471952Y3264291D01*
X2471120Y3264624D01*
X2470010Y3264902D01*
X2468733Y3265124D01*
X2467235Y3265179D01*
D02*
G37*
G36*
X2235671Y3265734D02*
X2234783D01*
X2234561Y3265679D01*
X2233950Y3265623D01*
X2233229Y3265401D01*
X2232341Y3265124D01*
X2231398Y3264624D01*
X2230454Y3264014D01*
X2230010Y3263570D01*
X2229566Y3263126D01*
Y3263070D01*
X2229455Y3263015D01*
X2229344Y3262848D01*
X2229233Y3262682D01*
X2228845Y3262127D01*
X2228456Y3261350D01*
X2228012Y3260406D01*
X2227624Y3259241D01*
X2227401Y3257909D01*
X2227291Y3256466D01*
Y3256410D01*
Y3256299D01*
Y3256133D01*
X2227346Y3255855D01*
Y3255522D01*
X2227401Y3255189D01*
X2227568Y3254357D01*
X2227845Y3253413D01*
X2228178Y3252414D01*
X2228733Y3251415D01*
X2229455Y3250527D01*
X2229566Y3250416D01*
X2229843Y3250194D01*
X2230343Y3249806D01*
X2230954Y3249417D01*
X2231786Y3248973D01*
X2232729Y3248585D01*
X2233784Y3248363D01*
X2234950Y3248252D01*
X2235282D01*
X2235505Y3248307D01*
X2236115Y3248363D01*
X2236836Y3248529D01*
X2237724Y3248807D01*
X2238613Y3249195D01*
X2239501Y3249750D01*
X2240333Y3250527D01*
X2240444Y3250638D01*
X2240666Y3250971D01*
X2240999Y3251471D01*
X2241443Y3252192D01*
X2241831Y3253080D01*
X2242164Y3254135D01*
X2242387Y3255411D01*
X2242497Y3256854D01*
Y3256910D01*
Y3257021D01*
Y3257243D01*
X2242442Y3257520D01*
Y3257909D01*
X2242387Y3258297D01*
X2242220Y3259185D01*
X2241998Y3260240D01*
X2241610Y3261350D01*
X2241055Y3262404D01*
X2240333Y3263348D01*
Y3263403D01*
X2240222Y3263459D01*
X2239945Y3263736D01*
X2239501Y3264125D01*
X2238890Y3264569D01*
X2238113Y3264957D01*
X2237225Y3265346D01*
X2236226Y3265623D01*
X2235671Y3265734D01*
D02*
G37*
G36*
X2301383Y3265179D02*
X2289284D01*
Y3252470D01*
X2300717D01*
X2301383Y3252525D01*
X2302160Y3252581D01*
X2303048Y3252636D01*
X2303936Y3252747D01*
X2304824Y3252914D01*
X2305601Y3253136D01*
X2305712Y3253191D01*
X2305934Y3253302D01*
X2306267Y3253469D01*
X2306711Y3253691D01*
X2307211Y3254024D01*
X2307710Y3254412D01*
X2308209Y3254912D01*
X2308598Y3255467D01*
X2308653Y3255522D01*
X2308765Y3255744D01*
X2308931Y3256077D01*
X2309153Y3256521D01*
X2309320Y3257021D01*
X2309486Y3257576D01*
X2309597Y3258242D01*
X2309653Y3258908D01*
Y3258963D01*
Y3259019D01*
X2309597Y3259352D01*
X2309541Y3259851D01*
X2309430Y3260517D01*
X2309153Y3261183D01*
X2308820Y3261960D01*
X2308320Y3262682D01*
X2307655Y3263403D01*
X2307544Y3263459D01*
X2307266Y3263681D01*
X2306822Y3263958D01*
X2306101Y3264291D01*
X2305268Y3264624D01*
X2304158Y3264902D01*
X2302881Y3265124D01*
X2301383Y3265179D01*
D02*
G37*
G36*
X2207699Y3261794D02*
X2195600Y3244589D01*
X2207699D01*
Y3261794D01*
D02*
G37*
G36*
X2264809Y3265734D02*
X2264476D01*
X2264253Y3265679D01*
X2263643Y3265568D01*
X2262921Y3265401D01*
X2262089Y3265068D01*
X2261201Y3264569D01*
X2260757Y3264236D01*
X2260313Y3263903D01*
X2259925Y3263459D01*
X2259536Y3262959D01*
Y3262904D01*
X2259425Y3262793D01*
X2259314Y3262571D01*
X2259148Y3262293D01*
X2258981Y3261849D01*
X2258759Y3261350D01*
X2258593Y3260739D01*
X2258370Y3260018D01*
X2258148Y3259185D01*
X2257927Y3258242D01*
X2257704Y3257187D01*
X2257538Y3256022D01*
X2257372Y3254690D01*
X2257260Y3253247D01*
X2257205Y3251693D01*
X2257149Y3249972D01*
Y3249861D01*
Y3249584D01*
Y3249084D01*
X2257205Y3248418D01*
Y3247697D01*
X2257260Y3246809D01*
X2257316Y3245865D01*
X2257427Y3244866D01*
X2257704Y3242702D01*
X2257871Y3241647D01*
X2258093Y3240648D01*
X2258315Y3239705D01*
X2258648Y3238817D01*
X2258981Y3238040D01*
X2259369Y3237374D01*
Y3237318D01*
X2259481Y3237263D01*
X2259758Y3236874D01*
X2260258Y3236375D01*
X2260868Y3235820D01*
X2261700Y3235265D01*
X2262644Y3234765D01*
X2263698Y3234377D01*
X2264253Y3234321D01*
X2264864Y3234266D01*
X2265197D01*
X2265419Y3234321D01*
X2265974Y3234432D01*
X2266751Y3234654D01*
X2267584Y3235043D01*
X2268527Y3235598D01*
X2268971Y3235931D01*
X2269415Y3236375D01*
X2269859Y3236819D01*
X2270303Y3237374D01*
Y3237429D01*
X2270414Y3237540D01*
X2270525Y3237707D01*
X2270636Y3237984D01*
X2270858Y3238373D01*
X2271024Y3238872D01*
X2271247Y3239427D01*
X2271468Y3240093D01*
X2271635Y3240926D01*
X2271857Y3241814D01*
X2272079Y3242868D01*
X2272245Y3243978D01*
X2272356Y3245310D01*
X2272468Y3246698D01*
X2272579Y3248252D01*
Y3249972D01*
Y3250028D01*
Y3250083D01*
Y3250361D01*
Y3250860D01*
X2272523Y3251526D01*
Y3252248D01*
X2272468Y3253136D01*
X2272412Y3254079D01*
X2272301Y3255134D01*
X2272023Y3257243D01*
X2271857Y3258297D01*
X2271635Y3259296D01*
X2271413Y3260240D01*
X2271080Y3261128D01*
X2270747Y3261905D01*
X2270358Y3262571D01*
Y3262626D01*
X2270247Y3262682D01*
X2270137Y3262848D01*
X2269970Y3263070D01*
X2269470Y3263570D01*
X2268860Y3264180D01*
X2268028Y3264735D01*
X2267084Y3265235D01*
X2266584Y3265457D01*
X2266030Y3265623D01*
X2265419Y3265679D01*
X2264809Y3265734D01*
D02*
G37*
G36*
X1792218Y3202794D02*
X1785803D01*
Y3163137D01*
X1759341Y3202794D01*
X1752488D01*
Y3152347D01*
X1758903D01*
Y3191932D01*
X1785293Y3152347D01*
X1792218D01*
Y3202794D01*
D02*
G37*
G36*
X1740751D02*
X1734044D01*
Y3152347D01*
X1740751D01*
Y3202794D01*
D02*
G37*
%LPD*%
D17*
X2905118Y3412571D02*
G03*
X2905118Y3412571I-4921J0D01*
G01*
X1939628D02*
G03*
X1939628Y3412571I-4921J0D01*
G01*
D18*
X2819213Y3345705D02*
Y3377201D01*
X2720787Y3345705D02*
Y3377201D01*
X2465354Y3370114D02*
X2496850D01*
X2465354Y3468539D02*
X2496850D01*
X2234252Y3370114D02*
X2265748D01*
X2234252Y3468539D02*
X2265748D01*
X2057087Y3345705D02*
Y3377201D01*
X1958661Y3345705D02*
Y3377201D01*
X2925197Y3570051D02*
X3110236D01*
X2925197Y3255091D02*
Y3570051D01*
Y3255091D02*
X3110236D01*
X1724667D02*
X1909706D01*
Y3570051D01*
X1724667D02*
X1909706D01*
%TF.MD5,b24049c32dbc3eb18d217b125c2e18ab*%
M02*
