%TF.GenerationSoftware,Altium Limited,Altium Designer,20.0.10 (225)*%
G04 Layer_Color=16711935*
%FSLAX26Y26*%
%MOIN*%
%TF.FileFunction,Other,Top_3D_Body*%
%TF.Part,Single*%
G01*
G75*
%TA.AperFunction,NonConductor*%
%ADD22C,0.007874*%
%ADD25C,0.003937*%
D22*
X3474803Y1422181D02*
Y1672181D01*
X3100000Y1422181D02*
X3474803D01*
X3100000D02*
Y1672181D01*
X3474803D01*
X3100000Y1395016D02*
Y1699346D01*
X1281772Y1415945D02*
Y1665945D01*
X1656575D01*
Y1415945D02*
Y1665945D01*
X1281772Y1415945D02*
X1656575D01*
Y1388780D02*
Y1693110D01*
D25*
X2823150Y1429134D02*
Y1562992D01*
X2716850Y1429134D02*
Y1562992D01*
X2823150D01*
X2716850Y1429134D02*
X2823150D01*
Y1175761D02*
Y1309619D01*
X2716850Y1175761D02*
Y1309619D01*
X2823150D01*
X2716850Y1175761D02*
X2823150D01*
X2139764D02*
Y1309619D01*
X2033465Y1175761D02*
Y1309619D01*
X2139764D01*
X2033465Y1175761D02*
X2139764D01*
Y1424288D02*
Y1558147D01*
X2033465Y1424288D02*
Y1558147D01*
X2139764D01*
X2033465Y1424288D02*
X2139764D01*
X2444173Y1496850D02*
X2578032D01*
X2444173Y1603150D02*
X2578032D01*
Y1496850D02*
Y1603150D01*
X2444173Y1496850D02*
Y1603150D01*
X2188071Y1496850D02*
X2321929D01*
X2188071Y1603150D02*
X2321929D01*
Y1496850D02*
Y1603150D01*
X2188071Y1496850D02*
Y1603150D01*
%TF.MD5,a046cbd3a0d3786e13d731d7c4d8af2c*%
M02*
