%TF.GenerationSoftware,Altium Limited,Altium Designer,20.0.10 (225)*%
G04 Layer_Physical_Order=2*
G04 Layer_Color=16711680*
%FSLAX26Y26*%
%MOIN*%
%TF.FileFunction,Copper,L2,Bot,Signal*%
%TF.Part,Single*%
G01*
G75*
%TA.AperFunction,ConnectorPad*%
%ADD13R,0.196850X0.062992*%
%TA.AperFunction,SMDPad,CuDef*%
%ADD15R,0.196850X0.062992*%
%TA.AperFunction,ViaPad*%
%ADD19C,0.050000*%
G36*
X3038446Y1812979D02*
X3053401Y1808972D01*
X3067705Y1803047D01*
X3081114Y1795305D01*
X3093397Y1785880D01*
X3104345Y1774932D01*
X3113770Y1762649D01*
X3121511Y1749241D01*
X3127436Y1734937D01*
X3131444Y1719981D01*
X3133465Y1704631D01*
Y1696890D01*
Y1178110D01*
Y1170369D01*
X3131444Y1155019D01*
X3127436Y1140063D01*
X3121511Y1125759D01*
X3113770Y1112351D01*
X3104345Y1100068D01*
X3093397Y1089120D01*
X3081114Y1079694D01*
X3067705Y1071953D01*
X3053401Y1066028D01*
X3038446Y1062021D01*
X3023096Y1060000D01*
X3015354Y1060000D01*
X1732284Y1060000D01*
X1724542D01*
X1709192Y1062021D01*
X1694237Y1066028D01*
X1679933Y1071953D01*
X1666524Y1079694D01*
X1654241Y1089120D01*
X1643293Y1100068D01*
X1633868Y1112351D01*
X1626126Y1125759D01*
X1620201Y1140063D01*
X1616194Y1155019D01*
X1614173Y1170369D01*
Y1178110D01*
X1614173Y1696890D01*
X1614173D01*
Y1704631D01*
X1616194Y1719981D01*
X1620201Y1734937D01*
X1626126Y1749241D01*
X1633868Y1762649D01*
X1643293Y1774932D01*
X1654241Y1785880D01*
X1666524Y1795305D01*
X1679933Y1803047D01*
X1694237Y1808972D01*
X1709192Y1812979D01*
X1724542Y1815000D01*
X1732284Y1815000D01*
X3015354Y1815000D01*
X3023096D01*
X3038446Y1812979D01*
D02*
G37*
%LPC*%
G36*
X3110000Y1697732D02*
X3006575D01*
Y1661236D01*
X3110000D01*
Y1697732D01*
D02*
G37*
G36*
X2996575D02*
X2893150D01*
Y1661236D01*
X2996575D01*
Y1697732D01*
D02*
G37*
G36*
X1863425Y1691496D02*
X1760000D01*
Y1655000D01*
X1863425D01*
Y1691496D01*
D02*
G37*
G36*
X1750000D02*
X1646575D01*
Y1655000D01*
X1750000D01*
Y1691496D01*
D02*
G37*
G36*
X3110000Y1651236D02*
X3006575D01*
Y1614740D01*
X3110000D01*
Y1651236D01*
D02*
G37*
G36*
X2996575D02*
X2893150D01*
Y1614740D01*
X2996575D01*
Y1651236D01*
D02*
G37*
G36*
X1863425Y1645000D02*
X1760000D01*
Y1608504D01*
X1863425D01*
Y1645000D01*
D02*
G37*
G36*
X1750000D02*
X1646575D01*
Y1608504D01*
X1750000D01*
Y1645000D01*
D02*
G37*
G36*
X3110000Y1479622D02*
X3006575D01*
Y1443126D01*
X3110000D01*
Y1479622D01*
D02*
G37*
G36*
X2996575D02*
X2893150D01*
Y1443126D01*
X2996575D01*
Y1479622D01*
D02*
G37*
G36*
X1863425Y1473386D02*
X1760000D01*
Y1436890D01*
X1863425D01*
Y1473386D01*
D02*
G37*
G36*
X1750000D02*
X1646575D01*
Y1436890D01*
X1750000D01*
Y1473386D01*
D02*
G37*
G36*
X3110000Y1433126D02*
X3006575D01*
Y1396630D01*
X3110000D01*
Y1433126D01*
D02*
G37*
G36*
X2996575D02*
X2893150D01*
Y1396630D01*
X2996575D01*
Y1433126D01*
D02*
G37*
G36*
X1863425Y1426890D02*
X1760000D01*
Y1390394D01*
X1863425D01*
Y1426890D01*
D02*
G37*
G36*
X1750000D02*
X1646575D01*
Y1390394D01*
X1750000D01*
Y1426890D01*
D02*
G37*
%LPD*%
D13*
X3001575Y1656236D02*
D03*
Y1438126D02*
D03*
D15*
X1755000Y1431890D02*
D03*
Y1650000D02*
D03*
D19*
X2870000Y1225000D02*
D03*
X2850000Y1715000D02*
D03*
X2835000Y1645000D02*
D03*
X2755000D02*
D03*
X1855000Y1345000D02*
D03*
X1920000Y1710000D02*
D03*
X1845000Y1745000D02*
D03*
X1942846Y1639741D02*
D03*
X1915000Y1445000D02*
D03*
X1970000Y1425000D02*
D03*
X2195000Y1345000D02*
D03*
X1970000Y1360000D02*
D03*
X1975000Y1285000D02*
D03*
X2200000Y1275000D02*
D03*
X2670000Y1340000D02*
D03*
X2858374Y1309542D02*
D03*
Y1389070D02*
D03*
X2409228Y1631158D02*
D03*
X2330036Y1638452D02*
D03*
X2277523Y1462730D02*
D03*
X2356818Y1468810D02*
D03*
X2436013Y1461548D02*
D03*
X2110000Y1655000D02*
D03*
X2025000Y1650000D02*
D03*
X2200000Y1405000D02*
D03*
X2198486Y1461548D02*
D03*
X2232641Y1637249D02*
D03*
X2672015Y1638906D02*
D03*
X2592488D02*
D03*
X2514392Y1623884D02*
D03*
X2511679Y1480037D02*
D03*
X2589028Y1461548D02*
D03*
X2668553Y1462157D02*
D03*
X2665000Y1405000D02*
D03*
%TF.MD5,ec829f19e645aea11b2ae4a816634deb*%
M02*
