%TF.GenerationSoftware,Altium Limited,Altium Designer,20.0.10 (225)*%
G04 Layer_Physical_Order=1*
G04 Layer_Color=255*
%FSLAX26Y26*%
%MOIN*%
%TF.FileFunction,Copper,L1,Top,Signal*%
%TF.Part,Single*%
G01*
G75*
%TA.AperFunction,SMDPad,CuDef*%
%ADD10R,0.106299X0.049213*%
%ADD11R,0.049213X0.106299*%
%ADD12R,0.196850X0.047244*%
%ADD13R,0.196850X0.062992*%
%TA.AperFunction,Conductor*%
%ADD14C,0.105236*%
%ADD15C,0.059055*%
%TA.AperFunction,ViaPad*%
%ADD16C,0.050000*%
G36*
X3156556Y2892979D02*
X3171511Y2888972D01*
X3185815Y2883047D01*
X3199224Y2875305D01*
X3211507Y2865880D01*
X3222455Y2854932D01*
X3231880Y2842649D01*
X3239622Y2829241D01*
X3245547Y2814936D01*
X3249554Y2799981D01*
X3251575Y2784631D01*
Y2776890D01*
Y2051220D01*
Y2043479D01*
X3249554Y2028129D01*
X3245547Y2013174D01*
X3239622Y1998870D01*
X3231880Y1985461D01*
X3222455Y1973178D01*
X3211507Y1962230D01*
X3199224Y1952805D01*
X3185815Y1945063D01*
X3171511Y1939138D01*
X3156556Y1935131D01*
X3141206Y1933110D01*
X3133465D01*
Y1933110D01*
X1850394Y1933110D01*
X1842652D01*
X1827302Y1935131D01*
X1812347Y1939138D01*
X1798043Y1945063D01*
X1784634Y1952805D01*
X1772351Y1962230D01*
X1761403Y1973178D01*
X1751978Y1985461D01*
X1744236Y1998870D01*
X1738312Y2013174D01*
X1734304Y2028129D01*
X1732284Y2043479D01*
Y2051220D01*
Y2776890D01*
Y2784631D01*
X1734304Y2799981D01*
X1738312Y2814936D01*
X1744236Y2829241D01*
X1751978Y2842649D01*
X1761403Y2854932D01*
X1772351Y2865880D01*
X1784634Y2875305D01*
X1798043Y2883047D01*
X1812347Y2888972D01*
X1827302Y2892979D01*
X1842652Y2895000D01*
X1850394D01*
Y2895000D01*
X3133465Y2895000D01*
X3141206D01*
X3156556Y2892979D01*
D02*
G37*
%LPC*%
G36*
X3216299Y2819839D02*
X3112874D01*
Y2783343D01*
X3216299D01*
Y2819839D01*
D02*
G37*
G36*
X3102874D02*
X2999449D01*
Y2783343D01*
X3102874D01*
Y2819839D01*
D02*
G37*
G36*
X1969055D02*
X1865630D01*
Y2783343D01*
X1969055D01*
Y2819839D01*
D02*
G37*
G36*
X1855630D02*
X1752205D01*
Y2783343D01*
X1855630D01*
Y2819839D01*
D02*
G37*
G36*
X3216299Y2773343D02*
X3107874D01*
X2999449D01*
Y2736847D01*
X2999449D01*
X2998575Y2732209D01*
X2746074D01*
X2701811Y2732302D01*
Y2732437D01*
X2693091D01*
X2692447Y2732485D01*
X2692066Y2732438D01*
X2691691Y2732513D01*
X2691309Y2732437D01*
X2632598D01*
Y2721792D01*
X2632248Y2721604D01*
X2622713Y2713779D01*
X2614888Y2704245D01*
X2609073Y2693366D01*
X2605493Y2681563D01*
X2604284Y2669287D01*
Y2497561D01*
X2603819Y2496031D01*
X2602610Y2483756D01*
Y2442211D01*
X2602149Y2364996D01*
X2601850D01*
Y2355258D01*
X2601774Y2354876D01*
X2601850Y2354494D01*
Y2295784D01*
X2612495D01*
X2612683Y2295433D01*
X2620508Y2285898D01*
X2630043Y2278073D01*
X2640921Y2272258D01*
X2652725Y2268678D01*
X2665000Y2267469D01*
X2677275Y2268678D01*
X2689079Y2272258D01*
X2699957Y2278073D01*
X2709492Y2285898D01*
X2710023Y2286429D01*
X2717700Y2295784D01*
X2728150D01*
Y2327845D01*
X2728453Y2330921D01*
Y2470482D01*
X2728917Y2472012D01*
X2730126Y2484287D01*
Y2606212D01*
X2769552Y2606366D01*
X2998575D01*
X2999449Y2601728D01*
X2999449D01*
Y2601366D01*
Y2565232D01*
X3107874D01*
X3216299D01*
Y2601728D01*
X3111795D01*
X3111550Y2606728D01*
X3120149Y2607575D01*
X3131953Y2611156D01*
X3142831Y2616970D01*
X3152366Y2624796D01*
X3160191Y2634330D01*
X3160905Y2635666D01*
X3216299D01*
Y2702910D01*
X3160905D01*
X3160191Y2704245D01*
X3152366Y2713779D01*
X3142831Y2721604D01*
X3131953Y2727419D01*
X3120149Y2731000D01*
X3111550Y2731847D01*
X3111795Y2736847D01*
X3216299D01*
Y2773343D01*
D02*
G37*
G36*
X1855630Y2773343D02*
X1752205D01*
Y2736847D01*
X1855630D01*
Y2773343D01*
D02*
G37*
G36*
X2530514Y2732513D02*
X2530132Y2732437D01*
X2520394D01*
Y2723562D01*
X2520008Y2720643D01*
X2519413Y2719302D01*
X2518162Y2717809D01*
X2515760Y2716034D01*
X2511924Y2714168D01*
X2506600Y2712434D01*
X2499998Y2711019D01*
X2494060Y2710429D01*
X2489869Y2710985D01*
X2483104Y2712434D01*
X2477781Y2714168D01*
X2473945Y2716034D01*
X2471543Y2717809D01*
X2470292Y2719302D01*
X2469697Y2720643D01*
X2469311Y2723562D01*
Y2732437D01*
X2459573D01*
X2459191Y2732513D01*
X2458809Y2732437D01*
X2400098D01*
Y2689031D01*
X2396195Y2679606D01*
X2394836Y2669287D01*
X2396195Y2658969D01*
X2400098Y2649544D01*
Y2606138D01*
X2458809D01*
X2459191Y2606062D01*
X2459573Y2606138D01*
X2469311D01*
Y2615012D01*
X2469697Y2617932D01*
X2470292Y2619273D01*
X2471543Y2620766D01*
X2473945Y2622541D01*
X2477781Y2624407D01*
X2483104Y2626141D01*
X2489706Y2627556D01*
X2495645Y2628146D01*
X2499835Y2627590D01*
X2506600Y2626141D01*
X2511924Y2624407D01*
X2515760Y2622541D01*
X2518162Y2620766D01*
X2519413Y2619273D01*
X2520008Y2617932D01*
X2520394Y2615012D01*
Y2606138D01*
X2530132D01*
X2530514Y2606062D01*
X2530895Y2606138D01*
X2589606D01*
Y2649544D01*
X2593510Y2658969D01*
X2594869Y2669287D01*
X2593510Y2679606D01*
X2589606Y2689031D01*
Y2732437D01*
X2530895D01*
X2530514Y2732513D01*
D02*
G37*
G36*
X1969055Y2773343D02*
X1865630D01*
Y2736847D01*
X1906079D01*
X1906324Y2731847D01*
X1897725Y2731000D01*
X1885921Y2727419D01*
X1875043Y2721604D01*
X1865508Y2713779D01*
X1857683Y2704245D01*
X1856969Y2702910D01*
X1752205D01*
Y2635666D01*
X1856969D01*
X1857683Y2634330D01*
X1865508Y2624796D01*
X1875043Y2616970D01*
X1885921Y2611156D01*
X1897725Y2607575D01*
X1906324Y2606728D01*
X1906079Y2601728D01*
X1865630D01*
Y2565232D01*
X1969055D01*
Y2601728D01*
X1969055D01*
X1969929Y2606366D01*
X2011131D01*
X2024047Y2606339D01*
Y2484819D01*
X2024100Y2484287D01*
X2024047Y2483756D01*
Y2436555D01*
X2024692Y2430012D01*
X2025256Y2424280D01*
X2026547Y2420024D01*
Y2419020D01*
D01*
Y2330921D01*
X2026850Y2327845D01*
Y2295784D01*
X2037300D01*
X2037728Y2295262D01*
D01*
X2044977Y2286429D01*
X2054511Y2278604D01*
X2065390Y2272790D01*
X2077193Y2269209D01*
X2089468Y2268000D01*
X2101744Y2269209D01*
X2113547Y2272790D01*
X2124426Y2278604D01*
X2133960Y2286429D01*
X2141637Y2295784D01*
X2153150D01*
Y2354494D01*
X2153226Y2354876D01*
X2153213Y2354937D01*
X2153225Y2354997D01*
X2153150Y2361312D01*
Y2364996D01*
X2153106D01*
X2152390Y2425125D01*
D01*
Y2434055D01*
X2151903Y2438993D01*
X2156731Y2440992D01*
X2157713Y2439796D01*
X2167248Y2431970D01*
X2167598Y2431783D01*
Y2421138D01*
X2226309D01*
X2226691Y2421062D01*
X2226713Y2421066D01*
X2226735Y2421062D01*
X2274378Y2421267D01*
D01*
D01*
X2287894Y2421228D01*
Y2421138D01*
X2296669D01*
X2297184Y2421096D01*
X2297549Y2421138D01*
X2297632D01*
X2298014Y2421062D01*
X2298395Y2421138D01*
X2357106D01*
Y2431783D01*
X2357457Y2431970D01*
X2366992Y2439796D01*
X2374817Y2449330D01*
X2380631Y2460209D01*
X2384212Y2472012D01*
X2385421Y2484287D01*
X2384212Y2496563D01*
X2380631Y2508366D01*
X2374817Y2519245D01*
X2366992Y2528779D01*
X2357457Y2536604D01*
X2357106Y2536792D01*
Y2547437D01*
X2298395D01*
X2298014Y2547513D01*
X2297992Y2547509D01*
X2297970Y2547513D01*
X2250327Y2547308D01*
D01*
D01*
X2236811Y2547347D01*
Y2547437D01*
X2228036D01*
X2227520Y2547479D01*
X2227156Y2547437D01*
X2227073D01*
X2226691Y2547513D01*
X2226309Y2547437D01*
X2167598D01*
Y2536792D01*
X2167248Y2536604D01*
X2157713Y2528779D01*
X2155002Y2525476D01*
D01*
X2154597Y2524983D01*
X2149890Y2526668D01*
Y2527474D01*
Y2565000D01*
Y2626907D01*
X2154597Y2628592D01*
X2157713Y2624796D01*
X2167248Y2616970D01*
X2167598Y2616783D01*
Y2606138D01*
X2226309D01*
X2226691Y2606062D01*
X2226713Y2606066D01*
X2226735Y2606062D01*
X2274378Y2606267D01*
D01*
D01*
X2287894Y2606228D01*
D01*
Y2606138D01*
X2296669D01*
X2297184Y2606096D01*
X2297549Y2606138D01*
X2297632D01*
X2298014Y2606062D01*
X2298395Y2606138D01*
X2357106D01*
Y2616783D01*
X2357457Y2616970D01*
X2366992Y2624796D01*
X2374817Y2634330D01*
X2380631Y2645209D01*
X2384212Y2657012D01*
X2385421Y2669287D01*
X2384212Y2681563D01*
X2380631Y2693366D01*
X2374817Y2704245D01*
X2366992Y2713779D01*
X2357457Y2721604D01*
X2357106Y2721792D01*
Y2732437D01*
X2298395D01*
X2298014Y2732513D01*
X2297992Y2732509D01*
X2297970Y2732513D01*
X2250327Y2732308D01*
D01*
D01*
X2236811Y2732347D01*
Y2732437D01*
X2228036D01*
X2227520Y2732479D01*
X2227156Y2732437D01*
X2227073D01*
X2226691Y2732513D01*
X2226309Y2732437D01*
X2167598D01*
Y2721792D01*
X2167248Y2721604D01*
X2157713Y2713779D01*
X2149888Y2704245D01*
X2146945Y2698738D01*
X2141945D01*
X2139285Y2703713D01*
X2131461Y2713248D01*
X2130929Y2713779D01*
X2130456Y2714168D01*
X2124606Y2718968D01*
D01*
Y2732437D01*
X2065895D01*
X2065514Y2732513D01*
X2065494Y2732509D01*
X2065474Y2732513D01*
X1987653Y2732209D01*
X1969929D01*
X1969055Y2736847D01*
X1969055D01*
Y2737209D01*
Y2773343D01*
D02*
G37*
G36*
X1855630Y2601728D02*
X1752205D01*
Y2565232D01*
X1855630D01*
Y2567305D01*
Y2601728D01*
D02*
G37*
G36*
X2530514Y2547513D02*
X2530132Y2547437D01*
X2520394D01*
Y2538562D01*
X2520008Y2535643D01*
X2519413Y2534302D01*
X2518162Y2532809D01*
X2515760Y2531034D01*
X2511924Y2529168D01*
X2506600Y2527434D01*
X2499998Y2526019D01*
X2494060Y2525429D01*
X2489869Y2525985D01*
X2483104Y2527434D01*
X2477781Y2529168D01*
X2473945Y2531034D01*
X2471543Y2532809D01*
X2470292Y2534302D01*
X2469697Y2535643D01*
X2469311Y2538562D01*
Y2547437D01*
X2459573D01*
X2459191Y2547513D01*
X2458809Y2547437D01*
X2400098D01*
Y2504031D01*
X2396195Y2494606D01*
X2394836Y2484287D01*
X2396195Y2473969D01*
X2400098Y2464544D01*
Y2421138D01*
X2458809D01*
X2459191Y2421062D01*
X2459573Y2421138D01*
X2469311D01*
Y2430012D01*
X2469697Y2432932D01*
X2470292Y2434273D01*
X2471543Y2435766D01*
X2473945Y2437541D01*
X2477781Y2439407D01*
X2483104Y2441141D01*
X2489706Y2442556D01*
X2495645Y2443146D01*
X2499835Y2442590D01*
X2506600Y2441141D01*
X2511924Y2439407D01*
X2515760Y2437541D01*
X2518162Y2435766D01*
X2519413Y2434273D01*
X2520008Y2432932D01*
X2520394Y2430012D01*
Y2421138D01*
X2530132D01*
X2530514Y2421062D01*
X2530895Y2421138D01*
X2589606D01*
Y2464544D01*
X2593510Y2473969D01*
X2594869Y2484287D01*
X2593510Y2494606D01*
X2589606Y2504031D01*
Y2547437D01*
X2530895D01*
X2530514Y2547513D01*
D02*
G37*
G36*
X3216299Y2555232D02*
X3112874D01*
Y2518736D01*
X3216299D01*
Y2555232D01*
D02*
G37*
G36*
X3102874D02*
X2999449D01*
Y2518736D01*
X3102874D01*
Y2555232D01*
D02*
G37*
G36*
X1969055Y2555232D02*
X1865630D01*
Y2518736D01*
X1969055D01*
Y2555232D01*
D02*
G37*
G36*
X1855630D02*
X1752205D01*
Y2518736D01*
X1855630D01*
Y2555232D01*
D02*
G37*
G36*
X2665000Y2258054D02*
X2654681Y2256695D01*
X2645257Y2252791D01*
X2601850D01*
Y2194080D01*
X2601774Y2193699D01*
X2601850Y2193317D01*
Y2183579D01*
X2610725D01*
X2613644Y2183193D01*
X2614985Y2182598D01*
X2616479Y2181347D01*
X2618254Y2178945D01*
X2620120Y2175109D01*
X2621853Y2169785D01*
X2623268Y2163184D01*
X2623717Y2158673D01*
X2623303Y2155554D01*
X2621853Y2148789D01*
X2620120Y2143466D01*
X2618254Y2139630D01*
X2616479Y2137228D01*
X2614985Y2135977D01*
X2613644Y2135382D01*
X2610725Y2134996D01*
X2601850D01*
Y2125258D01*
X2601774Y2124876D01*
X2601850Y2124494D01*
Y2065784D01*
X2645257D01*
X2654681Y2061880D01*
X2665000Y2060521D01*
X2675319Y2061880D01*
X2684743Y2065784D01*
X2728150D01*
Y2124494D01*
X2728226Y2124876D01*
X2728150Y2125258D01*
Y2134996D01*
X2719275D01*
X2716356Y2135382D01*
X2715015Y2135977D01*
X2713521Y2137228D01*
X2711746Y2139630D01*
X2709880Y2143466D01*
X2708147Y2148789D01*
X2706732Y2155391D01*
X2706283Y2159901D01*
X2706697Y2163021D01*
X2708147Y2169785D01*
X2709880Y2175109D01*
X2711746Y2178945D01*
X2713521Y2181347D01*
X2715015Y2182598D01*
X2716356Y2183193D01*
X2719275Y2183579D01*
X2728150D01*
Y2193317D01*
X2728226Y2193699D01*
X2728150Y2194080D01*
Y2252791D01*
X2684743D01*
X2675319Y2256695D01*
X2665000Y2258054D01*
D02*
G37*
G36*
X2145000Y2262987D02*
X2035000D01*
X2031098Y2262211D01*
X2027790Y2260001D01*
X2025580Y2256693D01*
X2024804Y2252791D01*
Y2065784D01*
X2025580Y2061882D01*
X2027790Y2058574D01*
X2031098Y2056364D01*
X2035000Y2055588D01*
X2145000D01*
X2148902Y2056364D01*
X2152210Y2058574D01*
X2154420Y2061882D01*
X2155196Y2065784D01*
Y2245897D01*
Y2252791D01*
X2154420Y2256693D01*
X2152210Y2260001D01*
X2148902Y2262211D01*
X2145000Y2262987D01*
D02*
G37*
G36*
X2728150Y2022791D02*
X2670000D01*
Y1993185D01*
X2728150D01*
Y2020952D01*
Y2022791D01*
D02*
G37*
G36*
X2153150D02*
X2095000D01*
Y1993185D01*
X2153150D01*
Y2022791D01*
D02*
G37*
G36*
X2660000D02*
X2601850D01*
Y1993185D01*
X2660000D01*
Y2022791D01*
D02*
G37*
G36*
X2085000D02*
X2026850D01*
Y1993185D01*
X2085000D01*
Y2022791D01*
D02*
G37*
G36*
X2728150Y1983185D02*
X2670000D01*
Y1953579D01*
X2728150D01*
Y1983185D01*
D02*
G37*
G36*
X2660000D02*
X2601850D01*
Y1953579D01*
X2660000D01*
Y1983185D01*
D02*
G37*
G36*
X2153150D02*
X2095000D01*
Y1953579D01*
X2153150D01*
Y1983185D01*
D02*
G37*
G36*
X2085000D02*
X2026850D01*
Y1953579D01*
X2085000D01*
Y1983185D01*
D02*
G37*
%LPD*%
G36*
X2692743Y2722239D02*
X2701162Y2722107D01*
X2796927Y2721906D01*
Y2616669D01*
X2691691Y2616258D01*
Y2722317D01*
X2692743Y2722239D01*
D02*
G37*
G36*
X2718030Y2354876D02*
X2611970D01*
X2612150Y2355928D01*
X2612310Y2359086D01*
X2612913Y2460112D01*
X2718150D01*
X2718030Y2354876D01*
D02*
G37*
G36*
X2530514Y2616258D02*
X2529923Y2620723D01*
X2528151Y2624719D01*
X2525199Y2628244D01*
X2521065Y2631299D01*
X2515750Y2633884D01*
X2509254Y2636000D01*
X2501577Y2637645D01*
X2495813Y2638409D01*
X2488128Y2637645D01*
X2480451Y2636000D01*
X2473955Y2633884D01*
X2468640Y2631299D01*
X2464506Y2628244D01*
X2461553Y2624719D01*
X2459782Y2620723D01*
X2459191Y2616258D01*
Y2722317D01*
X2459782Y2717852D01*
X2461553Y2713856D01*
X2464506Y2710331D01*
X2468640Y2707276D01*
X2473955Y2704691D01*
X2480451Y2702575D01*
X2488128Y2700930D01*
X2493892Y2700166D01*
X2501577Y2700930D01*
X2509254Y2702575D01*
X2515750Y2704691D01*
X2521065Y2707276D01*
X2525199Y2710331D01*
X2528151Y2713856D01*
X2529923Y2717852D01*
X2530514Y2722317D01*
Y2616258D01*
D02*
G37*
G36*
X2298014Y2721976D02*
X2322500Y2721906D01*
Y2616669D01*
X2298014Y2616564D01*
Y2616258D01*
X2297056Y2616336D01*
X2294181Y2616406D01*
X2274378Y2616463D01*
X2226691Y2616258D01*
Y2616599D01*
X2202205Y2616669D01*
Y2721906D01*
X2226691Y2722011D01*
Y2722317D01*
X2227649Y2722239D01*
X2230523Y2722169D01*
X2250327Y2722112D01*
X2298014Y2722317D01*
Y2721976D01*
D02*
G37*
G36*
X2065514Y2616258D02*
X2064461Y2616336D01*
X2056042Y2616468D01*
X1960277Y2616669D01*
Y2721906D01*
X2065514Y2722317D01*
Y2616258D01*
D02*
G37*
G36*
X2298014Y2536976D02*
X2322500Y2536906D01*
Y2431669D01*
X2298014Y2431564D01*
Y2431258D01*
X2297056Y2431336D01*
X2294181Y2431406D01*
X2274378Y2431463D01*
X2226691Y2431258D01*
Y2431599D01*
X2202205Y2431669D01*
Y2536906D01*
X2226691Y2537011D01*
Y2537317D01*
X2227649Y2537239D01*
X2230523Y2537169D01*
X2250327Y2537112D01*
X2298014Y2537317D01*
Y2536976D01*
D02*
G37*
G36*
X2139694Y2565000D02*
Y2526668D01*
X2139743Y2526419D01*
X2139706Y2526167D01*
X2140000Y2524994D01*
Y2491561D01*
X2139284Y2484287D01*
X2140000Y2477014D01*
Y2434055D01*
X2142087D01*
X2143030Y2354876D01*
X2140000D01*
Y2305737D01*
X2139205Y2305495D01*
X2137735Y2305203D01*
X2137315Y2304922D01*
X2136831Y2304776D01*
X2135673Y2303825D01*
X2134428Y2302993D01*
X2134146Y2302573D01*
X2133756Y2302252D01*
X2131908Y2300000D01*
X2047029Y2300000D01*
X2045181Y2302252D01*
X2044790Y2302573D01*
X2044509Y2302993D01*
X2043264Y2303825D01*
X2042106Y2304776D01*
X2041622Y2304922D01*
X2041202Y2305203D01*
X2039732Y2305495D01*
X2038299Y2305930D01*
X2037046Y2310718D01*
Y2327845D01*
X2036948Y2328341D01*
X2036997Y2328844D01*
X2036743Y2331422D01*
Y2420024D01*
X2036451Y2421493D01*
X2036304Y2422984D01*
X2035305Y2426279D01*
X2035000Y2429374D01*
X2035000Y2565000D01*
X2139694Y2565000D01*
D02*
G37*
G36*
X2530514Y2431258D02*
X2529923Y2435723D01*
X2528151Y2439719D01*
X2525199Y2443244D01*
X2521065Y2446299D01*
X2515750Y2448884D01*
X2509254Y2451000D01*
X2501577Y2452645D01*
X2495813Y2453409D01*
X2488128Y2452645D01*
X2480451Y2451000D01*
X2473955Y2448884D01*
X2468640Y2446299D01*
X2464506Y2443244D01*
X2461553Y2439719D01*
X2459782Y2435723D01*
X2459191Y2431258D01*
Y2537317D01*
X2459782Y2532852D01*
X2461553Y2528856D01*
X2464506Y2525331D01*
X2468640Y2522276D01*
X2473955Y2519691D01*
X2480451Y2517575D01*
X2488128Y2515930D01*
X2493892Y2515166D01*
X2501577Y2515930D01*
X2509254Y2517575D01*
X2515750Y2519691D01*
X2521065Y2522276D01*
X2525199Y2525331D01*
X2528151Y2528856D01*
X2529923Y2532852D01*
X2530514Y2537317D01*
Y2431258D01*
D02*
G37*
G36*
X2713564Y2193108D02*
X2709569Y2191337D01*
X2706044Y2188384D01*
X2702988Y2184250D01*
X2700403Y2178935D01*
X2698288Y2172439D01*
X2696643Y2164762D01*
X2696020Y2160070D01*
X2696643Y2153813D01*
X2698288Y2146136D01*
X2700403Y2139640D01*
X2702988Y2134325D01*
X2706044Y2130191D01*
X2709569Y2127238D01*
X2713564Y2125467D01*
X2718030Y2124876D01*
X2611970D01*
X2616436Y2125467D01*
X2620431Y2127238D01*
X2623956Y2130191D01*
X2627012Y2134325D01*
X2629597Y2139640D01*
X2631712Y2146136D01*
X2633357Y2153813D01*
X2633980Y2158505D01*
X2633357Y2164762D01*
X2631712Y2172439D01*
X2629597Y2178935D01*
X2627012Y2184250D01*
X2623956Y2188384D01*
X2620431Y2191337D01*
X2616436Y2193108D01*
X2611970Y2193699D01*
X2718030D01*
X2713564Y2193108D01*
D02*
G37*
G36*
X2145000Y2065784D02*
X2035000D01*
Y2252791D01*
X2145000D01*
Y2065784D01*
D02*
G37*
D10*
X2665000Y2330390D02*
D03*
Y2218185D02*
D03*
Y2100390D02*
D03*
Y1988185D02*
D03*
X2090000Y2100390D02*
D03*
Y1988185D02*
D03*
Y2330390D02*
D03*
Y2218185D02*
D03*
D11*
X2667205Y2669287D02*
D03*
X2555000D02*
D03*
X2667205Y2484287D02*
D03*
X2555000D02*
D03*
X2434705D02*
D03*
X2322500D02*
D03*
X2434705Y2669287D02*
D03*
X2322500D02*
D03*
X2202205Y2484287D02*
D03*
X2090000D02*
D03*
X2202205Y2669287D02*
D03*
X2090000D02*
D03*
D12*
X3107874D02*
D03*
X1860630D02*
D03*
D13*
X3107874Y2778343D02*
D03*
Y2560232D02*
D03*
X1860630D02*
D03*
Y2778343D02*
D03*
D14*
X2089468Y2330921D02*
Y2434055D01*
X2086968Y2436555D02*
X2089468Y2434055D01*
X2086968Y2436555D02*
Y2483756D01*
X2667205Y2669287D02*
X3107874D01*
X2202205D02*
X2322500D01*
X1910000D02*
X2086437D01*
X2086968Y2668756D01*
Y2484819D02*
Y2668756D01*
X2202205Y2484287D02*
X2322500D01*
X2665000Y2330390D02*
X2665532Y2330921D01*
Y2483756D01*
X2666063Y2484287D01*
X2667205D01*
Y2669287D01*
D15*
X2665000Y2100390D02*
Y2218185D01*
X2434705Y2669287D02*
X2555000D01*
X2434705Y2484287D02*
X2555000D01*
D16*
X2190000Y2355000D02*
D03*
X2005000Y2795000D02*
D03*
X1995000Y2580000D02*
D03*
X2692400Y2757662D02*
D03*
X2771927D02*
D03*
X2851455D02*
D03*
X2930982D02*
D03*
X2582185Y2771136D02*
D03*
X2473248Y2766764D02*
D03*
X2505000Y2575000D02*
D03*
X2435000D02*
D03*
X2376491Y2380841D02*
D03*
X2465000Y2380000D02*
D03*
X2536013Y2395836D02*
D03*
X2272342Y2395913D02*
D03*
X2228175Y2766798D02*
D03*
X2272342Y2580913D02*
D03*
X2372185Y2771136D02*
D03*
X2576548Y2336507D02*
D03*
X2579872Y2257049D02*
D03*
X2580616Y2177525D02*
D03*
X2576548Y2098101D02*
D03*
X2753452Y2107662D02*
D03*
X2752610Y2187185D02*
D03*
X2744249Y2266271D02*
D03*
X2753906Y2345211D02*
D03*
Y2424738D02*
D03*
X2755579Y2504248D02*
D03*
X2776724Y2580913D02*
D03*
X2856251D02*
D03*
X2935779D02*
D03*
X2057925Y2757662D02*
D03*
X1998594Y2502947D02*
D03*
X1999698Y2423427D02*
D03*
Y2343900D02*
D03*
X2123743Y2756536D02*
D03*
X1848414Y2073808D02*
D03*
X2400000Y2120000D02*
D03*
%TF.MD5,86ad97c63d303c259478b3b018255169*%
M02*
