%TF.GenerationSoftware,Altium Limited,Altium Designer,20.0.10 (225)*%
G04 Layer_Color=16711935*
%FSLAX26Y26*%
%MOIN*%
%TF.FileFunction,Soldermask,Bot*%
%TF.Part,Single*%
G01*
G75*
%TA.AperFunction,SMDPad,CuDef*%
%ADD13R,0.196850X0.062992*%
%TA.AperFunction,ViaPad*%
%ADD17C,0.058000*%
D13*
X3040945Y4550417D02*
D03*
Y4332307D02*
D03*
X1781890D02*
D03*
Y4550417D02*
D03*
D17*
X1790000Y4635000D02*
D03*
X2885000Y4342382D02*
D03*
X2791673Y4530000D02*
D03*
X2885000D02*
D03*
X1940000Y4335000D02*
D03*
X2945000Y4630000D02*
D03*
X2665000Y4340000D02*
D03*
X2165000Y4125000D02*
D03*
Y4045000D02*
D03*
X1970000Y4075000D02*
D03*
Y4155000D02*
D03*
X2885000Y4180000D02*
D03*
Y4099085D02*
D03*
X2665000Y3994327D02*
D03*
X2885000D02*
D03*
X2665000Y4129885D02*
D03*
Y4250000D02*
D03*
X2390000Y4530000D02*
D03*
X2345000Y4340000D02*
D03*
X2474385D02*
D03*
X2525000Y4530000D02*
D03*
X1970000Y4260000D02*
D03*
X2165000Y4255000D02*
D03*
X2665000Y4530000D02*
D03*
X2570000Y4340000D02*
D03*
X2885000Y4265000D02*
D03*
X1935000Y4555000D02*
D03*
X2165000Y4325000D02*
D03*
X2240000Y4340000D02*
D03*
X2265425Y4530000D02*
D03*
X2171548D02*
D03*
X2085000D02*
D03*
X2010000D02*
D03*
X2775000Y3880000D02*
D03*
X2065000Y3875000D02*
D03*
%TF.MD5,76cfcd563b7331bbd14c54e311119015*%
M02*
