%TF.GenerationSoftware,Altium Limited,Altium Designer,20.0.10 (225)*%
G04 Layer_Color=65535*
%FSLAX26Y26*%
%MOIN*%
%TF.FileFunction,Legend,Top*%
%TF.Part,Single*%
G01*
G75*
%TA.AperFunction,NonConductor*%
%ADD18C,0.009842*%
%ADD19C,0.007874*%
G36*
X4350626Y4615764D02*
X4239374D01*
Y4818724D01*
X4350626D01*
Y4615764D01*
D02*
G37*
G36*
X4259344Y4310362D02*
X4241861D01*
X4241806D01*
X4241751D01*
X4241417D01*
X4240918D01*
X4240307Y4310306D01*
X4239641Y4310251D01*
X4238975Y4310195D01*
X4238310Y4310084D01*
X4237810Y4309918D01*
X4237755D01*
X4237588Y4309807D01*
X4237366Y4309696D01*
X4237088Y4309529D01*
X4236756Y4309307D01*
X4236422Y4309030D01*
X4236090Y4308697D01*
X4235757Y4308253D01*
X4235701Y4308198D01*
X4235645Y4308031D01*
X4235534Y4307809D01*
X4235368Y4307421D01*
X4235202Y4307032D01*
X4235091Y4306533D01*
X4235035Y4306033D01*
X4234980Y4305422D01*
Y4305145D01*
X4235035Y4304923D01*
X4235091Y4304368D01*
X4235202Y4303702D01*
X4235479Y4302925D01*
X4235812Y4302092D01*
X4236311Y4301260D01*
X4236977Y4300483D01*
X4237088Y4300427D01*
X4237366Y4300206D01*
X4237810Y4299873D01*
X4238476Y4299539D01*
X4239364Y4299151D01*
X4240418Y4298873D01*
X4241695Y4298651D01*
X4243194Y4298541D01*
X4259344D01*
Y4293823D01*
X4241306D01*
X4241251D01*
X4241140D01*
X4241029D01*
X4240807D01*
X4240197Y4293767D01*
X4239530Y4293657D01*
X4238753Y4293546D01*
X4237976Y4293324D01*
X4237255Y4293046D01*
X4236589Y4292658D01*
X4236533Y4292602D01*
X4236311Y4292435D01*
X4236090Y4292158D01*
X4235757Y4291770D01*
X4235479Y4291270D01*
X4235202Y4290604D01*
X4235035Y4289827D01*
X4234980Y4288883D01*
Y4288551D01*
X4235035Y4288162D01*
X4235091Y4287718D01*
X4235257Y4287163D01*
X4235423Y4286497D01*
X4235701Y4285886D01*
X4236034Y4285221D01*
X4236090Y4285165D01*
X4236256Y4284943D01*
X4236478Y4284666D01*
X4236811Y4284277D01*
X4237255Y4283889D01*
X4237810Y4283500D01*
X4238421Y4283111D01*
X4239142Y4282779D01*
X4239253Y4282723D01*
X4239530Y4282667D01*
X4239975Y4282556D01*
X4240585Y4282390D01*
X4241417Y4282224D01*
X4242417Y4282113D01*
X4243582Y4282057D01*
X4244914Y4282002D01*
X4259344D01*
Y4277284D01*
X4231483D01*
Y4281502D01*
X4235479D01*
X4235368Y4281557D01*
X4235146Y4281724D01*
X4234757Y4282057D01*
X4234314Y4282445D01*
X4233758Y4282945D01*
X4233203Y4283556D01*
X4232649Y4284221D01*
X4232149Y4284998D01*
X4232093Y4285109D01*
X4231927Y4285387D01*
X4231761Y4285831D01*
X4231483Y4286441D01*
X4231261Y4287163D01*
X4231095Y4287995D01*
X4230928Y4288939D01*
X4230873Y4289938D01*
Y4290438D01*
X4230928Y4291048D01*
X4231039Y4291714D01*
X4231206Y4292547D01*
X4231427Y4293379D01*
X4231761Y4294212D01*
X4232204Y4294989D01*
X4232260Y4295100D01*
X4232426Y4295322D01*
X4232704Y4295654D01*
X4233148Y4296099D01*
X4233648Y4296542D01*
X4234258Y4297042D01*
X4234980Y4297486D01*
X4235812Y4297819D01*
X4235757Y4297874D01*
X4235590Y4297985D01*
X4235368Y4298152D01*
X4235035Y4298430D01*
X4234646Y4298762D01*
X4234258Y4299151D01*
X4233814Y4299595D01*
X4233315Y4300150D01*
X4232870Y4300761D01*
X4232426Y4301371D01*
X4232038Y4302092D01*
X4231650Y4302869D01*
X4231316Y4303702D01*
X4231095Y4304590D01*
X4230928Y4305478D01*
X4230873Y4306477D01*
Y4306865D01*
X4230928Y4307143D01*
Y4307532D01*
X4230984Y4307920D01*
X4231150Y4308864D01*
X4231427Y4309863D01*
X4231872Y4310917D01*
X4232426Y4311971D01*
X4233203Y4312859D01*
X4233315Y4312971D01*
X4233648Y4313193D01*
X4234147Y4313581D01*
X4234535Y4313748D01*
X4234924Y4313970D01*
X4235423Y4314191D01*
X4235923Y4314358D01*
X4236478Y4314580D01*
X4237144Y4314747D01*
X4237810Y4314858D01*
X4238587Y4314968D01*
X4239364Y4315079D01*
X4240252D01*
X4259344D01*
Y4310362D01*
D02*
G37*
G36*
X4246357Y4271734D02*
X4246912Y4271678D01*
X4247467D01*
X4248078Y4271568D01*
X4249465Y4271401D01*
X4250852Y4271068D01*
X4252240Y4270680D01*
X4253516Y4270124D01*
X4253572D01*
X4253627Y4270069D01*
X4253794Y4269958D01*
X4254016Y4269847D01*
X4254571Y4269458D01*
X4255237Y4268959D01*
X4256014Y4268293D01*
X4256791Y4267461D01*
X4257568Y4266517D01*
X4258289Y4265407D01*
Y4265351D01*
X4258345Y4265296D01*
X4258456Y4265130D01*
X4258567Y4264852D01*
X4258678Y4264574D01*
X4258789Y4264242D01*
X4259122Y4263409D01*
X4259400Y4262466D01*
X4259677Y4261300D01*
X4259899Y4260079D01*
X4259954Y4258747D01*
Y4258192D01*
X4259899Y4257748D01*
X4259843Y4257248D01*
X4259733Y4256694D01*
X4259622Y4256028D01*
X4259511Y4255361D01*
X4259066Y4253863D01*
X4258734Y4253030D01*
X4258400Y4252253D01*
X4257957Y4251476D01*
X4257457Y4250699D01*
X4256902Y4249978D01*
X4256236Y4249257D01*
X4256181Y4249201D01*
X4256069Y4249090D01*
X4255847Y4248923D01*
X4255515Y4248702D01*
X4255126Y4248424D01*
X4254682Y4248146D01*
X4254127Y4247814D01*
X4253461Y4247480D01*
X4252739Y4247148D01*
X4251907Y4246815D01*
X4251019Y4246537D01*
X4250075Y4246260D01*
X4249021Y4246038D01*
X4247911Y4245871D01*
X4246690Y4245760D01*
X4245413Y4245704D01*
X4245302D01*
X4245081D01*
X4244692Y4245760D01*
X4244137D01*
X4243526Y4245815D01*
X4242749Y4245926D01*
X4241972Y4246038D01*
X4241084Y4246260D01*
X4240197Y4246481D01*
X4239253Y4246759D01*
X4238254Y4247092D01*
X4237310Y4247536D01*
X4236422Y4247980D01*
X4235534Y4248591D01*
X4234702Y4249201D01*
X4233980Y4249978D01*
X4233925Y4250033D01*
X4233869Y4250145D01*
X4233703Y4250367D01*
X4233481Y4250644D01*
X4233259Y4250977D01*
X4232981Y4251421D01*
X4232704Y4251865D01*
X4232426Y4252420D01*
X4232149Y4253030D01*
X4231872Y4253697D01*
X4231372Y4255195D01*
X4230984Y4256916D01*
X4230928Y4257803D01*
X4230873Y4258747D01*
Y4259302D01*
X4230928Y4259690D01*
X4230984Y4260190D01*
X4231095Y4260745D01*
X4231206Y4261355D01*
X4231316Y4262077D01*
X4231816Y4263575D01*
X4232093Y4264352D01*
X4232482Y4265130D01*
X4232870Y4265907D01*
X4233426Y4266684D01*
X4233980Y4267405D01*
X4234646Y4268127D01*
X4234702Y4268182D01*
X4234813Y4268293D01*
X4235035Y4268459D01*
X4235312Y4268681D01*
X4235701Y4268959D01*
X4236200Y4269292D01*
X4236756Y4269625D01*
X4237366Y4269958D01*
X4238032Y4270291D01*
X4238864Y4270624D01*
X4239697Y4270957D01*
X4240641Y4271234D01*
X4241640Y4271457D01*
X4242694Y4271623D01*
X4243804Y4271734D01*
X4245025Y4271789D01*
X4245081D01*
X4245247D01*
X4245525D01*
X4245913D01*
X4246357Y4271734D01*
D02*
G37*
G36*
X4249965Y4243373D02*
X4250186Y4243318D01*
X4250520Y4243262D01*
X4250963Y4243151D01*
X4251408Y4243041D01*
X4252517Y4242652D01*
X4253683Y4242153D01*
X4254959Y4241431D01*
X4256181Y4240543D01*
X4256735Y4240043D01*
X4257291Y4239489D01*
X4257346Y4239433D01*
X4257401Y4239322D01*
X4257512Y4239155D01*
X4257679Y4238934D01*
X4257901Y4238656D01*
X4258123Y4238267D01*
X4258345Y4237824D01*
X4258623Y4237380D01*
X4259122Y4236270D01*
X4259511Y4234938D01*
X4259843Y4233494D01*
X4259899Y4232662D01*
X4259954Y4231829D01*
Y4231275D01*
X4259899Y4230886D01*
X4259843Y4230386D01*
X4259733Y4229832D01*
X4259622Y4229221D01*
X4259511Y4228555D01*
X4259066Y4227056D01*
X4258734Y4226335D01*
X4258400Y4225558D01*
X4257957Y4224781D01*
X4257457Y4224060D01*
X4256902Y4223338D01*
X4256236Y4222672D01*
X4256181Y4222617D01*
X4256069Y4222506D01*
X4255847Y4222339D01*
X4255570Y4222117D01*
X4255181Y4221895D01*
X4254682Y4221562D01*
X4254127Y4221284D01*
X4253516Y4220952D01*
X4252795Y4220618D01*
X4251962Y4220341D01*
X4251130Y4220008D01*
X4250131Y4219786D01*
X4249132Y4219564D01*
X4247967Y4219398D01*
X4246801Y4219287D01*
X4245525Y4219231D01*
X4245469D01*
X4245302D01*
X4245081D01*
X4244748D01*
X4244359Y4219287D01*
X4243915D01*
X4243416Y4219342D01*
X4242860Y4219398D01*
X4241640Y4219564D01*
X4240307Y4219842D01*
X4238975Y4220175D01*
X4237644Y4220674D01*
X4237588D01*
X4237477Y4220730D01*
X4237310Y4220841D01*
X4237088Y4220952D01*
X4236478Y4221284D01*
X4235757Y4221784D01*
X4234924Y4222450D01*
X4234092Y4223227D01*
X4233259Y4224171D01*
X4232593Y4225225D01*
Y4225280D01*
X4232538Y4225391D01*
X4232426Y4225558D01*
X4232315Y4225780D01*
X4232204Y4226057D01*
X4232038Y4226391D01*
X4231705Y4227223D01*
X4231427Y4228167D01*
X4231150Y4229332D01*
X4230928Y4230553D01*
X4230873Y4231885D01*
Y4232329D01*
X4230928Y4232662D01*
Y4232995D01*
X4230984Y4233439D01*
X4231150Y4234493D01*
X4231427Y4235659D01*
X4231872Y4236880D01*
X4232426Y4238101D01*
X4233203Y4239266D01*
Y4239322D01*
X4233315Y4239377D01*
X4233648Y4239711D01*
X4234147Y4240210D01*
X4234868Y4240820D01*
X4235757Y4241431D01*
X4236867Y4242042D01*
X4238143Y4242596D01*
X4239641Y4242985D01*
X4240363Y4238378D01*
X4240307D01*
X4240252Y4238323D01*
X4239919Y4238267D01*
X4239419Y4238101D01*
X4238809Y4237824D01*
X4238143Y4237546D01*
X4237422Y4237102D01*
X4236756Y4236602D01*
X4236200Y4236047D01*
X4236145Y4235992D01*
X4235979Y4235770D01*
X4235757Y4235382D01*
X4235479Y4234938D01*
X4235202Y4234327D01*
X4234980Y4233661D01*
X4234813Y4232884D01*
X4234757Y4232051D01*
Y4231718D01*
X4234813Y4231441D01*
X4234868Y4230831D01*
X4235091Y4229998D01*
X4235368Y4229110D01*
X4235812Y4228111D01*
X4236478Y4227167D01*
X4236867Y4226724D01*
X4237310Y4226279D01*
X4237366D01*
X4237422Y4226168D01*
X4237588Y4226057D01*
X4237810Y4225947D01*
X4238087Y4225780D01*
X4238421Y4225558D01*
X4238809Y4225391D01*
X4239253Y4225169D01*
X4239808Y4224948D01*
X4240418Y4224781D01*
X4241084Y4224559D01*
X4241806Y4224392D01*
X4242583Y4224282D01*
X4243471Y4224171D01*
X4244414Y4224060D01*
X4245413D01*
X4245469D01*
X4245636D01*
X4245968D01*
X4246301Y4224115D01*
X4246801D01*
X4247301Y4224171D01*
X4248521Y4224337D01*
X4249854Y4224559D01*
X4251241Y4224948D01*
X4252462Y4225447D01*
X4253073Y4225780D01*
X4253572Y4226168D01*
X4253683Y4226279D01*
X4253961Y4226557D01*
X4254349Y4227056D01*
X4254793Y4227667D01*
X4255292Y4228499D01*
X4255681Y4229443D01*
X4255958Y4230553D01*
X4256014Y4231163D01*
X4256069Y4231774D01*
Y4231885D01*
X4256014Y4232218D01*
X4255958Y4232773D01*
X4255847Y4233383D01*
X4255681Y4234105D01*
X4255348Y4234882D01*
X4254959Y4235659D01*
X4254404Y4236381D01*
X4254349Y4236492D01*
X4254072Y4236658D01*
X4253683Y4236991D01*
X4253073Y4237380D01*
X4252351Y4237768D01*
X4251463Y4238212D01*
X4250353Y4238545D01*
X4249132Y4238767D01*
X4249743Y4243429D01*
X4249798D01*
X4249965Y4243373D01*
D02*
G37*
G36*
X4259344Y4207021D02*
X4253961D01*
Y4212404D01*
X4259344D01*
Y4207021D01*
D02*
G37*
G36*
X4246357Y4199917D02*
X4246801D01*
X4247800Y4199806D01*
X4249021Y4199584D01*
X4250297Y4199306D01*
X4251630Y4198918D01*
X4252962Y4198418D01*
X4253017D01*
X4253128Y4198363D01*
X4253294Y4198252D01*
X4253516Y4198141D01*
X4254127Y4197752D01*
X4254904Y4197253D01*
X4255736Y4196642D01*
X4256569Y4195865D01*
X4257401Y4194977D01*
X4258178Y4193923D01*
Y4193868D01*
X4258234Y4193812D01*
X4258345Y4193645D01*
X4258456Y4193423D01*
X4258734Y4192868D01*
X4259066Y4192092D01*
X4259400Y4191148D01*
X4259677Y4190149D01*
X4259899Y4188984D01*
X4259954Y4187818D01*
Y4187430D01*
X4259899Y4186985D01*
X4259843Y4186431D01*
X4259733Y4185765D01*
X4259566Y4185043D01*
X4259344Y4184322D01*
X4259011Y4183600D01*
X4258956Y4183544D01*
X4258845Y4183267D01*
X4258623Y4182934D01*
X4258289Y4182490D01*
X4257957Y4182046D01*
X4257512Y4181491D01*
X4257013Y4180992D01*
X4256458Y4180547D01*
X4270000D01*
Y4175830D01*
X4231483D01*
Y4180104D01*
X4235146D01*
X4235035Y4180159D01*
X4234813Y4180381D01*
X4234425Y4180658D01*
X4233980Y4181102D01*
X4233426Y4181602D01*
X4232926Y4182157D01*
X4232426Y4182823D01*
X4231983Y4183489D01*
X4231927Y4183600D01*
X4231816Y4183822D01*
X4231650Y4184266D01*
X4231427Y4184821D01*
X4231206Y4185487D01*
X4231039Y4186264D01*
X4230928Y4187152D01*
X4230873Y4188151D01*
Y4188761D01*
X4230928Y4189039D01*
X4230984Y4189427D01*
X4231095Y4190260D01*
X4231316Y4191259D01*
X4231650Y4192314D01*
X4232149Y4193368D01*
X4232760Y4194422D01*
Y4194478D01*
X4232870Y4194533D01*
X4233092Y4194867D01*
X4233537Y4195366D01*
X4234092Y4195976D01*
X4234813Y4196642D01*
X4235701Y4197309D01*
X4236756Y4197975D01*
X4237921Y4198529D01*
X4237976D01*
X4238087Y4198585D01*
X4238254Y4198641D01*
X4238476Y4198752D01*
X4238809Y4198863D01*
X4239198Y4198974D01*
X4240086Y4199251D01*
X4241195Y4199529D01*
X4242417Y4199751D01*
X4243804Y4199917D01*
X4245247Y4199972D01*
X4245302D01*
X4245413D01*
X4245636D01*
X4245968D01*
X4246357Y4199917D01*
D02*
G37*
G36*
X4259344Y4164119D02*
X4241861D01*
X4241806D01*
X4241751D01*
X4241417D01*
X4240918D01*
X4240307Y4164064D01*
X4239641Y4164008D01*
X4238975Y4163953D01*
X4238310Y4163842D01*
X4237810Y4163676D01*
X4237755D01*
X4237588Y4163565D01*
X4237366Y4163453D01*
X4237088Y4163287D01*
X4236756Y4163065D01*
X4236422Y4162788D01*
X4236090Y4162454D01*
X4235757Y4162011D01*
X4235701Y4161955D01*
X4235645Y4161788D01*
X4235534Y4161566D01*
X4235368Y4161178D01*
X4235202Y4160789D01*
X4235091Y4160290D01*
X4235035Y4159791D01*
X4234980Y4159180D01*
Y4158903D01*
X4235035Y4158681D01*
X4235091Y4158126D01*
X4235202Y4157459D01*
X4235479Y4156682D01*
X4235812Y4155850D01*
X4236311Y4155017D01*
X4236977Y4154240D01*
X4237088Y4154185D01*
X4237366Y4153963D01*
X4237810Y4153630D01*
X4238476Y4153297D01*
X4239364Y4152908D01*
X4240418Y4152631D01*
X4241695Y4152409D01*
X4243194Y4152298D01*
X4259344D01*
Y4147581D01*
X4241306D01*
X4241251D01*
X4241140D01*
X4241029D01*
X4240807D01*
X4240197Y4147525D01*
X4239530Y4147414D01*
X4238753Y4147303D01*
X4237976Y4147081D01*
X4237255Y4146803D01*
X4236589Y4146415D01*
X4236533Y4146359D01*
X4236311Y4146193D01*
X4236090Y4145916D01*
X4235757Y4145527D01*
X4235479Y4145028D01*
X4235202Y4144361D01*
X4235035Y4143584D01*
X4234980Y4142641D01*
Y4142308D01*
X4235035Y4141919D01*
X4235091Y4141475D01*
X4235257Y4140921D01*
X4235423Y4140255D01*
X4235701Y4139644D01*
X4236034Y4138978D01*
X4236090Y4138922D01*
X4236256Y4138700D01*
X4236478Y4138423D01*
X4236811Y4138034D01*
X4237255Y4137646D01*
X4237810Y4137257D01*
X4238421Y4136869D01*
X4239142Y4136536D01*
X4239253Y4136480D01*
X4239530Y4136425D01*
X4239975Y4136314D01*
X4240585Y4136148D01*
X4241417Y4135981D01*
X4242417Y4135870D01*
X4243582Y4135815D01*
X4244914Y4135759D01*
X4259344D01*
Y4131042D01*
X4231483D01*
Y4135260D01*
X4235479D01*
X4235368Y4135315D01*
X4235146Y4135481D01*
X4234757Y4135815D01*
X4234314Y4136203D01*
X4233758Y4136703D01*
X4233203Y4137313D01*
X4232649Y4137979D01*
X4232149Y4138756D01*
X4232093Y4138867D01*
X4231927Y4139145D01*
X4231761Y4139588D01*
X4231483Y4140199D01*
X4231261Y4140921D01*
X4231095Y4141753D01*
X4230928Y4142697D01*
X4230873Y4143695D01*
Y4144195D01*
X4230928Y4144806D01*
X4231039Y4145471D01*
X4231206Y4146304D01*
X4231427Y4147136D01*
X4231761Y4147969D01*
X4232204Y4148746D01*
X4232260Y4148857D01*
X4232426Y4149079D01*
X4232704Y4149412D01*
X4233148Y4149856D01*
X4233648Y4150300D01*
X4234258Y4150800D01*
X4234980Y4151243D01*
X4235812Y4151577D01*
X4235757Y4151632D01*
X4235590Y4151743D01*
X4235368Y4151909D01*
X4235035Y4152187D01*
X4234646Y4152520D01*
X4234258Y4152908D01*
X4233814Y4153352D01*
X4233315Y4153908D01*
X4232870Y4154518D01*
X4232426Y4155128D01*
X4232038Y4155850D01*
X4231650Y4156627D01*
X4231316Y4157459D01*
X4231095Y4158347D01*
X4230928Y4159235D01*
X4230873Y4160234D01*
Y4160623D01*
X4230928Y4160900D01*
Y4161289D01*
X4230984Y4161677D01*
X4231150Y4162621D01*
X4231427Y4163620D01*
X4231872Y4164675D01*
X4232426Y4165729D01*
X4233203Y4166617D01*
X4233315Y4166728D01*
X4233648Y4166950D01*
X4234147Y4167338D01*
X4234535Y4167505D01*
X4234924Y4167727D01*
X4235423Y4167949D01*
X4235923Y4168115D01*
X4236478Y4168337D01*
X4237144Y4168504D01*
X4237810Y4168615D01*
X4238587Y4168726D01*
X4239364Y4168837D01*
X4240252D01*
X4259344D01*
Y4164119D01*
D02*
G37*
G36*
Y4126935D02*
X4259400Y4126712D01*
X4259455Y4126324D01*
X4259511Y4125824D01*
X4259622Y4125270D01*
X4259677Y4124659D01*
X4259733Y4123438D01*
Y4122994D01*
X4259677Y4122550D01*
X4259622Y4121995D01*
X4259566Y4121329D01*
X4259400Y4120663D01*
X4259233Y4120052D01*
X4258956Y4119442D01*
X4258900Y4119386D01*
X4258789Y4119220D01*
X4258623Y4118998D01*
X4258345Y4118665D01*
X4258068Y4118387D01*
X4257679Y4118055D01*
X4257291Y4117721D01*
X4256791Y4117499D01*
X4256735D01*
X4256514Y4117389D01*
X4256125Y4117333D01*
X4255570Y4117222D01*
X4254849Y4117111D01*
X4254404Y4117056D01*
X4253905D01*
X4253294Y4117000D01*
X4252684Y4116944D01*
X4252018D01*
X4251241D01*
X4235146D01*
Y4113448D01*
X4231483D01*
Y4116944D01*
X4224601D01*
X4221770Y4121662D01*
X4231483D01*
Y4126435D01*
X4235146D01*
Y4121662D01*
X4251519D01*
X4251630D01*
X4251851D01*
X4252185D01*
X4252573Y4121717D01*
X4253461Y4121773D01*
X4253850Y4121828D01*
X4254127Y4121884D01*
X4254238Y4121940D01*
X4254460Y4122106D01*
X4254738Y4122328D01*
X4255015Y4122717D01*
X4255070Y4122828D01*
X4255181Y4123105D01*
X4255292Y4123605D01*
X4255348Y4124326D01*
Y4124881D01*
X4255292Y4125158D01*
Y4125547D01*
X4255237Y4125991D01*
X4255181Y4126435D01*
X4259344Y4127046D01*
Y4126935D01*
D02*
G37*
G36*
X4247855Y4110118D02*
X4248189D01*
X4249077Y4109952D01*
X4250131Y4109785D01*
X4251241Y4109507D01*
X4252462Y4109119D01*
X4253627Y4108564D01*
X4253683D01*
X4253739Y4108508D01*
X4253905Y4108398D01*
X4254127Y4108287D01*
X4254682Y4107953D01*
X4255404Y4107454D01*
X4256181Y4106843D01*
X4256958Y4106122D01*
X4257734Y4105234D01*
X4258400Y4104291D01*
Y4104235D01*
X4258456Y4104180D01*
X4258567Y4104013D01*
X4258623Y4103791D01*
X4258900Y4103236D01*
X4259177Y4102515D01*
X4259511Y4101571D01*
X4259733Y4100516D01*
X4259954Y4099351D01*
X4260010Y4098074D01*
Y4097797D01*
X4259954Y4097520D01*
Y4097075D01*
X4259899Y4096576D01*
X4259788Y4096021D01*
X4259622Y4095355D01*
X4259455Y4094689D01*
X4259233Y4093912D01*
X4258956Y4093135D01*
X4258623Y4092358D01*
X4258178Y4091526D01*
X4257679Y4090749D01*
X4257124Y4089972D01*
X4256458Y4089195D01*
X4255681Y4088473D01*
X4255626Y4088418D01*
X4255459Y4088307D01*
X4255237Y4088140D01*
X4254849Y4087918D01*
X4254349Y4087585D01*
X4253794Y4087307D01*
X4253073Y4086974D01*
X4252296Y4086642D01*
X4251352Y4086253D01*
X4250297Y4085920D01*
X4249132Y4085642D01*
X4247855Y4085365D01*
X4246413Y4085088D01*
X4244859Y4084921D01*
X4243194Y4084810D01*
X4241417Y4084755D01*
X4241362D01*
X4241306D01*
X4241140D01*
X4240918D01*
X4240363Y4084810D01*
X4239586D01*
X4238698Y4084865D01*
X4237644Y4084977D01*
X4236478Y4085088D01*
X4235202Y4085254D01*
X4233925Y4085476D01*
X4232538Y4085753D01*
X4231206Y4086086D01*
X4229873Y4086475D01*
X4228597Y4086974D01*
X4227376Y4087530D01*
X4226211Y4088140D01*
X4225212Y4088861D01*
X4225156Y4088917D01*
X4225045Y4089028D01*
X4224823Y4089250D01*
X4224490Y4089528D01*
X4224157Y4089860D01*
X4223824Y4090305D01*
X4223380Y4090860D01*
X4222992Y4091414D01*
X4222603Y4092081D01*
X4222159Y4092802D01*
X4221826Y4093635D01*
X4221438Y4094467D01*
X4221160Y4095410D01*
X4220938Y4096409D01*
X4220827Y4097464D01*
X4220771Y4098574D01*
Y4099018D01*
X4220827Y4099351D01*
Y4099739D01*
X4220882Y4100184D01*
X4221105Y4101238D01*
X4221382Y4102404D01*
X4221826Y4103624D01*
X4222492Y4104846D01*
X4222881Y4105456D01*
X4223324Y4106011D01*
X4223380Y4106066D01*
X4223435Y4106122D01*
X4223602Y4106288D01*
X4223769Y4106455D01*
X4224046Y4106733D01*
X4224379Y4106954D01*
X4225156Y4107565D01*
X4226155Y4108176D01*
X4227376Y4108730D01*
X4228764Y4109230D01*
X4230318Y4109563D01*
X4230706Y4104846D01*
X4230650D01*
X4230595Y4104790D01*
X4230262Y4104734D01*
X4229762Y4104568D01*
X4229152Y4104346D01*
X4228486Y4104124D01*
X4227820Y4103791D01*
X4227209Y4103403D01*
X4226710Y4103014D01*
X4226599Y4102903D01*
X4226377Y4102681D01*
X4226044Y4102292D01*
X4225655Y4101738D01*
X4225323Y4101016D01*
X4224989Y4100239D01*
X4224767Y4099296D01*
X4224657Y4098297D01*
Y4097908D01*
X4224712Y4097464D01*
X4224823Y4096965D01*
X4224989Y4096298D01*
X4225212Y4095633D01*
X4225489Y4094966D01*
X4225933Y4094300D01*
X4225989Y4094189D01*
X4226211Y4093912D01*
X4226599Y4093523D01*
X4227154Y4093024D01*
X4227820Y4092469D01*
X4228597Y4091858D01*
X4229596Y4091303D01*
X4230706Y4090749D01*
X4230761D01*
X4230873Y4090693D01*
X4231039Y4090637D01*
X4231261Y4090526D01*
X4231594Y4090471D01*
X4231983Y4090360D01*
X4232426Y4090249D01*
X4232981Y4090138D01*
X4233592Y4089972D01*
X4234258Y4089860D01*
X4234980Y4089749D01*
X4235757Y4089694D01*
X4236645Y4089583D01*
X4237533Y4089528D01*
X4238532Y4089472D01*
X4239530D01*
X4239475Y4089528D01*
X4239142Y4089749D01*
X4238698Y4090138D01*
X4238143Y4090637D01*
X4237477Y4091193D01*
X4236867Y4091914D01*
X4236256Y4092691D01*
X4235701Y4093579D01*
Y4093635D01*
X4235645Y4093690D01*
X4235479Y4094023D01*
X4235312Y4094523D01*
X4235035Y4095189D01*
X4234813Y4095965D01*
X4234646Y4096854D01*
X4234480Y4097797D01*
X4234425Y4098796D01*
Y4099240D01*
X4234480Y4099573D01*
X4234535Y4100017D01*
X4234591Y4100461D01*
X4234702Y4101016D01*
X4234868Y4101571D01*
X4235257Y4102847D01*
X4235534Y4103514D01*
X4235923Y4104180D01*
X4236311Y4104846D01*
X4236756Y4105567D01*
X4237310Y4106233D01*
X4237921Y4106843D01*
X4237976Y4106899D01*
X4238087Y4107010D01*
X4238254Y4107176D01*
X4238532Y4107343D01*
X4238920Y4107620D01*
X4239309Y4107898D01*
X4239808Y4108176D01*
X4240363Y4108508D01*
X4240974Y4108842D01*
X4241640Y4109119D01*
X4242417Y4109396D01*
X4243194Y4109674D01*
X4244026Y4109841D01*
X4244970Y4110007D01*
X4245913Y4110118D01*
X4246912Y4110173D01*
X4246967D01*
X4247078D01*
X4247245D01*
X4247523D01*
X4247855Y4110118D01*
D02*
G37*
G36*
X4252018Y4080648D02*
X4252628Y4080537D01*
X4253294Y4080370D01*
X4254016Y4080093D01*
X4254849Y4079760D01*
X4255626Y4079316D01*
X4255736Y4079260D01*
X4255958Y4079038D01*
X4256347Y4078760D01*
X4256791Y4078316D01*
X4257291Y4077706D01*
X4257846Y4077040D01*
X4258345Y4076263D01*
X4258845Y4075320D01*
Y4075264D01*
X4258900Y4075209D01*
X4259011Y4074876D01*
X4259177Y4074320D01*
X4259400Y4073599D01*
X4259622Y4072711D01*
X4259788Y4071712D01*
X4259899Y4070657D01*
X4259954Y4069436D01*
Y4068937D01*
X4259899Y4068548D01*
Y4068104D01*
X4259843Y4067550D01*
X4259788Y4066994D01*
X4259677Y4066384D01*
X4259400Y4065052D01*
X4259011Y4063664D01*
X4258456Y4062332D01*
X4258123Y4061722D01*
X4257734Y4061167D01*
X4257679Y4061111D01*
X4257623Y4061056D01*
X4257291Y4060723D01*
X4256791Y4060224D01*
X4256014Y4059669D01*
X4255070Y4059058D01*
X4253961Y4058448D01*
X4252573Y4057948D01*
X4251019Y4057559D01*
X4250297Y4062222D01*
X4250353D01*
X4250408D01*
X4250742Y4062332D01*
X4251297Y4062443D01*
X4251907Y4062666D01*
X4252573Y4062943D01*
X4253294Y4063276D01*
X4254016Y4063776D01*
X4254627Y4064386D01*
X4254682Y4064497D01*
X4254849Y4064719D01*
X4255070Y4065163D01*
X4255348Y4065718D01*
X4255626Y4066439D01*
X4255847Y4067272D01*
X4256014Y4068271D01*
X4256069Y4069436D01*
Y4069992D01*
X4256014Y4070546D01*
X4255903Y4071268D01*
X4255736Y4072045D01*
X4255515Y4072878D01*
X4255237Y4073599D01*
X4254793Y4074265D01*
X4254738Y4074320D01*
X4254571Y4074543D01*
X4254293Y4074765D01*
X4253905Y4075097D01*
X4253461Y4075375D01*
X4252906Y4075653D01*
X4252351Y4075819D01*
X4251685Y4075874D01*
X4251630D01*
X4251408D01*
X4251130Y4075819D01*
X4250742Y4075708D01*
X4250353Y4075541D01*
X4249965Y4075264D01*
X4249520Y4074931D01*
X4249188Y4074432D01*
X4249132Y4074376D01*
X4249077Y4074209D01*
X4248910Y4073932D01*
X4248743Y4073488D01*
X4248521Y4072822D01*
X4248355Y4072434D01*
X4248244Y4071990D01*
X4248078Y4071490D01*
X4247911Y4070935D01*
X4247744Y4070325D01*
X4247578Y4069603D01*
Y4069548D01*
X4247523Y4069381D01*
X4247467Y4069104D01*
X4247356Y4068771D01*
X4247245Y4068327D01*
X4247078Y4067827D01*
X4246801Y4066773D01*
X4246413Y4065552D01*
X4246079Y4064386D01*
X4245691Y4063276D01*
X4245469Y4062776D01*
X4245302Y4062388D01*
X4245247Y4062277D01*
X4245136Y4062055D01*
X4244914Y4061722D01*
X4244636Y4061278D01*
X4244248Y4060778D01*
X4243804Y4060279D01*
X4243305Y4059780D01*
X4242694Y4059336D01*
X4242639Y4059280D01*
X4242417Y4059169D01*
X4242028Y4059003D01*
X4241584Y4058836D01*
X4241029Y4058669D01*
X4240363Y4058503D01*
X4239697Y4058392D01*
X4238920Y4058336D01*
X4238809D01*
X4238587D01*
X4238254Y4058392D01*
X4237755Y4058448D01*
X4237255Y4058559D01*
X4236645Y4058669D01*
X4236090Y4058892D01*
X4235479Y4059169D01*
X4235423Y4059224D01*
X4235202Y4059336D01*
X4234924Y4059502D01*
X4234535Y4059780D01*
X4234147Y4060113D01*
X4233648Y4060501D01*
X4233203Y4060945D01*
X4232815Y4061500D01*
X4232760Y4061555D01*
X4232704Y4061722D01*
X4232538Y4061944D01*
X4232371Y4062277D01*
X4232149Y4062721D01*
X4231927Y4063220D01*
X4231705Y4063831D01*
X4231483Y4064497D01*
X4231427Y4064608D01*
X4231372Y4064830D01*
X4231261Y4065218D01*
X4231150Y4065718D01*
X4231039Y4066329D01*
X4230984Y4066994D01*
X4230873Y4067771D01*
Y4069104D01*
X4230928Y4069714D01*
X4230984Y4070546D01*
X4231095Y4071434D01*
X4231316Y4072378D01*
X4231538Y4073377D01*
X4231872Y4074320D01*
Y4074376D01*
X4231927Y4074432D01*
X4232038Y4074709D01*
X4232260Y4075153D01*
X4232538Y4075708D01*
X4232926Y4076318D01*
X4233370Y4076929D01*
X4233869Y4077484D01*
X4234425Y4077983D01*
X4234480Y4078039D01*
X4234702Y4078150D01*
X4235091Y4078372D01*
X4235534Y4078649D01*
X4236200Y4078927D01*
X4236922Y4079204D01*
X4237755Y4079427D01*
X4238698Y4079648D01*
X4239309Y4075042D01*
X4239198D01*
X4238975Y4074986D01*
X4238587Y4074876D01*
X4238087Y4074709D01*
X4237588Y4074432D01*
X4237033Y4074099D01*
X4236478Y4073710D01*
X4235979Y4073155D01*
X4235923Y4073099D01*
X4235812Y4072878D01*
X4235590Y4072544D01*
X4235368Y4072045D01*
X4235146Y4071490D01*
X4234924Y4070769D01*
X4234813Y4069881D01*
X4234757Y4068937D01*
Y4068382D01*
X4234813Y4067827D01*
X4234868Y4067106D01*
X4235035Y4066384D01*
X4235202Y4065607D01*
X4235479Y4064885D01*
X4235868Y4064275D01*
X4235923Y4064220D01*
X4236034Y4064053D01*
X4236256Y4063831D01*
X4236589Y4063609D01*
X4236922Y4063331D01*
X4237366Y4063110D01*
X4237865Y4062943D01*
X4238365Y4062887D01*
X4238421D01*
X4238532D01*
X4238698Y4062943D01*
X4238920D01*
X4239475Y4063110D01*
X4240030Y4063443D01*
X4240086Y4063498D01*
X4240141Y4063553D01*
X4240307Y4063664D01*
X4240474Y4063887D01*
X4240641Y4064108D01*
X4240863Y4064441D01*
X4241029Y4064830D01*
X4241251Y4065274D01*
Y4065329D01*
X4241306Y4065441D01*
X4241362Y4065662D01*
X4241529Y4066051D01*
X4241695Y4066606D01*
X4241861Y4067327D01*
X4242028Y4067771D01*
X4242139Y4068271D01*
X4242306Y4068826D01*
X4242472Y4069436D01*
Y4069492D01*
X4242528Y4069659D01*
X4242583Y4069936D01*
X4242694Y4070269D01*
X4242805Y4070657D01*
X4242916Y4071157D01*
X4243249Y4072211D01*
X4243582Y4073377D01*
X4243971Y4074543D01*
X4244359Y4075597D01*
X4244525Y4076041D01*
X4244692Y4076430D01*
X4244748Y4076541D01*
X4244859Y4076762D01*
X4245025Y4077095D01*
X4245302Y4077595D01*
X4245636Y4078095D01*
X4246079Y4078594D01*
X4246579Y4079093D01*
X4247134Y4079537D01*
X4247190Y4079593D01*
X4247412Y4079704D01*
X4247744Y4079926D01*
X4248244Y4080148D01*
X4248855Y4080314D01*
X4249520Y4080537D01*
X4250297Y4080648D01*
X4251185Y4080703D01*
X4251297D01*
X4251574D01*
X4252018Y4080648D01*
D02*
G37*
G36*
X4250131Y4048069D02*
X4259344D01*
Y4043352D01*
X4250131D01*
Y4026646D01*
X4245802D01*
X4220938Y4044240D01*
Y4048069D01*
X4245802D01*
Y4053286D01*
X4250131D01*
Y4048069D01*
D02*
G37*
G36*
X4259344Y4015990D02*
X4253961D01*
Y4021374D01*
X4259344D01*
Y4015990D01*
D02*
G37*
G36*
Y4001893D02*
Y3997064D01*
X4242694Y3992624D01*
X4237921Y3991515D01*
X4259344Y3985909D01*
Y3980914D01*
X4231483Y3972478D01*
Y3977418D01*
X4247578Y3981858D01*
X4253572Y3983412D01*
X4253516D01*
X4253405Y3983467D01*
X4253128Y3983523D01*
X4252962Y3983578D01*
X4252684Y3983633D01*
X4252351Y3983689D01*
X4251962Y3983800D01*
X4251519Y3983911D01*
X4250963Y3984077D01*
X4250353Y3984244D01*
X4249632Y3984410D01*
X4248799Y3984633D01*
X4247855Y3984854D01*
X4231483Y3989294D01*
Y3994123D01*
X4247689Y3998285D01*
X4253017Y3999673D01*
X4247633Y4001282D01*
X4231483Y4006055D01*
Y4010662D01*
X4259344Y4001893D01*
D02*
G37*
G36*
Y3963154D02*
Y3958325D01*
X4242694Y3953885D01*
X4237921Y3952776D01*
X4259344Y3947170D01*
Y3942175D01*
X4231483Y3933739D01*
Y3938678D01*
X4247578Y3943119D01*
X4253572Y3944673D01*
X4253516D01*
X4253405Y3944728D01*
X4253128Y3944784D01*
X4252962Y3944839D01*
X4252684Y3944894D01*
X4252351Y3944950D01*
X4251962Y3945061D01*
X4251519Y3945172D01*
X4250963Y3945338D01*
X4250353Y3945505D01*
X4249632Y3945671D01*
X4248799Y3945894D01*
X4247855Y3946115D01*
X4231483Y3950555D01*
Y3955384D01*
X4247689Y3959546D01*
X4253017Y3960934D01*
X4247633Y3962544D01*
X4231483Y3967316D01*
Y3971923D01*
X4259344Y3963154D01*
D02*
G37*
G36*
Y3924415D02*
Y3919586D01*
X4242694Y3915146D01*
X4237921Y3914037D01*
X4259344Y3908431D01*
Y3903436D01*
X4231483Y3895000D01*
Y3899939D01*
X4247578Y3904380D01*
X4253572Y3905934D01*
X4253516D01*
X4253405Y3905989D01*
X4253128Y3906044D01*
X4252962Y3906100D01*
X4252684Y3906155D01*
X4252351Y3906211D01*
X4251962Y3906322D01*
X4251519Y3906433D01*
X4250963Y3906599D01*
X4250353Y3906766D01*
X4249632Y3906932D01*
X4248799Y3907155D01*
X4247855Y3907376D01*
X4231483Y3911816D01*
Y3916645D01*
X4247689Y3920807D01*
X4253017Y3922195D01*
X4247633Y3923805D01*
X4231483Y3928577D01*
Y3933184D01*
X4259344Y3924415D01*
D02*
G37*
G36*
X3840000Y4276109D02*
Y3825000D01*
X3749090D01*
Y4276109D01*
X3840000D01*
D02*
G37*
G36*
X4295512Y4399064D02*
X4296012D01*
X4297177Y4399009D01*
X4298398Y4398842D01*
X4299730Y4398676D01*
X4300951Y4398398D01*
X4301562Y4398232D01*
X4302061Y4398065D01*
X4302117D01*
X4302172Y4398010D01*
X4302505Y4397843D01*
X4303005Y4397621D01*
X4303615Y4397233D01*
X4304281Y4396733D01*
X4305003Y4396067D01*
X4305669Y4395290D01*
X4306335Y4394402D01*
Y4394347D01*
X4306390Y4394291D01*
X4306612Y4393958D01*
X4306834Y4393403D01*
X4307167Y4392682D01*
X4307445Y4391849D01*
X4307722Y4390850D01*
X4307889Y4389796D01*
X4307944Y4388630D01*
Y4388575D01*
Y4388464D01*
Y4388242D01*
X4307889Y4387964D01*
Y4387576D01*
X4307833Y4387187D01*
X4307611Y4386244D01*
X4307278Y4385134D01*
X4306834Y4383968D01*
X4306168Y4382803D01*
X4305724Y4382248D01*
X4305280Y4381693D01*
X4305225Y4381637D01*
X4305169Y4381582D01*
X4305003Y4381415D01*
X4304781Y4381249D01*
X4304503Y4381027D01*
X4304170Y4380805D01*
X4303726Y4380527D01*
X4303282Y4380194D01*
X4302727Y4379917D01*
X4302117Y4379639D01*
X4301451Y4379306D01*
X4300729Y4379029D01*
X4299897Y4378807D01*
X4299064Y4378529D01*
X4298121Y4378363D01*
X4297122Y4378196D01*
X4297233Y4378141D01*
X4297455Y4378030D01*
X4297788Y4377808D01*
X4298232Y4377586D01*
X4299231Y4376975D01*
X4299730Y4376587D01*
X4300174Y4376254D01*
X4300285Y4376143D01*
X4300563Y4375865D01*
X4301007Y4375421D01*
X4301562Y4374866D01*
X4302172Y4374089D01*
X4302894Y4373257D01*
X4303615Y4372258D01*
X4304392Y4371148D01*
X4310997Y4360714D01*
X4304670D01*
X4299619Y4368706D01*
Y4368761D01*
X4299508Y4368872D01*
X4299397Y4369039D01*
X4299231Y4369261D01*
X4298842Y4369871D01*
X4298343Y4370648D01*
X4297732Y4371481D01*
X4297122Y4372369D01*
X4296511Y4373201D01*
X4295956Y4373978D01*
X4295901Y4374034D01*
X4295734Y4374256D01*
X4295457Y4374589D01*
X4295068Y4374977D01*
X4294236Y4375810D01*
X4293792Y4376198D01*
X4293348Y4376531D01*
X4293292Y4376587D01*
X4293181Y4376642D01*
X4292959Y4376753D01*
X4292626Y4376920D01*
X4292293Y4377086D01*
X4291905Y4377253D01*
X4291017Y4377530D01*
X4290961D01*
X4290850Y4377586D01*
X4290628D01*
X4290351Y4377641D01*
X4289962Y4377697D01*
X4289518D01*
X4288908Y4377752D01*
X4282359D01*
Y4360714D01*
X4277253D01*
Y4399120D01*
X4295068D01*
X4295512Y4399064D01*
D02*
G37*
G36*
X4263156Y4360714D02*
X4258438D01*
Y4390739D01*
X4258383Y4390684D01*
X4258105Y4390462D01*
X4257772Y4390129D01*
X4257217Y4389740D01*
X4256607Y4389241D01*
X4255830Y4388686D01*
X4254942Y4388075D01*
X4253943Y4387465D01*
X4253887D01*
X4253832Y4387409D01*
X4253499Y4387187D01*
X4252944Y4386910D01*
X4252278Y4386577D01*
X4251501Y4386188D01*
X4250668Y4385800D01*
X4249836Y4385411D01*
X4249003Y4385078D01*
Y4389629D01*
X4249059D01*
X4249170Y4389740D01*
X4249392Y4389796D01*
X4249669Y4389962D01*
X4250002Y4390129D01*
X4250391Y4390351D01*
X4251334Y4390906D01*
X4252444Y4391516D01*
X4253554Y4392293D01*
X4254720Y4393181D01*
X4255885Y4394125D01*
X4255941Y4394180D01*
X4255996Y4394236D01*
X4256163Y4394402D01*
X4256385Y4394569D01*
X4256884Y4395124D01*
X4257550Y4395790D01*
X4258216Y4396567D01*
X4258938Y4397455D01*
X4259548Y4398343D01*
X4260103Y4399286D01*
X4263156D01*
Y4360714D01*
D02*
G37*
G36*
X4394286Y3724670D02*
X4386294Y3719619D01*
X4386239D01*
X4386128Y3719508D01*
X4385961Y3719397D01*
X4385739Y3719231D01*
X4385129Y3718842D01*
X4384352Y3718343D01*
X4383519Y3717732D01*
X4382631Y3717122D01*
X4381799Y3716511D01*
X4381022Y3715956D01*
X4380966Y3715901D01*
X4380744Y3715734D01*
X4380411Y3715457D01*
X4380023Y3715068D01*
X4379190Y3714236D01*
X4378802Y3713792D01*
X4378469Y3713348D01*
X4378413Y3713292D01*
X4378358Y3713181D01*
X4378247Y3712959D01*
X4378080Y3712626D01*
X4377914Y3712293D01*
X4377747Y3711905D01*
X4377470Y3711017D01*
Y3710961D01*
X4377414Y3710850D01*
Y3710628D01*
X4377359Y3710351D01*
X4377303Y3709962D01*
Y3709518D01*
X4377248Y3708908D01*
Y3702359D01*
X4394286D01*
Y3697253D01*
X4355880D01*
Y3715068D01*
X4355936Y3715512D01*
Y3716012D01*
X4355991Y3717177D01*
X4356158Y3718398D01*
X4356324Y3719730D01*
X4356602Y3720951D01*
X4356768Y3721562D01*
X4356935Y3722061D01*
Y3722117D01*
X4356990Y3722172D01*
X4357157Y3722505D01*
X4357379Y3723005D01*
X4357767Y3723615D01*
X4358267Y3724281D01*
X4358933Y3725003D01*
X4359710Y3725669D01*
X4360598Y3726335D01*
X4360653D01*
X4360709Y3726390D01*
X4361042Y3726612D01*
X4361597Y3726834D01*
X4362318Y3727167D01*
X4363151Y3727445D01*
X4364150Y3727722D01*
X4365204Y3727889D01*
X4366370Y3727944D01*
X4366425D01*
X4366536D01*
X4366758D01*
X4367036Y3727889D01*
X4367424D01*
X4367813Y3727833D01*
X4368756Y3727611D01*
X4369866Y3727278D01*
X4371032Y3726834D01*
X4372197Y3726168D01*
X4372752Y3725724D01*
X4373307Y3725280D01*
X4373363Y3725225D01*
X4373418Y3725169D01*
X4373585Y3725003D01*
X4373751Y3724781D01*
X4373973Y3724503D01*
X4374195Y3724170D01*
X4374473Y3723726D01*
X4374806Y3723282D01*
X4375083Y3722727D01*
X4375361Y3722117D01*
X4375694Y3721451D01*
X4375971Y3720729D01*
X4376193Y3719897D01*
X4376471Y3719064D01*
X4376637Y3718121D01*
X4376804Y3717122D01*
X4376859Y3717233D01*
X4376970Y3717455D01*
X4377192Y3717788D01*
X4377414Y3718232D01*
X4378025Y3719231D01*
X4378413Y3719730D01*
X4378746Y3720174D01*
X4378857Y3720285D01*
X4379135Y3720563D01*
X4379579Y3721007D01*
X4380134Y3721562D01*
X4380911Y3722172D01*
X4381743Y3722894D01*
X4382742Y3723615D01*
X4383852Y3724392D01*
X4394286Y3730997D01*
Y3724670D01*
D02*
G37*
G36*
Y3678438D02*
X4364261D01*
X4364316Y3678383D01*
X4364538Y3678105D01*
X4364871Y3677772D01*
X4365260Y3677217D01*
X4365759Y3676607D01*
X4366314Y3675830D01*
X4366925Y3674942D01*
X4367535Y3673943D01*
Y3673887D01*
X4367591Y3673832D01*
X4367813Y3673499D01*
X4368090Y3672944D01*
X4368423Y3672278D01*
X4368812Y3671501D01*
X4369200Y3670668D01*
X4369589Y3669836D01*
X4369922Y3669003D01*
X4365371D01*
Y3669059D01*
X4365260Y3669170D01*
X4365204Y3669392D01*
X4365038Y3669669D01*
X4364871Y3670002D01*
X4364649Y3670391D01*
X4364094Y3671334D01*
X4363484Y3672444D01*
X4362707Y3673554D01*
X4361819Y3674720D01*
X4360875Y3675885D01*
X4360820Y3675941D01*
X4360764Y3675996D01*
X4360598Y3676163D01*
X4360431Y3676385D01*
X4359876Y3676884D01*
X4359210Y3677550D01*
X4358433Y3678216D01*
X4357545Y3678938D01*
X4356657Y3679548D01*
X4355714Y3680103D01*
Y3683156D01*
X4394286D01*
Y3678438D01*
D02*
G37*
G36*
X3858326Y3780770D02*
X3858763Y3780715D01*
X3859255Y3780606D01*
X3859801Y3780497D01*
X3860401Y3780387D01*
X3861712Y3779951D01*
X3862421Y3779623D01*
X3863077Y3779296D01*
X3863786Y3778859D01*
X3864496Y3778367D01*
X3865206Y3777821D01*
X3865861Y3777166D01*
X3865916Y3777111D01*
X3866025Y3777002D01*
X3866189Y3776784D01*
X3866407Y3776511D01*
X3866680Y3776183D01*
X3866953Y3775747D01*
X3867281Y3775255D01*
X3867554Y3774655D01*
X3867881Y3774054D01*
X3868209Y3773344D01*
X3868482Y3772634D01*
X3868755Y3771815D01*
X3868973Y3770942D01*
X3869137Y3770014D01*
X3869246Y3769085D01*
X3869301Y3768048D01*
Y3767557D01*
X3869246Y3767229D01*
X3869192Y3766792D01*
X3869137Y3766301D01*
X3869028Y3765755D01*
X3868919Y3765154D01*
X3868591Y3763844D01*
X3868045Y3762479D01*
X3867718Y3761769D01*
X3867335Y3761114D01*
X3866844Y3760459D01*
X3866353Y3759803D01*
X3866298Y3759749D01*
X3866189Y3759640D01*
X3866025Y3759476D01*
X3865807Y3759312D01*
X3865534Y3759039D01*
X3865151Y3758766D01*
X3864769Y3758438D01*
X3864278Y3758111D01*
X3863732Y3757783D01*
X3863186Y3757456D01*
X3861875Y3756855D01*
X3860347Y3756363D01*
X3859528Y3756200D01*
X3858654Y3756090D01*
X3858053Y3760731D01*
X3858108D01*
X3858217Y3760786D01*
X3858436Y3760841D01*
X3858709Y3760895D01*
X3859036Y3760950D01*
X3859418Y3761059D01*
X3860237Y3761332D01*
X3861220Y3761714D01*
X3862148Y3762206D01*
X3863022Y3762752D01*
X3863786Y3763407D01*
X3863841Y3763516D01*
X3864059Y3763735D01*
X3864332Y3764171D01*
X3864605Y3764717D01*
X3864933Y3765372D01*
X3865206Y3766191D01*
X3865424Y3767120D01*
X3865479Y3768102D01*
Y3768430D01*
X3865424Y3768648D01*
X3865370Y3769249D01*
X3865206Y3770014D01*
X3864933Y3770887D01*
X3864551Y3771815D01*
X3864005Y3772744D01*
X3863240Y3773617D01*
X3863131Y3773726D01*
X3862804Y3773999D01*
X3862312Y3774327D01*
X3861657Y3774764D01*
X3860838Y3775200D01*
X3859910Y3775528D01*
X3858818Y3775801D01*
X3857617Y3775910D01*
X3857562D01*
X3857453D01*
X3857289D01*
X3857071Y3775856D01*
X3856470Y3775801D01*
X3855760Y3775637D01*
X3854887Y3775419D01*
X3854013Y3775037D01*
X3853139Y3774491D01*
X3852320Y3773781D01*
X3852211Y3773672D01*
X3851993Y3773399D01*
X3851665Y3772962D01*
X3851283Y3772361D01*
X3850901Y3771597D01*
X3850573Y3770669D01*
X3850355Y3769631D01*
X3850246Y3768485D01*
Y3767993D01*
X3850300Y3767611D01*
X3850355Y3767120D01*
X3850464Y3766574D01*
X3850573Y3765919D01*
X3850737Y3765209D01*
X3846642Y3765755D01*
Y3766028D01*
X3846697Y3766246D01*
Y3766956D01*
X3846587Y3767557D01*
X3846478Y3768266D01*
X3846314Y3769085D01*
X3846041Y3770014D01*
X3845659Y3770887D01*
X3845168Y3771815D01*
Y3771870D01*
X3845113Y3771925D01*
X3844895Y3772198D01*
X3844513Y3772580D01*
X3844021Y3773017D01*
X3843311Y3773453D01*
X3842492Y3773836D01*
X3841564Y3774108D01*
X3841018Y3774218D01*
X3840418D01*
X3840363D01*
X3840308D01*
X3839981D01*
X3839544Y3774108D01*
X3838943Y3773999D01*
X3838288Y3773781D01*
X3837578Y3773508D01*
X3836869Y3773071D01*
X3836213Y3772470D01*
X3836159Y3772416D01*
X3835940Y3772143D01*
X3835667Y3771761D01*
X3835340Y3771269D01*
X3835067Y3770614D01*
X3834794Y3769850D01*
X3834575Y3768976D01*
X3834521Y3767993D01*
Y3767557D01*
X3834630Y3767065D01*
X3834739Y3766410D01*
X3834958Y3765700D01*
X3835231Y3764990D01*
X3835667Y3764226D01*
X3836213Y3763516D01*
X3836268Y3763461D01*
X3836541Y3763243D01*
X3836923Y3762916D01*
X3837469Y3762533D01*
X3838179Y3762151D01*
X3839053Y3761769D01*
X3840090Y3761441D01*
X3841291Y3761223D01*
X3840472Y3756582D01*
X3840418D01*
X3840254Y3756637D01*
X3840035Y3756691D01*
X3839708Y3756746D01*
X3839326Y3756855D01*
X3838889Y3757019D01*
X3837851Y3757346D01*
X3836650Y3757892D01*
X3835449Y3758548D01*
X3834302Y3759367D01*
X3833265Y3760404D01*
X3833210Y3760459D01*
X3833156Y3760568D01*
X3833047Y3760731D01*
X3832883Y3760950D01*
X3832664Y3761223D01*
X3832446Y3761605D01*
X3832228Y3761987D01*
X3831955Y3762479D01*
X3831518Y3763571D01*
X3831081Y3764827D01*
X3830808Y3766301D01*
X3830699Y3767065D01*
Y3768430D01*
X3830753Y3769031D01*
X3830863Y3769740D01*
X3831026Y3770614D01*
X3831299Y3771597D01*
X3831627Y3772580D01*
X3832064Y3773562D01*
Y3773617D01*
X3832118Y3773672D01*
X3832282Y3773999D01*
X3832610Y3774491D01*
X3832992Y3775037D01*
X3833538Y3775692D01*
X3834139Y3776347D01*
X3834848Y3777002D01*
X3835667Y3777548D01*
X3835777Y3777603D01*
X3836050Y3777767D01*
X3836541Y3777985D01*
X3837142Y3778258D01*
X3837851Y3778531D01*
X3838670Y3778749D01*
X3839599Y3778913D01*
X3840527Y3778968D01*
X3840636D01*
X3840964D01*
X3841400Y3778913D01*
X3842001Y3778804D01*
X3842711Y3778640D01*
X3843475Y3778367D01*
X3844240Y3778040D01*
X3845004Y3777603D01*
X3845113Y3777548D01*
X3845332Y3777385D01*
X3845714Y3777057D01*
X3846151Y3776620D01*
X3846642Y3776074D01*
X3847188Y3775419D01*
X3847679Y3774655D01*
X3848171Y3773726D01*
Y3773781D01*
X3848225Y3773890D01*
X3848280Y3774054D01*
X3848335Y3774272D01*
X3848553Y3774873D01*
X3848881Y3775637D01*
X3849317Y3776511D01*
X3849863Y3777385D01*
X3850573Y3778204D01*
X3851392Y3778968D01*
X3851501Y3779023D01*
X3851829Y3779241D01*
X3852375Y3779568D01*
X3853085Y3779896D01*
X3853958Y3780224D01*
X3854996Y3780551D01*
X3856197Y3780770D01*
X3857507Y3780824D01*
X3857562D01*
X3857726D01*
X3857999D01*
X3858326Y3780770D01*
D02*
G37*
G36*
X3868646Y3746863D02*
X3860783Y3741894D01*
X3860729D01*
X3860620Y3741785D01*
X3860456Y3741676D01*
X3860237Y3741512D01*
X3859637Y3741130D01*
X3858872Y3740639D01*
X3858053Y3740038D01*
X3857180Y3739438D01*
X3856361Y3738837D01*
X3855596Y3738291D01*
X3855542Y3738236D01*
X3855323Y3738073D01*
X3854996Y3737800D01*
X3854614Y3737417D01*
X3853795Y3736598D01*
X3853412Y3736162D01*
X3853085Y3735725D01*
X3853030Y3735670D01*
X3852976Y3735561D01*
X3852866Y3735343D01*
X3852703Y3735015D01*
X3852539Y3734687D01*
X3852375Y3734305D01*
X3852102Y3733432D01*
Y3733377D01*
X3852047Y3733268D01*
Y3733049D01*
X3851993Y3732776D01*
X3851938Y3732394D01*
Y3731957D01*
X3851884Y3731357D01*
Y3724914D01*
X3868646D01*
Y3719891D01*
X3830863D01*
Y3737417D01*
X3830917Y3737854D01*
Y3738345D01*
X3830972Y3739492D01*
X3831136Y3740693D01*
X3831299Y3742004D01*
X3831572Y3743205D01*
X3831736Y3743805D01*
X3831900Y3744297D01*
Y3744352D01*
X3831955Y3744406D01*
X3832118Y3744734D01*
X3832337Y3745225D01*
X3832719Y3745826D01*
X3833210Y3746481D01*
X3833866Y3747191D01*
X3834630Y3747846D01*
X3835504Y3748501D01*
X3835558D01*
X3835613Y3748556D01*
X3835940Y3748774D01*
X3836486Y3748992D01*
X3837196Y3749320D01*
X3838015Y3749593D01*
X3838998Y3749866D01*
X3840035Y3750030D01*
X3841182Y3750084D01*
X3841237D01*
X3841346D01*
X3841564D01*
X3841837Y3750030D01*
X3842219D01*
X3842602Y3749975D01*
X3843530Y3749757D01*
X3844622Y3749429D01*
X3845768Y3748992D01*
X3846915Y3748337D01*
X3847461Y3747901D01*
X3848007Y3747464D01*
X3848062Y3747409D01*
X3848116Y3747354D01*
X3848280Y3747191D01*
X3848444Y3746972D01*
X3848662Y3746699D01*
X3848881Y3746372D01*
X3849154Y3745935D01*
X3849481Y3745498D01*
X3849754Y3744952D01*
X3850027Y3744352D01*
X3850355Y3743696D01*
X3850628Y3742986D01*
X3850846Y3742168D01*
X3851119Y3741349D01*
X3851283Y3740420D01*
X3851447Y3739438D01*
X3851501Y3739547D01*
X3851611Y3739765D01*
X3851829Y3740093D01*
X3852047Y3740530D01*
X3852648Y3741512D01*
X3853030Y3742004D01*
X3853358Y3742441D01*
X3853467Y3742550D01*
X3853740Y3742823D01*
X3854177Y3743260D01*
X3854723Y3743805D01*
X3855487Y3744406D01*
X3856306Y3745116D01*
X3857289Y3745826D01*
X3858381Y3746590D01*
X3868646Y3753088D01*
Y3746863D01*
D02*
G37*
G36*
X3856743Y3713557D02*
X3857180Y3713503D01*
X3857671Y3713448D01*
X3858272Y3713339D01*
X3858872Y3713229D01*
X3860292Y3712902D01*
X3861766Y3712356D01*
X3862531Y3712028D01*
X3863240Y3711591D01*
X3864005Y3711155D01*
X3864715Y3710609D01*
X3864769Y3710554D01*
X3864933Y3710445D01*
X3865151Y3710227D01*
X3865424Y3709954D01*
X3865752Y3709571D01*
X3866189Y3709135D01*
X3866571Y3708588D01*
X3867008Y3707988D01*
X3867445Y3707333D01*
X3867827Y3706568D01*
X3868209Y3705749D01*
X3868591Y3704876D01*
X3868864Y3703948D01*
X3869083Y3702910D01*
X3869246Y3701818D01*
X3869301Y3700671D01*
Y3700180D01*
X3869246Y3699798D01*
X3869192Y3699361D01*
X3869137Y3698870D01*
X3869083Y3698269D01*
X3868919Y3697669D01*
X3868591Y3696303D01*
X3868100Y3694939D01*
X3867772Y3694229D01*
X3867390Y3693519D01*
X3866953Y3692864D01*
X3866462Y3692209D01*
X3866407Y3692154D01*
X3866353Y3692045D01*
X3866134Y3691936D01*
X3865916Y3691717D01*
X3865643Y3691444D01*
X3865315Y3691171D01*
X3864878Y3690843D01*
X3864387Y3690570D01*
X3863896Y3690243D01*
X3863295Y3689915D01*
X3861985Y3689315D01*
X3860456Y3688823D01*
X3859637Y3688660D01*
X3858763Y3688550D01*
X3858381Y3693410D01*
X3858436D01*
X3858545D01*
X3858709Y3693464D01*
X3858982Y3693519D01*
X3859582Y3693683D01*
X3860401Y3693901D01*
X3861220Y3694229D01*
X3862148Y3694666D01*
X3862967Y3695211D01*
X3863732Y3695867D01*
X3863786Y3695976D01*
X3864005Y3696194D01*
X3864278Y3696631D01*
X3864605Y3697232D01*
X3864933Y3697887D01*
X3865206Y3698706D01*
X3865424Y3699634D01*
X3865479Y3700671D01*
Y3700999D01*
X3865424Y3701218D01*
X3865370Y3701873D01*
X3865151Y3702637D01*
X3864878Y3703565D01*
X3864442Y3704494D01*
X3863786Y3705476D01*
X3863404Y3705913D01*
X3862967Y3706350D01*
X3862913Y3706405D01*
X3862858Y3706459D01*
X3862694Y3706568D01*
X3862531Y3706732D01*
X3861930Y3707114D01*
X3861166Y3707551D01*
X3860237Y3707933D01*
X3859091Y3708316D01*
X3857726Y3708588D01*
X3857016Y3708698D01*
X3856252D01*
X3856197D01*
X3856088D01*
X3855869D01*
X3855596Y3708643D01*
X3855269D01*
X3854887Y3708588D01*
X3854013Y3708425D01*
X3852976Y3708152D01*
X3851938Y3707769D01*
X3850955Y3707224D01*
X3850027Y3706459D01*
X3849973D01*
X3849918Y3706350D01*
X3849645Y3706077D01*
X3849263Y3705586D01*
X3848826Y3704930D01*
X3848444Y3704057D01*
X3848062Y3703074D01*
X3847789Y3701927D01*
X3847679Y3701272D01*
Y3700235D01*
X3847734Y3699798D01*
X3847789Y3699252D01*
X3847952Y3698597D01*
X3848116Y3697941D01*
X3848389Y3697232D01*
X3848717Y3696522D01*
X3848771Y3696467D01*
X3848881Y3696249D01*
X3849154Y3695921D01*
X3849427Y3695485D01*
X3849809Y3695048D01*
X3850300Y3694611D01*
X3850792Y3694119D01*
X3851392Y3693737D01*
X3850792Y3689369D01*
X3831354Y3693028D01*
Y3711810D01*
X3835777D01*
Y3696686D01*
X3845987Y3694666D01*
X3845932Y3694720D01*
X3845878Y3694829D01*
X3845768Y3694993D01*
X3845605Y3695266D01*
X3845441Y3695594D01*
X3845222Y3695976D01*
X3844786Y3696849D01*
X3844349Y3697941D01*
X3843967Y3699143D01*
X3843694Y3700453D01*
X3843584Y3701108D01*
Y3702309D01*
X3843639Y3702637D01*
X3843694Y3703074D01*
X3843748Y3703565D01*
X3843857Y3704111D01*
X3844021Y3704712D01*
X3844403Y3706022D01*
X3844676Y3706732D01*
X3845059Y3707442D01*
X3845441Y3708152D01*
X3845878Y3708861D01*
X3846424Y3709517D01*
X3847024Y3710172D01*
X3847079Y3710227D01*
X3847188Y3710336D01*
X3847352Y3710499D01*
X3847625Y3710718D01*
X3848007Y3710991D01*
X3848389Y3711264D01*
X3848881Y3711591D01*
X3849427Y3711919D01*
X3850027Y3712192D01*
X3850682Y3712520D01*
X3851447Y3712793D01*
X3852211Y3713066D01*
X3853030Y3713284D01*
X3853958Y3713448D01*
X3854887Y3713557D01*
X3855869Y3713612D01*
X3855924D01*
X3856088D01*
X3856361D01*
X3856743Y3713557D01*
D02*
G37*
G36*
X3850792Y3683964D02*
X3851501D01*
X3852320Y3683909D01*
X3853139Y3683800D01*
X3854996Y3683636D01*
X3856961Y3683363D01*
X3858818Y3682981D01*
X3859746Y3682708D01*
X3860565Y3682435D01*
X3860620D01*
X3860729Y3682381D01*
X3860947Y3682271D01*
X3861275Y3682162D01*
X3861602Y3681998D01*
X3862039Y3681780D01*
X3862967Y3681234D01*
X3864005Y3680579D01*
X3865097Y3679814D01*
X3866134Y3678831D01*
X3867062Y3677740D01*
Y3677685D01*
X3867172Y3677576D01*
X3867281Y3677412D01*
X3867390Y3677193D01*
X3867554Y3676866D01*
X3867772Y3676538D01*
X3867991Y3676102D01*
X3868154Y3675665D01*
X3868591Y3674627D01*
X3868973Y3673372D01*
X3869192Y3672006D01*
X3869301Y3670478D01*
Y3670041D01*
X3869246Y3669768D01*
Y3669386D01*
X3869192Y3668949D01*
X3868973Y3667912D01*
X3868700Y3666765D01*
X3868264Y3665564D01*
X3867663Y3664363D01*
X3867281Y3663762D01*
X3866844Y3663216D01*
X3866789Y3663161D01*
X3866735Y3663107D01*
X3866571Y3662943D01*
X3866407Y3662779D01*
X3866134Y3662561D01*
X3865807Y3662288D01*
X3865042Y3661742D01*
X3864059Y3661196D01*
X3862858Y3660650D01*
X3861493Y3660213D01*
X3859910Y3659885D01*
X3859528Y3664363D01*
X3859582D01*
X3859691Y3664417D01*
X3859801D01*
X3860019Y3664472D01*
X3860620Y3664635D01*
X3861275Y3664854D01*
X3862039Y3665127D01*
X3862804Y3665509D01*
X3863513Y3665946D01*
X3864114Y3666492D01*
X3864169Y3666546D01*
X3864332Y3666765D01*
X3864551Y3667147D01*
X3864769Y3667584D01*
X3865042Y3668184D01*
X3865261Y3668894D01*
X3865424Y3669713D01*
X3865479Y3670587D01*
Y3670969D01*
X3865424Y3671351D01*
X3865370Y3671843D01*
X3865261Y3672443D01*
X3865097Y3673044D01*
X3864878Y3673699D01*
X3864551Y3674300D01*
X3864496Y3674354D01*
X3864387Y3674573D01*
X3864169Y3674900D01*
X3863841Y3675228D01*
X3863459Y3675665D01*
X3863022Y3676102D01*
X3862531Y3676538D01*
X3861930Y3676975D01*
X3861875Y3677030D01*
X3861602Y3677139D01*
X3861220Y3677357D01*
X3860729Y3677576D01*
X3860074Y3677849D01*
X3859309Y3678122D01*
X3858436Y3678395D01*
X3857453Y3678668D01*
X3857398D01*
X3857344Y3678722D01*
X3857180D01*
X3856961Y3678777D01*
X3856415Y3678886D01*
X3855706Y3679050D01*
X3854832Y3679159D01*
X3853904Y3679268D01*
X3852866Y3679323D01*
X3851774Y3679378D01*
X3851720D01*
X3851556D01*
X3851283D01*
X3850846D01*
X3850955Y3679323D01*
X3851228Y3679104D01*
X3851611Y3678777D01*
X3852157Y3678395D01*
X3852703Y3677849D01*
X3853303Y3677193D01*
X3853904Y3676429D01*
X3854450Y3675555D01*
X3854504Y3675446D01*
X3854668Y3675119D01*
X3854887Y3674627D01*
X3855105Y3674027D01*
X3855378Y3673208D01*
X3855596Y3672334D01*
X3855760Y3671351D01*
X3855815Y3670314D01*
Y3669877D01*
X3855760Y3669550D01*
X3855706Y3669113D01*
X3855651Y3668676D01*
X3855542Y3668130D01*
X3855378Y3667584D01*
X3854996Y3666328D01*
X3854723Y3665673D01*
X3854395Y3665018D01*
X3854013Y3664308D01*
X3853522Y3663653D01*
X3853030Y3662997D01*
X3852430Y3662397D01*
X3852375Y3662342D01*
X3852266Y3662233D01*
X3852102Y3662124D01*
X3851829Y3661905D01*
X3851447Y3661633D01*
X3851065Y3661360D01*
X3850573Y3661086D01*
X3850027Y3660814D01*
X3849427Y3660486D01*
X3848771Y3660213D01*
X3848007Y3659940D01*
X3847243Y3659667D01*
X3846369Y3659448D01*
X3845441Y3659339D01*
X3844513Y3659230D01*
X3843475Y3659175D01*
X3843421D01*
X3843202D01*
X3842929D01*
X3842547Y3659230D01*
X3842056Y3659285D01*
X3841455Y3659339D01*
X3840854Y3659448D01*
X3840145Y3659612D01*
X3838725Y3659994D01*
X3837961Y3660267D01*
X3837142Y3660595D01*
X3836377Y3660977D01*
X3835667Y3661469D01*
X3834903Y3661960D01*
X3834248Y3662561D01*
X3834193Y3662615D01*
X3834084Y3662724D01*
X3833920Y3662888D01*
X3833702Y3663161D01*
X3833429Y3663489D01*
X3833101Y3663926D01*
X3832828Y3664363D01*
X3832446Y3664909D01*
X3832118Y3665454D01*
X3831845Y3666110D01*
X3831245Y3667584D01*
X3831026Y3668348D01*
X3830863Y3669222D01*
X3830753Y3670095D01*
X3830699Y3671024D01*
Y3671406D01*
X3830753Y3671679D01*
Y3671952D01*
X3830808Y3672334D01*
X3830972Y3673262D01*
X3831190Y3674300D01*
X3831572Y3675446D01*
X3832064Y3676593D01*
X3832719Y3677740D01*
Y3677794D01*
X3832828Y3677849D01*
X3832937Y3678012D01*
X3833101Y3678231D01*
X3833538Y3678777D01*
X3834139Y3679487D01*
X3834958Y3680197D01*
X3835940Y3681015D01*
X3837087Y3681725D01*
X3838397Y3682381D01*
X3838452D01*
X3838561Y3682435D01*
X3838780Y3682544D01*
X3839053Y3682653D01*
X3839435Y3682763D01*
X3839926Y3682927D01*
X3840472Y3683036D01*
X3841073Y3683200D01*
X3841783Y3683363D01*
X3842602Y3683527D01*
X3843475Y3683636D01*
X3844403Y3683745D01*
X3845441Y3683855D01*
X3846533Y3683964D01*
X3847734Y3684019D01*
X3848990D01*
X3849044D01*
X3849317D01*
X3849700D01*
X3850191D01*
X3850792Y3683964D01*
D02*
G37*
G36*
X4134839Y4589564D02*
X4135560Y4589453D01*
X4136449Y4589286D01*
X4137448Y4589009D01*
X4138447Y4588676D01*
X4139445Y4588232D01*
X4139501D01*
X4139556Y4588176D01*
X4139890Y4588010D01*
X4140389Y4587677D01*
X4140944Y4587288D01*
X4141610Y4586733D01*
X4142276Y4586123D01*
X4142942Y4585401D01*
X4143497Y4584569D01*
X4143552Y4584458D01*
X4143719Y4584180D01*
X4143941Y4583681D01*
X4144218Y4583070D01*
X4144496Y4582349D01*
X4144718Y4581516D01*
X4144885Y4580573D01*
X4144940Y4579629D01*
Y4579518D01*
Y4579185D01*
X4144885Y4578741D01*
X4144774Y4578131D01*
X4144607Y4577409D01*
X4144329Y4576632D01*
X4143997Y4575855D01*
X4143552Y4575078D01*
X4143497Y4574967D01*
X4143331Y4574745D01*
X4142998Y4574357D01*
X4142553Y4573913D01*
X4141998Y4573413D01*
X4141333Y4572858D01*
X4140556Y4572359D01*
X4139612Y4571859D01*
X4139667D01*
X4139779Y4571804D01*
X4139945Y4571748D01*
X4140167Y4571693D01*
X4140778Y4571471D01*
X4141555Y4571138D01*
X4142443Y4570694D01*
X4143331Y4570139D01*
X4144163Y4569417D01*
X4144940Y4568585D01*
X4144995Y4568474D01*
X4145217Y4568141D01*
X4145551Y4567586D01*
X4145883Y4566864D01*
X4146217Y4565976D01*
X4146550Y4564922D01*
X4146771Y4563701D01*
X4146827Y4562369D01*
Y4562313D01*
Y4562147D01*
Y4561869D01*
X4146771Y4561536D01*
X4146716Y4561092D01*
X4146605Y4560593D01*
X4146494Y4560038D01*
X4146383Y4559427D01*
X4145939Y4558095D01*
X4145606Y4557374D01*
X4145273Y4556708D01*
X4144829Y4555986D01*
X4144329Y4555265D01*
X4143775Y4554543D01*
X4143109Y4553877D01*
X4143053Y4553822D01*
X4142942Y4553711D01*
X4142720Y4553544D01*
X4142443Y4553322D01*
X4142109Y4553045D01*
X4141666Y4552767D01*
X4141166Y4552434D01*
X4140556Y4552157D01*
X4139945Y4551824D01*
X4139224Y4551491D01*
X4138502Y4551213D01*
X4137669Y4550936D01*
X4136782Y4550714D01*
X4135838Y4550547D01*
X4134895Y4550436D01*
X4133840Y4550381D01*
X4133341D01*
X4133007Y4550436D01*
X4132564Y4550492D01*
X4132064Y4550547D01*
X4131509Y4550658D01*
X4130899Y4550769D01*
X4129566Y4551102D01*
X4128179Y4551657D01*
X4127458Y4551990D01*
X4126792Y4552379D01*
X4126126Y4552878D01*
X4125459Y4553378D01*
X4125404Y4553433D01*
X4125293Y4553544D01*
X4125127Y4553711D01*
X4124960Y4553933D01*
X4124682Y4554210D01*
X4124405Y4554599D01*
X4124072Y4554987D01*
X4123739Y4555487D01*
X4123406Y4556042D01*
X4123073Y4556597D01*
X4122462Y4557929D01*
X4121963Y4559483D01*
X4121797Y4560315D01*
X4121685Y4561203D01*
X4126403Y4561814D01*
Y4561758D01*
X4126458Y4561647D01*
X4126514Y4561425D01*
X4126569Y4561148D01*
X4126625Y4560815D01*
X4126736Y4560426D01*
X4127014Y4559594D01*
X4127402Y4558595D01*
X4127901Y4557651D01*
X4128457Y4556763D01*
X4129123Y4555986D01*
X4129234Y4555931D01*
X4129456Y4555709D01*
X4129900Y4555431D01*
X4130454Y4555154D01*
X4131120Y4554821D01*
X4131953Y4554543D01*
X4132896Y4554321D01*
X4133895Y4554266D01*
X4134229D01*
X4134450Y4554321D01*
X4135061Y4554377D01*
X4135838Y4554543D01*
X4136726Y4554821D01*
X4137669Y4555209D01*
X4138613Y4555764D01*
X4139501Y4556541D01*
X4139612Y4556652D01*
X4139890Y4556985D01*
X4140222Y4557485D01*
X4140667Y4558151D01*
X4141110Y4558983D01*
X4141444Y4559927D01*
X4141721Y4561037D01*
X4141832Y4562258D01*
Y4562313D01*
Y4562424D01*
Y4562591D01*
X4141776Y4562813D01*
X4141721Y4563423D01*
X4141555Y4564145D01*
X4141333Y4565033D01*
X4140944Y4565921D01*
X4140389Y4566809D01*
X4139667Y4567641D01*
X4139556Y4567752D01*
X4139279Y4567974D01*
X4138835Y4568307D01*
X4138225Y4568696D01*
X4137448Y4569084D01*
X4136504Y4569417D01*
X4135449Y4569639D01*
X4134284Y4569750D01*
X4133784D01*
X4133396Y4569695D01*
X4132896Y4569639D01*
X4132342Y4569528D01*
X4131676Y4569417D01*
X4130954Y4569251D01*
X4131509Y4573413D01*
X4131787D01*
X4132008Y4573358D01*
X4132730D01*
X4133341Y4573469D01*
X4134062Y4573580D01*
X4134895Y4573746D01*
X4135838Y4574024D01*
X4136726Y4574412D01*
X4137669Y4574912D01*
X4137725D01*
X4137780Y4574967D01*
X4138058Y4575189D01*
X4138447Y4575578D01*
X4138891Y4576077D01*
X4139334Y4576799D01*
X4139723Y4577631D01*
X4140001Y4578575D01*
X4140111Y4579130D01*
Y4579740D01*
Y4579796D01*
Y4579851D01*
Y4580184D01*
X4140001Y4580628D01*
X4139890Y4581239D01*
X4139667Y4581905D01*
X4139390Y4582626D01*
X4138946Y4583348D01*
X4138336Y4584014D01*
X4138280Y4584069D01*
X4138002Y4584291D01*
X4137614Y4584569D01*
X4137114Y4584902D01*
X4136449Y4585179D01*
X4135672Y4585457D01*
X4134783Y4585679D01*
X4133784Y4585734D01*
X4133341D01*
X4132841Y4585623D01*
X4132175Y4585512D01*
X4131453Y4585290D01*
X4130732Y4585013D01*
X4129955Y4584569D01*
X4129234Y4584014D01*
X4129178Y4583958D01*
X4128956Y4583681D01*
X4128623Y4583292D01*
X4128234Y4582737D01*
X4127846Y4582016D01*
X4127458Y4581128D01*
X4127124Y4580073D01*
X4126903Y4578852D01*
X4122185Y4579685D01*
Y4579740D01*
X4122240Y4579907D01*
X4122296Y4580129D01*
X4122351Y4580462D01*
X4122462Y4580850D01*
X4122629Y4581294D01*
X4122962Y4582349D01*
X4123517Y4583570D01*
X4124183Y4584791D01*
X4125016Y4585956D01*
X4126070Y4587011D01*
X4126126Y4587066D01*
X4126236Y4587122D01*
X4126403Y4587233D01*
X4126625Y4587399D01*
X4126903Y4587621D01*
X4127291Y4587843D01*
X4127680Y4588065D01*
X4128179Y4588343D01*
X4129289Y4588787D01*
X4130565Y4589231D01*
X4132064Y4589508D01*
X4132841Y4589619D01*
X4134229D01*
X4134839Y4589564D01*
D02*
G37*
G36*
X4076675Y4584458D02*
X4061302D01*
X4059248Y4574079D01*
X4059303Y4574135D01*
X4059414Y4574190D01*
X4059581Y4574301D01*
X4059858Y4574468D01*
X4060191Y4574634D01*
X4060580Y4574856D01*
X4061468Y4575300D01*
X4062578Y4575744D01*
X4063799Y4576133D01*
X4065131Y4576410D01*
X4065797Y4576521D01*
X4067018D01*
X4067351Y4576466D01*
X4067795Y4576410D01*
X4068294Y4576355D01*
X4068849Y4576244D01*
X4069460Y4576077D01*
X4070792Y4575689D01*
X4071514Y4575411D01*
X4072235Y4575023D01*
X4072956Y4574634D01*
X4073678Y4574190D01*
X4074344Y4573635D01*
X4075010Y4573025D01*
X4075066Y4572969D01*
X4075177Y4572858D01*
X4075343Y4572692D01*
X4075565Y4572414D01*
X4075843Y4572026D01*
X4076120Y4571637D01*
X4076453Y4571138D01*
X4076786Y4570583D01*
X4077064Y4569972D01*
X4077396Y4569306D01*
X4077674Y4568529D01*
X4077952Y4567752D01*
X4078173Y4566920D01*
X4078340Y4565976D01*
X4078451Y4565033D01*
X4078506Y4564034D01*
Y4563978D01*
Y4563812D01*
Y4563534D01*
X4078451Y4563146D01*
X4078396Y4562702D01*
X4078340Y4562202D01*
X4078229Y4561592D01*
X4078118Y4560981D01*
X4077785Y4559538D01*
X4077230Y4558040D01*
X4076897Y4557263D01*
X4076453Y4556541D01*
X4076009Y4555764D01*
X4075454Y4555043D01*
X4075398Y4554987D01*
X4075287Y4554821D01*
X4075066Y4554599D01*
X4074788Y4554321D01*
X4074399Y4553988D01*
X4073956Y4553544D01*
X4073401Y4553156D01*
X4072790Y4552712D01*
X4072124Y4552268D01*
X4071347Y4551879D01*
X4070515Y4551491D01*
X4069626Y4551102D01*
X4068683Y4550825D01*
X4067628Y4550603D01*
X4066519Y4550436D01*
X4065353Y4550381D01*
X4064854D01*
X4064465Y4550436D01*
X4064021Y4550492D01*
X4063521Y4550547D01*
X4062911Y4550603D01*
X4062300Y4550769D01*
X4060913Y4551102D01*
X4059526Y4551602D01*
X4058804Y4551935D01*
X4058082Y4552323D01*
X4057416Y4552767D01*
X4056751Y4553267D01*
X4056695Y4553322D01*
X4056584Y4553378D01*
X4056473Y4553600D01*
X4056251Y4553822D01*
X4055974Y4554099D01*
X4055696Y4554432D01*
X4055363Y4554876D01*
X4055086Y4555376D01*
X4054753Y4555875D01*
X4054419Y4556486D01*
X4053809Y4557818D01*
X4053309Y4559372D01*
X4053143Y4560204D01*
X4053032Y4561092D01*
X4057972Y4561481D01*
Y4561425D01*
Y4561314D01*
X4058027Y4561148D01*
X4058082Y4560870D01*
X4058249Y4560260D01*
X4058471Y4559427D01*
X4058804Y4558595D01*
X4059248Y4557651D01*
X4059803Y4556819D01*
X4060469Y4556042D01*
X4060580Y4555986D01*
X4060802Y4555764D01*
X4061246Y4555487D01*
X4061856Y4555154D01*
X4062523Y4554821D01*
X4063355Y4554543D01*
X4064298Y4554321D01*
X4065353Y4554266D01*
X4065686D01*
X4065908Y4554321D01*
X4066574Y4554377D01*
X4067351Y4554599D01*
X4068294Y4554876D01*
X4069238Y4555320D01*
X4070237Y4555986D01*
X4070681Y4556375D01*
X4071125Y4556819D01*
X4071180Y4556874D01*
X4071236Y4556930D01*
X4071347Y4557096D01*
X4071514Y4557263D01*
X4071902Y4557873D01*
X4072346Y4558650D01*
X4072735Y4559594D01*
X4073123Y4560759D01*
X4073401Y4562147D01*
X4073512Y4562868D01*
Y4563645D01*
Y4563701D01*
Y4563812D01*
Y4564034D01*
X4073456Y4564311D01*
Y4564644D01*
X4073401Y4565033D01*
X4073234Y4565921D01*
X4072956Y4566975D01*
X4072568Y4568030D01*
X4072013Y4569029D01*
X4071236Y4569972D01*
Y4570028D01*
X4071125Y4570083D01*
X4070847Y4570361D01*
X4070348Y4570749D01*
X4069682Y4571193D01*
X4068794Y4571582D01*
X4067795Y4571970D01*
X4066630Y4572248D01*
X4065963Y4572359D01*
X4064909D01*
X4064465Y4572303D01*
X4063910Y4572248D01*
X4063244Y4572081D01*
X4062578Y4571915D01*
X4061856Y4571637D01*
X4061135Y4571304D01*
X4061079Y4571249D01*
X4060858Y4571138D01*
X4060524Y4570860D01*
X4060081Y4570583D01*
X4059637Y4570194D01*
X4059193Y4569695D01*
X4058693Y4569195D01*
X4058305Y4568585D01*
X4053865Y4569195D01*
X4057583Y4588953D01*
X4076675D01*
Y4584458D01*
D02*
G37*
G36*
X4035883Y4589564D02*
X4036160D01*
X4036548Y4589508D01*
X4037492Y4589342D01*
X4038546Y4589120D01*
X4039712Y4588731D01*
X4040878Y4588232D01*
X4042043Y4587566D01*
X4042099D01*
X4042154Y4587455D01*
X4042320Y4587344D01*
X4042543Y4587177D01*
X4043097Y4586733D01*
X4043819Y4586123D01*
X4044541Y4585290D01*
X4045373Y4584291D01*
X4046095Y4583126D01*
X4046760Y4581794D01*
Y4581738D01*
X4046816Y4581627D01*
X4046927Y4581405D01*
X4047038Y4581128D01*
X4047149Y4580739D01*
X4047316Y4580240D01*
X4047427Y4579685D01*
X4047593Y4579074D01*
X4047760Y4578353D01*
X4047926Y4577520D01*
X4048037Y4576632D01*
X4048148Y4575689D01*
X4048259Y4574634D01*
X4048370Y4573524D01*
X4048425Y4572303D01*
Y4571027D01*
Y4570971D01*
Y4570694D01*
Y4570305D01*
Y4569806D01*
X4048370Y4569195D01*
Y4568474D01*
X4048314Y4567641D01*
X4048204Y4566809D01*
X4048037Y4564922D01*
X4047760Y4562924D01*
X4047371Y4561037D01*
X4047093Y4560093D01*
X4046816Y4559261D01*
Y4559205D01*
X4046760Y4559094D01*
X4046649Y4558872D01*
X4046539Y4558539D01*
X4046372Y4558206D01*
X4046150Y4557762D01*
X4045595Y4556819D01*
X4044929Y4555764D01*
X4044152Y4554654D01*
X4043153Y4553600D01*
X4042043Y4552656D01*
X4041988D01*
X4041876Y4552545D01*
X4041710Y4552434D01*
X4041488Y4552323D01*
X4041155Y4552157D01*
X4040822Y4551935D01*
X4040378Y4551713D01*
X4039934Y4551546D01*
X4038880Y4551102D01*
X4037603Y4550714D01*
X4036215Y4550492D01*
X4034662Y4550381D01*
X4034218D01*
X4033940Y4550436D01*
X4033552D01*
X4033108Y4550492D01*
X4032053Y4550714D01*
X4030887Y4550991D01*
X4029666Y4551435D01*
X4028445Y4552046D01*
X4027835Y4552434D01*
X4027280Y4552878D01*
X4027224Y4552934D01*
X4027169Y4552989D01*
X4027003Y4553156D01*
X4026836Y4553322D01*
X4026614Y4553600D01*
X4026336Y4553933D01*
X4025782Y4554710D01*
X4025227Y4555709D01*
X4024671Y4556930D01*
X4024227Y4558317D01*
X4023894Y4559927D01*
X4028445Y4560315D01*
Y4560260D01*
X4028501Y4560149D01*
Y4560038D01*
X4028557Y4559816D01*
X4028723Y4559205D01*
X4028945Y4558539D01*
X4029222Y4557762D01*
X4029611Y4556985D01*
X4030055Y4556264D01*
X4030610Y4555653D01*
X4030666Y4555598D01*
X4030887Y4555431D01*
X4031276Y4555209D01*
X4031720Y4554987D01*
X4032331Y4554710D01*
X4033052Y4554488D01*
X4033885Y4554321D01*
X4034773Y4554266D01*
X4035161D01*
X4035550Y4554321D01*
X4036049Y4554377D01*
X4036660Y4554488D01*
X4037270Y4554654D01*
X4037936Y4554876D01*
X4038546Y4555209D01*
X4038602Y4555265D01*
X4038824Y4555376D01*
X4039157Y4555598D01*
X4039490Y4555931D01*
X4039934Y4556319D01*
X4040378Y4556763D01*
X4040822Y4557263D01*
X4041266Y4557873D01*
X4041322Y4557929D01*
X4041432Y4558206D01*
X4041655Y4558595D01*
X4041876Y4559094D01*
X4042154Y4559760D01*
X4042432Y4560537D01*
X4042709Y4561425D01*
X4042986Y4562424D01*
Y4562480D01*
X4043042Y4562535D01*
Y4562702D01*
X4043097Y4562924D01*
X4043209Y4563479D01*
X4043375Y4564200D01*
X4043486Y4565088D01*
X4043597Y4566032D01*
X4043653Y4567086D01*
X4043708Y4568196D01*
Y4568252D01*
Y4568418D01*
Y4568696D01*
Y4569140D01*
X4043653Y4569029D01*
X4043430Y4568751D01*
X4043097Y4568363D01*
X4042709Y4567808D01*
X4042154Y4567253D01*
X4041488Y4566642D01*
X4040711Y4566032D01*
X4039823Y4565477D01*
X4039712Y4565421D01*
X4039379Y4565255D01*
X4038880Y4565033D01*
X4038269Y4564811D01*
X4037436Y4564533D01*
X4036548Y4564311D01*
X4035550Y4564145D01*
X4034495Y4564089D01*
X4034051D01*
X4033718Y4564145D01*
X4033274Y4564200D01*
X4032830Y4564256D01*
X4032275Y4564367D01*
X4031720Y4564533D01*
X4030443Y4564922D01*
X4029778Y4565199D01*
X4029111Y4565532D01*
X4028390Y4565921D01*
X4027724Y4566420D01*
X4027058Y4566920D01*
X4026448Y4567530D01*
X4026392Y4567586D01*
X4026281Y4567697D01*
X4026170Y4567863D01*
X4025948Y4568141D01*
X4025671Y4568529D01*
X4025393Y4568918D01*
X4025115Y4569417D01*
X4024838Y4569972D01*
X4024505Y4570583D01*
X4024227Y4571249D01*
X4023950Y4572026D01*
X4023673Y4572803D01*
X4023450Y4573691D01*
X4023340Y4574634D01*
X4023229Y4575578D01*
X4023173Y4576632D01*
Y4576688D01*
Y4576910D01*
Y4577187D01*
X4023229Y4577576D01*
X4023284Y4578075D01*
X4023340Y4578686D01*
X4023450Y4579296D01*
X4023617Y4580018D01*
X4024006Y4581461D01*
X4024283Y4582238D01*
X4024616Y4583070D01*
X4025005Y4583847D01*
X4025504Y4584569D01*
X4026003Y4585346D01*
X4026614Y4586012D01*
X4026669Y4586067D01*
X4026780Y4586178D01*
X4026947Y4586345D01*
X4027224Y4586567D01*
X4027557Y4586844D01*
X4028001Y4587177D01*
X4028445Y4587455D01*
X4029001Y4587843D01*
X4029555Y4588176D01*
X4030222Y4588454D01*
X4031720Y4589064D01*
X4032497Y4589286D01*
X4033385Y4589453D01*
X4034273Y4589564D01*
X4035216Y4589619D01*
X4035605D01*
X4035883Y4589564D01*
D02*
G37*
G36*
X4103149Y4589397D02*
X4103648D01*
X4104814Y4589342D01*
X4106034Y4589175D01*
X4107367Y4589009D01*
X4108587Y4588731D01*
X4109198Y4588565D01*
X4109698Y4588398D01*
X4109753D01*
X4109809Y4588343D01*
X4110141Y4588176D01*
X4110641Y4587954D01*
X4111252Y4587566D01*
X4111917Y4587066D01*
X4112639Y4586400D01*
X4113305Y4585623D01*
X4113971Y4584735D01*
Y4584680D01*
X4114026Y4584624D01*
X4114248Y4584291D01*
X4114471Y4583736D01*
X4114803Y4583015D01*
X4115081Y4582182D01*
X4115359Y4581183D01*
X4115525Y4580129D01*
X4115581Y4578963D01*
Y4578908D01*
Y4578797D01*
Y4578575D01*
X4115525Y4578297D01*
Y4577909D01*
X4115470Y4577520D01*
X4115248Y4576577D01*
X4114914Y4575467D01*
X4114471Y4574301D01*
X4113805Y4573136D01*
X4113360Y4572581D01*
X4112917Y4572026D01*
X4112861Y4571970D01*
X4112806Y4571915D01*
X4112639Y4571748D01*
X4112417Y4571582D01*
X4112140Y4571360D01*
X4111806Y4571138D01*
X4111363Y4570860D01*
X4110918Y4570527D01*
X4110364Y4570250D01*
X4109753Y4569972D01*
X4109087Y4569639D01*
X4108365Y4569362D01*
X4107533Y4569140D01*
X4106700Y4568862D01*
X4105757Y4568696D01*
X4104758Y4568529D01*
X4104869Y4568474D01*
X4105091Y4568363D01*
X4105424Y4568141D01*
X4105868Y4567919D01*
X4106867Y4567308D01*
X4107367Y4566920D01*
X4107810Y4566587D01*
X4107922Y4566476D01*
X4108199Y4566198D01*
X4108643Y4565754D01*
X4109198Y4565199D01*
X4109809Y4564422D01*
X4110530Y4563590D01*
X4111252Y4562591D01*
X4112029Y4561481D01*
X4118633Y4551047D01*
X4112306D01*
X4107256Y4559039D01*
Y4559094D01*
X4107145Y4559205D01*
X4107033Y4559372D01*
X4106867Y4559594D01*
X4106479Y4560204D01*
X4105979Y4560981D01*
X4105368Y4561814D01*
X4104758Y4562702D01*
X4104148Y4563534D01*
X4103592Y4564311D01*
X4103537Y4564367D01*
X4103370Y4564589D01*
X4103093Y4564922D01*
X4102704Y4565310D01*
X4101872Y4566143D01*
X4101428Y4566531D01*
X4100984Y4566864D01*
X4100928Y4566920D01*
X4100818Y4566975D01*
X4100596Y4567086D01*
X4100262Y4567253D01*
X4099930Y4567419D01*
X4099541Y4567586D01*
X4098653Y4567863D01*
X4098597D01*
X4098486Y4567919D01*
X4098265D01*
X4097987Y4567974D01*
X4097599Y4568030D01*
X4097154D01*
X4096544Y4568085D01*
X4089995D01*
Y4551047D01*
X4084889D01*
Y4589453D01*
X4102704D01*
X4103149Y4589397D01*
D02*
G37*
G36*
X4158953Y4328391D02*
X4128928D01*
X4128983Y4328336D01*
X4129205Y4328058D01*
X4129538Y4327725D01*
X4129927Y4327170D01*
X4130426Y4326560D01*
X4130981Y4325783D01*
X4131592Y4324895D01*
X4132202Y4323895D01*
Y4323840D01*
X4132258Y4323784D01*
X4132480Y4323452D01*
X4132757Y4322896D01*
X4133090Y4322230D01*
X4133479Y4321453D01*
X4133867Y4320621D01*
X4134256Y4319788D01*
X4134589Y4318956D01*
X4130038D01*
Y4319011D01*
X4129927Y4319123D01*
X4129871Y4319345D01*
X4129705Y4319622D01*
X4129538Y4319955D01*
X4129316Y4320343D01*
X4128761Y4321287D01*
X4128151Y4322397D01*
X4127374Y4323507D01*
X4126486Y4324672D01*
X4125542Y4325838D01*
X4125487Y4325894D01*
X4125431Y4325949D01*
X4125265Y4326115D01*
X4125098Y4326337D01*
X4124543Y4326837D01*
X4123877Y4327503D01*
X4123100Y4328169D01*
X4122212Y4328891D01*
X4121324Y4329501D01*
X4120381Y4330056D01*
Y4333109D01*
X4158953D01*
Y4328391D01*
D02*
G37*
G36*
Y4298532D02*
X4128928D01*
X4128983Y4298476D01*
X4129205Y4298199D01*
X4129538Y4297866D01*
X4129927Y4297311D01*
X4130426Y4296700D01*
X4130981Y4295923D01*
X4131592Y4295035D01*
X4132202Y4294037D01*
Y4293981D01*
X4132258Y4293926D01*
X4132480Y4293592D01*
X4132757Y4293038D01*
X4133090Y4292372D01*
X4133479Y4291595D01*
X4133867Y4290762D01*
X4134256Y4289930D01*
X4134589Y4289097D01*
X4130038D01*
Y4289153D01*
X4129927Y4289264D01*
X4129871Y4289485D01*
X4129705Y4289763D01*
X4129538Y4290096D01*
X4129316Y4290484D01*
X4128761Y4291428D01*
X4128151Y4292538D01*
X4127374Y4293648D01*
X4126486Y4294814D01*
X4125542Y4295979D01*
X4125487Y4296034D01*
X4125431Y4296090D01*
X4125265Y4296257D01*
X4125098Y4296479D01*
X4124543Y4296978D01*
X4123877Y4297644D01*
X4123100Y4298310D01*
X4122212Y4299032D01*
X4121324Y4299642D01*
X4120381Y4300197D01*
Y4303249D01*
X4158953D01*
Y4298532D01*
D02*
G37*
G36*
Y4276166D02*
X4150961Y4271115D01*
X4150906D01*
X4150795Y4271004D01*
X4150628Y4270893D01*
X4150406Y4270726D01*
X4149796Y4270338D01*
X4149019Y4269838D01*
X4148186Y4269228D01*
X4147298Y4268618D01*
X4146466Y4268007D01*
X4145689Y4267452D01*
X4145633Y4267396D01*
X4145411Y4267230D01*
X4145078Y4266953D01*
X4144690Y4266564D01*
X4143857Y4265731D01*
X4143469Y4265288D01*
X4143136Y4264843D01*
X4143080Y4264788D01*
X4143025Y4264677D01*
X4142914Y4264455D01*
X4142747Y4264122D01*
X4142581Y4263789D01*
X4142414Y4263400D01*
X4142137Y4262512D01*
Y4262457D01*
X4142081Y4262346D01*
Y4262124D01*
X4142026Y4261846D01*
X4141970Y4261458D01*
Y4261014D01*
X4141915Y4260404D01*
Y4253855D01*
X4158953D01*
Y4248748D01*
X4120547D01*
Y4266564D01*
X4120603Y4267008D01*
Y4267507D01*
X4120658Y4268673D01*
X4120825Y4269894D01*
X4120991Y4271226D01*
X4121269Y4272447D01*
X4121435Y4273057D01*
X4121602Y4273557D01*
Y4273613D01*
X4121657Y4273668D01*
X4121824Y4274001D01*
X4122046Y4274501D01*
X4122434Y4275111D01*
X4122934Y4275777D01*
X4123600Y4276498D01*
X4124377Y4277164D01*
X4125265Y4277831D01*
X4125320D01*
X4125376Y4277886D01*
X4125709Y4278108D01*
X4126264Y4278330D01*
X4126985Y4278663D01*
X4127818Y4278940D01*
X4128817Y4279218D01*
X4129871Y4279385D01*
X4131037Y4279440D01*
X4131092D01*
X4131203D01*
X4131425D01*
X4131703Y4279385D01*
X4132091D01*
X4132480Y4279329D01*
X4133423Y4279107D01*
X4134533Y4278774D01*
X4135699Y4278330D01*
X4136864Y4277664D01*
X4137419Y4277220D01*
X4137974Y4276776D01*
X4138030Y4276721D01*
X4138085Y4276665D01*
X4138252Y4276498D01*
X4138418Y4276276D01*
X4138640Y4275999D01*
X4138862Y4275666D01*
X4139140Y4275222D01*
X4139473Y4274778D01*
X4139750Y4274223D01*
X4140028Y4273613D01*
X4140361Y4272947D01*
X4140638Y4272225D01*
X4140860Y4271392D01*
X4141138Y4270560D01*
X4141304Y4269617D01*
X4141471Y4268618D01*
X4141526Y4268729D01*
X4141637Y4268950D01*
X4141859Y4269283D01*
X4142081Y4269727D01*
X4142692Y4270726D01*
X4143080Y4271226D01*
X4143413Y4271670D01*
X4143524Y4271781D01*
X4143802Y4272059D01*
X4144246Y4272502D01*
X4144801Y4273057D01*
X4145578Y4273668D01*
X4146410Y4274390D01*
X4147409Y4275111D01*
X4148519Y4275888D01*
X4158953Y4282493D01*
Y4276166D01*
D02*
G37*
G36*
X4141748Y4241922D02*
X4142414D01*
X4143136Y4241867D01*
X4143913Y4241811D01*
X4145689Y4241645D01*
X4147520Y4241367D01*
X4149296Y4241034D01*
X4150129Y4240812D01*
X4150961Y4240534D01*
X4151017D01*
X4151128Y4240479D01*
X4151350Y4240368D01*
X4151627Y4240257D01*
X4152016Y4240146D01*
X4152404Y4239924D01*
X4153348Y4239480D01*
X4154347Y4238925D01*
X4155457Y4238203D01*
X4156456Y4237371D01*
X4157399Y4236372D01*
Y4236316D01*
X4157510Y4236261D01*
X4157621Y4236095D01*
X4157732Y4235873D01*
X4157899Y4235595D01*
X4158121Y4235318D01*
X4158509Y4234485D01*
X4158898Y4233486D01*
X4159286Y4232320D01*
X4159508Y4230933D01*
X4159619Y4229435D01*
Y4228880D01*
X4159564Y4228491D01*
X4159508Y4228047D01*
X4159397Y4227492D01*
X4159286Y4226882D01*
X4159120Y4226216D01*
X4158898Y4225550D01*
X4158676Y4224828D01*
X4158343Y4224106D01*
X4157954Y4223385D01*
X4157510Y4222663D01*
X4156955Y4221942D01*
X4156345Y4221276D01*
X4155679Y4220666D01*
X4155623Y4220610D01*
X4155457Y4220499D01*
X4155179Y4220333D01*
X4154735Y4220055D01*
X4154236Y4219778D01*
X4153570Y4219500D01*
X4152793Y4219111D01*
X4151905Y4218779D01*
X4150906Y4218445D01*
X4149740Y4218113D01*
X4148464Y4217779D01*
X4147021Y4217502D01*
X4145467Y4217225D01*
X4143802Y4217058D01*
X4141970Y4216947D01*
X4140028Y4216891D01*
X4139972D01*
X4139750D01*
X4139362D01*
X4138918D01*
X4138307Y4216947D01*
X4137641D01*
X4136920Y4217002D01*
X4136087Y4217058D01*
X4134367Y4217225D01*
X4132535Y4217502D01*
X4130704Y4217835D01*
X4129871Y4218057D01*
X4129039Y4218279D01*
X4128983D01*
X4128872Y4218334D01*
X4128650Y4218445D01*
X4128373Y4218556D01*
X4127984Y4218667D01*
X4127596Y4218890D01*
X4126652Y4219333D01*
X4125653Y4219889D01*
X4124599Y4220610D01*
X4123544Y4221443D01*
X4122656Y4222441D01*
Y4222497D01*
X4122545Y4222552D01*
X4122434Y4222719D01*
X4122323Y4222941D01*
X4122101Y4223218D01*
X4121935Y4223551D01*
X4121491Y4224384D01*
X4121102Y4225383D01*
X4120714Y4226548D01*
X4120492Y4227936D01*
X4120381Y4229435D01*
Y4229934D01*
X4120436Y4230544D01*
X4120547Y4231266D01*
X4120714Y4232099D01*
X4120936Y4232986D01*
X4121213Y4233930D01*
X4121657Y4234818D01*
Y4234873D01*
X4121713Y4234929D01*
X4121879Y4235207D01*
X4122157Y4235650D01*
X4122545Y4236206D01*
X4123100Y4236816D01*
X4123711Y4237482D01*
X4124432Y4238092D01*
X4125265Y4238703D01*
X4125376Y4238758D01*
X4125653Y4238980D01*
X4126153Y4239203D01*
X4126874Y4239591D01*
X4127707Y4239924D01*
X4128650Y4240368D01*
X4129760Y4240757D01*
X4130981Y4241090D01*
X4131037D01*
X4131148Y4241145D01*
X4131314Y4241200D01*
X4131592Y4241256D01*
X4131925Y4241311D01*
X4132313Y4241367D01*
X4132813Y4241478D01*
X4133368Y4241533D01*
X4133978Y4241645D01*
X4134644Y4241700D01*
X4135421Y4241756D01*
X4136198Y4241867D01*
X4137086Y4241922D01*
X4137974D01*
X4138973Y4241977D01*
X4140028D01*
X4140083D01*
X4140305D01*
X4140694D01*
X4141138D01*
X4141748Y4241922D01*
D02*
G37*
G36*
X4163953Y4106446D02*
X4155961Y4101395D01*
X4155906D01*
X4155795Y4101284D01*
X4155628Y4101173D01*
X4155406Y4101007D01*
X4154796Y4100618D01*
X4154019Y4100119D01*
X4153186Y4099508D01*
X4152298Y4098898D01*
X4151466Y4098287D01*
X4150689Y4097732D01*
X4150633Y4097677D01*
X4150411Y4097510D01*
X4150078Y4097233D01*
X4149690Y4096844D01*
X4148857Y4096012D01*
X4148469Y4095568D01*
X4148136Y4095124D01*
X4148080Y4095068D01*
X4148025Y4094957D01*
X4147914Y4094735D01*
X4147747Y4094402D01*
X4147581Y4094069D01*
X4147414Y4093681D01*
X4147137Y4092793D01*
Y4092737D01*
X4147081Y4092626D01*
Y4092404D01*
X4147026Y4092127D01*
X4146970Y4091738D01*
Y4091294D01*
X4146915Y4090684D01*
Y4084135D01*
X4163953D01*
Y4079029D01*
X4125547D01*
Y4096844D01*
X4125603Y4097288D01*
Y4097788D01*
X4125658Y4098953D01*
X4125825Y4100174D01*
X4125991Y4101506D01*
X4126269Y4102727D01*
X4126435Y4103338D01*
X4126602Y4103837D01*
Y4103893D01*
X4126657Y4103948D01*
X4126824Y4104281D01*
X4127046Y4104781D01*
X4127434Y4105391D01*
X4127934Y4106057D01*
X4128600Y4106779D01*
X4129377Y4107445D01*
X4130265Y4108111D01*
X4130320D01*
X4130376Y4108166D01*
X4130709Y4108388D01*
X4131264Y4108610D01*
X4131985Y4108943D01*
X4132818Y4109221D01*
X4133817Y4109498D01*
X4134871Y4109665D01*
X4136037Y4109720D01*
X4136092D01*
X4136203D01*
X4136425D01*
X4136703Y4109665D01*
X4137091D01*
X4137480Y4109609D01*
X4138423Y4109387D01*
X4139533Y4109054D01*
X4140699Y4108610D01*
X4141864Y4107944D01*
X4142419Y4107500D01*
X4142974Y4107056D01*
X4143030Y4107001D01*
X4143085Y4106945D01*
X4143252Y4106779D01*
X4143418Y4106557D01*
X4143640Y4106279D01*
X4143862Y4105946D01*
X4144140Y4105502D01*
X4144473Y4105058D01*
X4144750Y4104503D01*
X4145028Y4103893D01*
X4145361Y4103227D01*
X4145638Y4102505D01*
X4145860Y4101673D01*
X4146138Y4100840D01*
X4146304Y4099897D01*
X4146471Y4098898D01*
X4146526Y4099009D01*
X4146637Y4099231D01*
X4146859Y4099564D01*
X4147081Y4100008D01*
X4147692Y4101007D01*
X4148080Y4101506D01*
X4148413Y4101950D01*
X4148524Y4102061D01*
X4148802Y4102339D01*
X4149246Y4102783D01*
X4149801Y4103338D01*
X4150578Y4103948D01*
X4151410Y4104670D01*
X4152409Y4105391D01*
X4153519Y4106168D01*
X4163953Y4112773D01*
Y4106446D01*
D02*
G37*
G36*
X4153464Y4072313D02*
X4153908Y4072258D01*
X4154407Y4072147D01*
X4154962Y4072036D01*
X4155573Y4071925D01*
X4156905Y4071481D01*
X4157626Y4071148D01*
X4158292Y4070815D01*
X4159014Y4070371D01*
X4159735Y4069871D01*
X4160457Y4069316D01*
X4161123Y4068650D01*
X4161178Y4068595D01*
X4161289Y4068484D01*
X4161456Y4068262D01*
X4161678Y4067984D01*
X4161955Y4067651D01*
X4162233Y4067207D01*
X4162566Y4066708D01*
X4162843Y4066097D01*
X4163176Y4065487D01*
X4163509Y4064765D01*
X4163787Y4064044D01*
X4164064Y4063211D01*
X4164286Y4062323D01*
X4164453Y4061380D01*
X4164564Y4060436D01*
X4164619Y4059382D01*
Y4058882D01*
X4164564Y4058549D01*
X4164508Y4058105D01*
X4164453Y4057606D01*
X4164342Y4057051D01*
X4164231Y4056440D01*
X4163898Y4055108D01*
X4163343Y4053721D01*
X4163010Y4052999D01*
X4162621Y4052333D01*
X4162122Y4051667D01*
X4161622Y4051001D01*
X4161567Y4050946D01*
X4161456Y4050835D01*
X4161289Y4050668D01*
X4161067Y4050502D01*
X4160790Y4050224D01*
X4160401Y4049947D01*
X4160013Y4049614D01*
X4159513Y4049281D01*
X4158958Y4048948D01*
X4158403Y4048615D01*
X4157071Y4048004D01*
X4155517Y4047505D01*
X4154685Y4047338D01*
X4153797Y4047227D01*
X4153186Y4051945D01*
X4153242D01*
X4153353Y4052000D01*
X4153575Y4052056D01*
X4153852Y4052111D01*
X4154185Y4052167D01*
X4154574Y4052278D01*
X4155406Y4052555D01*
X4156405Y4052944D01*
X4157349Y4053443D01*
X4158237Y4053998D01*
X4159014Y4054664D01*
X4159069Y4054775D01*
X4159291Y4054997D01*
X4159569Y4055441D01*
X4159846Y4055996D01*
X4160179Y4056662D01*
X4160457Y4057495D01*
X4160679Y4058438D01*
X4160734Y4059437D01*
Y4059770D01*
X4160679Y4059992D01*
X4160623Y4060603D01*
X4160457Y4061380D01*
X4160179Y4062268D01*
X4159791Y4063211D01*
X4159236Y4064155D01*
X4158459Y4065043D01*
X4158348Y4065154D01*
X4158015Y4065431D01*
X4157515Y4065764D01*
X4156849Y4066208D01*
X4156017Y4066652D01*
X4155073Y4066985D01*
X4153963Y4067263D01*
X4152742Y4067374D01*
X4152687D01*
X4152576D01*
X4152409D01*
X4152187Y4067318D01*
X4151577Y4067263D01*
X4150855Y4067096D01*
X4149967Y4066874D01*
X4149079Y4066486D01*
X4148191Y4065931D01*
X4147359Y4065209D01*
X4147248Y4065098D01*
X4147026Y4064821D01*
X4146693Y4064377D01*
X4146304Y4063766D01*
X4145916Y4062989D01*
X4145583Y4062046D01*
X4145361Y4060991D01*
X4145250Y4059826D01*
Y4059326D01*
X4145305Y4058938D01*
X4145361Y4058438D01*
X4145472Y4057883D01*
X4145583Y4057217D01*
X4145749Y4056496D01*
X4141587Y4057051D01*
Y4057328D01*
X4141642Y4057550D01*
Y4058272D01*
X4141531Y4058882D01*
X4141420Y4059604D01*
X4141254Y4060436D01*
X4140976Y4061380D01*
X4140588Y4062268D01*
X4140088Y4063211D01*
Y4063267D01*
X4140033Y4063322D01*
X4139811Y4063600D01*
X4139422Y4063988D01*
X4138923Y4064432D01*
X4138201Y4064876D01*
X4137369Y4065265D01*
X4136425Y4065542D01*
X4135870Y4065653D01*
X4135260D01*
X4135204D01*
X4135149D01*
X4134816D01*
X4134372Y4065542D01*
X4133761Y4065431D01*
X4133095Y4065209D01*
X4132374Y4064932D01*
X4131652Y4064488D01*
X4130986Y4063877D01*
X4130931Y4063822D01*
X4130709Y4063544D01*
X4130431Y4063156D01*
X4130098Y4062656D01*
X4129821Y4061990D01*
X4129543Y4061213D01*
X4129321Y4060325D01*
X4129266Y4059326D01*
Y4058882D01*
X4129377Y4058383D01*
X4129488Y4057717D01*
X4129710Y4056995D01*
X4129987Y4056274D01*
X4130431Y4055497D01*
X4130986Y4054775D01*
X4131042Y4054720D01*
X4131319Y4054498D01*
X4131708Y4054165D01*
X4132263Y4053776D01*
X4132984Y4053388D01*
X4133872Y4052999D01*
X4134927Y4052666D01*
X4136148Y4052444D01*
X4135315Y4047727D01*
X4135260D01*
X4135093Y4047782D01*
X4134871Y4047838D01*
X4134538Y4047893D01*
X4134150Y4048004D01*
X4133706Y4048171D01*
X4132651Y4048504D01*
X4131430Y4049059D01*
X4130209Y4049725D01*
X4129044Y4050557D01*
X4127989Y4051612D01*
X4127934Y4051667D01*
X4127878Y4051778D01*
X4127767Y4051945D01*
X4127601Y4052167D01*
X4127379Y4052444D01*
X4127157Y4052833D01*
X4126935Y4053221D01*
X4126657Y4053721D01*
X4126213Y4054831D01*
X4125769Y4056107D01*
X4125492Y4057606D01*
X4125381Y4058383D01*
Y4059770D01*
X4125436Y4060381D01*
X4125547Y4061102D01*
X4125714Y4061990D01*
X4125991Y4062989D01*
X4126324Y4063988D01*
X4126768Y4064987D01*
Y4065043D01*
X4126824Y4065098D01*
X4126990Y4065431D01*
X4127323Y4065931D01*
X4127712Y4066486D01*
X4128267Y4067152D01*
X4128877Y4067818D01*
X4129599Y4068484D01*
X4130431Y4069039D01*
X4130542Y4069094D01*
X4130820Y4069261D01*
X4131319Y4069483D01*
X4131930Y4069760D01*
X4132651Y4070038D01*
X4133484Y4070260D01*
X4134427Y4070426D01*
X4135371Y4070482D01*
X4135482D01*
X4135815D01*
X4136259Y4070426D01*
X4136869Y4070315D01*
X4137591Y4070149D01*
X4138368Y4069871D01*
X4139145Y4069538D01*
X4139922Y4069094D01*
X4140033Y4069039D01*
X4140255Y4068872D01*
X4140643Y4068539D01*
X4141087Y4068095D01*
X4141587Y4067540D01*
X4142142Y4066874D01*
X4142641Y4066097D01*
X4143141Y4065154D01*
Y4065209D01*
X4143196Y4065320D01*
X4143252Y4065487D01*
X4143307Y4065709D01*
X4143529Y4066319D01*
X4143862Y4067096D01*
X4144306Y4067984D01*
X4144861Y4068872D01*
X4145583Y4069705D01*
X4146415Y4070482D01*
X4146526Y4070537D01*
X4146859Y4070759D01*
X4147414Y4071092D01*
X4148136Y4071425D01*
X4149024Y4071758D01*
X4150078Y4072091D01*
X4151299Y4072313D01*
X4152631Y4072369D01*
X4152687D01*
X4152853D01*
X4153131D01*
X4153464Y4072313D01*
D02*
G37*
G36*
X4163953Y3926514D02*
X4155961Y3921463D01*
X4155906D01*
X4155795Y3921352D01*
X4155628Y3921242D01*
X4155406Y3921075D01*
X4154796Y3920686D01*
X4154019Y3920187D01*
X4153186Y3919577D01*
X4152298Y3918966D01*
X4151466Y3918356D01*
X4150689Y3917800D01*
X4150633Y3917745D01*
X4150411Y3917579D01*
X4150078Y3917301D01*
X4149690Y3916912D01*
X4148857Y3916080D01*
X4148469Y3915636D01*
X4148136Y3915192D01*
X4148080Y3915137D01*
X4148025Y3915026D01*
X4147914Y3914803D01*
X4147747Y3914470D01*
X4147581Y3914137D01*
X4147414Y3913749D01*
X4147137Y3912861D01*
Y3912805D01*
X4147081Y3912695D01*
Y3912472D01*
X4147026Y3912195D01*
X4146970Y3911807D01*
Y3911363D01*
X4146915Y3910752D01*
Y3904203D01*
X4163953D01*
Y3899097D01*
X4125547D01*
Y3916912D01*
X4125603Y3917356D01*
Y3917856D01*
X4125658Y3919021D01*
X4125825Y3920242D01*
X4125991Y3921575D01*
X4126269Y3922796D01*
X4126435Y3923406D01*
X4126602Y3923905D01*
Y3923961D01*
X4126657Y3924017D01*
X4126824Y3924349D01*
X4127046Y3924849D01*
X4127434Y3925459D01*
X4127934Y3926126D01*
X4128600Y3926847D01*
X4129377Y3927513D01*
X4130265Y3928179D01*
X4130320D01*
X4130376Y3928235D01*
X4130709Y3928456D01*
X4131264Y3928678D01*
X4131985Y3929012D01*
X4132818Y3929289D01*
X4133817Y3929566D01*
X4134871Y3929733D01*
X4136037Y3929789D01*
X4136092D01*
X4136203D01*
X4136425D01*
X4136703Y3929733D01*
X4137091D01*
X4137480Y3929677D01*
X4138423Y3929456D01*
X4139533Y3929122D01*
X4140699Y3928678D01*
X4141864Y3928012D01*
X4142419Y3927568D01*
X4142974Y3927124D01*
X4143030Y3927069D01*
X4143085Y3927014D01*
X4143252Y3926847D01*
X4143418Y3926625D01*
X4143640Y3926347D01*
X4143862Y3926015D01*
X4144140Y3925570D01*
X4144473Y3925126D01*
X4144750Y3924572D01*
X4145028Y3923961D01*
X4145361Y3923295D01*
X4145638Y3922573D01*
X4145860Y3921741D01*
X4146138Y3920909D01*
X4146304Y3919965D01*
X4146471Y3918966D01*
X4146526Y3919077D01*
X4146637Y3919299D01*
X4146859Y3919632D01*
X4147081Y3920076D01*
X4147692Y3921075D01*
X4148080Y3921575D01*
X4148413Y3922019D01*
X4148524Y3922130D01*
X4148802Y3922407D01*
X4149246Y3922851D01*
X4149801Y3923406D01*
X4150578Y3924017D01*
X4151410Y3924738D01*
X4152409Y3925459D01*
X4153519Y3926236D01*
X4163953Y3932841D01*
Y3926514D01*
D02*
G37*
G36*
X4153852Y3892437D02*
X4154241Y3892381D01*
X4154740Y3892326D01*
X4155295Y3892215D01*
X4155906Y3892048D01*
X4157182Y3891660D01*
X4157904Y3891383D01*
X4158570Y3890994D01*
X4159291Y3890606D01*
X4159957Y3890162D01*
X4160623Y3889606D01*
X4161289Y3888996D01*
X4161345Y3888941D01*
X4161456Y3888829D01*
X4161622Y3888663D01*
X4161789Y3888385D01*
X4162066Y3887997D01*
X4162344Y3887608D01*
X4162621Y3887109D01*
X4162954Y3886554D01*
X4163287Y3885943D01*
X4163565Y3885222D01*
X4163842Y3884445D01*
X4164120Y3883668D01*
X4164286Y3882780D01*
X4164453Y3881836D01*
X4164564Y3880893D01*
X4164619Y3879838D01*
Y3879284D01*
X4164564Y3878895D01*
X4164508Y3878396D01*
X4164453Y3877840D01*
X4164342Y3877230D01*
X4164175Y3876564D01*
X4163787Y3875066D01*
X4163509Y3874289D01*
X4163232Y3873567D01*
X4162843Y3872790D01*
X4162399Y3872013D01*
X4161900Y3871291D01*
X4161289Y3870626D01*
X4161234Y3870570D01*
X4161123Y3870459D01*
X4160956Y3870293D01*
X4160679Y3870070D01*
X4160346Y3869849D01*
X4159957Y3869515D01*
X4159513Y3869238D01*
X4158958Y3868905D01*
X4158403Y3868572D01*
X4157737Y3868294D01*
X4156350Y3867740D01*
X4155517Y3867517D01*
X4154685Y3867351D01*
X4153797Y3867240D01*
X4152909Y3867184D01*
X4152853D01*
X4152742D01*
X4152520D01*
X4152298Y3867240D01*
X4151965D01*
X4151577Y3867296D01*
X4150689Y3867407D01*
X4149690Y3867628D01*
X4148691Y3867961D01*
X4147636Y3868461D01*
X4146637Y3869072D01*
X4146582D01*
X4146526Y3869182D01*
X4146249Y3869405D01*
X4145805Y3869849D01*
X4145250Y3870459D01*
X4144695Y3871236D01*
X4144084Y3872180D01*
X4143585Y3873234D01*
X4143196Y3874510D01*
Y3874455D01*
X4143141Y3874399D01*
X4143085Y3874233D01*
X4142974Y3874011D01*
X4142752Y3873512D01*
X4142419Y3872845D01*
X4141975Y3872124D01*
X4141420Y3871403D01*
X4140810Y3870736D01*
X4140144Y3870126D01*
X4140033Y3870070D01*
X4139811Y3869904D01*
X4139367Y3869682D01*
X4138812Y3869460D01*
X4138090Y3869182D01*
X4137258Y3868961D01*
X4136314Y3868794D01*
X4135315Y3868738D01*
X4135260D01*
X4135149D01*
X4134927D01*
X4134594Y3868794D01*
X4134261Y3868849D01*
X4133817Y3868905D01*
X4132873Y3869127D01*
X4131763Y3869460D01*
X4130598Y3870015D01*
X4129987Y3870348D01*
X4129377Y3870736D01*
X4128822Y3871236D01*
X4128267Y3871735D01*
X4128211Y3871791D01*
X4128156Y3871902D01*
X4127989Y3872068D01*
X4127823Y3872291D01*
X4127601Y3872568D01*
X4127379Y3872956D01*
X4127101Y3873401D01*
X4126824Y3873845D01*
X4126546Y3874399D01*
X4126269Y3875010D01*
X4126047Y3875676D01*
X4125825Y3876398D01*
X4125492Y3877952D01*
X4125436Y3878840D01*
X4125381Y3879727D01*
Y3880227D01*
X4125436Y3880560D01*
X4125492Y3881004D01*
X4125547Y3881503D01*
X4125603Y3882059D01*
X4125769Y3882613D01*
X4126102Y3883945D01*
X4126602Y3885278D01*
X4126935Y3885943D01*
X4127323Y3886610D01*
X4127823Y3887220D01*
X4128322Y3887831D01*
X4128378Y3887886D01*
X4128433Y3887941D01*
X4128600Y3888108D01*
X4128822Y3888330D01*
X4129155Y3888552D01*
X4129488Y3888829D01*
X4130320Y3889385D01*
X4131375Y3889939D01*
X4132596Y3890439D01*
X4133983Y3890827D01*
X4134705Y3890883D01*
X4135482Y3890939D01*
X4135537D01*
X4135593D01*
X4135926D01*
X4136425Y3890883D01*
X4137036Y3890772D01*
X4137813Y3890606D01*
X4138590Y3890328D01*
X4139367Y3889995D01*
X4140144Y3889495D01*
X4140255Y3889440D01*
X4140477Y3889218D01*
X4140810Y3888885D01*
X4141254Y3888441D01*
X4141753Y3887831D01*
X4142253Y3887109D01*
X4142752Y3886276D01*
X4143196Y3885278D01*
Y3885333D01*
X4143252Y3885444D01*
X4143307Y3885610D01*
X4143418Y3885832D01*
X4143696Y3886499D01*
X4144084Y3887276D01*
X4144639Y3888108D01*
X4145250Y3888996D01*
X4146027Y3889829D01*
X4146915Y3890606D01*
X4146970D01*
X4147026Y3890661D01*
X4147359Y3890883D01*
X4147914Y3891216D01*
X4148635Y3891549D01*
X4149523Y3891882D01*
X4150578Y3892215D01*
X4151743Y3892437D01*
X4153020Y3892492D01*
X4153075D01*
X4153242D01*
X4153519D01*
X4153852Y3892437D01*
D02*
G37*
G36*
X4152465Y3862523D02*
X4152798D01*
X4153686Y3862356D01*
X4154740Y3862189D01*
X4155850Y3861912D01*
X4157071Y3861523D01*
X4158237Y3860968D01*
X4158292D01*
X4158348Y3860913D01*
X4158514Y3860802D01*
X4158736Y3860691D01*
X4159291Y3860358D01*
X4160013Y3859858D01*
X4160790Y3859248D01*
X4161567Y3858526D01*
X4162344Y3857639D01*
X4163010Y3856695D01*
Y3856640D01*
X4163065Y3856584D01*
X4163176Y3856418D01*
X4163232Y3856195D01*
X4163509Y3855640D01*
X4163787Y3854919D01*
X4164120Y3853976D01*
X4164342Y3852921D01*
X4164564Y3851756D01*
X4164619Y3850479D01*
Y3850202D01*
X4164564Y3849924D01*
Y3849480D01*
X4164508Y3848981D01*
X4164397Y3848425D01*
X4164231Y3847760D01*
X4164064Y3847093D01*
X4163842Y3846316D01*
X4163565Y3845539D01*
X4163232Y3844762D01*
X4162788Y3843930D01*
X4162288Y3843153D01*
X4161733Y3842376D01*
X4161067Y3841599D01*
X4160290Y3840878D01*
X4160235Y3840822D01*
X4160068Y3840711D01*
X4159846Y3840544D01*
X4159458Y3840323D01*
X4158958Y3839990D01*
X4158403Y3839712D01*
X4157682Y3839379D01*
X4156905Y3839046D01*
X4155961Y3838657D01*
X4154907Y3838325D01*
X4153741Y3838047D01*
X4152465Y3837769D01*
X4151022Y3837492D01*
X4149468Y3837325D01*
X4147803Y3837215D01*
X4146027Y3837159D01*
X4145971D01*
X4145916D01*
X4145749D01*
X4145527D01*
X4144972Y3837215D01*
X4144195D01*
X4143307Y3837270D01*
X4142253Y3837381D01*
X4141087Y3837492D01*
X4139811Y3837659D01*
X4138534Y3837881D01*
X4137147Y3838158D01*
X4135815Y3838491D01*
X4134483Y3838880D01*
X4133206Y3839379D01*
X4131985Y3839934D01*
X4130820Y3840544D01*
X4129821Y3841266D01*
X4129765Y3841322D01*
X4129654Y3841432D01*
X4129432Y3841655D01*
X4129099Y3841932D01*
X4128766Y3842265D01*
X4128433Y3842709D01*
X4127989Y3843264D01*
X4127601Y3843819D01*
X4127212Y3844485D01*
X4126768Y3845206D01*
X4126435Y3846039D01*
X4126047Y3846872D01*
X4125769Y3847815D01*
X4125547Y3848814D01*
X4125436Y3849869D01*
X4125381Y3850979D01*
Y3851423D01*
X4125436Y3851756D01*
Y3852144D01*
X4125492Y3852588D01*
X4125714Y3853642D01*
X4125991Y3854808D01*
X4126435Y3856029D01*
X4127101Y3857250D01*
X4127490Y3857860D01*
X4127934Y3858416D01*
X4127989Y3858471D01*
X4128045Y3858526D01*
X4128211Y3858693D01*
X4128378Y3858860D01*
X4128655Y3859137D01*
X4128988Y3859359D01*
X4129765Y3859970D01*
X4130764Y3860580D01*
X4131985Y3861135D01*
X4133373Y3861635D01*
X4134927Y3861968D01*
X4135315Y3857250D01*
X4135260D01*
X4135204Y3857195D01*
X4134871Y3857139D01*
X4134372Y3856972D01*
X4133761Y3856751D01*
X4133095Y3856528D01*
X4132429Y3856195D01*
X4131819Y3855807D01*
X4131319Y3855419D01*
X4131208Y3855307D01*
X4130986Y3855086D01*
X4130653Y3854697D01*
X4130265Y3854142D01*
X4129932Y3853421D01*
X4129599Y3852644D01*
X4129377Y3851700D01*
X4129266Y3850701D01*
Y3850312D01*
X4129321Y3849869D01*
X4129432Y3849369D01*
X4129599Y3848703D01*
X4129821Y3848037D01*
X4130098Y3847371D01*
X4130542Y3846705D01*
X4130598Y3846594D01*
X4130820Y3846316D01*
X4131208Y3845928D01*
X4131763Y3845428D01*
X4132429Y3844874D01*
X4133206Y3844263D01*
X4134205Y3843708D01*
X4135315Y3843153D01*
X4135371D01*
X4135482Y3843097D01*
X4135648Y3843042D01*
X4135870Y3842931D01*
X4136203Y3842876D01*
X4136592Y3842765D01*
X4137036Y3842653D01*
X4137591Y3842543D01*
X4138201Y3842376D01*
X4138867Y3842265D01*
X4139589Y3842154D01*
X4140366Y3842099D01*
X4141254Y3841988D01*
X4142142Y3841932D01*
X4143141Y3841876D01*
X4144140D01*
X4144084Y3841932D01*
X4143751Y3842154D01*
X4143307Y3842543D01*
X4142752Y3843042D01*
X4142086Y3843597D01*
X4141476Y3844318D01*
X4140865Y3845095D01*
X4140310Y3845983D01*
Y3846039D01*
X4140255Y3846095D01*
X4140088Y3846427D01*
X4139922Y3846927D01*
X4139644Y3847593D01*
X4139422Y3848370D01*
X4139256Y3849258D01*
X4139089Y3850202D01*
X4139034Y3851200D01*
Y3851644D01*
X4139089Y3851977D01*
X4139145Y3852421D01*
X4139200Y3852865D01*
X4139311Y3853421D01*
X4139478Y3853976D01*
X4139866Y3855252D01*
X4140144Y3855918D01*
X4140532Y3856584D01*
X4140921Y3857250D01*
X4141365Y3857972D01*
X4141920Y3858637D01*
X4142530Y3859248D01*
X4142586Y3859303D01*
X4142697Y3859414D01*
X4142863Y3859581D01*
X4143141Y3859747D01*
X4143529Y3860025D01*
X4143918Y3860302D01*
X4144417Y3860580D01*
X4144972Y3860913D01*
X4145583Y3861246D01*
X4146249Y3861523D01*
X4147026Y3861801D01*
X4147803Y3862079D01*
X4148635Y3862245D01*
X4149579Y3862412D01*
X4150522Y3862523D01*
X4151521Y3862578D01*
X4151577D01*
X4151688D01*
X4151854D01*
X4152132D01*
X4152465Y3862523D01*
D02*
G37*
G36*
X4274751Y3390362D02*
X4165249D01*
Y3507591D01*
X4274751D01*
Y3390362D01*
D02*
G37*
%LPC*%
G36*
X4320223Y4789197D02*
Y4772575D01*
X4275754D01*
Y4789197D01*
X4320223D01*
X4269776D01*
Y4749247D01*
X4275754D01*
Y4765868D01*
X4320223D01*
Y4789197D01*
D02*
G37*
G36*
X4300176Y4741884D02*
X4269776D01*
Y4724024D01*
Y4735178D01*
X4298936D01*
X4300613D01*
X4302217Y4735032D01*
X4303602Y4734886D01*
X4304914Y4734667D01*
X4306081Y4734449D01*
X4307174Y4734157D01*
X4308122Y4733938D01*
X4308924Y4733647D01*
X4309580Y4733355D01*
X4310236Y4733064D01*
X4310673Y4732772D01*
X4311111Y4732553D01*
X4311402Y4732334D01*
X4311621Y4732189D01*
X4311694Y4732116D01*
X4311767Y4732043D01*
X4312350Y4731387D01*
X4312860Y4730658D01*
X4313662Y4729054D01*
X4314245Y4727377D01*
X4314610Y4725628D01*
X4314902Y4724024D01*
X4314975Y4723368D01*
Y4722712D01*
X4315047Y4722274D01*
Y4721545D01*
X4314975Y4720014D01*
X4314756Y4718629D01*
X4314537Y4717317D01*
X4314173Y4716297D01*
X4313881Y4715422D01*
X4313662Y4714766D01*
X4313444Y4714401D01*
X4313371Y4714255D01*
X4312715Y4713235D01*
X4311913Y4712360D01*
X4311111Y4711631D01*
X4310382Y4711121D01*
X4309653Y4710683D01*
X4309142Y4710319D01*
X4308778Y4710173D01*
X4308632Y4710100D01*
X4307976Y4709881D01*
X4307320Y4709735D01*
X4305789Y4709444D01*
X4304185Y4709225D01*
X4302582Y4709079D01*
X4301196Y4709007D01*
X4300540D01*
X4300030Y4708934D01*
X4299593D01*
X4299228D01*
X4299009D01*
X4298936D01*
X4269776D01*
Y4709079D01*
Y4708934D01*
Y4702227D01*
X4300395D01*
X4301780Y4702300D01*
X4303092Y4702373D01*
X4304331Y4702518D01*
X4305425Y4702664D01*
X4306445Y4702810D01*
X4307393Y4703029D01*
X4308268Y4703175D01*
X4309070Y4703320D01*
X4309726Y4703539D01*
X4310309Y4703685D01*
X4310746Y4703831D01*
X4311111Y4703976D01*
X4311402Y4704049D01*
X4311548Y4704122D01*
X4311621D01*
X4313225Y4704924D01*
X4314683Y4705945D01*
X4315849Y4706965D01*
X4316870Y4708059D01*
X4317672Y4709007D01*
X4318255Y4709808D01*
X4318401Y4710100D01*
X4318547Y4710319D01*
X4318692Y4710465D01*
Y4710537D01*
X4319494Y4712360D01*
X4320078Y4714255D01*
X4320515Y4716224D01*
X4320806Y4718046D01*
X4320879Y4718848D01*
X4320952Y4719650D01*
X4321025Y4720379D01*
Y4720962D01*
X4321098Y4721472D01*
Y4702227D01*
D01*
Y4722128D01*
X4320952Y4724753D01*
X4320806Y4725919D01*
X4320661Y4727013D01*
X4320442Y4728106D01*
X4320223Y4729054D01*
X4320005Y4729929D01*
X4319713Y4730731D01*
X4319421Y4731460D01*
X4319203Y4732043D01*
X4318984Y4732626D01*
X4318765Y4733064D01*
X4318547Y4733428D01*
X4318474Y4733647D01*
X4318328Y4733792D01*
Y4733865D01*
X4317234Y4735469D01*
X4315995Y4736781D01*
X4314829Y4737802D01*
X4313662Y4738677D01*
X4312642Y4739333D01*
X4311840Y4739770D01*
X4311548Y4739916D01*
X4311329Y4740062D01*
X4311184Y4740135D01*
X4311111D01*
X4310236Y4740426D01*
X4309288Y4740718D01*
X4307320Y4741155D01*
X4305279Y4741447D01*
X4303310Y4741666D01*
X4302436Y4741739D01*
X4301561Y4741811D01*
X4300832D01*
X4300176Y4741884D01*
D02*
G37*
G36*
X4295875Y4693552D02*
X4295146D01*
X4292376Y4693406D01*
X4289824Y4693114D01*
X4288658Y4692896D01*
X4287491Y4692604D01*
X4286471Y4692312D01*
X4285523Y4692094D01*
X4284648Y4691802D01*
X4283846Y4691511D01*
X4283190Y4691292D01*
X4282607Y4691000D01*
X4282169Y4690854D01*
X4281878Y4690709D01*
X4281659Y4690563D01*
X4281586D01*
X4279472Y4689396D01*
X4277577Y4688011D01*
X4275973Y4686553D01*
X4274661Y4685241D01*
X4273640Y4684002D01*
X4273203Y4683419D01*
X4272838Y4682981D01*
X4272620Y4682544D01*
X4272401Y4682252D01*
X4272328Y4682106D01*
X4272255Y4682033D01*
X4271672Y4680940D01*
X4271162Y4679846D01*
X4270287Y4677732D01*
X4269704Y4675545D01*
X4269339Y4673650D01*
X4269193Y4672775D01*
X4269047Y4671900D01*
X4268975Y4671244D01*
Y4670588D01*
X4268902Y4670078D01*
Y4693552D01*
D01*
Y4645292D01*
Y4669422D01*
X4268975Y4667453D01*
X4269193Y4665631D01*
X4269558Y4663881D01*
X4269995Y4662205D01*
X4270578Y4660674D01*
X4271162Y4659216D01*
X4271818Y4657904D01*
X4272474Y4656737D01*
X4273130Y4655644D01*
X4273786Y4654696D01*
X4274369Y4653894D01*
X4274952Y4653238D01*
X4275390Y4652728D01*
X4275754Y4652290D01*
X4275973Y4652072D01*
X4276046Y4651999D01*
X4277431Y4650832D01*
X4278889Y4649812D01*
X4280493Y4648864D01*
X4282097Y4648135D01*
X4283773Y4647479D01*
X4285377Y4646896D01*
X4286981Y4646458D01*
X4288512Y4646167D01*
X4289970Y4645875D01*
X4291355Y4645656D01*
X4292594Y4645511D01*
X4293615Y4645365D01*
X4294490D01*
X4295146Y4645292D01*
X4268902D01*
X4321098D01*
X4295729D01*
X4298208Y4645438D01*
X4300467Y4645729D01*
X4302654Y4646167D01*
X4303602Y4646458D01*
X4304550Y4646750D01*
X4305352Y4646969D01*
X4306081Y4647260D01*
X4306737Y4647479D01*
X4307320Y4647698D01*
X4307757Y4647843D01*
X4308049Y4647989D01*
X4308268Y4648135D01*
X4308341D01*
X4310455Y4649374D01*
X4312277Y4650686D01*
X4313881Y4652145D01*
X4315193Y4653530D01*
X4316287Y4654769D01*
X4316724Y4655279D01*
X4317016Y4655717D01*
X4317307Y4656154D01*
X4317526Y4656446D01*
X4317599Y4656591D01*
X4317672Y4656664D01*
X4318255Y4657758D01*
X4318765Y4658851D01*
X4319640Y4661038D01*
X4320223Y4663152D01*
X4320661Y4665121D01*
X4320806Y4666068D01*
X4320879Y4666870D01*
X4321025Y4667599D01*
Y4668255D01*
X4321098Y4668693D01*
Y4669422D01*
X4320952Y4671828D01*
X4320588Y4674087D01*
X4320150Y4676202D01*
X4319859Y4677149D01*
X4319567Y4678024D01*
X4319276Y4678826D01*
X4318984Y4679555D01*
X4318765Y4680138D01*
X4318547Y4680648D01*
X4318328Y4681086D01*
X4318182Y4681450D01*
X4318036Y4681596D01*
Y4681669D01*
X4316724Y4683710D01*
X4315266Y4685460D01*
X4313735Y4686918D01*
X4312277Y4688157D01*
X4310892Y4689178D01*
X4310382Y4689542D01*
X4309872Y4689834D01*
X4309434Y4690125D01*
X4309142Y4690271D01*
X4308924Y4690417D01*
X4308851D01*
X4307685Y4691000D01*
X4306518Y4691438D01*
X4304185Y4692239D01*
X4301852Y4692823D01*
X4299738Y4693187D01*
X4298791Y4693260D01*
X4297916Y4693406D01*
X4297114Y4693479D01*
X4296458D01*
X4295875Y4693552D01*
D02*
G37*
%LPD*%
G36*
X4296822Y4686626D02*
X4298499Y4686480D01*
X4300103Y4686262D01*
X4301561Y4685970D01*
X4302873Y4685533D01*
X4304112Y4685168D01*
X4305279Y4684731D01*
X4306299Y4684293D01*
X4307174Y4683783D01*
X4307976Y4683346D01*
X4308632Y4682981D01*
X4309142Y4682617D01*
X4309580Y4682252D01*
X4309944Y4682033D01*
X4310090Y4681888D01*
X4310163Y4681815D01*
X4311111Y4680867D01*
X4311913Y4679846D01*
X4312569Y4678826D01*
X4313225Y4677805D01*
X4313735Y4676785D01*
X4314100Y4675691D01*
X4314464Y4674743D01*
X4314756Y4673723D01*
X4314975Y4672848D01*
X4315120Y4671973D01*
X4315266Y4671244D01*
X4315339Y4670588D01*
Y4670078D01*
X4315412Y4669713D01*
Y4669349D01*
X4315339Y4667964D01*
X4315193Y4666652D01*
X4314902Y4665485D01*
X4314610Y4664319D01*
X4314173Y4663225D01*
X4313735Y4662205D01*
X4313298Y4661257D01*
X4312788Y4660382D01*
X4312277Y4659653D01*
X4311840Y4658997D01*
X4311402Y4658414D01*
X4310965Y4657904D01*
X4310673Y4657539D01*
X4310382Y4657248D01*
X4310236Y4657102D01*
X4310163Y4657029D01*
X4309142Y4656154D01*
X4308049Y4655425D01*
X4306883Y4654769D01*
X4305716Y4654186D01*
X4304477Y4653748D01*
X4303310Y4653311D01*
X4300978Y4652728D01*
X4299957Y4652582D01*
X4298936Y4652436D01*
X4298062Y4652290D01*
X4297333Y4652217D01*
X4296677Y4652145D01*
X4296166D01*
X4295875D01*
X4295802D01*
X4293761Y4652217D01*
X4291865Y4652363D01*
X4290043Y4652582D01*
X4288439Y4652946D01*
X4286981Y4653311D01*
X4285669Y4653748D01*
X4284429Y4654259D01*
X4283409Y4654696D01*
X4282461Y4655206D01*
X4281659Y4655644D01*
X4281003Y4656081D01*
X4280493Y4656446D01*
X4280055Y4656810D01*
X4279764Y4657029D01*
X4279618Y4657175D01*
X4279545Y4657248D01*
X4278670Y4658195D01*
X4277941Y4659216D01*
X4277285Y4660236D01*
X4276702Y4661330D01*
X4276265Y4662350D01*
X4275827Y4663371D01*
X4275244Y4665266D01*
X4275098Y4666141D01*
X4274952Y4666943D01*
X4274807Y4667599D01*
X4274734Y4668255D01*
X4274661Y4668766D01*
Y4669422D01*
X4274734Y4671244D01*
X4275025Y4672994D01*
X4275463Y4674525D01*
X4275900Y4675837D01*
X4276410Y4676931D01*
X4276629Y4677368D01*
X4276775Y4677732D01*
X4276994Y4678097D01*
X4277066Y4678316D01*
X4277212Y4678389D01*
Y4678461D01*
X4278233Y4679846D01*
X4279399Y4681086D01*
X4280566Y4682179D01*
X4281732Y4683054D01*
X4282753Y4683710D01*
X4283627Y4684221D01*
X4283919Y4684366D01*
X4284138Y4684512D01*
X4284284Y4684585D01*
X4284356D01*
X4286106Y4685314D01*
X4288002Y4685824D01*
X4289751Y4686189D01*
X4291428Y4686408D01*
X4292230Y4686553D01*
X4292886Y4686626D01*
X4293542D01*
X4294052Y4686699D01*
X4294490D01*
X4294781D01*
X4295000D01*
X4295073D01*
X4296822Y4686626D01*
D02*
G37*
%LPC*%
G36*
X4246246Y4266961D02*
X4245247D01*
X4245191D01*
X4245025D01*
X4244748D01*
X4244414Y4266905D01*
X4243971D01*
X4243471Y4266850D01*
X4242306Y4266684D01*
X4241084Y4266406D01*
X4239752Y4265962D01*
X4238532Y4265351D01*
X4237921Y4265019D01*
X4237422Y4264574D01*
X4237366D01*
X4237310Y4264463D01*
X4236977Y4264131D01*
X4236589Y4263631D01*
X4236090Y4262965D01*
X4235590Y4262132D01*
X4235146Y4261133D01*
X4234868Y4260024D01*
X4234813Y4259413D01*
X4234757Y4258747D01*
Y4258414D01*
X4234813Y4258136D01*
X4234868Y4257526D01*
X4235091Y4256694D01*
X4235423Y4255750D01*
X4235868Y4254751D01*
X4236533Y4253807D01*
X4236977Y4253308D01*
X4237422Y4252864D01*
X4237477D01*
X4237533Y4252753D01*
X4237699Y4252642D01*
X4237921Y4252475D01*
X4238199Y4252309D01*
X4238532Y4252142D01*
X4238975Y4251921D01*
X4239419Y4251699D01*
X4239975Y4251476D01*
X4240529Y4251255D01*
X4241195Y4251088D01*
X4241917Y4250922D01*
X4242694Y4250755D01*
X4243526Y4250644D01*
X4244470Y4250588D01*
X4245413Y4250533D01*
X4245469D01*
X4245636D01*
X4245913D01*
X4246301Y4250588D01*
X4246745D01*
X4247245Y4250644D01*
X4248410Y4250810D01*
X4249743Y4251088D01*
X4251074Y4251532D01*
X4252351Y4252087D01*
X4252906Y4252475D01*
X4253461Y4252864D01*
Y4252919D01*
X4253572Y4252975D01*
X4253850Y4253308D01*
X4254293Y4253807D01*
X4254738Y4254474D01*
X4255237Y4255306D01*
X4255681Y4256305D01*
X4255958Y4257471D01*
X4256014Y4258081D01*
X4256069Y4258747D01*
Y4259080D01*
X4256014Y4259358D01*
X4255903Y4259968D01*
X4255736Y4260801D01*
X4255404Y4261689D01*
X4254959Y4262688D01*
X4254293Y4263631D01*
X4253850Y4264131D01*
X4253405Y4264574D01*
X4253350Y4264630D01*
X4253294Y4264685D01*
X4253128Y4264797D01*
X4252906Y4264963D01*
X4252628Y4265130D01*
X4252296Y4265351D01*
X4251851Y4265574D01*
X4251408Y4265796D01*
X4250852Y4266017D01*
X4250242Y4266184D01*
X4249576Y4266406D01*
X4248855Y4266573D01*
X4248022Y4266739D01*
X4247190Y4266850D01*
X4246246Y4266961D01*
D02*
G37*
G36*
X4246190Y4195144D02*
X4245191D01*
X4245136D01*
X4244970D01*
X4244692D01*
X4244303Y4195088D01*
X4243859D01*
X4243360Y4195033D01*
X4242194Y4194867D01*
X4240918Y4194589D01*
X4239641Y4194200D01*
X4238365Y4193645D01*
X4237755Y4193312D01*
X4237255Y4192924D01*
X4237199D01*
X4237144Y4192813D01*
X4236811Y4192535D01*
X4236422Y4192092D01*
X4235923Y4191481D01*
X4235423Y4190704D01*
X4234980Y4189816D01*
X4234702Y4188817D01*
X4234646Y4188262D01*
X4234591Y4187707D01*
Y4187430D01*
X4234646Y4187208D01*
X4234757Y4186653D01*
X4234924Y4185931D01*
X4235257Y4185099D01*
X4235757Y4184211D01*
X4236090Y4183711D01*
X4236478Y4183267D01*
X4236922Y4182823D01*
X4237422Y4182379D01*
X4237477D01*
X4237533Y4182268D01*
X4237699Y4182157D01*
X4237921Y4182046D01*
X4238254Y4181880D01*
X4238587Y4181658D01*
X4239031Y4181435D01*
X4239475Y4181269D01*
X4240030Y4181047D01*
X4240641Y4180825D01*
X4241306Y4180658D01*
X4242028Y4180436D01*
X4242860Y4180325D01*
X4243693Y4180215D01*
X4244581Y4180104D01*
X4245580D01*
X4245636D01*
X4245802D01*
X4246079D01*
X4246468Y4180159D01*
X4246912D01*
X4247412Y4180215D01*
X4248577Y4180381D01*
X4249909Y4180658D01*
X4251185Y4180992D01*
X4252462Y4181547D01*
X4253017Y4181880D01*
X4253516Y4182268D01*
X4253627Y4182379D01*
X4253905Y4182657D01*
X4254349Y4183100D01*
X4254793Y4183711D01*
X4255237Y4184488D01*
X4255681Y4185376D01*
X4255958Y4186375D01*
X4256014Y4186930D01*
X4256069Y4187485D01*
Y4187818D01*
X4256014Y4188040D01*
X4255903Y4188595D01*
X4255736Y4189372D01*
X4255404Y4190204D01*
X4254959Y4191092D01*
X4254293Y4191980D01*
X4253905Y4192425D01*
X4253461Y4192868D01*
X4253405D01*
X4253350Y4192980D01*
X4253184Y4193091D01*
X4252962Y4193202D01*
X4252684Y4193423D01*
X4252296Y4193590D01*
X4251907Y4193812D01*
X4251408Y4194034D01*
X4250908Y4194200D01*
X4250242Y4194422D01*
X4249576Y4194645D01*
X4248855Y4194811D01*
X4248022Y4194922D01*
X4247134Y4195033D01*
X4246190Y4195144D01*
D02*
G37*
G36*
X4247190Y4105345D02*
X4247134D01*
X4247023D01*
X4246801D01*
X4246524Y4105289D01*
X4246190D01*
X4245802Y4105234D01*
X4244914Y4105068D01*
X4243915Y4104846D01*
X4242860Y4104457D01*
X4241861Y4103902D01*
X4240918Y4103181D01*
X4240807Y4103069D01*
X4240529Y4102792D01*
X4240197Y4102348D01*
X4239752Y4101738D01*
X4239309Y4100961D01*
X4238975Y4100073D01*
X4238698Y4099018D01*
X4238587Y4097852D01*
Y4097520D01*
X4238642Y4097297D01*
X4238698Y4096743D01*
X4238864Y4095965D01*
X4239142Y4095133D01*
X4239586Y4094189D01*
X4240141Y4093302D01*
X4240918Y4092414D01*
X4241029Y4092302D01*
X4241306Y4092081D01*
X4241806Y4091692D01*
X4242528Y4091303D01*
X4243360Y4090915D01*
X4244414Y4090526D01*
X4245580Y4090305D01*
X4246912Y4090193D01*
X4247023D01*
X4247301D01*
X4247800Y4090249D01*
X4248410Y4090305D01*
X4249132Y4090416D01*
X4249909Y4090637D01*
X4250742Y4090860D01*
X4251574Y4091193D01*
X4251685Y4091248D01*
X4251962Y4091414D01*
X4252351Y4091637D01*
X4252850Y4091970D01*
X4253350Y4092358D01*
X4253961Y4092858D01*
X4254460Y4093412D01*
X4254959Y4094079D01*
X4255015Y4094189D01*
X4255126Y4094412D01*
X4255348Y4094800D01*
X4255515Y4095300D01*
X4255736Y4095854D01*
X4255958Y4096520D01*
X4256069Y4097242D01*
X4256125Y4098019D01*
Y4098297D01*
X4256069Y4098519D01*
X4256014Y4099074D01*
X4255847Y4099795D01*
X4255515Y4100572D01*
X4255126Y4101460D01*
X4254516Y4102348D01*
X4254182Y4102792D01*
X4253739Y4103181D01*
X4253683D01*
X4253627Y4103292D01*
X4253294Y4103514D01*
X4252739Y4103846D01*
X4252018Y4104291D01*
X4251074Y4104679D01*
X4249965Y4105012D01*
X4248688Y4105234D01*
X4247190Y4105345D01*
D02*
G37*
G36*
X4245802Y4043352D02*
X4228597D01*
X4245802Y4031253D01*
Y4043352D01*
D02*
G37*
G36*
X3805370Y4256424D02*
X3768993D01*
X3804787D01*
X3803184Y4256351D01*
X3801726Y4256060D01*
X3800486Y4255622D01*
X3799320Y4255185D01*
X3798445Y4254748D01*
X3797789Y4254310D01*
X3797352Y4254019D01*
X3797206Y4253946D01*
X3796039Y4252925D01*
X3795092Y4251832D01*
X3794290Y4250592D01*
X3793634Y4249499D01*
X3793123Y4248478D01*
X3792832Y4247603D01*
X3792686Y4247312D01*
X3792613Y4247093D01*
X3792540Y4246947D01*
Y4246874D01*
X3791811Y4248114D01*
X3791082Y4249207D01*
X3790280Y4250082D01*
X3789551Y4250811D01*
X3788968Y4251394D01*
X3788385Y4251832D01*
X3788093Y4252050D01*
X3787947Y4252123D01*
X3786854Y4252706D01*
X3785833Y4253144D01*
X3784813Y4253508D01*
X3783865Y4253727D01*
X3783063Y4253873D01*
X3782407Y4253946D01*
X3782043D01*
X3781897D01*
X3780657Y4253873D01*
X3779418Y4253654D01*
X3778325Y4253289D01*
X3777304Y4252925D01*
X3776429Y4252560D01*
X3775846Y4252196D01*
X3775409Y4251977D01*
X3775263Y4251904D01*
X3774169Y4251102D01*
X3773149Y4250228D01*
X3772347Y4249280D01*
X3771691Y4248405D01*
X3771180Y4247676D01*
X3770816Y4247020D01*
X3770597Y4246583D01*
X3770524Y4246510D01*
Y4246437D01*
X3770014Y4245052D01*
X3769649Y4243521D01*
X3769358Y4241990D01*
X3769212Y4240532D01*
X3769066Y4239220D01*
Y4238637D01*
X3768993Y4238126D01*
Y4218297D01*
X3819440D01*
Y4237543D01*
X3819367Y4239293D01*
X3819294Y4240824D01*
X3819149Y4242209D01*
X3819003Y4243375D01*
X3818857Y4244323D01*
X3818784Y4245052D01*
X3818638Y4245489D01*
Y4245635D01*
X3818274Y4246874D01*
X3817909Y4247895D01*
X3817472Y4248843D01*
X3817035Y4249645D01*
X3816743Y4250301D01*
X3816451Y4250811D01*
X3816233Y4251102D01*
X3816160Y4251175D01*
X3815504Y4251977D01*
X3814702Y4252706D01*
X3813900Y4253289D01*
X3813171Y4253873D01*
X3812442Y4254310D01*
X3811932Y4254602D01*
X3811567Y4254820D01*
X3811421Y4254893D01*
X3810255Y4255404D01*
X3809088Y4255768D01*
X3807995Y4256060D01*
X3806974Y4256206D01*
X3806099Y4256351D01*
X3805370Y4256424D01*
D02*
G37*
G36*
X3819440Y4207946D02*
X3768993D01*
Y4176234D01*
Y4201749D01*
X3787073D01*
X3786271Y4201093D01*
X3785615Y4200364D01*
X3784959Y4199708D01*
X3784448Y4198979D01*
X3784084Y4198396D01*
X3783719Y4197958D01*
X3783573Y4197667D01*
X3783501Y4197521D01*
X3782990Y4196573D01*
X3782626Y4195553D01*
X3782407Y4194532D01*
X3782188Y4193584D01*
X3782115Y4192783D01*
X3782043Y4192199D01*
Y4191616D01*
X3782115Y4190012D01*
X3782407Y4188481D01*
X3782771Y4187096D01*
X3783209Y4185930D01*
X3783719Y4184909D01*
X3784084Y4184180D01*
X3784229Y4183889D01*
X3784375Y4183670D01*
X3784448Y4183597D01*
Y4183524D01*
X3785396Y4182212D01*
X3786562Y4181118D01*
X3787656Y4180171D01*
X3788749Y4179442D01*
X3789770Y4178859D01*
X3790572Y4178421D01*
X3790863Y4178275D01*
X3791082Y4178130D01*
X3791228Y4178057D01*
X3791301D01*
X3792977Y4177474D01*
X3794727Y4177036D01*
X3796404Y4176672D01*
X3797935Y4176453D01*
X3799247Y4176307D01*
X3799830D01*
X3800267Y4176234D01*
X3768993D01*
X3820242D01*
X3801215D01*
X3803256Y4176307D01*
X3805152Y4176526D01*
X3806829Y4176890D01*
X3808287Y4177255D01*
X3808943Y4177401D01*
X3809453Y4177546D01*
X3809963Y4177765D01*
X3810401Y4177911D01*
X3810692Y4178057D01*
X3810911Y4178130D01*
X3811057Y4178203D01*
X3811130D01*
X3812660Y4179004D01*
X3813973Y4179952D01*
X3815139Y4180900D01*
X3816087Y4181847D01*
X3816816Y4182649D01*
X3817399Y4183306D01*
X3817691Y4183743D01*
X3817836Y4183816D01*
Y4183889D01*
X3818638Y4185274D01*
X3819222Y4186659D01*
X3819659Y4188044D01*
X3819950Y4189283D01*
X3820096Y4190304D01*
X3820169Y4191179D01*
X3820242Y4191470D01*
Y4191908D01*
X3820169Y4193147D01*
X3820023Y4194313D01*
X3819732Y4195407D01*
X3819367Y4196355D01*
X3819003Y4197302D01*
X3818565Y4198177D01*
X3818055Y4198906D01*
X3817545Y4199562D01*
X3817035Y4200218D01*
X3816524Y4200729D01*
X3816087Y4201166D01*
X3815722Y4201530D01*
X3815358Y4201822D01*
X3815066Y4202041D01*
X3814920Y4202114D01*
X3814847Y4202187D01*
X3819440D01*
Y4207946D01*
D02*
G37*
G36*
X3820315Y4170548D02*
X3793196D01*
X3791884Y4170475D01*
X3790718D01*
X3789551Y4170402D01*
X3788531Y4170256D01*
X3787510Y4170184D01*
X3786635Y4170111D01*
X3785833Y4169965D01*
X3785104Y4169892D01*
X3784448Y4169746D01*
X3783938Y4169673D01*
X3783501Y4169600D01*
X3783136Y4169527D01*
X3782917Y4169454D01*
X3782771Y4169382D01*
X3782699D01*
X3781095Y4168944D01*
X3779637Y4168434D01*
X3778398Y4167851D01*
X3777304Y4167413D01*
X3776356Y4166903D01*
X3775700Y4166611D01*
X3775336Y4166320D01*
X3775190Y4166247D01*
X3774096Y4165445D01*
X3773149Y4164643D01*
X3772347Y4163768D01*
X3771618Y4162966D01*
X3771108Y4162237D01*
X3770743Y4161654D01*
X3770524Y4161290D01*
X3770451Y4161217D01*
Y4161144D01*
X3769868Y4159977D01*
X3769504Y4158738D01*
X3769212Y4157572D01*
X3768993Y4156478D01*
X3768848Y4155531D01*
X3768775Y4154729D01*
Y4170548D01*
Y4137597D01*
D01*
Y4154073D01*
X3768921Y4152104D01*
X3769212Y4150282D01*
X3769722Y4148751D01*
X3770233Y4147439D01*
X3770816Y4146345D01*
X3771035Y4145908D01*
X3771326Y4145543D01*
X3771472Y4145252D01*
X3771618Y4145033D01*
X3771764Y4144960D01*
Y4144887D01*
X3772930Y4143575D01*
X3774315Y4142481D01*
X3775700Y4141534D01*
X3777012Y4140805D01*
X3778252Y4140222D01*
X3778762Y4139930D01*
X3779272Y4139784D01*
X3779637Y4139638D01*
X3779928Y4139493D01*
X3780074Y4139420D01*
X3780147D01*
X3781241Y4139128D01*
X3782334Y4138837D01*
X3784740Y4138399D01*
X3787146Y4138035D01*
X3789405Y4137816D01*
X3790499Y4137743D01*
X3791447Y4137670D01*
X3792321D01*
X3793123Y4137597D01*
X3768775D01*
X3794581D01*
X3797133Y4137670D01*
X3799539Y4137816D01*
X3801726Y4138035D01*
X3803767Y4138399D01*
X3805662Y4138764D01*
X3807339Y4139201D01*
X3808870Y4139638D01*
X3810182Y4140076D01*
X3811348Y4140513D01*
X3812369Y4141024D01*
X3813244Y4141388D01*
X3813900Y4141752D01*
X3814483Y4142117D01*
X3814847Y4142336D01*
X3815066Y4142481D01*
X3815139Y4142554D01*
X3816014Y4143356D01*
X3816816Y4144231D01*
X3817545Y4145179D01*
X3818128Y4146127D01*
X3818638Y4147074D01*
X3819076Y4148022D01*
X3819367Y4148970D01*
X3819659Y4149844D01*
X3819878Y4150719D01*
X3820023Y4151521D01*
X3820169Y4152250D01*
X3820242Y4152833D01*
X3820315Y4153344D01*
Y4154510D01*
Y4154073D01*
X3820169Y4156041D01*
X3819878Y4157863D01*
X3819367Y4159394D01*
X3818857Y4160707D01*
X3818347Y4161800D01*
X3818055Y4162164D01*
X3817836Y4162529D01*
X3817691Y4162821D01*
X3817545Y4163039D01*
X3817399Y4163112D01*
Y4163185D01*
X3816160Y4164497D01*
X3814847Y4165591D01*
X3813390Y4166538D01*
X3812077Y4167267D01*
X3810838Y4167851D01*
X3810328Y4168142D01*
X3809817Y4168288D01*
X3809453Y4168434D01*
X3809161Y4168580D01*
X3809015Y4168653D01*
X3808943D01*
X3807849Y4169017D01*
X3806756Y4169309D01*
X3804423Y4169746D01*
X3802017Y4170111D01*
X3799684Y4170329D01*
X3798664Y4170402D01*
X3797716Y4170475D01*
X3796841D01*
X3796039Y4170548D01*
X3820315D01*
D02*
G37*
G36*
X3819440Y4121705D02*
X3768775D01*
Y4103115D01*
Y4117695D01*
X3770014Y4116967D01*
X3771180Y4116165D01*
X3772347Y4115217D01*
X3773367Y4114342D01*
X3774242Y4113467D01*
X3774971Y4112811D01*
X3775190Y4112520D01*
X3775409Y4112301D01*
X3775481Y4112228D01*
X3775554Y4112155D01*
X3776794Y4110624D01*
X3777960Y4109093D01*
X3778981Y4107635D01*
X3779783Y4106177D01*
X3780512Y4104938D01*
X3780803Y4104428D01*
X3781022Y4103990D01*
X3781241Y4103626D01*
X3781314Y4103334D01*
X3781459Y4103188D01*
Y4103115D01*
X3787437D01*
X3787000Y4104209D01*
X3786489Y4105302D01*
X3785979Y4106396D01*
X3785469Y4107417D01*
X3785031Y4108291D01*
X3784667Y4109020D01*
X3784375Y4109458D01*
X3784302Y4109531D01*
Y4109604D01*
X3783501Y4110916D01*
X3782699Y4112082D01*
X3781970Y4113103D01*
X3781314Y4113905D01*
X3780803Y4114634D01*
X3780366Y4115071D01*
X3780074Y4115436D01*
X3780001Y4115508D01*
X3819440D01*
Y4121705D01*
D02*
G37*
G36*
Y4070092D02*
X3768993D01*
Y4030361D01*
X3819440D01*
Y4036776D01*
X3779856D01*
X3819440Y4063166D01*
Y4070092D01*
D02*
G37*
G36*
Y4021176D02*
X3813462D01*
Y3990193D01*
X3796331D01*
Y4018114D01*
X3790353D01*
Y3990193D01*
X3774971D01*
Y4020010D01*
X3768993D01*
Y3983487D01*
X3819440D01*
Y4021176D01*
D02*
G37*
G36*
Y3976488D02*
X3768993D01*
Y3936539D01*
X3774971D01*
Y3953160D01*
X3819440D01*
Y3959867D01*
X3774971D01*
Y3976488D01*
X3819440D01*
D02*
G37*
G36*
Y3933404D02*
X3768993D01*
Y3893455D01*
X3774971D01*
Y3910076D01*
X3819440D01*
Y3916783D01*
X3774971D01*
Y3933404D01*
X3819440D01*
D02*
G37*
G36*
Y3891851D02*
X3768993Y3871221D01*
Y3891851D01*
X3819440D01*
X3768993D01*
Y3844685D01*
D01*
Y3863931D01*
X3819440Y3844685D01*
Y3851756D01*
X3804131Y3857224D01*
Y3878365D01*
X3819440Y3884270D01*
Y3891851D01*
D02*
G37*
%LPD*%
G36*
X3805662Y4249499D02*
X3806537Y4249426D01*
X3807266Y4249280D01*
X3807849Y4249061D01*
X3808359Y4248843D01*
X3808797Y4248697D01*
X3809015Y4248624D01*
X3809088Y4248551D01*
X3809744Y4248114D01*
X3810328Y4247749D01*
X3810765Y4247239D01*
X3811202Y4246874D01*
X3811494Y4246510D01*
X3811713Y4246218D01*
X3811859Y4245999D01*
X3811932Y4245927D01*
X3812515Y4244687D01*
X3812952Y4243448D01*
X3813098Y4242938D01*
X3813171Y4242500D01*
X3813244Y4242209D01*
Y4242136D01*
X3813317Y4241553D01*
X3813390Y4240896D01*
X3813462Y4239366D01*
Y4225004D01*
X3796112D01*
Y4238272D01*
X3796258Y4239803D01*
X3796404Y4241042D01*
X3796550Y4242063D01*
X3796695Y4242865D01*
X3796841Y4243521D01*
X3796914Y4243812D01*
X3796987Y4243958D01*
X3797352Y4244906D01*
X3797789Y4245708D01*
X3798299Y4246437D01*
X3798809Y4247020D01*
X3799247Y4247458D01*
X3799611Y4247749D01*
X3799903Y4247968D01*
X3799976Y4248041D01*
X3800778Y4248551D01*
X3801580Y4248916D01*
X3802382Y4249207D01*
X3803111Y4249353D01*
X3803767Y4249499D01*
X3804350Y4249572D01*
X3804642D01*
X3804787D01*
X3805662Y4249499D01*
D02*
G37*
G36*
X3783646Y4247312D02*
X3784521Y4247166D01*
X3785250Y4246947D01*
X3785833Y4246729D01*
X3786344Y4246510D01*
X3786781Y4246291D01*
X3787000Y4246145D01*
X3787073Y4246072D01*
X3787656Y4245562D01*
X3788239Y4244906D01*
X3788676Y4244250D01*
X3788968Y4243667D01*
X3789260Y4243083D01*
X3789478Y4242646D01*
X3789551Y4242355D01*
X3789624Y4242209D01*
X3789770Y4241407D01*
X3789916Y4240386D01*
X3789989Y4239366D01*
X3790061Y4238345D01*
X3790134Y4237397D01*
Y4225004D01*
X3774971D01*
Y4236960D01*
X3775117Y4238564D01*
X3775190Y4239803D01*
X3775336Y4240896D01*
X3775481Y4241698D01*
X3775554Y4242209D01*
X3775700Y4242573D01*
Y4242646D01*
X3775992Y4243448D01*
X3776429Y4244177D01*
X3776867Y4244760D01*
X3777304Y4245270D01*
X3777669Y4245635D01*
X3778033Y4245927D01*
X3778252Y4246072D01*
X3778325Y4246145D01*
X3779054Y4246583D01*
X3779783Y4246874D01*
X3780512Y4247093D01*
X3781241Y4247239D01*
X3781824Y4247312D01*
X3782261Y4247385D01*
X3782553D01*
X3782699D01*
X3783646Y4247312D01*
D02*
G37*
G36*
X3804131Y4202187D02*
X3805152Y4202041D01*
X3806172Y4201895D01*
X3807047Y4201676D01*
X3807922Y4201385D01*
X3808651Y4201166D01*
X3809307Y4200874D01*
X3809890Y4200583D01*
X3810474Y4200364D01*
X3810838Y4200073D01*
X3811202Y4199854D01*
X3811494Y4199708D01*
X3811713Y4199562D01*
X3811786Y4199416D01*
X3811859D01*
X3812442Y4198906D01*
X3812952Y4198323D01*
X3813754Y4197157D01*
X3814337Y4195990D01*
X3814702Y4194897D01*
X3814993Y4193949D01*
X3815066Y4193147D01*
X3815139Y4192855D01*
Y4192491D01*
X3815066Y4191762D01*
X3814993Y4191033D01*
X3814629Y4189721D01*
X3814046Y4188481D01*
X3813390Y4187461D01*
X3812806Y4186659D01*
X3812223Y4186003D01*
X3811859Y4185638D01*
X3811713Y4185565D01*
Y4185493D01*
X3810984Y4184982D01*
X3810255Y4184545D01*
X3808578Y4183816D01*
X3806829Y4183306D01*
X3805152Y4182941D01*
X3803621Y4182722D01*
X3802965Y4182649D01*
X3802382D01*
X3801871Y4182577D01*
X3801507D01*
X3801288D01*
X3801215D01*
X3799903D01*
X3798664Y4182722D01*
X3797497Y4182868D01*
X3796477Y4183014D01*
X3795529Y4183233D01*
X3794654Y4183451D01*
X3793852Y4183670D01*
X3793123Y4183962D01*
X3792540Y4184253D01*
X3792030Y4184472D01*
X3791592Y4184691D01*
X3791228Y4184909D01*
X3790936Y4185128D01*
X3790718Y4185201D01*
X3790645Y4185347D01*
X3790572D01*
X3789989Y4185857D01*
X3789405Y4186440D01*
X3788604Y4187607D01*
X3787947Y4188773D01*
X3787583Y4189867D01*
X3787291Y4190814D01*
X3787218Y4191616D01*
X3787146Y4191908D01*
Y4192272D01*
X3787218Y4193074D01*
X3787291Y4193803D01*
X3787729Y4195188D01*
X3788239Y4196427D01*
X3788895Y4197448D01*
X3789551Y4198250D01*
X3790134Y4198906D01*
X3790572Y4199271D01*
X3790645Y4199416D01*
X3790718D01*
X3791447Y4199927D01*
X3792176Y4200364D01*
X3793925Y4201093D01*
X3795748Y4201603D01*
X3797497Y4201968D01*
X3798372Y4202114D01*
X3799174Y4202187D01*
X3799903Y4202260D01*
X3800486D01*
X3800997Y4202332D01*
X3801361D01*
X3801653D01*
X3801726D01*
X3802965D01*
X3804131Y4202187D01*
D02*
G37*
G36*
X3798882Y4164060D02*
X3800705Y4163914D01*
X3802454Y4163768D01*
X3803912Y4163550D01*
X3805298Y4163258D01*
X3806464Y4162966D01*
X3807557Y4162748D01*
X3808432Y4162456D01*
X3809161Y4162164D01*
X3809817Y4161946D01*
X3810328Y4161654D01*
X3810692Y4161508D01*
X3810911Y4161363D01*
X3811057Y4161217D01*
X3811130D01*
X3811859Y4160634D01*
X3812442Y4160050D01*
X3813025Y4159467D01*
X3813462Y4158884D01*
X3814191Y4157645D01*
X3814702Y4156551D01*
X3814993Y4155531D01*
X3815139Y4154802D01*
X3815212Y4154510D01*
Y4154073D01*
X3815139Y4153271D01*
X3815066Y4152542D01*
X3814556Y4151157D01*
X3813900Y4149917D01*
X3813171Y4148824D01*
X3812442Y4148022D01*
X3811786Y4147366D01*
X3811275Y4147001D01*
X3811202Y4146855D01*
X3811130D01*
X3810255Y4146345D01*
X3809234Y4145908D01*
X3808068Y4145470D01*
X3806829Y4145179D01*
X3805516Y4144887D01*
X3804131Y4144668D01*
X3801288Y4144304D01*
X3799976Y4144158D01*
X3798737Y4144085D01*
X3797570Y4144012D01*
X3796622D01*
X3795748Y4143940D01*
X3795092D01*
X3794727D01*
X3794581D01*
X3792321Y4144012D01*
X3790280Y4144085D01*
X3788385Y4144231D01*
X3786635Y4144450D01*
X3785104Y4144668D01*
X3783719Y4144960D01*
X3782480Y4145252D01*
X3781386Y4145543D01*
X3780439Y4145835D01*
X3779637Y4146054D01*
X3778981Y4146345D01*
X3778398Y4146564D01*
X3778033Y4146783D01*
X3777741Y4146928D01*
X3777596Y4147074D01*
X3777523D01*
X3776867Y4147584D01*
X3776283Y4148095D01*
X3775846Y4148678D01*
X3775409Y4149261D01*
X3774753Y4150428D01*
X3774315Y4151521D01*
X3774096Y4152469D01*
X3773951Y4153271D01*
X3773878Y4153562D01*
Y4154000D01*
X3773951Y4154802D01*
X3774023Y4155604D01*
X3774242Y4156333D01*
X3774534Y4156989D01*
X3775190Y4158228D01*
X3775919Y4159321D01*
X3776721Y4160123D01*
X3777377Y4160779D01*
X3777669Y4160998D01*
X3777887Y4161144D01*
X3777960Y4161290D01*
X3778033D01*
X3778908Y4161800D01*
X3779928Y4162237D01*
X3781095Y4162675D01*
X3782334Y4162966D01*
X3783646Y4163258D01*
X3785031Y4163477D01*
X3787802Y4163841D01*
X3789187Y4163987D01*
X3790426Y4164060D01*
X3791592Y4164133D01*
X3792540D01*
X3793415Y4164206D01*
X3794071D01*
X3794436D01*
X3794508D01*
X3794581D01*
X3796841D01*
X3798882Y4164060D01*
D02*
G37*
G36*
X3768993Y4037214D02*
Y4063677D01*
X3808651D01*
X3768993Y4037214D01*
D02*
G37*
G36*
X3798664Y3859192D02*
X3783938Y3864660D01*
X3782115Y3865316D01*
X3780366Y3865826D01*
X3778762Y3866336D01*
X3777304Y3866701D01*
X3776065Y3866992D01*
X3775554Y3867138D01*
X3775044Y3867211D01*
X3774753Y3867357D01*
X3774461D01*
X3774315Y3867430D01*
X3774242D01*
X3775919Y3867940D01*
X3777669Y3868523D01*
X3779418Y3869106D01*
X3781095Y3869690D01*
X3781824Y3869981D01*
X3782553Y3870200D01*
X3783209Y3870419D01*
X3783719Y3870637D01*
X3784157Y3870783D01*
X3784521Y3870929D01*
X3784740Y3871002D01*
X3784813D01*
X3798664Y3876251D01*
Y3859192D01*
D02*
G37*
%LPC*%
G36*
X4294458Y4394846D02*
X4282359D01*
Y4382137D01*
X4293792D01*
X4294458Y4382192D01*
X4295235Y4382248D01*
X4296123Y4382303D01*
X4297011Y4382414D01*
X4297899Y4382581D01*
X4298676Y4382803D01*
X4298787Y4382858D01*
X4299009Y4382969D01*
X4299342Y4383136D01*
X4299786Y4383358D01*
X4300285Y4383691D01*
X4300785Y4384079D01*
X4301284Y4384579D01*
X4301673Y4385134D01*
X4301728Y4385189D01*
X4301839Y4385411D01*
X4302006Y4385744D01*
X4302228Y4386188D01*
X4302394Y4386688D01*
X4302561Y4387243D01*
X4302672Y4387909D01*
X4302727Y4388575D01*
Y4388630D01*
Y4388686D01*
X4302672Y4389019D01*
X4302616Y4389518D01*
X4302505Y4390184D01*
X4302228Y4390850D01*
X4301895Y4391627D01*
X4301395Y4392349D01*
X4300729Y4393070D01*
X4300618Y4393126D01*
X4300341Y4393348D01*
X4299897Y4393625D01*
X4299175Y4393958D01*
X4298343Y4394291D01*
X4297233Y4394569D01*
X4295956Y4394791D01*
X4294458Y4394846D01*
D02*
G37*
G36*
X4366425Y3722727D02*
X4366370D01*
X4366314D01*
X4365981Y3722672D01*
X4365482Y3722616D01*
X4364816Y3722505D01*
X4364150Y3722228D01*
X4363373Y3721895D01*
X4362651Y3721395D01*
X4361930Y3720729D01*
X4361874Y3720618D01*
X4361652Y3720341D01*
X4361375Y3719897D01*
X4361042Y3719175D01*
X4360709Y3718343D01*
X4360431Y3717233D01*
X4360209Y3715956D01*
X4360154Y3714458D01*
Y3702359D01*
X4372863D01*
Y3713792D01*
X4372808Y3714458D01*
X4372752Y3715235D01*
X4372697Y3716123D01*
X4372586Y3717011D01*
X4372419Y3717899D01*
X4372197Y3718676D01*
X4372142Y3718787D01*
X4372031Y3719009D01*
X4371864Y3719342D01*
X4371642Y3719786D01*
X4371309Y3720285D01*
X4370921Y3720785D01*
X4370421Y3721284D01*
X4369866Y3721673D01*
X4369811Y3721728D01*
X4369589Y3721839D01*
X4369256Y3722006D01*
X4368812Y3722228D01*
X4368312Y3722394D01*
X4367757Y3722561D01*
X4367091Y3722672D01*
X4366425Y3722727D01*
D02*
G37*
G36*
X3841237Y3744952D02*
X3841182D01*
X3841127D01*
X3840800Y3744898D01*
X3840308Y3744843D01*
X3839653Y3744734D01*
X3838998Y3744461D01*
X3838234Y3744133D01*
X3837524Y3743642D01*
X3836814Y3742986D01*
X3836759Y3742877D01*
X3836541Y3742604D01*
X3836268Y3742168D01*
X3835940Y3741458D01*
X3835613Y3740639D01*
X3835340Y3739547D01*
X3835121Y3738291D01*
X3835067Y3736817D01*
Y3724914D01*
X3847570D01*
Y3736162D01*
X3847516Y3736817D01*
X3847461Y3737581D01*
X3847406Y3738455D01*
X3847297Y3739328D01*
X3847133Y3740202D01*
X3846915Y3740966D01*
X3846860Y3741075D01*
X3846751Y3741294D01*
X3846587Y3741622D01*
X3846369Y3742058D01*
X3846041Y3742550D01*
X3845659Y3743041D01*
X3845168Y3743532D01*
X3844622Y3743915D01*
X3844567Y3743969D01*
X3844349Y3744079D01*
X3844021Y3744242D01*
X3843584Y3744461D01*
X3843093Y3744624D01*
X3842547Y3744788D01*
X3841892Y3744898D01*
X3841237Y3744952D01*
D02*
G37*
G36*
X3843257Y3678886D02*
X3843202D01*
X3843093D01*
X3842875D01*
X3842602Y3678831D01*
X3842219D01*
X3841837Y3678777D01*
X3840964Y3678613D01*
X3839926Y3678395D01*
X3838834Y3678012D01*
X3837797Y3677466D01*
X3836869Y3676757D01*
X3836814D01*
X3836759Y3676648D01*
X3836486Y3676374D01*
X3836104Y3675938D01*
X3835667Y3675337D01*
X3835285Y3674573D01*
X3834903Y3673699D01*
X3834630Y3672716D01*
X3834521Y3672170D01*
Y3671297D01*
X3834575Y3671078D01*
X3834630Y3670478D01*
X3834848Y3669768D01*
X3835121Y3668894D01*
X3835613Y3667966D01*
X3836213Y3667038D01*
X3836650Y3666601D01*
X3837087Y3666164D01*
X3837142D01*
X3837196Y3666055D01*
X3837360Y3665946D01*
X3837524Y3665837D01*
X3838070Y3665454D01*
X3838834Y3665072D01*
X3839762Y3664635D01*
X3840909Y3664253D01*
X3842219Y3664035D01*
X3843639Y3663926D01*
X3843694D01*
X3843803D01*
X3843967D01*
X3844240Y3663980D01*
X3844567D01*
X3844895Y3664035D01*
X3845714Y3664199D01*
X3846642Y3664472D01*
X3847625Y3664799D01*
X3848608Y3665345D01*
X3849481Y3666055D01*
X3849590Y3666164D01*
X3849809Y3666437D01*
X3850191Y3666929D01*
X3850573Y3667529D01*
X3851010Y3668348D01*
X3851392Y3669276D01*
X3851611Y3670314D01*
X3851720Y3671461D01*
Y3671788D01*
X3851665Y3672006D01*
X3851611Y3672607D01*
X3851447Y3673317D01*
X3851174Y3674191D01*
X3850792Y3675064D01*
X3850246Y3675938D01*
X3849481Y3676757D01*
X3849372Y3676866D01*
X3849044Y3677084D01*
X3848553Y3677412D01*
X3847843Y3677849D01*
X3846970Y3678231D01*
X3845932Y3678559D01*
X3844676Y3678777D01*
X3843257Y3678886D01*
D02*
G37*
G36*
X4036382Y4585734D02*
X4035494D01*
X4035272Y4585679D01*
X4034662Y4585623D01*
X4033940Y4585401D01*
X4033052Y4585124D01*
X4032108Y4584624D01*
X4031165Y4584014D01*
X4030721Y4583570D01*
X4030277Y4583126D01*
Y4583070D01*
X4030166Y4583015D01*
X4030055Y4582848D01*
X4029944Y4582682D01*
X4029555Y4582127D01*
X4029167Y4581350D01*
X4028723Y4580406D01*
X4028334Y4579241D01*
X4028113Y4577909D01*
X4028001Y4576466D01*
Y4576410D01*
Y4576299D01*
Y4576133D01*
X4028057Y4575855D01*
Y4575522D01*
X4028113Y4575189D01*
X4028279Y4574357D01*
X4028557Y4573413D01*
X4028890Y4572414D01*
X4029445Y4571415D01*
X4030166Y4570527D01*
X4030277Y4570416D01*
X4030555Y4570194D01*
X4031054Y4569806D01*
X4031664Y4569417D01*
X4032497Y4568973D01*
X4033441Y4568585D01*
X4034495Y4568363D01*
X4035660Y4568252D01*
X4035994D01*
X4036215Y4568307D01*
X4036826Y4568363D01*
X4037548Y4568529D01*
X4038436Y4568807D01*
X4039323Y4569195D01*
X4040211Y4569750D01*
X4041044Y4570527D01*
X4041155Y4570638D01*
X4041377Y4570971D01*
X4041710Y4571471D01*
X4042154Y4572192D01*
X4042543Y4573080D01*
X4042876Y4574135D01*
X4043097Y4575411D01*
X4043209Y4576854D01*
Y4576910D01*
Y4577021D01*
Y4577243D01*
X4043153Y4577520D01*
Y4577909D01*
X4043097Y4578297D01*
X4042931Y4579185D01*
X4042709Y4580240D01*
X4042320Y4581350D01*
X4041765Y4582404D01*
X4041044Y4583348D01*
Y4583403D01*
X4040933Y4583459D01*
X4040655Y4583736D01*
X4040211Y4584125D01*
X4039601Y4584569D01*
X4038824Y4584957D01*
X4037936Y4585346D01*
X4036937Y4585623D01*
X4036382Y4585734D01*
D02*
G37*
G36*
X4102094Y4585179D02*
X4089995D01*
Y4572470D01*
X4101428D01*
X4102094Y4572525D01*
X4102871Y4572581D01*
X4103759Y4572636D01*
X4104647Y4572747D01*
X4105535Y4572914D01*
X4106312Y4573136D01*
X4106423Y4573191D01*
X4106645Y4573302D01*
X4106978Y4573469D01*
X4107422Y4573691D01*
X4107922Y4574024D01*
X4108421Y4574412D01*
X4108921Y4574912D01*
X4109309Y4575467D01*
X4109364Y4575522D01*
X4109475Y4575744D01*
X4109642Y4576077D01*
X4109864Y4576521D01*
X4110030Y4577021D01*
X4110197Y4577576D01*
X4110308Y4578242D01*
X4110364Y4578908D01*
Y4578963D01*
Y4579019D01*
X4110308Y4579352D01*
X4110252Y4579851D01*
X4110141Y4580517D01*
X4109864Y4581183D01*
X4109531Y4581960D01*
X4109032Y4582682D01*
X4108365Y4583403D01*
X4108255Y4583459D01*
X4107977Y4583681D01*
X4107533Y4583958D01*
X4106811Y4584291D01*
X4105979Y4584624D01*
X4104869Y4584902D01*
X4103592Y4585124D01*
X4102094Y4585179D01*
D02*
G37*
G36*
X4131092Y4274223D02*
X4131037D01*
X4130981D01*
X4130648Y4274167D01*
X4130149Y4274112D01*
X4129483Y4274001D01*
X4128817Y4273724D01*
X4128040Y4273391D01*
X4127318Y4272891D01*
X4126597Y4272225D01*
X4126541Y4272114D01*
X4126319Y4271837D01*
X4126042Y4271392D01*
X4125709Y4270671D01*
X4125376Y4269838D01*
X4125098Y4268729D01*
X4124876Y4267452D01*
X4124821Y4265953D01*
Y4253855D01*
X4137530D01*
Y4265288D01*
X4137475Y4265953D01*
X4137419Y4266730D01*
X4137364Y4267618D01*
X4137253Y4268507D01*
X4137086Y4269395D01*
X4136864Y4270172D01*
X4136809Y4270283D01*
X4136698Y4270505D01*
X4136531Y4270837D01*
X4136309Y4271282D01*
X4135976Y4271781D01*
X4135588Y4272280D01*
X4135088Y4272780D01*
X4134533Y4273168D01*
X4134478Y4273224D01*
X4134256Y4273335D01*
X4133923Y4273502D01*
X4133479Y4273724D01*
X4132979Y4273890D01*
X4132424Y4274056D01*
X4131758Y4274167D01*
X4131092Y4274223D01*
D02*
G37*
G36*
X4141748Y4237149D02*
X4140028D01*
X4139972D01*
X4139917D01*
X4139639D01*
X4139140D01*
X4138474Y4237093D01*
X4137752D01*
X4136864Y4237038D01*
X4135921Y4236983D01*
X4134866Y4236872D01*
X4132757Y4236594D01*
X4131703Y4236427D01*
X4130704Y4236206D01*
X4129760Y4235984D01*
X4128872Y4235650D01*
X4128095Y4235318D01*
X4127429Y4234929D01*
X4127374D01*
X4127318Y4234818D01*
X4127152Y4234707D01*
X4126930Y4234541D01*
X4126430Y4234041D01*
X4125820Y4233431D01*
X4125265Y4232598D01*
X4124765Y4231654D01*
X4124543Y4231155D01*
X4124377Y4230600D01*
X4124321Y4229989D01*
X4124266Y4229379D01*
Y4229046D01*
X4124321Y4228824D01*
X4124432Y4228213D01*
X4124599Y4227492D01*
X4124932Y4226659D01*
X4125431Y4225771D01*
X4125764Y4225328D01*
X4126097Y4224883D01*
X4126541Y4224495D01*
X4127041Y4224106D01*
X4127096D01*
X4127207Y4223995D01*
X4127429Y4223885D01*
X4127707Y4223718D01*
X4128151Y4223551D01*
X4128650Y4223329D01*
X4129261Y4223163D01*
X4129982Y4222941D01*
X4130815Y4222719D01*
X4131758Y4222497D01*
X4132813Y4222275D01*
X4133978Y4222109D01*
X4135310Y4221942D01*
X4136753Y4221831D01*
X4138307Y4221775D01*
X4140028Y4221720D01*
X4140139D01*
X4140416D01*
X4140916D01*
X4141582Y4221775D01*
X4142303D01*
X4143191Y4221831D01*
X4144135Y4221886D01*
X4145134Y4221998D01*
X4147298Y4222275D01*
X4148353Y4222441D01*
X4149352Y4222663D01*
X4150295Y4222886D01*
X4151183Y4223218D01*
X4151960Y4223551D01*
X4152626Y4223940D01*
X4152682D01*
X4152737Y4224051D01*
X4153126Y4224328D01*
X4153625Y4224828D01*
X4154180Y4225439D01*
X4154735Y4226271D01*
X4155235Y4227215D01*
X4155623Y4228269D01*
X4155679Y4228824D01*
X4155734Y4229435D01*
Y4229767D01*
X4155679Y4229989D01*
X4155568Y4230544D01*
X4155346Y4231322D01*
X4154957Y4232154D01*
X4154402Y4233097D01*
X4154069Y4233542D01*
X4153625Y4233985D01*
X4153181Y4234430D01*
X4152626Y4234873D01*
X4152571D01*
X4152460Y4234984D01*
X4152293Y4235096D01*
X4152016Y4235207D01*
X4151627Y4235428D01*
X4151128Y4235595D01*
X4150573Y4235817D01*
X4149907Y4236039D01*
X4149074Y4236206D01*
X4148186Y4236427D01*
X4147132Y4236650D01*
X4146022Y4236816D01*
X4144690Y4236927D01*
X4143302Y4237038D01*
X4141748Y4237149D01*
D02*
G37*
G36*
X4136092Y4104503D02*
X4136037D01*
X4135981D01*
X4135648Y4104448D01*
X4135149Y4104392D01*
X4134483Y4104281D01*
X4133817Y4104004D01*
X4133040Y4103671D01*
X4132318Y4103171D01*
X4131597Y4102505D01*
X4131541Y4102394D01*
X4131319Y4102117D01*
X4131042Y4101673D01*
X4130709Y4100951D01*
X4130376Y4100119D01*
X4130098Y4099009D01*
X4129876Y4097732D01*
X4129821Y4096234D01*
Y4084135D01*
X4142530D01*
Y4095568D01*
X4142475Y4096234D01*
X4142419Y4097011D01*
X4142364Y4097899D01*
X4142253Y4098787D01*
X4142086Y4099675D01*
X4141864Y4100452D01*
X4141809Y4100563D01*
X4141698Y4100785D01*
X4141531Y4101118D01*
X4141309Y4101562D01*
X4140976Y4102061D01*
X4140588Y4102561D01*
X4140088Y4103060D01*
X4139533Y4103449D01*
X4139478Y4103504D01*
X4139256Y4103615D01*
X4138923Y4103782D01*
X4138479Y4104004D01*
X4137979Y4104170D01*
X4137424Y4104337D01*
X4136758Y4104448D01*
X4136092Y4104503D01*
D02*
G37*
G36*
Y3924572D02*
X4136037D01*
X4135981D01*
X4135648Y3924516D01*
X4135149Y3924461D01*
X4134483Y3924349D01*
X4133817Y3924072D01*
X4133040Y3923739D01*
X4132318Y3923240D01*
X4131597Y3922573D01*
X4131541Y3922463D01*
X4131319Y3922185D01*
X4131042Y3921741D01*
X4130709Y3921019D01*
X4130376Y3920187D01*
X4130098Y3919077D01*
X4129876Y3917800D01*
X4129821Y3916302D01*
Y3904203D01*
X4142530D01*
Y3915636D01*
X4142475Y3916302D01*
X4142419Y3917079D01*
X4142364Y3917967D01*
X4142253Y3918855D01*
X4142086Y3919743D01*
X4141864Y3920520D01*
X4141809Y3920631D01*
X4141698Y3920853D01*
X4141531Y3921186D01*
X4141309Y3921630D01*
X4140976Y3922130D01*
X4140588Y3922629D01*
X4140088Y3923128D01*
X4139533Y3923517D01*
X4139478Y3923573D01*
X4139256Y3923684D01*
X4138923Y3923850D01*
X4138479Y3924072D01*
X4137979Y3924238D01*
X4137424Y3924405D01*
X4136758Y3924516D01*
X4136092Y3924572D01*
D02*
G37*
G36*
X4135426Y3886110D02*
X4135371D01*
X4135315D01*
X4134982D01*
X4134483Y3885999D01*
X4133872Y3885888D01*
X4133206Y3885666D01*
X4132485Y3885333D01*
X4131763Y3884889D01*
X4131042Y3884278D01*
X4130986Y3884223D01*
X4130764Y3883945D01*
X4130487Y3883557D01*
X4130154Y3883057D01*
X4129821Y3882392D01*
X4129543Y3881670D01*
X4129321Y3880782D01*
X4129266Y3879838D01*
Y3879394D01*
X4129377Y3878895D01*
X4129488Y3878229D01*
X4129710Y3877508D01*
X4129987Y3876731D01*
X4130431Y3876009D01*
X4131042Y3875287D01*
X4131097Y3875232D01*
X4131319Y3875010D01*
X4131708Y3874733D01*
X4132207Y3874455D01*
X4132818Y3874122D01*
X4133539Y3873845D01*
X4134316Y3873622D01*
X4135204Y3873567D01*
X4135260D01*
X4135315D01*
X4135648Y3873622D01*
X4136148Y3873678D01*
X4136758Y3873789D01*
X4137480Y3874011D01*
X4138201Y3874289D01*
X4138978Y3874733D01*
X4139644Y3875287D01*
X4139700Y3875343D01*
X4139922Y3875620D01*
X4140199Y3876009D01*
X4140477Y3876508D01*
X4140810Y3877175D01*
X4141087Y3877952D01*
X4141309Y3878840D01*
X4141365Y3879838D01*
Y3879950D01*
X4141309Y3880282D01*
X4141254Y3880782D01*
X4141143Y3881448D01*
X4140921Y3882169D01*
X4140643Y3882891D01*
X4140199Y3883668D01*
X4139644Y3884334D01*
X4139589Y3884390D01*
X4139311Y3884611D01*
X4138978Y3884889D01*
X4138479Y3885222D01*
X4137868Y3885555D01*
X4137147Y3885832D01*
X4136314Y3886055D01*
X4135426Y3886110D01*
D02*
G37*
G36*
X4153075Y3887664D02*
X4153020D01*
X4152909D01*
X4152742D01*
X4152520Y3887608D01*
X4151910Y3887553D01*
X4151077Y3887387D01*
X4150245Y3887109D01*
X4149301Y3886720D01*
X4148358Y3886166D01*
X4147470Y3885389D01*
X4147359Y3885278D01*
X4147137Y3885000D01*
X4146748Y3884501D01*
X4146304Y3883834D01*
X4145916Y3883002D01*
X4145527Y3882003D01*
X4145305Y3880893D01*
X4145194Y3879672D01*
Y3879339D01*
X4145250Y3879117D01*
X4145305Y3878506D01*
X4145472Y3877729D01*
X4145749Y3876841D01*
X4146138Y3875954D01*
X4146693Y3875010D01*
X4147414Y3874177D01*
X4147525Y3874066D01*
X4147803Y3873845D01*
X4148302Y3873512D01*
X4148913Y3873123D01*
X4149745Y3872679D01*
X4150689Y3872346D01*
X4151743Y3872124D01*
X4152909Y3872013D01*
X4153020D01*
X4153242D01*
X4153630Y3872068D01*
X4154130Y3872124D01*
X4154740Y3872235D01*
X4155406Y3872401D01*
X4156072Y3872624D01*
X4156794Y3872901D01*
X4156849Y3872956D01*
X4157127Y3873068D01*
X4157460Y3873289D01*
X4157848Y3873622D01*
X4158348Y3874011D01*
X4158847Y3874510D01*
X4159291Y3875066D01*
X4159735Y3875731D01*
X4159791Y3875843D01*
X4159902Y3876064D01*
X4160068Y3876453D01*
X4160235Y3876952D01*
X4160401Y3877563D01*
X4160568Y3878285D01*
X4160679Y3879061D01*
X4160734Y3879838D01*
Y3880171D01*
X4160679Y3880394D01*
X4160623Y3881059D01*
X4160457Y3881836D01*
X4160179Y3882724D01*
X4159846Y3883668D01*
X4159291Y3884556D01*
X4158570Y3885444D01*
X4158459Y3885555D01*
X4158181Y3885777D01*
X4157682Y3886166D01*
X4157071Y3886554D01*
X4156294Y3886943D01*
X4155351Y3887331D01*
X4154241Y3887553D01*
X4153075Y3887664D01*
D02*
G37*
G36*
X4151799Y3857749D02*
X4151743D01*
X4151632D01*
X4151410D01*
X4151133Y3857694D01*
X4150800D01*
X4150411Y3857639D01*
X4149523Y3857472D01*
X4148524Y3857250D01*
X4147470Y3856861D01*
X4146471Y3856307D01*
X4145527Y3855585D01*
X4145416Y3855474D01*
X4145139Y3855197D01*
X4144806Y3854753D01*
X4144362Y3854142D01*
X4143918Y3853365D01*
X4143585Y3852477D01*
X4143307Y3851423D01*
X4143196Y3850257D01*
Y3849924D01*
X4143252Y3849702D01*
X4143307Y3849147D01*
X4143474Y3848370D01*
X4143751Y3847537D01*
X4144195Y3846594D01*
X4144750Y3845706D01*
X4145527Y3844818D01*
X4145638Y3844707D01*
X4145916Y3844485D01*
X4146415Y3844097D01*
X4147137Y3843708D01*
X4147969Y3843320D01*
X4149024Y3842931D01*
X4150189Y3842709D01*
X4151521Y3842598D01*
X4151632D01*
X4151910D01*
X4152409Y3842653D01*
X4153020Y3842709D01*
X4153741Y3842820D01*
X4154518Y3843042D01*
X4155351Y3843264D01*
X4156183Y3843597D01*
X4156294Y3843653D01*
X4156572Y3843819D01*
X4156960Y3844041D01*
X4157460Y3844374D01*
X4157959Y3844762D01*
X4158570Y3845262D01*
X4159069Y3845817D01*
X4159569Y3846483D01*
X4159624Y3846594D01*
X4159735Y3846816D01*
X4159957Y3847204D01*
X4160124Y3847704D01*
X4160346Y3848259D01*
X4160568Y3848925D01*
X4160679Y3849646D01*
X4160734Y3850423D01*
Y3850701D01*
X4160679Y3850923D01*
X4160623Y3851478D01*
X4160457Y3852200D01*
X4160124Y3852977D01*
X4159735Y3853865D01*
X4159125Y3854753D01*
X4158792Y3855197D01*
X4158348Y3855585D01*
X4158292D01*
X4158237Y3855696D01*
X4157904Y3855918D01*
X4157349Y3856251D01*
X4156627Y3856695D01*
X4155684Y3857084D01*
X4154574Y3857416D01*
X4153297Y3857639D01*
X4151799Y3857749D01*
D02*
G37*
G36*
X4245223Y3478064D02*
X4194776D01*
Y3438333D01*
X4245223D01*
Y3444748D01*
X4205639D01*
X4245223Y3471138D01*
Y3478064D01*
D02*
G37*
G36*
Y3426596D02*
X4194776D01*
Y3419889D01*
X4245223D01*
Y3426596D01*
D02*
G37*
%LPD*%
G36*
X4194776Y3445186D02*
Y3471648D01*
X4234434D01*
X4194776Y3445186D01*
D02*
G37*
D18*
X3997264Y4581299D02*
G03*
X3997264Y4581299I-4921J0D01*
G01*
Y3615551D02*
G03*
X3997264Y3615551I-4921J0D01*
G01*
D19*
X4239807Y3749213D02*
X4271303D01*
X4239807Y3650787D02*
X4271303D01*
X4037681Y3749213D02*
X4069177D01*
X4037681Y3650787D02*
X4069177D01*
X4044213Y3868150D02*
Y3899646D01*
X3945787Y3868150D02*
Y3899646D01*
X4044213Y4076752D02*
Y4108248D01*
X3945787Y4076752D02*
Y4108248D01*
X4044213Y4284252D02*
Y4315748D01*
X3945787Y4284252D02*
Y4315748D01*
X4239807Y4529213D02*
X4271303D01*
X4239807Y4430787D02*
X4271303D01*
X4037681Y4529213D02*
X4069177D01*
X4037681Y4430787D02*
X4069177D01*
X4149823Y4606299D02*
Y4791339D01*
X3834862Y4606299D02*
X4149823D01*
X3834862D02*
Y4791339D01*
Y3405512D02*
Y3590551D01*
X4149823D01*
Y3405512D02*
Y3590551D01*
%TF.MD5,a2d0ed0a7302c03a21af22349615c7e5*%
M02*
