%TF.GenerationSoftware,Altium Limited,Altium Designer,20.0.10 (225)*%
G04 Layer_Color=16711935*
%FSLAX26Y26*%
%MOIN*%
%TF.FileFunction,Other,Top_3D_Body*%
%TF.Part,Single*%
G01*
G75*
%TA.AperFunction,NonConductor*%
%ADD19C,0.007874*%
%ADD22C,0.003937*%
D19*
X3581102Y2544287D02*
Y2794287D01*
X3206299Y2544287D02*
X3581102D01*
X3206299D02*
Y2794287D01*
X3581102D01*
X3206299Y2517122D02*
Y2821453D01*
X1387401Y2544287D02*
Y2794287D01*
X1762205D01*
Y2544287D02*
Y2794287D01*
X1387401Y2544287D02*
X1762205D01*
Y2517122D02*
Y2821453D01*
D22*
X2718150Y2207358D02*
Y2341217D01*
X2611850Y2207358D02*
Y2341217D01*
X2718150D01*
X2611850Y2207358D02*
X2718150D01*
Y1977358D02*
Y2111217D01*
X2611850Y1977358D02*
Y2111217D01*
X2718150D01*
X2611850Y1977358D02*
X2718150D01*
X2143150D02*
Y2111217D01*
X2036850Y1977358D02*
Y2111217D01*
X2143150D01*
X2036850Y1977358D02*
X2143150D01*
Y2207358D02*
Y2341217D01*
X2036850Y2207358D02*
Y2341217D01*
X2143150D01*
X2036850Y2207358D02*
X2143150D01*
X2544173Y2616138D02*
X2678032D01*
X2544173Y2722437D02*
X2678032D01*
Y2616138D02*
Y2722437D01*
X2544173Y2616138D02*
Y2722437D01*
Y2431138D02*
X2678032D01*
X2544173Y2537437D02*
X2678032D01*
Y2431138D02*
Y2537437D01*
X2544173Y2431138D02*
Y2537437D01*
X2311673Y2431138D02*
X2445532D01*
X2311673Y2537437D02*
X2445532D01*
Y2431138D02*
Y2537437D01*
X2311673Y2431138D02*
Y2537437D01*
Y2616138D02*
X2445532D01*
X2311673Y2722437D02*
X2445532D01*
Y2616138D02*
Y2722437D01*
X2311673Y2616138D02*
Y2722437D01*
X2079173Y2431138D02*
X2213032D01*
X2079173Y2537437D02*
X2213032D01*
Y2431138D02*
Y2537437D01*
X2079173Y2431138D02*
Y2537437D01*
Y2616138D02*
X2213032D01*
X2079173Y2722437D02*
X2213032D01*
Y2616138D02*
Y2722437D01*
X2079173Y2616138D02*
Y2722437D01*
%TF.MD5,42726fd0d53f7a5a2353cc9cec915438*%
M02*
