%TF.GenerationSoftware,Altium Limited,Altium Designer,20.0.10 (225)*%
G04 Layer_Color=16711935*
%FSLAX26Y26*%
%MOIN*%
%TF.FileFunction,Other,Top_Assembly*%
%TF.Part,Single*%
G01*
G75*
%TA.AperFunction,NonConductor*%
%ADD19C,0.007874*%
G36*
X3303269Y2666267D02*
X3303232D01*
X3303160D01*
X3303014D01*
X3302796Y2666230D01*
X3302577Y2666194D01*
X3302322D01*
X3301704Y2666085D01*
X3301048Y2665976D01*
X3300393Y2665757D01*
X3299811Y2665539D01*
X3299556Y2665393D01*
X3299338Y2665211D01*
X3299301Y2665175D01*
X3299192Y2665029D01*
X3299010Y2664811D01*
X3298828Y2664519D01*
X3298610Y2664119D01*
X3298464Y2663682D01*
X3298318Y2663136D01*
X3298282Y2662554D01*
Y2662336D01*
X3298318Y2662117D01*
X3298355Y2661789D01*
X3298428Y2661462D01*
X3298500Y2661098D01*
X3298646Y2660734D01*
X3298828Y2660370D01*
X3298864Y2660334D01*
X3298937Y2660224D01*
X3299083Y2660079D01*
X3299228Y2659860D01*
X3299483Y2659678D01*
X3299738Y2659460D01*
X3300029Y2659278D01*
X3300393Y2659132D01*
X3300430D01*
X3300575Y2659059D01*
X3300830Y2659023D01*
X3301158Y2658950D01*
X3301594Y2658878D01*
X3302140Y2658841D01*
X3302796Y2658768D01*
X3303560D01*
X3320923D01*
Y2655419D01*
X3303742D01*
X3303706D01*
X3303596D01*
X3303451D01*
X3303232D01*
X3302941Y2655456D01*
X3302650D01*
X3301958Y2655529D01*
X3301158Y2655602D01*
X3300320Y2655747D01*
X3299556Y2655965D01*
X3298828Y2656220D01*
X3298792D01*
X3298755Y2656257D01*
X3298537Y2656366D01*
X3298246Y2656548D01*
X3297845Y2656803D01*
X3297445Y2657167D01*
X3297008Y2657567D01*
X3296571Y2658077D01*
X3296207Y2658659D01*
X3296171Y2658732D01*
X3296062Y2658950D01*
X3295916Y2659278D01*
X3295770Y2659751D01*
X3295588Y2660334D01*
X3295443Y2660989D01*
X3295334Y2661717D01*
X3295297Y2662517D01*
Y2662845D01*
X3295334Y2663064D01*
X3295370Y2663355D01*
X3295406Y2663646D01*
X3295552Y2664410D01*
X3295770Y2665211D01*
X3296098Y2666048D01*
X3296316Y2666485D01*
X3296571Y2666885D01*
X3296862Y2667249D01*
X3297190Y2667613D01*
X3297226Y2667650D01*
X3297263Y2667686D01*
X3297408Y2667759D01*
X3297554Y2667868D01*
X3297736Y2668014D01*
X3297991Y2668160D01*
X3298282Y2668305D01*
X3298610Y2668487D01*
X3298974Y2668633D01*
X3299410Y2668778D01*
X3299847Y2668924D01*
X3300357Y2669070D01*
X3300903Y2669142D01*
X3301522Y2669251D01*
X3302140Y2669288D01*
X3302832D01*
X3303269Y2666267D01*
D02*
G37*
G36*
X3303378Y2651233D02*
X3303596D01*
X3303851Y2651197D01*
X3304434Y2651124D01*
X3305089Y2650979D01*
X3305744Y2650760D01*
X3306436Y2650433D01*
X3307091Y2650032D01*
X3307127D01*
X3307164Y2649959D01*
X3307346Y2649814D01*
X3307637Y2649523D01*
X3308001Y2649122D01*
X3308365Y2648613D01*
X3308765Y2647994D01*
X3309093Y2647302D01*
X3309348Y2646465D01*
Y2646501D01*
X3309384Y2646538D01*
X3309420Y2646647D01*
X3309493Y2646793D01*
X3309639Y2647120D01*
X3309857Y2647557D01*
X3310148Y2648030D01*
X3310512Y2648503D01*
X3310913Y2648940D01*
X3311350Y2649341D01*
X3311422Y2649377D01*
X3311568Y2649486D01*
X3311859Y2649632D01*
X3312223Y2649778D01*
X3312696Y2649959D01*
X3313242Y2650105D01*
X3313861Y2650214D01*
X3314516Y2650251D01*
X3314553D01*
X3314626D01*
X3314771D01*
X3314990Y2650214D01*
X3315208Y2650178D01*
X3315499Y2650142D01*
X3316118Y2649996D01*
X3316846Y2649778D01*
X3317610Y2649414D01*
X3318011Y2649195D01*
X3318411Y2648940D01*
X3318775Y2648613D01*
X3319139Y2648285D01*
X3319176Y2648249D01*
X3319212Y2648176D01*
X3319321Y2648067D01*
X3319430Y2647921D01*
X3319576Y2647739D01*
X3319722Y2647484D01*
X3319904Y2647193D01*
X3320086Y2646902D01*
X3320268Y2646538D01*
X3320450Y2646137D01*
X3320595Y2645701D01*
X3320741Y2645227D01*
X3320959Y2644208D01*
X3320996Y2643626D01*
X3321032Y2643044D01*
Y2642716D01*
X3320996Y2642497D01*
X3320959Y2642206D01*
X3320923Y2641879D01*
X3320886Y2641515D01*
X3320777Y2641151D01*
X3320559Y2640277D01*
X3320231Y2639403D01*
X3320013Y2638967D01*
X3319758Y2638530D01*
X3319430Y2638130D01*
X3319103Y2637729D01*
X3319066Y2637693D01*
X3319030Y2637656D01*
X3318921Y2637547D01*
X3318775Y2637401D01*
X3318557Y2637256D01*
X3318338Y2637074D01*
X3317792Y2636710D01*
X3317101Y2636346D01*
X3316300Y2636018D01*
X3315390Y2635764D01*
X3314917Y2635727D01*
X3314407Y2635691D01*
X3314371D01*
X3314334D01*
X3314116D01*
X3313788Y2635727D01*
X3313388Y2635800D01*
X3312878Y2635909D01*
X3312369Y2636091D01*
X3311859Y2636309D01*
X3311350Y2636637D01*
X3311277Y2636673D01*
X3311131Y2636819D01*
X3310913Y2637037D01*
X3310622Y2637329D01*
X3310294Y2637729D01*
X3309966Y2638202D01*
X3309639Y2638748D01*
X3309348Y2639403D01*
Y2639367D01*
X3309311Y2639294D01*
X3309275Y2639185D01*
X3309202Y2639039D01*
X3309020Y2638603D01*
X3308765Y2638093D01*
X3308401Y2637547D01*
X3308001Y2636965D01*
X3307491Y2636419D01*
X3306909Y2635909D01*
X3306872D01*
X3306836Y2635873D01*
X3306618Y2635727D01*
X3306254Y2635509D01*
X3305780Y2635290D01*
X3305198Y2635072D01*
X3304506Y2634854D01*
X3303742Y2634708D01*
X3302905Y2634671D01*
X3302868D01*
X3302759D01*
X3302577D01*
X3302359Y2634708D01*
X3302104Y2634744D01*
X3301776Y2634781D01*
X3301412Y2634854D01*
X3301012Y2634963D01*
X3300175Y2635218D01*
X3299702Y2635399D01*
X3299265Y2635654D01*
X3298792Y2635909D01*
X3298355Y2636200D01*
X3297918Y2636564D01*
X3297481Y2636965D01*
X3297445Y2637001D01*
X3297372Y2637074D01*
X3297263Y2637183D01*
X3297154Y2637365D01*
X3296972Y2637620D01*
X3296790Y2637875D01*
X3296608Y2638202D01*
X3296389Y2638566D01*
X3296171Y2638967D01*
X3295989Y2639440D01*
X3295807Y2639950D01*
X3295625Y2640459D01*
X3295516Y2641041D01*
X3295406Y2641660D01*
X3295334Y2642279D01*
X3295297Y2642971D01*
Y2643335D01*
X3295334Y2643590D01*
X3295370Y2643917D01*
X3295406Y2644281D01*
X3295479Y2644682D01*
X3295588Y2645118D01*
X3295843Y2646101D01*
X3296025Y2646611D01*
X3296207Y2647084D01*
X3296462Y2647593D01*
X3296753Y2648103D01*
X3297081Y2648576D01*
X3297481Y2649013D01*
X3297518Y2649050D01*
X3297590Y2649122D01*
X3297700Y2649231D01*
X3297882Y2649377D01*
X3298100Y2649523D01*
X3298355Y2649741D01*
X3298646Y2649923D01*
X3299010Y2650142D01*
X3299374Y2650360D01*
X3299811Y2650542D01*
X3300721Y2650906D01*
X3301267Y2651052D01*
X3301813Y2651161D01*
X3302395Y2651233D01*
X3302978Y2651270D01*
X3303014D01*
X3303087D01*
X3303232D01*
X3303378Y2651233D01*
D02*
G37*
G36*
X1650384Y2703831D02*
X1650457Y2703758D01*
X1650602Y2703612D01*
X1650821Y2703467D01*
X1651076Y2703248D01*
X1651367Y2702957D01*
X1651731Y2702666D01*
X1652168Y2702338D01*
X1652604Y2702011D01*
X1653114Y2701610D01*
X1653696Y2701210D01*
X1654279Y2700809D01*
X1654934Y2700373D01*
X1655626Y2699936D01*
X1656390Y2699499D01*
X1657154Y2699062D01*
X1657191Y2699026D01*
X1657336Y2698953D01*
X1657555Y2698844D01*
X1657882Y2698662D01*
X1658283Y2698480D01*
X1658720Y2698261D01*
X1659229Y2698007D01*
X1659812Y2697752D01*
X1660467Y2697461D01*
X1661122Y2697133D01*
X1661850Y2696842D01*
X1662614Y2696551D01*
X1664180Y2695968D01*
X1665854Y2695422D01*
X1665890D01*
X1666000Y2695386D01*
X1666182Y2695349D01*
X1666400Y2695277D01*
X1666691Y2695204D01*
X1667055Y2695131D01*
X1667456Y2695022D01*
X1667892Y2694949D01*
X1668402Y2694840D01*
X1668948Y2694731D01*
X1670113Y2694549D01*
X1671387Y2694367D01*
X1672770Y2694257D01*
Y2691091D01*
X1672734D01*
X1672624D01*
X1672479D01*
X1672260Y2691127D01*
X1671969D01*
X1671605Y2691163D01*
X1671205Y2691200D01*
X1670768Y2691236D01*
X1670258Y2691309D01*
X1669749Y2691382D01*
X1669130Y2691491D01*
X1668511Y2691600D01*
X1667856Y2691709D01*
X1667128Y2691855D01*
X1665636Y2692219D01*
X1665599D01*
X1665454Y2692255D01*
X1665235Y2692328D01*
X1664908Y2692437D01*
X1664544Y2692547D01*
X1664107Y2692692D01*
X1663597Y2692838D01*
X1663051Y2693056D01*
X1662432Y2693275D01*
X1661814Y2693493D01*
X1660430Y2694039D01*
X1658974Y2694694D01*
X1657518Y2695422D01*
X1657482Y2695459D01*
X1657336Y2695531D01*
X1657154Y2695641D01*
X1656863Y2695786D01*
X1656536Y2695968D01*
X1656135Y2696223D01*
X1655698Y2696478D01*
X1655225Y2696769D01*
X1654170Y2697461D01*
X1653078Y2698189D01*
X1651949Y2699026D01*
X1650894Y2699899D01*
Y2687560D01*
X1647909D01*
Y2703867D01*
X1650348D01*
X1650384Y2703831D01*
D02*
G37*
G36*
X1665563Y2683119D02*
X1665854D01*
X1666546Y2683046D01*
X1667346Y2682973D01*
X1668184Y2682828D01*
X1668948Y2682609D01*
X1669676Y2682355D01*
X1669712D01*
X1669749Y2682318D01*
X1669967Y2682209D01*
X1670258Y2682027D01*
X1670659Y2681772D01*
X1671059Y2681408D01*
X1671496Y2681008D01*
X1671933Y2680498D01*
X1672297Y2679916D01*
X1672333Y2679843D01*
X1672442Y2679625D01*
X1672588Y2679297D01*
X1672734Y2678824D01*
X1672916Y2678241D01*
X1673061Y2677586D01*
X1673170Y2676858D01*
X1673207Y2676057D01*
Y2675730D01*
X1673170Y2675511D01*
X1673134Y2675220D01*
X1673098Y2674929D01*
X1672952Y2674165D01*
X1672734Y2673364D01*
X1672406Y2672527D01*
X1672188Y2672090D01*
X1671933Y2671689D01*
X1671642Y2671325D01*
X1671314Y2670961D01*
X1671278Y2670925D01*
X1671241Y2670889D01*
X1671096Y2670816D01*
X1670950Y2670707D01*
X1670768Y2670561D01*
X1670513Y2670415D01*
X1670222Y2670270D01*
X1669894Y2670088D01*
X1669530Y2669942D01*
X1669094Y2669797D01*
X1668657Y2669651D01*
X1668147Y2669505D01*
X1667601Y2669433D01*
X1666982Y2669323D01*
X1666364Y2669287D01*
X1665672D01*
X1665235Y2672308D01*
X1665272D01*
X1665344D01*
X1665490D01*
X1665708Y2672345D01*
X1665927Y2672381D01*
X1666182D01*
X1666800Y2672490D01*
X1667456Y2672599D01*
X1668111Y2672818D01*
X1668693Y2673036D01*
X1668948Y2673182D01*
X1669166Y2673364D01*
X1669203Y2673400D01*
X1669312Y2673546D01*
X1669494Y2673764D01*
X1669676Y2674055D01*
X1669894Y2674456D01*
X1670040Y2674893D01*
X1670186Y2675439D01*
X1670222Y2676021D01*
Y2676239D01*
X1670186Y2676458D01*
X1670149Y2676785D01*
X1670076Y2677113D01*
X1670004Y2677477D01*
X1669858Y2677841D01*
X1669676Y2678205D01*
X1669640Y2678241D01*
X1669567Y2678351D01*
X1669421Y2678496D01*
X1669276Y2678715D01*
X1669021Y2678897D01*
X1668766Y2679115D01*
X1668475Y2679297D01*
X1668111Y2679443D01*
X1668074D01*
X1667929Y2679515D01*
X1667674Y2679552D01*
X1667346Y2679625D01*
X1666910Y2679697D01*
X1666364Y2679734D01*
X1665708Y2679807D01*
X1664944D01*
X1647581D01*
Y2683155D01*
X1664762D01*
X1664798D01*
X1664908D01*
X1665053D01*
X1665272D01*
X1665563Y2683119D01*
D02*
G37*
%LPC*%
G36*
X3314589Y2647084D02*
X3314553D01*
X3314516D01*
X3314298Y2647048D01*
X3313970Y2647011D01*
X3313570Y2646938D01*
X3313097Y2646793D01*
X3312624Y2646611D01*
X3312114Y2646320D01*
X3311677Y2645956D01*
X3311641Y2645919D01*
X3311495Y2645737D01*
X3311313Y2645482D01*
X3311131Y2645155D01*
X3310913Y2644718D01*
X3310731Y2644208D01*
X3310585Y2643626D01*
X3310549Y2642971D01*
Y2642898D01*
X3310585Y2642680D01*
X3310622Y2642352D01*
X3310694Y2641915D01*
X3310840Y2641442D01*
X3311022Y2640969D01*
X3311313Y2640459D01*
X3311677Y2640022D01*
X3311714Y2639986D01*
X3311896Y2639840D01*
X3312114Y2639658D01*
X3312442Y2639440D01*
X3312842Y2639222D01*
X3313315Y2639039D01*
X3313861Y2638894D01*
X3314444Y2638858D01*
X3314480D01*
X3314516D01*
X3314735D01*
X3315062Y2638930D01*
X3315463Y2639003D01*
X3315900Y2639149D01*
X3316373Y2639367D01*
X3316846Y2639658D01*
X3317319Y2640059D01*
X3317356Y2640095D01*
X3317501Y2640277D01*
X3317683Y2640532D01*
X3317902Y2640860D01*
X3318120Y2641296D01*
X3318302Y2641769D01*
X3318448Y2642352D01*
X3318484Y2642971D01*
Y2643262D01*
X3318411Y2643590D01*
X3318338Y2644026D01*
X3318193Y2644499D01*
X3318011Y2645009D01*
X3317720Y2645482D01*
X3317319Y2645956D01*
X3317283Y2645992D01*
X3317137Y2646137D01*
X3316882Y2646320D01*
X3316555Y2646501D01*
X3316154Y2646720D01*
X3315681Y2646902D01*
X3315172Y2647048D01*
X3314589Y2647084D01*
D02*
G37*
G36*
X3302978Y2648103D02*
X3302905D01*
X3302759D01*
X3302504Y2648067D01*
X3302177Y2648030D01*
X3301776Y2647957D01*
X3301340Y2647848D01*
X3300903Y2647703D01*
X3300430Y2647521D01*
X3300393Y2647484D01*
X3300211Y2647412D01*
X3299993Y2647266D01*
X3299738Y2647048D01*
X3299410Y2646793D01*
X3299083Y2646465D01*
X3298792Y2646101D01*
X3298500Y2645664D01*
X3298464Y2645591D01*
X3298391Y2645446D01*
X3298282Y2645191D01*
X3298173Y2644863D01*
X3298064Y2644463D01*
X3297954Y2643990D01*
X3297882Y2643480D01*
X3297845Y2642971D01*
Y2642752D01*
X3297882Y2642607D01*
X3297918Y2642170D01*
X3298027Y2641660D01*
X3298209Y2641078D01*
X3298428Y2640459D01*
X3298792Y2639877D01*
X3299265Y2639294D01*
X3299338Y2639222D01*
X3299520Y2639076D01*
X3299847Y2638821D01*
X3300248Y2638566D01*
X3300757Y2638311D01*
X3301376Y2638057D01*
X3302104Y2637911D01*
X3302868Y2637838D01*
X3302905D01*
X3302978D01*
X3303087D01*
X3303232Y2637875D01*
X3303633Y2637911D01*
X3304179Y2638020D01*
X3304725Y2638202D01*
X3305344Y2638457D01*
X3305962Y2638821D01*
X3306545Y2639331D01*
X3306618Y2639403D01*
X3306763Y2639586D01*
X3307018Y2639913D01*
X3307309Y2640350D01*
X3307564Y2640896D01*
X3307819Y2641551D01*
X3307964Y2642279D01*
X3308037Y2643080D01*
Y2643298D01*
X3308001Y2643444D01*
X3307964Y2643844D01*
X3307855Y2644354D01*
X3307673Y2644936D01*
X3307418Y2645519D01*
X3307054Y2646137D01*
X3306581Y2646684D01*
X3306508Y2646756D01*
X3306326Y2646902D01*
X3305999Y2647120D01*
X3305598Y2647375D01*
X3305052Y2647666D01*
X3304434Y2647885D01*
X3303742Y2648030D01*
X3302978Y2648103D01*
D02*
G37*
%LPD*%
D19*
X3592716Y2517122D02*
Y2821453D01*
X2997835Y2517122D02*
X3592716D01*
X2997835D02*
Y2821453D01*
X3592716D01*
X1375787Y2517122D02*
Y2821453D01*
X1970669D01*
Y2517122D02*
Y2821453D01*
X1375787Y2517122D02*
X1970669D01*
%TF.MD5,03ce1eb4d65782e04e6218d6b99ee135*%
M02*
