%TF.GenerationSoftware,Altium Limited,Altium Designer,20.0.10 (225)*%
G04 Layer_Color=32768*
%FSLAX26Y26*%
%MOIN*%
%TF.FileFunction,Other,Top_Courtyard*%
%TF.Part,Single*%
G01*
G75*
%TA.AperFunction,NonConductor*%
%ADD18C,0.007874*%
%ADD21C,0.003937*%
%ADD23C,0.001968*%
D18*
X3525787Y3260405D02*
Y3564736D01*
X2930906Y3260405D02*
X3525787D01*
X2930906D02*
Y3564736D01*
X3525787D01*
X1309116Y3260405D02*
Y3564736D01*
X1903997D01*
Y3260405D02*
Y3564736D01*
X1309116Y3260405D02*
X1903997D01*
D21*
X2750315Y3361453D02*
X2789685D01*
X2770000Y3341768D02*
Y3381138D01*
X2481102Y3399642D02*
Y3439012D01*
X2461417Y3419327D02*
X2500787D01*
X2250000Y3399642D02*
Y3439012D01*
X2230315Y3419327D02*
X2269685D01*
X1988189Y3361453D02*
X2027559D01*
X2007874Y3341768D02*
Y3381138D01*
D23*
X2832992Y3270902D02*
Y3452004D01*
X2707008Y3270902D02*
Y3452004D01*
X2832992D01*
X2707008Y3270902D02*
X2832992D01*
X2390551Y3356335D02*
X2571653D01*
X2390551Y3482319D02*
X2571653D01*
Y3356335D02*
Y3482319D01*
X2390551Y3356335D02*
Y3482319D01*
X2159449Y3356335D02*
X2340551D01*
X2159449Y3482319D02*
X2340551D01*
Y3356335D02*
Y3482319D01*
X2159449Y3356335D02*
Y3482319D01*
X2070866Y3270902D02*
Y3452004D01*
X1944882Y3270902D02*
Y3452004D01*
X2070866D01*
X1944882Y3270902D02*
X2070866D01*
%TF.MD5,d85709a6cd1747754c271a863686bd6e*%
M02*
