%TF.GenerationSoftware,Altium Limited,Altium Designer,20.0.10 (225)*%
G04 Layer_Color=8388736*
%FSLAX26Y26*%
%MOIN*%
%TF.FileFunction,Soldermask,Top*%
%TF.Part,Single*%
G01*
G75*
%TA.AperFunction,SMDPad,CuDef*%
%ADD10R,0.047244X0.196850*%
%ADD11R,0.062992X0.196850*%
%TA.AperFunction,ViaPad*%
%ADD17C,0.058000*%
%TA.AperFunction,SMDPad,CuDef*%
%ADD20R,0.057213X0.114299*%
%ADD21R,0.114299X0.057213*%
D10*
X4735650Y3514173D02*
D03*
Y4753543D02*
D03*
D11*
X4844705Y3514173D02*
D03*
X4626595D02*
D03*
X4844705Y4753543D02*
D03*
X4626595D02*
D03*
D17*
X4830000Y4605000D02*
D03*
X4835000Y4550000D02*
D03*
X4645000Y4575000D02*
D03*
X4651374Y4354943D02*
D03*
X4651390Y4434470D02*
D03*
X4645000Y4500000D02*
D03*
X4835000Y4490000D02*
D03*
X4867563Y4273740D02*
D03*
X5110000Y4595000D02*
D03*
X5095000Y4265000D02*
D03*
X4651083Y4121092D02*
D03*
X5015000Y4265000D02*
D03*
X4945000D02*
D03*
X4647382Y3726074D02*
D03*
X4835000Y3665000D02*
D03*
X4530000Y3545000D02*
D03*
X4535000Y3615000D02*
D03*
X5024022Y3867192D02*
D03*
X4944494D02*
D03*
X4960069Y3691069D02*
D03*
X5039592Y3690289D02*
D03*
X5119120D02*
D03*
X5100000Y3875000D02*
D03*
X5085000Y4455000D02*
D03*
X5025000D02*
D03*
X4960672Y4455266D02*
D03*
X5150000Y4455000D02*
D03*
X4884254Y4459176D02*
D03*
X4651260Y4275415D02*
D03*
X4650781Y4195889D02*
D03*
X4651796Y4043418D02*
D03*
X4659057Y3964223D02*
D03*
X4650781Y3885127D02*
D03*
X4651390Y3805602D02*
D03*
X4630000Y3660000D02*
D03*
X4895000Y3685000D02*
D03*
X4880000Y3870000D02*
D03*
X4827684Y3904945D02*
D03*
X4827417Y3984472D02*
D03*
X4846786Y4061630D02*
D03*
X4849192Y4146745D02*
D03*
X4852292Y4221964D02*
D03*
D20*
X5119532Y4361890D02*
D03*
X5231736D02*
D03*
X4929532D02*
D03*
X5041736D02*
D03*
X4740634D02*
D03*
X4852839D02*
D03*
X5119532Y3778740D02*
D03*
X5231736D02*
D03*
X4929532D02*
D03*
X5041736D02*
D03*
X4740634D02*
D03*
X4852839D02*
D03*
D21*
X4739232Y4209646D02*
D03*
Y4097441D02*
D03*
Y4011102D02*
D03*
Y3898898D02*
D03*
%TF.MD5,cb93f9e2cac522372c6d92f256f44557*%
M02*
