%TF.GenerationSoftware,Altium Limited,Altium Designer,20.0.10 (225)*%
G04 Layer_Color=16711935*
%FSLAX26Y26*%
%MOIN*%
%TF.FileFunction,Other,Mechanical_13*%
%TF.Part,CustomerPanel*%
G01*
G75*
%TA.AperFunction,NonConductor*%
%ADD23C,0.007874*%
%ADD27C,0.003937*%
D23*
X3460356Y3620729D02*
Y3316398D01*
Y3593563D02*
X3835160D01*
X3460356D02*
Y3343563D01*
X3835160D01*
Y3593563D02*
Y3343563D01*
X2016262Y3620729D02*
Y3316398D01*
X1641459Y3343563D02*
X2016262D01*
Y3593563D02*
Y3343563D01*
X1641459Y3593563D02*
X2016262D01*
X1641459D02*
Y3343563D01*
X2136221Y1467929D02*
Y1717929D01*
X1761417Y1467929D02*
X2136221D01*
X1761417D02*
Y1717929D01*
X2136221D01*
X1761417Y1440764D02*
Y1745094D01*
X-56811Y1461693D02*
Y1711693D01*
X317992D01*
Y1461693D02*
Y1711693D01*
X-56811Y1461693D02*
X317992D01*
Y1434528D02*
Y1738858D01*
X2124410Y2496925D02*
Y2746925D01*
X1749606Y2496925D02*
X2124410D01*
X1749606D02*
Y2746925D01*
X2124410D01*
X1749606Y2469760D02*
Y2774091D01*
X-69291Y2496925D02*
Y2746925D01*
X305512D01*
Y2496925D02*
Y2746925D01*
X-69291Y2496925D02*
X305512D01*
Y2469760D02*
Y2774091D01*
X3846971Y2661311D02*
Y2911311D01*
X3472168Y2661311D02*
X3846971D01*
X3472168D02*
Y2911311D01*
X3846971D01*
X3472168Y2634146D02*
Y2938477D01*
X1653527Y2661311D02*
Y2911311D01*
X2028331D01*
Y2661311D02*
Y2911311D01*
X1653527Y2661311D02*
X2028331D01*
Y2634146D02*
Y2938477D01*
X-59449Y945098D02*
Y695098D01*
Y945098D02*
X315354D01*
Y695098D01*
X-59449D02*
X315354D01*
Y972264D02*
Y667933D01*
X1751575Y972264D02*
Y667933D01*
Y945098D02*
X2126378D01*
X1751575D02*
Y695098D01*
X2126378D01*
Y945098D02*
Y695098D01*
X2139764Y3371481D02*
Y3621481D01*
X1764961Y3371481D02*
X2139764D01*
X1764961D02*
Y3621481D01*
X2139764D01*
X1764961Y3344315D02*
Y3648646D01*
X-65748Y3371481D02*
Y3621481D01*
X309055D01*
Y3371481D02*
Y3621481D01*
X-65748Y3371481D02*
X309055D01*
Y3344315D02*
Y3648646D01*
D27*
X2393034Y3272280D02*
Y3138421D01*
X2286735Y3272280D02*
Y3138421D01*
Y3272280D02*
X2393034D01*
X2286735Y3138421D02*
X2393034D01*
Y3474406D02*
Y3340547D01*
X2286735Y3474406D02*
Y3340547D01*
Y3474406D02*
X2393034D01*
X2286735Y3340547D02*
X2393034D01*
X2456853Y3412756D02*
X2590711D01*
X2456853Y3519055D02*
X2590711D01*
Y3412756D01*
X2456853Y3519055D02*
Y3412756D01*
X2665455D02*
X2799313D01*
X2665455Y3519055D02*
X2799313D01*
Y3412756D01*
X2665455Y3519055D02*
Y3412756D01*
X2872955D02*
X3006813D01*
X2872955Y3519055D02*
X3006813D01*
Y3412756D01*
X2872955Y3519055D02*
Y3412756D01*
X3173034Y3272280D02*
Y3138421D01*
X3066735Y3272280D02*
Y3138421D01*
Y3272280D02*
X3173034D01*
X3066735Y3138421D02*
X3173034D01*
Y3474406D02*
Y3340547D01*
X3066735Y3474406D02*
Y3340547D01*
Y3474406D02*
X3173034D01*
X3066735Y3340547D02*
X3173034D01*
X1484567Y1474882D02*
Y1608740D01*
X1378268Y1474882D02*
Y1608740D01*
X1484567D01*
X1378268Y1474882D02*
X1484567D01*
Y1221509D02*
Y1355367D01*
X1378268Y1221509D02*
Y1355367D01*
X1484567D01*
X1378268Y1221509D02*
X1484567D01*
X801181D02*
Y1355367D01*
X694882Y1221509D02*
Y1355367D01*
X801181D01*
X694882Y1221509D02*
X801181D01*
Y1470036D02*
Y1603895D01*
X694882Y1470036D02*
Y1603895D01*
X801181D01*
X694882Y1470036D02*
X801181D01*
X1105591Y1542599D02*
X1239449D01*
X1105591Y1648898D02*
X1239449D01*
Y1542599D02*
Y1648898D01*
X1105591Y1542599D02*
Y1648898D01*
X849488Y1542599D02*
X983346D01*
X849488Y1648898D02*
X983346D01*
Y1542599D02*
Y1648898D01*
X849488Y1542599D02*
Y1648898D01*
X1261457Y2159996D02*
Y2293854D01*
X1155158Y2159996D02*
Y2293854D01*
X1261457D01*
X1155158Y2159996D02*
X1261457D01*
Y1929996D02*
Y2063854D01*
X1155158Y1929996D02*
Y2063854D01*
X1261457D01*
X1155158Y1929996D02*
X1261457D01*
X686457D02*
Y2063854D01*
X580158Y1929996D02*
Y2063854D01*
X686457D01*
X580158Y1929996D02*
X686457D01*
Y2159996D02*
Y2293854D01*
X580158Y2159996D02*
Y2293854D01*
X686457D01*
X580158Y2159996D02*
X686457D01*
X1087480Y2568776D02*
X1221339D01*
X1087480Y2675075D02*
X1221339D01*
Y2568776D02*
Y2675075D01*
X1087480Y2568776D02*
Y2675075D01*
Y2383776D02*
X1221339D01*
X1087480Y2490075D02*
X1221339D01*
Y2383776D02*
Y2490075D01*
X1087480Y2383776D02*
Y2490075D01*
X854980Y2383776D02*
X988839D01*
X854980Y2490075D02*
X988839D01*
Y2383776D02*
Y2490075D01*
X854980Y2383776D02*
Y2490075D01*
Y2568776D02*
X988839D01*
X854980Y2675075D02*
X988839D01*
Y2568776D02*
Y2675075D01*
X854980Y2568776D02*
Y2675075D01*
X622480Y2383776D02*
X756339D01*
X622480Y2490075D02*
X756339D01*
Y2383776D02*
Y2490075D01*
X622480Y2383776D02*
Y2490075D01*
Y2568776D02*
X756339D01*
X622480Y2675075D02*
X756339D01*
Y2568776D02*
Y2675075D01*
X622480Y2568776D02*
Y2675075D01*
X3155947Y2668264D02*
Y2802122D01*
X3049648Y2668264D02*
Y2802122D01*
X3155947D01*
X3049648Y2668264D02*
X3155947D01*
X2746971Y2739918D02*
X2880829D01*
X2746971Y2846217D02*
X2880829D01*
Y2739918D02*
Y2846217D01*
X2746971Y2739918D02*
Y2846217D01*
X2515868Y2739918D02*
X2649727D01*
X2515868Y2846217D02*
X2649727D01*
Y2739918D02*
Y2846217D01*
X2515868Y2739918D02*
Y2846217D01*
X2393821Y2668264D02*
Y2802122D01*
X2287522Y2668264D02*
Y2802122D01*
X2393821D01*
X2287522Y2668264D02*
X2393821D01*
X1314646Y447043D02*
Y313185D01*
X1208347Y447043D02*
Y313185D01*
Y447043D02*
X1314646D01*
X1208347Y313185D02*
X1314646D01*
Y637043D02*
Y503185D01*
X1208347Y637043D02*
Y503185D01*
Y637043D02*
X1314646D01*
X1208347Y503185D02*
X1314646D01*
Y825941D02*
Y692083D01*
X1208347Y825941D02*
Y692083D01*
Y825941D02*
X1314646D01*
X1208347Y692083D02*
X1314646D01*
X986220Y763366D02*
X1120079D01*
X986220Y869665D02*
X1120079D01*
Y763366D01*
X986220Y869665D02*
Y763366D01*
X787677D02*
X921535D01*
X787677Y869665D02*
X921535D01*
Y763366D01*
X787677Y869665D02*
Y763366D01*
X731496Y447043D02*
Y313185D01*
X625197Y447043D02*
Y313185D01*
Y447043D02*
X731496D01*
X625197Y313185D02*
X731496D01*
Y637043D02*
Y503185D01*
X625197Y637043D02*
Y503185D01*
Y637043D02*
X731496D01*
X625197Y503185D02*
X731496D01*
Y825941D02*
Y692083D01*
X625197Y825941D02*
Y692083D01*
Y825941D02*
X731496D01*
X625197Y692083D02*
X731496D01*
X1448740Y3368465D02*
Y3502323D01*
X1342441Y3368465D02*
Y3502323D01*
X1448740D01*
X1342441Y3368465D02*
X1448740D01*
Y3182555D02*
Y3316414D01*
X1342441Y3182555D02*
Y3316414D01*
X1448740D01*
X1342441Y3182555D02*
X1448740D01*
Y2997555D02*
Y3131414D01*
X1342441Y2997555D02*
Y3131414D01*
X1448740D01*
X1342441Y2997555D02*
X1448740D01*
X747480D02*
Y3131414D01*
X641181Y2997555D02*
Y3131414D01*
X747480D01*
X641181Y2997555D02*
X747480D01*
Y3182555D02*
Y3316414D01*
X641181Y3182555D02*
Y3316414D01*
X747480D01*
X641181Y3182555D02*
X747480D01*
Y3368465D02*
Y3502323D01*
X641181Y3368465D02*
Y3502323D01*
X747480D01*
X641181Y3368465D02*
X747480D01*
X1038976Y3431335D02*
X1172835D01*
X1038976Y3537634D02*
X1172835D01*
Y3431335D02*
Y3537634D01*
X1038976Y3431335D02*
Y3537634D01*
X842126Y3431335D02*
X975984D01*
X842126Y3537634D02*
X975984D01*
Y3431335D02*
Y3537634D01*
X842126Y3431335D02*
Y3537634D01*
%TF.MD5,0bac0914ea016a56712022c8e5150c48*%
M02*
