%TF.GenerationSoftware,Altium Limited,Altium Designer,20.0.10 (225)*%
G04 Layer_Color=16711935*
%FSLAX26Y26*%
%MOIN*%
%TF.FileFunction,Soldermask,Bot*%
%TF.Part,CustomerPanel*%
G01*
G75*
%TA.AperFunction,SMDPad,CuDef*%
%ADD12R,0.196850X0.062992*%
%TA.AperFunction,ConnectorPad*%
%ADD17R,0.196850X0.062992*%
%TA.AperFunction,ViaPad*%
%ADD21C,0.058000*%
G36*
X3038873Y2296471D02*
X3044778Y2295159D01*
X3049371Y2293191D01*
X3053963Y2291222D01*
X3057244Y2288598D01*
X3059868Y2286630D01*
X3061181Y2285318D01*
X3061837Y2284661D01*
X3065773Y2280069D01*
X3068398Y2275476D01*
X3071022Y2270883D01*
X3072334Y2266291D01*
X3072990Y2262354D01*
X3073646Y2259073D01*
Y2257105D01*
Y2256449D01*
X3072990Y2250544D01*
X3071678Y2245952D01*
X3070366Y2241359D01*
X3068398Y2237422D01*
X3066429Y2234142D01*
X3064461Y2231517D01*
X3063805Y2230205D01*
X3063149Y2229549D01*
X3058556Y2225612D01*
X3053963Y2222988D01*
X3049371Y2221020D01*
X3045434Y2219707D01*
X3041498Y2219051D01*
X3038217Y2218395D01*
X3035593D01*
X3028376Y2219051D01*
X3022471Y2220364D01*
X3017222Y2222332D01*
X3012629Y2224956D01*
X3008693Y2227581D01*
X3005412Y2230861D01*
X3000819Y2238734D01*
X2997539Y2245952D01*
X2996227Y2252512D01*
X2995571Y2254481D01*
Y2256449D01*
Y2257761D01*
Y2258417D01*
X2996227Y2264322D01*
X2996883Y2270227D01*
X2998851Y2274820D01*
X3000819Y2278756D01*
X3002788Y2282037D01*
X3004100Y2284005D01*
X3005412Y2285318D01*
X3006068Y2285974D01*
X3010005Y2289910D01*
X3014597Y2292535D01*
X3019190Y2294503D01*
X3023127Y2295815D01*
X3027063Y2296471D01*
X3030344Y2297127D01*
X3032968D01*
X3038873Y2296471D01*
D02*
G37*
G36*
X2846636Y2200024D02*
X2857790Y2198712D01*
X2867631Y2196088D01*
X2876160Y2193463D01*
X2883378Y2190839D01*
X2887970Y2188215D01*
X2891251Y2186903D01*
X2892563Y2186246D01*
X2900436Y2180998D01*
X2906341Y2175093D01*
X2910934Y2169844D01*
X2913558Y2164595D01*
X2915526Y2160659D01*
X2916182Y2157378D01*
X2916839Y2154754D01*
Y2154097D01*
X2916183Y2150161D01*
X2915526Y2146224D01*
X2912902Y2140319D01*
X2911590Y2137695D01*
X2910278Y2135727D01*
X2908965Y2135071D01*
Y2134414D01*
X2905685Y2131790D01*
X2902405Y2129822D01*
X2896500Y2127854D01*
X2893875Y2127197D01*
X2891907Y2126541D01*
X2889939D01*
X2887314Y2127197D01*
X2883378Y2127854D01*
X2875504Y2131134D01*
X2872224Y2133102D01*
X2868943Y2134414D01*
X2866975Y2135071D01*
X2866319Y2135727D01*
X2859758Y2139007D01*
X2853853Y2140976D01*
X2848604Y2142944D01*
X2844012Y2143600D01*
X2840075Y2144256D01*
X2837451Y2144912D01*
X2834826D01*
X2823673Y2144256D01*
X2813831Y2140976D01*
X2804646Y2137039D01*
X2797428Y2131134D01*
X2790867Y2124573D01*
X2784963Y2116700D01*
X2780370Y2108827D01*
X2777089Y2100953D01*
X2773809Y2092424D01*
X2771184Y2084551D01*
X2769872Y2076678D01*
X2768560Y2070117D01*
X2767248Y2064212D01*
X2766592Y2060275D01*
Y2057651D01*
Y2056339D01*
X2775777Y2065524D01*
X2786275Y2072085D01*
X2796772Y2077334D01*
X2807926Y2080614D01*
X2817768Y2082583D01*
X2825641Y2083239D01*
X2828265Y2083895D01*
X2842043D01*
X2850573Y2082583D01*
X2866975Y2079302D01*
X2880753Y2074053D01*
X2892563Y2068805D01*
X2901748Y2062900D01*
X2905685Y2060275D01*
X2908309Y2057651D01*
X2910934Y2055682D01*
X2912902Y2054370D01*
X2913558Y2053714D01*
X2914214Y2053058D01*
X2919463Y2047153D01*
X2924056Y2040592D01*
X2931929Y2027470D01*
X2937178Y2013692D01*
X2940458Y2000570D01*
X2943083Y1988760D01*
X2943739Y1984168D01*
Y1979575D01*
X2944395Y1976294D01*
Y1973014D01*
Y1971702D01*
Y1971046D01*
X2943739Y1961860D01*
X2943083Y1952675D01*
X2939802Y1936928D01*
X2935209Y1923150D01*
X2929961Y1911997D01*
X2925368Y1902811D01*
X2920775Y1896250D01*
X2918807Y1894282D01*
X2917495Y1892314D01*
X2916183Y1891658D01*
Y1891001D01*
X2910934Y1885753D01*
X2904373Y1881816D01*
X2891907Y1874599D01*
X2878785Y1870006D01*
X2866319Y1866070D01*
X2855165Y1864101D01*
X2849916Y1863445D01*
X2845980D01*
X2842043Y1862789D01*
X2837451D01*
X2826953Y1863445D01*
X2817768Y1864757D01*
X2809894Y1867382D01*
X2802677Y1870006D01*
X2796772Y1871975D01*
X2792836Y1874599D01*
X2790211Y1875911D01*
Y1875255D01*
Y1874599D01*
Y1869350D01*
X2788899Y1865414D01*
X2786275Y1858196D01*
X2782338Y1852948D01*
X2777089Y1849667D01*
X2772497Y1847043D01*
X2768560Y1846387D01*
X2765936Y1845730D01*
X2764624D01*
X2760031Y1846387D01*
X2756094Y1847699D01*
X2752814Y1849667D01*
X2748877Y1852292D01*
X2742972Y1858852D01*
X2738380Y1866726D01*
X2734443Y1873943D01*
X2731818Y1880504D01*
X2731162Y1883128D01*
X2730506Y1885097D01*
X2729850Y1886409D01*
Y1887065D01*
X2723289Y1915277D01*
X2718040Y1941521D01*
X2716072Y1953987D01*
X2714760Y1965797D01*
X2712792Y1976950D01*
X2712135Y1987448D01*
X2711479Y1997290D01*
X2710823Y2005819D01*
X2710167Y2013036D01*
X2709511Y2019597D01*
Y2024846D01*
Y2028126D01*
Y2030751D01*
Y2031407D01*
X2710167Y2046497D01*
X2710823Y2060931D01*
X2712792Y2074709D01*
X2714760Y2087175D01*
X2718040Y2098985D01*
X2721321Y2110139D01*
X2724601Y2119980D01*
X2729194Y2129166D01*
X2733787Y2137695D01*
X2738380Y2145568D01*
X2743628Y2152785D01*
X2748877Y2159346D01*
X2760687Y2170500D01*
X2771840Y2179685D01*
X2783650Y2186246D01*
X2795460Y2191495D01*
X2805958Y2195432D01*
X2815143Y2198056D01*
X2823016Y2199368D01*
X2829577Y2200681D01*
X2834826D01*
X2846636Y2200024D01*
D02*
G37*
G36*
X2325693Y2200024D02*
X2336846Y2198712D01*
X2346688Y2196088D01*
X2355217Y2193463D01*
X2362434Y2190839D01*
X2367027Y2188215D01*
X2370307Y2186902D01*
X2371619Y2186246D01*
X2379493Y2180997D01*
X2385398Y2175093D01*
X2389990Y2169844D01*
X2392615Y2164595D01*
X2394583Y2160658D01*
X2395239Y2157378D01*
X2395895Y2154753D01*
Y2154097D01*
X2395239Y2150161D01*
X2394583Y2146224D01*
X2391959Y2140319D01*
X2390646Y2137695D01*
X2389334Y2135727D01*
X2388022Y2135070D01*
Y2134414D01*
X2384742Y2131790D01*
X2381461Y2129822D01*
X2375556Y2127853D01*
X2372932Y2127197D01*
X2370963Y2126541D01*
X2368995D01*
X2366371Y2127197D01*
X2362434Y2127853D01*
X2354561Y2131134D01*
X2351280Y2133102D01*
X2348000Y2134414D01*
X2346032Y2135070D01*
X2345376Y2135727D01*
X2338815Y2139007D01*
X2332910Y2140975D01*
X2327661Y2142944D01*
X2323068Y2143600D01*
X2319132Y2144256D01*
X2316507Y2144912D01*
X2313883D01*
X2302729Y2144256D01*
X2292888Y2140975D01*
X2283702Y2137039D01*
X2276485Y2131134D01*
X2269924Y2124573D01*
X2264019Y2116700D01*
X2259427Y2108827D01*
X2256146Y2100953D01*
X2252865Y2092424D01*
X2250241Y2084551D01*
X2248929Y2076678D01*
X2247617Y2070117D01*
X2246305Y2064212D01*
X2245648Y2060275D01*
Y2057651D01*
Y2056338D01*
X2254834Y2065524D01*
X2265331Y2072085D01*
X2275829Y2077334D01*
X2286983Y2080614D01*
X2296824Y2082582D01*
X2304697Y2083239D01*
X2307322Y2083895D01*
X2321100D01*
X2329629Y2082582D01*
X2346032Y2079302D01*
X2359810Y2074053D01*
X2371620Y2068804D01*
X2380805Y2062899D01*
X2384742Y2060275D01*
X2387366Y2057651D01*
X2389990Y2055682D01*
X2391959Y2054370D01*
X2392615Y2053714D01*
X2393271Y2053058D01*
X2398520Y2047153D01*
X2403112Y2040592D01*
X2410986Y2027470D01*
X2416234Y2013692D01*
X2419515Y2000570D01*
X2422139Y1988760D01*
X2422795Y1984168D01*
Y1979575D01*
X2423452Y1976294D01*
Y1973014D01*
Y1971702D01*
Y1971045D01*
X2422795Y1961860D01*
X2422139Y1952675D01*
X2418859Y1936928D01*
X2414266Y1923150D01*
X2409017Y1911996D01*
X2404425Y1902811D01*
X2399832Y1896250D01*
X2397864Y1894282D01*
X2396551Y1892313D01*
X2395239Y1891657D01*
Y1891001D01*
X2389990Y1885753D01*
X2383429Y1881816D01*
X2370963Y1874599D01*
X2357841Y1870006D01*
X2345376Y1866070D01*
X2334222Y1864101D01*
X2328973Y1863445D01*
X2325037D01*
X2321100Y1862789D01*
X2316507D01*
X2306010Y1863445D01*
X2296824Y1864757D01*
X2288951Y1867382D01*
X2281734Y1870006D01*
X2275829Y1871974D01*
X2271892Y1874599D01*
X2269268Y1875911D01*
Y1875255D01*
Y1874599D01*
Y1869350D01*
X2267956Y1865413D01*
X2265331Y1858196D01*
X2261395Y1852947D01*
X2256146Y1849667D01*
X2251553Y1847043D01*
X2247617Y1846387D01*
X2244992Y1845730D01*
X2243680D01*
X2239087Y1846387D01*
X2235151Y1847699D01*
X2231870Y1849667D01*
X2227934Y1852291D01*
X2222029Y1858852D01*
X2217436Y1866726D01*
X2213499Y1873943D01*
X2210875Y1880504D01*
X2210219Y1883128D01*
X2209563Y1885096D01*
X2208907Y1886409D01*
Y1887065D01*
X2202346Y1915277D01*
X2197097Y1941521D01*
X2195129Y1953987D01*
X2193816Y1965797D01*
X2191848Y1976950D01*
X2191192Y1987448D01*
X2190536Y1997290D01*
X2189880Y2005819D01*
X2189224Y2013036D01*
X2188568Y2019597D01*
Y2024846D01*
Y2028126D01*
Y2030751D01*
Y2031407D01*
X2189224Y2046497D01*
X2189880Y2060931D01*
X2191848Y2074709D01*
X2193816Y2087175D01*
X2197097Y2098985D01*
X2200378Y2110139D01*
X2203658Y2119980D01*
X2208251Y2129166D01*
X2212843Y2137695D01*
X2217436Y2145568D01*
X2222685Y2152785D01*
X2227934Y2159346D01*
X2239743Y2170500D01*
X2250897Y2179685D01*
X2262707Y2186246D01*
X2274517Y2191495D01*
X2285014Y2195432D01*
X2294200Y2198056D01*
X2302073Y2199368D01*
X2308634Y2200680D01*
X2313883D01*
X2325693Y2200024D01*
D02*
G37*
G36*
X2632747Y2188871D02*
X2636684Y2188215D01*
X2643245Y2185590D01*
X2645869Y2183622D01*
X2647838Y2182310D01*
X2648494Y2181654D01*
X2649150Y2180997D01*
X2652430Y2177717D01*
X2654399Y2174436D01*
X2657023Y2168532D01*
X2657679Y2165907D01*
X2658335Y2164595D01*
Y2163283D01*
Y2162627D01*
X2657679Y2159346D01*
X2657023Y2155410D01*
X2654399Y2148193D01*
X2653086Y2144912D01*
X2652430Y2142944D01*
X2651118Y2140975D01*
Y2140319D01*
X2646526Y2132446D01*
X2643245Y2126541D01*
X2641277Y2122605D01*
X2639308Y2119324D01*
X2637996Y2118012D01*
X2637340Y2116700D01*
Y2116044D01*
X2630779Y2099641D01*
X2626186Y2081270D01*
X2622250Y2063556D01*
X2620282Y2045841D01*
X2618969Y2037968D01*
Y2030094D01*
X2618313Y2023534D01*
X2617657Y2017629D01*
Y2013036D01*
Y2009755D01*
Y2007131D01*
Y2006475D01*
Y1997290D01*
X2618969Y1988104D01*
X2619625Y1978919D01*
X2620938Y1971045D01*
X2622250Y1963828D01*
X2623562Y1957924D01*
X2624218Y1954643D01*
X2624874Y1953987D01*
Y1953331D01*
X2626843Y1943489D01*
X2628811Y1936272D01*
X2630123Y1930367D01*
X2630779Y1925775D01*
Y1923150D01*
X2631435Y1921182D01*
Y1919870D01*
X2630123Y1910684D01*
X2626843Y1904123D01*
X2622906Y1898874D01*
X2617657Y1895594D01*
X2612408Y1893626D01*
X2608472Y1892970D01*
X2605191Y1892313D01*
X2603879D01*
X2599942Y1892970D01*
X2596662Y1893626D01*
X2590101Y1897562D01*
X2584852Y1902811D01*
X2579603Y1909372D01*
X2576323Y1915277D01*
X2573042Y1920526D01*
X2571730Y1924462D01*
X2571074Y1925119D01*
Y1925775D01*
X2567137Y1938897D01*
X2564513Y1953331D01*
X2561889Y1968421D01*
X2560576Y1982199D01*
X2559920Y1995321D01*
Y2000570D01*
X2559264Y2005163D01*
Y2009099D01*
Y2011724D01*
Y2013692D01*
Y2014348D01*
Y2047153D01*
X2558608Y2058963D01*
X2557296Y2069461D01*
X2555328Y2078646D01*
X2552703Y2085863D01*
X2550079Y2091768D01*
X2548110Y2096361D01*
X2546798Y2098985D01*
X2546142Y2099641D01*
X2540893Y2106202D01*
X2534988Y2110795D01*
X2529084Y2114731D01*
X2523835Y2116700D01*
X2518586Y2118012D01*
X2514649Y2119324D01*
X2511369D01*
X2508744Y2118668D01*
X2505464Y2118012D01*
X2498903Y2114731D01*
X2496279Y2112763D01*
X2494310Y2111451D01*
X2492998Y2110795D01*
X2492342Y2110139D01*
X2488405Y2106858D01*
X2484469Y2104890D01*
X2477908Y2102265D01*
X2473971Y2100953D01*
X2472659D01*
X2468722Y2101609D01*
X2465442Y2102265D01*
X2459537Y2104890D01*
X2456256Y2107514D01*
X2454944Y2108827D01*
X2452320Y2112107D01*
X2451008Y2115387D01*
X2448383Y2121948D01*
Y2124573D01*
X2447727Y2126541D01*
Y2127853D01*
Y2128510D01*
X2448383Y2135727D01*
X2450352Y2142288D01*
X2453632Y2147536D01*
X2456256Y2152129D01*
X2459537Y2156066D01*
X2462817Y2158690D01*
X2464786Y2160658D01*
X2465442Y2161314D01*
X2472003Y2165907D01*
X2479220Y2169188D01*
X2487093Y2171156D01*
X2493654Y2173124D01*
X2500215Y2173780D01*
X2504808Y2174436D01*
X2509401D01*
X2518586Y2173780D01*
X2527771Y2172468D01*
X2535644Y2169844D01*
X2542862Y2166563D01*
X2550079Y2163283D01*
X2555984Y2158690D01*
X2565825Y2150161D01*
X2573698Y2140975D01*
X2579603Y2133102D01*
X2580916Y2129822D01*
X2582228Y2127197D01*
X2583540Y2125885D01*
Y2125229D01*
X2586164Y2136383D01*
X2589445Y2146224D01*
X2593381Y2154753D01*
X2596662Y2162627D01*
X2600598Y2168532D01*
X2603879Y2173780D01*
X2607816Y2178373D01*
X2611752Y2181654D01*
X2615033Y2184278D01*
X2618313Y2186246D01*
X2623562Y2188871D01*
X2627499Y2189527D01*
X2628811D01*
X2632747Y2188871D01*
D02*
G37*
G36*
X3463370Y2287942D02*
X3467963Y2287286D01*
X3471899Y2285318D01*
X3474524Y2283349D01*
X3479116Y2278101D01*
X3481741Y2272196D01*
X3483053Y2266291D01*
Y2261042D01*
Y2257105D01*
Y2256449D01*
Y2255793D01*
Y2255137D01*
Y2253169D01*
Y2250544D01*
X3482397Y2246608D01*
Y2242671D01*
Y2237422D01*
X3481741Y2226925D01*
X3481085Y2216427D01*
Y2211178D01*
Y2207242D01*
X3480428Y2203305D01*
Y2200681D01*
Y2198712D01*
Y2198056D01*
X3479772Y2176405D01*
X3479116Y2156066D01*
X3478460Y2136383D01*
Y2127854D01*
X3477804Y2119324D01*
Y2111451D01*
Y2104890D01*
Y2098985D01*
Y2093736D01*
Y2089800D01*
Y2086519D01*
Y2084551D01*
Y2083895D01*
Y2062900D01*
X3478460Y2042561D01*
X3479773Y2022878D01*
X3481085Y2003851D01*
X3482397Y1986136D01*
X3484365Y1969077D01*
X3486334Y1953331D01*
X3488302Y1938897D01*
X3490270Y1925119D01*
X3492238Y1913309D01*
X3494207Y1903467D01*
X3495519Y1894938D01*
X3496831Y1887721D01*
X3498143Y1882472D01*
X3498799Y1879848D01*
Y1878536D01*
X3499456Y1875911D01*
X3500768Y1872631D01*
X3502736Y1864757D01*
X3504048Y1860821D01*
X3505360Y1857540D01*
X3506017Y1854916D01*
Y1854260D01*
X3507329Y1849011D01*
X3507985Y1844418D01*
X3508641Y1840482D01*
Y1837201D01*
X3509297Y1835233D01*
Y1833265D01*
Y1832609D01*
Y1831953D01*
X3508641Y1828016D01*
X3507985Y1824079D01*
X3505360Y1817518D01*
X3503392Y1813582D01*
X3502080Y1812926D01*
Y1812270D01*
X3499456Y1809645D01*
X3496175Y1807677D01*
X3490270Y1805052D01*
X3487646Y1804396D01*
X3485677Y1803740D01*
X3483709D01*
X3478460Y1804396D01*
X3473211Y1805708D01*
X3468619Y1808333D01*
X3464682Y1811613D01*
X3456809Y1820143D01*
X3450904Y1829328D01*
X3446311Y1838514D01*
X3443031Y1847043D01*
X3441719Y1850323D01*
X3441063Y1852948D01*
X3440407Y1854260D01*
Y1854916D01*
X3437782Y1864757D01*
X3435814Y1875255D01*
X3433189Y1887065D01*
X3431221Y1899531D01*
X3427941Y1925119D01*
X3424660Y1950707D01*
X3423348Y1962516D01*
X3422036Y1973670D01*
X3421380Y1983512D01*
X3420067Y1992697D01*
X3419411Y1999914D01*
Y2005163D01*
X3418755Y2008443D01*
Y2009756D01*
X3412194Y2013692D01*
X3405633Y2018285D01*
X3398416Y2022878D01*
X3391199Y2027470D01*
X3385294Y2031407D01*
X3380701Y2034687D01*
X3377421Y2037312D01*
X3376109Y2037968D01*
X3362331Y2030751D01*
X3349209Y2022878D01*
X3336087Y2013692D01*
X3323621Y2004507D01*
X3299345Y1984824D01*
X3288191Y1974982D01*
X3278350Y1965141D01*
X3268508Y1955299D01*
X3259979Y1946770D01*
X3252762Y1938897D01*
X3246201Y1931680D01*
X3240952Y1925775D01*
X3237672Y1921838D01*
X3235047Y1919214D01*
X3234391Y1917902D01*
X3227830Y1909372D01*
X3221925Y1900843D01*
X3215364Y1891658D01*
X3209459Y1883128D01*
X3204211Y1875911D01*
X3200274Y1869350D01*
X3197649Y1865414D01*
X3196993Y1864757D01*
Y1864101D01*
X3189776Y1852948D01*
X3183871Y1843762D01*
X3178623Y1836545D01*
X3174686Y1831296D01*
X3172062Y1826704D01*
X3169437Y1824079D01*
X3168781Y1822767D01*
X3168125Y1822111D01*
X3164845Y1818830D01*
X3160908Y1816206D01*
X3156971Y1814238D01*
X3153035Y1812926D01*
X3149754Y1812269D01*
X3147130Y1811613D01*
X3144505D01*
X3139913Y1812269D01*
X3135320Y1812926D01*
X3128103Y1816206D01*
X3125479Y1818174D01*
X3123510Y1819486D01*
X3122854Y1820143D01*
X3122198Y1820799D01*
X3118918Y1824079D01*
X3116949Y1828016D01*
X3114325Y1834577D01*
X3113669Y1837201D01*
X3113013Y1839826D01*
Y1841138D01*
Y1841794D01*
X3113669Y1847699D01*
X3116293Y1855572D01*
X3120230Y1863445D01*
X3124166Y1871318D01*
X3128759Y1879192D01*
X3132039Y1885097D01*
X3134008Y1887721D01*
X3134664Y1889689D01*
X3135976Y1890345D01*
Y1891001D01*
X3146474Y1907404D01*
X3157627Y1923150D01*
X3169437Y1938897D01*
X3180591Y1952675D01*
X3185840Y1958580D01*
X3190432Y1964485D01*
X3195025Y1969733D01*
X3198962Y1973670D01*
X3201586Y1977607D01*
X3204211Y1980231D01*
X3205523Y1981543D01*
X3206179Y1982199D01*
X3226518Y2002538D01*
X3246857Y2020909D01*
X3266540Y2037312D01*
X3275725Y2043873D01*
X3284911Y2050434D01*
X3293440Y2056339D01*
X3300657Y2060931D01*
X3307218Y2065524D01*
X3313123Y2068805D01*
X3317716Y2071429D01*
X3321652Y2074053D01*
X3323621Y2074709D01*
X3324277Y2075366D01*
X3308530Y2087175D01*
X3294096Y2098985D01*
X3280318Y2110139D01*
X3267852Y2121293D01*
X3256042Y2131134D01*
X3244889Y2140976D01*
X3235047Y2150817D01*
X3225862Y2160002D01*
X3217332Y2168532D01*
X3208803Y2176405D01*
X3201586Y2184278D01*
X3195025Y2191495D01*
X3183871Y2205273D01*
X3174686Y2217739D01*
X3168125Y2228237D01*
X3162876Y2236766D01*
X3158939Y2244639D01*
X3156315Y2250544D01*
X3155003Y2255137D01*
X3153691Y2258417D01*
Y2260386D01*
Y2261042D01*
X3155003Y2269571D01*
X3157627Y2276132D01*
X3162220Y2280725D01*
X3166813Y2284005D01*
X3172061Y2285974D01*
X3176654Y2286630D01*
X3179279Y2287286D01*
X3180591D01*
X3185840Y2286630D01*
X3190432Y2285318D01*
X3195025Y2283349D01*
X3198962Y2281381D01*
X3201586Y2278756D01*
X3204210Y2276788D01*
X3205523Y2275476D01*
X3206179Y2274820D01*
X3206835Y2274164D01*
X3208147Y2272852D01*
X3212084Y2268259D01*
X3216676Y2263010D01*
X3221925Y2256449D01*
X3227174Y2250544D01*
X3231767Y2245295D01*
X3234391Y2241359D01*
X3235703Y2240703D01*
Y2240047D01*
X3249481Y2223644D01*
X3263916Y2207898D01*
X3294096Y2177717D01*
X3309186Y2163939D01*
X3324277Y2150161D01*
X3338711Y2137695D01*
X3353145Y2125885D01*
X3366267Y2115388D01*
X3378077Y2105546D01*
X3389231Y2097017D01*
X3398416Y2089800D01*
X3406289Y2084551D01*
X3412194Y2079958D01*
X3415475Y2077334D01*
X3416787Y2076678D01*
Y2089144D01*
X3417443Y2100297D01*
Y2121949D01*
X3418099Y2140976D01*
X3418099Y2158034D01*
X3418755Y2172468D01*
X3419411Y2185590D01*
Y2196088D01*
X3420067Y2205273D01*
Y2213147D01*
X3420723Y2219052D01*
Y2224300D01*
Y2228237D01*
X3421380Y2230861D01*
Y2232173D01*
Y2233486D01*
X3422692Y2243327D01*
X3424660Y2251856D01*
X3426628Y2259074D01*
X3429909Y2265635D01*
X3432533Y2270883D01*
X3435814Y2275476D01*
X3438438Y2278757D01*
X3441719Y2282037D01*
X3448280Y2285974D01*
X3452872Y2287942D01*
X3456809Y2288598D01*
X3458121D01*
X3463370Y2287942D01*
D02*
G37*
G36*
X3041498Y2194776D02*
X3047403Y2192151D01*
X3051995Y2188871D01*
X3055932Y2185590D01*
X3058556Y2181654D01*
X3060524Y2178373D01*
X3061181Y2175749D01*
X3061837Y2175093D01*
X3063805Y2169844D01*
X3065117Y2163283D01*
X3066429Y2155410D01*
X3067086Y2148193D01*
Y2140976D01*
X3067742Y2135071D01*
Y2130478D01*
Y2129822D01*
Y2129166D01*
Y2127854D01*
Y2124573D01*
Y2120636D01*
X3067086Y2116044D01*
Y2111451D01*
Y2108171D01*
Y2105546D01*
Y2104234D01*
Y2095705D01*
X3066430Y2087831D01*
Y2080614D01*
Y2074053D01*
Y2068805D01*
Y2064212D01*
Y2061587D01*
Y2060931D01*
Y2043873D01*
X3067086Y2028126D01*
X3067742Y2014348D01*
X3068398Y2001882D01*
X3069054Y1992041D01*
X3069710Y1988104D01*
Y1984824D01*
Y1982199D01*
X3070366Y1980231D01*
Y1978919D01*
Y1978263D01*
X3071678Y1968421D01*
X3072990Y1959236D01*
X3074303Y1951363D01*
X3075615Y1944146D01*
X3076271Y1938897D01*
X3077583Y1934960D01*
X3078239Y1932336D01*
Y1931680D01*
X3076271Y1926431D01*
X3074959Y1921838D01*
Y1917901D01*
Y1915277D01*
X3075615Y1913309D01*
X3076271Y1911997D01*
X3076927Y1911341D01*
X3078239Y1907404D01*
X3078895Y1903467D01*
X3078239Y1900187D01*
X3077583Y1896906D01*
X3075615Y1892970D01*
X3074303Y1892314D01*
Y1891658D01*
X3071022Y1889033D01*
X3067086Y1887065D01*
X3060525Y1885097D01*
X3057900Y1884440D01*
X3055276Y1883784D01*
X3053307D01*
X3046747Y1884440D01*
X3041498Y1886409D01*
X3036905Y1889689D01*
X3032968Y1892970D01*
X3030344Y1896250D01*
X3027720Y1899531D01*
X3027064Y1901499D01*
X3026407Y1902155D01*
X3024439Y1906092D01*
X3023127Y1911997D01*
X3021159Y1917901D01*
X3019846Y1924463D01*
X3019190Y1930367D01*
X3017878Y1935616D01*
X3017222Y1938897D01*
Y1940209D01*
X3015254Y1954643D01*
X3013285Y1970389D01*
X3011973Y1987448D01*
X3010661Y2005819D01*
X3008693Y2042561D01*
X3008037Y2060931D01*
X3007381Y2078646D01*
X3006724Y2095705D01*
Y2111451D01*
X3006068Y2125885D01*
Y2138351D01*
Y2148849D01*
X3006068Y2153441D01*
Y2156722D01*
Y2159346D01*
Y2161315D01*
Y2162627D01*
Y2163283D01*
Y2169188D01*
X3007380Y2173780D01*
X3008693Y2178373D01*
X3010661Y2181654D01*
X3015254Y2187559D01*
X3019846Y2191495D01*
X3025095Y2193463D01*
X3029688Y2194776D01*
X3032968Y2195432D01*
X3034280D01*
X3041498Y2194776D01*
D02*
G37*
G36*
X3080913Y1454450D02*
X3086162Y1453138D01*
X3090099Y1451825D01*
X3094035Y1449857D01*
X3097316Y1447233D01*
X3099284Y1445920D01*
X3100596Y1444608D01*
X3101252Y1443952D01*
X3104533Y1440016D01*
X3107157Y1435423D01*
X3109126Y1431486D01*
X3110438Y1427550D01*
X3111094Y1423613D01*
X3111750Y1420989D01*
Y1419020D01*
Y1418364D01*
X3111094Y1413116D01*
X3110438Y1409179D01*
X3107157Y1401306D01*
X3105189Y1398681D01*
X3103877Y1396713D01*
X3103221Y1395401D01*
X3102565Y1394745D01*
X3098628Y1391464D01*
X3094691Y1388840D01*
X3090755Y1387528D01*
X3086818Y1386215D01*
X3083538Y1385559D01*
X3080913Y1384903D01*
X3078289D01*
X3071728Y1385559D01*
X3066479Y1386215D01*
X3061886Y1388184D01*
X3057950Y1390152D01*
X3051389Y1396057D01*
X3047452Y1402618D01*
X3044828Y1409179D01*
X3043516Y1415084D01*
X3042860Y1419020D01*
Y1419677D01*
Y1420333D01*
X3043516Y1426237D01*
X3044172Y1430830D01*
X3045484Y1435423D01*
X3047452Y1438703D01*
X3049421Y1441328D01*
X3050733Y1443296D01*
X3051389Y1444608D01*
X3052045Y1445264D01*
X3055981Y1448545D01*
X3059262Y1451169D01*
X3063855Y1452482D01*
X3067135Y1453794D01*
X3070416Y1454450D01*
X3073040Y1455106D01*
X3075664D01*
X3080913Y1454450D01*
D02*
G37*
G36*
X2888676Y1356035D02*
X2899830Y1354723D01*
X2909671Y1352098D01*
X2918200Y1349474D01*
X2924762Y1346849D01*
X2930010Y1344225D01*
X2932635Y1342913D01*
X2933947Y1342257D01*
X2941164Y1337008D01*
X2946413Y1332415D01*
X2950349Y1327822D01*
X2952974Y1323230D01*
X2954286Y1319293D01*
X2954942Y1316669D01*
X2955598Y1314700D01*
Y1314044D01*
X2954286Y1307483D01*
X2952318Y1302235D01*
X2950349Y1298954D01*
X2949037Y1298298D01*
Y1297642D01*
X2943788Y1293705D01*
X2938540Y1291737D01*
X2934603Y1291081D01*
X2933291D01*
X2930666Y1291737D01*
X2927386Y1292393D01*
X2919513Y1295674D01*
X2916232Y1297642D01*
X2912952Y1298954D01*
X2910983Y1299610D01*
X2910327Y1300266D01*
X2903766Y1303547D01*
X2897861Y1305515D01*
X2891956Y1307483D01*
X2886708Y1308139D01*
X2882771Y1308796D01*
X2879491Y1309452D01*
X2876866D01*
X2864400Y1308139D01*
X2853903Y1304859D01*
X2844061Y1300266D01*
X2835532Y1293705D01*
X2828971Y1286488D01*
X2822410Y1277959D01*
X2817817Y1268774D01*
X2813224Y1259588D01*
X2809944Y1249747D01*
X2807320Y1240561D01*
X2805351Y1232688D01*
X2804039Y1224815D01*
X2802727Y1218254D01*
Y1213661D01*
X2802071Y1210381D01*
Y1209068D01*
X2807976Y1214317D01*
X2813881Y1218910D01*
X2826347Y1225471D01*
X2838156Y1230720D01*
X2849966Y1234656D01*
X2859808Y1236625D01*
X2863744Y1237281D01*
X2867681D01*
X2870961Y1237937D01*
X2884083D01*
X2892613Y1236625D01*
X2908359Y1233344D01*
X2922137Y1228095D01*
X2933291Y1222847D01*
X2942476Y1217598D01*
X2949037Y1212349D01*
X2951006Y1210381D01*
X2952974Y1209068D01*
X2953630Y1208412D01*
X2954286Y1207756D01*
X2959535Y1201851D01*
X2964128Y1195946D01*
X2971345Y1182824D01*
X2976593Y1169702D01*
X2979874Y1156580D01*
X2982498Y1145427D01*
X2983155Y1140178D01*
Y1136241D01*
X2983811Y1132305D01*
Y1129680D01*
Y1128368D01*
Y1127712D01*
X2982498Y1109997D01*
X2979218Y1094907D01*
X2975281Y1081129D01*
X2970032Y1070631D01*
X2964784Y1061446D01*
X2960847Y1055541D01*
X2957567Y1051604D01*
X2956254Y1050292D01*
X2945101Y1041107D01*
X2932635Y1034546D01*
X2919513Y1029297D01*
X2907703Y1026016D01*
X2896549Y1024048D01*
X2891957Y1023392D01*
X2887364D01*
X2884083Y1022736D01*
X2879491D01*
X2868993Y1023392D01*
X2859152Y1024704D01*
X2849966Y1027329D01*
X2841437Y1029953D01*
X2834876Y1031921D01*
X2829627Y1034546D01*
X2826347Y1035858D01*
X2825034Y1036514D01*
X2825691Y1034546D01*
Y1031921D01*
Y1029953D01*
Y1029297D01*
X2825034Y1021424D01*
X2822410Y1015519D01*
X2819130Y1011582D01*
X2815193Y1008958D01*
X2811912Y1006990D01*
X2808632Y1006333D01*
X2806008Y1005677D01*
X2805351D01*
X2802071Y1006333D01*
X2798134Y1007646D01*
X2795510Y1008958D01*
X2792229Y1011582D01*
X2786981Y1017487D01*
X2783044Y1024704D01*
X2779764Y1031921D01*
X2777139Y1037826D01*
X2776483Y1040451D01*
X2775827Y1042419D01*
X2775171Y1043075D01*
Y1043731D01*
X2768610Y1071944D01*
X2763361Y1098188D01*
X2761393Y1110653D01*
X2760081Y1123119D01*
X2758112Y1134273D01*
X2757456Y1144771D01*
X2756800Y1154612D01*
X2756144Y1163141D01*
X2755488Y1171015D01*
X2754832Y1177576D01*
Y1182168D01*
Y1186105D01*
Y1188729D01*
Y1189385D01*
X2755488Y1204476D01*
X2756144Y1218910D01*
X2758112Y1232032D01*
X2760081Y1244498D01*
X2762705Y1256308D01*
X2765985Y1266805D01*
X2769922Y1276647D01*
X2773858Y1285832D01*
X2778451Y1294361D01*
X2783044Y1302235D01*
X2788293Y1309452D01*
X2793541Y1316013D01*
X2804695Y1327166D01*
X2815849Y1335696D01*
X2827003Y1342913D01*
X2838156Y1348162D01*
X2848654Y1351442D01*
X2857839Y1354066D01*
X2865713Y1355379D01*
X2871617Y1356691D01*
X2876866D01*
X2888676Y1356035D01*
D02*
G37*
G36*
X2369045Y1356035D02*
X2380198Y1354723D01*
X2390040Y1352098D01*
X2398569Y1349474D01*
X2405130Y1346849D01*
X2410379Y1344225D01*
X2413003Y1342913D01*
X2414316Y1342257D01*
X2421533Y1337008D01*
X2426782Y1332415D01*
X2430718Y1327822D01*
X2433343Y1323230D01*
X2434655Y1319293D01*
X2435311Y1316669D01*
X2435967Y1314700D01*
Y1314044D01*
X2434655Y1307483D01*
X2432686Y1302235D01*
X2430718Y1298954D01*
X2429406Y1298298D01*
Y1297642D01*
X2424157Y1293705D01*
X2418908Y1291737D01*
X2414972Y1291081D01*
X2413660D01*
X2411035Y1291737D01*
X2407755Y1292393D01*
X2399881Y1295674D01*
X2396601Y1297642D01*
X2393320Y1298954D01*
X2391352Y1299610D01*
X2390696Y1300266D01*
X2384135Y1303547D01*
X2378230Y1305515D01*
X2372325Y1307483D01*
X2367077Y1308139D01*
X2363140Y1308795D01*
X2359859Y1309452D01*
X2357235D01*
X2344769Y1308139D01*
X2334271Y1304859D01*
X2324430Y1300266D01*
X2315901Y1293705D01*
X2309340Y1286488D01*
X2302779Y1277959D01*
X2298186Y1268773D01*
X2293593Y1259588D01*
X2290313Y1249746D01*
X2287689Y1240561D01*
X2285720Y1232688D01*
X2284408Y1224815D01*
X2283096Y1218254D01*
Y1213661D01*
X2282440Y1210380D01*
Y1209068D01*
X2288345Y1214317D01*
X2294249Y1218910D01*
X2306715Y1225471D01*
X2318525Y1230720D01*
X2330335Y1234656D01*
X2340177Y1236624D01*
X2344113Y1237281D01*
X2348050D01*
X2351330Y1237937D01*
X2364452D01*
X2372981Y1236624D01*
X2388728Y1233344D01*
X2402506Y1228095D01*
X2413660Y1222846D01*
X2422845Y1217598D01*
X2429406Y1212349D01*
X2431374Y1210380D01*
X2433343Y1209068D01*
X2433999Y1208412D01*
X2434655Y1207756D01*
X2439904Y1201851D01*
X2444496Y1195946D01*
X2451713Y1182824D01*
X2456962Y1169702D01*
X2460243Y1156580D01*
X2462867Y1145427D01*
X2463523Y1140178D01*
Y1136241D01*
X2464179Y1132305D01*
Y1129680D01*
Y1128368D01*
Y1127712D01*
X2462867Y1109997D01*
X2459587Y1094907D01*
X2455650Y1081129D01*
X2450401Y1070631D01*
X2445153Y1061446D01*
X2441216Y1055541D01*
X2437935Y1051604D01*
X2436623Y1050292D01*
X2425470Y1041107D01*
X2413004Y1034546D01*
X2399882Y1029297D01*
X2388072Y1026016D01*
X2376918Y1024048D01*
X2372325Y1023392D01*
X2367733D01*
X2364452Y1022736D01*
X2359860D01*
X2349362Y1023392D01*
X2339520Y1024704D01*
X2330335Y1027329D01*
X2321806Y1029953D01*
X2315245Y1031921D01*
X2309996Y1034546D01*
X2306715Y1035858D01*
X2305403Y1036514D01*
X2306059Y1034546D01*
Y1031921D01*
Y1029953D01*
Y1029297D01*
X2305403Y1021424D01*
X2302779Y1015519D01*
X2299498Y1011582D01*
X2295562Y1008958D01*
X2292281Y1006990D01*
X2289001Y1006333D01*
X2286376Y1005677D01*
X2285720D01*
X2282440Y1006333D01*
X2278503Y1007646D01*
X2275879Y1008958D01*
X2272598Y1011582D01*
X2267349Y1017487D01*
X2263413Y1024704D01*
X2260132Y1031921D01*
X2257508Y1037826D01*
X2256852Y1040451D01*
X2256196Y1042419D01*
X2255540Y1043075D01*
Y1043731D01*
X2248979Y1071943D01*
X2243730Y1098187D01*
X2241762Y1110653D01*
X2240449Y1123119D01*
X2238481Y1134273D01*
X2237825Y1144771D01*
X2237169Y1154612D01*
X2236513Y1163141D01*
X2235857Y1171014D01*
X2235200Y1177575D01*
Y1182168D01*
Y1186105D01*
Y1188729D01*
Y1189385D01*
X2235857Y1204476D01*
X2236513Y1218910D01*
X2238481Y1232032D01*
X2240449Y1244498D01*
X2243074Y1256307D01*
X2246354Y1266805D01*
X2250291Y1276647D01*
X2254227Y1285832D01*
X2258820Y1294361D01*
X2263413Y1302235D01*
X2268662Y1309452D01*
X2273910Y1316013D01*
X2285064Y1327166D01*
X2296218Y1335696D01*
X2307371Y1342913D01*
X2318525Y1348161D01*
X2329023Y1351442D01*
X2338208Y1354066D01*
X2346081Y1355379D01*
X2351986Y1356691D01*
X2357235D01*
X2369045Y1356035D01*
D02*
G37*
G36*
X2680036Y1344225D02*
X2685285Y1342257D01*
X2689222Y1339632D01*
X2689878Y1338976D01*
X2690534Y1338320D01*
X2693158Y1335696D01*
X2695126Y1333071D01*
X2697095Y1327822D01*
X2698407Y1323886D01*
Y1323230D01*
Y1322574D01*
X2697095Y1316669D01*
X2695126Y1310108D01*
X2693814Y1307483D01*
X2693158Y1304859D01*
X2691846Y1303547D01*
Y1302891D01*
X2687253Y1295017D01*
X2683973Y1288456D01*
X2681348Y1283864D01*
X2680036Y1281239D01*
X2678724Y1279271D01*
X2678068Y1277959D01*
Y1277303D01*
X2674131Y1268773D01*
X2670851Y1260244D01*
X2665602Y1241217D01*
X2662322Y1222190D01*
X2659697Y1204476D01*
X2659041Y1195946D01*
X2658385Y1188073D01*
X2657729Y1180856D01*
X2657073Y1174951D01*
Y1170358D01*
Y1166422D01*
Y1163797D01*
Y1163141D01*
Y1153300D01*
X2658385Y1143458D01*
X2659041Y1134273D01*
X2660353Y1125744D01*
X2661666Y1118526D01*
X2662978Y1113278D01*
X2663634Y1109341D01*
X2664290Y1108685D01*
Y1108029D01*
X2666914Y1098187D01*
X2668227Y1090970D01*
X2669539Y1085065D01*
X2670851Y1080473D01*
Y1077848D01*
X2671507Y1075880D01*
Y1074568D01*
X2670195Y1067351D01*
X2667570Y1061446D01*
X2664290Y1057509D01*
X2659697Y1054885D01*
X2655761Y1053573D01*
X2651824Y1052917D01*
X2649200Y1052260D01*
X2648544D01*
X2645263Y1052917D01*
X2642639Y1053573D01*
X2636734Y1056853D01*
X2632141Y1062102D01*
X2628204Y1067351D01*
X2624924Y1072600D01*
X2622300Y1077848D01*
X2620987Y1081129D01*
X2620331Y1082441D01*
X2616395Y1096219D01*
X2613770Y1110653D01*
X2611146Y1125088D01*
X2609834Y1139522D01*
X2609177Y1151988D01*
Y1157892D01*
X2608521Y1162485D01*
Y1166422D01*
Y1169046D01*
Y1171014D01*
Y1171671D01*
Y1205132D01*
X2607865Y1218254D01*
X2606553Y1229407D01*
X2603929Y1239249D01*
X2601304Y1247122D01*
X2598680Y1253683D01*
X2596055Y1258276D01*
X2594743Y1261556D01*
X2594087Y1262212D01*
X2588182Y1269429D01*
X2581621Y1274678D01*
X2575060Y1278615D01*
X2568499Y1281239D01*
X2563250Y1282552D01*
X2558658Y1283864D01*
X2554721D01*
X2550785Y1283208D01*
X2546848Y1282552D01*
X2540287Y1279271D01*
X2537006Y1277303D01*
X2535038Y1275991D01*
X2533726Y1275334D01*
X2533070Y1274678D01*
X2528477Y1272054D01*
X2525197Y1270086D01*
X2519292Y1267461D01*
X2516011Y1266149D01*
X2514699D01*
X2508794Y1267461D01*
X2504201Y1269429D01*
X2501577Y1271398D01*
X2500265Y1272710D01*
X2496984Y1277959D01*
X2495016Y1283208D01*
X2494360Y1287144D01*
Y1287800D01*
Y1288456D01*
X2495016Y1295017D01*
X2496984Y1300922D01*
X2499609Y1306171D01*
X2502233Y1310764D01*
X2505514Y1314044D01*
X2508138Y1316669D01*
X2510106Y1317981D01*
X2510762Y1318637D01*
X2517323Y1322574D01*
X2523884Y1325198D01*
X2530445Y1327822D01*
X2537006Y1329135D01*
X2542911Y1329791D01*
X2547504Y1330447D01*
X2552097D01*
X2561282Y1329791D01*
X2569811Y1328478D01*
X2577685Y1325854D01*
X2585558Y1322574D01*
X2598680Y1314044D01*
X2609177Y1304859D01*
X2617707Y1295674D01*
X2624268Y1287144D01*
X2626236Y1283864D01*
X2627548Y1281239D01*
X2628860Y1279927D01*
Y1279271D01*
X2632141Y1291081D01*
X2636077Y1300922D01*
X2639358Y1310108D01*
X2643295Y1317325D01*
X2647231Y1323886D01*
X2651168Y1329135D01*
X2654448Y1333727D01*
X2658385Y1337008D01*
X2661665Y1340288D01*
X2664290Y1342257D01*
X2669539Y1344225D01*
X2672819Y1345537D01*
X2677412D01*
X2680036Y1344225D01*
D02*
G37*
G36*
X3509347Y1445264D02*
X3515908Y1441984D01*
X3519844Y1437391D01*
X3523125Y1432142D01*
X3525093Y1426894D01*
X3525749Y1422301D01*
X3526405Y1419021D01*
Y1418364D01*
Y1417708D01*
Y1417052D01*
Y1415084D01*
X3525749Y1412459D01*
Y1409179D01*
X3525093Y1404586D01*
X3524437Y1399338D01*
X3523781Y1388840D01*
X3522469Y1377686D01*
Y1373093D01*
X3521812Y1368501D01*
Y1364564D01*
X3521156Y1361940D01*
Y1359972D01*
Y1359315D01*
X3519188Y1337664D01*
X3517876Y1316013D01*
X3516564Y1296330D01*
Y1287144D01*
X3515908Y1278615D01*
Y1270742D01*
X3515251Y1264181D01*
Y1257620D01*
X3515252Y1252371D01*
Y1248435D01*
Y1245154D01*
Y1243186D01*
Y1242530D01*
Y1220878D01*
X3515908Y1199883D01*
X3517220Y1179544D01*
X3518532Y1160517D01*
X3520500Y1141490D01*
X3522469Y1124432D01*
X3524437Y1108029D01*
X3526405Y1092939D01*
X3528374Y1079161D01*
X3530342Y1066695D01*
X3532310Y1056197D01*
X3534278Y1047012D01*
X3535591Y1039795D01*
X3536903Y1034546D01*
X3537559Y1031265D01*
Y1029953D01*
X3538215Y1027985D01*
X3538871Y1024704D01*
X3540183Y1020768D01*
X3540840Y1016831D01*
X3542152Y1012895D01*
X3543464Y1009614D01*
X3544120Y1006990D01*
Y1006334D01*
X3546088Y997804D01*
X3546744Y991243D01*
X3547401Y988619D01*
Y986651D01*
Y985995D01*
Y985338D01*
X3546744Y978777D01*
X3544120Y974185D01*
X3542152Y970904D01*
X3541496Y969592D01*
X3538871Y966968D01*
X3536903Y965655D01*
X3531654Y963031D01*
X3527718Y962375D01*
X3526405D01*
X3521813Y963031D01*
X3517220Y964343D01*
X3513283Y966968D01*
X3509347Y970248D01*
X3502786Y978777D01*
X3496881Y988619D01*
X3492944Y997804D01*
X3489664Y1006334D01*
X3488352Y1009614D01*
X3487695Y1012239D01*
X3487039Y1013551D01*
Y1014207D01*
X3484415Y1023392D01*
X3482447Y1033890D01*
X3480478Y1045700D01*
X3478510Y1058166D01*
X3474573Y1083753D01*
X3471293Y1109341D01*
X3469981Y1121151D01*
X3468669Y1132961D01*
X3468012Y1142802D01*
X3466700Y1151988D01*
X3466044Y1159205D01*
Y1165110D01*
X3465388Y1168390D01*
Y1169703D01*
X3458171Y1174295D01*
X3450298Y1178888D01*
X3442425Y1184137D01*
X3434551Y1189386D01*
X3427990Y1193322D01*
X3422742Y1197259D01*
X3418805Y1199883D01*
X3417493Y1200539D01*
X3403059Y1193322D01*
X3388624Y1184793D01*
X3374846Y1175607D01*
X3361724Y1165766D01*
X3348602Y1155924D01*
X3336136Y1145427D01*
X3324983Y1134929D01*
X3313829Y1125088D01*
X3303987Y1115246D01*
X3295458Y1106061D01*
X3287585Y1098188D01*
X3281024Y1090970D01*
X3275775Y1085066D01*
X3271838Y1080473D01*
X3269214Y1077848D01*
X3268558Y1076536D01*
X3261997Y1068007D01*
X3254780Y1058822D01*
X3248219Y1049636D01*
X3242314Y1041107D01*
X3237065Y1033234D01*
X3233129Y1027329D01*
X3229848Y1022736D01*
X3229192Y1022080D01*
Y1021424D01*
X3221975Y1010270D01*
X3216070Y1001085D01*
X3211477Y993868D01*
X3207541Y987963D01*
X3204916Y984026D01*
X3202948Y981402D01*
X3202292Y980090D01*
X3201636Y979433D01*
X3198355Y976153D01*
X3195075Y974185D01*
X3187858Y971560D01*
X3185233Y970904D01*
X3182609Y970248D01*
X3180641D01*
X3176704Y970904D01*
X3172767Y971560D01*
X3167519Y974185D01*
X3163582Y976809D01*
X3162270Y978121D01*
X3159645Y980746D01*
X3157677Y984026D01*
X3155053Y989275D01*
X3154397Y993868D01*
Y994524D01*
Y995180D01*
X3155053Y1001085D01*
X3157677Y1008302D01*
X3161614Y1016831D01*
X3165550Y1024704D01*
X3169487Y1031921D01*
X3173423Y1037826D01*
X3176048Y1042419D01*
X3176704Y1043075D01*
Y1043731D01*
X3187202Y1060134D01*
X3199011Y1076536D01*
X3210821Y1091627D01*
X3221975Y1106061D01*
X3227224Y1111966D01*
X3231816Y1117870D01*
X3236409Y1123119D01*
X3240346Y1127056D01*
X3242970Y1130993D01*
X3245595Y1133617D01*
X3246907Y1134929D01*
X3247563Y1135585D01*
X3268558Y1156580D01*
X3289553Y1175607D01*
X3309892Y1192666D01*
X3319734Y1199883D01*
X3328919Y1207100D01*
X3337448Y1213005D01*
X3345322Y1218254D01*
X3351883Y1222847D01*
X3357788Y1226783D01*
X3363036Y1230064D01*
X3366317Y1232032D01*
X3368941Y1233344D01*
X3369597Y1234000D01*
X3353851Y1246466D01*
X3338761Y1258932D01*
X3324983Y1270086D01*
X3312517Y1281239D01*
X3300707Y1291737D01*
X3289553Y1302235D01*
X3279055Y1312076D01*
X3269214Y1321262D01*
X3260685Y1329791D01*
X3252811Y1338320D01*
X3245594Y1346193D01*
X3238377Y1354066D01*
X3227224Y1367845D01*
X3218038Y1380311D01*
X3210821Y1390808D01*
X3205572Y1399337D01*
X3201636Y1407211D01*
X3199011Y1413116D01*
X3197699Y1417708D01*
X3196387Y1420989D01*
Y1422957D01*
Y1423613D01*
X3197043Y1430830D01*
X3199667Y1436079D01*
X3202948Y1440016D01*
X3206885Y1442640D01*
X3211477Y1443952D01*
X3214758Y1445264D01*
X3218038D01*
X3222631Y1444608D01*
X3227224Y1443296D01*
X3235097Y1438703D01*
X3238377Y1436079D01*
X3241002Y1434111D01*
X3242314Y1432799D01*
X3242970Y1432142D01*
X3243626Y1431486D01*
X3244282Y1430830D01*
X3247563Y1426894D01*
X3252155Y1421645D01*
X3256748Y1415740D01*
X3261997Y1409835D01*
X3266590Y1404586D01*
X3269214Y1400650D01*
X3270526Y1399994D01*
Y1399337D01*
X3284960Y1382935D01*
X3299395Y1366533D01*
X3331544Y1335040D01*
X3347290Y1320605D01*
X3363692Y1306171D01*
X3379439Y1293049D01*
X3394529Y1281239D01*
X3408307Y1269430D01*
X3421429Y1259588D01*
X3433239Y1251059D01*
X3443737Y1243186D01*
X3451610Y1237281D01*
X3458171Y1233344D01*
X3462108Y1230064D01*
X3462764Y1229408D01*
X3463420D01*
Y1242530D01*
X3464076Y1254339D01*
X3464076Y1266149D01*
Y1277303D01*
X3464732Y1296986D01*
Y1315357D01*
X3465388Y1330447D01*
X3466044Y1344225D01*
Y1355379D01*
X3466700Y1365220D01*
Y1373093D01*
X3467356Y1379655D01*
Y1384903D01*
Y1388840D01*
X3468012Y1391464D01*
Y1393433D01*
Y1394745D01*
X3469325Y1403930D01*
X3471293Y1411803D01*
X3473261Y1419021D01*
X3475885Y1424925D01*
X3478510Y1429518D01*
X3481134Y1434111D01*
X3483759Y1437391D01*
X3487039Y1440016D01*
X3492288Y1443952D01*
X3496881Y1445921D01*
X3499505Y1446577D01*
X3505410D01*
X3509347Y1445264D01*
D02*
G37*
G36*
X3083538Y1350786D02*
X3088130Y1348818D01*
X3092067Y1346849D01*
X3094691Y1344225D01*
X3097316Y1340945D01*
X3098628Y1338976D01*
X3099940Y1337008D01*
Y1336352D01*
X3101909Y1330447D01*
X3103221Y1323230D01*
X3104533Y1315357D01*
X3105189Y1307483D01*
Y1300266D01*
X3105845Y1294361D01*
Y1289769D01*
Y1289113D01*
Y1288457D01*
Y1287144D01*
Y1283864D01*
Y1279927D01*
X3105189Y1275334D01*
Y1270742D01*
Y1267461D01*
Y1264837D01*
Y1263525D01*
X3104533Y1247122D01*
Y1239249D01*
Y1232688D01*
Y1227439D01*
Y1223503D01*
Y1220222D01*
Y1219566D01*
Y1201851D01*
X3105189Y1186105D01*
X3105845Y1171015D01*
X3106501Y1158549D01*
X3107814Y1148051D01*
Y1143458D01*
X3108470Y1139522D01*
Y1136897D01*
X3109126Y1134929D01*
Y1133617D01*
Y1132961D01*
X3110438Y1123119D01*
X3111094Y1113934D01*
X3112406Y1106061D01*
X3113718Y1098844D01*
X3115031Y1092939D01*
X3115687Y1088346D01*
X3116343Y1085722D01*
Y1084409D01*
X3117655Y1078505D01*
X3118311Y1073912D01*
X3119623Y1070631D01*
Y1068663D01*
X3120279Y1067351D01*
Y1066695D01*
X3118967Y1060134D01*
X3116999Y1055541D01*
X3115031Y1052261D01*
X3113718Y1050948D01*
X3107814Y1047012D01*
X3102565Y1045043D01*
X3097972Y1044387D01*
X3096660D01*
X3091411Y1045043D01*
X3086818Y1046356D01*
X3082882Y1048324D01*
X3079601Y1050948D01*
X3077633Y1053573D01*
X3075665Y1055541D01*
X3074352Y1056853D01*
Y1057509D01*
X3072384Y1062102D01*
X3070416Y1068007D01*
X3067791Y1081129D01*
X3066479Y1087034D01*
X3065823Y1092283D01*
X3065167Y1095563D01*
Y1096875D01*
X3063199Y1111310D01*
X3061230Y1127712D01*
X3059918Y1145427D01*
X3058606Y1163141D01*
X3056638Y1201195D01*
X3055982Y1219566D01*
X3055325Y1237937D01*
X3054669Y1254995D01*
X3054669Y1271398D01*
X3054013Y1285832D01*
Y1298954D01*
Y1309452D01*
Y1313388D01*
Y1317325D01*
Y1319949D01*
Y1321918D01*
Y1323230D01*
Y1323886D01*
X3055325Y1333071D01*
X3057950Y1339632D01*
X3061230Y1344881D01*
X3065823Y1348162D01*
X3070416Y1350130D01*
X3073696Y1350786D01*
X3076321Y1351442D01*
X3077633D01*
X3083538Y1350786D01*
D02*
G37*
%LPC*%
G36*
X2828265Y2031407D02*
X2825641D01*
X2815799Y2030751D01*
X2807270Y2028782D01*
X2800053Y2026158D01*
X2793492Y2022221D01*
X2788243Y2017629D01*
X2783650Y2013036D01*
X2780370Y2007787D01*
X2777089Y2002538D01*
X2773153Y1991385D01*
X2772497Y1986792D01*
X2771184Y1982199D01*
Y1978263D01*
X2770528Y1975638D01*
Y1973670D01*
Y1973014D01*
X2771184Y1963172D01*
X2773153Y1954643D01*
X2775121Y1947426D01*
X2777745Y1941521D01*
X2781026Y1936928D01*
X2782994Y1932992D01*
X2784963Y1931024D01*
X2785619Y1930367D01*
X2791524Y1925119D01*
X2798085Y1921838D01*
X2804646Y1919214D01*
X2811207Y1917245D01*
X2816455Y1915933D01*
X2821704Y1915277D01*
X2825641D01*
X2836138Y1915933D01*
X2845324Y1917901D01*
X2853197Y1920526D01*
X2860414Y1924463D01*
X2865663Y1929055D01*
X2870912Y1933648D01*
X2874848Y1938897D01*
X2878129Y1944802D01*
X2880097Y1950050D01*
X2882065Y1955299D01*
X2883378Y1959892D01*
X2884690Y1964485D01*
Y1968421D01*
X2885346Y1971046D01*
Y1973014D01*
Y1973670D01*
X2884690Y1984168D01*
X2882722Y1992697D01*
X2880097Y2000570D01*
X2876160Y2007131D01*
X2871568Y2012380D01*
X2866319Y2017629D01*
X2861070Y2020909D01*
X2855165Y2024190D01*
X2849916Y2026814D01*
X2844668Y2028126D01*
X2839419Y2029438D01*
X2834826Y2030751D01*
X2830890D01*
X2828265Y2031407D01*
D02*
G37*
G36*
X2790211Y1877223D02*
X2789555D01*
Y1876567D01*
X2790211Y1875911D01*
Y1876567D01*
Y1877223D01*
D02*
G37*
G36*
X2307322Y2031407D02*
X2304697D01*
X2294856Y2030751D01*
X2286327Y2028782D01*
X2279110Y2026158D01*
X2272548Y2022221D01*
X2267300Y2017629D01*
X2262707Y2013036D01*
X2259427Y2007787D01*
X2256146Y2002538D01*
X2252209Y1991385D01*
X2251553Y1986792D01*
X2250241Y1982199D01*
Y1978263D01*
X2249585Y1975638D01*
Y1973670D01*
Y1973014D01*
X2250241Y1963172D01*
X2252209Y1954643D01*
X2254178Y1947426D01*
X2256802Y1941521D01*
X2260083Y1936928D01*
X2262051Y1932992D01*
X2264019Y1931023D01*
X2264675Y1930367D01*
X2270580Y1925119D01*
X2277141Y1921838D01*
X2283702Y1919214D01*
X2290263Y1917245D01*
X2295512Y1915933D01*
X2300761Y1915277D01*
X2304697D01*
X2315195Y1915933D01*
X2324380Y1917901D01*
X2332254Y1920526D01*
X2339471Y1924462D01*
X2344720Y1929055D01*
X2349968Y1933648D01*
X2353905Y1938897D01*
X2357185Y1944802D01*
X2359154Y1950050D01*
X2361122Y1955299D01*
X2362434Y1959892D01*
X2363746Y1964485D01*
Y1968421D01*
X2364403Y1971045D01*
Y1973014D01*
Y1973670D01*
X2363746Y1984168D01*
X2361778Y1992697D01*
X2359154Y2000570D01*
X2355217Y2007131D01*
X2350624Y2012380D01*
X2345376Y2017629D01*
X2340127Y2020909D01*
X2334222Y2024190D01*
X2328973Y2026814D01*
X2323724Y2028126D01*
X2318476Y2029438D01*
X2313883Y2030751D01*
X2309946D01*
X2307322Y2031407D01*
D02*
G37*
G36*
X2269268Y1877223D02*
X2268612D01*
Y1876567D01*
X2269268Y1875911D01*
Y1876567D01*
Y1877223D01*
D02*
G37*
G36*
X2870305Y1194634D02*
X2867681D01*
X2857183Y1193978D01*
X2847342Y1192010D01*
X2839469Y1188729D01*
X2832251Y1184793D01*
X2826347Y1179544D01*
X2821754Y1174295D01*
X2817817Y1168390D01*
X2814537Y1162485D01*
X2811912Y1155924D01*
X2809944Y1150019D01*
X2808632Y1144771D01*
X2807320Y1140178D01*
Y1135585D01*
X2806664Y1132305D01*
Y1130336D01*
Y1129680D01*
X2807320Y1119183D01*
X2809288Y1109341D01*
X2811912Y1101468D01*
X2814537Y1094907D01*
X2817817Y1089658D01*
X2820442Y1085722D01*
X2822410Y1083097D01*
X2823066Y1082441D01*
X2829627Y1077192D01*
X2836844Y1073256D01*
X2844717Y1069975D01*
X2851934Y1068007D01*
X2858495Y1066695D01*
X2863744Y1066039D01*
X2868337D01*
X2880147Y1066695D01*
X2889988Y1068663D01*
X2898518Y1071944D01*
X2906391Y1075880D01*
X2912296Y1081129D01*
X2918201Y1086378D01*
X2922137Y1092283D01*
X2925418Y1098188D01*
X2928698Y1104092D01*
X2930666Y1109997D01*
X2931979Y1115246D01*
X2932635Y1120495D01*
X2933291Y1124431D01*
X2933947Y1127712D01*
Y1129680D01*
Y1130336D01*
X2933291Y1141490D01*
X2931323Y1151332D01*
X2928042Y1159861D01*
X2923449Y1167734D01*
X2918857Y1173639D01*
X2912952Y1178888D01*
X2907047Y1183480D01*
X2900486Y1186761D01*
X2894581Y1189385D01*
X2888676Y1191354D01*
X2882771Y1192666D01*
X2878178Y1193978D01*
X2873586D01*
X2870305Y1194634D01*
D02*
G37*
G36*
X2350674Y1194634D02*
X2348050D01*
X2337552Y1193978D01*
X2327711Y1192010D01*
X2319837Y1188729D01*
X2312620Y1184793D01*
X2306715Y1179544D01*
X2302123Y1174295D01*
X2298186Y1168390D01*
X2294906Y1162485D01*
X2292281Y1155924D01*
X2290313Y1150019D01*
X2289001Y1144771D01*
X2287689Y1140178D01*
Y1135585D01*
X2287032Y1132305D01*
Y1130336D01*
Y1129680D01*
X2287689Y1119183D01*
X2289657Y1109341D01*
X2292281Y1101468D01*
X2294906Y1094907D01*
X2298186Y1089658D01*
X2300811Y1085722D01*
X2302779Y1083097D01*
X2303435Y1082441D01*
X2309996Y1077192D01*
X2317213Y1073256D01*
X2325086Y1069975D01*
X2332303Y1068007D01*
X2338864Y1066695D01*
X2344113Y1066039D01*
X2348706D01*
X2360516Y1066695D01*
X2370357Y1068663D01*
X2378886Y1071943D01*
X2386760Y1075880D01*
X2392664Y1081129D01*
X2398569Y1086378D01*
X2402506Y1092283D01*
X2405787Y1098187D01*
X2409067Y1104092D01*
X2411035Y1109997D01*
X2412347Y1115246D01*
X2413004Y1120495D01*
X2413660Y1124431D01*
X2414316Y1127712D01*
Y1129680D01*
Y1130336D01*
X2413660Y1141490D01*
X2411691Y1151332D01*
X2408411Y1159861D01*
X2403818Y1167734D01*
X2399226Y1173639D01*
X2393321Y1178888D01*
X2387416Y1183480D01*
X2380855Y1186761D01*
X2374950Y1189385D01*
X2369045Y1191354D01*
X2363140Y1192666D01*
X2358547Y1193978D01*
X2353955D01*
X2350674Y1194634D01*
D02*
G37*
%LPD*%
D12*
X3361931Y3359508D02*
D03*
Y3577618D02*
D03*
X2114687D02*
D03*
Y3359508D02*
D03*
X416417Y1477638D02*
D03*
Y1695748D02*
D03*
X1651181Y2730980D02*
D03*
Y2512870D02*
D03*
X403937D02*
D03*
Y2730980D02*
D03*
X3373742Y2895366D02*
D03*
Y2677256D02*
D03*
X2126756D02*
D03*
Y2895366D02*
D03*
X413780Y711043D02*
D03*
Y929154D02*
D03*
X1653150Y711043D02*
D03*
Y929154D02*
D03*
X1666535Y3605536D02*
D03*
Y3387425D02*
D03*
X407480D02*
D03*
Y3605536D02*
D03*
D17*
X1662992Y1701984D02*
D03*
Y1483874D02*
D03*
D21*
X3299884Y3275906D02*
D03*
X3369884Y3650906D02*
D03*
X3209884Y3575906D02*
D03*
X2264884Y3605906D02*
D03*
X2249968Y3355000D02*
D03*
X3014884Y3245906D02*
D03*
X3244884Y3270906D02*
D03*
X2226243Y3261453D02*
D03*
X2427133Y3227710D02*
D03*
X2844240Y3550753D02*
D03*
X2764794Y3554357D02*
D03*
X2685267D02*
D03*
X2605739Y3554280D02*
D03*
X2527452Y3540286D02*
D03*
X2599884Y3360906D02*
D03*
X2679884Y3365906D02*
D03*
X2760380Y3377915D02*
D03*
X2839706Y3383579D02*
D03*
X2919119Y3379317D02*
D03*
X2467794Y3554357D02*
D03*
X2388269Y3553748D02*
D03*
X2308805Y3556937D02*
D03*
X2430393Y3377000D02*
D03*
X2509756Y3382109D02*
D03*
X3139106Y3556937D02*
D03*
X3059643Y3553748D02*
D03*
X2980118Y3554357D02*
D03*
X2980232Y3377454D02*
D03*
X2039884Y3135906D02*
D03*
X3019884Y3315906D02*
D03*
X1531417Y1270748D02*
D03*
X1511417Y1760748D02*
D03*
X1496417Y1690748D02*
D03*
X1416417D02*
D03*
X516417Y1390748D02*
D03*
X581417Y1755748D02*
D03*
X506417Y1790748D02*
D03*
X604264Y1685489D02*
D03*
X576417Y1490748D02*
D03*
X631417Y1470748D02*
D03*
X856417Y1390748D02*
D03*
X631417Y1405748D02*
D03*
X636417Y1330748D02*
D03*
X861417Y1320748D02*
D03*
X1331417Y1385748D02*
D03*
X1519792Y1355290D02*
D03*
Y1434818D02*
D03*
X1070646Y1676906D02*
D03*
X991453Y1684200D02*
D03*
X938940Y1508478D02*
D03*
X1018235Y1514558D02*
D03*
X1097430Y1507296D02*
D03*
X771417Y1700748D02*
D03*
X686417Y1695748D02*
D03*
X861417Y1450748D02*
D03*
X859904Y1507296D02*
D03*
X894058Y1682997D02*
D03*
X1333433Y1684654D02*
D03*
X1253905D02*
D03*
X1175809Y1669632D02*
D03*
X1173097Y1525785D02*
D03*
X1250445Y1507296D02*
D03*
X1329970Y1507906D02*
D03*
X1326417Y1450748D02*
D03*
X733307Y2307638D02*
D03*
X548307Y2747638D02*
D03*
X538307Y2532638D02*
D03*
X1235707Y2710299D02*
D03*
X1315234D02*
D03*
X1394762D02*
D03*
X1474290D02*
D03*
X1125492Y2723774D02*
D03*
X1016555Y2719401D02*
D03*
X1048307Y2527638D02*
D03*
X978307D02*
D03*
X919798Y2333479D02*
D03*
X1008307Y2332638D02*
D03*
X1079320Y2348474D02*
D03*
X815649Y2348551D02*
D03*
X771482Y2719436D02*
D03*
X815649Y2533551D02*
D03*
X915492Y2723774D02*
D03*
X1119855Y2289145D02*
D03*
X1123179Y2209687D02*
D03*
X1123924Y2130163D02*
D03*
X1119855Y2050739D02*
D03*
X1296759Y2060299D02*
D03*
X1295917Y2139822D02*
D03*
X1287556Y2218909D02*
D03*
X1297213Y2297849D02*
D03*
Y2377376D02*
D03*
X1298886Y2456886D02*
D03*
X1320031Y2533551D02*
D03*
X1399558D02*
D03*
X1479086D02*
D03*
X601232Y2710299D02*
D03*
X541902Y2455585D02*
D03*
X543005Y2376065D02*
D03*
Y2296537D02*
D03*
X667050Y2709174D02*
D03*
X391721Y2026446D02*
D03*
X943307Y2072638D02*
D03*
X2702798Y2901358D02*
D03*
X3012798Y2613740D02*
D03*
X3207798Y2683740D02*
D03*
X3232798Y2973740D02*
D03*
X3217798Y2893740D02*
D03*
X2142798Y2973740D02*
D03*
X2272798Y2953740D02*
D03*
X2277798Y2603740D02*
D03*
X2362798D02*
D03*
X2307798Y2888740D02*
D03*
X2417798D02*
D03*
X2437798Y2684615D02*
D03*
X2527798D02*
D03*
X2512798Y2888740D02*
D03*
X2802798Y2684615D02*
D03*
X2606967Y2888740D02*
D03*
X2604654Y2684615D02*
D03*
X2712798D02*
D03*
X2872798D02*
D03*
X2791541Y2888740D02*
D03*
X3147798D02*
D03*
X3067798D02*
D03*
X2974130D02*
D03*
X2887798D02*
D03*
X2957798Y2684615D02*
D03*
X3157798Y2608740D02*
D03*
X2187798Y2578740D02*
D03*
X1504606Y725748D02*
D03*
X1449606Y720748D02*
D03*
X1474606Y910748D02*
D03*
X1254549Y904374D02*
D03*
X1334076Y904358D02*
D03*
X1399606Y910748D02*
D03*
X1389606Y720748D02*
D03*
X1173347Y688185D02*
D03*
X1494606Y445748D02*
D03*
X1164606Y460748D02*
D03*
X1020698Y904665D02*
D03*
X1164606Y540748D02*
D03*
Y610748D02*
D03*
X625680Y908366D02*
D03*
X564606Y720748D02*
D03*
X444606Y1025748D02*
D03*
X514606Y1020748D02*
D03*
X766798Y531726D02*
D03*
Y611254D02*
D03*
X590676Y595679D02*
D03*
X589895Y516156D02*
D03*
Y436628D02*
D03*
X774606Y455748D02*
D03*
X1354606Y470748D02*
D03*
Y530748D02*
D03*
X1354872Y595077D02*
D03*
X1354606Y405748D02*
D03*
X1358783Y671494D02*
D03*
X1175021Y904488D02*
D03*
X1095495Y904967D02*
D03*
X943024Y903952D02*
D03*
X863829Y896691D02*
D03*
X784733Y904967D02*
D03*
X705208Y904358D02*
D03*
X559606Y925748D02*
D03*
X584606Y660748D02*
D03*
X769606Y675748D02*
D03*
X804552Y728064D02*
D03*
X884079Y728331D02*
D03*
X961237Y708962D02*
D03*
X1046351Y706556D02*
D03*
X1121570Y703456D02*
D03*
X415591Y3690118D02*
D03*
X1510591Y3397500D02*
D03*
X1417264Y3585118D02*
D03*
X1510591D02*
D03*
X565591Y3390118D02*
D03*
X1570591Y3685118D02*
D03*
X1290591Y3395118D02*
D03*
X790591Y3180118D02*
D03*
Y3100118D02*
D03*
X595591Y3130118D02*
D03*
Y3210118D02*
D03*
X1510591Y3235118D02*
D03*
Y3154203D02*
D03*
X1290591Y3049445D02*
D03*
X1510591D02*
D03*
X1290591Y3185003D02*
D03*
Y3305118D02*
D03*
X1015591Y3585118D02*
D03*
X970591Y3395118D02*
D03*
X1099975D02*
D03*
X1150591Y3585118D02*
D03*
X595591Y3315118D02*
D03*
X790591Y3310118D02*
D03*
X1290591Y3585118D02*
D03*
X1195591Y3395118D02*
D03*
X1510591Y3320118D02*
D03*
X560591Y3610118D02*
D03*
X790591Y3380118D02*
D03*
X865591Y3395118D02*
D03*
X891016Y3585118D02*
D03*
X797138D02*
D03*
X710591D02*
D03*
X635591D02*
D03*
X1400591Y2935118D02*
D03*
X690591Y2930118D02*
D03*
%TF.MD5,06fbfc833f61e428acaca232d7c4a436*%
M02*
