%TF.GenerationSoftware,Altium Limited,Altium Designer,20.0.10 (225)*%
G04 Layer_Physical_Order=1*
G04 Layer_Color=255*
%FSLAX26Y26*%
%MOIN*%
%TF.FileFunction,Copper,L1,Top,Signal*%
%TF.Part,CustomerPanel*%
G01*
G75*
%TA.AperFunction,SMDPad,CuDef*%
%ADD10R,0.106299X0.049213*%
%ADD11R,0.049213X0.106299*%
%ADD12R,0.196850X0.047244*%
%ADD13R,0.196850X0.062992*%
%TA.AperFunction,Conductor*%
%ADD14C,0.105236*%
%ADD15C,0.059055*%
%ADD16C,0.105236*%
%TA.AperFunction,ViaPad*%
%ADD17C,0.050000*%
G36*
X3058091Y4309948D02*
X3073047Y4305940D01*
X3087351Y4300016D01*
X3100759Y4292274D01*
X3113043Y4282849D01*
X3123990Y4271901D01*
X3133416Y4259618D01*
X3141157Y4246209D01*
X3147082Y4231905D01*
X3151089Y4216950D01*
X3153110Y4201600D01*
Y4193858D01*
Y3543977D01*
Y3536235D01*
X3151089Y3520885D01*
X3147082Y3505930D01*
X3141157Y3491626D01*
X3133416Y3478217D01*
X3123990Y3465934D01*
X3113043Y3454986D01*
X3100759Y3445561D01*
X3087351Y3437819D01*
X3073047Y3431894D01*
X3058091Y3427887D01*
X3042741Y3425866D01*
X3035000D01*
Y3425866D01*
X1751929D01*
Y3425866D01*
X1744188D01*
X1728838Y3427887D01*
X1713882Y3431894D01*
X1699578Y3437819D01*
X1686170Y3445561D01*
X1673887Y3454986D01*
X1662939Y3465934D01*
X1653513Y3478217D01*
X1645772Y3491626D01*
X1639847Y3505930D01*
X1635840Y3520885D01*
X1633819Y3536235D01*
Y3543977D01*
X1633819D01*
Y4193858D01*
Y4201600D01*
X1635840Y4216950D01*
X1639847Y4231905D01*
X1645772Y4246209D01*
X1653513Y4259618D01*
X1662939Y4271901D01*
X1673887Y4282849D01*
X1686170Y4292274D01*
X1699578Y4300016D01*
X1713882Y4305940D01*
X1728838Y4309948D01*
X1744188Y4311969D01*
X1751929D01*
Y4311968D01*
X3035000D01*
X3042741Y4311969D01*
X3058091Y4309948D01*
D02*
G37*
G36*
Y3412979D02*
X3073047Y3408972D01*
X3087351Y3403047D01*
X3100759Y3395305D01*
X3113043Y3385880D01*
X3123990Y3374932D01*
X3133416Y3362649D01*
X3141157Y3349241D01*
X3147082Y3334936D01*
X3151089Y3319981D01*
X3153110Y3304631D01*
Y3296890D01*
Y2943976D01*
Y2936235D01*
X3151089Y2920885D01*
X3147082Y2905930D01*
X3141157Y2891626D01*
X3133416Y2878217D01*
X3123990Y2865934D01*
X3113043Y2854986D01*
X3100759Y2845561D01*
X3087351Y2837819D01*
X3073047Y2831894D01*
X3058091Y2827887D01*
X3042741Y2825866D01*
X1744188D01*
X1728838Y2827887D01*
X1713882Y2831894D01*
X1699578Y2837819D01*
X1686170Y2845561D01*
X1673887Y2854986D01*
X1662939Y2865934D01*
X1653513Y2878217D01*
X1645772Y2891626D01*
X1639847Y2905930D01*
X1635840Y2920885D01*
X1633819Y2936235D01*
Y2943976D01*
Y3296890D01*
Y3304631D01*
X1635840Y3319981D01*
X1639847Y3334936D01*
X1645772Y3349241D01*
X1653513Y3362649D01*
X1662939Y3374932D01*
X1673887Y3385880D01*
X1686170Y3395305D01*
X1699578Y3403047D01*
X1713882Y3408972D01*
X1728838Y3412979D01*
X1744188Y3415000D01*
X3042741D01*
X3058091Y3412979D01*
D02*
G37*
%LPC*%
G36*
X1874134Y4198882D02*
X1770709D01*
Y4162386D01*
X1874134D01*
Y4198882D01*
D02*
G37*
G36*
X1760709D02*
X1657284D01*
Y4162386D01*
X1760709D01*
Y4198882D01*
D02*
G37*
G36*
X3133189D02*
X3029764D01*
Y4162386D01*
X3133189D01*
Y4198882D01*
D02*
G37*
G36*
X3019764D02*
X2916339D01*
Y4162386D01*
X3019764D01*
Y4198882D01*
D02*
G37*
G36*
X1874134Y4152386D02*
X1765709D01*
X1657284D01*
Y4115890D01*
X1739899D01*
X1740144Y4110890D01*
X1731544Y4110043D01*
X1719740Y4106462D01*
X1708862Y4100648D01*
X1699327Y4092823D01*
X1691502Y4083288D01*
X1690788Y4081953D01*
X1657284D01*
Y4014709D01*
X1690788D01*
X1691502Y4013374D01*
X1699327Y4003839D01*
X1708862Y3996014D01*
X1719740Y3990200D01*
X1731544Y3986619D01*
X1740144Y3985772D01*
X1739899Y3980772D01*
X1657284D01*
Y3944276D01*
X1765709D01*
X1874134D01*
Y3980410D01*
X1874134Y3980772D01*
X1875008Y3985410D01*
X1949376D01*
X1949740Y3985215D01*
X1961544Y3981635D01*
X1973819Y3980426D01*
X2117000D01*
X2121158Y3978203D01*
X2132961Y3974623D01*
X2145236Y3973414D01*
X2145238Y3973414D01*
X2172716D01*
X2175969Y3973734D01*
X2176575Y3973185D01*
Y3973185D01*
X2243965D01*
X2244917Y3972549D01*
X2248819Y3971773D01*
X2326525D01*
X2327185Y3971904D01*
X2327856Y3971860D01*
X2328819Y3971987D01*
X2329782Y3971860D01*
X2330453Y3971904D01*
X2331113Y3971773D01*
X2455910D01*
X2456569Y3971904D01*
X2457241Y3971860D01*
X2458204Y3971987D01*
X2459167Y3971860D01*
X2459838Y3971904D01*
X2460498Y3971773D01*
X2485630D01*
X2489532Y3972549D01*
X2490484Y3973185D01*
X2554843D01*
Y3973945D01*
X2620969D01*
X2633245Y3975155D01*
X2645048Y3978735D01*
X2648211Y3980426D01*
X2753819D01*
X2759216Y3980957D01*
X2782894D01*
X2795169Y3982166D01*
X2805862Y3985410D01*
X2851349D01*
X2852343Y3980410D01*
X2851168Y3979923D01*
X2843857Y3974313D01*
X2838247Y3967002D01*
X2834720Y3958487D01*
X2834175Y3954351D01*
X2903463D01*
X2902918Y3958487D01*
X2899391Y3967002D01*
X2893781Y3974313D01*
X2886470Y3979923D01*
X2885294Y3980410D01*
X2886289Y3985410D01*
X2915465D01*
X2916338Y3980772D01*
X2916339Y3980410D01*
Y3944276D01*
X3024764D01*
X3133189D01*
Y3980772D01*
X3028684D01*
X3028438Y3985772D01*
X3037039Y3986619D01*
X3048843Y3990200D01*
X3059721Y3996014D01*
X3069256Y4003839D01*
X3077081Y4013374D01*
X3077794Y4014709D01*
X3133189D01*
Y4081953D01*
X3077794D01*
X3077081Y4083288D01*
X3069256Y4092823D01*
X3059721Y4100648D01*
X3048843Y4106462D01*
X3037039Y4110043D01*
X3028438Y4110890D01*
X3028684Y4115890D01*
X3133189D01*
Y4152386D01*
X3024764D01*
X2916339D01*
Y4116252D01*
X2916338Y4115890D01*
X2915465Y4111252D01*
X2787347D01*
X2787347Y4111252D01*
X2775071Y4110043D01*
X2764378Y4106799D01*
X2754352D01*
X2754351Y4106799D01*
X2748952Y4106268D01*
X2627450D01*
X2615174Y4105059D01*
X2603371Y4101478D01*
X2600208Y4099788D01*
X2548717D01*
X2545639Y4099484D01*
X2485630D01*
Y4092164D01*
X2442638D01*
Y4099484D01*
X2373425D01*
Y4092164D01*
X2357992D01*
Y4099484D01*
X2288780D01*
Y4092164D01*
X2248819D01*
X2245787Y4094653D01*
Y4099484D01*
X2176575D01*
Y4099484D01*
X2175969Y4098935D01*
X2172716Y4099256D01*
X2166461D01*
X2162303Y4101478D01*
X2150500Y4105059D01*
X2138225Y4106268D01*
X2076471D01*
X2076106Y4106462D01*
X2064303Y4110043D01*
X2052028Y4111252D01*
X1875008D01*
X1874134Y4115890D01*
X1874134Y4116252D01*
Y4152386D01*
D02*
G37*
G36*
X2903463Y3944351D02*
X2873819D01*
Y3914707D01*
X2877956Y3915251D01*
X2886470Y3918778D01*
X2893781Y3924388D01*
X2899391Y3931700D01*
X2902918Y3940214D01*
X2903463Y3944351D01*
D02*
G37*
G36*
X2863819D02*
X2834175D01*
X2834720Y3940214D01*
X2838247Y3931700D01*
X2843857Y3924388D01*
X2851168Y3918778D01*
X2859682Y3915251D01*
X2863819Y3914707D01*
Y3944351D01*
D02*
G37*
G36*
X3133189Y3934276D02*
X3029764D01*
Y3897780D01*
X3133189D01*
Y3934276D01*
D02*
G37*
G36*
X3019764D02*
X2916339D01*
Y3897780D01*
X3019764D01*
Y3934276D01*
D02*
G37*
G36*
X1874134Y3934276D02*
X1770709D01*
Y3897780D01*
X1874134D01*
Y3934276D01*
D02*
G37*
G36*
X1760709D02*
X1657284D01*
Y3897780D01*
X1760709D01*
Y3934276D01*
D02*
G37*
G36*
X2753819Y3971010D02*
X2743500Y3969652D01*
X2734076Y3965748D01*
X2690669D01*
Y3896536D01*
X2690669Y3896536D01*
Y3892043D01*
X2690669D01*
X2690669Y3891536D01*
Y3822831D01*
X2734076D01*
X2743500Y3818927D01*
X2753819Y3817568D01*
X2764138Y3818927D01*
X2773562Y3822831D01*
X2816968D01*
Y3891536D01*
X2816969Y3892043D01*
X2816969D01*
Y3896536D01*
X2816968D01*
Y3965748D01*
X2773562D01*
X2764138Y3969652D01*
X2753819Y3971010D01*
D02*
G37*
G36*
X2052559D02*
X2042240Y3969652D01*
X2032816Y3965748D01*
X1989409D01*
Y3896536D01*
X1989409Y3896536D01*
Y3892043D01*
X1989409D01*
X1989409Y3891536D01*
Y3822831D01*
X2032816D01*
X2042240Y3818927D01*
X2052559Y3817568D01*
X2062163Y3818833D01*
X2062878Y3818927D01*
X2072302Y3822831D01*
X2115709D01*
Y3891536D01*
X2115709Y3892043D01*
X2115709D01*
Y3896536D01*
X2115709D01*
Y3965748D01*
X2072302D01*
X2062878Y3969652D01*
X2052559Y3971010D01*
D02*
G37*
G36*
X2753819Y3785101D02*
X2743500Y3783742D01*
X2734076Y3779839D01*
X2690669D01*
Y3769839D01*
Y3710626D01*
X2690669Y3710626D01*
Y3707043D01*
X2690669D01*
X2690669Y3705626D01*
Y3637831D01*
X2734076D01*
X2743500Y3633927D01*
X2753819Y3632568D01*
X2764138Y3633927D01*
X2773562Y3637831D01*
X2816968D01*
Y3705626D01*
X2816969Y3707043D01*
X2816969D01*
Y3710626D01*
X2816968D01*
Y3769839D01*
Y3779839D01*
X2773562D01*
X2764138Y3783742D01*
X2753819Y3785101D01*
D02*
G37*
G36*
X2052559D02*
X2042240Y3783742D01*
X2032816Y3779839D01*
X1989409D01*
Y3710626D01*
X1989409Y3710626D01*
Y3707043D01*
X1989409D01*
X1989409Y3705626D01*
Y3637831D01*
X2032816D01*
X2042240Y3633927D01*
X2052559Y3632568D01*
X2062878Y3633927D01*
X2072302Y3637831D01*
X2115709D01*
Y3705626D01*
X2115709Y3707043D01*
X2115709D01*
Y3710626D01*
X2115709D01*
Y3779839D01*
X2072302D01*
X2062878Y3783742D01*
X2052559Y3785101D01*
D02*
G37*
G36*
X2816968Y3594839D02*
X2758819D01*
Y3589472D01*
Y3565233D01*
X2816968D01*
Y3592999D01*
Y3594839D01*
D02*
G37*
G36*
X2115709D02*
X2057559D01*
Y3565233D01*
X2115709D01*
Y3594839D01*
D02*
G37*
G36*
X2748819D02*
X2690669D01*
Y3565233D01*
X2748819D01*
Y3594839D01*
D02*
G37*
G36*
X2047559D02*
X1989409D01*
Y3587340D01*
Y3565233D01*
X2047559D01*
Y3594839D01*
D02*
G37*
G36*
X2816968Y3555233D02*
X2758819D01*
Y3525626D01*
X2816968D01*
Y3555233D01*
D02*
G37*
G36*
X2748819D02*
X2690669D01*
Y3525626D01*
X2748819D01*
Y3555233D01*
D02*
G37*
G36*
X2115709D02*
X2057559D01*
Y3525626D01*
X2115709D01*
Y3555233D01*
D02*
G37*
G36*
X2047559D02*
X1989409D01*
Y3525626D01*
X2047559D01*
Y3555233D01*
D02*
G37*
%LPD*%
G36*
X2485630Y3981969D02*
X2460498D01*
X2458204Y3982271D01*
X2455910Y3981969D01*
X2331113D01*
X2328819Y3982271D01*
X2326525Y3981969D01*
X2248819D01*
Y4081969D01*
X2485630D01*
Y3981969D01*
D02*
G37*
G36*
X2783543Y3921790D02*
X2785045Y3906776D01*
X2803037D01*
X2799296Y3906282D01*
X2795949Y3904802D01*
X2792995Y3902335D01*
X2790435Y3898881D01*
X2788269Y3894441D01*
X2788234Y3894334D01*
X2788269Y3894228D01*
X2790435Y3889798D01*
X2792995Y3886353D01*
X2795949Y3883892D01*
X2799296Y3882416D01*
X2803037Y3881923D01*
X2785029D01*
X2784134Y3875199D01*
X2783543Y3866811D01*
X2783347Y3857437D01*
X2724291D01*
X2724094Y3866811D01*
X2722587Y3881923D01*
X2704600D01*
X2708342Y3882416D01*
X2711689Y3883892D01*
X2714643Y3886353D01*
X2717203Y3889798D01*
X2719369Y3894228D01*
X2719403Y3894334D01*
X2719369Y3894441D01*
X2717203Y3898881D01*
X2714643Y3902335D01*
X2711689Y3904802D01*
X2708342Y3906282D01*
X2704600Y3906776D01*
X2722617D01*
X2723504Y3913423D01*
X2724094Y3921790D01*
X2724291Y3931142D01*
X2783347D01*
X2783543Y3921790D01*
D02*
G37*
G36*
X2082284D02*
X2083785Y3906776D01*
X2101778D01*
X2098036Y3906282D01*
X2094689Y3904802D01*
X2091735Y3902335D01*
X2089175Y3898881D01*
X2087009Y3894441D01*
X2086975Y3894334D01*
X2087009Y3894228D01*
X2089175Y3889798D01*
X2091735Y3886353D01*
X2094689Y3883892D01*
X2098036Y3882416D01*
X2101778Y3881923D01*
X2083769D01*
X2082874Y3875199D01*
X2082284Y3866811D01*
X2082087Y3857437D01*
X2023032D01*
X2022835Y3866811D01*
X2021327Y3881923D01*
X2003341D01*
X2007082Y3882416D01*
X2010429Y3883892D01*
X2013383Y3886353D01*
X2015943Y3889798D01*
X2018109Y3894228D01*
X2018144Y3894334D01*
X2018109Y3894441D01*
X2015943Y3898881D01*
X2013383Y3902335D01*
X2010429Y3904802D01*
X2007082Y3906282D01*
X2003341Y3906776D01*
X2021357D01*
X2022244Y3913423D01*
X2022835Y3921790D01*
X2023032Y3931142D01*
X2082087D01*
X2082284Y3921790D01*
D02*
G37*
G36*
X2783534Y3736054D02*
X2785010Y3720866D01*
X2802128D01*
X2798559Y3720382D01*
X2795367Y3718929D01*
X2792549Y3716508D01*
X2790108Y3713117D01*
X2788099Y3708880D01*
X2790108Y3704653D01*
X2792549Y3701271D01*
X2795367Y3698856D01*
X2798559Y3697407D01*
X2802128Y3696923D01*
X2785009D01*
X2784098Y3689872D01*
X2783534Y3681639D01*
X2783347Y3672437D01*
X2724291D01*
X2724104Y3681639D01*
X2722622Y3696923D01*
X2705510D01*
X2709078Y3697407D01*
X2712271Y3698856D01*
X2715088Y3701271D01*
X2717530Y3704653D01*
X2719539Y3708880D01*
X2717530Y3713117D01*
X2715088Y3716508D01*
X2712271Y3718929D01*
X2709078Y3720382D01*
X2705510Y3720866D01*
X2722636D01*
X2723540Y3727841D01*
X2724104Y3736054D01*
X2724291Y3745232D01*
X2783347D01*
X2783534Y3736054D01*
D02*
G37*
G36*
X2082274D02*
X2083751Y3720866D01*
X2100868D01*
X2097300Y3720382D01*
X2094107Y3718929D01*
X2091290Y3716508D01*
X2088848Y3713117D01*
X2086839Y3708880D01*
X2088848Y3704653D01*
X2091290Y3701271D01*
X2094107Y3698856D01*
X2097300Y3697407D01*
X2100868Y3696923D01*
X2083749D01*
X2082838Y3689872D01*
X2082274Y3681639D01*
X2082087Y3672437D01*
X2023032D01*
X2022844Y3681639D01*
X2021362Y3696923D01*
X2004250D01*
X2007819Y3697407D01*
X2011011Y3698856D01*
X2013829Y3701271D01*
X2016270Y3704653D01*
X2018279Y3708880D01*
X2016270Y3713117D01*
X2013829Y3716508D01*
X2011011Y3718929D01*
X2007819Y3720382D01*
X2004250Y3720866D01*
X2021376D01*
X2022280Y3727841D01*
X2022844Y3736054D01*
X2023032Y3745232D01*
X2082087D01*
X2082274Y3736054D01*
D02*
G37*
%LPC*%
G36*
X1882659Y3318122D02*
X1779234D01*
Y3281626D01*
X1882659D01*
Y3318122D01*
D02*
G37*
G36*
X1769234D02*
X1665809D01*
Y3281626D01*
X1769234D01*
Y3318122D01*
D02*
G37*
G36*
X3129646D02*
X3026220D01*
Y3281626D01*
X3129646D01*
Y3318122D01*
D02*
G37*
G36*
X3016220D02*
X2912795D01*
Y3281626D01*
X3016220D01*
Y3318122D01*
D02*
G37*
G36*
X2380789Y3237552D02*
X2380767Y3237548D01*
X2380745Y3237552D01*
X2333940Y3237348D01*
X2320984Y3237386D01*
Y3237477D01*
X2312202D01*
X2311706Y3237518D01*
X2311346Y3237477D01*
X2311246D01*
X2310864Y3237552D01*
X2310483Y3237477D01*
X2251772D01*
Y3226831D01*
X2251421Y3226644D01*
X2241886Y3218819D01*
X2234061Y3209284D01*
X2228246Y3198406D01*
X2224666Y3186602D01*
X2223457Y3174327D01*
X2224666Y3162052D01*
X2228246Y3150248D01*
X2234061Y3139370D01*
X2241886Y3129835D01*
X2251421Y3122010D01*
X2251772Y3121822D01*
Y3111177D01*
X2310483D01*
X2310864Y3111101D01*
X2310886Y3111106D01*
X2310909Y3111102D01*
X2357713Y3111305D01*
X2370669Y3111268D01*
Y3111177D01*
X2379452D01*
X2379948Y3111136D01*
X2380308Y3111177D01*
X2380408D01*
X2380789Y3111101D01*
X2381171Y3111177D01*
X2439882D01*
Y3121822D01*
X2440233Y3122010D01*
X2449767Y3129835D01*
X2457593Y3139370D01*
X2463407Y3150248D01*
X2466988Y3162052D01*
X2468197Y3174327D01*
X2466988Y3186602D01*
X2463407Y3198406D01*
X2457593Y3209284D01*
X2449767Y3218819D01*
X2440233Y3226644D01*
X2439882Y3226831D01*
Y3237477D01*
X2381171D01*
X2380789Y3237552D01*
D02*
G37*
G36*
X3129646Y3271626D02*
X3026220D01*
Y3235130D01*
X3129646D01*
Y3271626D01*
D02*
G37*
G36*
X3016220D02*
X2912795D01*
Y3235492D01*
X2912795Y3235130D01*
X2911921Y3230492D01*
X2700260D01*
X2697254Y3230196D01*
X2552087Y3230196D01*
Y3237477D01*
X2482874D01*
Y3111177D01*
X2485840D01*
X2485856Y3111098D01*
X2488066Y3107790D01*
X2491374Y3105580D01*
X2495276Y3104804D01*
X2698694Y3104804D01*
X2700260Y3104650D01*
X2911921D01*
X2912795Y3100012D01*
X2912795Y3099650D01*
Y3063516D01*
X3016220D01*
Y3100012D01*
X2943370D01*
X2943124Y3105012D01*
X2951724Y3105859D01*
X2963528Y3109439D01*
X2974406Y3115254D01*
X2983941Y3123079D01*
X2991766Y3132614D01*
X2992479Y3133949D01*
X3129646D01*
Y3201193D01*
X2992479D01*
X2991766Y3202528D01*
X2983941Y3212063D01*
X2974406Y3219888D01*
X2963528Y3225702D01*
X2951724Y3229283D01*
X2943124Y3230130D01*
X2943370Y3235130D01*
X3016220D01*
Y3271626D01*
D02*
G37*
G36*
X1882659Y3271626D02*
X1774234D01*
X1665809D01*
Y3235130D01*
X1758430D01*
X1759172Y3230130D01*
X1752584Y3228132D01*
X1741706Y3222317D01*
X1732171Y3214492D01*
X1729742Y3212063D01*
X1721917Y3202528D01*
X1721203Y3201193D01*
X1665809D01*
Y3133949D01*
X1721203D01*
X1721917Y3132614D01*
X1729742Y3123079D01*
X1739277Y3115254D01*
X1750155Y3109439D01*
X1761958Y3105859D01*
X1770559Y3105012D01*
X1770313Y3100012D01*
X1665809D01*
Y3063516D01*
X1774234D01*
X1882659D01*
Y3100012D01*
X1778154D01*
X1777909Y3105012D01*
X1786509Y3105859D01*
X1790531Y3107079D01*
X1967720D01*
X1979996Y3108288D01*
X1986186Y3110166D01*
X2013764D01*
X2026040Y3111375D01*
X2028361Y3112079D01*
X2139567D01*
Y3111177D01*
X2208780D01*
Y3165854D01*
X2209614Y3174327D01*
X2208780Y3182800D01*
Y3237477D01*
X2150534D01*
X2146020Y3237921D01*
X2015678D01*
X2003402Y3236712D01*
X2001081Y3236008D01*
X1970807D01*
X1958532Y3234799D01*
X1952342Y3232921D01*
X1886744D01*
X1882659Y3235130D01*
X1882659Y3237921D01*
Y3271626D01*
D02*
G37*
G36*
X2051299Y3094957D02*
X1993150D01*
Y3065350D01*
X2051299D01*
Y3094957D01*
D02*
G37*
G36*
X2813425D02*
X2755276D01*
Y3065350D01*
X2813425D01*
Y3094957D01*
D02*
G37*
G36*
X1983150D02*
X1925000D01*
Y3065350D01*
X1983150D01*
Y3094957D01*
D02*
G37*
G36*
X2745276D02*
X2687126D01*
Y3065350D01*
X2745276D01*
Y3094957D01*
D02*
G37*
G36*
X3129646Y3100012D02*
X3026220D01*
Y3063516D01*
X3129646D01*
Y3100012D01*
D02*
G37*
G36*
X2813425Y3055350D02*
X2755276D01*
Y3025744D01*
X2813425D01*
Y3055350D01*
D02*
G37*
G36*
X2745276D02*
X2687126D01*
Y3025744D01*
X2745276D01*
Y3055350D01*
D02*
G37*
G36*
X2051299D02*
X1993150D01*
Y3025744D01*
X2051299D01*
Y3055350D01*
D02*
G37*
G36*
X1983150D02*
X1925000D01*
Y3025744D01*
X1983150D01*
Y3055350D01*
D02*
G37*
G36*
X3129646Y3053516D02*
X3026220D01*
Y3017020D01*
X3129646D01*
Y3053516D01*
D02*
G37*
G36*
X3016220D02*
X2912795D01*
Y3017020D01*
X3016220D01*
Y3053516D01*
D02*
G37*
G36*
X1882659Y3053516D02*
X1779234D01*
Y3017020D01*
X1882659D01*
Y3053516D01*
D02*
G37*
G36*
X1769234D02*
X1665809D01*
Y3017020D01*
X1769234D01*
Y3053516D01*
D02*
G37*
%LPD*%
G36*
X2380789Y3227016D02*
X2405276Y3226945D01*
Y3121709D01*
X2380789Y3121602D01*
Y3121297D01*
X2379845Y3121376D01*
X2377013Y3121445D01*
X2357712Y3121501D01*
X2310864Y3121297D01*
Y3121638D01*
X2286378Y3121709D01*
Y3226945D01*
X2310864Y3227052D01*
Y3227356D01*
X2311808Y3227278D01*
X2314641Y3227208D01*
X2333941Y3227152D01*
X2380789Y3227356D01*
Y3227016D01*
D02*
G37*
G36*
X2820276Y3115000D02*
X2495276Y3115000D01*
X2495275Y3220000D01*
X2820276Y3220000D01*
X2820276Y3115000D01*
D02*
G37*
%LPC*%
G36*
X2813425Y3207162D02*
X2755276D01*
Y3177555D01*
X2813425D01*
Y3207162D01*
D02*
G37*
G36*
X2745276D02*
X2687126D01*
Y3177555D01*
X2745276D01*
Y3207162D01*
D02*
G37*
G36*
X2813425Y3167555D02*
X2755276D01*
Y3137949D01*
X2813425D01*
Y3167555D01*
D02*
G37*
G36*
X2745276D02*
X2687126D01*
Y3137949D01*
X2745276D01*
Y3167555D01*
D02*
G37*
%LPD*%
D10*
X2750276Y3172555D02*
D03*
Y3060351D02*
D03*
X1988150Y3172555D02*
D03*
Y3060351D02*
D03*
X2753819Y4043347D02*
D03*
Y3931142D02*
D03*
Y3857437D02*
D03*
Y3745232D02*
D03*
Y3672437D02*
D03*
Y3560232D02*
D03*
X2052559Y3672437D02*
D03*
Y3560232D02*
D03*
Y3857437D02*
D03*
Y3745232D02*
D03*
Y4043347D02*
D03*
Y3931142D02*
D03*
D11*
X2517480Y3174327D02*
D03*
X2405276D02*
D03*
X2286378D02*
D03*
X2174173D02*
D03*
X2520236Y4036335D02*
D03*
X2408032D02*
D03*
X2323386D02*
D03*
X2211181D02*
D03*
D12*
X3021220Y3167571D02*
D03*
X1774234D02*
D03*
X3024764Y4048331D02*
D03*
X1765709D02*
D03*
D13*
X3021220Y3276626D02*
D03*
Y3058516D02*
D03*
X1774234D02*
D03*
Y3276626D02*
D03*
X3024764Y4157386D02*
D03*
Y3939276D02*
D03*
X1765709D02*
D03*
Y4157386D02*
D03*
D14*
X1774234Y3167571D02*
X1776663Y3170000D01*
X1967720D02*
X1970276Y3172555D01*
X1776663Y3170000D02*
X1967720D01*
X2286378Y3174327D02*
X2405276D01*
X2015678Y3175000D02*
X2146020D01*
X1970807Y3173087D02*
X2013764D01*
X2015678Y3175000D01*
X2146020D02*
X2146693Y3174327D01*
X2700260Y3167571D02*
X2939449D01*
D15*
X2052559Y3857437D02*
Y3931142D01*
Y3672437D02*
Y3745232D01*
X2753819Y3672437D02*
Y3745232D01*
Y3857437D02*
Y3931142D01*
D16*
X2052559Y4043347D02*
X2138225D01*
X1973819D02*
X2052559D01*
X1765709Y4048331D02*
X2052028D01*
X1743819D02*
X1765709D01*
X2548717Y4036867D02*
X2620969D01*
X2753819Y4043347D02*
X2754351Y4043878D01*
X2782894D01*
X2787347Y4048331D01*
X3024764D01*
X2627450Y4043347D02*
X2753819D01*
X2620969Y4036867D02*
X2627450Y4043347D01*
X2138225D02*
X2145236Y4036335D01*
X2172716D01*
X2052028Y4048331D02*
X2052559Y4047799D01*
D17*
X2350276Y3282618D02*
D03*
X2660276Y2995000D02*
D03*
X2855276Y3065000D02*
D03*
X2880276Y3355000D02*
D03*
X2865276Y3275000D02*
D03*
X1790276Y3355000D02*
D03*
X1920276Y3335000D02*
D03*
X1925276Y2985000D02*
D03*
X2010276D02*
D03*
X1955276Y3270000D02*
D03*
X2065276D02*
D03*
X2085276Y3065875D02*
D03*
X2175276D02*
D03*
X2160276Y3270000D02*
D03*
X2450276Y3065875D02*
D03*
X2254445Y3270000D02*
D03*
X2252132Y3065875D02*
D03*
X2360276D02*
D03*
X2520276D02*
D03*
X2439019Y3270000D02*
D03*
X2795276D02*
D03*
X2715276D02*
D03*
X2621608D02*
D03*
X2535276D02*
D03*
X2605276Y3065875D02*
D03*
X2805276Y2990000D02*
D03*
X1835276Y2960000D02*
D03*
X1773819Y4241969D02*
D03*
X2868819Y3949351D02*
D03*
X2775492Y4136969D02*
D03*
X2868819D02*
D03*
X1923819Y3941969D02*
D03*
X2928819Y4236969D02*
D03*
X2648819Y3946969D02*
D03*
X2148819Y3731969D02*
D03*
Y3651969D02*
D03*
X1953819Y3681969D02*
D03*
Y3761969D02*
D03*
X2868819Y3786969D02*
D03*
Y3706053D02*
D03*
X2648819Y3601296D02*
D03*
X2868819D02*
D03*
X2648819Y3736853D02*
D03*
Y3856969D02*
D03*
X2373819Y4136969D02*
D03*
X2328819Y3946969D02*
D03*
X2458204D02*
D03*
X2508819Y4136969D02*
D03*
X1953819Y3866969D02*
D03*
X2148819Y3861969D02*
D03*
X2648819Y4136969D02*
D03*
X2553819Y3946969D02*
D03*
X2868819Y3871969D02*
D03*
X1918819Y4161969D02*
D03*
X2148819Y3931969D02*
D03*
X2223819Y3946969D02*
D03*
X2249244Y4136969D02*
D03*
X2155366D02*
D03*
X2068819D02*
D03*
X1993819D02*
D03*
X2758819Y3486969D02*
D03*
X2048819Y3481969D02*
D03*
%TF.MD5,428887196986fc930b8d40a2d72a0ed3*%
M02*
