%TF.GenerationSoftware,Altium Limited,Altium Designer,20.0.10 (225)*%
G04 Layer_Color=255*
%FSLAX26Y26*%
%MOIN*%
%TF.FileFunction,Pads,Top*%
%TF.Part,CustomerPanel*%
G01*
G75*
%TA.AperFunction,SMDPad,CuDef*%
%ADD10R,0.106299X0.049213*%
%ADD11R,0.049213X0.106299*%
%ADD12R,0.196850X0.047244*%
%ADD13R,0.196850X0.062992*%
%TA.AperFunction,ConnectorPad*%
%ADD16R,0.196850X0.047244*%
%ADD17R,0.196850X0.062992*%
D10*
X3122716Y3922280D02*
D03*
Y3810075D02*
D03*
Y3692280D02*
D03*
Y3580075D02*
D03*
X2547716Y3692280D02*
D03*
Y3580075D02*
D03*
Y3922280D02*
D03*
Y3810075D02*
D03*
X3345827Y3254055D02*
D03*
Y3141850D02*
D03*
Y3000682D02*
D03*
Y2888477D02*
D03*
X2662441Y3000682D02*
D03*
Y2888477D02*
D03*
Y3249210D02*
D03*
Y3137005D02*
D03*
D11*
X3124921Y4261177D02*
D03*
X3012716D02*
D03*
X3124921Y4076177D02*
D03*
X3012716D02*
D03*
X2892421D02*
D03*
X2780216D02*
D03*
X2892421Y4261177D02*
D03*
X2780216D02*
D03*
X2659921Y4076177D02*
D03*
X2547716D02*
D03*
X2659921Y4261177D02*
D03*
X2547716D02*
D03*
X3143032Y3251890D02*
D03*
X3030827D02*
D03*
X2886929D02*
D03*
X2774724D02*
D03*
D12*
X3565590Y4261177D02*
D03*
X2318346D02*
D03*
X2330827Y3242835D02*
D03*
D13*
X3565590Y4370232D02*
D03*
Y4152122D02*
D03*
X2318346D02*
D03*
Y4370232D02*
D03*
X2330827Y3133780D02*
D03*
Y3351890D02*
D03*
D16*
X3577402Y3249071D02*
D03*
D17*
Y3358126D02*
D03*
Y3140016D02*
D03*
%TF.MD5,a468db0b0889733c841cd09ae5c6084f*%
M02*
