%TF.GenerationSoftware,Altium Limited,Altium Designer,20.0.10 (225)*%
G04 Layer_Color=255*
%FSLAX26Y26*%
%MOIN*%
%TF.FileFunction,Pads,Top*%
%TF.Part,CustomerPanel*%
G01*
G75*
%TA.AperFunction,SMDPad,CuDef*%
%ADD10R,0.106299X0.049213*%
%ADD11R,0.049213X0.106299*%
%ADD12R,0.196850X0.047244*%
%ADD13R,0.196850X0.062992*%
D10*
X2750276Y3172555D02*
D03*
Y3060351D02*
D03*
X1988150Y3172555D02*
D03*
Y3060351D02*
D03*
X2753819Y4043347D02*
D03*
Y3931142D02*
D03*
Y3857437D02*
D03*
Y3745232D02*
D03*
Y3672437D02*
D03*
Y3560232D02*
D03*
X2052559Y3672437D02*
D03*
Y3560232D02*
D03*
Y3857437D02*
D03*
Y3745232D02*
D03*
Y4043347D02*
D03*
Y3931142D02*
D03*
D11*
X2517480Y3174327D02*
D03*
X2405276D02*
D03*
X2286378D02*
D03*
X2174173D02*
D03*
X2520236Y4036335D02*
D03*
X2408032D02*
D03*
X2323386D02*
D03*
X2211181D02*
D03*
D12*
X3021220Y3167571D02*
D03*
X1774234D02*
D03*
X3024764Y4048331D02*
D03*
X1765709D02*
D03*
D13*
X3021220Y3276626D02*
D03*
Y3058516D02*
D03*
X1774234D02*
D03*
Y3276626D02*
D03*
X3024764Y4157386D02*
D03*
Y3939276D02*
D03*
X1765709D02*
D03*
Y4157386D02*
D03*
%TF.MD5,40972197a4382a7cf7b0ddb3547f8267*%
M02*
