%TF.GenerationSoftware,Altium Limited,Altium Designer,20.0.10 (225)*%
G04 Layer_Physical_Order=1*
G04 Layer_Color=255*
%FSLAX26Y26*%
%MOIN*%
%TF.FileFunction,Copper,L1,Top,Signal*%
%TF.Part,CustomerPanel*%
G01*
G75*
%TA.AperFunction,SMDPad,CuDef*%
%ADD10R,0.106299X0.049213*%
%ADD11R,0.049213X0.106299*%
%ADD12R,0.196850X0.047244*%
%ADD13R,0.196850X0.062992*%
%TA.AperFunction,Conductor*%
%ADD14C,0.105236*%
%ADD15C,0.059055*%
%TA.AperFunction,ConnectorPad*%
%ADD16R,0.196850X0.047244*%
%ADD17R,0.196850X0.062992*%
%TA.AperFunction,Conductor*%
%ADD18C,0.108779*%
%TA.AperFunction,ViaPad*%
%ADD19C,0.050000*%
G36*
X3614273Y4484869D02*
X3629228Y4480862D01*
X3643532Y4474937D01*
X3656940Y4467195D01*
X3669224Y4457770D01*
X3680171Y4446822D01*
X3689597Y4434539D01*
X3697338Y4421130D01*
X3703263Y4406826D01*
X3707270Y4391871D01*
X3709291Y4376521D01*
Y4368780D01*
Y3643110D01*
Y3635369D01*
X3707270Y3620019D01*
X3703263Y3605063D01*
X3697338Y3590759D01*
X3689597Y3577351D01*
X3680171Y3565068D01*
X3669224Y3554120D01*
X3656940Y3544694D01*
X3643532Y3536953D01*
X3629228Y3531028D01*
X3614273Y3527021D01*
X3598922Y3525000D01*
X3591181D01*
Y3525000D01*
X2308110Y3525000D01*
X2300369D01*
X2285019Y3527021D01*
X2270063Y3531028D01*
X2255759Y3536953D01*
X2242351Y3544694D01*
X2230068Y3554120D01*
X2219120Y3565068D01*
X2209694Y3577351D01*
X2201953Y3590759D01*
X2196028Y3605063D01*
X2192021Y3620019D01*
X2190000Y3635369D01*
Y3643110D01*
Y4368780D01*
Y4376521D01*
X2192021Y4391871D01*
X2196028Y4406826D01*
X2201953Y4421130D01*
X2209694Y4434539D01*
X2219120Y4446822D01*
X2230068Y4457770D01*
X2242351Y4467195D01*
X2255759Y4474937D01*
X2270063Y4480862D01*
X2285019Y4484869D01*
X2300369Y4486890D01*
X2308110D01*
Y4486890D01*
X3591181Y4486890D01*
X3598922D01*
X3614273Y4484869D01*
D02*
G37*
G36*
Y3514869D02*
X3629228Y3510862D01*
X3643532Y3504937D01*
X3656940Y3497195D01*
X3669224Y3487770D01*
X3680171Y3476822D01*
X3689597Y3464539D01*
X3697338Y3451130D01*
X3703263Y3436826D01*
X3707270Y3421871D01*
X3709291Y3406521D01*
Y3398780D01*
Y2880000D01*
Y2872259D01*
X3707270Y2856908D01*
X3703263Y2841953D01*
X3697338Y2827649D01*
X3689597Y2814241D01*
X3680171Y2801957D01*
X3669224Y2791010D01*
X3656940Y2781584D01*
X3643532Y2773843D01*
X3629228Y2767918D01*
X3614273Y2763911D01*
X3598922Y2761890D01*
X3591181Y2761890D01*
X2308110Y2761890D01*
X2300369D01*
X2285019Y2763911D01*
X2270064Y2767918D01*
X2255759Y2773843D01*
X2242351Y2781584D01*
X2230068Y2791010D01*
X2219120Y2801957D01*
X2209695Y2814241D01*
X2201953Y2827649D01*
X2196028Y2841953D01*
X2192021Y2856908D01*
X2190000Y2872259D01*
Y2880000D01*
X2190000Y3398780D01*
X2190000D01*
Y3406521D01*
X2192021Y3421871D01*
X2196028Y3436826D01*
X2201953Y3451130D01*
X2209695Y3464539D01*
X2219120Y3476822D01*
X2230068Y3487770D01*
X2242351Y3497195D01*
X2255759Y3504937D01*
X2270064Y3510862D01*
X2285019Y3514869D01*
X2300369Y3516890D01*
X2308110Y3516890D01*
X3591181Y3516890D01*
X3598922D01*
X3614273Y3514869D01*
D02*
G37*
%LPC*%
G36*
X3674016Y4411728D02*
X3570590D01*
Y4375232D01*
X3674016D01*
Y4411728D01*
D02*
G37*
G36*
X3560590D02*
X3457165D01*
Y4375232D01*
X3560590D01*
Y4411728D01*
D02*
G37*
G36*
X2426772D02*
X2323347D01*
Y4375232D01*
X2426772D01*
Y4411728D01*
D02*
G37*
G36*
X2313347D02*
X2209921D01*
Y4375232D01*
X2313347D01*
Y4411728D01*
D02*
G37*
G36*
X3674016Y4365232D02*
X3565590D01*
X3457165D01*
Y4328736D01*
X3457165D01*
X3456291Y4324098D01*
X3203790D01*
X3159528Y4324192D01*
Y4324327D01*
X3150808D01*
X3150163Y4324375D01*
X3149783Y4324328D01*
X3149407Y4324403D01*
X3149026Y4324327D01*
X3090315D01*
Y4313682D01*
X3089964Y4313494D01*
X3080429Y4305669D01*
X3072604Y4296134D01*
X3066790Y4285256D01*
X3063209Y4273453D01*
X3062000Y4261177D01*
Y4089451D01*
X3061536Y4087921D01*
X3060327Y4075646D01*
Y4034101D01*
X3059866Y3956886D01*
X3059567D01*
Y3947148D01*
X3059491Y3946766D01*
X3059567Y3946384D01*
Y3887673D01*
X3070212D01*
X3070399Y3887323D01*
X3078225Y3877788D01*
X3087759Y3869963D01*
X3098638Y3864148D01*
X3110441Y3860568D01*
X3122716Y3859359D01*
X3134992Y3860568D01*
X3146795Y3864148D01*
X3157674Y3869963D01*
X3167208Y3877788D01*
X3167740Y3878319D01*
X3175417Y3887673D01*
X3185866D01*
Y3919735D01*
X3186169Y3922811D01*
Y4062372D01*
X3186633Y4063902D01*
X3187842Y4076177D01*
Y4198102D01*
X3227269Y4198256D01*
X3456291D01*
X3457165Y4193618D01*
X3457165D01*
Y4193256D01*
Y4157122D01*
X3565590D01*
X3674016D01*
Y4193618D01*
X3569512D01*
X3569266Y4198618D01*
X3577866Y4199465D01*
X3589669Y4203046D01*
X3600548Y4208860D01*
X3610082Y4216685D01*
X3617907Y4226220D01*
X3618621Y4227555D01*
X3674016D01*
Y4294799D01*
X3618621D01*
X3617907Y4296134D01*
X3610082Y4305669D01*
X3600548Y4313494D01*
X3589669Y4319309D01*
X3577866Y4322889D01*
X3569266Y4323736D01*
X3569512Y4328736D01*
X3674016D01*
Y4365232D01*
D02*
G37*
G36*
X2313347Y4365232D02*
X2209921D01*
Y4328736D01*
X2313347D01*
Y4365232D01*
D02*
G37*
G36*
X2988230Y4324403D02*
X2987849Y4324327D01*
X2978110D01*
Y4315452D01*
X2977724Y4312533D01*
X2977129Y4311192D01*
X2975878Y4309699D01*
X2973477Y4307923D01*
X2969640Y4306057D01*
X2964317Y4304324D01*
X2957715Y4302909D01*
X2951776Y4302318D01*
X2947586Y4302874D01*
X2940821Y4304324D01*
X2935497Y4306057D01*
X2931661Y4307923D01*
X2929259Y4309699D01*
X2928008Y4311192D01*
X2927414Y4312533D01*
X2927028Y4315452D01*
Y4324327D01*
X2917289D01*
X2916907Y4324403D01*
X2916526Y4324327D01*
X2857815D01*
Y4280921D01*
X2853911Y4271496D01*
X2852553Y4261177D01*
X2853911Y4250859D01*
X2857815Y4241434D01*
Y4198028D01*
X2916526D01*
X2916907Y4197952D01*
X2917289Y4198028D01*
X2927028D01*
Y4206902D01*
X2927414Y4209822D01*
X2928008Y4211163D01*
X2929259Y4212656D01*
X2931661Y4214431D01*
X2935497Y4216297D01*
X2940821Y4218031D01*
X2947423Y4219445D01*
X2953361Y4220036D01*
X2957552Y4219480D01*
X2964317Y4218031D01*
X2969640Y4216297D01*
X2973477Y4214431D01*
X2975878Y4212656D01*
X2977129Y4211163D01*
X2977724Y4209822D01*
X2978110Y4206902D01*
Y4198028D01*
X2987849D01*
X2988230Y4197952D01*
X2988612Y4198028D01*
X3047323D01*
Y4241434D01*
X3051227Y4250859D01*
X3052585Y4261177D01*
X3051227Y4271496D01*
X3047323Y4280921D01*
Y4324327D01*
X2988612D01*
X2988230Y4324403D01*
D02*
G37*
G36*
X2426772Y4365232D02*
X2323347D01*
Y4328736D01*
X2363795D01*
X2364041Y4323736D01*
X2355441Y4322889D01*
X2343638Y4319309D01*
X2332759Y4313494D01*
X2323225Y4305669D01*
X2315399Y4296134D01*
X2314686Y4294799D01*
X2209921D01*
Y4227555D01*
X2314686D01*
X2315399Y4226220D01*
X2323225Y4216685D01*
X2332759Y4208860D01*
X2343638Y4203046D01*
X2355441Y4199465D01*
X2364041Y4198618D01*
X2363795Y4193618D01*
X2323347D01*
Y4157122D01*
X2426772D01*
Y4193618D01*
X2426772D01*
X2427646Y4198256D01*
X2468848D01*
X2481764Y4198229D01*
Y4076709D01*
X2481816Y4076177D01*
X2481764Y4075646D01*
Y4028445D01*
X2482408Y4021902D01*
X2482973Y4016170D01*
X2484264Y4011914D01*
Y4010910D01*
Y3922811D01*
X2484567Y3919735D01*
Y3887673D01*
X2495016D01*
X2495444Y3887152D01*
X2502693Y3878319D01*
X2512228Y3870494D01*
X2523106Y3864680D01*
X2534910Y3861099D01*
X2547185Y3859890D01*
X2559460Y3861099D01*
X2571264Y3864680D01*
X2582142Y3870494D01*
X2591677Y3878319D01*
X2599354Y3887673D01*
X2610866D01*
Y3946384D01*
X2610942Y3946766D01*
X2610930Y3946827D01*
X2610941Y3946887D01*
X2610866Y3953202D01*
Y3956886D01*
X2610822D01*
X2610106Y4017015D01*
D01*
Y4025945D01*
X2609620Y4030883D01*
X2614447Y4032882D01*
X2615429Y4031685D01*
X2624964Y4023860D01*
X2625315Y4023673D01*
Y4013028D01*
X2684026D01*
X2684407Y4012952D01*
X2684429Y4012956D01*
X2684451Y4012952D01*
X2732095Y4013157D01*
D01*
X2745610Y4013118D01*
Y4013028D01*
X2754385D01*
X2754901Y4012986D01*
X2755266Y4013028D01*
X2755349D01*
X2755730Y4012952D01*
X2756112Y4013028D01*
X2814823D01*
Y4023673D01*
X2815174Y4023860D01*
X2824708Y4031685D01*
X2832534Y4041220D01*
X2838348Y4052098D01*
X2841929Y4063902D01*
X2843138Y4076177D01*
X2841929Y4088453D01*
X2838348Y4100256D01*
X2832534Y4111134D01*
X2824708Y4120669D01*
X2815174Y4128494D01*
X2814823Y4128682D01*
Y4139327D01*
X2756112D01*
X2755730Y4139403D01*
X2755708Y4139398D01*
X2755686Y4139403D01*
X2708043Y4139198D01*
D01*
X2694528Y4139237D01*
Y4139327D01*
X2685753D01*
X2685237Y4139369D01*
X2684872Y4139327D01*
X2684789D01*
X2684407Y4139403D01*
X2684026Y4139327D01*
X2625315D01*
Y4128682D01*
X2624964Y4128494D01*
X2615429Y4120669D01*
X2612718Y4117366D01*
D01*
X2612314Y4116873D01*
X2607606Y4118557D01*
Y4119364D01*
Y4156890D01*
Y4218797D01*
X2612314Y4220481D01*
X2615429Y4216685D01*
X2624964Y4208860D01*
X2625315Y4208673D01*
Y4198028D01*
X2684026D01*
X2684407Y4197952D01*
X2684429Y4197956D01*
X2684451Y4197952D01*
X2732095Y4198157D01*
D01*
X2745610Y4198118D01*
Y4198028D01*
X2754385D01*
X2754901Y4197986D01*
X2755266Y4198028D01*
X2755349D01*
X2755730Y4197952D01*
X2756112Y4198028D01*
X2814823D01*
Y4208673D01*
X2815174Y4208860D01*
X2824708Y4216685D01*
X2832534Y4226220D01*
X2838348Y4237098D01*
X2841929Y4248902D01*
X2843138Y4261177D01*
X2841929Y4273453D01*
X2838348Y4285256D01*
X2832534Y4296134D01*
X2824708Y4305669D01*
X2815174Y4313494D01*
X2814823Y4313682D01*
Y4324327D01*
X2756112D01*
X2755730Y4324403D01*
X2755708Y4324398D01*
X2755686Y4324403D01*
X2708043Y4324198D01*
D01*
X2694528Y4324237D01*
Y4324327D01*
X2685753D01*
X2685237Y4324369D01*
X2684872Y4324327D01*
X2684789D01*
X2684407Y4324403D01*
X2684026Y4324327D01*
X2625315D01*
Y4313682D01*
X2624964Y4313494D01*
X2615429Y4305669D01*
X2607604Y4296134D01*
X2604661Y4290628D01*
X2599661D01*
X2597002Y4295603D01*
X2589177Y4305138D01*
X2588645Y4305669D01*
X2588173Y4306057D01*
X2582323Y4310858D01*
D01*
Y4324327D01*
X2523612D01*
X2523230Y4324403D01*
X2523210Y4324399D01*
X2523190Y4324403D01*
X2445369Y4324098D01*
X2427646D01*
X2426772Y4328736D01*
X2426772D01*
Y4329099D01*
Y4365232D01*
D02*
G37*
G36*
X2313347Y4193618D02*
X2209921D01*
Y4157122D01*
X2313347D01*
Y4159195D01*
Y4193618D01*
D02*
G37*
G36*
X2988230Y4139403D02*
X2987849Y4139327D01*
X2978110D01*
Y4130452D01*
X2977724Y4127533D01*
X2977129Y4126192D01*
X2975878Y4124699D01*
X2973477Y4122923D01*
X2969640Y4121057D01*
X2964317Y4119324D01*
X2957715Y4117909D01*
X2951776Y4117318D01*
X2947586Y4117874D01*
X2940821Y4119324D01*
X2935497Y4121057D01*
X2931661Y4122923D01*
X2929259Y4124699D01*
X2928008Y4126192D01*
X2927414Y4127533D01*
X2927028Y4130452D01*
Y4139327D01*
X2917289D01*
X2916907Y4139403D01*
X2916526Y4139327D01*
X2857815D01*
Y4095921D01*
X2853911Y4086496D01*
X2852553Y4076177D01*
X2853911Y4065858D01*
X2857815Y4056434D01*
Y4013028D01*
X2916526D01*
X2916907Y4012952D01*
X2917289Y4013028D01*
X2927028D01*
Y4021902D01*
X2927414Y4024822D01*
X2928008Y4026163D01*
X2929259Y4027656D01*
X2931661Y4029431D01*
X2935497Y4031297D01*
X2940821Y4033031D01*
X2947423Y4034445D01*
X2953361Y4035036D01*
X2957552Y4034480D01*
X2964317Y4033031D01*
X2969640Y4031297D01*
X2973477Y4029431D01*
X2975878Y4027656D01*
X2977129Y4026163D01*
X2977724Y4024822D01*
X2978110Y4021902D01*
Y4013028D01*
X2987849D01*
X2988230Y4012952D01*
X2988612Y4013028D01*
X3047323D01*
Y4056434D01*
X3051227Y4065858D01*
X3052585Y4076177D01*
X3051227Y4086496D01*
X3047323Y4095921D01*
Y4139327D01*
X2988612D01*
X2988230Y4139403D01*
D02*
G37*
G36*
X3674016Y4147122D02*
X3570590D01*
Y4110626D01*
X3674016D01*
Y4147122D01*
D02*
G37*
G36*
X3560590D02*
X3457165D01*
Y4110626D01*
X3560590D01*
Y4147122D01*
D02*
G37*
G36*
X2426772Y4147122D02*
X2323347D01*
Y4110626D01*
X2426772D01*
Y4147122D01*
D02*
G37*
G36*
X2313347D02*
X2209921D01*
Y4110626D01*
X2313347D01*
Y4147122D01*
D02*
G37*
G36*
X3122716Y3849943D02*
X3112398Y3848585D01*
X3102973Y3844681D01*
X3059567D01*
Y3785970D01*
X3059491Y3785589D01*
X3059567Y3785207D01*
Y3775469D01*
X3068441D01*
X3071361Y3775082D01*
X3072702Y3774488D01*
X3074195Y3773237D01*
X3075970Y3770835D01*
X3077836Y3766999D01*
X3079570Y3761675D01*
X3080985Y3755073D01*
X3081433Y3750563D01*
X3081019Y3747444D01*
X3079570Y3740679D01*
X3077836Y3735356D01*
X3075970Y3731519D01*
X3074195Y3729118D01*
X3072702Y3727867D01*
X3071361Y3727272D01*
X3068441Y3726886D01*
X3059567D01*
Y3717148D01*
X3059491Y3716766D01*
X3059567Y3716384D01*
Y3657673D01*
X3102973D01*
X3112398Y3653769D01*
X3122716Y3652411D01*
X3133035Y3653769D01*
X3142460Y3657673D01*
X3185866D01*
Y3716384D01*
X3185942Y3716766D01*
X3185866Y3717148D01*
Y3726886D01*
X3176992D01*
X3174072Y3727272D01*
X3172731Y3727867D01*
X3171238Y3729118D01*
X3169463Y3731519D01*
X3167597Y3735356D01*
X3165863Y3740679D01*
X3164448Y3747281D01*
X3164000Y3751791D01*
X3164414Y3754910D01*
X3165863Y3761675D01*
X3167597Y3766999D01*
X3169463Y3770835D01*
X3171238Y3773237D01*
X3172731Y3774488D01*
X3174072Y3775082D01*
X3176992Y3775469D01*
X3185866D01*
Y3785207D01*
X3185942Y3785589D01*
X3185866Y3785970D01*
Y3844681D01*
X3142460D01*
X3133035Y3848585D01*
X3122716Y3849943D01*
D02*
G37*
G36*
X2602716Y3854877D02*
X2492716D01*
X2488815Y3854101D01*
X2485507Y3851891D01*
X2483297Y3848583D01*
X2482521Y3844681D01*
Y3657673D01*
X2483297Y3653771D01*
X2485507Y3650464D01*
X2488815Y3648253D01*
X2492716Y3647477D01*
X2602716D01*
X2606618Y3648253D01*
X2609926Y3650464D01*
X2612136Y3653771D01*
X2612912Y3657673D01*
Y3837787D01*
Y3844681D01*
X2612136Y3848583D01*
X2609926Y3851891D01*
X2606618Y3854101D01*
X2602716Y3854877D01*
D02*
G37*
G36*
X3185866Y3614681D02*
X3127716D01*
Y3585075D01*
X3185866D01*
Y3612842D01*
Y3614681D01*
D02*
G37*
G36*
X2610866D02*
X2552716D01*
Y3585075D01*
X2610866D01*
Y3614681D01*
D02*
G37*
G36*
X3117716D02*
X3059567D01*
Y3585075D01*
X3117716D01*
Y3614681D01*
D02*
G37*
G36*
X2542716D02*
X2484567D01*
Y3585075D01*
X2542716D01*
Y3614681D01*
D02*
G37*
G36*
X3185866Y3575075D02*
X3127716D01*
Y3545469D01*
X3185866D01*
Y3575075D01*
D02*
G37*
G36*
X3117716D02*
X3059567D01*
Y3545469D01*
X3117716D01*
Y3575075D01*
D02*
G37*
G36*
X2610866D02*
X2552716D01*
Y3545469D01*
X2610866D01*
Y3575075D01*
D02*
G37*
G36*
X2542716D02*
X2484567D01*
Y3545469D01*
X2542716D01*
Y3575075D01*
D02*
G37*
%LPD*%
G36*
X3150460Y4314129D02*
X3158879Y4313997D01*
X3254644Y4313795D01*
Y4208559D01*
X3149407Y4208148D01*
Y4314207D01*
X3150460Y4314129D01*
D02*
G37*
G36*
X3175746Y3946766D02*
X3069687D01*
X3069866Y3947818D01*
X3070026Y3950975D01*
X3070630Y4052002D01*
X3175866D01*
X3175746Y3946766D01*
D02*
G37*
G36*
X2988230Y4208148D02*
X2987640Y4212613D01*
X2985868Y4216608D01*
X2982915Y4220134D01*
X2978781Y4223189D01*
X2973466Y4225774D01*
X2966970Y4227889D01*
X2959293Y4229535D01*
X2953530Y4230299D01*
X2945845Y4229535D01*
X2938167Y4227889D01*
X2931671Y4225774D01*
X2926356Y4223189D01*
X2922222Y4220134D01*
X2919270Y4216608D01*
X2917498Y4212613D01*
X2916907Y4208148D01*
Y4314207D01*
X2917498Y4309742D01*
X2919270Y4305746D01*
X2922222Y4302221D01*
X2926356Y4299166D01*
X2931671Y4296580D01*
X2938167Y4294465D01*
X2945845Y4292820D01*
X2951608Y4292055D01*
X2959293Y4292820D01*
X2966970Y4294465D01*
X2973466Y4296580D01*
X2978781Y4299166D01*
X2982915Y4302221D01*
X2985868Y4305746D01*
X2987640Y4309742D01*
X2988230Y4314207D01*
Y4208148D01*
D02*
G37*
G36*
X2755730Y4313865D02*
X2780216Y4313795D01*
Y4208559D01*
X2755730Y4208454D01*
Y4208148D01*
X2754772Y4208226D01*
X2751898Y4208296D01*
X2732094Y4208352D01*
X2684407Y4208148D01*
Y4208489D01*
X2659921Y4208559D01*
Y4313795D01*
X2684407Y4313901D01*
Y4314207D01*
X2685366Y4314129D01*
X2688240Y4314059D01*
X2708044Y4314002D01*
X2755730Y4314207D01*
Y4313865D01*
D02*
G37*
G36*
X2523230Y4208148D02*
X2522178Y4208226D01*
X2513759Y4208358D01*
X2417994Y4208559D01*
Y4313795D01*
X2523230Y4314207D01*
Y4208148D01*
D02*
G37*
G36*
X2755730Y4128865D02*
X2780216Y4128795D01*
Y4023559D01*
X2755730Y4023454D01*
Y4023148D01*
X2754772Y4023226D01*
X2751898Y4023296D01*
X2732094Y4023352D01*
X2684407Y4023148D01*
Y4023489D01*
X2659921Y4023559D01*
Y4128795D01*
X2684407Y4128901D01*
Y4129207D01*
X2685366Y4129129D01*
X2688240Y4129059D01*
X2708044Y4129002D01*
X2755730Y4129207D01*
Y4128865D01*
D02*
G37*
G36*
X2597410Y4156890D02*
Y4118557D01*
X2597460Y4118308D01*
X2597423Y4118057D01*
X2597716Y4116883D01*
Y4083451D01*
X2597000Y4076177D01*
X2597716Y4068904D01*
Y4025945D01*
X2599803D01*
X2600746Y3946766D01*
X2597716D01*
Y3897627D01*
X2596921Y3897385D01*
X2595452Y3897093D01*
X2595031Y3896812D01*
X2594547Y3896665D01*
X2593390Y3895715D01*
X2592144Y3894883D01*
X2591863Y3894462D01*
X2591472Y3894142D01*
X2589624Y3891890D01*
X2504746Y3891890D01*
X2502898Y3894142D01*
X2502507Y3894462D01*
X2502226Y3894883D01*
X2500981Y3895715D01*
X2499823Y3896665D01*
X2499339Y3896812D01*
X2498918Y3897093D01*
X2497449Y3897385D01*
X2496016Y3897820D01*
X2494763Y3902608D01*
Y3919735D01*
X2494664Y3920231D01*
X2494714Y3920734D01*
X2494460Y3923312D01*
Y4011914D01*
X2494168Y4013383D01*
X2494021Y4014874D01*
X2493021Y4018169D01*
X2492716Y4021263D01*
X2492716Y4156890D01*
X2597410Y4156890D01*
D02*
G37*
G36*
X2988230Y4023148D02*
X2987640Y4027613D01*
X2985868Y4031608D01*
X2982915Y4035134D01*
X2978781Y4038189D01*
X2973466Y4040774D01*
X2966970Y4042889D01*
X2959293Y4044535D01*
X2953530Y4045299D01*
X2945845Y4044535D01*
X2938167Y4042889D01*
X2931671Y4040774D01*
X2926356Y4038189D01*
X2922222Y4035134D01*
X2919270Y4031608D01*
X2917498Y4027613D01*
X2916907Y4023148D01*
Y4129207D01*
X2917498Y4124742D01*
X2919270Y4120746D01*
X2922222Y4117221D01*
X2926356Y4114166D01*
X2931671Y4111580D01*
X2938167Y4109465D01*
X2945845Y4107820D01*
X2951608Y4107055D01*
X2959293Y4107820D01*
X2966970Y4109465D01*
X2973466Y4111580D01*
X2978781Y4114166D01*
X2982915Y4117221D01*
X2985868Y4120746D01*
X2987640Y4124742D01*
X2988230Y4129207D01*
Y4023148D01*
D02*
G37*
G36*
X3171281Y3784998D02*
X3167285Y3783226D01*
X3163760Y3780274D01*
X3160705Y3776140D01*
X3158120Y3770825D01*
X3156004Y3764329D01*
X3154359Y3756652D01*
X3153737Y3751959D01*
X3154359Y3745703D01*
X3156004Y3738026D01*
X3158120Y3731530D01*
X3160705Y3726215D01*
X3163760Y3722081D01*
X3167285Y3719128D01*
X3171281Y3717356D01*
X3175746Y3716766D01*
X3069687D01*
X3074152Y3717356D01*
X3078148Y3719128D01*
X3081673Y3722081D01*
X3084728Y3726215D01*
X3087313Y3731530D01*
X3089429Y3738026D01*
X3091074Y3745703D01*
X3091696Y3750395D01*
X3091074Y3756652D01*
X3089429Y3764329D01*
X3087313Y3770825D01*
X3084728Y3776140D01*
X3081673Y3780274D01*
X3078148Y3783226D01*
X3074152Y3784998D01*
X3069687Y3785589D01*
X3175746D01*
X3171281Y3784998D01*
D02*
G37*
G36*
X2602716Y3657673D02*
X2492716D01*
Y3844681D01*
X2602716D01*
Y3657673D01*
D02*
G37*
%LPC*%
G36*
X3685827Y3399622D02*
X3582402D01*
Y3363126D01*
X3685827D01*
Y3399622D01*
D02*
G37*
G36*
X3572402D02*
X3468976D01*
Y3363126D01*
X3572402D01*
Y3399622D01*
D02*
G37*
G36*
X2439252Y3393386D02*
X2335827D01*
Y3356890D01*
X2439252D01*
Y3357789D01*
Y3393386D01*
D02*
G37*
G36*
X2325827D02*
X2222402D01*
Y3356890D01*
X2325827D01*
Y3393386D01*
D02*
G37*
G36*
X3006340Y3315115D02*
X3005959Y3315039D01*
X2996220D01*
Y3306165D01*
X2995834Y3303246D01*
X2995240Y3301905D01*
X2993989Y3300411D01*
X2991587Y3298636D01*
X2987751Y3296770D01*
X2982427Y3295037D01*
X2975825Y3293622D01*
X2958666Y3291914D01*
X2950239Y3292506D01*
X2942094Y3293587D01*
X2935329Y3295037D01*
X2930005Y3296770D01*
X2926169Y3298636D01*
X2923767Y3300411D01*
X2922516Y3301905D01*
X2921921Y3303246D01*
X2921535Y3306165D01*
Y3315039D01*
X2911797D01*
X2911415Y3315115D01*
X2911034Y3315039D01*
X2852323D01*
Y3271633D01*
X2848419Y3262209D01*
X2847061Y3251890D01*
X2848419Y3241571D01*
X2852323Y3232146D01*
Y3188740D01*
X2911034D01*
X2911415Y3188664D01*
X2911797Y3188740D01*
X2921535D01*
Y3197615D01*
X2921921Y3200534D01*
X2922516Y3201875D01*
X2923767Y3203369D01*
X2926169Y3205144D01*
X2930005Y3207010D01*
X2935329Y3208743D01*
X2941931Y3210158D01*
X2959090Y3211865D01*
X2967517Y3211273D01*
X2975662Y3210193D01*
X2982427Y3208743D01*
X2987751Y3207010D01*
X2991587Y3205144D01*
X2993989Y3203369D01*
X2995240Y3201875D01*
X2995834Y3200534D01*
X2996220Y3197615D01*
Y3188740D01*
X3005959D01*
X3006340Y3188664D01*
X3006722Y3188740D01*
X3065433D01*
Y3232146D01*
X3069337Y3241571D01*
X3070695Y3251890D01*
X3069337Y3262209D01*
X3065433Y3271633D01*
Y3315039D01*
X3006722D01*
X3006340Y3315115D01*
D02*
G37*
G36*
X2439252Y3346890D02*
X2330827D01*
X2222402D01*
Y3310394D01*
X2316017D01*
X2316759Y3305394D01*
X2306748Y3302357D01*
X2295870Y3296542D01*
X2286335Y3288717D01*
X2278510Y3279182D01*
X2277053Y3276457D01*
X2222402D01*
Y3209213D01*
X2278555D01*
X2286335Y3199733D01*
X2295870Y3191908D01*
X2306748Y3186094D01*
X2318552Y3182513D01*
X2330827Y3181304D01*
X2358162D01*
X2370438Y3182513D01*
X2382241Y3186094D01*
X2391592Y3191092D01*
X2613975D01*
X2619647Y3191651D01*
X2621646Y3186823D01*
X2616690Y3182756D01*
X2608644Y3172951D01*
X2607928Y3171611D01*
X2599291D01*
Y3161611D01*
Y3150645D01*
X2598983Y3149628D01*
X2597740Y3137005D01*
Y3108295D01*
X2596407Y3106300D01*
X2595631Y3102399D01*
X2595631Y3035288D01*
X2596407Y3031387D01*
X2597740Y3029392D01*
Y3000682D01*
X2598983Y2988059D01*
X2599291Y2987042D01*
Y2966076D01*
X2607928D01*
X2608644Y2964736D01*
X2616690Y2954931D01*
X2626495Y2946885D01*
X2637681Y2940906D01*
X2649818Y2937224D01*
X2662441Y2935981D01*
X2675064Y2937224D01*
X2687201Y2940906D01*
X2698387Y2946885D01*
X2708192Y2954931D01*
X2716238Y2964736D01*
X2716954Y2966076D01*
X2725591D01*
Y2987042D01*
X2725899Y2988059D01*
X2727142Y3000682D01*
Y3027481D01*
X2728036Y3028079D01*
X2730247Y3031387D01*
X2731023Y3035288D01*
Y3102399D01*
X2730247Y3106300D01*
X2728036Y3109608D01*
X2727142Y3110206D01*
Y3137005D01*
X2725899Y3149628D01*
X2725591Y3150645D01*
Y3171611D01*
X2716954D01*
X2716238Y3172951D01*
X2708192Y3182756D01*
X2698387Y3190802D01*
X2687201Y3196781D01*
X2675064Y3200463D01*
X2662441Y3201706D01*
X2656060Y3201078D01*
X2654061Y3205905D01*
X2658467Y3209521D01*
X2662638Y3214603D01*
X2692060D01*
X2692247Y3214253D01*
X2700072Y3204718D01*
X2709607Y3196893D01*
X2720485Y3191078D01*
X2732289Y3187498D01*
X2744564Y3186289D01*
X2756839Y3187498D01*
X2760936Y3188740D01*
X2809331D01*
Y3199385D01*
X2809682Y3199573D01*
X2819216Y3207398D01*
X2827041Y3216933D01*
X2832856Y3227811D01*
X2836436Y3239615D01*
X2837646Y3251890D01*
X2836436Y3264165D01*
X2832856Y3275969D01*
X2827041Y3286847D01*
X2819216Y3296382D01*
X2809682Y3304207D01*
X2809331Y3304394D01*
Y3315039D01*
X2740118D01*
Y3314109D01*
X2734969Y3313602D01*
X2723165Y3310021D01*
X2712287Y3304207D01*
X2702752Y3296382D01*
X2700072Y3293702D01*
X2692247Y3284167D01*
X2692060Y3283816D01*
X2669047D01*
X2666292Y3288970D01*
X2658467Y3298505D01*
X2648932Y3306330D01*
X2638054Y3312144D01*
X2626250Y3315725D01*
X2613975Y3316934D01*
X2439252D01*
Y3346890D01*
D02*
G37*
G36*
X3685827Y3353126D02*
X3577402D01*
X3468976D01*
Y3320320D01*
X3392128D01*
X3379853Y3319111D01*
X3374566Y3317508D01*
X3346358D01*
X3334083Y3316299D01*
X3330930Y3315342D01*
X3143563D01*
X3140487Y3315039D01*
X3108425D01*
Y3304590D01*
X3099071Y3296913D01*
X3098540Y3296382D01*
X3090715Y3286847D01*
X3084900Y3275969D01*
X3081319Y3264165D01*
X3080110Y3251890D01*
X3081319Y3239615D01*
X3084900Y3227811D01*
X3090715Y3216933D01*
X3098540Y3207398D01*
X3108074Y3199573D01*
X3108425Y3199385D01*
Y3188740D01*
X3167136D01*
X3167518Y3188664D01*
X3167563Y3188673D01*
X3167609Y3188665D01*
X3176035Y3188740D01*
X3177638D01*
Y3188755D01*
X3260849Y3189500D01*
X3307068D01*
X3308857Y3184500D01*
X3301335Y3178327D01*
X3299800Y3176457D01*
X3282677D01*
Y3138858D01*
Y3117746D01*
X3282601Y3117364D01*
X3282605Y3117344D01*
X3282601Y3117324D01*
X3282851Y3053518D01*
X3282812Y3035288D01*
X3282677D01*
Y3026568D01*
X3282629Y3025924D01*
X3282676Y3025544D01*
X3282601Y3025168D01*
X3282677Y3024787D01*
Y2966076D01*
X3293322D01*
X3293510Y2965725D01*
X3301335Y2956190D01*
X3310870Y2948365D01*
X3321748Y2942550D01*
X3333552Y2938970D01*
X3345827Y2937761D01*
X3358102Y2938970D01*
X3369906Y2942550D01*
X3380784Y2948365D01*
X3390319Y2956190D01*
X3398144Y2965725D01*
X3398331Y2966076D01*
X3408976D01*
Y3024787D01*
X3409052Y3025168D01*
X3409048Y3025188D01*
X3409052Y3025208D01*
X3408803Y3089014D01*
X3408841Y3107244D01*
X3408976D01*
Y3115964D01*
X3409024Y3116609D01*
X3408978Y3116989D01*
X3409052Y3117364D01*
X3408976Y3117746D01*
Y3135507D01*
Y3176457D01*
X3391853D01*
X3390319Y3178327D01*
X3380784Y3186152D01*
X3379542Y3186815D01*
X3380757Y3191666D01*
X3389316D01*
X3401591Y3192874D01*
X3406878Y3194478D01*
X3457596D01*
X3462802Y3191695D01*
X3474606Y3188115D01*
X3486881Y3186906D01*
X3588488D01*
X3589194Y3186512D01*
X3587894Y3181512D01*
X3582402D01*
Y3145016D01*
X3685827D01*
Y3181512D01*
X3601007D01*
X3600761Y3186512D01*
X3609362Y3187359D01*
X3621165Y3190939D01*
X3632044Y3196754D01*
X3641579Y3204579D01*
X3649404Y3214114D01*
X3650117Y3215449D01*
X3685827D01*
Y3282693D01*
X3650117D01*
X3649404Y3284028D01*
X3641579Y3293563D01*
X3640823Y3294319D01*
X3631288Y3302144D01*
X3620410Y3307958D01*
X3608606Y3311539D01*
X3607682Y3311630D01*
X3607928Y3316630D01*
X3685827D01*
Y3353126D01*
D02*
G37*
G36*
X3572402Y3181512D02*
X3468976D01*
Y3145016D01*
X3572402D01*
Y3181512D01*
D02*
G37*
G36*
X2439252Y3175276D02*
X2335827D01*
Y3145016D01*
Y3138780D01*
X2439252D01*
Y3175276D01*
D02*
G37*
G36*
X2325827D02*
X2222402D01*
Y3138780D01*
X2325827D01*
Y3145016D01*
Y3175276D01*
D02*
G37*
G36*
X3685827Y3135016D02*
X3582402D01*
Y3098520D01*
X3685827D01*
Y3135016D01*
D02*
G37*
G36*
X3572402D02*
X3468976D01*
Y3098520D01*
X3572402D01*
Y3135016D01*
D02*
G37*
G36*
X2439252Y3128780D02*
X2335827D01*
Y3092284D01*
X2439252D01*
Y3128780D01*
D02*
G37*
G36*
X2325827D02*
X2222402D01*
Y3092284D01*
X2325827D01*
Y3128780D01*
D02*
G37*
G36*
X3408976Y2923084D02*
X3350827D01*
Y2893477D01*
X3408976D01*
Y2912870D01*
Y2923084D01*
D02*
G37*
G36*
X2725591D02*
X2667441D01*
Y2893477D01*
X2725591D01*
Y2906890D01*
Y2923084D01*
D02*
G37*
G36*
X3340827D02*
X3282677D01*
Y2893477D01*
X3340827D01*
Y2923084D01*
D02*
G37*
G36*
X2657441D02*
X2599291D01*
Y2906890D01*
Y2893477D01*
X2657441D01*
Y2923084D01*
D02*
G37*
G36*
X3408976Y2883477D02*
X3350827D01*
Y2853871D01*
X3408976D01*
Y2883477D01*
D02*
G37*
G36*
X3340827D02*
X3282677D01*
Y2853871D01*
X3340827D01*
Y2883477D01*
D02*
G37*
G36*
X2725591D02*
X2667441D01*
Y2853871D01*
X2725591D01*
Y2883477D01*
D02*
G37*
G36*
X2657441D02*
X2599291D01*
Y2853871D01*
X2657441D01*
Y2883477D01*
D02*
G37*
%LPD*%
G36*
X3006340Y3198860D02*
X3005750Y3203326D01*
X3003978Y3207321D01*
X3001026Y3210846D01*
X2996892Y3213901D01*
X2991577Y3216487D01*
X2985081Y3218602D01*
X2977403Y3220247D01*
X2968545Y3221422D01*
X2958942Y3222097D01*
X2940352Y3220247D01*
X2932675Y3218602D01*
X2926179Y3216487D01*
X2920864Y3213901D01*
X2916730Y3210846D01*
X2913778Y3207321D01*
X2912006Y3203326D01*
X2911415Y3198860D01*
Y3304919D01*
X2912006Y3300454D01*
X2913778Y3296459D01*
X2916730Y3292933D01*
X2920864Y3289878D01*
X2926179Y3287293D01*
X2932675Y3285178D01*
X2940352Y3283532D01*
X2949211Y3282357D01*
X2958814Y3281683D01*
X2977403Y3283532D01*
X2985081Y3285178D01*
X2991577Y3287293D01*
X2996892Y3289878D01*
X3001026Y3292933D01*
X3003978Y3296459D01*
X3005750Y3300454D01*
X3006340Y3304919D01*
Y3198860D01*
D02*
G37*
G36*
X2667441Y3102399D02*
X2720827D01*
Y3035288D01*
X2667441D01*
Y3000682D01*
X2657441D01*
Y3035288D01*
X2605827D01*
X2605827Y3102399D01*
X2657441D01*
Y3137005D01*
X2667441D01*
Y3102399D01*
D02*
G37*
G36*
X3272754Y3199803D02*
X3167518Y3198860D01*
Y3304919D01*
X3272754Y3305039D01*
Y3199803D01*
D02*
G37*
G36*
X3398496Y3117364D02*
X3398856D01*
X3398778Y3116312D01*
X3398646Y3107893D01*
X3398607Y3089012D01*
X3398856Y3025168D01*
X3398472D01*
X3398445Y3012128D01*
X3293209D01*
X3293158Y3025168D01*
X3292797D01*
X3292875Y3026221D01*
X3293007Y3034640D01*
X3293047Y3053520D01*
X3292797Y3117364D01*
X3293181D01*
X3293209Y3130405D01*
X3398445D01*
X3398496Y3117364D01*
D02*
G37*
D10*
X3122716Y3922280D02*
D03*
Y3810075D02*
D03*
Y3692280D02*
D03*
Y3580075D02*
D03*
X2547716Y3692280D02*
D03*
Y3580075D02*
D03*
Y3922280D02*
D03*
Y3810075D02*
D03*
X3345827Y3254055D02*
D03*
Y3141850D02*
D03*
Y3000682D02*
D03*
Y2888477D02*
D03*
X2662441Y3000682D02*
D03*
Y2888477D02*
D03*
Y3249210D02*
D03*
Y3137005D02*
D03*
D11*
X3124921Y4261177D02*
D03*
X3012716D02*
D03*
X3124921Y4076177D02*
D03*
X3012716D02*
D03*
X2892421D02*
D03*
X2780216D02*
D03*
X2892421Y4261177D02*
D03*
X2780216D02*
D03*
X2659921Y4076177D02*
D03*
X2547716D02*
D03*
X2659921Y4261177D02*
D03*
X2547716D02*
D03*
X3143032Y3251890D02*
D03*
X3030827D02*
D03*
X2886929D02*
D03*
X2774724D02*
D03*
D12*
X3565590Y4261177D02*
D03*
X2318346D02*
D03*
X2330827Y3242835D02*
D03*
D13*
X3565590Y4370232D02*
D03*
Y4152122D02*
D03*
X2318346D02*
D03*
Y4370232D02*
D03*
X2330827Y3133780D02*
D03*
Y3351890D02*
D03*
D14*
X2547185Y3922811D02*
Y4025945D01*
X2544685Y4028445D02*
X2547185Y4025945D01*
X2544685Y4028445D02*
Y4075646D01*
X3124921Y4261177D02*
X3565590D01*
X2659921D02*
X2780216D01*
X2367716D02*
X2544153D01*
X2544685Y4260646D01*
Y4076709D02*
Y4260646D01*
X2659921Y4076177D02*
X2780216D01*
X3122716Y3922280D02*
X3123248Y3922811D01*
Y4075646D01*
X3123780Y4076177D01*
X3124921D01*
Y4261177D01*
X2330827Y3244225D02*
X2358162D01*
X3345827Y3254055D02*
X3346358Y3254587D01*
X3389316D02*
X3392128Y3257399D01*
X3479309D02*
X3486881Y3249827D01*
X3596331D01*
X3346358Y3254587D02*
X3389316D01*
X3596331Y3249827D02*
X3597087Y3249071D01*
X3392128Y3257399D02*
X3479309D01*
X2358162Y3244225D02*
X2367950Y3254013D01*
X2613975D01*
X2744564Y3249210D02*
X2747244Y3251890D01*
X3345827Y3000682D02*
Y3133835D01*
X2747244Y3251890D02*
X2774724D01*
X3143032D02*
X3143563Y3252421D01*
X3345295D01*
X3345827Y3252953D01*
Y3254055D01*
D15*
X3122716Y3692280D02*
Y3810075D01*
X2892421Y4261177D02*
X3012716D01*
X2892421Y4076177D02*
X3012716D01*
X2886929Y3251890D02*
X3030827D01*
D16*
X3577402Y3249071D02*
D03*
D17*
Y3358126D02*
D03*
Y3140016D02*
D03*
D18*
X2662441Y3000682D02*
Y3137005D01*
D19*
X2647716Y3946890D02*
D03*
X2462716Y4386890D02*
D03*
X2452716Y4171890D02*
D03*
X3150116Y4349551D02*
D03*
X3229644D02*
D03*
X3309171D02*
D03*
X3388699D02*
D03*
X3039901Y4363026D02*
D03*
X2930965Y4358653D02*
D03*
X2962716Y4166890D02*
D03*
X2892716D02*
D03*
X2834208Y3972731D02*
D03*
X2922716Y3971890D02*
D03*
X2993729Y3987726D02*
D03*
X2730059Y3987803D02*
D03*
X2685892Y4358688D02*
D03*
X2730059Y4172803D02*
D03*
X2829901Y4363026D02*
D03*
X3034265Y3928397D02*
D03*
X3037589Y3848939D02*
D03*
X3038333Y3769415D02*
D03*
X3034265Y3689991D02*
D03*
X3211168Y3699551D02*
D03*
X3210326Y3779074D02*
D03*
X3201966Y3858161D02*
D03*
X3211622Y3937101D02*
D03*
Y4016628D02*
D03*
X3213295Y4096138D02*
D03*
X3234440Y4172803D02*
D03*
X3313968D02*
D03*
X3393495D02*
D03*
X2515642Y4349551D02*
D03*
X2456311Y4094837D02*
D03*
X2457414Y4015317D02*
D03*
Y3935789D02*
D03*
X2581460Y4348426D02*
D03*
X2306131Y3665698D02*
D03*
X2857716Y3711890D02*
D03*
X3445827Y2926890D02*
D03*
X3425827Y3416890D02*
D03*
X3410827Y3346890D02*
D03*
X3330827D02*
D03*
X2430827Y3046890D02*
D03*
X2495827Y3411890D02*
D03*
X2420827Y3446890D02*
D03*
X2518673Y3341631D02*
D03*
X2490827Y3146890D02*
D03*
X2545827Y3126890D02*
D03*
X2770827Y3046890D02*
D03*
X2545827Y3061890D02*
D03*
X2550827Y2986890D02*
D03*
X2775827Y2976890D02*
D03*
X3245827Y3041890D02*
D03*
X3434201Y3011432D02*
D03*
Y3090960D02*
D03*
X2985055Y3333048D02*
D03*
X2905863Y3340341D02*
D03*
X2853349Y3164619D02*
D03*
X2932644Y3170699D02*
D03*
X3011840Y3163438D02*
D03*
X2685827Y3356890D02*
D03*
X2600827Y3351890D02*
D03*
X2775827Y3106890D02*
D03*
X2774313Y3163438D02*
D03*
X2808468Y3339139D02*
D03*
X3247842Y3340795D02*
D03*
X3168314D02*
D03*
X3090218Y3325773D02*
D03*
X3087506Y3181927D02*
D03*
X3164855Y3163438D02*
D03*
X3244380Y3164047D02*
D03*
X3240827Y3106890D02*
D03*
%TF.MD5,9ee9a4e269e32e22cdd64c8580127798*%
M02*
