%TF.GenerationSoftware,Altium Limited,Altium Designer,20.0.10 (225)*%
G04 Layer_Color=2752767*
%FSLAX26Y26*%
%MOIN*%
%TF.FileFunction,Drawing*%
%TF.Part,CustomerPanel*%
G01*
G75*
%TA.AperFunction,NonConductor*%
%ADD30C,0.005000*%
D30*
X2627716Y3926890D02*
Y3966890D01*
X2667716D01*
Y3926890D01*
X2627716D01*
X2442716Y4366890D02*
Y4406890D01*
X2482716D01*
Y4366890D01*
X2442716D01*
X2432716Y4151890D02*
Y4191890D01*
X2472716D01*
Y4151890D01*
X2432716D01*
X3130116Y4329551D02*
Y4369551D01*
X3170116D01*
Y4329551D01*
X3130116D01*
X3209644D02*
Y4369551D01*
X3249644D01*
Y4329551D01*
X3209644D01*
X3289171D02*
Y4369551D01*
X3329171D01*
Y4329551D01*
X3289171D01*
X3368699D02*
Y4369551D01*
X3408699D01*
Y4329551D01*
X3368699D01*
X3019901Y4343026D02*
Y4383026D01*
X3059901D01*
Y4343026D01*
X3019901D01*
X2910965Y4338653D02*
Y4378653D01*
X2950965D01*
Y4338653D01*
X2910965D01*
X2942716Y4146890D02*
Y4186890D01*
X2982716D01*
Y4146890D01*
X2942716D01*
X2872716D02*
Y4186890D01*
X2912716D01*
Y4146890D01*
X2872716D01*
X2814208Y3952731D02*
Y3992731D01*
X2854208D01*
Y3952731D01*
X2814208D01*
X2902716Y3951890D02*
Y3991890D01*
X2942716D01*
Y3951890D01*
X2902716D01*
X2973729Y3967726D02*
Y4007726D01*
X3013729D01*
Y3967726D01*
X2973729D01*
X2710059Y3967803D02*
Y4007803D01*
X2750059D01*
Y3967803D01*
X2710059D01*
X2665892Y4338688D02*
Y4378688D01*
X2705892D01*
Y4338688D01*
X2665892D01*
X2710059Y4152803D02*
Y4192803D01*
X2750059D01*
Y4152803D01*
X2710059D01*
X2809901Y4343026D02*
Y4383026D01*
X2849901D01*
Y4343026D01*
X2809901D01*
X3014265Y3908397D02*
Y3948397D01*
X3054265D01*
Y3908397D01*
X3014265D01*
X3017589Y3828939D02*
Y3868939D01*
X3057589D01*
Y3828939D01*
X3017589D01*
X3018333Y3749415D02*
Y3789415D01*
X3058333D01*
Y3749415D01*
X3018333D01*
X3014265Y3669991D02*
Y3709991D01*
X3054265D01*
Y3669991D01*
X3014265D01*
X3191168Y3679551D02*
Y3719551D01*
X3231168D01*
Y3679551D01*
X3191168D01*
X3190326Y3759074D02*
Y3799074D01*
X3230326D01*
Y3759074D01*
X3190326D01*
X3181966Y3838161D02*
Y3878161D01*
X3221966D01*
Y3838161D01*
X3181966D01*
X3191622Y3917101D02*
Y3957101D01*
X3231622D01*
Y3917101D01*
X3191622D01*
Y3996628D02*
Y4036628D01*
X3231622D01*
Y3996628D01*
X3191622D01*
X3193295Y4076138D02*
Y4116138D01*
X3233295D01*
Y4076138D01*
X3193295D01*
X3214440Y4152803D02*
Y4192803D01*
X3254440D01*
Y4152803D01*
X3214440D01*
X3293968D02*
Y4192803D01*
X3333968D01*
Y4152803D01*
X3293968D01*
X3373495D02*
Y4192803D01*
X3413495D01*
Y4152803D01*
X3373495D01*
X2495642Y4329551D02*
Y4369551D01*
X2535642D01*
Y4329551D01*
X2495642D01*
X2436311Y4074837D02*
Y4114837D01*
X2476311D01*
Y4074837D01*
X2436311D01*
X2437414Y3995317D02*
Y4035317D01*
X2477414D01*
Y3995317D01*
X2437414D01*
Y3915789D02*
Y3955789D01*
X2477414D01*
Y3915789D01*
X2437414D01*
X2561460Y4328426D02*
Y4368426D01*
X2601460D01*
Y4328426D01*
X2561460D01*
X2286131Y3645698D02*
Y3685698D01*
X2326131D01*
Y3645698D01*
X2286131D01*
X2837716Y3691890D02*
Y3731890D01*
X2877716D01*
Y3691890D01*
X2837716D01*
X3425827Y2906890D02*
Y2946890D01*
X3465827D01*
Y2906890D01*
X3425827D01*
X3405827Y3396890D02*
Y3436890D01*
X3445827D01*
Y3396890D01*
X3405827D01*
X3390827Y3326890D02*
Y3366890D01*
X3430827D01*
Y3326890D01*
X3390827D01*
X3310827D02*
Y3366890D01*
X3350827D01*
Y3326890D01*
X3310827D01*
X2410827Y3026890D02*
Y3066890D01*
X2450827D01*
Y3026890D01*
X2410827D01*
X2475827Y3391890D02*
Y3431890D01*
X2515827D01*
Y3391890D01*
X2475827D01*
X2400827Y3426890D02*
Y3466890D01*
X2440827D01*
Y3426890D01*
X2400827D01*
X2498673Y3321631D02*
Y3361631D01*
X2538673D01*
Y3321631D01*
X2498673D01*
X2470827Y3126890D02*
Y3166890D01*
X2510827D01*
Y3126890D01*
X2470827D01*
X2525827Y3106890D02*
Y3146890D01*
X2565827D01*
Y3106890D01*
X2525827D01*
X2750827Y3026890D02*
Y3066890D01*
X2790827D01*
Y3026890D01*
X2750827D01*
X2525827Y3041890D02*
Y3081890D01*
X2565827D01*
Y3041890D01*
X2525827D01*
X2530827Y2966890D02*
Y3006890D01*
X2570827D01*
Y2966890D01*
X2530827D01*
X2755827Y2956890D02*
Y2996890D01*
X2795827D01*
Y2956890D01*
X2755827D01*
X3225827Y3021890D02*
Y3061890D01*
X3265827D01*
Y3021890D01*
X3225827D01*
X3414201Y2991432D02*
Y3031432D01*
X3454201D01*
Y2991432D01*
X3414201D01*
Y3070960D02*
Y3110960D01*
X3454201D01*
Y3070960D01*
X3414201D01*
X2965055Y3313048D02*
Y3353048D01*
X3005055D01*
Y3313048D01*
X2965055D01*
X2885863Y3320341D02*
Y3360341D01*
X2925863D01*
Y3320341D01*
X2885863D01*
X2833349Y3144619D02*
Y3184619D01*
X2873349D01*
Y3144619D01*
X2833349D01*
X2912644Y3150699D02*
Y3190699D01*
X2952644D01*
Y3150699D01*
X2912644D01*
X2991840Y3143438D02*
Y3183438D01*
X3031840D01*
Y3143438D01*
X2991840D01*
X2665827Y3336890D02*
Y3376890D01*
X2705827D01*
Y3336890D01*
X2665827D01*
X2580827Y3331890D02*
Y3371890D01*
X2620827D01*
Y3331890D01*
X2580827D01*
X2755827Y3086890D02*
Y3126890D01*
X2795827D01*
Y3086890D01*
X2755827D01*
X2754313Y3143438D02*
Y3183438D01*
X2794313D01*
Y3143438D01*
X2754313D01*
X2788468Y3319139D02*
Y3359139D01*
X2828468D01*
Y3319139D01*
X2788468D01*
X3227842Y3320795D02*
Y3360795D01*
X3267842D01*
Y3320795D01*
X3227842D01*
X3148314D02*
Y3360795D01*
X3188314D01*
Y3320795D01*
X3148314D01*
X3070218Y3305773D02*
Y3345773D01*
X3110218D01*
Y3305773D01*
X3070218D01*
X3067506Y3161927D02*
Y3201927D01*
X3107506D01*
Y3161927D01*
X3067506D01*
X3144855Y3143438D02*
Y3183438D01*
X3184855D01*
Y3143438D01*
X3144855D01*
X3224380Y3144047D02*
Y3184047D01*
X3264380D01*
Y3144047D01*
X3224380D01*
X3220827Y3086890D02*
Y3126890D01*
X3260827D01*
Y3086890D01*
X3220827D01*
%TF.MD5,ad0945fd853e3c944a187f69241c4ebf*%
M02*
