%TF.GenerationSoftware,Altium Limited,Altium Designer,20.0.10 (225)*%
G04 Layer_Color=8388736*
%FSLAX26Y26*%
%MOIN*%
%TF.FileFunction,Soldermask,Top*%
%TF.Part,CustomerPanel*%
G01*
G75*
%TA.AperFunction,SMDPad,CuDef*%
%ADD12R,0.196850X0.047244*%
%ADD13R,0.196850X0.062992*%
%TA.AperFunction,ConnectorPad*%
%ADD16R,0.196850X0.047244*%
%ADD17R,0.196850X0.062992*%
%TA.AperFunction,ViaPad*%
%ADD20C,0.058000*%
%TA.AperFunction,SMDPad,CuDef*%
%ADD23R,0.114299X0.057213*%
%ADD24R,0.057213X0.114299*%
D12*
X3565590Y4261177D02*
D03*
X2318346D02*
D03*
X2330827Y3242835D02*
D03*
D13*
X3565590Y4370232D02*
D03*
Y4152122D02*
D03*
X2318346D02*
D03*
Y4370232D02*
D03*
X2330827Y3133780D02*
D03*
Y3351890D02*
D03*
D16*
X3577402Y3249071D02*
D03*
D17*
Y3358126D02*
D03*
Y3140016D02*
D03*
D20*
X2647716Y3946890D02*
D03*
X2462716Y4386890D02*
D03*
X2452716Y4171890D02*
D03*
X3150116Y4349551D02*
D03*
X3229644D02*
D03*
X3309171D02*
D03*
X3388699D02*
D03*
X3039901Y4363026D02*
D03*
X2930965Y4358653D02*
D03*
X2962716Y4166890D02*
D03*
X2892716D02*
D03*
X2834208Y3972731D02*
D03*
X2922716Y3971890D02*
D03*
X2993729Y3987726D02*
D03*
X2730059Y3987803D02*
D03*
X2685892Y4358688D02*
D03*
X2730059Y4172803D02*
D03*
X2829901Y4363026D02*
D03*
X3034265Y3928397D02*
D03*
X3037589Y3848939D02*
D03*
X3038333Y3769415D02*
D03*
X3034265Y3689991D02*
D03*
X3211168Y3699551D02*
D03*
X3210326Y3779074D02*
D03*
X3201966Y3858161D02*
D03*
X3211622Y3937101D02*
D03*
Y4016628D02*
D03*
X3213295Y4096138D02*
D03*
X3234440Y4172803D02*
D03*
X3313968D02*
D03*
X3393495D02*
D03*
X2515642Y4349551D02*
D03*
X2456311Y4094837D02*
D03*
X2457414Y4015317D02*
D03*
Y3935789D02*
D03*
X2581460Y4348426D02*
D03*
X2306131Y3665698D02*
D03*
X2857716Y3711890D02*
D03*
X3445827Y2926890D02*
D03*
X3425827Y3416890D02*
D03*
X3410827Y3346890D02*
D03*
X3330827D02*
D03*
X2430827Y3046890D02*
D03*
X2495827Y3411890D02*
D03*
X2420827Y3446890D02*
D03*
X2518673Y3341631D02*
D03*
X2490827Y3146890D02*
D03*
X2545827Y3126890D02*
D03*
X2770827Y3046890D02*
D03*
X2545827Y3061890D02*
D03*
X2550827Y2986890D02*
D03*
X2775827Y2976890D02*
D03*
X3245827Y3041890D02*
D03*
X3434201Y3011432D02*
D03*
Y3090960D02*
D03*
X2985055Y3333048D02*
D03*
X2905863Y3340341D02*
D03*
X2853349Y3164619D02*
D03*
X2932644Y3170699D02*
D03*
X3011840Y3163438D02*
D03*
X2685827Y3356890D02*
D03*
X2600827Y3351890D02*
D03*
X2775827Y3106890D02*
D03*
X2774313Y3163438D02*
D03*
X2808468Y3339139D02*
D03*
X3247842Y3340795D02*
D03*
X3168314D02*
D03*
X3090218Y3325773D02*
D03*
X3087506Y3181927D02*
D03*
X3164855Y3163438D02*
D03*
X3244380Y3164047D02*
D03*
X3240827Y3106890D02*
D03*
D23*
X3122716Y3922280D02*
D03*
Y3810075D02*
D03*
Y3692280D02*
D03*
Y3580075D02*
D03*
X2547716Y3692280D02*
D03*
Y3580075D02*
D03*
Y3922280D02*
D03*
Y3810075D02*
D03*
X3345827Y3254055D02*
D03*
Y3141850D02*
D03*
Y3000682D02*
D03*
Y2888477D02*
D03*
X2662441Y3000682D02*
D03*
Y2888477D02*
D03*
Y3249210D02*
D03*
Y3137005D02*
D03*
D24*
X3124921Y4261177D02*
D03*
X3012716D02*
D03*
X3124921Y4076177D02*
D03*
X3012716D02*
D03*
X2892421D02*
D03*
X2780216D02*
D03*
X2892421Y4261177D02*
D03*
X2780216D02*
D03*
X2659921Y4076177D02*
D03*
X2547716D02*
D03*
X2659921Y4261177D02*
D03*
X2547716D02*
D03*
X3143032Y3251890D02*
D03*
X3030827D02*
D03*
X2886929D02*
D03*
X2774724D02*
D03*
%TF.MD5,f9d45fd1d28e435dc910a1843b956f77*%
M02*
