%TF.GenerationSoftware,Altium Limited,Altium Designer,20.0.10 (225)*%
G04 Layer_Color=0*
%FSLAX26Y26*%
%MOIN*%
%TF.FileFunction,Other,Mechanical_16*%
%TF.Part,CustomerPanel*%
G01*
G75*
%TA.AperFunction,NonConductor*%
%ADD27C,0.003937*%
D27*
X3628073Y3468563D02*
X3667443D01*
X3647758Y3488248D02*
Y3448878D01*
X1809176Y3468563D02*
X1848545D01*
X1828861Y3488248D02*
Y3448878D01*
X1948819Y1573244D02*
Y1612614D01*
X1929134Y1592929D02*
X1968504D01*
X130591Y1567008D02*
Y1606378D01*
X110906Y1586693D02*
X150276D01*
X1937008Y2602240D02*
Y2641610D01*
X1917323Y2621925D02*
X1956693D01*
X118110Y2602240D02*
Y2641610D01*
X98425Y2621925D02*
X137795D01*
X3659569Y2766626D02*
Y2805996D01*
X3639884Y2786311D02*
X3679254D01*
X1840929Y2766626D02*
Y2805996D01*
X1821244Y2786311D02*
X1860614D01*
X127953Y839783D02*
Y800413D01*
X108268Y820098D02*
X147638D01*
X1919291D02*
X1958661D01*
X1938976Y839783D02*
Y800413D01*
X1952362Y3476796D02*
Y3516166D01*
X1932677Y3496481D02*
X1972047D01*
X121654Y3476796D02*
Y3516166D01*
X101969Y3496481D02*
X141339D01*
%TF.MD5,7a1b588c3cf900b412cc7dbdc6557312*%
M02*
