%TF.GenerationSoftware,Altium Limited,Altium Designer,20.0.10 (225)*%
G04 Layer_Color=0*
%FSLAX26Y26*%
%MOIN*%
%TF.FileFunction,Profile,NP*%
%TF.Part,CustomerPanel*%
G01*
G75*
%TA.AperFunction,Profile*%
%ADD25C,0.001000*%
G36*
X2930000Y3416985D02*
X2928751D01*
X2926985Y3418751D01*
Y3421249D01*
X2928751Y3423015D01*
X2930000D01*
D01*
X3035000D01*
X3035600D01*
X3036708Y3422556D01*
X3037556Y3421708D01*
X3038015Y3420600D01*
Y3420000D01*
Y3419400D01*
X3037556Y3418292D01*
X3036708Y3417444D01*
X3035600Y3416985D01*
X3035000D01*
D01*
X2930000D01*
D02*
G37*
G36*
X2400000D02*
X2398751D01*
X2396985Y3418751D01*
Y3421249D01*
X2398751Y3423015D01*
X2400000D01*
D01*
X2810000D01*
X2810600D01*
X2811708Y3422556D01*
X2812556Y3421708D01*
X2813015Y3420600D01*
Y3420000D01*
Y3419400D01*
X2812556Y3418292D01*
X2811708Y3417444D01*
X2810600Y3416985D01*
X2810000D01*
D01*
X2400000D01*
D02*
G37*
G36*
X1930000D02*
X1928751D01*
X1926985Y3418751D01*
Y3421249D01*
X1928751Y3423015D01*
X1930000D01*
D01*
X2280000D01*
X2280600D01*
X2281708Y3422556D01*
X2282556Y3421708D01*
X2283015Y3420600D01*
Y3420000D01*
Y3419400D01*
X2282556Y3418292D01*
X2281708Y3417444D01*
X2280600Y3416985D01*
X2280000D01*
D01*
X1930000D01*
D02*
G37*
G36*
X1751929D02*
X1750680D01*
X1748914Y3418751D01*
Y3421249D01*
X1750680Y3423015D01*
X1751929D01*
D01*
X1810000D01*
X1810600D01*
X1811708Y3422556D01*
X1812556Y3421708D01*
X1813015Y3420600D01*
Y3420000D01*
Y3419400D01*
X1812556Y3418292D01*
X1811708Y3417444D01*
X1810600Y3416985D01*
X1810000D01*
D01*
X1751929D01*
D02*
G37*
G36*
Y2819850D02*
X1743793D01*
X1727661Y2821974D01*
X1711944Y2826185D01*
X1696912Y2832412D01*
X1682820Y2840548D01*
X1669911Y2850453D01*
X1658406Y2861959D01*
X1648500Y2874868D01*
X1640365Y2888959D01*
X1634138Y2903992D01*
X1629927Y2919709D01*
X1627803Y2935841D01*
Y2943976D01*
Y2945225D01*
X1629569Y2946991D01*
X1632067D01*
X1633833Y2945225D01*
Y2943976D01*
X1634086Y2936253D01*
X1636102Y2920937D01*
X1640100Y2906016D01*
X1646012Y2891744D01*
X1653736Y2878366D01*
X1663140Y2866110D01*
X1674063Y2855187D01*
X1686318Y2845783D01*
X1699696Y2838059D01*
X1713968Y2832148D01*
X1728890Y2828149D01*
X1744205Y2826133D01*
X1751929Y2825880D01*
X1752529D01*
X1753637Y2825421D01*
X1754485Y2824573D01*
X1754944Y2823465D01*
Y2822865D01*
Y2822265D01*
X1754485Y2821157D01*
X1753637Y2820309D01*
X1752529Y2819850D01*
X1751929D01*
D01*
D02*
G37*
G36*
X1627803Y2943976D02*
Y2942727D01*
X1629569Y2940961D01*
X1632067D01*
X1633833Y2942727D01*
Y2943976D01*
D01*
Y3296890D01*
Y3298139D01*
X1632067Y3299905D01*
X1629569D01*
X1627803Y3298139D01*
Y3296890D01*
D01*
Y2943976D01*
D02*
G37*
G36*
Y3296890D02*
Y3295641D01*
X1629569Y3293875D01*
X1632067D01*
X1633833Y3295641D01*
Y3296890D01*
X1634086Y3304614D01*
X1636102Y3319929D01*
X1640100Y3334851D01*
X1646012Y3349122D01*
X1653736Y3362501D01*
X1663140Y3374756D01*
X1674063Y3385679D01*
X1686318Y3395083D01*
X1699696Y3402807D01*
X1713968Y3408719D01*
X1728890Y3412717D01*
X1744205Y3414733D01*
X1751929Y3414986D01*
X1752529D01*
X1753637Y3415445D01*
X1754485Y3416293D01*
X1754944Y3417401D01*
Y3418001D01*
Y3418601D01*
X1754485Y3419709D01*
X1753637Y3420557D01*
X1752529Y3421016D01*
X1751929D01*
X1743793D01*
X1727661Y3418892D01*
X1711944Y3414681D01*
X1696912Y3408454D01*
X1682820Y3400318D01*
X1669911Y3390413D01*
X1658406Y3378907D01*
X1648500Y3365999D01*
X1640365Y3351907D01*
X1634138Y3336874D01*
X1629927Y3321157D01*
X1627803Y3305025D01*
Y3296890D01*
D01*
D02*
G37*
G36*
X1751893Y3419850D02*
X1743760Y3419853D01*
X1727633Y3421980D01*
X1711922Y3426193D01*
X1696896Y3432420D01*
X1682810Y3440555D01*
X1669906Y3450459D01*
X1658404Y3461961D01*
X1648502Y3474866D01*
X1640368Y3488952D01*
X1634142Y3503980D01*
X1629930Y3519691D01*
X1627805Y3535818D01*
X1627803Y3543951D01*
X1627803Y3545200D01*
X1629569Y3546966D01*
X1632066Y3546967D01*
X1633833Y3545201D01*
X1633833Y3543952D01*
X1634087Y3536231D01*
X1636105Y3520921D01*
X1640104Y3506004D01*
X1646015Y3491738D01*
X1653737Y3478364D01*
X1663138Y3466112D01*
X1674057Y3455192D01*
X1686308Y3445790D01*
X1699681Y3438067D01*
X1713947Y3432155D01*
X1728863Y3428155D01*
X1744174Y3426135D01*
X1751895Y3425880D01*
X1752494Y3425880D01*
X1753602Y3425421D01*
X1754450Y3424573D01*
X1754909Y3423465D01*
Y3422865D01*
Y3422265D01*
X1754450Y3421157D01*
X1753601Y3420309D01*
X1752493Y3419850D01*
X1751893Y3419850D01*
D01*
D02*
G37*
G36*
X1627803Y4193858D02*
Y4192609D01*
X1629569Y4190843D01*
X1632067D01*
X1633833Y4192609D01*
Y4193858D01*
X1634086Y4201582D01*
X1636102Y4216898D01*
X1640100Y4231819D01*
X1646012Y4246091D01*
X1653736Y4259469D01*
X1663140Y4271725D01*
X1674063Y4282648D01*
X1686318Y4292052D01*
X1699696Y4299776D01*
X1713968Y4305687D01*
X1728890Y4309685D01*
X1744205Y4311702D01*
X1751929Y4311955D01*
X1752529D01*
X1753637Y4312414D01*
X1754485Y4313262D01*
X1754944Y4314370D01*
Y4314970D01*
Y4315569D01*
X1754485Y4316677D01*
X1753637Y4317525D01*
X1752529Y4317985D01*
X1751929D01*
X1743793D01*
X1727661Y4315861D01*
X1711944Y4311649D01*
X1696912Y4305423D01*
X1682820Y4297287D01*
X1669911Y4287382D01*
X1658406Y4275876D01*
X1648500Y4262967D01*
X1640365Y4248876D01*
X1634138Y4233843D01*
X1629927Y4218126D01*
X1627803Y4201994D01*
Y4193858D01*
D01*
D02*
G37*
G36*
Y3543977D02*
Y3542728D01*
X1629569Y3540961D01*
X1632067D01*
X1633833Y3542728D01*
Y3543977D01*
D01*
Y4193858D01*
Y4195107D01*
X1632067Y4196873D01*
X1629569D01*
X1627803Y4195107D01*
Y4193858D01*
D01*
Y3543977D01*
D02*
G37*
G36*
X1627803Y3543952D02*
D01*
Y3543952D01*
Y3543952D01*
Y3543952D01*
Y3543952D01*
D02*
G37*
G36*
X3035000Y2819850D02*
X3033751D01*
X3031985Y2821616D01*
Y2824114D01*
X3033751Y2825880D01*
X3035000D01*
X3042724Y2826133D01*
X3058039Y2828149D01*
X3072961Y2832148D01*
X3087233Y2838059D01*
X3100611Y2845783D01*
X3112866Y2855187D01*
X3123789Y2866110D01*
X3133193Y2878366D01*
X3140917Y2891744D01*
X3146829Y2906016D01*
X3150827Y2920937D01*
X3152843Y2936253D01*
X3153096Y2943976D01*
D01*
Y3296890D01*
X3152843Y3304614D01*
X3150827Y3319929D01*
X3146829Y3334851D01*
X3140917Y3349122D01*
X3133193Y3362501D01*
X3123789Y3374756D01*
X3112866Y3385679D01*
X3100611Y3395083D01*
X3087233Y3402807D01*
X3072961Y3408719D01*
X3058039Y3412717D01*
X3042724Y3414733D01*
X3035000Y3414986D01*
X3034020D01*
X3032434Y3416139D01*
X3031830Y3418003D01*
X3032437Y3419867D01*
X3033231Y3420442D01*
D01*
X3032446Y3421023D01*
X3031856Y3422883D01*
X3032467Y3424736D01*
X3034048Y3425880D01*
X3035024Y3425880D01*
X3042747Y3426135D01*
X3058060Y3428154D01*
X3072979Y3432154D01*
X3087248Y3438067D01*
X3100623Y3445791D01*
X3112876Y3455196D01*
X3123797Y3466119D01*
X3133198Y3478373D01*
X3140920Y3491750D01*
X3146830Y3506020D01*
X3150828Y3520940D01*
X3152843Y3536254D01*
X3153096Y3543977D01*
D01*
Y4193858D01*
X3152843Y4201582D01*
X3150827Y4216898D01*
X3146829Y4231819D01*
X3140917Y4246091D01*
X3133193Y4259469D01*
X3123789Y4271725D01*
X3112866Y4282648D01*
X3100611Y4292052D01*
X3087233Y4299775D01*
X3072961Y4305687D01*
X3058040Y4309685D01*
X3042724Y4311702D01*
X3035000Y4311954D01*
X3034997D01*
X3034991D01*
X3034985D01*
X3034979D01*
X3034976D01*
D01*
X1751954D01*
X1750705D01*
X1748939Y4313721D01*
Y4316218D01*
X1750705Y4317984D01*
X1751954D01*
D01*
X3034975D01*
X3034979D01*
X3034985D01*
X3034991D01*
X3034997Y4317985D01*
X3035000D01*
X3043136D01*
X3059268Y4315861D01*
X3074985Y4311649D01*
X3090017Y4305423D01*
X3104109Y4297287D01*
X3117018Y4287382D01*
X3128523Y4275876D01*
X3138429Y4262967D01*
X3146564Y4248876D01*
X3152791Y4233843D01*
X3157002Y4218126D01*
X3159126Y4201994D01*
Y4193858D01*
D01*
Y3543977D01*
Y3536344D01*
X3157256Y3521195D01*
X3153544Y3506389D01*
X3148046Y3492148D01*
X3140845Y3478689D01*
X3132049Y3466214D01*
X3121791Y3454910D01*
X3110226Y3444948D01*
X3097527Y3436478D01*
X3083886Y3429627D01*
X3069508Y3424500D01*
X3054611Y3421172D01*
X3047015Y3420433D01*
X3054611Y3419694D01*
X3069508Y3416367D01*
X3083886Y3411239D01*
X3097527Y3404388D01*
X3110226Y3395918D01*
X3121791Y3385956D01*
X3132049Y3374652D01*
X3140845Y3362177D01*
X3148046Y3348718D01*
X3153544Y3334478D01*
X3157256Y3319671D01*
X3159126Y3304522D01*
Y3296890D01*
D01*
Y2943976D01*
Y2935841D01*
X3157002Y2919709D01*
X3152791Y2903992D01*
X3146564Y2888959D01*
X3138429Y2874868D01*
X3128523Y2861959D01*
X3117018Y2850453D01*
X3104109Y2840548D01*
X3090017Y2832412D01*
X3074985Y2826185D01*
X3059268Y2821974D01*
X3043136Y2819850D01*
X3035000D01*
D01*
D02*
G37*
G36*
X1751929D02*
X1750680D01*
X1748914Y2821616D01*
Y2824114D01*
X1750680Y2825880D01*
X1751929D01*
D01*
X3035000D01*
X3035600D01*
X3036708Y2825421D01*
X3037556Y2824573D01*
X3038015Y2823465D01*
Y2822865D01*
Y2822265D01*
X3037556Y2821157D01*
X3036708Y2820309D01*
X3035600Y2819850D01*
X3035000D01*
D01*
X1751929D01*
D02*
G37*
D25*
X1627803Y2943976D02*
Y3296890D01*
D02*
G02*
X1739915Y3420433I124126J0D01*
G01*
D02*
G02*
X1627803Y3543941I12014J123543D01*
G01*
D02*
G03*
X1627803Y3543927I6016J36D01*
G01*
D02*
G02*
X1627803Y3543951I3015J25D01*
G01*
D02*
G02*
X1627803Y3543952I3015J1D01*
G01*
D02*
G02*
X1627803Y3543977I3015J-0D01*
G01*
X1627803D01*
D02*
G03*
X1627803Y3543952I124126J0D01*
G01*
D02*
G02*
X1627803Y3543952I3015J25D01*
G01*
D02*
G02*
X1627803Y3543977I3015J25D01*
G01*
Y4193858D01*
D02*
G02*
X1751929Y4317985I124126J0D01*
G01*
D02*
G02*
X1751954Y4317985I0J-6016D01*
G01*
D02*
G02*
X1751964Y4317984I-24J-6016D01*
G01*
D02*
G02*
X1751978Y4317984I-35J-6016D01*
G01*
D02*
G03*
X1751954Y4317984I-25J-3015D01*
G01*
D02*
G03*
X1751954Y4317984I-0J-3015D01*
G01*
D02*
G02*
X1751954Y4317984I-24J-3015D01*
G01*
X1751954D01*
D02*
G03*
X1751929Y4317985I-24J-3015D01*
G01*
Y4317984D01*
X3035000D01*
Y4317985D01*
D02*
G03*
X3034976Y4317985I0J-6016D01*
G01*
D02*
G03*
X3034965Y4317984I24J-6016D01*
G01*
D02*
G03*
X3034951Y4317984I35J-6016D01*
G01*
D02*
G02*
X3034975Y4317984I25J-3015D01*
G01*
D02*
G02*
X3034976Y4317984I25J-3015D01*
G01*
D02*
G02*
X3035000Y4317985I24J-3015D01*
G01*
D02*
G02*
X3159126Y4193858I0J-124126D01*
G01*
Y3543977D01*
D02*
G02*
X3047015Y3420433I-124126J0D01*
G01*
D02*
G02*
X3159126Y3296890I-12015J-123543D01*
G01*
Y2943976D01*
D02*
G02*
X3035000Y2819850I-124126J0D01*
G01*
X1751929D01*
D02*
G02*
X1627803Y2943976I0J124126D01*
G01*
%TF.MD5,e04598596869bcd853a78f0997b9c5e3*%
M02*
