%TF.GenerationSoftware,Altium Limited,Altium Designer,20.0.10 (225)*%
G04 Layer_Physical_Order=2*
G04 Layer_Color=16711680*
%FSLAX26Y26*%
%MOIN*%
%TF.FileFunction,Copper,L2,Bot,Signal*%
%TF.Part,CustomerPanel*%
G01*
G75*
%TA.AperFunction,SMDPad,CuDef*%
%ADD12R,0.196850X0.062992*%
%TA.AperFunction,ConnectorPad*%
%ADD17R,0.196850X0.062992*%
%TA.AperFunction,ViaPad*%
%ADD20C,0.050000*%
G36*
X1699863Y3758097D02*
X1714818Y3754090D01*
X1729122Y3748165D01*
X1742531Y3740424D01*
X1754814Y3730998D01*
X1765762Y3720050D01*
X1775187Y3707767D01*
X1782929Y3694359D01*
X1788854Y3680055D01*
X1792861Y3665099D01*
X1794882Y3649749D01*
Y3642008D01*
Y2992126D01*
Y2984385D01*
X1792861Y2969035D01*
X1788854Y2954079D01*
X1782929Y2939775D01*
X1775187Y2926367D01*
X1765762Y2914084D01*
X1754814Y2903136D01*
X1742531Y2893710D01*
X1729122Y2885969D01*
X1714818Y2880044D01*
X1699863Y2876037D01*
X1684513Y2874016D01*
X1676772D01*
Y2874016D01*
X393701D01*
Y2874016D01*
X385959D01*
X370609Y2876037D01*
X355654Y2880044D01*
X341350Y2885969D01*
X327942Y2893710D01*
X315658Y2903136D01*
X304710Y2914084D01*
X295285Y2926367D01*
X287544Y2939775D01*
X281619Y2954079D01*
X277611Y2969035D01*
X275591Y2984385D01*
Y2992126D01*
X275591D01*
Y3642008D01*
Y3649749D01*
X277611Y3665099D01*
X281619Y3680055D01*
X287544Y3694359D01*
X295285Y3707767D01*
X304710Y3720050D01*
X315658Y3730998D01*
X327941Y3740424D01*
X341350Y3748165D01*
X355654Y3754090D01*
X370609Y3758097D01*
X385959Y3760118D01*
X393701D01*
Y3760118D01*
X1676772D01*
X1684513Y3760118D01*
X1699863Y3758097D01*
D02*
G37*
G36*
X3410613Y3758097D02*
X3425569Y3754090D01*
X3439873Y3748165D01*
X3453281Y3740424D01*
X3465564Y3730999D01*
X3476512Y3720051D01*
X3485938Y3707767D01*
X3493679Y3694359D01*
X3499604Y3680055D01*
X3503611Y3665100D01*
X3505632Y3649749D01*
Y3161826D01*
X3503611Y3146476D01*
X3499604Y3131520D01*
X3493679Y3117216D01*
X3485938Y3103808D01*
X3476512Y3091524D01*
X3465564Y3080577D01*
X3453281Y3071151D01*
X3439873Y3063410D01*
X3425569Y3057485D01*
X3410613Y3053478D01*
X3395263Y3051457D01*
X2096710D01*
X2081359Y3053478D01*
X2066404Y3057485D01*
X2052100Y3063410D01*
X2038692Y3071151D01*
X2026408Y3080577D01*
X2015460Y3091524D01*
X2006035Y3103808D01*
X1998294Y3117216D01*
X1992369Y3131520D01*
X1988362Y3146476D01*
X1986341Y3161826D01*
Y3649749D01*
X1988362Y3665100D01*
X1992369Y3680055D01*
X1998294Y3694359D01*
X2006035Y3707767D01*
X2015460Y3720051D01*
X2026408Y3730999D01*
X2038692Y3740424D01*
X2052100Y3748165D01*
X2066404Y3754090D01*
X2081359Y3758097D01*
X2096710Y3760118D01*
X3395263D01*
X3410613Y3758097D01*
D02*
G37*
G36*
X1699863Y2845617D02*
X1714818Y2841610D01*
X1729122Y2835685D01*
X1742531Y2827943D01*
X1754814Y2818518D01*
X1765762Y2807570D01*
X1775187Y2795287D01*
X1782929Y2781878D01*
X1788854Y2767574D01*
X1792861Y2752619D01*
X1794882Y2737269D01*
Y2729528D01*
Y2003858D01*
Y1996117D01*
X1792861Y1980767D01*
X1788854Y1965811D01*
X1782929Y1951507D01*
X1775187Y1938099D01*
X1765762Y1925816D01*
X1754814Y1914868D01*
X1742531Y1905442D01*
X1729122Y1897701D01*
X1714818Y1891776D01*
X1699863Y1887769D01*
X1684513Y1885748D01*
X1676772D01*
Y1885748D01*
X393701Y1885748D01*
X385959D01*
X370609Y1887769D01*
X355654Y1891776D01*
X341350Y1897701D01*
X327941Y1905442D01*
X315658Y1914868D01*
X304710Y1925816D01*
X295285Y1938099D01*
X287544Y1951507D01*
X281619Y1965811D01*
X277611Y1980767D01*
X275591Y1996117D01*
Y2003858D01*
Y2003858D01*
Y2729528D01*
Y2737269D01*
X277611Y2752619D01*
X281619Y2767574D01*
X287544Y2781878D01*
X295285Y2795287D01*
X304710Y2807570D01*
X315658Y2818518D01*
X327941Y2827943D01*
X341350Y2835685D01*
X355654Y2841610D01*
X370609Y2845617D01*
X385959Y2847638D01*
X393701D01*
Y2847638D01*
X1676772Y2847638D01*
X1684513D01*
X1699863Y2845617D01*
D02*
G37*
G36*
X3410613Y3031719D02*
X3425569Y3027712D01*
X3439873Y3021787D01*
X3453281Y3014046D01*
X3465564Y3004620D01*
X3476512Y2993673D01*
X3485938Y2981389D01*
X3493679Y2967981D01*
X3499604Y2953677D01*
X3503611Y2938722D01*
X3505632Y2923371D01*
Y2915630D01*
Y2562717D01*
Y2554975D01*
X3503611Y2539625D01*
X3499604Y2524670D01*
X3493679Y2510366D01*
X3485938Y2496957D01*
X3476512Y2484674D01*
X3465564Y2473726D01*
X3453281Y2464301D01*
X3439873Y2456559D01*
X3425569Y2450635D01*
X3410613Y2446627D01*
X3395263Y2444606D01*
X2096710D01*
X2081359Y2446627D01*
X2066404Y2450635D01*
X2052100Y2456559D01*
X2038692Y2464301D01*
X2026408Y2473726D01*
X2015460Y2484674D01*
X2006035Y2496957D01*
X1998294Y2510366D01*
X1992369Y2524670D01*
X1988362Y2539625D01*
X1986341Y2554975D01*
Y2562717D01*
Y2915630D01*
Y2923371D01*
X1988362Y2938722D01*
X1992369Y2953677D01*
X1998294Y2967981D01*
X2006035Y2981389D01*
X2015460Y2993673D01*
X2026408Y3004620D01*
X2038692Y3014046D01*
X2052100Y3021787D01*
X2066404Y3027712D01*
X2081359Y3031719D01*
X2096710Y3033740D01*
X3395263D01*
X3410613Y3031719D01*
D02*
G37*
G36*
X1699863Y1858727D02*
X1714818Y1854720D01*
X1729122Y1848795D01*
X1742531Y1841054D01*
X1754814Y1831628D01*
X1765762Y1820680D01*
X1775187Y1808397D01*
X1782929Y1794989D01*
X1788854Y1780685D01*
X1792861Y1765729D01*
X1794882Y1750379D01*
Y1742638D01*
Y1223858D01*
Y1216117D01*
X1792861Y1200767D01*
X1788854Y1185812D01*
X1782929Y1171507D01*
X1775187Y1158099D01*
X1765762Y1145816D01*
X1754814Y1134868D01*
X1742531Y1125443D01*
X1729122Y1117701D01*
X1714818Y1111776D01*
X1699863Y1107769D01*
X1684513Y1105748D01*
X1676772Y1105748D01*
X393701Y1105748D01*
X385959D01*
X370609Y1107769D01*
X355654Y1111776D01*
X341350Y1117701D01*
X327942Y1125443D01*
X315658Y1134868D01*
X304710Y1145816D01*
X295285Y1158099D01*
X287544Y1171507D01*
X281619Y1185812D01*
X277611Y1200767D01*
X275591Y1216117D01*
Y1223858D01*
X275591Y1742638D01*
X275591D01*
Y1750379D01*
X277611Y1765729D01*
X281619Y1780685D01*
X287544Y1794989D01*
X295285Y1808397D01*
X304710Y1820680D01*
X315658Y1831628D01*
X327942Y1841054D01*
X341350Y1848795D01*
X355654Y1854720D01*
X370609Y1858727D01*
X385959Y1860748D01*
X393701Y1860748D01*
X1676772Y1860748D01*
X1684513D01*
X1699863Y1858727D01*
D02*
G37*
G36*
X3499299Y2408417D02*
X3528229Y2375399D01*
X3554480Y2340213D01*
X3577890Y2303076D01*
X3598313Y2264216D01*
X3615625Y2223874D01*
X3629718Y2182298D01*
X3640506Y2139745D01*
X3647921Y2096476D01*
X3651919Y2052759D01*
X3652475Y2008863D01*
X3649585Y1965059D01*
X3643267Y1921616D01*
X3633560Y1878803D01*
X3620523Y1836884D01*
X3604238Y1796117D01*
X3584805Y1756753D01*
X3562343Y1719035D01*
X3536991Y1683196D01*
X3508906Y1649456D01*
X3496832Y1637073D01*
X3493582Y1633740D01*
Y1633740D01*
X3493582Y1633740D01*
X2155000Y1633740D01*
X2139284Y1649063D01*
X2110353Y1682081D01*
X2084102Y1717267D01*
X2060693Y1754404D01*
X2040269Y1793264D01*
X2022958Y1833606D01*
X2008865Y1875182D01*
X1998077Y1917735D01*
X1990661Y1961004D01*
X1986663Y2004721D01*
X1986108Y2048617D01*
X1988998Y2092421D01*
X1995316Y2135864D01*
X2005023Y2178677D01*
X2018059Y2220596D01*
X2034344Y2261363D01*
X2053777Y2300727D01*
X2076239Y2338445D01*
X2101591Y2374285D01*
X2129677Y2408024D01*
X2145000Y2423740D01*
X3483583D01*
X3499299Y2408417D01*
D02*
G37*
G36*
X1699863Y1073727D02*
X1714818Y1069720D01*
X1729122Y1063795D01*
X1742531Y1056054D01*
X1754814Y1046628D01*
X1765762Y1035680D01*
X1775187Y1023397D01*
X1782929Y1009989D01*
X1788854Y995685D01*
X1792861Y980730D01*
X1794882Y965379D01*
Y306117D01*
X1792861Y290767D01*
X1788854Y275812D01*
X1782929Y261507D01*
X1775187Y248099D01*
X1765762Y235816D01*
X1754814Y224868D01*
X1742531Y215442D01*
X1729122Y207701D01*
X1714818Y201776D01*
X1699863Y197769D01*
X1684513Y195748D01*
X1676772D01*
Y195748D01*
X393701Y195748D01*
X385959Y195748D01*
X370609Y197769D01*
X355654Y201776D01*
X341350Y207701D01*
X327941Y215442D01*
X315658Y224868D01*
X304710Y235816D01*
X295285Y248099D01*
X287544Y261507D01*
X281619Y275811D01*
X277611Y290767D01*
X275591Y306117D01*
Y965379D01*
X277611Y980729D01*
X281619Y995685D01*
X287544Y1009989D01*
X295285Y1023397D01*
X304710Y1035680D01*
X315658Y1046628D01*
X327941Y1056054D01*
X341350Y1063795D01*
X355654Y1069720D01*
X370609Y1073727D01*
X385959Y1075748D01*
X393701D01*
Y1075748D01*
X1676772Y1075748D01*
X1684513Y1075748D01*
X1699863Y1073727D01*
D02*
G37*
G36*
X3485976Y1598740D02*
X3485976Y1598740D01*
X3485976D01*
X3501610Y1583324D01*
X3530361Y1550132D01*
X3556421Y1514788D01*
X3579626Y1477508D01*
X3599835Y1438522D01*
X3616923Y1398070D01*
X3630785Y1356403D01*
X3641334Y1313776D01*
X3648507Y1270453D01*
X3652259Y1226701D01*
X3652566Y1182789D01*
X3649427Y1138989D01*
X3642861Y1095570D01*
X3632909Y1052800D01*
X3619631Y1010943D01*
X3603111Y970256D01*
X3583449Y930991D01*
X3560767Y893390D01*
X3535205Y857684D01*
X3506920Y824094D01*
X3491504Y808461D01*
X2152928D01*
X2137295Y823877D01*
X2108543Y857068D01*
X2082484Y892413D01*
X2059278Y929693D01*
X2039069Y968679D01*
X2021981Y1009131D01*
X2008120Y1050798D01*
X1997570Y1093425D01*
X1990397Y1136748D01*
X1986646Y1180500D01*
X1986339Y1224411D01*
X1989478Y1268212D01*
X1996044Y1311631D01*
X2005996Y1354400D01*
X2019273Y1396258D01*
X2035794Y1436944D01*
X2055455Y1476209D01*
X2078137Y1513811D01*
X2103699Y1549516D01*
X2131984Y1583106D01*
X2147401Y1598740D01*
X3485976Y1598740D01*
D02*
G37*
G36*
X3099955Y788700D02*
X3099955Y788701D01*
X3099955D01*
X3109622Y779033D01*
X3126269Y757339D01*
X3139941Y733659D01*
X3150405Y708396D01*
X3157482Y681983D01*
X3161051Y654873D01*
Y627529D01*
X3157482Y600418D01*
X3150405Y574006D01*
X3139941Y548743D01*
X3126269Y525062D01*
X3109622Y503368D01*
X3099955Y493701D01*
X2167396D01*
X2157728Y503368D01*
X2141082Y525062D01*
X2127410Y548743D01*
X2116945Y574006D01*
X2109868Y600418D01*
X2106299Y627529D01*
Y654873D01*
X2109868Y681983D01*
X2116945Y708396D01*
X2127410Y733659D01*
X2141082Y757339D01*
X2157728Y779033D01*
X2167396Y788701D01*
X3095269Y788701D01*
X3099955Y788700D01*
D02*
G37*
G36*
Y473740D02*
X3099955Y473740D01*
X3099955D01*
X3109622Y464072D01*
X3126269Y442379D01*
X3139941Y418698D01*
X3150405Y393435D01*
X3157482Y367023D01*
X3161051Y339912D01*
Y312568D01*
X3157482Y285458D01*
X3150405Y259045D01*
X3139941Y233782D01*
X3126269Y210101D01*
X3109622Y188408D01*
X3099955Y178740D01*
X2167396D01*
X2157728Y188408D01*
X2141082Y210101D01*
X2127410Y233782D01*
X2116945Y259045D01*
X2109868Y285458D01*
X2106299Y312568D01*
Y339912D01*
X2109868Y367023D01*
X2116945Y393435D01*
X2127410Y418698D01*
X2141082Y442379D01*
X2157728Y464072D01*
X2167396Y473740D01*
X3095269Y473740D01*
X3099955Y473740D01*
D02*
G37*
%LPC*%
G36*
X515906Y3647032D02*
X412481D01*
Y3610536D01*
X515906D01*
Y3647032D01*
D02*
G37*
G36*
X402481D02*
X299055D01*
Y3610536D01*
X402481D01*
Y3647032D01*
D02*
G37*
G36*
X1774961D02*
X1671535D01*
Y3610536D01*
X1774961D01*
Y3647032D01*
D02*
G37*
G36*
X1661535D02*
X1558110D01*
Y3610536D01*
X1661535D01*
Y3647032D01*
D02*
G37*
G36*
X1774961Y3600536D02*
X1671535D01*
Y3564040D01*
X1774961D01*
Y3600536D01*
D02*
G37*
G36*
X1661535D02*
X1558110D01*
Y3564040D01*
X1661535D01*
Y3600536D01*
D02*
G37*
G36*
X515906Y3600536D02*
X412481D01*
Y3564040D01*
X515906D01*
Y3600536D01*
D02*
G37*
G36*
X402481D02*
X299055D01*
Y3564040D01*
X402481D01*
Y3600536D01*
D02*
G37*
G36*
X1515591Y3432144D02*
Y3402500D01*
X1545234D01*
X1544690Y3406637D01*
X1541163Y3415151D01*
X1535553Y3422463D01*
X1528242Y3428073D01*
X1519727Y3431599D01*
X1515591Y3432144D01*
D02*
G37*
G36*
X1505591D02*
X1501454Y3431599D01*
X1492940Y3428073D01*
X1485628Y3422463D01*
X1480018Y3415151D01*
X1476492Y3406637D01*
X1475947Y3402500D01*
X1505591D01*
Y3432144D01*
D02*
G37*
G36*
X515906Y3428921D02*
X412480D01*
Y3392425D01*
X515906D01*
Y3428921D01*
D02*
G37*
G36*
X402480D02*
X299055D01*
Y3392425D01*
X402480D01*
Y3428921D01*
D02*
G37*
G36*
X1774961D02*
X1671535D01*
Y3392425D01*
X1774961D01*
Y3428921D01*
D02*
G37*
G36*
X1661535D02*
X1558110D01*
Y3392425D01*
X1661535D01*
Y3428921D01*
D02*
G37*
G36*
X1545234Y3392500D02*
X1515591D01*
Y3362856D01*
X1519727Y3363401D01*
X1528242Y3366928D01*
X1535553Y3372538D01*
X1541163Y3379849D01*
X1544690Y3388363D01*
X1545234Y3392500D01*
D02*
G37*
G36*
X1505591D02*
X1475947D01*
X1476492Y3388363D01*
X1480018Y3379849D01*
X1485628Y3372538D01*
X1492940Y3366928D01*
X1501454Y3363401D01*
X1505591Y3362856D01*
Y3392500D01*
D02*
G37*
G36*
X1774961Y3382425D02*
X1671535D01*
Y3345929D01*
X1774961D01*
Y3382425D01*
D02*
G37*
G36*
X1661535D02*
X1558110D01*
Y3345929D01*
X1661535D01*
Y3382425D01*
D02*
G37*
G36*
X515906Y3382425D02*
X412480D01*
Y3345929D01*
X515906D01*
Y3382425D01*
D02*
G37*
G36*
X402480D02*
X299055D01*
Y3345929D01*
X402480D01*
Y3382425D01*
D02*
G37*
G36*
X2223113Y3619114D02*
X2119687D01*
Y3582619D01*
X2223113D01*
Y3619114D01*
D02*
G37*
G36*
X2109687D02*
X2006262D01*
Y3582619D01*
X2109687D01*
Y3619114D01*
D02*
G37*
G36*
X3470356D02*
X3366931D01*
Y3582618D01*
X3470356D01*
Y3619114D01*
D02*
G37*
G36*
X3356931D02*
X3253506D01*
Y3582618D01*
X3356931D01*
Y3619114D01*
D02*
G37*
G36*
X3470356Y3572618D02*
X3366931D01*
Y3536122D01*
X3470356D01*
Y3572618D01*
D02*
G37*
G36*
X3356931D02*
X3253506D01*
Y3536122D01*
X3356931D01*
Y3572618D01*
D02*
G37*
G36*
X2223113Y3572619D02*
X2119687D01*
Y3536122D01*
X2223113D01*
Y3572619D01*
D02*
G37*
G36*
X2109687D02*
X2006262D01*
Y3536122D01*
X2109687D01*
Y3572619D01*
D02*
G37*
G36*
X3470356Y3401004D02*
X3366931D01*
Y3364508D01*
X3470356D01*
Y3401004D01*
D02*
G37*
G36*
X3356931D02*
X3253506D01*
Y3364508D01*
X3356931D01*
Y3401004D01*
D02*
G37*
G36*
X2223113D02*
X2119687D01*
Y3364508D01*
X2223113D01*
Y3401004D01*
D02*
G37*
G36*
X2109687D02*
X2006262D01*
Y3364508D01*
X2109687D01*
Y3401004D01*
D02*
G37*
G36*
X3470356Y3354508D02*
X3366931D01*
Y3318012D01*
X3470356D01*
Y3354508D01*
D02*
G37*
G36*
X3356931D02*
X3253506D01*
Y3318012D01*
X3356931D01*
Y3354508D01*
D02*
G37*
G36*
X2223113Y3354508D02*
X2119687D01*
Y3318012D01*
X2223113D01*
Y3354508D01*
D02*
G37*
G36*
X2109687D02*
X2006262D01*
Y3318012D01*
X2109687D01*
Y3354508D01*
D02*
G37*
G36*
X1759606Y2772476D02*
X1656181D01*
Y2735980D01*
X1759606D01*
Y2772476D01*
D02*
G37*
G36*
X1646181D02*
X1542756D01*
Y2735980D01*
X1646181D01*
Y2772476D01*
D02*
G37*
G36*
X512362D02*
X408937D01*
Y2735980D01*
X512362D01*
Y2772476D01*
D02*
G37*
G36*
X398937D02*
X295512D01*
Y2735980D01*
X398937D01*
Y2772476D01*
D02*
G37*
G36*
X1759606Y2725980D02*
X1656181D01*
Y2689484D01*
X1759606D01*
Y2725980D01*
D02*
G37*
G36*
X1646181D02*
X1542756D01*
Y2689484D01*
X1646181D01*
Y2725980D01*
D02*
G37*
G36*
X512362Y2725980D02*
X408937D01*
Y2689484D01*
X512362D01*
Y2725980D01*
D02*
G37*
G36*
X398937D02*
X295512D01*
Y2689484D01*
X398937D01*
Y2725980D01*
D02*
G37*
G36*
X1759606Y2554366D02*
X1656181D01*
Y2517870D01*
X1759606D01*
Y2554366D01*
D02*
G37*
G36*
X1646181D02*
X1542756D01*
Y2517870D01*
X1646181D01*
Y2554366D01*
D02*
G37*
G36*
X512362D02*
X408937D01*
Y2517870D01*
X512362D01*
Y2554366D01*
D02*
G37*
G36*
X398937D02*
X295512D01*
Y2517870D01*
X398937D01*
Y2554366D01*
D02*
G37*
G36*
X1759606Y2507870D02*
X1656181D01*
Y2471374D01*
X1759606D01*
Y2507870D01*
D02*
G37*
G36*
X1646181D02*
X1542756D01*
Y2471374D01*
X1646181D01*
Y2507870D01*
D02*
G37*
G36*
X512362Y2507870D02*
X408937D01*
Y2471374D01*
X512362D01*
Y2507870D01*
D02*
G37*
G36*
X398937D02*
X295512D01*
Y2471374D01*
X398937D01*
Y2507870D01*
D02*
G37*
G36*
X2235181Y2936862D02*
X2131756D01*
Y2900366D01*
X2235181D01*
Y2936862D01*
D02*
G37*
G36*
X2121756D02*
X2018331D01*
Y2900366D01*
X2121756D01*
Y2936862D01*
D02*
G37*
G36*
X3482168D02*
X3378742D01*
Y2900366D01*
X3482168D01*
Y2936862D01*
D02*
G37*
G36*
X3368742D02*
X3265317D01*
Y2900366D01*
X3368742D01*
Y2936862D01*
D02*
G37*
G36*
X3482168Y2890366D02*
X3378742D01*
Y2853870D01*
X3482168D01*
Y2890366D01*
D02*
G37*
G36*
X3368742D02*
X3265317D01*
Y2853870D01*
X3368742D01*
Y2890366D01*
D02*
G37*
G36*
X2235181Y2890366D02*
X2131756D01*
Y2853870D01*
X2235181D01*
Y2890366D01*
D02*
G37*
G36*
X2121756D02*
X2018331D01*
Y2853870D01*
X2121756D01*
Y2890366D01*
D02*
G37*
G36*
X2235181Y2718752D02*
X2131756D01*
Y2682256D01*
X2235181D01*
Y2718752D01*
D02*
G37*
G36*
X2121756D02*
X2018331D01*
Y2682256D01*
X2121756D01*
Y2718752D01*
D02*
G37*
G36*
X3482168D02*
X3378742D01*
Y2682256D01*
X3482168D01*
Y2718752D01*
D02*
G37*
G36*
X3368742D02*
X3265317D01*
Y2682256D01*
X3368742D01*
Y2718752D01*
D02*
G37*
G36*
X3482168Y2672256D02*
X3378742D01*
Y2635760D01*
X3482168D01*
Y2672256D01*
D02*
G37*
G36*
X3368742D02*
X3265317D01*
Y2635760D01*
X3368742D01*
Y2672256D01*
D02*
G37*
G36*
X2235181Y2672256D02*
X2131756D01*
Y2635760D01*
X2235181D01*
Y2672256D01*
D02*
G37*
G36*
X2121756D02*
X2018331D01*
Y2635760D01*
X2121756D01*
Y2672256D01*
D02*
G37*
G36*
X1771417Y1743480D02*
X1667992D01*
Y1706984D01*
X1771417D01*
Y1743480D01*
D02*
G37*
G36*
X1657992D02*
X1554567D01*
Y1706984D01*
X1657992D01*
Y1743480D01*
D02*
G37*
G36*
X524843Y1737244D02*
X421417D01*
Y1700748D01*
X524843D01*
Y1737244D01*
D02*
G37*
G36*
X411417D02*
X307992D01*
Y1700748D01*
X411417D01*
Y1737244D01*
D02*
G37*
G36*
X1771417Y1696984D02*
X1667992D01*
Y1660488D01*
X1771417D01*
Y1696984D01*
D02*
G37*
G36*
X1657992D02*
X1554567D01*
Y1660488D01*
X1657992D01*
Y1696984D01*
D02*
G37*
G36*
X524843Y1690748D02*
X421417D01*
Y1654252D01*
X524843D01*
Y1690748D01*
D02*
G37*
G36*
X411417D02*
X307992D01*
Y1654252D01*
X411417D01*
Y1690748D01*
D02*
G37*
G36*
X1771417Y1525370D02*
X1667992D01*
Y1488874D01*
X1771417D01*
Y1525370D01*
D02*
G37*
G36*
X1657992D02*
X1554567D01*
Y1488874D01*
X1657992D01*
Y1525370D01*
D02*
G37*
G36*
X524843Y1519134D02*
X421417D01*
Y1482638D01*
X524843D01*
Y1519134D01*
D02*
G37*
G36*
X411417D02*
X307992D01*
Y1482638D01*
X411417D01*
Y1519134D01*
D02*
G37*
G36*
X1771417Y1478874D02*
X1667992D01*
Y1442378D01*
X1771417D01*
Y1478874D01*
D02*
G37*
G36*
X1657992D02*
X1554567D01*
Y1442378D01*
X1657992D01*
Y1478874D01*
D02*
G37*
G36*
X524843Y1472638D02*
X421417D01*
Y1436142D01*
X524843D01*
Y1472638D01*
D02*
G37*
G36*
X411417D02*
X307992D01*
Y1436142D01*
X411417D01*
Y1472638D01*
D02*
G37*
G36*
X2098307Y2083579D02*
X2084114Y2081711D01*
X2070887Y2076232D01*
X2059530Y2067517D01*
X2050815Y2056160D01*
X2045336Y2042934D01*
X2043468Y2028740D01*
X2045336Y2014547D01*
X2050815Y2001321D01*
X2059530Y1989963D01*
X2070887Y1981248D01*
X2084114Y1975770D01*
X2098307Y1973901D01*
X2112501Y1975770D01*
X2125727Y1981248D01*
X2137084Y1989963D01*
X2145799Y2001321D01*
X2151278Y2014547D01*
X2153146Y2028740D01*
X2151278Y2042934D01*
X2145799Y2056160D01*
X2137084Y2067517D01*
X2125727Y2076232D01*
X2112501Y2081711D01*
X2098307Y2083579D01*
D02*
G37*
G36*
X522205Y970649D02*
X418779D01*
Y934154D01*
X522205D01*
Y970649D01*
D02*
G37*
G36*
X408779D02*
X305354D01*
Y934154D01*
X408779D01*
Y970649D01*
D02*
G37*
G36*
X1761575D02*
X1658150D01*
Y934154D01*
X1761575D01*
Y970649D01*
D02*
G37*
G36*
X1648150D02*
X1544724D01*
Y934154D01*
X1648150D01*
Y970649D01*
D02*
G37*
G36*
X1761575Y924154D02*
X1658150D01*
Y887658D01*
X1761575D01*
Y924154D01*
D02*
G37*
G36*
X1648150D02*
X1544724D01*
Y887658D01*
X1648150D01*
Y924154D01*
D02*
G37*
G36*
X522205Y924154D02*
X418779D01*
Y887658D01*
X522205D01*
Y924154D01*
D02*
G37*
G36*
X408779D02*
X305354D01*
Y887658D01*
X408779D01*
Y924154D01*
D02*
G37*
G36*
X1761575Y752539D02*
X1658150D01*
Y716043D01*
X1761575D01*
Y752539D01*
D02*
G37*
G36*
X1648150D02*
X1544724D01*
Y716043D01*
X1648150D01*
Y752539D01*
D02*
G37*
G36*
X522205D02*
X418779D01*
Y716043D01*
X522205D01*
Y752539D01*
D02*
G37*
G36*
X408779D02*
X305354D01*
Y716043D01*
X408779D01*
Y752539D01*
D02*
G37*
G36*
X1761575Y706043D02*
X1658150D01*
Y669547D01*
X1761575D01*
Y706043D01*
D02*
G37*
G36*
X1648150D02*
X1544724D01*
Y669547D01*
X1648150D01*
Y706043D01*
D02*
G37*
G36*
X522205Y706043D02*
X418779D01*
Y669547D01*
X522205D01*
Y706043D01*
D02*
G37*
G36*
X408779D02*
X305354D01*
Y669547D01*
X408779D01*
Y706043D01*
D02*
G37*
G36*
X2112401Y1234086D02*
X2101958Y1232711D01*
X2092228Y1228680D01*
X2083872Y1222269D01*
X2077461Y1213913D01*
X2073430Y1204182D01*
X2072055Y1193740D01*
X2073430Y1183298D01*
X2077461Y1173568D01*
X2083872Y1165212D01*
X2092228Y1158800D01*
X2101958Y1154770D01*
X2112401Y1153395D01*
X2122843Y1154770D01*
X2132573Y1158800D01*
X2140929Y1165212D01*
X2147340Y1173568D01*
X2151371Y1183298D01*
X2152746Y1193740D01*
X2151371Y1204182D01*
X2147340Y1213913D01*
X2140929Y1222269D01*
X2132573Y1228680D01*
X2122843Y1232711D01*
X2112401Y1234086D01*
D02*
G37*
%LPD*%
D12*
X3361931Y3359508D02*
D03*
Y3577618D02*
D03*
X2114687D02*
D03*
Y3359508D02*
D03*
X416417Y1477638D02*
D03*
Y1695748D02*
D03*
X1651181Y2730980D02*
D03*
Y2512870D02*
D03*
X403937D02*
D03*
Y2730980D02*
D03*
X3373742Y2895366D02*
D03*
Y2677256D02*
D03*
X2126756D02*
D03*
Y2895366D02*
D03*
X413780Y711043D02*
D03*
Y929154D02*
D03*
X1653150Y711043D02*
D03*
Y929154D02*
D03*
X1666535Y3605536D02*
D03*
Y3387425D02*
D03*
X407480D02*
D03*
Y3605536D02*
D03*
D17*
X1662992Y1701984D02*
D03*
Y1483874D02*
D03*
D20*
X3299884Y3275906D02*
D03*
X3369884Y3650906D02*
D03*
X3209884Y3575906D02*
D03*
X2264884Y3605906D02*
D03*
X2249968Y3355000D02*
D03*
X3014884Y3245906D02*
D03*
X3244884Y3270906D02*
D03*
X2226243Y3261453D02*
D03*
X2427133Y3227710D02*
D03*
X2844240Y3550753D02*
D03*
X2764794Y3554357D02*
D03*
X2685267D02*
D03*
X2605739Y3554280D02*
D03*
X2527452Y3540286D02*
D03*
X2599884Y3360906D02*
D03*
X2679884Y3365906D02*
D03*
X2760380Y3377915D02*
D03*
X2839706Y3383579D02*
D03*
X2919119Y3379317D02*
D03*
X2467794Y3554357D02*
D03*
X2388269Y3553748D02*
D03*
X2308805Y3556937D02*
D03*
X2430393Y3377000D02*
D03*
X2509756Y3382109D02*
D03*
X3139106Y3556937D02*
D03*
X3059643Y3553748D02*
D03*
X2980118Y3554357D02*
D03*
X2980232Y3377454D02*
D03*
X2039884Y3135906D02*
D03*
X3019884Y3315906D02*
D03*
X1531417Y1270748D02*
D03*
X1511417Y1760748D02*
D03*
X1496417Y1690748D02*
D03*
X1416417D02*
D03*
X516417Y1390748D02*
D03*
X581417Y1755748D02*
D03*
X506417Y1790748D02*
D03*
X604264Y1685489D02*
D03*
X576417Y1490748D02*
D03*
X631417Y1470748D02*
D03*
X856417Y1390748D02*
D03*
X631417Y1405748D02*
D03*
X636417Y1330748D02*
D03*
X861417Y1320748D02*
D03*
X1331417Y1385748D02*
D03*
X1519792Y1355290D02*
D03*
Y1434818D02*
D03*
X1070646Y1676906D02*
D03*
X991453Y1684200D02*
D03*
X938940Y1508478D02*
D03*
X1018235Y1514558D02*
D03*
X1097430Y1507296D02*
D03*
X771417Y1700748D02*
D03*
X686417Y1695748D02*
D03*
X861417Y1450748D02*
D03*
X859904Y1507296D02*
D03*
X894058Y1682997D02*
D03*
X1333433Y1684654D02*
D03*
X1253905D02*
D03*
X1175809Y1669632D02*
D03*
X1173097Y1525785D02*
D03*
X1250445Y1507296D02*
D03*
X1329970Y1507906D02*
D03*
X1326417Y1450748D02*
D03*
X733307Y2307638D02*
D03*
X548307Y2747638D02*
D03*
X538307Y2532638D02*
D03*
X1235707Y2710299D02*
D03*
X1315234D02*
D03*
X1394762D02*
D03*
X1474290D02*
D03*
X1125492Y2723774D02*
D03*
X1016555Y2719401D02*
D03*
X1048307Y2527638D02*
D03*
X978307D02*
D03*
X919798Y2333479D02*
D03*
X1008307Y2332638D02*
D03*
X1079320Y2348474D02*
D03*
X815649Y2348551D02*
D03*
X771482Y2719436D02*
D03*
X815649Y2533551D02*
D03*
X915492Y2723774D02*
D03*
X1119855Y2289145D02*
D03*
X1123179Y2209687D02*
D03*
X1123924Y2130163D02*
D03*
X1119855Y2050739D02*
D03*
X1296759Y2060299D02*
D03*
X1295917Y2139822D02*
D03*
X1287556Y2218909D02*
D03*
X1297213Y2297849D02*
D03*
Y2377376D02*
D03*
X1298886Y2456886D02*
D03*
X1320031Y2533551D02*
D03*
X1399558D02*
D03*
X1479086D02*
D03*
X601232Y2710299D02*
D03*
X541902Y2455585D02*
D03*
X543005Y2376065D02*
D03*
Y2296537D02*
D03*
X667050Y2709174D02*
D03*
X391721Y2026446D02*
D03*
X943307Y2072638D02*
D03*
X2702798Y2901358D02*
D03*
X3012798Y2613740D02*
D03*
X3207798Y2683740D02*
D03*
X3232798Y2973740D02*
D03*
X3217798Y2893740D02*
D03*
X2142798Y2973740D02*
D03*
X2272798Y2953740D02*
D03*
X2277798Y2603740D02*
D03*
X2362798D02*
D03*
X2307798Y2888740D02*
D03*
X2417798D02*
D03*
X2437798Y2684615D02*
D03*
X2527798D02*
D03*
X2512798Y2888740D02*
D03*
X2802798Y2684615D02*
D03*
X2606967Y2888740D02*
D03*
X2604654Y2684615D02*
D03*
X2712798D02*
D03*
X2872798D02*
D03*
X2791541Y2888740D02*
D03*
X3147798D02*
D03*
X3067798D02*
D03*
X2974130D02*
D03*
X2887798D02*
D03*
X2957798Y2684615D02*
D03*
X3157798Y2608740D02*
D03*
X2187798Y2578740D02*
D03*
X1504606Y725748D02*
D03*
X1449606Y720748D02*
D03*
X1474606Y910748D02*
D03*
X1254549Y904374D02*
D03*
X1334076Y904358D02*
D03*
X1399606Y910748D02*
D03*
X1389606Y720748D02*
D03*
X1173347Y688185D02*
D03*
X1494606Y445748D02*
D03*
X1164606Y460748D02*
D03*
X1020698Y904665D02*
D03*
X1164606Y540748D02*
D03*
Y610748D02*
D03*
X625680Y908366D02*
D03*
X564606Y720748D02*
D03*
X444606Y1025748D02*
D03*
X514606Y1020748D02*
D03*
X766798Y531726D02*
D03*
Y611254D02*
D03*
X590676Y595679D02*
D03*
X589895Y516156D02*
D03*
Y436628D02*
D03*
X774606Y455748D02*
D03*
X1354606Y470748D02*
D03*
Y530748D02*
D03*
X1354872Y595077D02*
D03*
X1354606Y405748D02*
D03*
X1358783Y671494D02*
D03*
X1175021Y904488D02*
D03*
X1095495Y904967D02*
D03*
X943024Y903952D02*
D03*
X863829Y896691D02*
D03*
X784733Y904967D02*
D03*
X705208Y904358D02*
D03*
X559606Y925748D02*
D03*
X584606Y660748D02*
D03*
X769606Y675748D02*
D03*
X804552Y728064D02*
D03*
X884079Y728331D02*
D03*
X961237Y708962D02*
D03*
X1046351Y706556D02*
D03*
X1121570Y703456D02*
D03*
X415591Y3690118D02*
D03*
X1510591Y3397500D02*
D03*
X1417264Y3585118D02*
D03*
X1510591D02*
D03*
X565591Y3390118D02*
D03*
X1570591Y3685118D02*
D03*
X1290591Y3395118D02*
D03*
X790591Y3180118D02*
D03*
Y3100118D02*
D03*
X595591Y3130118D02*
D03*
Y3210118D02*
D03*
X1510591Y3235118D02*
D03*
Y3154203D02*
D03*
X1290591Y3049445D02*
D03*
X1510591D02*
D03*
X1290591Y3185003D02*
D03*
Y3305118D02*
D03*
X1015591Y3585118D02*
D03*
X970591Y3395118D02*
D03*
X1099975D02*
D03*
X1150591Y3585118D02*
D03*
X595591Y3315118D02*
D03*
X790591Y3310118D02*
D03*
X1290591Y3585118D02*
D03*
X1195591Y3395118D02*
D03*
X1510591Y3320118D02*
D03*
X560591Y3610118D02*
D03*
X790591Y3380118D02*
D03*
X865591Y3395118D02*
D03*
X891016Y3585118D02*
D03*
X797138D02*
D03*
X710591D02*
D03*
X635591D02*
D03*
X1400591Y2935118D02*
D03*
X690591Y2930118D02*
D03*
%TF.MD5,c5798bec5b20b688ac7f26c24fa3d3fb*%
M02*
