%TF.GenerationSoftware,Altium Limited,Altium Designer,20.0.10 (225)*%
G04 Layer_Color=16711935*
%FSLAX26Y26*%
%MOIN*%
%TF.FileFunction,Other,Mechanical_1*%
%TF.Part,CustomerPanel*%
G01*
G75*
%TA.AperFunction,NonConductor*%
%ADD22C,0.006000*%
%ADD23C,0.010000*%
D22*
X3933001Y4616181D02*
G03*
X3933001Y4616206I-3001J0D01*
G01*
X3933001Y4616181D02*
G03*
X3933001Y4616206I-3001J0D01*
G01*
D02*
G03*
X3811890Y4737292I-121111J-25D01*
G01*
X3933001Y4616181D02*
G03*
X3933001Y4616206I-121111J0D01*
G01*
X3933001Y3333110D02*
G03*
X3933001Y3333135I-3001J0D01*
G01*
X3933001Y3333110D02*
G03*
X3933001Y3333135I-3001J0D01*
G01*
X3811890Y3211999D02*
G03*
X3933001Y3333110I0J121111D01*
G01*
X3168110Y4737292D02*
G03*
X3047500Y4627187I0J-121111D01*
G01*
D02*
G03*
X2926890Y4737292I-120610J-11006D01*
G01*
X2454449D02*
G03*
X2333338Y4616181I0J-121111D01*
G01*
X3047500Y3322105D02*
G03*
X3168110Y3211999I120610J11005D01*
G01*
X2926890D02*
G03*
X3047500Y3322105I0J121111D01*
G01*
X2333338Y3333110D02*
G03*
X2454449Y3211999I121111J0D01*
G01*
X3168110Y4737292D02*
X3811890D01*
X3933001Y3333135D02*
X3933001Y4616181D01*
X3933001Y3333110D02*
Y3333135D01*
X3168110Y3211999D02*
X3811890D01*
X2454449Y4737292D02*
X2926890D01*
X2333338Y3333110D02*
Y4616181D01*
X2454449Y3211999D02*
X2926890D01*
D23*
X3047500Y3460000D02*
Y3940000D01*
Y3322105D02*
Y3340000D01*
Y4060000D02*
Y4415000D01*
Y4535000D02*
Y4627187D01*
X3930000Y4616181D02*
G03*
X3811890Y4734291I-118110J0D01*
G01*
X3811890Y3215000D02*
G03*
X3930000Y3333110I0J118110D01*
G01*
X3168110Y4734291D02*
G03*
X3050000Y4616181I0J-118110D01*
G01*
X3050000Y3333110D02*
G03*
X3168110Y3215000I118110J0D01*
G01*
X3811890D01*
X3168110Y4734291D02*
X3811890D01*
X3930000Y3333110D02*
X3930000Y4616181D01*
X3050000Y3333110D02*
X3050000Y4616181D01*
X2926890Y3215000D02*
G03*
X3045000Y3333110I0J118110D01*
G01*
X2454449Y4734291D02*
G03*
X2336339Y4616181I0J-118110D01*
G01*
X3045000D02*
G03*
X2926890Y4734291I-118110J0D01*
G01*
X2336339Y3333110D02*
G03*
X2454449Y3215000I118110J0D01*
G01*
Y4734291D02*
X2926890D01*
X2454449Y3215000D02*
X2926890D01*
X3045000Y3333110D02*
Y4616181D01*
X2336339Y3333110D02*
Y4616181D01*
%TF.MD5,a80d4a4dd0a747f267a28008f5f0a384*%
M02*
