%TF.GenerationSoftware,Altium Limited,Altium Designer,20.0.10 (225)*%
G04 Layer_Color=16711935*
%FSLAX26Y26*%
%MOIN*%
%TF.FileFunction,Other,Mechanical_1*%
%TF.Part,CustomerPanel*%
G01*
G75*
%TA.AperFunction,NonConductor*%
%ADD23C,0.006000*%
%ADD24C,0.010000*%
D23*
X3156111Y4193858D02*
G03*
X3035000Y4314970I-121111J0D01*
G01*
D02*
G03*
X3034976Y4314970I0J-3001D01*
G01*
X3035000Y4314970D02*
G03*
X3034976Y4314970I0J-3001D01*
G01*
X3156111Y3296890D02*
G03*
X3035000Y3418001I-121111J0D01*
G01*
X3035025Y3422865D02*
G03*
X3156111Y3543977I-25J121111D01*
G01*
X3035000Y3422865D02*
G03*
X3035025Y3422865I0J121111D01*
G01*
X3035000Y2822865D02*
G03*
X3156111Y2943976I0J121111D01*
G01*
X3035000Y3422865D02*
G03*
X3035025Y3422865I0J3001D01*
G01*
X3035000Y3422865D02*
G03*
X3035025Y3422865I0J3001D01*
G01*
X1751954Y4314970D02*
G03*
X1751929Y4314970I-24J-3001D01*
G01*
X1751954Y4314970D02*
G03*
X1751929Y4314970I-24J-3001D01*
G01*
D02*
G03*
X1630818Y4193858I0J-121111D01*
G01*
Y3543977D02*
G03*
X1630818Y3543952I3001J0D01*
G01*
X1751894Y3422865D02*
G03*
X1751929Y3422865I35J121111D01*
G01*
X1630818Y3543952D02*
G03*
X1751894Y3422865I121111J25D01*
G01*
X1630818Y3543977D02*
G03*
X1630818Y3543952I121111J0D01*
G01*
X1751894Y3422865D02*
G03*
X1751929Y3422865I35J3001D01*
G01*
Y3418001D02*
G03*
X1630818Y3296890I0J-121111D01*
G01*
X1751894Y3422865D02*
G03*
X1751929Y3422865I35J3001D01*
G01*
X1630818Y2943976D02*
G03*
X1751929Y2822865I121111J0D01*
G01*
X2930000Y3420000D02*
X3035000D01*
X2400000D02*
X2810000D01*
X1930000D02*
X2280000D01*
X1751929D02*
X1810000D01*
X3156111Y3543977D02*
Y4193858D01*
X3034976Y4314970D02*
X3035000D01*
X1751954D02*
X3034976D01*
X1751929D02*
X1751954D01*
X3156111Y2943976D02*
Y3296890D01*
X1630818Y3543977D02*
Y4193858D01*
X1751929Y2822865D02*
X3035000D01*
X1630818Y2943976D02*
Y3296890D01*
D24*
X1633819Y2943976D02*
G03*
X1751929Y2825866I118110J0D01*
G01*
X3035000D02*
G03*
X3153110Y2943976I0J118110D01*
G01*
Y3296890D02*
G03*
X3035000Y3415000I-118110J0D01*
G01*
X1751929D02*
G03*
X1633819Y3296890I0J-118110D01*
G01*
X3153110Y2943976D02*
Y3296890D01*
X1751929Y2825866D02*
X3035000D01*
X1751929Y3415000D02*
X3035000D01*
X1633819Y2943976D02*
Y3296890D01*
X3035000Y3425866D02*
G03*
X3153110Y3543977I0J118110D01*
G01*
X1633819D02*
G03*
X1751929Y3425866I118110J0D01*
G01*
X3153110Y4193858D02*
G03*
X3035000Y4311969I-118110J0D01*
G01*
X1751929D02*
G03*
X1633819Y4193858I0J-118110D01*
G01*
X3153110Y3543977D02*
Y4193858D01*
X1751929Y3425866D02*
X3035000D01*
X1633819Y3543977D02*
Y4191969D01*
X1751929Y4311968D02*
X3035000D01*
%TF.MD5,02e948027b113bade75a450dbdfed89c*%
M02*
