%TF.GenerationSoftware,Altium Limited,Altium Designer,20.0.10 (225)*%
G04 Layer_Color=2752767*
%FSLAX26Y26*%
%MOIN*%
%TF.FileFunction,Drawing*%
%TF.Part,CustomerPanel*%
G01*
G75*
%TA.AperFunction,NonConductor*%
%ADD27C,0.005000*%
D27*
X3380000Y4424016D02*
Y4464016D01*
X3420000D01*
Y4424016D01*
X3380000D01*
X3385000Y4369016D02*
Y4409016D01*
X3425000D01*
Y4369016D01*
X3385000D01*
X3195000Y4394016D02*
Y4434016D01*
X3235000D01*
Y4394016D01*
X3195000D01*
X3201374Y4173958D02*
Y4213958D01*
X3241374D01*
Y4173958D01*
X3201374D01*
X3201390Y4253486D02*
Y4293486D01*
X3241390D01*
Y4253486D01*
X3201390D01*
X3195000Y4319016D02*
Y4359016D01*
X3235000D01*
Y4319016D01*
X3195000D01*
X3385000Y4309016D02*
Y4349016D01*
X3425000D01*
Y4309016D01*
X3385000D01*
X3417563Y4092756D02*
Y4132756D01*
X3457563D01*
Y4092756D01*
X3417563D01*
X3660000Y4414016D02*
Y4454016D01*
X3700000D01*
Y4414016D01*
X3660000D01*
X3645000Y4084016D02*
Y4124016D01*
X3685000D01*
Y4084016D01*
X3645000D01*
X3201083Y3940108D02*
Y3980108D01*
X3241083D01*
Y3940108D01*
X3201083D01*
X3565000Y4084016D02*
Y4124016D01*
X3605000D01*
Y4084016D01*
X3565000D01*
X3495000D02*
Y4124016D01*
X3535000D01*
Y4084016D01*
X3495000D01*
X3197382Y3545090D02*
Y3585090D01*
X3237382D01*
Y3545090D01*
X3197382D01*
X3385000Y3484016D02*
Y3524016D01*
X3425000D01*
Y3484016D01*
X3385000D01*
X3080000Y3364016D02*
Y3404016D01*
X3120000D01*
Y3364016D01*
X3080000D01*
X3085000Y3434016D02*
Y3474016D01*
X3125000D01*
Y3434016D01*
X3085000D01*
X3574022Y3686207D02*
Y3726207D01*
X3614022D01*
Y3686207D01*
X3574022D01*
X3494494D02*
Y3726207D01*
X3534494D01*
Y3686207D01*
X3494494D01*
X3510069Y3510085D02*
Y3550085D01*
X3550069D01*
Y3510085D01*
X3510069D01*
X3589593Y3509304D02*
Y3549304D01*
X3629593D01*
Y3509304D01*
X3589593D01*
X3669120D02*
Y3549304D01*
X3709120D01*
Y3509304D01*
X3669120D01*
X3650000Y3694016D02*
Y3734016D01*
X3690000D01*
Y3694016D01*
X3650000D01*
X3635000Y4274016D02*
Y4314016D01*
X3675000D01*
Y4274016D01*
X3635000D01*
X3575000D02*
Y4314016D01*
X3615000D01*
Y4274016D01*
X3575000D01*
X3510672Y4274282D02*
Y4314282D01*
X3550672D01*
Y4274282D01*
X3510672D01*
X3700000Y4274016D02*
Y4314016D01*
X3740000D01*
Y4274016D01*
X3700000D01*
X3434254Y4278192D02*
Y4318192D01*
X3474254D01*
Y4278192D01*
X3434254D01*
X3201260Y4094431D02*
Y4134431D01*
X3241260D01*
Y4094431D01*
X3201260D01*
X3200781Y4014905D02*
Y4054905D01*
X3240781D01*
Y4014905D01*
X3200781D01*
X3201796Y3862434D02*
Y3902434D01*
X3241796D01*
Y3862434D01*
X3201796D01*
X3209057Y3783238D02*
Y3823238D01*
X3249057D01*
Y3783238D01*
X3209057D01*
X3200781Y3704142D02*
Y3744142D01*
X3240781D01*
Y3704142D01*
X3200781D01*
X3201390Y3624617D02*
Y3664617D01*
X3241390D01*
Y3624617D01*
X3201390D01*
X3180000Y3479016D02*
Y3519016D01*
X3220000D01*
Y3479016D01*
X3180000D01*
X3445000Y3504016D02*
Y3544016D01*
X3485000D01*
Y3504016D01*
X3445000D01*
X3430000Y3689016D02*
Y3729016D01*
X3470000D01*
Y3689016D01*
X3430000D01*
X3377684Y3723961D02*
Y3763961D01*
X3417684D01*
Y3723961D01*
X3377684D01*
X3377417Y3803488D02*
Y3843488D01*
X3417417D01*
Y3803488D01*
X3377417D01*
X3396787Y3880646D02*
Y3920646D01*
X3436787D01*
Y3880646D01*
X3396787D01*
X3399192Y3965761D02*
Y4005761D01*
X3439192D01*
Y3965761D01*
X3399192D01*
X3402292Y4040979D02*
Y4080979D01*
X3442292D01*
Y4040979D01*
X3402292D01*
X2800551Y4508543D02*
Y4548543D01*
X2840551D01*
Y4508543D01*
X2800551D01*
X2425551Y4578543D02*
Y4618543D01*
X2465551D01*
Y4578543D01*
X2425551D01*
X2500551Y4418543D02*
Y4458543D01*
X2540551D01*
Y4418543D01*
X2500551D01*
X2470551Y3473543D02*
Y3513543D01*
X2510551D01*
Y3473543D01*
X2470551D01*
X2721457Y3458627D02*
Y3498627D01*
X2761457D01*
Y3458627D01*
X2721457D01*
X2830551Y4223543D02*
Y4263543D01*
X2870551D01*
Y4223543D01*
X2830551D01*
X2805551Y4453543D02*
Y4493543D01*
X2845551D01*
Y4453543D01*
X2805551D01*
X2815004Y3434902D02*
Y3474902D01*
X2855004D01*
Y3434902D01*
X2815004D01*
X2848747Y3635792D02*
Y3675792D01*
X2888747D01*
Y3635792D01*
X2848747D01*
X2525704Y4052899D02*
Y4092899D01*
X2565704D01*
Y4052899D01*
X2525704D01*
X2522100Y3973454D02*
Y4013454D01*
X2562100D01*
Y3973454D01*
X2522100D01*
Y3893926D02*
Y3933926D01*
X2562100D01*
Y3893926D01*
X2522100D01*
X2522177Y3814398D02*
Y3854398D01*
X2562177D01*
Y3814398D01*
X2522177D01*
X2536171Y3736112D02*
Y3776112D01*
X2576171D01*
Y3736112D01*
X2536171D01*
X2715551Y3808543D02*
Y3848543D01*
X2755551D01*
Y3808543D01*
X2715551D01*
X2710551Y3888543D02*
Y3928543D01*
X2750551D01*
Y3888543D01*
X2710551D01*
X2698542Y3969039D02*
Y4009039D01*
X2738542D01*
Y3969039D01*
X2698542D01*
X2692878Y4048365D02*
Y4088365D01*
X2732878D01*
Y4048365D01*
X2692878D01*
X2697140Y4127778D02*
Y4167778D01*
X2737140D01*
Y4127778D01*
X2697140D01*
X2522100Y3676453D02*
Y3716453D01*
X2562100D01*
Y3676453D01*
X2522100D01*
X2522709Y3596928D02*
Y3636928D01*
X2562709D01*
Y3596928D01*
X2522709D01*
X2519520Y3517464D02*
Y3557464D01*
X2559520D01*
Y3517464D01*
X2519520D01*
X2699457Y3639052D02*
Y3679052D01*
X2739457D01*
Y3639052D01*
X2699457D01*
X2694348Y3718415D02*
Y3758415D01*
X2734348D01*
Y3718415D01*
X2694348D01*
X2519520Y4347766D02*
Y4387766D01*
X2559520D01*
Y4347766D01*
X2519520D01*
X2522709Y4268302D02*
Y4308302D01*
X2562709D01*
Y4268302D01*
X2522709D01*
X2522100Y4188777D02*
Y4228777D01*
X2562100D01*
Y4188777D01*
X2522100D01*
X2699003Y4188892D02*
Y4228892D01*
X2739003D01*
Y4188892D01*
X2699003D01*
X2940551Y3248543D02*
Y3288543D01*
X2980551D01*
Y3248543D01*
X2940551D01*
X2760551Y4228543D02*
Y4268543D01*
X2800551D01*
Y4228543D01*
X2760551D01*
%TF.MD5,2d5f0139a30c7bb307526a0409c2f0d6*%
M02*
