%TF.GenerationSoftware,Altium Limited,Altium Designer,20.0.10 (225)*%
G04 Layer_Physical_Order=2*
G04 Layer_Color=16711680*
%FSLAX26Y26*%
%MOIN*%
%TF.FileFunction,Copper,L2,Bot,Signal*%
%TF.Part,CustomerPanel*%
G01*
G75*
%TA.AperFunction,SMDPad,CuDef*%
%ADD13R,0.196850X0.062992*%
%TA.AperFunction,ViaPad*%
%ADD17C,0.050000*%
G36*
X3058091Y4309948D02*
X3073047Y4305940D01*
X3087351Y4300016D01*
X3100759Y4292274D01*
X3113043Y4282849D01*
X3123990Y4271901D01*
X3133416Y4259618D01*
X3141157Y4246209D01*
X3147082Y4231905D01*
X3151089Y4216950D01*
X3153110Y4201600D01*
Y4193858D01*
Y3543977D01*
Y3536235D01*
X3151089Y3520885D01*
X3147082Y3505930D01*
X3141157Y3491626D01*
X3133416Y3478217D01*
X3123990Y3465934D01*
X3113043Y3454986D01*
X3100759Y3445561D01*
X3087351Y3437819D01*
X3073047Y3431894D01*
X3058091Y3427887D01*
X3042741Y3425866D01*
X3035000D01*
Y3425866D01*
X1751929D01*
Y3425866D01*
X1744188D01*
X1728838Y3427887D01*
X1713882Y3431894D01*
X1699578Y3437819D01*
X1686170Y3445561D01*
X1673887Y3454986D01*
X1662939Y3465934D01*
X1653513Y3478217D01*
X1645772Y3491626D01*
X1639847Y3505930D01*
X1635840Y3520885D01*
X1633819Y3536235D01*
Y3543977D01*
X1633819D01*
Y4193858D01*
Y4201600D01*
X1635840Y4216950D01*
X1639847Y4231905D01*
X1645772Y4246209D01*
X1653513Y4259618D01*
X1662939Y4271901D01*
X1673887Y4282849D01*
X1686170Y4292274D01*
X1699578Y4300016D01*
X1713882Y4305940D01*
X1728838Y4309948D01*
X1744188Y4311969D01*
X1751929D01*
Y4311968D01*
X3035000D01*
X3042741Y4311969D01*
X3058091Y4309948D01*
D02*
G37*
G36*
Y3412979D02*
X3073047Y3408972D01*
X3087351Y3403047D01*
X3100759Y3395305D01*
X3113043Y3385880D01*
X3123990Y3374932D01*
X3133416Y3362649D01*
X3141157Y3349241D01*
X3147082Y3334936D01*
X3151089Y3319981D01*
X3153110Y3304631D01*
Y3296890D01*
Y2943976D01*
Y2936235D01*
X3151089Y2920885D01*
X3147082Y2905930D01*
X3141157Y2891626D01*
X3133416Y2878217D01*
X3123990Y2865934D01*
X3113043Y2854986D01*
X3100759Y2845561D01*
X3087351Y2837819D01*
X3073047Y2831894D01*
X3058091Y2827887D01*
X3042741Y2825866D01*
X1744188D01*
X1728838Y2827887D01*
X1713882Y2831894D01*
X1699578Y2837819D01*
X1686170Y2845561D01*
X1673887Y2854986D01*
X1662939Y2865934D01*
X1653513Y2878217D01*
X1645772Y2891626D01*
X1639847Y2905930D01*
X1635840Y2920885D01*
X1633819Y2936235D01*
Y2943976D01*
Y3296890D01*
Y3304631D01*
X1635840Y3319981D01*
X1639847Y3334936D01*
X1645772Y3349241D01*
X1653513Y3362649D01*
X1662939Y3374932D01*
X1673887Y3385880D01*
X1686170Y3395305D01*
X1699578Y3403047D01*
X1713882Y3408972D01*
X1728838Y3412979D01*
X1744188Y3415000D01*
X3042741D01*
X3058091Y3412979D01*
D02*
G37*
%LPC*%
G36*
X1874134Y4198882D02*
X1770709D01*
Y4162386D01*
X1874134D01*
Y4198882D01*
D02*
G37*
G36*
X1760709D02*
X1657284D01*
Y4162386D01*
X1760709D01*
Y4198882D01*
D02*
G37*
G36*
X3133189D02*
X3029764D01*
Y4162386D01*
X3133189D01*
Y4198882D01*
D02*
G37*
G36*
X3019764D02*
X2916339D01*
Y4162386D01*
X3019764D01*
Y4198882D01*
D02*
G37*
G36*
X3133189Y4152386D02*
X3029764D01*
Y4115890D01*
X3133189D01*
Y4152386D01*
D02*
G37*
G36*
X3019764D02*
X2916339D01*
Y4115890D01*
X3019764D01*
Y4152386D01*
D02*
G37*
G36*
X1874134Y4152386D02*
X1770709D01*
Y4115890D01*
X1874134D01*
Y4152386D01*
D02*
G37*
G36*
X1760709D02*
X1657284D01*
Y4115890D01*
X1760709D01*
Y4152386D01*
D02*
G37*
G36*
X2873819Y3983994D02*
Y3954351D01*
X2903463D01*
X2902918Y3958487D01*
X2899391Y3967002D01*
X2893781Y3974313D01*
X2886470Y3979923D01*
X2877956Y3983450D01*
X2873819Y3983994D01*
D02*
G37*
G36*
X2863819D02*
X2859682Y3983450D01*
X2851168Y3979923D01*
X2843857Y3974313D01*
X2838247Y3967002D01*
X2834720Y3958487D01*
X2834175Y3954351D01*
X2863819D01*
Y3983994D01*
D02*
G37*
G36*
X1874134Y3980772D02*
X1770709D01*
Y3944276D01*
X1874134D01*
Y3980772D01*
D02*
G37*
G36*
X1760709D02*
X1657284D01*
Y3944276D01*
X1760709D01*
Y3980772D01*
D02*
G37*
G36*
X3133189D02*
X3029764D01*
Y3944276D01*
X3133189D01*
Y3980772D01*
D02*
G37*
G36*
X3019764D02*
X2916339D01*
Y3944276D01*
X3019764D01*
Y3980772D01*
D02*
G37*
G36*
X2903463Y3944351D02*
X2873819D01*
Y3914707D01*
X2877956Y3915251D01*
X2886470Y3918778D01*
X2893781Y3924388D01*
X2899391Y3931700D01*
X2902918Y3940214D01*
X2903463Y3944351D01*
D02*
G37*
G36*
X2863819D02*
X2834175D01*
X2834720Y3940214D01*
X2838247Y3931700D01*
X2843857Y3924388D01*
X2851168Y3918778D01*
X2859682Y3915251D01*
X2863819Y3914707D01*
Y3944351D01*
D02*
G37*
G36*
X3133189Y3934276D02*
X3029764D01*
Y3897780D01*
X3133189D01*
Y3934276D01*
D02*
G37*
G36*
X3019764D02*
X2916339D01*
Y3897780D01*
X3019764D01*
Y3934276D01*
D02*
G37*
G36*
X1874134Y3934276D02*
X1770709D01*
Y3897780D01*
X1874134D01*
Y3934276D01*
D02*
G37*
G36*
X1760709D02*
X1657284D01*
Y3897780D01*
X1760709D01*
Y3934276D01*
D02*
G37*
G36*
X1882659Y3318122D02*
X1779234D01*
Y3281626D01*
X1882659D01*
Y3318122D01*
D02*
G37*
G36*
X1769234D02*
X1665809D01*
Y3281626D01*
X1769234D01*
Y3318122D01*
D02*
G37*
G36*
X3129646D02*
X3026220D01*
Y3281626D01*
X3129646D01*
Y3318122D01*
D02*
G37*
G36*
X3016220D02*
X2912795D01*
Y3281626D01*
X3016220D01*
Y3318122D01*
D02*
G37*
G36*
X3129646Y3271626D02*
X3026220D01*
Y3235130D01*
X3129646D01*
Y3271626D01*
D02*
G37*
G36*
X3016220D02*
X2912795D01*
Y3235130D01*
X3016220D01*
Y3271626D01*
D02*
G37*
G36*
X1882659Y3271626D02*
X1779234D01*
Y3235130D01*
X1882659D01*
Y3271626D01*
D02*
G37*
G36*
X1769234D02*
X1665809D01*
Y3235130D01*
X1769234D01*
Y3271626D01*
D02*
G37*
G36*
X1882659Y3100012D02*
X1779234D01*
Y3063516D01*
X1882659D01*
Y3100012D01*
D02*
G37*
G36*
X1769234D02*
X1665809D01*
Y3063516D01*
X1769234D01*
Y3100012D01*
D02*
G37*
G36*
X3129646D02*
X3026220D01*
Y3063516D01*
X3129646D01*
Y3100012D01*
D02*
G37*
G36*
X3016220D02*
X2912795D01*
Y3063516D01*
X3016220D01*
Y3100012D01*
D02*
G37*
G36*
X3129646Y3053516D02*
X3026220D01*
Y3017020D01*
X3129646D01*
Y3053516D01*
D02*
G37*
G36*
X3016220D02*
X2912795D01*
Y3017020D01*
X3016220D01*
Y3053516D01*
D02*
G37*
G36*
X1882659Y3053516D02*
X1779234D01*
Y3017020D01*
X1882659D01*
Y3053516D01*
D02*
G37*
G36*
X1769234D02*
X1665809D01*
Y3017020D01*
X1769234D01*
Y3053516D01*
D02*
G37*
%LPD*%
D13*
X3021220Y3276626D02*
D03*
Y3058516D02*
D03*
X1774234D02*
D03*
Y3276626D02*
D03*
X3024764Y4157386D02*
D03*
Y3939276D02*
D03*
X1765709D02*
D03*
Y4157386D02*
D03*
D17*
X2350276Y3282618D02*
D03*
X2660276Y2995000D02*
D03*
X2855276Y3065000D02*
D03*
X2880276Y3355000D02*
D03*
X2865276Y3275000D02*
D03*
X1790276Y3355000D02*
D03*
X1920276Y3335000D02*
D03*
X1925276Y2985000D02*
D03*
X2010276D02*
D03*
X1955276Y3270000D02*
D03*
X2065276D02*
D03*
X2085276Y3065875D02*
D03*
X2175276D02*
D03*
X2160276Y3270000D02*
D03*
X2450276Y3065875D02*
D03*
X2254445Y3270000D02*
D03*
X2252132Y3065875D02*
D03*
X2360276D02*
D03*
X2520276D02*
D03*
X2439019Y3270000D02*
D03*
X2795276D02*
D03*
X2715276D02*
D03*
X2621608D02*
D03*
X2535276D02*
D03*
X2605276Y3065875D02*
D03*
X2805276Y2990000D02*
D03*
X1835276Y2960000D02*
D03*
X1773819Y4241969D02*
D03*
X2868819Y3949351D02*
D03*
X2775492Y4136969D02*
D03*
X2868819D02*
D03*
X1923819Y3941969D02*
D03*
X2928819Y4236969D02*
D03*
X2648819Y3946969D02*
D03*
X2148819Y3731969D02*
D03*
Y3651969D02*
D03*
X1953819Y3681969D02*
D03*
Y3761969D02*
D03*
X2868819Y3786969D02*
D03*
Y3706053D02*
D03*
X2648819Y3601296D02*
D03*
X2868819D02*
D03*
X2648819Y3736853D02*
D03*
Y3856969D02*
D03*
X2373819Y4136969D02*
D03*
X2328819Y3946969D02*
D03*
X2458204D02*
D03*
X2508819Y4136969D02*
D03*
X1953819Y3866969D02*
D03*
X2148819Y3861969D02*
D03*
X2648819Y4136969D02*
D03*
X2553819Y3946969D02*
D03*
X2868819Y3871969D02*
D03*
X1918819Y4161969D02*
D03*
X2148819Y3931969D02*
D03*
X2223819Y3946969D02*
D03*
X2249244Y4136969D02*
D03*
X2155366D02*
D03*
X2068819D02*
D03*
X1993819D02*
D03*
X2758819Y3486969D02*
D03*
X2048819Y3481969D02*
D03*
%TF.MD5,128af96eb112fa5f8a8a79e6400b3e3f*%
M02*
