%TF.GenerationSoftware,Altium Limited,Altium Designer,20.0.10 (225)*%
G04 Layer_Physical_Order=1*
G04 Layer_Color=255*
%FSLAX26Y26*%
%MOIN*%
%TF.FileFunction,Copper,L1,Top,Signal*%
%TF.Part,CustomerPanel*%
G01*
G75*
%TA.AperFunction,SMDPad,CuDef*%
%ADD10R,0.106299X0.049213*%
%ADD11R,0.049213X0.106299*%
%ADD12R,0.196850X0.062992*%
%ADD13R,0.196850X0.047244*%
%TA.AperFunction,Conductor*%
%ADD14C,0.105236*%
%ADD15C,0.059055*%
%TA.AperFunction,ConnectorPad*%
%ADD16R,0.196850X0.047244*%
%ADD17R,0.196850X0.062992*%
%TA.AperFunction,Conductor*%
%ADD18C,0.108779*%
%ADD19C,0.105236*%
%TA.AperFunction,ViaPad*%
%ADD20C,0.050000*%
G36*
X1699863Y3758097D02*
X1714818Y3754090D01*
X1729122Y3748165D01*
X1742531Y3740424D01*
X1754814Y3730998D01*
X1765762Y3720050D01*
X1775187Y3707767D01*
X1782929Y3694359D01*
X1788854Y3680055D01*
X1792861Y3665099D01*
X1794882Y3649749D01*
Y3642008D01*
Y2992126D01*
Y2984385D01*
X1792861Y2969035D01*
X1788854Y2954079D01*
X1782929Y2939775D01*
X1775187Y2926367D01*
X1765762Y2914084D01*
X1754814Y2903136D01*
X1742531Y2893710D01*
X1729122Y2885969D01*
X1714818Y2880044D01*
X1699863Y2876037D01*
X1684513Y2874016D01*
X1676772D01*
Y2874016D01*
X393701D01*
Y2874016D01*
X385959D01*
X370609Y2876037D01*
X355654Y2880044D01*
X341350Y2885969D01*
X327942Y2893710D01*
X315658Y2903136D01*
X304710Y2914084D01*
X295285Y2926367D01*
X287544Y2939775D01*
X281619Y2954079D01*
X277611Y2969035D01*
X275591Y2984385D01*
Y2992126D01*
X275591D01*
Y3642008D01*
Y3649749D01*
X277611Y3665099D01*
X281619Y3680055D01*
X287544Y3694359D01*
X295285Y3707767D01*
X304710Y3720050D01*
X315658Y3730998D01*
X327941Y3740424D01*
X341350Y3748165D01*
X355654Y3754090D01*
X370609Y3758097D01*
X385959Y3760118D01*
X393701D01*
Y3760118D01*
X1676772D01*
X1684513Y3760118D01*
X1699863Y3758097D01*
D02*
G37*
G36*
X3410613Y3758097D02*
X3425569Y3754090D01*
X3439873Y3748165D01*
X3453281Y3740424D01*
X3465564Y3730999D01*
X3476512Y3720051D01*
X3485938Y3707767D01*
X3493679Y3694359D01*
X3499604Y3680055D01*
X3503611Y3665100D01*
X3505632Y3649749D01*
Y3161826D01*
X3503611Y3146476D01*
X3499604Y3131520D01*
X3493679Y3117216D01*
X3485938Y3103808D01*
X3476512Y3091524D01*
X3465564Y3080577D01*
X3453281Y3071151D01*
X3439873Y3063410D01*
X3425569Y3057485D01*
X3410613Y3053478D01*
X3395263Y3051457D01*
X2096710D01*
X2081359Y3053478D01*
X2066404Y3057485D01*
X2052100Y3063410D01*
X2038692Y3071151D01*
X2026408Y3080577D01*
X2015460Y3091524D01*
X2006035Y3103808D01*
X1998294Y3117216D01*
X1992369Y3131520D01*
X1988362Y3146476D01*
X1986341Y3161826D01*
Y3649749D01*
X1988362Y3665100D01*
X1992369Y3680055D01*
X1998294Y3694359D01*
X2006035Y3707767D01*
X2015460Y3720051D01*
X2026408Y3730999D01*
X2038692Y3740424D01*
X2052100Y3748165D01*
X2066404Y3754090D01*
X2081359Y3758097D01*
X2096710Y3760118D01*
X3395263D01*
X3410613Y3758097D01*
D02*
G37*
G36*
X1699863Y2845617D02*
X1714818Y2841610D01*
X1729122Y2835685D01*
X1742531Y2827943D01*
X1754814Y2818518D01*
X1765762Y2807570D01*
X1775187Y2795287D01*
X1782929Y2781878D01*
X1788854Y2767574D01*
X1792861Y2752619D01*
X1794882Y2737269D01*
Y2729528D01*
Y2003858D01*
Y1996117D01*
X1792861Y1980767D01*
X1788854Y1965811D01*
X1782929Y1951507D01*
X1775187Y1938099D01*
X1765762Y1925816D01*
X1754814Y1914868D01*
X1742531Y1905442D01*
X1729122Y1897701D01*
X1714818Y1891776D01*
X1699863Y1887769D01*
X1684513Y1885748D01*
X1676772D01*
Y1885748D01*
X393701Y1885748D01*
X385959D01*
X370609Y1887769D01*
X355654Y1891776D01*
X341350Y1897701D01*
X327941Y1905442D01*
X315658Y1914868D01*
X304710Y1925816D01*
X295285Y1938099D01*
X287544Y1951507D01*
X281619Y1965811D01*
X277611Y1980767D01*
X275591Y1996117D01*
Y2003858D01*
Y2729528D01*
Y2737269D01*
X277611Y2752619D01*
X281619Y2767574D01*
X287544Y2781878D01*
X295285Y2795287D01*
X304710Y2807570D01*
X315658Y2818518D01*
X327941Y2827943D01*
X341350Y2835685D01*
X355654Y2841610D01*
X370609Y2845617D01*
X385959Y2847638D01*
X393701D01*
Y2847638D01*
X1676772Y2847638D01*
X1684513D01*
X1699863Y2845617D01*
D02*
G37*
G36*
X3410613Y3031719D02*
X3425569Y3027712D01*
X3439873Y3021787D01*
X3453281Y3014046D01*
X3465564Y3004620D01*
X3476512Y2993673D01*
X3485938Y2981389D01*
X3493679Y2967981D01*
X3499604Y2953677D01*
X3503611Y2938722D01*
X3505632Y2923371D01*
Y2915630D01*
Y2562717D01*
Y2554975D01*
X3503611Y2539625D01*
X3499604Y2524670D01*
X3493679Y2510366D01*
X3485938Y2496957D01*
X3476512Y2484674D01*
X3465564Y2473726D01*
X3453281Y2464301D01*
X3439873Y2456559D01*
X3425569Y2450635D01*
X3410613Y2446627D01*
X3395263Y2444606D01*
X2096710D01*
X2081359Y2446627D01*
X2066404Y2450635D01*
X2052100Y2456559D01*
X2038692Y2464301D01*
X2026408Y2473726D01*
X2015460Y2484674D01*
X2006035Y2496957D01*
X1998294Y2510366D01*
X1992369Y2524670D01*
X1988362Y2539625D01*
X1986341Y2554975D01*
Y2562717D01*
Y2915630D01*
Y2923371D01*
X1988362Y2938722D01*
X1992369Y2953677D01*
X1998294Y2967981D01*
X2006035Y2981389D01*
X2015460Y2993673D01*
X2026408Y3004620D01*
X2038692Y3014046D01*
X2052100Y3021787D01*
X2066404Y3027712D01*
X2081359Y3031719D01*
X2096710Y3033740D01*
X3395263D01*
X3410613Y3031719D01*
D02*
G37*
G36*
X1699863Y1858727D02*
X1714818Y1854720D01*
X1729122Y1848795D01*
X1742531Y1841054D01*
X1754814Y1831628D01*
X1765762Y1820680D01*
X1775187Y1808397D01*
X1782929Y1794989D01*
X1788854Y1780685D01*
X1792861Y1765729D01*
X1794882Y1750379D01*
Y1742638D01*
Y1223858D01*
Y1216117D01*
X1792861Y1200767D01*
X1788854Y1185812D01*
X1782929Y1171507D01*
X1775187Y1158099D01*
X1765762Y1145816D01*
X1754814Y1134868D01*
X1742531Y1125443D01*
X1729122Y1117701D01*
X1714818Y1111776D01*
X1699863Y1107769D01*
X1684513Y1105748D01*
X1676772Y1105748D01*
X393701Y1105748D01*
X385959D01*
X370609Y1107769D01*
X355654Y1111776D01*
X341350Y1117701D01*
X327942Y1125443D01*
X315658Y1134868D01*
X304710Y1145816D01*
X295285Y1158099D01*
X287544Y1171507D01*
X281619Y1185812D01*
X277611Y1200767D01*
X275591Y1216117D01*
Y1223858D01*
X275591Y1742638D01*
X275591D01*
Y1750379D01*
X277611Y1765729D01*
X281619Y1780685D01*
X287544Y1794989D01*
X295285Y1808397D01*
X304710Y1820680D01*
X315658Y1831628D01*
X327942Y1841054D01*
X341350Y1848795D01*
X355654Y1854720D01*
X370609Y1858727D01*
X385959Y1860748D01*
X393701Y1860748D01*
X1676772Y1860748D01*
X1684513D01*
X1699863Y1858727D01*
D02*
G37*
G36*
X3499299Y2408417D02*
X3528229Y2375399D01*
X3554480Y2340213D01*
X3577890Y2303076D01*
X3598313Y2264216D01*
X3615625Y2223874D01*
X3629718Y2182298D01*
X3640506Y2139745D01*
X3647921Y2096476D01*
X3651919Y2052759D01*
X3652475Y2008863D01*
X3649585Y1965059D01*
X3643267Y1921616D01*
X3633560Y1878803D01*
X3620523Y1836884D01*
X3604238Y1796117D01*
X3584805Y1756753D01*
X3562343Y1719035D01*
X3536991Y1683196D01*
X3508906Y1649456D01*
X3496832Y1637073D01*
X3493582Y1633740D01*
Y1633740D01*
X3493582Y1633740D01*
X2155000Y1633740D01*
X2139284Y1649063D01*
X2110353Y1682081D01*
X2084102Y1717267D01*
X2060693Y1754404D01*
X2040269Y1793264D01*
X2022958Y1833606D01*
X2008865Y1875182D01*
X1998077Y1917735D01*
X1990661Y1961004D01*
X1986663Y2004721D01*
X1986108Y2048617D01*
X1988998Y2092421D01*
X1995316Y2135864D01*
X2005023Y2178677D01*
X2018059Y2220596D01*
X2034344Y2261363D01*
X2053777Y2300727D01*
X2076239Y2338445D01*
X2101591Y2374285D01*
X2129677Y2408024D01*
X2145000Y2423740D01*
X3483583D01*
X3499299Y2408417D01*
D02*
G37*
G36*
X1699863Y1073727D02*
X1714818Y1069720D01*
X1729122Y1063795D01*
X1742531Y1056054D01*
X1754814Y1046628D01*
X1765762Y1035680D01*
X1775187Y1023397D01*
X1782929Y1009989D01*
X1788854Y995685D01*
X1792861Y980730D01*
X1794882Y965379D01*
Y306117D01*
X1792861Y290767D01*
X1788854Y275812D01*
X1782929Y261507D01*
X1775187Y248099D01*
X1765762Y235816D01*
X1754814Y224868D01*
X1742531Y215442D01*
X1729122Y207701D01*
X1714818Y201776D01*
X1699863Y197769D01*
X1684513Y195748D01*
X1676772D01*
Y195748D01*
X393701Y195748D01*
X385959Y195748D01*
X370609Y197769D01*
X355654Y201776D01*
X341350Y207701D01*
X327941Y215442D01*
X315658Y224868D01*
X304710Y235816D01*
X295285Y248099D01*
X287544Y261507D01*
X281619Y275811D01*
X277611Y290767D01*
X275591Y306117D01*
Y965379D01*
X277611Y980729D01*
X281619Y995685D01*
X287544Y1009989D01*
X295285Y1023397D01*
X304710Y1035680D01*
X315658Y1046628D01*
X327941Y1056054D01*
X341350Y1063795D01*
X355654Y1069720D01*
X370609Y1073727D01*
X385959Y1075748D01*
X393701D01*
Y1075748D01*
X1676772Y1075748D01*
X1684513Y1075748D01*
X1699863Y1073727D01*
D02*
G37*
G36*
X3485976Y1598740D02*
X3485976Y1598740D01*
X3485976D01*
X3501610Y1583324D01*
X3530361Y1550132D01*
X3556421Y1514788D01*
X3579626Y1477508D01*
X3599835Y1438522D01*
X3616923Y1398070D01*
X3630785Y1356403D01*
X3641334Y1313776D01*
X3648507Y1270453D01*
X3652259Y1226701D01*
X3652566Y1182789D01*
X3649427Y1138989D01*
X3642861Y1095570D01*
X3632909Y1052800D01*
X3619631Y1010943D01*
X3603111Y970256D01*
X3583449Y930991D01*
X3560767Y893390D01*
X3535205Y857684D01*
X3506920Y824094D01*
X3491504Y808461D01*
X2152928D01*
X2137295Y823877D01*
X2108543Y857068D01*
X2082484Y892413D01*
X2059278Y929693D01*
X2039069Y968679D01*
X2021981Y1009131D01*
X2008120Y1050798D01*
X1997570Y1093425D01*
X1990397Y1136748D01*
X1986646Y1180500D01*
X1986339Y1224411D01*
X1989478Y1268212D01*
X1996044Y1311631D01*
X2005996Y1354400D01*
X2019273Y1396258D01*
X2035794Y1436944D01*
X2055455Y1476209D01*
X2078137Y1513811D01*
X2103699Y1549516D01*
X2131984Y1583106D01*
X2147401Y1598740D01*
X3485976Y1598740D01*
D02*
G37*
G36*
X3099955Y788700D02*
X3099955Y788701D01*
X3099955D01*
X3109622Y779033D01*
X3126269Y757339D01*
X3139941Y733659D01*
X3150405Y708396D01*
X3157482Y681983D01*
X3161051Y654873D01*
Y627529D01*
X3157482Y600418D01*
X3150405Y574006D01*
X3139941Y548743D01*
X3126269Y525062D01*
X3109622Y503368D01*
X3099955Y493701D01*
X2167396D01*
X2157728Y503368D01*
X2141082Y525062D01*
X2127410Y548743D01*
X2116945Y574006D01*
X2109868Y600418D01*
X2106299Y627529D01*
Y654873D01*
X2109868Y681983D01*
X2116945Y708396D01*
X2127410Y733659D01*
X2141082Y757339D01*
X2157728Y779033D01*
X2167396Y788701D01*
X3095269Y788701D01*
X3099955Y788700D01*
D02*
G37*
G36*
Y473740D02*
X3099955Y473740D01*
X3099955D01*
X3109622Y464072D01*
X3126269Y442379D01*
X3139941Y418698D01*
X3150405Y393435D01*
X3157482Y367023D01*
X3161051Y339912D01*
Y312568D01*
X3157482Y285458D01*
X3150405Y259045D01*
X3139941Y233782D01*
X3126269Y210101D01*
X3109622Y188408D01*
X3099955Y178740D01*
X2167396D01*
X2157728Y188408D01*
X2141082Y210101D01*
X2127410Y233782D01*
X2116945Y259045D01*
X2109868Y285458D01*
X2106299Y312568D01*
Y339912D01*
X2109868Y367023D01*
X2116945Y393435D01*
X2127410Y418698D01*
X2141082Y442379D01*
X2157728Y464072D01*
X2167396Y473740D01*
X3095269Y473740D01*
X3099955Y473740D01*
D02*
G37*
%LPC*%
G36*
X515906Y3647032D02*
X412481D01*
Y3610536D01*
X515906D01*
Y3647032D01*
D02*
G37*
G36*
X402481D02*
X299055D01*
Y3610536D01*
X402481D01*
Y3647032D01*
D02*
G37*
G36*
X1774961D02*
X1671535D01*
Y3610536D01*
X1774961D01*
Y3647032D01*
D02*
G37*
G36*
X1661535D02*
X1558110D01*
Y3610536D01*
X1661535D01*
Y3647032D01*
D02*
G37*
G36*
X515906Y3600536D02*
X407481D01*
X299055D01*
Y3564040D01*
X381670D01*
X381916Y3559040D01*
X373315Y3558193D01*
X361512Y3554612D01*
X350634Y3548797D01*
X341099Y3540972D01*
X333274Y3531438D01*
X332560Y3530102D01*
X299055D01*
Y3462858D01*
X332560D01*
X333274Y3461523D01*
X341099Y3451989D01*
X350634Y3444164D01*
X361512Y3438349D01*
X373315Y3434769D01*
X381916Y3433921D01*
X381670Y3428921D01*
X299055D01*
Y3392425D01*
X407480D01*
X515906D01*
Y3428559D01*
X515906Y3428921D01*
X516779Y3433559D01*
X591148D01*
X591512Y3433365D01*
X603315Y3429784D01*
X615591Y3428575D01*
X758772D01*
X762929Y3426353D01*
X774733Y3422772D01*
X787008Y3421563D01*
X787009Y3421563D01*
X814488D01*
X817741Y3421884D01*
X818346Y3421335D01*
Y3421335D01*
X885736D01*
X886689Y3420698D01*
X890591Y3419922D01*
X968297D01*
X968956Y3420053D01*
X969628Y3420010D01*
X970591Y3420136D01*
X971554Y3420010D01*
X972225Y3420053D01*
X972885Y3419922D01*
X1097681D01*
X1098341Y3420053D01*
X1099012Y3420010D01*
X1099975Y3420136D01*
X1100938Y3420010D01*
X1101610Y3420053D01*
X1102269Y3419922D01*
X1127402D01*
X1131303Y3420698D01*
X1132256Y3421335D01*
X1196614D01*
Y3422095D01*
X1262741D01*
X1275016Y3423304D01*
X1286820Y3426885D01*
X1289983Y3428575D01*
X1395591D01*
X1400988Y3429107D01*
X1424666D01*
X1436941Y3430316D01*
X1447634Y3433559D01*
X1493120D01*
X1494115Y3428559D01*
X1492940Y3428073D01*
X1485628Y3422463D01*
X1480018Y3415151D01*
X1476492Y3406637D01*
X1475947Y3402500D01*
X1545234D01*
X1544690Y3406637D01*
X1541163Y3415151D01*
X1535553Y3422463D01*
X1528242Y3428073D01*
X1527066Y3428559D01*
X1528061Y3433559D01*
X1557236D01*
X1558110Y3428921D01*
X1558110Y3428559D01*
Y3392425D01*
X1666535D01*
X1774961D01*
Y3428921D01*
X1670456D01*
X1670210Y3433921D01*
X1678811Y3434769D01*
X1690614Y3438349D01*
X1701493Y3444164D01*
X1711027Y3451989D01*
X1718852Y3461523D01*
X1719566Y3462858D01*
X1774961D01*
Y3530102D01*
X1719566D01*
X1718852Y3531438D01*
X1711027Y3540972D01*
X1701493Y3548797D01*
X1690614Y3554612D01*
X1678811Y3558193D01*
X1670210Y3559040D01*
X1670456Y3564040D01*
X1774961D01*
Y3600536D01*
X1666535D01*
X1558110D01*
Y3564402D01*
X1558110Y3564040D01*
X1557236Y3559401D01*
X1429119D01*
X1429118Y3559402D01*
X1416843Y3558193D01*
X1406150Y3554949D01*
X1396123D01*
X1396122Y3554949D01*
X1390724Y3554417D01*
X1269221D01*
X1256946Y3553208D01*
X1245142Y3549628D01*
X1241980Y3547937D01*
X1190488D01*
X1187411Y3547634D01*
X1127402D01*
Y3540314D01*
X1084409D01*
Y3547634D01*
X1015197D01*
Y3540314D01*
X999764D01*
Y3547634D01*
X930551D01*
Y3540314D01*
X890591D01*
X887559Y3542802D01*
Y3547634D01*
X818346D01*
Y3547634D01*
X817741Y3547085D01*
X814488Y3547405D01*
X808233D01*
X804075Y3549628D01*
X792272Y3553208D01*
X779996Y3554417D01*
X718242D01*
X717878Y3554612D01*
X706074Y3558193D01*
X693799Y3559401D01*
X516779D01*
X515906Y3564040D01*
X515906Y3564402D01*
Y3600536D01*
D02*
G37*
G36*
X1545234Y3392500D02*
X1515591D01*
Y3362856D01*
X1519727Y3363401D01*
X1528242Y3366928D01*
X1535553Y3372538D01*
X1541163Y3379849D01*
X1544690Y3388363D01*
X1545234Y3392500D01*
D02*
G37*
G36*
X1505591D02*
X1475947D01*
X1476492Y3388363D01*
X1480018Y3379849D01*
X1485628Y3372538D01*
X1492940Y3366928D01*
X1501454Y3363401D01*
X1505591Y3362856D01*
Y3392500D01*
D02*
G37*
G36*
X1774961Y3382425D02*
X1671535D01*
Y3345929D01*
X1774961D01*
Y3382425D01*
D02*
G37*
G36*
X1661535D02*
X1558110D01*
Y3345929D01*
X1661535D01*
Y3382425D01*
D02*
G37*
G36*
X515906Y3382425D02*
X412480D01*
Y3345929D01*
X515906D01*
Y3382425D01*
D02*
G37*
G36*
X402480D02*
X299055D01*
Y3345929D01*
X402480D01*
Y3382425D01*
D02*
G37*
G36*
X1395591Y3419160D02*
X1385272Y3417802D01*
X1375847Y3413898D01*
X1332441D01*
Y3344685D01*
X1332441Y3344685D01*
Y3340193D01*
X1332441D01*
X1332441Y3339685D01*
Y3270980D01*
X1375847D01*
X1385272Y3267077D01*
X1395591Y3265718D01*
X1405909Y3267077D01*
X1415334Y3270980D01*
X1458740D01*
Y3339685D01*
X1458740Y3340193D01*
X1458740D01*
Y3344685D01*
X1458740D01*
Y3413898D01*
X1415334D01*
X1405909Y3417802D01*
X1395591Y3419160D01*
D02*
G37*
G36*
X694331D02*
X684012Y3417802D01*
X674587Y3413898D01*
X631181D01*
Y3344685D01*
X631181Y3344685D01*
Y3340193D01*
X631181D01*
X631181Y3339685D01*
Y3270980D01*
X674587D01*
X684012Y3267077D01*
X694331Y3265718D01*
X703934Y3266983D01*
X704650Y3267077D01*
X714074Y3270980D01*
X757480D01*
Y3339685D01*
X757481Y3340193D01*
X757481D01*
Y3344685D01*
X757480D01*
Y3413898D01*
X714074D01*
X704650Y3417802D01*
X694331Y3419160D01*
D02*
G37*
G36*
X1395591Y3233251D02*
X1385272Y3231892D01*
X1375847Y3227988D01*
X1332441D01*
Y3217988D01*
Y3158776D01*
X1332441Y3158776D01*
Y3155193D01*
X1332441D01*
X1332441Y3153776D01*
Y3085980D01*
X1375847D01*
X1385272Y3082077D01*
X1395591Y3080718D01*
X1405909Y3082077D01*
X1415334Y3085980D01*
X1458740D01*
Y3153776D01*
X1458740Y3155193D01*
X1458740D01*
Y3158776D01*
X1458740D01*
Y3217988D01*
Y3227988D01*
X1415334D01*
X1405909Y3231892D01*
X1395591Y3233251D01*
D02*
G37*
G36*
X694331D02*
X684012Y3231892D01*
X674587Y3227988D01*
X631181D01*
Y3158776D01*
X631181Y3158776D01*
Y3155193D01*
X631181D01*
X631181Y3153776D01*
Y3085980D01*
X674587D01*
X684012Y3082077D01*
X694331Y3080718D01*
X704650Y3082077D01*
X714074Y3085980D01*
X757480D01*
Y3153776D01*
X757481Y3155193D01*
X757481D01*
Y3158776D01*
X757480D01*
Y3227988D01*
X714074D01*
X704650Y3231892D01*
X694331Y3233251D01*
D02*
G37*
G36*
X1458740Y3042988D02*
X1400591D01*
Y3037622D01*
Y3013382D01*
X1458740D01*
Y3041149D01*
Y3042988D01*
D02*
G37*
G36*
X757480D02*
X699331D01*
Y3013382D01*
X757480D01*
Y3042988D01*
D02*
G37*
G36*
X1390591D02*
X1332441D01*
Y3013382D01*
X1390591D01*
Y3042988D01*
D02*
G37*
G36*
X689331D02*
X631181D01*
Y3035489D01*
Y3013382D01*
X689331D01*
Y3042988D01*
D02*
G37*
G36*
X1458740Y3003382D02*
X1400591D01*
Y2973776D01*
X1458740D01*
Y3003382D01*
D02*
G37*
G36*
X1390591D02*
X1332441D01*
Y2973776D01*
X1390591D01*
Y3003382D01*
D02*
G37*
G36*
X757480D02*
X699331D01*
Y2973776D01*
X757480D01*
Y3003382D01*
D02*
G37*
G36*
X689331D02*
X631181D01*
Y2973776D01*
X689331D01*
Y3003382D01*
D02*
G37*
%LPD*%
G36*
X1127402Y3430118D02*
X1102269D01*
X1099975Y3430420D01*
X1097681Y3430118D01*
X972885D01*
X970591Y3430420D01*
X968297Y3430118D01*
X890591D01*
Y3530118D01*
X1127402D01*
Y3430118D01*
D02*
G37*
G36*
X1425315Y3369940D02*
X1426817Y3354925D01*
X1444809D01*
X1441068Y3354432D01*
X1437720Y3352952D01*
X1434767Y3350485D01*
X1432207Y3347031D01*
X1430041Y3342591D01*
X1430006Y3342484D01*
X1430041Y3342378D01*
X1432207Y3337948D01*
X1434767Y3334503D01*
X1437720Y3332042D01*
X1441068Y3330565D01*
X1444809Y3330073D01*
X1426800D01*
X1425906Y3323349D01*
X1425315Y3314961D01*
X1425118Y3305587D01*
X1366063D01*
X1365866Y3314961D01*
X1364358Y3330073D01*
X1346372D01*
X1350113Y3330565D01*
X1353461Y3332042D01*
X1356415Y3334503D01*
X1358974Y3337948D01*
X1361140Y3342378D01*
X1361175Y3342484D01*
X1361140Y3342591D01*
X1358974Y3347031D01*
X1356415Y3350485D01*
X1353461Y3352952D01*
X1350113Y3354432D01*
X1346372Y3354925D01*
X1364389D01*
X1365275Y3361573D01*
X1365866Y3369940D01*
X1366063Y3379291D01*
X1425118D01*
X1425315Y3369940D01*
D02*
G37*
G36*
X724055D02*
X725557Y3354925D01*
X743549D01*
X739808Y3354432D01*
X736461Y3352952D01*
X733507Y3350485D01*
X730947Y3347031D01*
X728781Y3342591D01*
X728746Y3342484D01*
X728781Y3342378D01*
X730947Y3337948D01*
X733507Y3334503D01*
X736461Y3332042D01*
X739808Y3330565D01*
X743549Y3330073D01*
X725540D01*
X724646Y3323349D01*
X724055Y3314961D01*
X723858Y3305587D01*
X664803D01*
X664606Y3314961D01*
X663099Y3330073D01*
X645112D01*
X648854Y3330565D01*
X652201Y3332042D01*
X655155Y3334503D01*
X657715Y3337948D01*
X659880Y3342378D01*
X659915Y3342484D01*
X659880Y3342591D01*
X657715Y3347031D01*
X655155Y3350485D01*
X652201Y3352952D01*
X648854Y3354432D01*
X645112Y3354925D01*
X663129D01*
X664016Y3361573D01*
X664606Y3369940D01*
X664803Y3379291D01*
X723858D01*
X724055Y3369940D01*
D02*
G37*
G36*
X1425306Y3184203D02*
X1426782Y3169016D01*
X1443900D01*
X1440331Y3168531D01*
X1437138Y3167079D01*
X1434321Y3164657D01*
X1431880Y3161267D01*
X1429871Y3157030D01*
X1431880Y3152802D01*
X1434321Y3149421D01*
X1437138Y3147005D01*
X1440331Y3145556D01*
X1443900Y3145073D01*
X1426781D01*
X1425869Y3138021D01*
X1425306Y3129788D01*
X1425118Y3120587D01*
X1366063D01*
X1365875Y3129788D01*
X1364393Y3145073D01*
X1347282D01*
X1350850Y3145556D01*
X1354043Y3147005D01*
X1356860Y3149421D01*
X1359302Y3152802D01*
X1361310Y3157030D01*
X1359302Y3161267D01*
X1356860Y3164657D01*
X1354043Y3167079D01*
X1350850Y3168531D01*
X1347282Y3169016D01*
X1364408D01*
X1365312Y3175991D01*
X1365875Y3184203D01*
X1366063Y3193382D01*
X1425118D01*
X1425306Y3184203D01*
D02*
G37*
G36*
X724046D02*
X725522Y3169016D01*
X742640D01*
X739071Y3168531D01*
X735879Y3167079D01*
X733061Y3164657D01*
X730620Y3161267D01*
X728611Y3157030D01*
X730620Y3152802D01*
X733061Y3149421D01*
X735879Y3147005D01*
X739071Y3145556D01*
X742640Y3145073D01*
X725521D01*
X724610Y3138021D01*
X724046Y3129788D01*
X723858Y3120587D01*
X664803D01*
X664615Y3129788D01*
X663134Y3145073D01*
X646022D01*
X649590Y3145556D01*
X652783Y3147005D01*
X655600Y3149421D01*
X658042Y3152802D01*
X660051Y3157030D01*
X658042Y3161267D01*
X655600Y3164657D01*
X652783Y3167079D01*
X649590Y3168531D01*
X646022Y3169016D01*
X663148D01*
X664052Y3175991D01*
X664615Y3184203D01*
X664803Y3193382D01*
X723858D01*
X724046Y3184203D01*
D02*
G37*
%LPC*%
G36*
X2223113Y3619114D02*
X2119687D01*
Y3582619D01*
X2223113D01*
Y3619114D01*
D02*
G37*
G36*
X2109687D02*
X2006262D01*
Y3582619D01*
X2109687D01*
Y3619114D01*
D02*
G37*
G36*
X3470356D02*
X3366931D01*
Y3582618D01*
X3470356D01*
Y3619114D01*
D02*
G37*
G36*
X3356931D02*
X3253506D01*
Y3582618D01*
X3356931D01*
Y3619114D01*
D02*
G37*
G36*
X3470356Y3572618D02*
X3366931D01*
Y3536122D01*
X3470356D01*
Y3572618D01*
D02*
G37*
G36*
X2651795Y3529131D02*
X2651766Y3529125D01*
X2651737Y3529131D01*
X2619487Y3528946D01*
X2614490Y3529055D01*
Y3529055D01*
X2605621D01*
X2605473Y3529071D01*
X2605290Y3529055D01*
X2604752D01*
X2604370Y3529131D01*
X2603989Y3529055D01*
X2545278D01*
Y3518410D01*
X2544927Y3518223D01*
X2535392Y3510398D01*
X2527567Y3500863D01*
X2521753Y3489985D01*
X2518172Y3478181D01*
X2516963Y3465906D01*
X2518172Y3453630D01*
X2521753Y3441827D01*
X2527567Y3430948D01*
X2535392Y3421414D01*
X2544927Y3413589D01*
X2545278Y3413401D01*
Y3402756D01*
X2603989D01*
X2604370Y3402680D01*
X2604400Y3402686D01*
X2604429Y3402680D01*
X2636679Y3402865D01*
X2641675Y3402756D01*
Y3402756D01*
X2650545D01*
X2650693Y3402740D01*
X2650876Y3402756D01*
X2651414D01*
X2651795Y3402680D01*
X2652177Y3402756D01*
X2710888D01*
Y3413401D01*
X2711239Y3413589D01*
X2720774Y3421414D01*
X2728599Y3430948D01*
X2734413Y3441827D01*
X2737994Y3453630D01*
X2739203Y3465906D01*
X2737994Y3478181D01*
X2734413Y3489985D01*
X2728599Y3500863D01*
X2720774Y3510398D01*
X2711239Y3518223D01*
X2710888Y3518410D01*
Y3529055D01*
X2652177D01*
X2651795Y3529131D01*
D02*
G37*
G36*
X3356931Y3572618D02*
X3253506D01*
Y3536484D01*
X3253506Y3536122D01*
X3252632Y3531484D01*
X3120416D01*
X3108140Y3530275D01*
X3101632Y3528301D01*
X3030593Y3528753D01*
Y3529055D01*
X3020854D01*
X3020473Y3529131D01*
X3020091Y3529055D01*
X2961380D01*
Y3518410D01*
X2961029Y3518223D01*
X2951494Y3510398D01*
X2943669Y3500863D01*
X2937855Y3489984D01*
X2934274Y3478181D01*
X2933065Y3465906D01*
X2934274Y3453630D01*
X2937855Y3441827D01*
X2943669Y3430948D01*
X2951494Y3421414D01*
X2952026Y3420882D01*
X2961380Y3413205D01*
Y3402756D01*
X2993441D01*
X2996518Y3402453D01*
X3105676D01*
X3107609Y3401867D01*
X3119884Y3400658D01*
X3132159Y3401867D01*
X3143963Y3405447D01*
X3144327Y3405642D01*
X3252632D01*
X3253506Y3401004D01*
X3253506Y3400642D01*
Y3364508D01*
X3356931D01*
Y3401004D01*
X3318608D01*
X3318363Y3406004D01*
X3326963Y3406851D01*
X3338766Y3410432D01*
X3349644Y3416246D01*
X3359179Y3424071D01*
X3367004Y3433606D01*
X3367718Y3434941D01*
X3470356D01*
Y3502185D01*
X3367718D01*
X3367004Y3503520D01*
X3359179Y3513055D01*
X3349644Y3520880D01*
X3338766Y3526695D01*
X3326963Y3530275D01*
X3318363Y3531122D01*
X3318608Y3536122D01*
X3356931D01*
Y3572618D01*
D02*
G37*
G36*
X2859295Y3529131D02*
X2858914Y3529055D01*
X2849175D01*
Y3520181D01*
X2848789Y3517261D01*
X2848195Y3515920D01*
X2846944Y3514427D01*
X2844542Y3512652D01*
X2840705Y3510786D01*
X2836134Y3509297D01*
X2831563Y3510786D01*
X2827726Y3512652D01*
X2825324Y3514427D01*
X2824073Y3515920D01*
X2823479Y3517261D01*
X2823093Y3520181D01*
Y3529055D01*
X2813354D01*
X2812973Y3529131D01*
X2812591Y3529055D01*
X2753880D01*
Y3485649D01*
X2749976Y3476224D01*
X2748618Y3465906D01*
X2749976Y3455587D01*
X2753880Y3446162D01*
Y3402756D01*
X2812591D01*
X2812973Y3402680D01*
X2813354Y3402756D01*
X2823093D01*
Y3411631D01*
X2823479Y3414550D01*
X2824073Y3415891D01*
X2825324Y3417384D01*
X2827726Y3419160D01*
X2831563Y3421026D01*
X2836134Y3422514D01*
X2840705Y3421026D01*
X2844542Y3419160D01*
X2846944Y3417384D01*
X2848195Y3415891D01*
X2848789Y3414550D01*
X2849175Y3411631D01*
Y3402756D01*
X2858914D01*
X2859295Y3402680D01*
X2859677Y3402756D01*
X2918388D01*
Y3446162D01*
X2922292Y3455587D01*
X2923650Y3465906D01*
X2922292Y3476224D01*
X2918388Y3485649D01*
Y3529055D01*
X2859677D01*
X2859295Y3529131D01*
D02*
G37*
G36*
X2223113Y3572619D02*
X2006262D01*
Y3536122D01*
X2110767D01*
X2111012Y3531122D01*
X2102412Y3530275D01*
X2090608Y3526695D01*
X2079730Y3520880D01*
X2070195Y3513055D01*
X2062370Y3503520D01*
X2061657Y3502185D01*
X2006262D01*
Y3434941D01*
X2061657D01*
X2062370Y3433606D01*
X2070195Y3424071D01*
X2070951Y3423315D01*
X2080486Y3415490D01*
X2091364Y3409676D01*
X2103168Y3406095D01*
X2104092Y3406004D01*
X2103846Y3401004D01*
X2006262D01*
Y3364508D01*
X2223113D01*
Y3399886D01*
X2223113Y3401004D01*
X2225812Y3404886D01*
X2317656D01*
X2327609Y3401867D01*
X2339884Y3400658D01*
X2352159Y3401867D01*
X2354092Y3402453D01*
X2439668D01*
X2442744Y3402756D01*
X2502286D01*
Y3462298D01*
X2502589Y3465374D01*
X2502286Y3468450D01*
Y3529055D01*
X2433073D01*
Y3528295D01*
X2351966D01*
X2347931Y3529519D01*
X2335656Y3530728D01*
X2123286D01*
X2122580Y3531122D01*
X2123880Y3536122D01*
X2223113D01*
Y3572619D01*
D02*
G37*
G36*
X3470356Y3401004D02*
X3366931D01*
Y3364508D01*
X3470356D01*
Y3401004D01*
D02*
G37*
G36*
Y3354508D02*
X3366931D01*
Y3318012D01*
X3470356D01*
Y3354508D01*
D02*
G37*
G36*
X3356931D02*
X3253506D01*
Y3318012D01*
X3356931D01*
Y3354508D01*
D02*
G37*
G36*
X2223113Y3354508D02*
X2119687D01*
Y3318012D01*
X2223113D01*
Y3354508D01*
D02*
G37*
G36*
X2109687D02*
X2006262D01*
Y3318012D01*
X2109687D01*
Y3354508D01*
D02*
G37*
G36*
X3119884Y3391243D02*
X3109565Y3389884D01*
X3100141Y3385981D01*
X3056735D01*
Y3327269D01*
X3056659Y3326888D01*
X3056735Y3326506D01*
Y3316768D01*
X3065609D01*
X3068528Y3316382D01*
X3069869Y3315787D01*
X3071363Y3314536D01*
X3073138Y3312134D01*
X3075004Y3308298D01*
X3075618Y3306414D01*
X3075004Y3304529D01*
X3073138Y3300693D01*
X3071363Y3298291D01*
X3069869Y3297040D01*
X3068528Y3296445D01*
X3065609Y3296059D01*
X3056735D01*
Y3286321D01*
X3056659Y3285939D01*
X3056735Y3285558D01*
Y3226847D01*
X3100141D01*
X3109565Y3222943D01*
X3119884Y3221584D01*
X3130203Y3222943D01*
X3139627Y3226847D01*
X3183034D01*
Y3285558D01*
X3183110Y3285939D01*
X3183034Y3286321D01*
Y3296059D01*
X3174159D01*
X3171240Y3296445D01*
X3169899Y3297040D01*
X3168405Y3298291D01*
X3166630Y3300693D01*
X3164764Y3304529D01*
X3164151Y3306414D01*
X3164764Y3308298D01*
X3166630Y3312134D01*
X3168405Y3314536D01*
X3169899Y3315787D01*
X3171240Y3316382D01*
X3174159Y3316768D01*
X3183034D01*
Y3326506D01*
X3183110Y3326888D01*
X3183034Y3327269D01*
Y3385981D01*
X3139627D01*
X3130203Y3389884D01*
X3119884Y3391243D01*
D02*
G37*
G36*
X2339884D02*
X2329565Y3389884D01*
X2320141Y3385981D01*
X2276735D01*
Y3327269D01*
X2276659Y3326888D01*
X2276735Y3326506D01*
Y3316768D01*
X2285609D01*
X2288528Y3316382D01*
X2289869Y3315787D01*
X2291363Y3314536D01*
X2293138Y3312134D01*
X2295004Y3308298D01*
X2295618Y3306414D01*
X2295004Y3304529D01*
X2293138Y3300693D01*
X2291363Y3298291D01*
X2289869Y3297040D01*
X2288528Y3296445D01*
X2285609Y3296059D01*
X2276735D01*
Y3286321D01*
X2276659Y3285939D01*
X2276735Y3285558D01*
Y3226847D01*
X2320141D01*
X2329565Y3222943D01*
X2339884Y3221584D01*
X2350203Y3222943D01*
X2359627Y3226847D01*
X2403034D01*
Y3285558D01*
X2403110Y3285939D01*
X2403034Y3286321D01*
Y3296059D01*
X2394159D01*
X2391240Y3296445D01*
X2389899Y3297040D01*
X2388405Y3298291D01*
X2386630Y3300693D01*
X2384764Y3304529D01*
X2384151Y3306414D01*
X2384764Y3308298D01*
X2386630Y3312134D01*
X2388405Y3314536D01*
X2389899Y3315787D01*
X2391240Y3316382D01*
X2394159Y3316768D01*
X2403034D01*
Y3326506D01*
X2403110Y3326888D01*
X2403034Y3327269D01*
Y3385981D01*
X2359627D01*
X2350203Y3389884D01*
X2339884Y3391243D01*
D02*
G37*
G36*
X3183034Y3183854D02*
X3124884D01*
Y3154248D01*
X3183034D01*
Y3183854D01*
D02*
G37*
G36*
X3114884D02*
X3056735D01*
Y3154248D01*
X3114884D01*
Y3183854D01*
D02*
G37*
G36*
X2403034D02*
X2344884D01*
Y3154248D01*
X2403034D01*
Y3183854D01*
D02*
G37*
G36*
X2334884D02*
X2276735D01*
Y3154248D01*
X2334884D01*
Y3183854D01*
D02*
G37*
G36*
X3183034Y3144248D02*
X3124884D01*
Y3114642D01*
X3183034D01*
Y3144248D01*
D02*
G37*
G36*
X3114884D02*
X3056735D01*
Y3114642D01*
X3114884D01*
Y3144248D01*
D02*
G37*
G36*
X2403034D02*
X2344884D01*
Y3114642D01*
X2403034D01*
Y3144248D01*
D02*
G37*
G36*
X2334884D02*
X2276735D01*
Y3114642D01*
X2334884D01*
Y3144248D01*
D02*
G37*
%LPD*%
G36*
X2651795Y3518617D02*
X2676282Y3518524D01*
Y3413287D01*
X2651795Y3413147D01*
Y3412876D01*
X2651076Y3412954D01*
X2648919Y3413024D01*
X2637719Y3413067D01*
X2604370Y3412876D01*
Y3413194D01*
X2579884Y3413287D01*
Y3518524D01*
X2604370Y3518664D01*
Y3518935D01*
X2605090Y3518857D01*
X2607247Y3518787D01*
X2618447Y3518744D01*
X2651795Y3518935D01*
Y3518617D01*
D02*
G37*
G36*
X3021461Y3518756D02*
X3024428Y3518596D01*
X3119353Y3517992D01*
Y3412756D01*
X3020473Y3412876D01*
Y3518935D01*
X3021461Y3518756D01*
D02*
G37*
G36*
X2859295Y3495774D02*
X2860807Y3495668D01*
X2872028Y3495433D01*
Y3436378D01*
X2860807Y3436143D01*
X2859295Y3435993D01*
Y3412876D01*
X2858705Y3417341D01*
X2856933Y3421337D01*
X2853980Y3424862D01*
X2849847Y3427917D01*
X2844532Y3430503D01*
X2838036Y3432618D01*
X2836134Y3433025D01*
X2834233Y3432618D01*
X2827736Y3430503D01*
X2822421Y3427917D01*
X2818288Y3424862D01*
X2815335Y3421337D01*
X2813563Y3417341D01*
X2812973Y3412876D01*
Y3436037D01*
X2811461Y3436143D01*
X2800240Y3436378D01*
Y3495433D01*
X2811461Y3495668D01*
X2812973Y3495819D01*
Y3518935D01*
X2813563Y3514470D01*
X2815335Y3510474D01*
X2818288Y3506949D01*
X2822421Y3503894D01*
X2827736Y3501309D01*
X2834233Y3499193D01*
X2836134Y3498786D01*
X2838036Y3499193D01*
X2844532Y3501309D01*
X2849847Y3503894D01*
X2853980Y3506949D01*
X2856933Y3510474D01*
X2858705Y3514470D01*
X2859295Y3518935D01*
Y3495774D01*
D02*
G37*
G36*
X3149647Y3333774D02*
X3150332Y3326888D01*
X3172914D01*
X3168448Y3326297D01*
X3164453Y3324526D01*
X3160928Y3321573D01*
X3157872Y3317439D01*
X3155287Y3312124D01*
X3153428Y3306414D01*
X3155287Y3300703D01*
X3157872Y3295388D01*
X3160928Y3291254D01*
X3164453Y3288301D01*
X3168448Y3286530D01*
X3172914Y3285939D01*
X3150130D01*
X3149647Y3279053D01*
X3149412Y3267833D01*
X3090356D01*
X3090122Y3279053D01*
X3089436Y3285939D01*
X3066854D01*
X3071320Y3286530D01*
X3075315Y3288301D01*
X3078840Y3291254D01*
X3081896Y3295388D01*
X3084481Y3300703D01*
X3086340Y3306414D01*
X3084481Y3312124D01*
X3081896Y3317439D01*
X3078840Y3321573D01*
X3075315Y3324526D01*
X3071320Y3326297D01*
X3066854Y3326888D01*
X3089638D01*
X3090122Y3333774D01*
X3090356Y3344994D01*
X3149412D01*
X3149647Y3333774D01*
D02*
G37*
G36*
X2369647D02*
X2370332Y3326888D01*
X2392914D01*
X2388448Y3326297D01*
X2384453Y3324526D01*
X2380928Y3321573D01*
X2377872Y3317439D01*
X2375287Y3312124D01*
X2373428Y3306414D01*
X2375287Y3300703D01*
X2377872Y3295388D01*
X2380928Y3291254D01*
X2384453Y3288301D01*
X2388448Y3286530D01*
X2392914Y3285939D01*
X2370130D01*
X2369647Y3279053D01*
X2369412Y3267833D01*
X2310356D01*
X2310122Y3279053D01*
X2309436Y3285939D01*
X2286854D01*
X2291320Y3286530D01*
X2295315Y3288301D01*
X2298840Y3291254D01*
X2301896Y3295388D01*
X2304481Y3300703D01*
X2306340Y3306414D01*
X2304481Y3312124D01*
X2301896Y3317439D01*
X2298840Y3321573D01*
X2295315Y3324526D01*
X2291320Y3326297D01*
X2286854Y3326888D01*
X2309638D01*
X2310122Y3333774D01*
X2310356Y3344994D01*
X2369412D01*
X2369647Y3333774D01*
D02*
G37*
%LPC*%
G36*
X1759606Y2772476D02*
X1656181D01*
Y2735980D01*
X1759606D01*
Y2772476D01*
D02*
G37*
G36*
X1646181D02*
X1542756D01*
Y2735980D01*
X1646181D01*
Y2772476D01*
D02*
G37*
G36*
X512362D02*
X408937D01*
Y2735980D01*
X512362D01*
Y2772476D01*
D02*
G37*
G36*
X398937D02*
X295512D01*
Y2735980D01*
X398937D01*
Y2772476D01*
D02*
G37*
G36*
X1759606Y2725980D02*
X1651181D01*
X1542756D01*
Y2689485D01*
X1542756D01*
X1541882Y2684846D01*
X1289381D01*
X1245118Y2684940D01*
Y2685075D01*
X1236398D01*
X1235754Y2685123D01*
X1235373Y2685076D01*
X1234998Y2685151D01*
X1234617Y2685075D01*
X1175906D01*
Y2674430D01*
X1175555Y2674242D01*
X1166020Y2666417D01*
X1158195Y2656882D01*
X1152380Y2646004D01*
X1148800Y2634201D01*
X1147591Y2621925D01*
Y2450199D01*
X1147127Y2448669D01*
X1145918Y2436394D01*
Y2394849D01*
X1145456Y2317634D01*
X1145158D01*
Y2307896D01*
X1145082Y2307514D01*
X1145158Y2307132D01*
Y2248421D01*
X1155803D01*
X1155990Y2248070D01*
X1163815Y2238536D01*
X1173350Y2230711D01*
X1184228Y2224896D01*
X1196032Y2221316D01*
X1208307Y2220107D01*
X1220582Y2221316D01*
X1232386Y2224896D01*
X1243264Y2230711D01*
X1252799Y2238536D01*
X1253331Y2239067D01*
X1261007Y2248421D01*
X1271457D01*
Y2280483D01*
X1271760Y2283559D01*
Y2423120D01*
X1272224Y2424650D01*
X1273433Y2436925D01*
Y2558850D01*
X1312859Y2559004D01*
X1541882D01*
X1542756Y2554366D01*
X1542756D01*
Y2554004D01*
Y2517870D01*
X1651181D01*
X1759606D01*
Y2554366D01*
X1655102D01*
X1654857Y2559366D01*
X1663456Y2560213D01*
X1675260Y2563794D01*
X1686138Y2569608D01*
X1695673Y2577433D01*
X1703498Y2586968D01*
X1704212Y2588303D01*
X1759606D01*
Y2655547D01*
X1704212D01*
X1703498Y2656882D01*
X1695673Y2666417D01*
X1686138Y2674242D01*
X1675260Y2680057D01*
X1663456Y2683637D01*
X1654857Y2684484D01*
X1655102Y2689484D01*
X1759606D01*
Y2725980D01*
D02*
G37*
G36*
X398937Y2725980D02*
X295512D01*
Y2689484D01*
X398937D01*
Y2725980D01*
D02*
G37*
G36*
X1073821Y2685151D02*
X1073439Y2685075D01*
X1063701D01*
Y2676200D01*
X1063315Y2673281D01*
X1062720Y2671940D01*
X1061469Y2670447D01*
X1059067Y2668671D01*
X1055231Y2666805D01*
X1049908Y2665072D01*
X1043305Y2663657D01*
X1037367Y2663066D01*
X1033176Y2663622D01*
X1026411Y2665072D01*
X1021088Y2666805D01*
X1017252Y2668671D01*
X1014850Y2670447D01*
X1013599Y2671940D01*
X1013004Y2673281D01*
X1012618Y2676200D01*
Y2685075D01*
X1002880D01*
X1002498Y2685151D01*
X1002116Y2685075D01*
X943405D01*
Y2641669D01*
X939502Y2632244D01*
X938143Y2621925D01*
X939502Y2611606D01*
X943405Y2602182D01*
Y2558776D01*
X1002116D01*
X1002498Y2558700D01*
X1002880Y2558776D01*
X1012618D01*
Y2567650D01*
X1013004Y2570570D01*
X1013599Y2571911D01*
X1014850Y2573404D01*
X1017252Y2575179D01*
X1021088Y2577045D01*
X1026411Y2578779D01*
X1033013Y2580193D01*
X1038952Y2580784D01*
X1043142Y2580228D01*
X1049908Y2578779D01*
X1055231Y2577045D01*
X1059067Y2575179D01*
X1061469Y2573404D01*
X1062720Y2571911D01*
X1063315Y2570570D01*
X1063701Y2567650D01*
Y2558776D01*
X1073439D01*
X1073821Y2558700D01*
X1074202Y2558776D01*
X1132913D01*
Y2602182D01*
X1136817Y2611606D01*
X1138176Y2621925D01*
X1136817Y2632244D01*
X1132913Y2641669D01*
Y2685075D01*
X1074202D01*
X1073821Y2685151D01*
D02*
G37*
G36*
X512362Y2725980D02*
X408937D01*
Y2689484D01*
X449386D01*
X449632Y2684484D01*
X441032Y2683637D01*
X429228Y2680057D01*
X418350Y2674242D01*
X408815Y2666417D01*
X400990Y2656882D01*
X400276Y2655547D01*
X295512D01*
Y2588303D01*
X400276D01*
X400990Y2586968D01*
X408815Y2577433D01*
X418350Y2569608D01*
X429228Y2563794D01*
X441032Y2560213D01*
X449632Y2559366D01*
X449386Y2554366D01*
X408937D01*
Y2517870D01*
X512362D01*
Y2554366D01*
X512362D01*
X513236Y2559004D01*
X554438D01*
X567355Y2558977D01*
Y2437457D01*
X567407Y2436925D01*
X567355Y2436394D01*
Y2389193D01*
X567999Y2382650D01*
X568563Y2376918D01*
X569855Y2372662D01*
Y2371657D01*
Y2283559D01*
X570158Y2280483D01*
Y2248421D01*
X580607D01*
X581035Y2247900D01*
X588284Y2239067D01*
X597818Y2231242D01*
X608697Y2225428D01*
X620500Y2221847D01*
X632776Y2220638D01*
X645051Y2221847D01*
X656855Y2225428D01*
X667733Y2231242D01*
X677268Y2239067D01*
X684944Y2248421D01*
X696457D01*
Y2307132D01*
X696533Y2307514D01*
X696521Y2307575D01*
X696532Y2307635D01*
X696457Y2313950D01*
Y2317634D01*
X696413D01*
X695697Y2377763D01*
D01*
Y2386693D01*
X695210Y2391631D01*
X700038Y2393630D01*
X701020Y2392433D01*
X710555Y2384608D01*
X710905Y2384421D01*
Y2373776D01*
X769616D01*
X769998Y2373700D01*
X770020Y2373704D01*
X770042Y2373700D01*
X817685Y2373905D01*
D01*
X831201Y2373866D01*
Y2373776D01*
X839976D01*
X840491Y2373734D01*
X840856Y2373776D01*
X840939D01*
X841321Y2373700D01*
X841702Y2373776D01*
X900413D01*
Y2384421D01*
X900764Y2384608D01*
X910299Y2392433D01*
X918124Y2401968D01*
X923939Y2412846D01*
X927519Y2424650D01*
X928728Y2436925D01*
X927519Y2449201D01*
X923939Y2461004D01*
X918124Y2471882D01*
X910299Y2481417D01*
X900764Y2489242D01*
X900413Y2489430D01*
Y2500075D01*
X841702D01*
X841321Y2500151D01*
X841299Y2500146D01*
X841277Y2500151D01*
X793634Y2499946D01*
D01*
X780118Y2499985D01*
Y2500075D01*
X771343D01*
X770827Y2500117D01*
X770463Y2500075D01*
X770380D01*
X769998Y2500151D01*
X769616Y2500075D01*
X710905D01*
Y2489430D01*
X710555Y2489242D01*
X701020Y2481417D01*
X698309Y2478114D01*
D01*
X697904Y2477621D01*
X693197Y2479305D01*
Y2480112D01*
Y2517638D01*
Y2579545D01*
X697904Y2581229D01*
X701020Y2577433D01*
X710555Y2569608D01*
X710905Y2569421D01*
Y2558776D01*
X769616D01*
X769998Y2558700D01*
X770020Y2558704D01*
X770042Y2558700D01*
X817685Y2558905D01*
D01*
X831201Y2558866D01*
Y2558776D01*
X839976D01*
X840491Y2558734D01*
X840856Y2558776D01*
X840939D01*
X841321Y2558700D01*
X841702Y2558776D01*
X900413D01*
Y2569421D01*
X900764Y2569608D01*
X910299Y2577433D01*
X918124Y2586968D01*
X923939Y2597846D01*
X927519Y2609650D01*
X928728Y2621925D01*
X927519Y2634201D01*
X923939Y2646004D01*
X918124Y2656882D01*
X910299Y2666417D01*
X900764Y2674242D01*
X900413Y2674430D01*
Y2685075D01*
X841702D01*
X841321Y2685151D01*
X841299Y2685146D01*
X841277Y2685151D01*
X793634Y2684946D01*
D01*
X780118Y2684985D01*
Y2685075D01*
X771343D01*
X770827Y2685117D01*
X770463Y2685075D01*
X770380D01*
X769998Y2685151D01*
X769616Y2685075D01*
X710905D01*
Y2674430D01*
X710555Y2674242D01*
X701020Y2666417D01*
X693195Y2656882D01*
X690252Y2651376D01*
X685252D01*
X682593Y2656351D01*
X674768Y2665886D01*
X674236Y2666417D01*
X673763Y2666805D01*
X667913Y2671606D01*
D01*
Y2685075D01*
X609202D01*
X608821Y2685151D01*
X608801Y2685147D01*
X608781Y2685151D01*
X530960Y2684846D01*
X513236D01*
X512362Y2689485D01*
X512362D01*
Y2689847D01*
Y2725980D01*
D02*
G37*
G36*
X398937Y2554366D02*
X295512D01*
Y2517870D01*
X398937D01*
Y2519943D01*
Y2554366D01*
D02*
G37*
G36*
X1073821Y2500151D02*
X1073439Y2500075D01*
X1063701D01*
Y2491200D01*
X1063315Y2488281D01*
X1062720Y2486940D01*
X1061469Y2485447D01*
X1059067Y2483671D01*
X1055231Y2481805D01*
X1049908Y2480072D01*
X1043305Y2478657D01*
X1037367Y2478066D01*
X1033176Y2478622D01*
X1026411Y2480072D01*
X1021088Y2481805D01*
X1017252Y2483671D01*
X1014850Y2485447D01*
X1013599Y2486940D01*
X1013004Y2488281D01*
X1012618Y2491200D01*
Y2500075D01*
X1002880D01*
X1002498Y2500151D01*
X1002116Y2500075D01*
X943405D01*
Y2456669D01*
X939502Y2447244D01*
X938143Y2436925D01*
X939502Y2426606D01*
X943405Y2417182D01*
Y2373776D01*
X1002116D01*
X1002498Y2373700D01*
X1002880Y2373776D01*
X1012618D01*
Y2382650D01*
X1013004Y2385570D01*
X1013599Y2386911D01*
X1014850Y2388404D01*
X1017252Y2390179D01*
X1021088Y2392045D01*
X1026411Y2393779D01*
X1033013Y2395193D01*
X1038952Y2395784D01*
X1043142Y2395228D01*
X1049908Y2393779D01*
X1055231Y2392045D01*
X1059067Y2390179D01*
X1061469Y2388404D01*
X1062720Y2386911D01*
X1063315Y2385570D01*
X1063701Y2382650D01*
Y2373776D01*
X1073439D01*
X1073821Y2373700D01*
X1074202Y2373776D01*
X1132913D01*
Y2417182D01*
X1136817Y2426606D01*
X1138176Y2436925D01*
X1136817Y2447244D01*
X1132913Y2456669D01*
Y2500075D01*
X1074202D01*
X1073821Y2500151D01*
D02*
G37*
G36*
X1759606Y2507870D02*
X1656181D01*
Y2471374D01*
X1759606D01*
Y2507870D01*
D02*
G37*
G36*
X1646181D02*
X1542756D01*
Y2471374D01*
X1646181D01*
Y2507870D01*
D02*
G37*
G36*
X512362Y2507870D02*
X408937D01*
Y2471374D01*
X512362D01*
Y2507870D01*
D02*
G37*
G36*
X398937D02*
X295512D01*
Y2471374D01*
X398937D01*
Y2507870D01*
D02*
G37*
G36*
X1208307Y2210691D02*
X1197988Y2209333D01*
X1188564Y2205429D01*
X1145158D01*
Y2146718D01*
X1145082Y2146337D01*
X1145158Y2145955D01*
Y2136217D01*
X1154032D01*
X1156951Y2135831D01*
X1158292Y2135236D01*
X1159786Y2133985D01*
X1161561Y2131583D01*
X1163427Y2127747D01*
X1165160Y2122423D01*
X1166575Y2115821D01*
X1167024Y2111311D01*
X1166610Y2108192D01*
X1165160Y2101427D01*
X1163427Y2096104D01*
X1161561Y2092267D01*
X1159786Y2089866D01*
X1158292Y2088615D01*
X1156951Y2088020D01*
X1154032Y2087634D01*
X1145158D01*
Y2077896D01*
X1145082Y2077514D01*
X1145158Y2077132D01*
Y2018421D01*
X1188564D01*
X1197988Y2014517D01*
X1208307Y2013159D01*
X1218626Y2014517D01*
X1228050Y2018421D01*
X1271457D01*
Y2077132D01*
X1271533Y2077514D01*
X1271457Y2077896D01*
Y2087634D01*
X1262582D01*
X1259663Y2088020D01*
X1258322Y2088615D01*
X1256828Y2089866D01*
X1255053Y2092267D01*
X1253187Y2096104D01*
X1251454Y2101427D01*
X1250039Y2108029D01*
X1249590Y2112539D01*
X1250004Y2115658D01*
X1251454Y2122423D01*
X1253187Y2127747D01*
X1255053Y2131583D01*
X1256828Y2133985D01*
X1258322Y2135236D01*
X1259663Y2135831D01*
X1262582Y2136217D01*
X1271457D01*
Y2145955D01*
X1271533Y2146337D01*
X1271457Y2146718D01*
Y2205429D01*
X1228050D01*
X1218626Y2209333D01*
X1208307Y2210691D01*
D02*
G37*
G36*
X688307Y2215625D02*
X578307D01*
X574405Y2214849D01*
X571097Y2212639D01*
X568887Y2209331D01*
X568111Y2205429D01*
Y2018421D01*
X568887Y2014520D01*
X571097Y2011212D01*
X574405Y2009002D01*
X578307Y2008225D01*
X688307D01*
X692209Y2009002D01*
X695517Y2011212D01*
X697727Y2014520D01*
X698503Y2018421D01*
Y2198535D01*
Y2205429D01*
X697727Y2209331D01*
X695517Y2212639D01*
X692209Y2214849D01*
X688307Y2215625D01*
D02*
G37*
G36*
X1271457Y1975429D02*
X1213307D01*
Y1945823D01*
X1271457D01*
Y1973590D01*
Y1975429D01*
D02*
G37*
G36*
X696457D02*
X638307D01*
Y1945823D01*
X696457D01*
Y1975429D01*
D02*
G37*
G36*
X1203307D02*
X1145158D01*
Y1945823D01*
X1203307D01*
Y1975429D01*
D02*
G37*
G36*
X628307D02*
X570158D01*
Y1945823D01*
X628307D01*
Y1975429D01*
D02*
G37*
G36*
X1271457Y1935823D02*
X1213307D01*
Y1906217D01*
X1271457D01*
Y1935823D01*
D02*
G37*
G36*
X1203307D02*
X1145158D01*
Y1906217D01*
X1203307D01*
Y1935823D01*
D02*
G37*
G36*
X696457D02*
X638307D01*
Y1906217D01*
X696457D01*
Y1935823D01*
D02*
G37*
G36*
X628307D02*
X570158D01*
Y1906217D01*
X628307D01*
Y1935823D01*
D02*
G37*
%LPD*%
G36*
X1236051Y2674877D02*
X1244469Y2674745D01*
X1340234Y2674543D01*
Y2569307D01*
X1234998Y2568896D01*
Y2674955D01*
X1236051Y2674877D01*
D02*
G37*
G36*
X1261337Y2307514D02*
X1155277D01*
X1155457Y2308566D01*
X1155617Y2311723D01*
X1156220Y2412750D01*
X1261457D01*
X1261337Y2307514D01*
D02*
G37*
G36*
X1073821Y2568896D02*
X1073230Y2573361D01*
X1071459Y2577356D01*
X1068506Y2580882D01*
X1064372Y2583937D01*
X1059057Y2586522D01*
X1052561Y2588637D01*
X1044884Y2590283D01*
X1039120Y2591047D01*
X1031435Y2590283D01*
X1023758Y2588637D01*
X1017262Y2586522D01*
X1011947Y2583937D01*
X1007813Y2580882D01*
X1004860Y2577356D01*
X1003089Y2573361D01*
X1002498Y2568896D01*
Y2674955D01*
X1003089Y2670490D01*
X1004860Y2666494D01*
X1007813Y2662969D01*
X1011947Y2659914D01*
X1017262Y2657328D01*
X1023758Y2655213D01*
X1031435Y2653568D01*
X1037199Y2652803D01*
X1044884Y2653568D01*
X1052561Y2655213D01*
X1059057Y2657328D01*
X1064372Y2659914D01*
X1068506Y2662969D01*
X1071459Y2666494D01*
X1073230Y2670490D01*
X1073821Y2674955D01*
Y2568896D01*
D02*
G37*
G36*
X841321Y2674613D02*
X865807Y2674543D01*
Y2569307D01*
X841321Y2569202D01*
Y2568896D01*
X840363Y2568974D01*
X837488Y2569044D01*
X817685Y2569101D01*
X769998Y2568896D01*
Y2569237D01*
X745512Y2569307D01*
Y2674543D01*
X769998Y2674649D01*
Y2674955D01*
X770956Y2674877D01*
X773831Y2674807D01*
X793634Y2674750D01*
X841321Y2674955D01*
Y2674613D01*
D02*
G37*
G36*
X608821Y2568896D02*
X607768Y2568974D01*
X599350Y2569106D01*
X503585Y2569307D01*
Y2674543D01*
X608821Y2674955D01*
Y2568896D01*
D02*
G37*
G36*
X841321Y2489613D02*
X865807Y2489543D01*
Y2384307D01*
X841321Y2384202D01*
Y2383896D01*
X840363Y2383974D01*
X837488Y2384044D01*
X817685Y2384101D01*
X769998Y2383896D01*
Y2384237D01*
X745512Y2384307D01*
Y2489543D01*
X769998Y2489649D01*
Y2489955D01*
X770956Y2489877D01*
X773831Y2489807D01*
X793634Y2489750D01*
X841321Y2489955D01*
Y2489613D01*
D02*
G37*
G36*
X683001Y2517638D02*
Y2479305D01*
X683050Y2479056D01*
X683013Y2478805D01*
X683307Y2477631D01*
Y2444199D01*
X682591Y2436925D01*
X683307Y2429652D01*
Y2386693D01*
X685394D01*
X686337Y2307514D01*
X683307D01*
Y2258375D01*
X682512Y2258133D01*
X681043Y2257841D01*
X680622Y2257560D01*
X680138Y2257413D01*
X678980Y2256463D01*
X677735Y2255631D01*
X677454Y2255210D01*
X677063Y2254890D01*
X675215Y2252638D01*
X590337Y2252638D01*
X588488Y2254890D01*
X588097Y2255210D01*
X587817Y2255631D01*
X586571Y2256463D01*
X585413Y2257413D01*
X584929Y2257560D01*
X584509Y2257841D01*
X583039Y2258133D01*
X581606Y2258568D01*
X580353Y2263356D01*
Y2280483D01*
X580255Y2280979D01*
X580304Y2281482D01*
X580050Y2284060D01*
Y2372662D01*
X579758Y2374131D01*
X579611Y2375622D01*
X578612Y2378917D01*
X578307Y2382011D01*
X578307Y2517638D01*
X683001Y2517638D01*
D02*
G37*
G36*
X1073821Y2383896D02*
X1073230Y2388361D01*
X1071459Y2392356D01*
X1068506Y2395882D01*
X1064372Y2398937D01*
X1059057Y2401522D01*
X1052561Y2403637D01*
X1044884Y2405283D01*
X1039120Y2406047D01*
X1031435Y2405283D01*
X1023758Y2403637D01*
X1017262Y2401522D01*
X1011947Y2398937D01*
X1007813Y2395882D01*
X1004860Y2392356D01*
X1003089Y2388361D01*
X1002498Y2383896D01*
Y2489955D01*
X1003089Y2485490D01*
X1004860Y2481494D01*
X1007813Y2477969D01*
X1011947Y2474914D01*
X1017262Y2472328D01*
X1023758Y2470213D01*
X1031435Y2468568D01*
X1037199Y2467803D01*
X1044884Y2468568D01*
X1052561Y2470213D01*
X1059057Y2472328D01*
X1064372Y2474914D01*
X1068506Y2477969D01*
X1071459Y2481494D01*
X1073230Y2485490D01*
X1073821Y2489955D01*
Y2383896D01*
D02*
G37*
G36*
X1256871Y2145746D02*
X1252876Y2143974D01*
X1249351Y2141022D01*
X1246295Y2136888D01*
X1243710Y2131573D01*
X1241595Y2125077D01*
X1239950Y2117400D01*
X1239327Y2112707D01*
X1239950Y2106451D01*
X1241595Y2098774D01*
X1243710Y2092278D01*
X1246295Y2086963D01*
X1249351Y2082829D01*
X1252876Y2079876D01*
X1256871Y2078104D01*
X1261337Y2077514D01*
X1155277D01*
X1159743Y2078104D01*
X1163738Y2079876D01*
X1167264Y2082829D01*
X1170319Y2086963D01*
X1172904Y2092278D01*
X1175019Y2098774D01*
X1176664Y2106451D01*
X1177287Y2111143D01*
X1176664Y2117400D01*
X1175019Y2125077D01*
X1172904Y2131573D01*
X1170319Y2136888D01*
X1167264Y2141022D01*
X1163738Y2143974D01*
X1159743Y2145746D01*
X1155277Y2146337D01*
X1261337D01*
X1256871Y2145746D01*
D02*
G37*
G36*
X688307Y2018421D02*
X578307D01*
Y2205429D01*
X688307D01*
Y2018421D01*
D02*
G37*
%LPC*%
G36*
X2235181Y2936862D02*
X2131756D01*
Y2900366D01*
X2235181D01*
Y2936862D01*
D02*
G37*
G36*
X2121756D02*
X2018331D01*
Y2900366D01*
X2121756D01*
Y2936862D01*
D02*
G37*
G36*
X3482168D02*
X3378742D01*
Y2900366D01*
X3482168D01*
Y2936862D01*
D02*
G37*
G36*
X3368742D02*
X3265317D01*
Y2900366D01*
X3368742D01*
Y2936862D01*
D02*
G37*
G36*
X2733311Y2856293D02*
X2733289Y2856288D01*
X2733267Y2856293D01*
X2686462Y2856088D01*
X2673506Y2856126D01*
Y2856217D01*
X2664724D01*
X2664228Y2856258D01*
X2663868Y2856217D01*
X2663768D01*
X2663386Y2856293D01*
X2663005Y2856217D01*
X2604294D01*
Y2845572D01*
X2603943Y2845384D01*
X2594408Y2837559D01*
X2586583Y2828024D01*
X2580768Y2817146D01*
X2577188Y2805342D01*
X2575979Y2793067D01*
X2577188Y2780792D01*
X2580768Y2768988D01*
X2586583Y2758110D01*
X2594408Y2748575D01*
X2603943Y2740750D01*
X2604294Y2740563D01*
Y2729918D01*
X2663005D01*
X2663386Y2729842D01*
X2663408Y2729846D01*
X2663430Y2729842D01*
X2710235Y2730046D01*
X2723191Y2730008D01*
Y2729918D01*
X2731973D01*
X2732470Y2729876D01*
X2732829Y2729918D01*
X2732930D01*
X2733311Y2729842D01*
X2733693Y2729918D01*
X2792404D01*
Y2740563D01*
X2792755Y2740750D01*
X2802289Y2748575D01*
X2810115Y2758110D01*
X2815929Y2768988D01*
X2819510Y2780792D01*
X2820719Y2793067D01*
X2819510Y2805342D01*
X2815929Y2817146D01*
X2810115Y2828024D01*
X2802289Y2837559D01*
X2792755Y2845384D01*
X2792404Y2845572D01*
Y2856217D01*
X2733693D01*
X2733311Y2856293D01*
D02*
G37*
G36*
X3482168Y2890366D02*
X3378742D01*
Y2853870D01*
X3482168D01*
Y2890366D01*
D02*
G37*
G36*
X3368742D02*
X3265317D01*
Y2854232D01*
X3265317Y2853870D01*
X3264443Y2849232D01*
X3052782D01*
X3049776Y2848936D01*
X2904608Y2848936D01*
Y2856217D01*
X2835396D01*
Y2729918D01*
X2838362D01*
X2838378Y2729838D01*
X2840588Y2726530D01*
X2843896Y2724320D01*
X2847798Y2723544D01*
X3051215Y2723544D01*
X3052782Y2723390D01*
X3264443D01*
X3265317Y2718752D01*
X3265317Y2718390D01*
Y2682256D01*
X3368742D01*
Y2718752D01*
X3295892D01*
X3295646Y2723752D01*
X3304246Y2724599D01*
X3316050Y2728180D01*
X3326928Y2733994D01*
X3336463Y2741819D01*
X3344288Y2751354D01*
X3345001Y2752689D01*
X3482168D01*
Y2819933D01*
X3345001D01*
X3344288Y2821268D01*
X3336463Y2830803D01*
X3326928Y2838628D01*
X3316050Y2844443D01*
X3304246Y2848023D01*
X3295646Y2848870D01*
X3295892Y2853870D01*
X3368742D01*
Y2890366D01*
D02*
G37*
G36*
X2235181Y2890366D02*
X2126756D01*
X2018331D01*
Y2853870D01*
X2110952D01*
X2111694Y2848870D01*
X2105106Y2846872D01*
X2094228Y2841057D01*
X2084693Y2833232D01*
X2082264Y2830803D01*
X2074439Y2821268D01*
X2073725Y2819933D01*
X2018331D01*
Y2752689D01*
X2073725D01*
X2074439Y2751354D01*
X2082264Y2741819D01*
X2091799Y2733994D01*
X2102677Y2728180D01*
X2114480Y2724599D01*
X2123081Y2723752D01*
X2122835Y2718752D01*
X2018331D01*
Y2682256D01*
X2126756D01*
X2235181D01*
Y2718752D01*
X2130676D01*
X2130430Y2723752D01*
X2139031Y2724599D01*
X2143053Y2725819D01*
X2320242D01*
X2332518Y2727028D01*
X2338707Y2728906D01*
X2366286D01*
X2378562Y2730115D01*
X2380883Y2730819D01*
X2492089D01*
Y2729918D01*
X2561301D01*
Y2784595D01*
X2562136Y2793067D01*
X2561301Y2801540D01*
Y2856217D01*
X2503056D01*
X2498542Y2856661D01*
X2368200D01*
X2355924Y2855452D01*
X2353602Y2854748D01*
X2323329D01*
X2311054Y2853539D01*
X2304864Y2851661D01*
X2239266D01*
X2235181Y2853870D01*
X2235181Y2856661D01*
Y2890366D01*
D02*
G37*
G36*
X2403821Y2713697D02*
X2345671D01*
Y2684090D01*
X2403821D01*
Y2713697D01*
D02*
G37*
G36*
X3165947D02*
X3107798D01*
Y2684090D01*
X3165947D01*
Y2713697D01*
D02*
G37*
G36*
X2335671D02*
X2277522D01*
Y2684090D01*
X2335671D01*
Y2713697D01*
D02*
G37*
G36*
X3097798D02*
X3039648D01*
Y2684090D01*
X3097798D01*
Y2713697D01*
D02*
G37*
G36*
X3482168Y2718752D02*
X3378742D01*
Y2682256D01*
X3482168D01*
Y2718752D01*
D02*
G37*
G36*
X3165947Y2674090D02*
X3107798D01*
Y2644484D01*
X3165947D01*
Y2674090D01*
D02*
G37*
G36*
X3097798D02*
X3039648D01*
Y2644484D01*
X3097798D01*
Y2674090D01*
D02*
G37*
G36*
X2403821D02*
X2345671D01*
Y2644484D01*
X2403821D01*
Y2674090D01*
D02*
G37*
G36*
X2335671D02*
X2277522D01*
Y2644484D01*
X2335671D01*
Y2674090D01*
D02*
G37*
G36*
X3482168Y2672256D02*
X3378742D01*
Y2635760D01*
X3482168D01*
Y2672256D01*
D02*
G37*
G36*
X3368742D02*
X3265317D01*
Y2635760D01*
X3368742D01*
Y2672256D01*
D02*
G37*
G36*
X2235181Y2672256D02*
X2131756D01*
Y2635760D01*
X2235181D01*
Y2672256D01*
D02*
G37*
G36*
X2121756D02*
X2018331D01*
Y2635760D01*
X2121756D01*
Y2672256D01*
D02*
G37*
%LPD*%
G36*
X2733311Y2845756D02*
X2757798Y2845685D01*
Y2740449D01*
X2733311Y2740342D01*
Y2740037D01*
X2732367Y2740116D01*
X2729535Y2740186D01*
X2710234Y2740242D01*
X2663386Y2740037D01*
Y2740378D01*
X2638900Y2740449D01*
Y2845685D01*
X2663386Y2845792D01*
Y2846097D01*
X2664330Y2846019D01*
X2667163Y2845949D01*
X2686463Y2845892D01*
X2733311Y2846097D01*
Y2845756D01*
D02*
G37*
G36*
X3172798Y2733740D02*
X2847798Y2733740D01*
X2847797Y2838740D01*
X3172797Y2838740D01*
X3172798Y2733740D01*
D02*
G37*
%LPC*%
G36*
X3165947Y2825902D02*
X3107798D01*
Y2796295D01*
X3165947D01*
Y2825902D01*
D02*
G37*
G36*
X3097798D02*
X3039648D01*
Y2796295D01*
X3097798D01*
Y2825902D01*
D02*
G37*
G36*
X3165947Y2786295D02*
X3107798D01*
Y2756689D01*
X3165947D01*
Y2786295D01*
D02*
G37*
G36*
X3097798D02*
X3039648D01*
Y2756689D01*
X3097798D01*
Y2786295D01*
D02*
G37*
G36*
X1771417Y1743480D02*
X1667992D01*
Y1706984D01*
X1771417D01*
Y1743480D01*
D02*
G37*
G36*
X1657992D02*
X1554567D01*
Y1706984D01*
X1657992D01*
Y1743480D01*
D02*
G37*
G36*
X524843Y1737244D02*
X421417D01*
Y1700748D01*
X524843D01*
Y1701647D01*
Y1737244D01*
D02*
G37*
G36*
X411417D02*
X307992D01*
Y1700748D01*
X411417D01*
Y1737244D01*
D02*
G37*
G36*
X1091931Y1658974D02*
X1091550Y1658898D01*
X1081811D01*
Y1650023D01*
X1081425Y1647104D01*
X1080830Y1645763D01*
X1079579Y1644269D01*
X1077178Y1642494D01*
X1073341Y1640628D01*
X1068018Y1638895D01*
X1061416Y1637480D01*
X1044256Y1635773D01*
X1035830Y1636364D01*
X1027684Y1637445D01*
X1020919Y1638895D01*
X1015596Y1640628D01*
X1011760Y1642494D01*
X1009358Y1644269D01*
X1008107Y1645763D01*
X1007512Y1647104D01*
X1007126Y1650023D01*
Y1658898D01*
X997388D01*
X997006Y1658974D01*
X996624Y1658898D01*
X937913D01*
Y1615491D01*
X934010Y1606067D01*
X932651Y1595748D01*
X934010Y1585429D01*
X937913Y1576005D01*
Y1532599D01*
X996624D01*
X997006Y1532523D01*
X997388Y1532599D01*
X1007126D01*
Y1541473D01*
X1007512Y1544392D01*
X1008107Y1545733D01*
X1009358Y1547227D01*
X1011760Y1549002D01*
X1015596Y1550868D01*
X1020919Y1552601D01*
X1027521Y1554016D01*
X1044681Y1555723D01*
X1053107Y1555132D01*
X1061253Y1554051D01*
X1068018Y1552601D01*
X1073341Y1550868D01*
X1077178Y1549002D01*
X1079579Y1547227D01*
X1080830Y1545733D01*
X1081425Y1544392D01*
X1081811Y1541473D01*
Y1532599D01*
X1091550D01*
X1091931Y1532523D01*
X1092313Y1532599D01*
X1151024D01*
Y1576005D01*
X1154928Y1585429D01*
X1156286Y1595748D01*
X1154928Y1606067D01*
X1151024Y1615491D01*
Y1658898D01*
X1092313D01*
X1091931Y1658974D01*
D02*
G37*
G36*
X524843Y1690748D02*
X416417D01*
X307992D01*
Y1654252D01*
X401608D01*
X402350Y1649252D01*
X392339Y1646215D01*
X381460Y1640401D01*
X371925Y1632576D01*
X364100Y1623041D01*
X362643Y1620315D01*
X307992D01*
Y1553071D01*
X364146D01*
X371925Y1543592D01*
X381460Y1535767D01*
X392339Y1529952D01*
X404142Y1526372D01*
X416417Y1525163D01*
X443753D01*
X456028Y1526372D01*
X467832Y1529952D01*
X477182Y1534950D01*
X699565D01*
X705237Y1535509D01*
X707237Y1530681D01*
X702281Y1526614D01*
X694234Y1516809D01*
X693518Y1515470D01*
X684882D01*
Y1505469D01*
Y1494503D01*
X684573Y1493486D01*
X683330Y1480863D01*
Y1452153D01*
X681998Y1450159D01*
X681221Y1446257D01*
X681221Y1379147D01*
X681997Y1375245D01*
X683330Y1373250D01*
Y1344540D01*
X684573Y1331918D01*
X684882Y1330901D01*
Y1309934D01*
X693518D01*
X694234Y1308594D01*
X702281Y1298790D01*
X712086Y1290743D01*
X723271Y1284764D01*
X735409Y1281082D01*
X748032Y1279839D01*
X760654Y1281082D01*
X772792Y1284764D01*
X783978Y1290743D01*
X793782Y1298790D01*
X801829Y1308594D01*
X802545Y1309934D01*
X811181D01*
Y1330901D01*
X811490Y1331918D01*
X812733Y1344540D01*
Y1371340D01*
X813627Y1371937D01*
X815837Y1375245D01*
X816613Y1379147D01*
Y1446257D01*
X815837Y1450159D01*
X813627Y1453467D01*
X812733Y1454064D01*
Y1480863D01*
X811490Y1493486D01*
X811181Y1494503D01*
Y1515470D01*
X802545D01*
X801829Y1516809D01*
X793782Y1526614D01*
X783978Y1534660D01*
X772792Y1540639D01*
X760654Y1544321D01*
X748032Y1545565D01*
X741651Y1544936D01*
X739651Y1549764D01*
X744057Y1553379D01*
X748228Y1558462D01*
X777650D01*
X777838Y1558111D01*
X785663Y1548576D01*
X795198Y1540751D01*
X806076Y1534937D01*
X817879Y1531356D01*
X830155Y1530147D01*
X842430Y1531356D01*
X846526Y1532599D01*
X894921D01*
Y1543244D01*
X895272Y1543431D01*
X904807Y1551256D01*
X912632Y1560791D01*
X918447Y1571669D01*
X922027Y1583473D01*
X923236Y1595748D01*
X922027Y1608023D01*
X918447Y1619827D01*
X912632Y1630705D01*
X904807Y1640240D01*
X895272Y1648065D01*
X894921Y1648253D01*
Y1658898D01*
X825709D01*
Y1657967D01*
X820559Y1657460D01*
X808756Y1653880D01*
X797878Y1648065D01*
X788343Y1640240D01*
X785663Y1637560D01*
X777838Y1628025D01*
X777650Y1627674D01*
X754637D01*
X751882Y1632828D01*
X744057Y1642363D01*
X734523Y1650188D01*
X723644Y1656003D01*
X711841Y1659583D01*
X699565Y1660792D01*
X524843D01*
Y1690748D01*
D02*
G37*
G36*
X1771417Y1696984D02*
X1662992D01*
X1554567D01*
Y1664179D01*
X1477719D01*
X1465444Y1662970D01*
X1460157Y1661366D01*
X1431949D01*
X1419674Y1660157D01*
X1416521Y1659201D01*
X1229154D01*
X1226077Y1658898D01*
X1194016D01*
Y1648448D01*
X1184662Y1640772D01*
X1184130Y1640240D01*
X1176305Y1630705D01*
X1170491Y1619827D01*
X1166910Y1608023D01*
X1165701Y1595748D01*
X1166910Y1583473D01*
X1170491Y1571669D01*
X1176305Y1560791D01*
X1184130Y1551256D01*
X1193665Y1543431D01*
X1194016Y1543244D01*
Y1532599D01*
X1252727D01*
X1253108Y1532523D01*
X1253154Y1532532D01*
X1253200Y1532523D01*
X1261625Y1532599D01*
X1263228D01*
Y1532613D01*
X1346439Y1533359D01*
X1392659D01*
X1394448Y1528359D01*
X1386926Y1522185D01*
X1385391Y1520315D01*
X1368268D01*
Y1482716D01*
Y1461604D01*
X1368192Y1461222D01*
X1368196Y1461202D01*
X1368192Y1461182D01*
X1368441Y1397377D01*
X1368403Y1379147D01*
X1368268D01*
Y1370427D01*
X1368220Y1369782D01*
X1368267Y1369402D01*
X1368192Y1369027D01*
X1368268Y1368645D01*
Y1309934D01*
X1378913D01*
X1379100Y1309583D01*
X1386926Y1300048D01*
X1396460Y1292223D01*
X1407339Y1286409D01*
X1419142Y1282828D01*
X1431417Y1281619D01*
X1443693Y1282828D01*
X1455496Y1286409D01*
X1466374Y1292223D01*
X1475909Y1300048D01*
X1483734Y1309583D01*
X1483922Y1309934D01*
X1494567D01*
Y1368645D01*
X1494643Y1369027D01*
X1494639Y1369047D01*
X1494643Y1369066D01*
X1494393Y1432872D01*
X1494432Y1451102D01*
X1494567D01*
Y1459822D01*
X1494615Y1460467D01*
X1494568Y1460847D01*
X1494643Y1461222D01*
X1494567Y1461604D01*
Y1479366D01*
Y1520315D01*
X1477444D01*
X1475909Y1522185D01*
X1466374Y1530010D01*
X1465133Y1530674D01*
X1466348Y1535524D01*
X1474906D01*
X1487181Y1536733D01*
X1492468Y1538337D01*
X1543187D01*
X1548393Y1535554D01*
X1560197Y1531973D01*
X1572472Y1530764D01*
X1674079D01*
X1674785Y1530370D01*
X1673484Y1525370D01*
X1667992D01*
Y1488874D01*
X1771417D01*
Y1525370D01*
X1686598D01*
X1686352Y1530370D01*
X1694953Y1531217D01*
X1706756Y1534798D01*
X1717634Y1540612D01*
X1727169Y1548437D01*
X1734994Y1557972D01*
X1735708Y1559307D01*
X1771417D01*
Y1626551D01*
X1735708D01*
X1734994Y1627886D01*
X1727169Y1637421D01*
X1726413Y1638177D01*
X1716878Y1646002D01*
X1706000Y1651817D01*
X1694197Y1655397D01*
X1693273Y1655488D01*
X1693518Y1660488D01*
X1771417D01*
Y1696984D01*
D02*
G37*
G36*
X1657992Y1525370D02*
X1554567D01*
Y1488874D01*
X1657992D01*
Y1525370D01*
D02*
G37*
G36*
X524843Y1519134D02*
X421417D01*
Y1488874D01*
Y1482638D01*
X524843D01*
Y1519134D01*
D02*
G37*
G36*
X411417D02*
X307992D01*
Y1482638D01*
X411417D01*
Y1488874D01*
Y1519134D01*
D02*
G37*
G36*
X1771417Y1478874D02*
X1667992D01*
Y1442378D01*
X1771417D01*
Y1478874D01*
D02*
G37*
G36*
X1657992D02*
X1554567D01*
Y1442378D01*
X1657992D01*
Y1478874D01*
D02*
G37*
G36*
X524843Y1472638D02*
X421417D01*
Y1436142D01*
X524843D01*
Y1472638D01*
D02*
G37*
G36*
X411417D02*
X307992D01*
Y1436142D01*
X411417D01*
Y1472638D01*
D02*
G37*
G36*
X1494567Y1266942D02*
X1436417D01*
Y1237336D01*
X1494567D01*
Y1256728D01*
Y1266942D01*
D02*
G37*
G36*
X811181D02*
X753032D01*
Y1237336D01*
X811181D01*
Y1250748D01*
Y1266942D01*
D02*
G37*
G36*
X1426417D02*
X1368268D01*
Y1237336D01*
X1426417D01*
Y1266942D01*
D02*
G37*
G36*
X743032D02*
X684882D01*
Y1250748D01*
Y1237336D01*
X743032D01*
Y1266942D01*
D02*
G37*
G36*
X1494567Y1227336D02*
X1436417D01*
Y1197729D01*
X1494567D01*
Y1227336D01*
D02*
G37*
G36*
X1426417D02*
X1368268D01*
Y1197729D01*
X1426417D01*
Y1227336D01*
D02*
G37*
G36*
X811181D02*
X753032D01*
Y1197729D01*
X811181D01*
Y1227336D01*
D02*
G37*
G36*
X743032D02*
X684882D01*
Y1197729D01*
X743032D01*
Y1227336D01*
D02*
G37*
%LPD*%
G36*
X1091931Y1542718D02*
X1091341Y1547184D01*
X1089569Y1551179D01*
X1086616Y1554705D01*
X1082482Y1557760D01*
X1077167Y1560345D01*
X1070671Y1562460D01*
X1062994Y1564105D01*
X1054136Y1565281D01*
X1044533Y1565955D01*
X1025943Y1564105D01*
X1018266Y1562460D01*
X1011770Y1560345D01*
X1006455Y1557760D01*
X1002321Y1554705D01*
X999368Y1551179D01*
X997597Y1547184D01*
X997006Y1542718D01*
Y1648778D01*
X997597Y1644312D01*
X999368Y1640317D01*
X1002321Y1636792D01*
X1006455Y1633736D01*
X1011770Y1631151D01*
X1018266Y1629036D01*
X1025943Y1627391D01*
X1034801Y1626216D01*
X1044404Y1625541D01*
X1062994Y1627391D01*
X1070671Y1629036D01*
X1077167Y1631151D01*
X1082482Y1633736D01*
X1086616Y1636792D01*
X1089569Y1640317D01*
X1091341Y1644312D01*
X1091931Y1648778D01*
Y1542718D01*
D02*
G37*
G36*
X753032Y1446257D02*
X806417D01*
Y1379147D01*
X753032D01*
Y1344540D01*
X743032D01*
Y1379147D01*
X691417D01*
X691417Y1446257D01*
X743032D01*
Y1480863D01*
X753032D01*
Y1446257D01*
D02*
G37*
G36*
X1358345Y1543661D02*
X1253108Y1542718D01*
Y1648778D01*
X1358345Y1648898D01*
Y1543661D01*
D02*
G37*
G36*
X1484086Y1461222D02*
X1484447D01*
X1484369Y1460170D01*
X1484237Y1451751D01*
X1484197Y1432871D01*
X1484447Y1369027D01*
X1484063D01*
X1484035Y1355986D01*
X1378799D01*
X1378748Y1369027D01*
X1378388D01*
X1378466Y1370079D01*
X1378598Y1378498D01*
X1378637Y1397378D01*
X1378388Y1461222D01*
X1378772D01*
X1378799Y1474263D01*
X1484035D01*
X1484086Y1461222D01*
D02*
G37*
%LPC*%
G36*
X2098307Y2083579D02*
X2084114Y2081711D01*
X2070887Y2076232D01*
X2059530Y2067517D01*
X2050815Y2056160D01*
X2045336Y2042934D01*
X2043468Y2028740D01*
X2045336Y2014547D01*
X2050815Y2001321D01*
X2059530Y1989963D01*
X2070887Y1981248D01*
X2084114Y1975770D01*
X2098307Y1973901D01*
X2112501Y1975770D01*
X2125727Y1981248D01*
X2137084Y1989963D01*
X2145799Y2001321D01*
X2151278Y2014547D01*
X2153146Y2028740D01*
X2151278Y2042934D01*
X2145799Y2056160D01*
X2137084Y2067517D01*
X2125727Y2076232D01*
X2112501Y2081711D01*
X2098307Y2083579D01*
D02*
G37*
G36*
X522205Y970649D02*
X418779D01*
Y934154D01*
X522205D01*
Y970649D01*
D02*
G37*
G36*
X408779D02*
X305354D01*
Y934154D01*
X408779D01*
Y970649D01*
D02*
G37*
G36*
X1761575D02*
X1658150D01*
Y934154D01*
X1761575D01*
Y970649D01*
D02*
G37*
G36*
X1648150D02*
X1544724D01*
Y934154D01*
X1648150D01*
Y970649D01*
D02*
G37*
G36*
X1761575Y924154D02*
X1658150D01*
Y887658D01*
X1761575D01*
Y924154D01*
D02*
G37*
G36*
X1648150D02*
X1544724D01*
Y887658D01*
X1648150D01*
Y924154D01*
D02*
G37*
G36*
X972561Y879741D02*
X972179Y879665D01*
X962441D01*
Y870791D01*
X962055Y867872D01*
X961460Y866530D01*
X960209Y865037D01*
X957807Y863262D01*
X953971Y861396D01*
X953878Y861366D01*
X953785Y861396D01*
X949948Y863262D01*
X947547Y865037D01*
X946296Y866530D01*
X945701Y867872D01*
X945315Y870791D01*
Y879665D01*
X935577D01*
X935195Y879741D01*
X934813Y879665D01*
X876102D01*
Y836259D01*
X872198Y826835D01*
X870840Y816516D01*
X872198Y806197D01*
X876102Y796773D01*
Y753366D01*
X934813D01*
X935195Y753290D01*
X935577Y753366D01*
X945315D01*
Y762241D01*
X945701Y765160D01*
X946296Y766501D01*
X947547Y767995D01*
X949948Y769770D01*
X953785Y771636D01*
X953878Y771666D01*
X953971Y771636D01*
X957807Y769770D01*
X960209Y767995D01*
X961460Y766501D01*
X962055Y765160D01*
X962441Y762241D01*
Y753366D01*
X972179D01*
X972561Y753290D01*
X972942Y753366D01*
X1031653D01*
Y796773D01*
X1035557Y806197D01*
X1036916Y816516D01*
X1035557Y826835D01*
X1031653Y836259D01*
Y879665D01*
X972942D01*
X972561Y879741D01*
D02*
G37*
G36*
X522205Y924154D02*
X305354D01*
Y887658D01*
X403913D01*
X404158Y882658D01*
X402154Y882460D01*
X390350Y878880D01*
X379472Y873065D01*
X369937Y865240D01*
X369288Y864590D01*
X361463Y855056D01*
X360749Y853720D01*
X305354D01*
Y786476D01*
X360749D01*
X361463Y785141D01*
X369288Y775606D01*
X378822Y767781D01*
X389701Y761967D01*
X401504Y758386D01*
X410104Y757539D01*
X409858Y752539D01*
X305354D01*
Y716043D01*
X522205D01*
Y752539D01*
X423835D01*
X422072Y757539D01*
X422429Y757827D01*
X652688D01*
X654268Y756983D01*
X666071Y753402D01*
X678346Y752193D01*
X687182Y753063D01*
X797972D01*
X801049Y753366D01*
X833110D01*
Y763816D01*
X842464Y771492D01*
X842996Y772024D01*
X850821Y781559D01*
X856635Y792437D01*
X860216Y804240D01*
X861425Y816516D01*
X860216Y828791D01*
X856635Y840595D01*
X850821Y851473D01*
X842996Y861008D01*
X833461Y868833D01*
X833110Y869020D01*
Y879665D01*
X774399D01*
X774018Y879741D01*
X773967Y879731D01*
X773917Y879741D01*
X766309Y879665D01*
X763898D01*
Y879641D01*
X696482Y878973D01*
X684988Y882460D01*
X672713Y883669D01*
X524647D01*
X522205Y887658D01*
X522205Y888668D01*
Y888669D01*
Y924154D01*
D02*
G37*
G36*
X1761575Y752539D02*
X1658150D01*
Y716043D01*
X1761575D01*
Y752539D01*
D02*
G37*
G36*
X1143858Y879665D02*
X1074646D01*
Y824988D01*
X1073811Y816516D01*
X1074646Y808043D01*
Y753366D01*
X1126222D01*
X1138134Y752193D01*
X1261496D01*
X1266893Y752725D01*
X1304985D01*
X1306025Y752827D01*
X1539843D01*
X1544724Y752539D01*
X1544724Y747827D01*
Y716043D01*
X1648150D01*
Y752539D01*
X1631909D01*
X1631167Y757539D01*
X1631421Y757616D01*
X1642300Y763431D01*
X1651834Y771256D01*
X1659659Y780791D01*
X1662698Y786476D01*
X1761575D01*
Y853720D01*
X1657185D01*
X1651834Y860240D01*
X1642300Y868065D01*
X1631421Y873880D01*
X1619618Y877460D01*
X1607342Y878669D01*
X1305087D01*
X1304048Y878567D01*
X1262028D01*
X1256631Y878035D01*
X1149643D01*
X1149007Y878228D01*
X1143858Y878735D01*
Y879665D01*
D02*
G37*
G36*
X1761575Y706043D02*
X1658150D01*
Y669547D01*
X1761575D01*
Y706043D01*
D02*
G37*
G36*
X1648150D02*
X1544724D01*
Y669547D01*
X1648150D01*
Y706043D01*
D02*
G37*
G36*
X522205Y706043D02*
X418779D01*
Y669547D01*
X522205D01*
Y706043D01*
D02*
G37*
G36*
X408779D02*
X305354D01*
Y669547D01*
X408779D01*
Y706043D01*
D02*
G37*
G36*
X1261496Y742778D02*
X1251177Y741419D01*
X1241753Y737516D01*
X1198347D01*
Y668303D01*
X1209027D01*
X1209071Y668247D01*
X1211279Y664648D01*
X1211227Y664526D01*
X1208992Y660937D01*
X1208063Y660825D01*
X1208057Y660823D01*
X1198347D01*
Y591610D01*
X1241753D01*
X1251177Y587706D01*
X1261496Y586348D01*
X1271815Y587706D01*
X1281239Y591610D01*
X1324646D01*
Y660823D01*
X1314935D01*
X1314929Y660825D01*
X1314000Y660937D01*
X1311764Y664529D01*
X1311712Y664648D01*
X1313922Y668247D01*
X1313965Y668303D01*
X1324646D01*
Y737516D01*
X1281239D01*
X1271815Y741419D01*
X1261496Y742778D01*
D02*
G37*
G36*
X678346D02*
X668028Y741419D01*
X658603Y737516D01*
X615197D01*
Y668303D01*
X625877D01*
X625921Y668247D01*
X628130Y664648D01*
X628077Y664526D01*
X625843Y660937D01*
X624913Y660825D01*
X624908Y660823D01*
X615197D01*
Y591610D01*
X658603D01*
X668028Y587706D01*
X678346Y586348D01*
X688665Y587706D01*
X698090Y591610D01*
X741496D01*
Y660823D01*
X731785D01*
X731779Y660825D01*
X730850Y660937D01*
X728614Y664529D01*
X728563Y664648D01*
X730772Y668247D01*
X730816Y668303D01*
X741496D01*
Y737516D01*
X698090D01*
X688665Y741419D01*
X678346Y742778D01*
D02*
G37*
G36*
X1261496Y576933D02*
X1249221Y575724D01*
X1237417Y572143D01*
X1226539Y566329D01*
X1217004Y558504D01*
X1209179Y548969D01*
X1208992Y548618D01*
X1198347D01*
Y489907D01*
X1198271Y489526D01*
X1198278Y489486D01*
X1198271Y489447D01*
X1198347Y479653D01*
Y479406D01*
X1198348D01*
X1198414Y470891D01*
X1198346Y470823D01*
X1198347D01*
Y461084D01*
X1198271Y460703D01*
X1198347Y460321D01*
Y401610D01*
X1208992D01*
X1209179Y401259D01*
X1217004Y391725D01*
X1226539Y383899D01*
X1237417Y378085D01*
X1249221Y374504D01*
X1261496Y373295D01*
X1273771Y374504D01*
X1285575Y378085D01*
X1296453Y383899D01*
X1305988Y391725D01*
X1313813Y401259D01*
X1314001Y401610D01*
X1324646D01*
Y460321D01*
X1324722Y460703D01*
X1324714Y460742D01*
X1324721Y460781D01*
X1324646Y470575D01*
Y470823D01*
X1324644D01*
X1324578Y479337D01*
X1324646Y479406D01*
X1324646D01*
Y489144D01*
X1324722Y489526D01*
X1324646Y489907D01*
Y548618D01*
X1314001D01*
X1313813Y548969D01*
X1305988Y558504D01*
X1296453Y566329D01*
X1285575Y572143D01*
X1273771Y575724D01*
X1261496Y576933D01*
D02*
G37*
G36*
X678346D02*
X666071Y575724D01*
X654268Y572143D01*
X643389Y566329D01*
X633855Y558504D01*
X626029Y548969D01*
X625842Y548618D01*
X615197D01*
Y489907D01*
X615121Y489526D01*
X615129Y489486D01*
X615121Y489447D01*
X615197Y479653D01*
Y479406D01*
X615199D01*
X615264Y470891D01*
X615197Y470823D01*
X615197D01*
Y461084D01*
X615121Y460703D01*
X615197Y460321D01*
Y401610D01*
X625842D01*
X626029Y401259D01*
X633855Y391725D01*
X643389Y383899D01*
X654268Y378085D01*
X666071Y374504D01*
X678346Y373295D01*
X690622Y374504D01*
X694738Y375753D01*
X702425Y378085D01*
X713304Y383899D01*
X722838Y391725D01*
X730663Y401259D01*
X730851Y401610D01*
X741496D01*
Y460321D01*
X741572Y460703D01*
X741564Y460742D01*
X741572Y460781D01*
X741496Y470575D01*
Y470823D01*
X741494D01*
X741428Y479337D01*
X741496Y479406D01*
X741496D01*
Y489144D01*
X741572Y489526D01*
X741496Y489907D01*
Y548618D01*
X730851D01*
X730663Y548969D01*
X722838Y558504D01*
X713304Y566329D01*
X702425Y572143D01*
X690622Y575724D01*
X678346Y576933D01*
D02*
G37*
G36*
X1324646Y358618D02*
X1266496D01*
Y329012D01*
X1324646D01*
Y358618D01*
D02*
G37*
G36*
X1256496D02*
X1198347D01*
Y329012D01*
X1256496D01*
Y358618D01*
D02*
G37*
G36*
X741496D02*
X683346D01*
Y329012D01*
X741496D01*
Y358618D01*
D02*
G37*
G36*
X673346D02*
X615197D01*
Y329012D01*
X673346D01*
Y358618D01*
D02*
G37*
G36*
X1324646Y319012D02*
X1266496D01*
Y289406D01*
X1324646D01*
Y319012D01*
D02*
G37*
G36*
X1256496D02*
X1198347D01*
Y289406D01*
X1256496D01*
Y319012D01*
D02*
G37*
G36*
X741496D02*
X683346D01*
Y289406D01*
X741496D01*
Y319012D01*
D02*
G37*
G36*
X673346D02*
X615197D01*
Y289406D01*
X673346D01*
Y319012D01*
D02*
G37*
%LPD*%
G36*
X972561Y847040D02*
X972990Y846983D01*
X983029Y846278D01*
X994250Y846043D01*
Y786988D01*
X983029Y786753D01*
X972561Y785712D01*
Y763486D01*
X971970Y767952D01*
X970199Y771947D01*
X967246Y775472D01*
X963112Y778528D01*
X957797Y781113D01*
X953878Y782389D01*
X949959Y781113D01*
X944644Y778528D01*
X940510Y775472D01*
X937557Y771947D01*
X935785Y767952D01*
X935195Y763486D01*
Y785991D01*
X934766Y786048D01*
X924726Y786753D01*
X913506Y786988D01*
Y846043D01*
X924726Y846278D01*
X935195Y847320D01*
Y869545D01*
X935785Y865080D01*
X937557Y861085D01*
X940510Y857559D01*
X944644Y854504D01*
X949959Y851919D01*
X953878Y850643D01*
X957797Y851919D01*
X963112Y854504D01*
X967246Y857559D01*
X970199Y861085D01*
X971970Y865080D01*
X972561Y869545D01*
Y847040D01*
D02*
G37*
G36*
X774018Y763486D02*
X678878Y763366D01*
Y868602D01*
X774018Y869545D01*
Y763486D01*
D02*
G37*
G36*
X1291250Y692990D02*
X1291931Y684115D01*
X1292738Y678543D01*
X1313703D01*
X1309394Y678020D01*
X1305538Y676450D01*
X1302136Y673834D01*
X1299188Y670171D01*
X1296693Y665461D01*
X1296390Y664607D01*
X1296693Y663754D01*
X1299188Y659056D01*
X1302136Y655401D01*
X1305538Y652791D01*
X1309394Y651225D01*
X1313703Y650703D01*
X1292747D01*
X1291931Y645054D01*
X1291250Y636159D01*
X1291024Y626216D01*
X1231968D01*
X1231742Y636159D01*
X1231061Y645054D01*
X1230245Y650703D01*
X1209290D01*
X1213599Y651225D01*
X1217454Y652791D01*
X1220856Y655401D01*
X1223804Y659056D01*
X1226299Y663754D01*
X1226602Y664607D01*
X1226299Y665461D01*
X1223804Y670171D01*
X1220856Y673834D01*
X1217454Y676450D01*
X1213599Y678020D01*
X1209290Y678543D01*
X1230255D01*
X1231061Y684115D01*
X1231742Y692990D01*
X1231968Y702909D01*
X1291024D01*
X1291250Y692990D01*
D02*
G37*
G36*
X708101D02*
X708781Y684115D01*
X709588Y678543D01*
X730553D01*
X726244Y678020D01*
X722389Y676450D01*
X718987Y673834D01*
X716038Y670171D01*
X713544Y665461D01*
X713241Y664607D01*
X713544Y663754D01*
X716038Y659056D01*
X718987Y655401D01*
X722389Y652791D01*
X726244Y651225D01*
X730553Y650703D01*
X709597D01*
X708781Y645054D01*
X708101Y636159D01*
X707874Y626216D01*
X648819D01*
X648592Y636159D01*
X647912Y645054D01*
X647096Y650703D01*
X626140D01*
X630449Y651225D01*
X634304Y652791D01*
X637706Y655401D01*
X640654Y659056D01*
X643149Y663754D01*
X643452Y664607D01*
X643149Y665461D01*
X640654Y670171D01*
X637706Y673834D01*
X634304Y676450D01*
X630449Y678020D01*
X626140Y678543D01*
X647105D01*
X647912Y684115D01*
X648592Y692990D01*
X648819Y702909D01*
X707874D01*
X708101Y692990D01*
D02*
G37*
G36*
X1314303Y489526D02*
X1314526D01*
X1314447Y488992D01*
X1314378Y487393D01*
X1314354Y482891D01*
X1314526Y460703D01*
X1314240D01*
X1314114Y436216D01*
X1208878D01*
X1208689Y460703D01*
X1208466D01*
X1208545Y461236D01*
X1208615Y462835D01*
X1208638Y467337D01*
X1208466Y489526D01*
X1208752D01*
X1208878Y514012D01*
X1314114D01*
X1314303Y489526D01*
D02*
G37*
G36*
X731154D02*
X731376D01*
X731298Y488992D01*
X731228Y487393D01*
X731205Y482891D01*
X731376Y460703D01*
X731091D01*
X730965Y436216D01*
X625728D01*
X625539Y460703D01*
X625317D01*
X625395Y461236D01*
X625465Y462835D01*
X625488Y467337D01*
X625317Y489526D01*
X625602D01*
X625728Y514012D01*
X730965D01*
X731154Y489526D01*
D02*
G37*
%LPC*%
G36*
X2112401Y1234086D02*
X2101958Y1232711D01*
X2092228Y1228680D01*
X2083872Y1222269D01*
X2077461Y1213913D01*
X2073430Y1204182D01*
X2072055Y1193740D01*
X2073430Y1183298D01*
X2077461Y1173568D01*
X2083872Y1165212D01*
X2092228Y1158800D01*
X2101958Y1154770D01*
X2112401Y1153395D01*
X2122843Y1154770D01*
X2132573Y1158800D01*
X2140929Y1165212D01*
X2147340Y1173568D01*
X2151371Y1183298D01*
X2152746Y1193740D01*
X2151371Y1204182D01*
X2147340Y1213913D01*
X2140929Y1222269D01*
X2132573Y1228680D01*
X2122843Y1232711D01*
X2112401Y1234086D01*
D02*
G37*
%LPD*%
D10*
X2339884Y3261453D02*
D03*
Y3149248D02*
D03*
Y3463579D02*
D03*
Y3351374D02*
D03*
X3119884Y3261453D02*
D03*
Y3149248D02*
D03*
Y3463579D02*
D03*
Y3351374D02*
D03*
X1431417Y1597913D02*
D03*
Y1485709D02*
D03*
Y1344540D02*
D03*
Y1232336D02*
D03*
X748032Y1344540D02*
D03*
Y1232336D02*
D03*
Y1593068D02*
D03*
Y1480863D02*
D03*
X1208307Y2283028D02*
D03*
Y2170823D02*
D03*
Y2053028D02*
D03*
Y1940823D02*
D03*
X633307Y2053028D02*
D03*
Y1940823D02*
D03*
Y2283028D02*
D03*
Y2170823D02*
D03*
X3102798Y2791295D02*
D03*
Y2679091D02*
D03*
X2340671Y2791295D02*
D03*
Y2679091D02*
D03*
X1261496Y436216D02*
D03*
Y324012D02*
D03*
Y626216D02*
D03*
Y514012D02*
D03*
Y815114D02*
D03*
Y702909D02*
D03*
X678346Y436216D02*
D03*
Y324012D02*
D03*
Y626216D02*
D03*
Y514012D02*
D03*
Y815114D02*
D03*
Y702909D02*
D03*
X1395591Y3491496D02*
D03*
Y3379291D02*
D03*
Y3305587D02*
D03*
Y3193382D02*
D03*
Y3120587D02*
D03*
Y3008382D02*
D03*
X694331Y3120587D02*
D03*
Y3008382D02*
D03*
Y3305587D02*
D03*
Y3193382D02*
D03*
Y3491496D02*
D03*
Y3379291D02*
D03*
D11*
X2579884Y3465906D02*
D03*
X2467679D02*
D03*
X2788486D02*
D03*
X2676282D02*
D03*
X2995986D02*
D03*
X2883782D02*
D03*
X1228622Y1595748D02*
D03*
X1116417D02*
D03*
X972520D02*
D03*
X860315D02*
D03*
X1210512Y2621925D02*
D03*
X1098307D02*
D03*
X1210512Y2436925D02*
D03*
X1098307D02*
D03*
X978012D02*
D03*
X865807D02*
D03*
X978012Y2621925D02*
D03*
X865807D02*
D03*
X745512Y2436925D02*
D03*
X633307D02*
D03*
X745512Y2621925D02*
D03*
X633307D02*
D03*
X2870002Y2793067D02*
D03*
X2757798D02*
D03*
X2638900D02*
D03*
X2526695D02*
D03*
X1109252Y816516D02*
D03*
X997047D02*
D03*
X910709D02*
D03*
X798504D02*
D03*
X1162008Y3484484D02*
D03*
X1049803D02*
D03*
X965158D02*
D03*
X852953D02*
D03*
D12*
X3361931Y3359508D02*
D03*
Y3577618D02*
D03*
X2114687D02*
D03*
Y3359508D02*
D03*
X416417Y1477638D02*
D03*
Y1695748D02*
D03*
X1651181Y2730980D02*
D03*
Y2512870D02*
D03*
X403937D02*
D03*
Y2730980D02*
D03*
X3373742Y2895366D02*
D03*
Y2677256D02*
D03*
X2126756D02*
D03*
Y2895366D02*
D03*
X413780Y711043D02*
D03*
Y929154D02*
D03*
X1653150Y711043D02*
D03*
Y929154D02*
D03*
X1666535Y3605536D02*
D03*
Y3387425D02*
D03*
X407480D02*
D03*
Y3605536D02*
D03*
D13*
X3361931Y3468563D02*
D03*
X2114687D02*
D03*
X416417Y1586693D02*
D03*
X1651181Y2621925D02*
D03*
X403937D02*
D03*
X3373742Y2786311D02*
D03*
X2126756D02*
D03*
X413780Y820098D02*
D03*
X1653150D02*
D03*
X1666535Y3496481D02*
D03*
X407480D02*
D03*
D14*
X3120416Y3468563D02*
X3314687D01*
X3119884Y3464843D02*
Y3463579D01*
Y3468032D02*
Y3464843D01*
X3120416Y3468563D02*
X3119884Y3468032D01*
X2335656Y3467807D02*
X2339884Y3463579D01*
X2115443Y3467807D02*
X2335656D01*
X2114687Y3468563D02*
X2115443Y3467807D01*
X2340416Y3465374D02*
X2339884Y3464843D01*
X2340416Y3465374D02*
X2439668D01*
X2579884Y3465906D02*
X2676282D01*
X2995986D02*
X2996518Y3465374D01*
X3119353D01*
X3119884Y3464843D01*
X416417Y1588084D02*
X443753D01*
X1431417Y1597913D02*
X1431949Y1598445D01*
X1474906D02*
X1477719Y1601258D01*
X1564899D02*
X1572472Y1593685D01*
X1681921D01*
X1431949Y1598445D02*
X1474906D01*
X1681921Y1593685D02*
X1682677Y1592929D01*
X1477719Y1601258D02*
X1564899D01*
X443753Y1588084D02*
X453541Y1597871D01*
X699565D01*
X830155Y1593068D02*
X832835Y1595748D01*
X1431417Y1344540D02*
Y1477693D01*
X832835Y1595748D02*
X860315D01*
X1228622D02*
X1229154Y1596280D01*
X1430886D01*
X1431417Y1596811D01*
Y1597913D01*
X632776Y2283559D02*
Y2386693D01*
X630276Y2389193D02*
X632776Y2386693D01*
X630276Y2389193D02*
Y2436394D01*
X1210512Y2621925D02*
X1651181D01*
X745512D02*
X865807D01*
X453307D02*
X629744D01*
X630276Y2621394D01*
Y2437457D02*
Y2621394D01*
X745512Y2436925D02*
X865807D01*
X1208307Y2283028D02*
X1208839Y2283559D01*
Y2436394D01*
X1209370Y2436925D01*
X1210512D01*
Y2621925D01*
X2126756Y2786311D02*
X2129185Y2788740D01*
X2320242D02*
X2322798Y2791295D01*
X2129185Y2788740D02*
X2320242D01*
X2638900Y2793067D02*
X2757798D01*
X2368200Y2793740D02*
X2498542D01*
X2323329Y2791827D02*
X2366286D01*
X2368200Y2793740D01*
X2498542D02*
X2499215Y2793067D01*
X3052782Y2786311D02*
X3291971D01*
X1262028Y815646D02*
X1261496Y815114D01*
X1262028Y815646D02*
X1304985D01*
X1305087Y815748D02*
X1304985Y815646D01*
X1305087Y815748D02*
X1607342D01*
X1136732Y816516D02*
X1138134Y815114D01*
X1261496D01*
Y514012D02*
Y436216D01*
X672713Y820748D02*
X678346Y815114D01*
X414429Y820748D02*
X672713D01*
X678878Y815984D02*
X797972D01*
X414429Y820748D02*
X413780Y820098D01*
X678346Y514012D02*
Y436216D01*
X798504Y816516D02*
X797972Y815984D01*
D15*
X2339884Y3351374D02*
Y3261453D01*
X2788486Y3465906D02*
X2883782D01*
X3119884Y3351374D02*
Y3261453D01*
X972520Y1595748D02*
X1116417D01*
X1208307Y2053028D02*
Y2170823D01*
X978012Y2621925D02*
X1098307D01*
X978012Y2436925D02*
X1098307D01*
X910709Y816516D02*
X997047D01*
X1261496Y702909D02*
Y626216D01*
X678346Y702909D02*
Y626216D01*
X694331Y3305587D02*
Y3379291D01*
Y3120587D02*
Y3193382D01*
X1395591Y3120587D02*
Y3193382D01*
Y3305587D02*
Y3379291D01*
D16*
X1662992Y1592929D02*
D03*
D17*
Y1701984D02*
D03*
Y1483874D02*
D03*
D18*
X748032Y1344540D02*
Y1480863D01*
D19*
X694331Y3491496D02*
X779996D01*
X615591D02*
X694331D01*
X407480Y3496481D02*
X693799D01*
X385591D02*
X407480D01*
X1190488Y3485016D02*
X1262741D01*
X1395591Y3491496D02*
X1396122Y3492028D01*
X1424666D01*
X1429118Y3496481D01*
X1666535D01*
X1269221Y3491496D02*
X1395591D01*
X1262741Y3485016D02*
X1269221Y3491496D01*
X779996D02*
X787008Y3484484D01*
X814488D01*
X693799Y3496481D02*
X694331Y3495949D01*
D20*
X3299884Y3275906D02*
D03*
X3369884Y3650906D02*
D03*
X3209884Y3575906D02*
D03*
X2264884Y3605906D02*
D03*
X2249968Y3355000D02*
D03*
X3014884Y3245906D02*
D03*
X3244884Y3270906D02*
D03*
X2226243Y3261453D02*
D03*
X2427133Y3227710D02*
D03*
X2844240Y3550753D02*
D03*
X2764794Y3554357D02*
D03*
X2685267D02*
D03*
X2605739Y3554280D02*
D03*
X2527452Y3540286D02*
D03*
X2599884Y3360906D02*
D03*
X2679884Y3365906D02*
D03*
X2760380Y3377915D02*
D03*
X2839706Y3383579D02*
D03*
X2919119Y3379317D02*
D03*
X2467794Y3554357D02*
D03*
X2388269Y3553748D02*
D03*
X2308805Y3556937D02*
D03*
X2430393Y3377000D02*
D03*
X2509756Y3382109D02*
D03*
X3139106Y3556937D02*
D03*
X3059643Y3553748D02*
D03*
X2980118Y3554357D02*
D03*
X2980232Y3377454D02*
D03*
X2039884Y3135906D02*
D03*
X3019884Y3315906D02*
D03*
X1531417Y1270748D02*
D03*
X1511417Y1760748D02*
D03*
X1496417Y1690748D02*
D03*
X1416417D02*
D03*
X516417Y1390748D02*
D03*
X581417Y1755748D02*
D03*
X506417Y1790748D02*
D03*
X604264Y1685489D02*
D03*
X576417Y1490748D02*
D03*
X631417Y1470748D02*
D03*
X856417Y1390748D02*
D03*
X631417Y1405748D02*
D03*
X636417Y1330748D02*
D03*
X861417Y1320748D02*
D03*
X1331417Y1385748D02*
D03*
X1519792Y1355290D02*
D03*
Y1434818D02*
D03*
X1070646Y1676906D02*
D03*
X991453Y1684200D02*
D03*
X938940Y1508478D02*
D03*
X1018235Y1514558D02*
D03*
X1097430Y1507296D02*
D03*
X771417Y1700748D02*
D03*
X686417Y1695748D02*
D03*
X861417Y1450748D02*
D03*
X859904Y1507296D02*
D03*
X894058Y1682997D02*
D03*
X1333433Y1684654D02*
D03*
X1253905D02*
D03*
X1175809Y1669632D02*
D03*
X1173097Y1525785D02*
D03*
X1250445Y1507296D02*
D03*
X1329970Y1507906D02*
D03*
X1326417Y1450748D02*
D03*
X733307Y2307638D02*
D03*
X548307Y2747638D02*
D03*
X538307Y2532638D02*
D03*
X1235707Y2710299D02*
D03*
X1315234D02*
D03*
X1394762D02*
D03*
X1474290D02*
D03*
X1125492Y2723774D02*
D03*
X1016555Y2719401D02*
D03*
X1048307Y2527638D02*
D03*
X978307D02*
D03*
X919798Y2333479D02*
D03*
X1008307Y2332638D02*
D03*
X1079320Y2348474D02*
D03*
X815649Y2348551D02*
D03*
X771482Y2719436D02*
D03*
X815649Y2533551D02*
D03*
X915492Y2723774D02*
D03*
X1119855Y2289145D02*
D03*
X1123179Y2209687D02*
D03*
X1123924Y2130163D02*
D03*
X1119855Y2050739D02*
D03*
X1296759Y2060299D02*
D03*
X1295917Y2139822D02*
D03*
X1287556Y2218909D02*
D03*
X1297213Y2297849D02*
D03*
Y2377376D02*
D03*
X1298886Y2456886D02*
D03*
X1320031Y2533551D02*
D03*
X1399558D02*
D03*
X1479086D02*
D03*
X601232Y2710299D02*
D03*
X541902Y2455585D02*
D03*
X543005Y2376065D02*
D03*
Y2296537D02*
D03*
X667050Y2709174D02*
D03*
X391721Y2026446D02*
D03*
X943307Y2072638D02*
D03*
X2702798Y2901358D02*
D03*
X3012798Y2613740D02*
D03*
X3207798Y2683740D02*
D03*
X3232798Y2973740D02*
D03*
X3217798Y2893740D02*
D03*
X2142798Y2973740D02*
D03*
X2272798Y2953740D02*
D03*
X2277798Y2603740D02*
D03*
X2362798D02*
D03*
X2307798Y2888740D02*
D03*
X2417798D02*
D03*
X2437798Y2684615D02*
D03*
X2527798D02*
D03*
X2512798Y2888740D02*
D03*
X2802798Y2684615D02*
D03*
X2606967Y2888740D02*
D03*
X2604654Y2684615D02*
D03*
X2712798D02*
D03*
X2872798D02*
D03*
X2791541Y2888740D02*
D03*
X3147798D02*
D03*
X3067798D02*
D03*
X2974130D02*
D03*
X2887798D02*
D03*
X2957798Y2684615D02*
D03*
X3157798Y2608740D02*
D03*
X2187798Y2578740D02*
D03*
X1504606Y725748D02*
D03*
X1449606Y720748D02*
D03*
X1474606Y910748D02*
D03*
X1254549Y904374D02*
D03*
X1334076Y904358D02*
D03*
X1399606Y910748D02*
D03*
X1389606Y720748D02*
D03*
X1173347Y688185D02*
D03*
X1494606Y445748D02*
D03*
X1164606Y460748D02*
D03*
X1020698Y904665D02*
D03*
X1164606Y540748D02*
D03*
Y610748D02*
D03*
X625680Y908366D02*
D03*
X564606Y720748D02*
D03*
X444606Y1025748D02*
D03*
X514606Y1020748D02*
D03*
X766798Y531726D02*
D03*
Y611254D02*
D03*
X590676Y595679D02*
D03*
X589895Y516156D02*
D03*
Y436628D02*
D03*
X774606Y455748D02*
D03*
X1354606Y470748D02*
D03*
Y530748D02*
D03*
X1354872Y595077D02*
D03*
X1354606Y405748D02*
D03*
X1358783Y671494D02*
D03*
X1175021Y904488D02*
D03*
X1095495Y904967D02*
D03*
X943024Y903952D02*
D03*
X863829Y896691D02*
D03*
X784733Y904967D02*
D03*
X705208Y904358D02*
D03*
X559606Y925748D02*
D03*
X584606Y660748D02*
D03*
X769606Y675748D02*
D03*
X804552Y728064D02*
D03*
X884079Y728331D02*
D03*
X961237Y708962D02*
D03*
X1046351Y706556D02*
D03*
X1121570Y703456D02*
D03*
X415591Y3690118D02*
D03*
X1510591Y3397500D02*
D03*
X1417264Y3585118D02*
D03*
X1510591D02*
D03*
X565591Y3390118D02*
D03*
X1570591Y3685118D02*
D03*
X1290591Y3395118D02*
D03*
X790591Y3180118D02*
D03*
Y3100118D02*
D03*
X595591Y3130118D02*
D03*
Y3210118D02*
D03*
X1510591Y3235118D02*
D03*
Y3154203D02*
D03*
X1290591Y3049445D02*
D03*
X1510591D02*
D03*
X1290591Y3185003D02*
D03*
Y3305118D02*
D03*
X1015591Y3585118D02*
D03*
X970591Y3395118D02*
D03*
X1099975D02*
D03*
X1150591Y3585118D02*
D03*
X595591Y3315118D02*
D03*
X790591Y3310118D02*
D03*
X1290591Y3585118D02*
D03*
X1195591Y3395118D02*
D03*
X1510591Y3320118D02*
D03*
X560591Y3610118D02*
D03*
X790591Y3380118D02*
D03*
X865591Y3395118D02*
D03*
X891016Y3585118D02*
D03*
X797138D02*
D03*
X710591D02*
D03*
X635591D02*
D03*
X1400591Y2935118D02*
D03*
X690591Y2930118D02*
D03*
%TF.MD5,4f50648d49afef4571c467768a30575e*%
M02*
