%TF.GenerationSoftware,Altium Limited,Altium Designer,20.0.10 (225)*%
G04 Layer_Color=0*
%FSLAX26Y26*%
%MOIN*%
%TF.FileFunction,Profile,NP*%
%TF.Part,CustomerPanel*%
G01*
G75*
%TA.AperFunction,Profile*%
%ADD27C,0.001000*%
G36*
X2308135Y3516876D02*
X2306886D01*
X2305120Y3518642D01*
Y3521140D01*
X2306886Y3522906D01*
X2308135D01*
D01*
X2350000D01*
X2350600D01*
X2351708Y3522447D01*
X2352556Y3521599D01*
X2353015Y3520490D01*
Y3519891D01*
Y3519291D01*
X2352556Y3518183D01*
X2351708Y3517335D01*
X2350600Y3516876D01*
X2350000D01*
D01*
X2308135D01*
D02*
G37*
G36*
X3540000Y3518984D02*
X3538751D01*
X3536985Y3520750D01*
Y3523248D01*
X3538751Y3525014D01*
X3540000D01*
D01*
X3591157D01*
X3591756D01*
X3592864Y3524555D01*
X3593713Y3523707D01*
X3594172Y3522599D01*
Y3521999D01*
Y3521399D01*
X3593713Y3520291D01*
X3592864Y3519443D01*
X3591756Y3518984D01*
X3591157D01*
D01*
X3540000D01*
D02*
G37*
G36*
X2995000Y3518984D02*
X2993751D01*
X2991985Y3520750D01*
Y3523248D01*
X2993751Y3525014D01*
X2995000D01*
D01*
X3420000Y3525014D01*
X3420600D01*
X3421708Y3524555D01*
X3422556Y3523707D01*
X3423015Y3522599D01*
Y3521999D01*
Y3521399D01*
X3422556Y3520291D01*
X3421708Y3519443D01*
X3420600Y3518984D01*
X3420000D01*
D01*
X2995000Y3518984D01*
D02*
G37*
G36*
X2470000D02*
X2468751D01*
X2466985Y3520750D01*
Y3523248D01*
X2468751Y3525014D01*
X2470000D01*
D01*
X2875000D01*
X2875600D01*
X2876708Y3524555D01*
X2877556Y3523707D01*
X2878015Y3522599D01*
Y3521999D01*
Y3521399D01*
X2877556Y3520291D01*
X2876708Y3519443D01*
X2875600Y3518984D01*
X2875000D01*
D01*
X2470000D01*
D02*
G37*
D27*
X2183984Y3398780D02*
G02*
X2183984Y3398804I3015J0D01*
G01*
D02*
G02*
X2183984Y3398805I3015J0D01*
G01*
D02*
G02*
X2183984Y3398815I124126J-25D01*
G01*
D02*
G02*
X2286134Y3520945I124126J-36D01*
G01*
D02*
G02*
X2183984Y3643110I21976J122165D01*
G01*
Y4368780D01*
D02*
G02*
X2308110Y4492906I124126J0D01*
G01*
D02*
G02*
X2308135Y4492906I0J-6016D01*
G01*
D02*
G02*
X2308145Y4492906I-24J-6016D01*
G01*
X3591181Y4492906D01*
D02*
G02*
X3715307Y4368780I0J-124126D01*
G01*
Y3643110D01*
D02*
G02*
X3613157Y3520945I-124126J0D01*
G01*
D02*
G02*
X3715307Y3398780I-21976J-122165D01*
G01*
Y2880000D01*
D02*
G02*
X3591181Y2755874I-124126J0D01*
G01*
D02*
G02*
X3591157Y2755874I0J6016D01*
G01*
D02*
G02*
X3591146Y2755874I24J6016D01*
G01*
X3591181D01*
Y2755874D01*
D02*
G02*
X3591157Y2755874I-24J3015D01*
G01*
D02*
G03*
X3591181Y2755874I24J3015D01*
G01*
X3591157Y2755874D01*
D02*
G02*
X3591157Y2755874I24J3015D01*
G01*
D02*
G02*
X3591132Y2755874I0J3015D01*
G01*
D02*
G03*
X3591146Y2755874I49J6016D01*
G01*
X2308110Y2755874D01*
D02*
G02*
X2183984Y2880000I0J124126D01*
G01*
X2183984Y3398780D01*
%TF.MD5,91bde2c9197edb0ad4c35d7c09997c16*%
M02*
