%TF.GenerationSoftware,Altium Limited,Altium Designer,20.0.10 (225)*%
G04 Layer_Color=16711935*
%FSLAX26Y26*%
%MOIN*%
%TF.FileFunction,Other,Mechanical_1*%
%TF.Part,CustomerPanel*%
G01*
G75*
%TA.AperFunction,NonConductor*%
%ADD25C,0.006000*%
%ADD26C,0.010000*%
D25*
X3712292Y4368780D02*
G03*
X3591181Y4489891I-121111J0D01*
G01*
Y3521999D02*
G03*
X3712292Y3643110I0J121111D01*
G01*
X3591157Y3521999D02*
G03*
X3591181Y3521999I24J3001D01*
G01*
X3591157Y3521999D02*
G03*
X3591181Y3521999I24J3001D01*
G01*
X2308135Y3519891D02*
G03*
X2308110Y3519891I-24J-3001D01*
G01*
X3712292Y3398780D02*
G03*
X3591181Y3519891I-121111J0D01*
G01*
X3591181Y2758889D02*
G03*
X3712292Y2880000I0J121111D01*
G01*
X3591157Y2758889D02*
G03*
X3591181Y2758889I24J3001D01*
G01*
X3591157Y2758889D02*
G03*
X3591181Y2758889I24J3001D01*
G01*
X2308135Y4489891D02*
G03*
X2308110Y4489891I-24J-3001D01*
G01*
X2308135Y4489891D02*
G03*
X2308110Y4489891I-24J-3001D01*
G01*
X2308135Y3519891D02*
G03*
X2308110Y3519891I-24J-3001D01*
G01*
X2308110Y4489891D02*
G03*
X2186999Y4368780I0J-121111D01*
G01*
Y3643110D02*
G03*
X2308110Y3521999I121111J0D01*
G01*
X2186999Y3398804D02*
G03*
X2186999Y3398780I121111J-25D01*
G01*
X2308110Y3519891D02*
G03*
X2186999Y3398804I0J-121111D01*
G01*
Y2880000D02*
G03*
X2308110Y2758889I121111J0D01*
G01*
X2186999Y3398804D02*
G03*
X2186999Y3398780I3001J-25D01*
G01*
X2186999Y3398804D02*
G03*
X2186999Y3398780I3001J-25D01*
G01*
X3540000Y3519891D02*
X3591181D01*
X2995000Y3519891D02*
X3420000Y3519891D01*
X3540000Y3521999D02*
X3591157D01*
X2995000Y3521999D02*
X3420000Y3521999D01*
X2470000Y3521999D02*
X2875000D01*
X2470000Y3519891D02*
X2875000D01*
X2308135D02*
X2350000D01*
X2308110Y3521999D02*
X2350000D01*
X3712292Y3643110D02*
Y4368780D01*
X3591181Y3519891D02*
X3591181D01*
X3712292Y2880000D02*
Y3398780D01*
X2308135Y4489891D02*
X3591181Y4489891D01*
X2308110Y4489891D02*
X2308135D01*
X3591181Y3519891D02*
X3591181D01*
X2308110Y3519891D02*
X2308135D01*
X3591157Y3521999D02*
X3591181D01*
X2186999Y3643110D02*
Y4368780D01*
Y3643110D02*
Y3643110D01*
X3591157Y2758889D02*
X3591181D01*
X2308110Y2758889D02*
X3591157Y2758889D01*
X2186999Y3398780D02*
X2186999Y2880000D01*
D26*
X2190000Y3643110D02*
G03*
X2308110Y3525000I118110J0D01*
G01*
X3591181D02*
G03*
X3709291Y3643110I0J118110D01*
G01*
X2308110Y4486890D02*
G03*
X2190000Y4368780I0J-118110D01*
G01*
X3709291D02*
G03*
X3591181Y4486890I-118110J0D01*
G01*
X3709291Y3643110D02*
Y4368780D01*
X2190000Y3643110D02*
Y4368780D01*
X2308110Y3525000D02*
X3591181Y3525000D01*
X2308110Y4486890D02*
X3591181Y4486890D01*
X2190000Y2880000D02*
G03*
X2308110Y2761890I118110J0D01*
G01*
X3591181D02*
G03*
X3709291Y2880000I0J118110D01*
G01*
X2308110Y3516890D02*
G03*
X2190000Y3398780I0J-118110D01*
G01*
X3709291D02*
G03*
X3591181Y3516890I-118110J0D01*
G01*
X3709291Y2880000D02*
Y3398780D01*
X2190000Y2880000D02*
Y3398780D01*
X2308110Y2761890D02*
X3591181Y2761890D01*
X2308110Y3516890D02*
X3591181Y3516890D01*
%TF.MD5,d2df359a01859751e03191286d719550*%
M02*
