%TF.GenerationSoftware,Altium Limited,Altium Designer,20.0.10 (225)*%
G04 Layer_Physical_Order=2*
G04 Layer_Color=16711680*
%FSLAX26Y26*%
%MOIN*%
%TF.FileFunction,Copper,L2,Bot,Signal*%
%TF.Part,CustomerPanel*%
G01*
G75*
%TA.AperFunction,SMDPad,CuDef*%
%ADD11R,0.062992X0.196850*%
%TA.AperFunction,ViaPad*%
%ADD16C,0.050000*%
G36*
X3834981Y4732270D02*
X3849937Y4728263D01*
X3864241Y4722338D01*
X3877649Y4714597D01*
X3889932Y4705172D01*
X3900880Y4694224D01*
X3910306Y4681940D01*
X3918047Y4668532D01*
X3923972Y4654228D01*
X3927979Y4639273D01*
X3930000Y4623922D01*
Y4616181D01*
X3930000D01*
X3930000Y3333110D01*
X3930000Y3325369D01*
X3927979Y3310019D01*
X3923972Y3295063D01*
X3918047Y3280759D01*
X3910306Y3267351D01*
X3900880Y3255068D01*
X3889932Y3244120D01*
X3877649Y3234694D01*
X3864241Y3226953D01*
X3849937Y3221028D01*
X3834981Y3217021D01*
X3819631Y3215000D01*
X3160369D01*
X3145019Y3217021D01*
X3130064Y3221028D01*
X3115759Y3226953D01*
X3102351Y3234694D01*
X3090068Y3244120D01*
X3079120Y3255068D01*
X3069695Y3267351D01*
X3061953Y3280759D01*
X3056028Y3295063D01*
X3052021Y3310019D01*
X3050000Y3325369D01*
Y3333110D01*
X3050000D01*
X3050000Y4616181D01*
X3050000Y4623922D01*
X3052021Y4639273D01*
X3056028Y4654228D01*
X3061953Y4668532D01*
X3069694Y4681940D01*
X3079120Y4694224D01*
X3090068Y4705172D01*
X3102351Y4714597D01*
X3115759Y4722338D01*
X3130063Y4728263D01*
X3145019Y4732270D01*
X3160369Y4734291D01*
X3819631D01*
X3834981Y4732270D01*
D02*
G37*
G36*
X2949981D02*
X2964937Y4728263D01*
X2979241Y4722338D01*
X2992649Y4714597D01*
X3004932Y4705172D01*
X3015880Y4694224D01*
X3025306Y4681940D01*
X3033047Y4668532D01*
X3038972Y4654228D01*
X3042979Y4639273D01*
X3045000Y4623922D01*
Y4616181D01*
Y3333110D01*
Y3325369D01*
X3042979Y3310019D01*
X3038972Y3295063D01*
X3033047Y3280759D01*
X3025306Y3267351D01*
X3015880Y3255068D01*
X3004932Y3244120D01*
X2992649Y3234694D01*
X2979241Y3226953D01*
X2964937Y3221028D01*
X2949981Y3217021D01*
X2934631Y3215000D01*
X2446708D01*
X2431357Y3217021D01*
X2416402Y3221028D01*
X2402098Y3226953D01*
X2388690Y3234694D01*
X2376406Y3244120D01*
X2365459Y3255068D01*
X2356033Y3267351D01*
X2348292Y3280759D01*
X2342367Y3295063D01*
X2338360Y3310019D01*
X2336339Y3325369D01*
Y3333110D01*
Y4616181D01*
Y4623922D01*
X2338360Y4639273D01*
X2342367Y4654228D01*
X2348292Y4668532D01*
X2356033Y4681940D01*
X2365459Y4694224D01*
X2376406Y4705172D01*
X2388690Y4714597D01*
X2402098Y4722338D01*
X2416402Y4728263D01*
X2431357Y4732270D01*
X2446708Y4734291D01*
X2934631D01*
X2949981Y4732270D01*
D02*
G37*
%LPC*%
G36*
X3456201Y4700984D02*
X3419705D01*
Y4597559D01*
X3456201D01*
Y4700984D01*
D02*
G37*
G36*
X3409705D02*
X3373209D01*
Y4597559D01*
X3409705D01*
Y4700984D01*
D02*
G37*
G36*
X3238091D02*
X3201595D01*
Y4597559D01*
X3238091D01*
Y4700984D01*
D02*
G37*
G36*
X3191595D02*
X3155099D01*
Y4597559D01*
X3191595D01*
Y4700984D01*
D02*
G37*
G36*
X3456201Y4587559D02*
X3419705D01*
Y4484134D01*
X3456201D01*
Y4587559D01*
D02*
G37*
G36*
X3409705D02*
X3373209D01*
Y4484134D01*
X3409705D01*
Y4587559D01*
D02*
G37*
G36*
X3238091D02*
X3201595D01*
Y4484134D01*
X3238091D01*
Y4587559D01*
D02*
G37*
G36*
X3191595D02*
X3155099D01*
Y4484134D01*
X3191595D01*
Y4587559D01*
D02*
G37*
G36*
X3456201Y3461614D02*
X3419705D01*
Y3358189D01*
X3456201D01*
Y3461614D01*
D02*
G37*
G36*
X3238091D02*
X3201594D01*
Y3358189D01*
X3238091D01*
Y3461614D01*
D02*
G37*
G36*
X3191594D02*
X3155099D01*
Y3358189D01*
X3191594D01*
Y3461614D01*
D02*
G37*
G36*
X3409705D02*
X3373209D01*
Y3358189D01*
X3409705D01*
Y3461614D01*
D02*
G37*
G36*
X3456201Y3348189D02*
X3419705D01*
Y3244764D01*
X3456201D01*
Y3348189D01*
D02*
G37*
G36*
X3409705D02*
X3373209D01*
Y3244764D01*
X3409705D01*
Y3348189D01*
D02*
G37*
G36*
X3238091D02*
X3201594D01*
Y3244764D01*
X3238091D01*
Y3348189D01*
D02*
G37*
G36*
X3191594D02*
X3155099D01*
Y3244764D01*
X3191594D01*
Y3348189D01*
D02*
G37*
G36*
X2778445Y4699016D02*
X2741949D01*
Y4595591D01*
X2778445D01*
Y4699016D01*
D02*
G37*
G36*
X2731949D02*
X2695453D01*
Y4595591D01*
X2731949D01*
Y4699016D01*
D02*
G37*
G36*
X2560335D02*
X2523839D01*
Y4595591D01*
X2560335D01*
Y4699016D01*
D02*
G37*
G36*
X2513839D02*
X2477343D01*
Y4595591D01*
X2513839D01*
Y4699016D01*
D02*
G37*
G36*
X2778445Y4585591D02*
X2741949D01*
Y4482165D01*
X2778445D01*
Y4585591D01*
D02*
G37*
G36*
X2731949D02*
X2695453D01*
Y4482165D01*
X2731949D01*
Y4585591D01*
D02*
G37*
G36*
X2560335D02*
X2523839D01*
Y4482165D01*
X2560335D01*
Y4585591D01*
D02*
G37*
G36*
X2513839D02*
X2477343D01*
Y4482165D01*
X2513839D01*
Y4585591D01*
D02*
G37*
G36*
X2778445Y3451772D02*
X2741949D01*
Y3348347D01*
X2778445D01*
Y3451772D01*
D02*
G37*
G36*
X2560335D02*
X2523838D01*
Y3348347D01*
X2560335D01*
Y3451772D01*
D02*
G37*
G36*
X2513838D02*
X2477343D01*
Y3348347D01*
X2513838D01*
Y3451772D01*
D02*
G37*
G36*
X2731949D02*
X2695453D01*
Y3348347D01*
X2731949D01*
Y3451772D01*
D02*
G37*
G36*
X2778445Y3338347D02*
X2741949D01*
Y3234921D01*
X2778445D01*
Y3338347D01*
D02*
G37*
G36*
X2731949D02*
X2695453D01*
Y3234921D01*
X2731949D01*
Y3338347D01*
D02*
G37*
G36*
X2560335D02*
X2523838D01*
Y3234921D01*
X2560335D01*
Y3338347D01*
D02*
G37*
G36*
X2513838D02*
X2477343D01*
Y3234921D01*
X2513838D01*
Y3338347D01*
D02*
G37*
%LPD*%
D11*
X3414705Y3353189D02*
D03*
X3196595D02*
D03*
X3414705Y4592559D02*
D03*
X3196595D02*
D03*
X2736949Y4590591D02*
D03*
X2518839D02*
D03*
Y3343347D02*
D03*
X2736949D02*
D03*
D16*
X3400000Y4444016D02*
D03*
X3405000Y4389016D02*
D03*
X3215000Y4414016D02*
D03*
X3221374Y4193958D02*
D03*
X3221390Y4273486D02*
D03*
X3215000Y4339016D02*
D03*
X3405000Y4329016D02*
D03*
X3437563Y4112756D02*
D03*
X3680000Y4434016D02*
D03*
X3665000Y4104016D02*
D03*
X3221083Y3960108D02*
D03*
X3585000Y4104016D02*
D03*
X3515000D02*
D03*
X3217382Y3565090D02*
D03*
X3405000Y3504016D02*
D03*
X3100000Y3384016D02*
D03*
X3105000Y3454016D02*
D03*
X3594022Y3706207D02*
D03*
X3514494D02*
D03*
X3530069Y3530085D02*
D03*
X3609593Y3529304D02*
D03*
X3689120D02*
D03*
X3670000Y3714016D02*
D03*
X3655000Y4294016D02*
D03*
X3595000D02*
D03*
X3530672Y4294282D02*
D03*
X3720000Y4294016D02*
D03*
X3454254Y4298192D02*
D03*
X3221260Y4114431D02*
D03*
X3220781Y4034905D02*
D03*
X3221796Y3882434D02*
D03*
X3229057Y3803238D02*
D03*
X3220781Y3724142D02*
D03*
X3221390Y3644617D02*
D03*
X3200000Y3499016D02*
D03*
X3465000Y3524016D02*
D03*
X3450000Y3709016D02*
D03*
X3397684Y3743961D02*
D03*
X3397417Y3823488D02*
D03*
X3416787Y3900646D02*
D03*
X3419192Y3985761D02*
D03*
X3422292Y4060979D02*
D03*
X2820551Y4528543D02*
D03*
X2445551Y4598543D02*
D03*
X2520551Y4438543D02*
D03*
X2490551Y3493543D02*
D03*
X2741457Y3478627D02*
D03*
X2850551Y4243543D02*
D03*
X2825551Y4473543D02*
D03*
X2835004Y3454902D02*
D03*
X2868747Y3655792D02*
D03*
X2545704Y4072899D02*
D03*
X2542100Y3993454D02*
D03*
Y3913926D02*
D03*
X2542177Y3834398D02*
D03*
X2556171Y3756112D02*
D03*
X2735551Y3828543D02*
D03*
X2730551Y3908543D02*
D03*
X2718542Y3989039D02*
D03*
X2712878Y4068365D02*
D03*
X2717140Y4147778D02*
D03*
X2542100Y3696453D02*
D03*
X2542709Y3616928D02*
D03*
X2539520Y3537464D02*
D03*
X2719457Y3659052D02*
D03*
X2714348Y3738415D02*
D03*
X2539520Y4367766D02*
D03*
X2542709Y4288302D02*
D03*
X2542100Y4208777D02*
D03*
X2719003Y4208892D02*
D03*
X2960551Y3268543D02*
D03*
X2780551Y4248543D02*
D03*
%TF.MD5,77ecbb4acbe9aea47bf9a8b43e6ac369*%
M02*
