%TF.GenerationSoftware,Altium Limited,Altium Designer,20.0.10 (225)*%
G04 Layer_Color=128*
%FSLAX26Y26*%
%MOIN*%
%TF.FileFunction,Drillmap*%
%TF.Part,CustomerPanel*%
G01*
G75*
%TA.AperFunction,NonConductor*%
%ADD28C,0.005000*%
D28*
X2336276Y3282618D02*
X2364276D01*
X2350276Y3268618D02*
Y3296618D01*
X2646276Y2995000D02*
X2674276D01*
X2660276Y2981000D02*
Y3009000D01*
X2841276Y3065000D02*
X2869276D01*
X2855276Y3051000D02*
Y3079000D01*
X2866276Y3355000D02*
X2894276D01*
X2880276Y3341000D02*
Y3369000D01*
X2851276Y3275000D02*
X2879276D01*
X2865276Y3261000D02*
Y3289000D01*
X1776276Y3355000D02*
X1804276D01*
X1790276Y3341000D02*
Y3369000D01*
X1906276Y3335000D02*
X1934276D01*
X1920276Y3321000D02*
Y3349000D01*
X1911276Y2985000D02*
X1939276D01*
X1925276Y2971000D02*
Y2999000D01*
X1996276Y2985000D02*
X2024276D01*
X2010276Y2971000D02*
Y2999000D01*
X1941276Y3270000D02*
X1969276D01*
X1955276Y3256000D02*
Y3284000D01*
X2051276Y3270000D02*
X2079276D01*
X2065276Y3256000D02*
Y3284000D01*
X2071276Y3065875D02*
X2099276D01*
X2085276Y3051875D02*
Y3079875D01*
X2161276Y3065875D02*
X2189276D01*
X2175276Y3051875D02*
Y3079875D01*
X2146276Y3270000D02*
X2174276D01*
X2160276Y3256000D02*
Y3284000D01*
X2436276Y3065875D02*
X2464276D01*
X2450276Y3051875D02*
Y3079875D01*
X2240445Y3270000D02*
X2268445D01*
X2254445Y3256000D02*
Y3284000D01*
X2238132Y3065875D02*
X2266132D01*
X2252132Y3051875D02*
Y3079875D01*
X2346276Y3065875D02*
X2374276D01*
X2360276Y3051875D02*
Y3079875D01*
X2506276Y3065875D02*
X2534276D01*
X2520276Y3051875D02*
Y3079875D01*
X2425019Y3270000D02*
X2453019D01*
X2439019Y3256000D02*
Y3284000D01*
X2781276Y3270000D02*
X2809276D01*
X2795276Y3256000D02*
Y3284000D01*
X2701276Y3270000D02*
X2729276D01*
X2715276Y3256000D02*
Y3284000D01*
X2607608Y3270000D02*
X2635608D01*
X2621608Y3256000D02*
Y3284000D01*
X2521276Y3270000D02*
X2549276D01*
X2535276Y3256000D02*
Y3284000D01*
X2591276Y3065875D02*
X2619276D01*
X2605276Y3051875D02*
Y3079875D01*
X2791276Y2990000D02*
X2819276D01*
X2805276Y2976000D02*
Y3004000D01*
X1821276Y2960000D02*
X1849276D01*
X1835276Y2946000D02*
Y2974000D01*
X1759819Y4241969D02*
X1787819D01*
X1773819Y4227969D02*
Y4255969D01*
X2854819Y3949351D02*
X2882819D01*
X2868819Y3935351D02*
Y3963351D01*
X2761492Y4136969D02*
X2789492D01*
X2775492Y4122969D02*
Y4150969D01*
X2854819Y4136969D02*
X2882819D01*
X2868819Y4122969D02*
Y4150969D01*
X1909819Y3941969D02*
X1937819D01*
X1923819Y3927969D02*
Y3955969D01*
X2914819Y4236969D02*
X2942819D01*
X2928819Y4222969D02*
Y4250969D01*
X2634819Y3946969D02*
X2662819D01*
X2648819Y3932969D02*
Y3960969D01*
X2134819Y3731969D02*
X2162819D01*
X2148819Y3717969D02*
Y3745969D01*
X2134819Y3651969D02*
X2162819D01*
X2148819Y3637969D02*
Y3665969D01*
X1939819Y3681969D02*
X1967819D01*
X1953819Y3667969D02*
Y3695969D01*
X1939819Y3761969D02*
X1967819D01*
X1953819Y3747969D02*
Y3775969D01*
X2854819Y3786969D02*
X2882819D01*
X2868819Y3772969D02*
Y3800969D01*
X2854819Y3706053D02*
X2882819D01*
X2868819Y3692053D02*
Y3720053D01*
X2634819Y3601296D02*
X2662819D01*
X2648819Y3587296D02*
Y3615296D01*
X2854819Y3601296D02*
X2882819D01*
X2868819Y3587296D02*
Y3615296D01*
X2634819Y3736853D02*
X2662819D01*
X2648819Y3722853D02*
Y3750853D01*
X2634819Y3856969D02*
X2662819D01*
X2648819Y3842969D02*
Y3870969D01*
X2359819Y4136969D02*
X2387819D01*
X2373819Y4122969D02*
Y4150969D01*
X2314819Y3946969D02*
X2342819D01*
X2328819Y3932969D02*
Y3960969D01*
X2444204Y3946969D02*
X2472204D01*
X2458204Y3932969D02*
Y3960969D01*
X2494819Y4136969D02*
X2522819D01*
X2508819Y4122969D02*
Y4150969D01*
X1939819Y3866969D02*
X1967819D01*
X1953819Y3852969D02*
Y3880969D01*
X2134819Y3861969D02*
X2162819D01*
X2148819Y3847969D02*
Y3875969D01*
X2634819Y4136969D02*
X2662819D01*
X2648819Y4122969D02*
Y4150969D01*
X2539819Y3946969D02*
X2567819D01*
X2553819Y3932969D02*
Y3960969D01*
X2854819Y3871969D02*
X2882819D01*
X2868819Y3857969D02*
Y3885969D01*
X1904819Y4161969D02*
X1932819D01*
X1918819Y4147969D02*
Y4175969D01*
X2134819Y3931969D02*
X2162819D01*
X2148819Y3917969D02*
Y3945969D01*
X2209819Y3946969D02*
X2237819D01*
X2223819Y3932969D02*
Y3960969D01*
X2235244Y4136969D02*
X2263244D01*
X2249244Y4122969D02*
Y4150969D01*
X2141366Y4136969D02*
X2169366D01*
X2155366Y4122969D02*
Y4150969D01*
X2054819Y4136969D02*
X2082819D01*
X2068819Y4122969D02*
Y4150969D01*
X1979819Y4136969D02*
X2007819D01*
X1993819Y4122969D02*
Y4150969D01*
X2744819Y3486969D02*
X2772819D01*
X2758819Y3472969D02*
Y3500969D01*
X2034819Y3481969D02*
X2062819D01*
X2048819Y3467969D02*
Y3495969D01*
%TF.MD5,d7cd3e8307fb70f6799ba7f70d1793b0*%
M02*
