%TF.GenerationSoftware,Altium Limited,Altium Designer,20.0.10 (225)*%
G04 Layer_Color=128*
%FSLAX26Y26*%
%MOIN*%
%TF.FileFunction,Drillmap*%
%TF.Part,CustomerPanel*%
G01*
G75*
%TA.AperFunction,NonConductor*%
%ADD32C,0.005000*%
D32*
X3285884Y3275906D02*
X3313884D01*
X3299884Y3261906D02*
Y3289906D01*
X3355884Y3650906D02*
X3383884D01*
X3369884Y3636906D02*
Y3664906D01*
X3195884Y3575906D02*
X3223884D01*
X3209884Y3561906D02*
Y3589906D01*
X2250884Y3605906D02*
X2278884D01*
X2264884Y3591906D02*
Y3619906D01*
X2235968Y3355000D02*
X2263968D01*
X2249968Y3341000D02*
Y3369000D01*
X3000884Y3245906D02*
X3028884D01*
X3014884Y3231906D02*
Y3259906D01*
X3230884Y3270906D02*
X3258884D01*
X3244884Y3256906D02*
Y3284906D01*
X2212243Y3261453D02*
X2240243D01*
X2226243Y3247453D02*
Y3275453D01*
X2413133Y3227710D02*
X2441133D01*
X2427133Y3213710D02*
Y3241710D01*
X2830240Y3550753D02*
X2858240D01*
X2844240Y3536753D02*
Y3564753D01*
X2750794Y3554357D02*
X2778794D01*
X2764794Y3540357D02*
Y3568357D01*
X2671267Y3554357D02*
X2699267D01*
X2685267Y3540357D02*
Y3568357D01*
X2591739Y3554280D02*
X2619739D01*
X2605739Y3540280D02*
Y3568280D01*
X2513452Y3540286D02*
X2541452D01*
X2527452Y3526286D02*
Y3554286D01*
X2585884Y3360906D02*
X2613884D01*
X2599884Y3346906D02*
Y3374906D01*
X2665884Y3365906D02*
X2693884D01*
X2679884Y3351906D02*
Y3379906D01*
X2746380Y3377915D02*
X2774380D01*
X2760380Y3363915D02*
Y3391915D01*
X2825706Y3383579D02*
X2853706D01*
X2839706Y3369579D02*
Y3397579D01*
X2905119Y3379317D02*
X2933119D01*
X2919119Y3365317D02*
Y3393317D01*
X2453794Y3554357D02*
X2481794D01*
X2467794Y3540357D02*
Y3568357D01*
X2374269Y3553748D02*
X2402269D01*
X2388269Y3539748D02*
Y3567748D01*
X2294805Y3556937D02*
X2322805D01*
X2308805Y3542937D02*
Y3570937D01*
X2416393Y3377000D02*
X2444393D01*
X2430393Y3363000D02*
Y3391000D01*
X2495756Y3382109D02*
X2523756D01*
X2509756Y3368109D02*
Y3396109D01*
X3125106Y3556937D02*
X3153106D01*
X3139106Y3542937D02*
Y3570937D01*
X3045643Y3553748D02*
X3073643D01*
X3059643Y3539748D02*
Y3567748D01*
X2966118Y3554357D02*
X2994118D01*
X2980118Y3540357D02*
Y3568357D01*
X2966232Y3377454D02*
X2994232D01*
X2980232Y3363454D02*
Y3391454D01*
X2025884Y3135906D02*
X2053884D01*
X2039884Y3121906D02*
Y3149906D01*
X3005884Y3315906D02*
X3033884D01*
X3019884Y3301906D02*
Y3329906D01*
X1517417Y1270748D02*
X1545417D01*
X1531417Y1256748D02*
Y1284748D01*
X1497417Y1760748D02*
X1525417D01*
X1511417Y1746748D02*
Y1774748D01*
X1482417Y1690748D02*
X1510417D01*
X1496417Y1676748D02*
Y1704748D01*
X1402417Y1690748D02*
X1430417D01*
X1416417Y1676748D02*
Y1704748D01*
X502417Y1390748D02*
X530417D01*
X516417Y1376748D02*
Y1404748D01*
X567417Y1755748D02*
X595417D01*
X581417Y1741748D02*
Y1769748D01*
X492417Y1790748D02*
X520417D01*
X506417Y1776748D02*
Y1804748D01*
X590264Y1685489D02*
X618264D01*
X604264Y1671489D02*
Y1699489D01*
X562417Y1490748D02*
X590417D01*
X576417Y1476748D02*
Y1504748D01*
X617417Y1470748D02*
X645417D01*
X631417Y1456748D02*
Y1484748D01*
X842417Y1390748D02*
X870417D01*
X856417Y1376748D02*
Y1404748D01*
X617417Y1405748D02*
X645417D01*
X631417Y1391748D02*
Y1419748D01*
X622417Y1330748D02*
X650417D01*
X636417Y1316748D02*
Y1344748D01*
X847417Y1320748D02*
X875417D01*
X861417Y1306748D02*
Y1334748D01*
X1317417Y1385748D02*
X1345417D01*
X1331417Y1371748D02*
Y1399748D01*
X1505792Y1355290D02*
X1533792D01*
X1519792Y1341290D02*
Y1369290D01*
X1505792Y1434818D02*
X1533792D01*
X1519792Y1420818D02*
Y1448818D01*
X1056646Y1676906D02*
X1084646D01*
X1070646Y1662906D02*
Y1690906D01*
X977453Y1684200D02*
X1005453D01*
X991453Y1670200D02*
Y1698200D01*
X924940Y1508478D02*
X952940D01*
X938940Y1494478D02*
Y1522478D01*
X1004235Y1514558D02*
X1032235D01*
X1018235Y1500558D02*
Y1528558D01*
X1083430Y1507296D02*
X1111430D01*
X1097430Y1493296D02*
Y1521296D01*
X757417Y1700748D02*
X785417D01*
X771417Y1686748D02*
Y1714748D01*
X672417Y1695748D02*
X700417D01*
X686417Y1681748D02*
Y1709748D01*
X847417Y1450748D02*
X875417D01*
X861417Y1436748D02*
Y1464748D01*
X845904Y1507296D02*
X873904D01*
X859904Y1493296D02*
Y1521296D01*
X880058Y1682997D02*
X908058D01*
X894058Y1668997D02*
Y1696997D01*
X1319433Y1684654D02*
X1347433D01*
X1333433Y1670654D02*
Y1698654D01*
X1239905Y1684654D02*
X1267905D01*
X1253905Y1670654D02*
Y1698654D01*
X1161809Y1669632D02*
X1189809D01*
X1175809Y1655632D02*
Y1683632D01*
X1159097Y1525785D02*
X1187097D01*
X1173097Y1511785D02*
Y1539785D01*
X1236445Y1507296D02*
X1264445D01*
X1250445Y1493296D02*
Y1521296D01*
X1315970Y1507906D02*
X1343970D01*
X1329970Y1493906D02*
Y1521906D01*
X1312417Y1450748D02*
X1340417D01*
X1326417Y1436748D02*
Y1464748D01*
X719307Y2307638D02*
X747307D01*
X733307Y2293638D02*
Y2321638D01*
X534307Y2747638D02*
X562307D01*
X548307Y2733638D02*
Y2761638D01*
X524307Y2532638D02*
X552307D01*
X538307Y2518638D02*
Y2546638D01*
X1221707Y2710299D02*
X1249707D01*
X1235707Y2696299D02*
Y2724299D01*
X1301234Y2710299D02*
X1329234D01*
X1315234Y2696299D02*
Y2724299D01*
X1380762Y2710299D02*
X1408762D01*
X1394762Y2696299D02*
Y2724299D01*
X1460290Y2710299D02*
X1488290D01*
X1474290Y2696299D02*
Y2724299D01*
X1111492Y2723774D02*
X1139492D01*
X1125492Y2709774D02*
Y2737774D01*
X1002555Y2719401D02*
X1030555D01*
X1016555Y2705401D02*
Y2733401D01*
X1034307Y2527638D02*
X1062307D01*
X1048307Y2513638D02*
Y2541638D01*
X964307Y2527638D02*
X992307D01*
X978307Y2513638D02*
Y2541638D01*
X905798Y2333479D02*
X933798D01*
X919798Y2319479D02*
Y2347479D01*
X994307Y2332638D02*
X1022307D01*
X1008307Y2318638D02*
Y2346638D01*
X1065320Y2348474D02*
X1093320D01*
X1079320Y2334474D02*
Y2362474D01*
X801649Y2348551D02*
X829649D01*
X815649Y2334551D02*
Y2362551D01*
X757482Y2719436D02*
X785482D01*
X771482Y2705436D02*
Y2733436D01*
X801649Y2533551D02*
X829649D01*
X815649Y2519551D02*
Y2547551D01*
X901492Y2723774D02*
X929492D01*
X915492Y2709774D02*
Y2737774D01*
X1105855Y2289145D02*
X1133855D01*
X1119855Y2275145D02*
Y2303145D01*
X1109179Y2209687D02*
X1137179D01*
X1123179Y2195687D02*
Y2223687D01*
X1109924Y2130163D02*
X1137924D01*
X1123924Y2116163D02*
Y2144163D01*
X1105855Y2050739D02*
X1133855D01*
X1119855Y2036739D02*
Y2064739D01*
X1282759Y2060299D02*
X1310759D01*
X1296759Y2046299D02*
Y2074299D01*
X1281917Y2139822D02*
X1309917D01*
X1295917Y2125822D02*
Y2153822D01*
X1273556Y2218909D02*
X1301556D01*
X1287556Y2204909D02*
Y2232909D01*
X1283213Y2297849D02*
X1311213D01*
X1297213Y2283849D02*
Y2311849D01*
X1283213Y2377376D02*
X1311213D01*
X1297213Y2363376D02*
Y2391376D01*
X1284886Y2456886D02*
X1312886D01*
X1298886Y2442886D02*
Y2470886D01*
X1306031Y2533551D02*
X1334031D01*
X1320031Y2519551D02*
Y2547551D01*
X1385558Y2533551D02*
X1413558D01*
X1399558Y2519551D02*
Y2547551D01*
X1465086Y2533551D02*
X1493086D01*
X1479086Y2519551D02*
Y2547551D01*
X587232Y2710299D02*
X615232D01*
X601232Y2696299D02*
Y2724299D01*
X527902Y2455585D02*
X555902D01*
X541902Y2441585D02*
Y2469585D01*
X529005Y2376065D02*
X557005D01*
X543005Y2362065D02*
Y2390065D01*
X529005Y2296537D02*
X557005D01*
X543005Y2282537D02*
Y2310537D01*
X653050Y2709174D02*
X681050D01*
X667050Y2695174D02*
Y2723174D01*
X377721Y2026446D02*
X405721D01*
X391721Y2012446D02*
Y2040446D01*
X929307Y2072638D02*
X957307D01*
X943307Y2058638D02*
Y2086638D01*
X2688798Y2901358D02*
X2716798D01*
X2702798Y2887358D02*
Y2915358D01*
X2998798Y2613740D02*
X3026798D01*
X3012798Y2599740D02*
Y2627740D01*
X3193798Y2683740D02*
X3221798D01*
X3207798Y2669740D02*
Y2697740D01*
X3218798Y2973740D02*
X3246798D01*
X3232798Y2959740D02*
Y2987740D01*
X3203798Y2893740D02*
X3231798D01*
X3217798Y2879740D02*
Y2907740D01*
X2128798Y2973740D02*
X2156798D01*
X2142798Y2959740D02*
Y2987740D01*
X2258798Y2953740D02*
X2286798D01*
X2272798Y2939740D02*
Y2967740D01*
X2263798Y2603740D02*
X2291798D01*
X2277798Y2589740D02*
Y2617740D01*
X2348798Y2603740D02*
X2376798D01*
X2362798Y2589740D02*
Y2617740D01*
X2293798Y2888740D02*
X2321798D01*
X2307798Y2874740D02*
Y2902740D01*
X2403798Y2888740D02*
X2431798D01*
X2417798Y2874740D02*
Y2902740D01*
X2423798Y2684615D02*
X2451798D01*
X2437798Y2670615D02*
Y2698615D01*
X2513798Y2684615D02*
X2541798D01*
X2527798Y2670615D02*
Y2698615D01*
X2498798Y2888740D02*
X2526798D01*
X2512798Y2874740D02*
Y2902740D01*
X2788798Y2684615D02*
X2816798D01*
X2802798Y2670615D02*
Y2698615D01*
X2592967Y2888740D02*
X2620967D01*
X2606967Y2874740D02*
Y2902740D01*
X2590654Y2684615D02*
X2618654D01*
X2604654Y2670615D02*
Y2698615D01*
X2698798Y2684615D02*
X2726798D01*
X2712798Y2670615D02*
Y2698615D01*
X2858798Y2684615D02*
X2886798D01*
X2872798Y2670615D02*
Y2698615D01*
X2777541Y2888740D02*
X2805541D01*
X2791541Y2874740D02*
Y2902740D01*
X3133798Y2888740D02*
X3161798D01*
X3147798Y2874740D02*
Y2902740D01*
X3053798Y2888740D02*
X3081798D01*
X3067798Y2874740D02*
Y2902740D01*
X2960130Y2888740D02*
X2988130D01*
X2974130Y2874740D02*
Y2902740D01*
X2873798Y2888740D02*
X2901798D01*
X2887798Y2874740D02*
Y2902740D01*
X2943798Y2684615D02*
X2971798D01*
X2957798Y2670615D02*
Y2698615D01*
X3143798Y2608740D02*
X3171798D01*
X3157798Y2594740D02*
Y2622740D01*
X2173798Y2578740D02*
X2201798D01*
X2187798Y2564740D02*
Y2592740D01*
X1490606Y725748D02*
X1518606D01*
X1504606Y711748D02*
Y739748D01*
X1435606Y720748D02*
X1463606D01*
X1449606Y706748D02*
Y734748D01*
X1460606Y910748D02*
X1488606D01*
X1474606Y896748D02*
Y924748D01*
X1240549Y904374D02*
X1268549D01*
X1254549Y890374D02*
Y918374D01*
X1320076Y904358D02*
X1348076D01*
X1334076Y890358D02*
Y918358D01*
X1385606Y910748D02*
X1413606D01*
X1399606Y896748D02*
Y924748D01*
X1375606Y720748D02*
X1403606D01*
X1389606Y706748D02*
Y734748D01*
X1159347Y688185D02*
X1187347D01*
X1173347Y674185D02*
Y702185D01*
X1480606Y445748D02*
X1508606D01*
X1494606Y431748D02*
Y459748D01*
X1150606Y460748D02*
X1178606D01*
X1164606Y446748D02*
Y474748D01*
X1006698Y904665D02*
X1034698D01*
X1020698Y890665D02*
Y918665D01*
X1150606Y540748D02*
X1178606D01*
X1164606Y526748D02*
Y554748D01*
X1150606Y610748D02*
X1178606D01*
X1164606Y596748D02*
Y624748D01*
X611680Y908366D02*
X639680D01*
X625680Y894366D02*
Y922366D01*
X550606Y720748D02*
X578606D01*
X564606Y706748D02*
Y734748D01*
X430606Y1025748D02*
X458606D01*
X444606Y1011748D02*
Y1039748D01*
X500606Y1020748D02*
X528606D01*
X514606Y1006748D02*
Y1034748D01*
X752798Y531726D02*
X780798D01*
X766798Y517726D02*
Y545726D01*
X752798Y611254D02*
X780798D01*
X766798Y597254D02*
Y625254D01*
X576676Y595679D02*
X604676D01*
X590676Y581679D02*
Y609679D01*
X575895Y516156D02*
X603895D01*
X589895Y502156D02*
Y530156D01*
X575895Y436628D02*
X603895D01*
X589895Y422628D02*
Y450628D01*
X760606Y455748D02*
X788606D01*
X774606Y441748D02*
Y469748D01*
X1340606Y470748D02*
X1368606D01*
X1354606Y456748D02*
Y484748D01*
X1340606Y530748D02*
X1368606D01*
X1354606Y516748D02*
Y544748D01*
X1340872Y595077D02*
X1368872D01*
X1354872Y581077D02*
Y609077D01*
X1340606Y405748D02*
X1368606D01*
X1354606Y391748D02*
Y419748D01*
X1344783Y671494D02*
X1372783D01*
X1358783Y657494D02*
Y685494D01*
X1161021Y904488D02*
X1189021D01*
X1175021Y890488D02*
Y918488D01*
X1081495Y904967D02*
X1109495D01*
X1095495Y890967D02*
Y918967D01*
X929024Y903952D02*
X957024D01*
X943024Y889952D02*
Y917952D01*
X849829Y896691D02*
X877829D01*
X863829Y882691D02*
Y910691D01*
X770733Y904967D02*
X798733D01*
X784733Y890967D02*
Y918967D01*
X691208Y904358D02*
X719208D01*
X705208Y890358D02*
Y918358D01*
X545606Y925748D02*
X573606D01*
X559606Y911748D02*
Y939748D01*
X570606Y660748D02*
X598606D01*
X584606Y646748D02*
Y674748D01*
X755606Y675748D02*
X783606D01*
X769606Y661748D02*
Y689748D01*
X790552Y728064D02*
X818552D01*
X804552Y714064D02*
Y742064D01*
X870079Y728331D02*
X898079D01*
X884079Y714331D02*
Y742331D01*
X947237Y708962D02*
X975237D01*
X961237Y694962D02*
Y722962D01*
X1032351Y706556D02*
X1060351D01*
X1046351Y692556D02*
Y720556D01*
X1107570Y703456D02*
X1135570D01*
X1121570Y689456D02*
Y717456D01*
X401591Y3690118D02*
X429591D01*
X415591Y3676118D02*
Y3704118D01*
X1496591Y3397500D02*
X1524591D01*
X1510591Y3383500D02*
Y3411500D01*
X1403264Y3585118D02*
X1431264D01*
X1417264Y3571118D02*
Y3599118D01*
X1496591Y3585118D02*
X1524591D01*
X1510591Y3571118D02*
Y3599118D01*
X551591Y3390118D02*
X579591D01*
X565591Y3376118D02*
Y3404118D01*
X1556591Y3685118D02*
X1584591D01*
X1570591Y3671118D02*
Y3699118D01*
X1276591Y3395118D02*
X1304591D01*
X1290591Y3381118D02*
Y3409118D01*
X776591Y3180118D02*
X804591D01*
X790591Y3166118D02*
Y3194118D01*
X776591Y3100118D02*
X804591D01*
X790591Y3086118D02*
Y3114118D01*
X581591Y3130118D02*
X609591D01*
X595591Y3116118D02*
Y3144118D01*
X581591Y3210118D02*
X609591D01*
X595591Y3196118D02*
Y3224118D01*
X1496591Y3235118D02*
X1524591D01*
X1510591Y3221118D02*
Y3249118D01*
X1496591Y3154203D02*
X1524591D01*
X1510591Y3140203D02*
Y3168203D01*
X1276591Y3049445D02*
X1304591D01*
X1290591Y3035445D02*
Y3063445D01*
X1496591Y3049445D02*
X1524591D01*
X1510591Y3035445D02*
Y3063445D01*
X1276591Y3185003D02*
X1304591D01*
X1290591Y3171003D02*
Y3199003D01*
X1276591Y3305118D02*
X1304591D01*
X1290591Y3291118D02*
Y3319118D01*
X1001591Y3585118D02*
X1029591D01*
X1015591Y3571118D02*
Y3599118D01*
X956591Y3395118D02*
X984591D01*
X970591Y3381118D02*
Y3409118D01*
X1085975Y3395118D02*
X1113975D01*
X1099975Y3381118D02*
Y3409118D01*
X1136591Y3585118D02*
X1164591D01*
X1150591Y3571118D02*
Y3599118D01*
X581591Y3315118D02*
X609591D01*
X595591Y3301118D02*
Y3329118D01*
X776591Y3310118D02*
X804591D01*
X790591Y3296118D02*
Y3324118D01*
X1276591Y3585118D02*
X1304591D01*
X1290591Y3571118D02*
Y3599118D01*
X1181591Y3395118D02*
X1209591D01*
X1195591Y3381118D02*
Y3409118D01*
X1496591Y3320118D02*
X1524591D01*
X1510591Y3306118D02*
Y3334118D01*
X546591Y3610118D02*
X574591D01*
X560591Y3596118D02*
Y3624118D01*
X776591Y3380118D02*
X804591D01*
X790591Y3366118D02*
Y3394118D01*
X851591Y3395118D02*
X879591D01*
X865591Y3381118D02*
Y3409118D01*
X877016Y3585118D02*
X905016D01*
X891016Y3571118D02*
Y3599118D01*
X783138Y3585118D02*
X811138D01*
X797138Y3571118D02*
Y3599118D01*
X696591Y3585118D02*
X724591D01*
X710591Y3571118D02*
Y3599118D01*
X621591Y3585118D02*
X649591D01*
X635591Y3571118D02*
Y3599118D01*
X1386591Y2935118D02*
X1414591D01*
X1400591Y2921118D02*
Y2949118D01*
X676591Y2930118D02*
X704591D01*
X690591Y2916118D02*
Y2944118D01*
%TF.MD5,ada369019c870805f06ef8a18ef2c82a*%
M02*
