%TF.GenerationSoftware,Altium Limited,Altium Designer,20.0.10 (225)*%
G04 Layer_Color=0*
%FSLAX26Y26*%
%MOIN*%
%TF.FileFunction,Profile,NP*%
%TF.Part,CustomerPanel*%
G01*
G75*
%TA.AperFunction,Profile*%
%ADD24C,0.001000*%
G36*
X3042485Y3322105D02*
Y3320028D01*
X3045423Y3317090D01*
X3049577D01*
X3052515Y3320028D01*
Y3322105D01*
D01*
Y3340000D01*
Y3342077D01*
X3049577Y3345015D01*
X3045423D01*
X3042485Y3342077D01*
Y3340000D01*
D01*
Y3322105D01*
D02*
G37*
G36*
Y4060000D02*
Y4057923D01*
X3045423Y4054985D01*
X3049577D01*
X3052515Y4057923D01*
Y4060000D01*
D01*
Y4415000D01*
Y4417077D01*
X3049577Y4420015D01*
X3045423D01*
X3042485Y4417077D01*
Y4415000D01*
D01*
Y4060000D01*
D02*
G37*
G36*
Y4535000D02*
Y4532923D01*
X3045423Y4529985D01*
X3049577D01*
X3052515Y4532923D01*
Y4535000D01*
D01*
Y4627187D01*
Y4629264D01*
X3049577Y4632202D01*
X3045423D01*
X3042485Y4629264D01*
Y4627187D01*
D01*
Y4535000D01*
D02*
G37*
G36*
Y3460000D02*
Y3457923D01*
X3045423Y3454985D01*
X3049577D01*
X3052515Y3457923D01*
Y3460000D01*
D01*
Y3940000D01*
Y3942077D01*
X3049577Y3945015D01*
X3045423D01*
X3042485Y3942077D01*
Y3940000D01*
D01*
Y3460000D01*
D02*
G37*
D24*
X2454449Y3208984D02*
X2926890D01*
D02*
G03*
X3047500Y3303776I0J124126D01*
G01*
X3047500D01*
D02*
G03*
X3168110Y3208984I120610J29334D01*
G01*
X3811890D01*
D02*
G03*
X3936016Y3333110I0J124126D01*
G01*
D02*
G03*
X3936016Y3333135I-6016J0D01*
G01*
D02*
G03*
X3936016Y3333145I-6016J-24D01*
G01*
X3936016Y4616181D01*
D02*
G03*
X3936016Y4616217I-6016J0D01*
G01*
D02*
G02*
X3936016Y4616207I-124126J-36D01*
G01*
D02*
G02*
X3936016Y4616206I-3015J-1D01*
G01*
D02*
G02*
X3936016Y4616206I-3015J0D01*
G01*
D02*
G03*
X3936016Y4616206I-3015J-25D01*
G01*
D02*
G02*
X3936016Y4616181I-124126J-25D01*
G01*
X3936016D01*
D02*
G03*
X3936016Y4616206I-3015J0D01*
G01*
D02*
G02*
X3936016Y4616181I-3015J0D01*
G01*
X3936016Y4616207D01*
D02*
G03*
X3936016Y4616231I-3015J-1D01*
G01*
D02*
G02*
X3936016Y4616217I-6016J-50D01*
G01*
D02*
G03*
X3811890Y4740307I-124126J-36D01*
G01*
X3168110D01*
D02*
G03*
X3047500Y4645516I0J-124126D01*
G01*
D02*
G03*
X2926890Y4740307I-120610J-29335D01*
G01*
X2454449D01*
D02*
G03*
X2330323Y4616181I0J-124126D01*
G01*
Y3333110D01*
D02*
G03*
X2454449Y3208984I124126J0D01*
G01*
%TF.MD5,63cd412ccf89c34c44022e4d447646c8*%
M02*
