%TF.GenerationSoftware,Altium Limited,Altium Designer,20.0.10 (225)*%
G04 Layer_Color=8421504*
%FSLAX26Y26*%
%MOIN*%
%TF.FileFunction,Paste,Top*%
%TF.Part,CustomerPanel*%
G01*
G75*
%TA.AperFunction,SMDPad,CuDef*%
%ADD10R,0.047244X0.196850*%
%ADD11R,0.062992X0.196850*%
%ADD12R,0.049213X0.106299*%
%ADD13R,0.106299X0.049213*%
D10*
X3305650Y3353189D02*
D03*
Y4592559D02*
D03*
X2627894Y4590591D02*
D03*
Y3343347D02*
D03*
D11*
X3414705Y3353189D02*
D03*
X3196595D02*
D03*
X3414705Y4592559D02*
D03*
X3196595D02*
D03*
X2736949Y4590591D02*
D03*
X2518839D02*
D03*
Y3343347D02*
D03*
X2736949D02*
D03*
D12*
X3689532Y4200905D02*
D03*
X3801736D02*
D03*
X3499532D02*
D03*
X3611736D02*
D03*
X3310634D02*
D03*
X3422839D02*
D03*
X3689532Y3617756D02*
D03*
X3801736D02*
D03*
X3499532D02*
D03*
X3611736D02*
D03*
X3310634D02*
D03*
X3422839D02*
D03*
X2835004Y3568543D02*
D03*
X2947209D02*
D03*
X2632878D02*
D03*
X2745083D02*
D03*
X2835004Y4348543D02*
D03*
X2947209D02*
D03*
X2632878D02*
D03*
X2745083D02*
D03*
D13*
X3309232Y4048661D02*
D03*
Y3936457D02*
D03*
Y3850118D02*
D03*
Y3737913D02*
D03*
X2630551Y3808543D02*
D03*
Y3696339D02*
D03*
Y4017146D02*
D03*
Y3904941D02*
D03*
Y4224646D02*
D03*
Y4112441D02*
D03*
%TF.MD5,e0255319f603adda3fedc05f4c812e00*%
M02*
