%TF.GenerationSoftware,Altium Limited,Altium Designer,20.0.10 (225)*%
G04 Layer_Color=0*
%FSLAX26Y26*%
%MOIN*%
%TF.FileFunction,NonPlated,1,2,NPTH,Drill*%
%TF.Part,CustomerPanel*%
G01*
G75*
G36*
X2061938Y2028740D02*
Y2025158D01*
X2063336Y2018132D01*
X2066077Y2011513D01*
X2070057Y2005556D01*
X2075123Y2000490D01*
X2081080Y1996510D01*
X2087699Y1993769D01*
X2094725Y1992371D01*
X2098307D01*
X2101889D01*
X2108916Y1993769D01*
X2115534Y1996510D01*
X2121491Y2000490D01*
X2126557Y2005556D01*
X2130537Y2011513D01*
X2133278Y2018132D01*
X2134676Y2025158D01*
Y2028740D01*
Y2032322D01*
X2133278Y2039349D01*
X2130537Y2045967D01*
X2126557Y2051924D01*
X2121491Y2056990D01*
X2115534Y2060970D01*
X2108916Y2063712D01*
X2101889Y2065109D01*
X2098307D01*
X2094725D01*
X2087699Y2063712D01*
X2081080Y2060970D01*
X2075123Y2056990D01*
X2070057Y2051924D01*
X2066077Y2045967D01*
X2063336Y2039349D01*
X2061938Y2032322D01*
Y2028740D01*
D01*
D02*
G37*
G36*
X1980325Y3495000D02*
Y3642008D01*
Y3650144D01*
X1982449Y3666276D01*
X1986660Y3681993D01*
X1992887Y3697025D01*
X2001022Y3711117D01*
X2010928Y3724026D01*
X2022433Y3735531D01*
X2035342Y3745437D01*
X2049434Y3753572D01*
X2064466Y3759799D01*
X2080183Y3764010D01*
X2096315Y3766134D01*
X2104451D01*
D01*
X2230000D01*
X2230600D01*
X2231708Y3765675D01*
X2232556Y3764827D01*
X2233015Y3763719D01*
Y3763119D01*
Y3762519D01*
X2232556Y3761411D01*
X2231708Y3760563D01*
X2230600Y3760104D01*
X2230000D01*
D01*
X2104451D01*
X2096727Y3759851D01*
X2081412Y3757835D01*
X2066490Y3753837D01*
X2052218Y3747925D01*
X2038840Y3740201D01*
X2026585Y3730797D01*
X2015661Y3719874D01*
X2006257Y3707619D01*
X1998534Y3694241D01*
X1992622Y3679969D01*
X1988624Y3665047D01*
X1986608Y3649732D01*
X1986355Y3642008D01*
D01*
Y3495000D01*
Y3493751D01*
X1984589Y3491985D01*
X1982091D01*
X1980325Y3493751D01*
Y3495000D01*
D01*
D02*
G37*
G36*
X2350000Y3760104D02*
X2348751D01*
X2346985Y3761870D01*
Y3764368D01*
X2348751Y3766134D01*
X2350000D01*
D01*
X2870000D01*
X2870600D01*
X2871708Y3765675D01*
X2872556Y3764827D01*
X2873015Y3763719D01*
Y3763119D01*
Y3762519D01*
X2872556Y3761411D01*
X2871708Y3760563D01*
X2870600Y3760104D01*
X2870000D01*
D01*
X2350000D01*
D02*
G37*
G36*
X2990000D02*
X2988751D01*
X2986985Y3761870D01*
Y3764368D01*
X2988751Y3766134D01*
X2990000D01*
D01*
X3387522D01*
X3395657D01*
X3411790Y3764010D01*
X3427506Y3759799D01*
X3442539Y3753572D01*
X3456631Y3745437D01*
X3469539Y3735531D01*
X3481045Y3724026D01*
X3490950Y3711117D01*
X3499086Y3697025D01*
X3505313Y3681993D01*
X3509524Y3666276D01*
X3511648Y3650144D01*
Y3642008D01*
D01*
Y3495000D01*
Y3493751D01*
X3509882Y3491985D01*
X3507384D01*
X3505618Y3493751D01*
Y3495000D01*
D01*
Y3642008D01*
X3505365Y3649732D01*
X3503349Y3665047D01*
X3499351Y3679969D01*
X3493439Y3694241D01*
X3485715Y3707619D01*
X3476311Y3719874D01*
X3465388Y3730797D01*
X3453133Y3740201D01*
X3439755Y3747925D01*
X3425483Y3753837D01*
X3410561Y3757835D01*
X3395246Y3759851D01*
X3387522Y3760104D01*
D01*
X2990000D01*
D02*
G37*
G36*
Y3045441D02*
X2988751D01*
X2986985Y3047207D01*
Y3049705D01*
X2988751Y3051471D01*
X2990000D01*
D01*
X3387522D01*
X3395246Y3051724D01*
X3410561Y3053740D01*
X3425483Y3057738D01*
X3439755Y3063650D01*
X3453133Y3071374D01*
X3465388Y3080778D01*
X3476311Y3091701D01*
X3485715Y3103956D01*
X3493439Y3117334D01*
X3499351Y3131606D01*
X3503349Y3146528D01*
X3505365Y3161843D01*
X3505618Y3169567D01*
D01*
Y3375000D01*
Y3376249D01*
X3507384Y3378015D01*
X3509882D01*
X3511648Y3376249D01*
Y3375000D01*
D01*
Y3169567D01*
Y3161431D01*
X3509524Y3145299D01*
X3505313Y3129582D01*
X3499086Y3114550D01*
X3490950Y3100458D01*
X3481045Y3087549D01*
X3469539Y3076044D01*
X3456631Y3066138D01*
X3442539Y3058003D01*
X3427506Y3051776D01*
X3411790Y3047565D01*
X3395657Y3045441D01*
X3387522D01*
D01*
X2990000D01*
D02*
G37*
G36*
Y3033726D02*
X2988751D01*
X2986985Y3035492D01*
Y3037990D01*
X2988751Y3039756D01*
X2990000D01*
D01*
X3387522D01*
X3395657D01*
X3411790Y3037632D01*
X3427506Y3033421D01*
X3442539Y3027194D01*
X3456631Y3019059D01*
X3469539Y3009153D01*
X3481045Y2997648D01*
X3490950Y2984739D01*
X3499086Y2970647D01*
X3505313Y2955615D01*
X3509524Y2939898D01*
X3511648Y2923766D01*
Y2915630D01*
D01*
Y2825000D01*
Y2823751D01*
X3509882Y2821985D01*
X3507384D01*
X3505618Y2823751D01*
Y2825000D01*
D01*
Y2915630D01*
X3505365Y2923354D01*
X3503349Y2938669D01*
X3499351Y2953591D01*
X3493439Y2967863D01*
X3485715Y2981241D01*
X3476311Y2993496D01*
X3465388Y3004419D01*
X3453133Y3013823D01*
X3439755Y3021547D01*
X3425483Y3027459D01*
X3410561Y3031457D01*
X3395246Y3033473D01*
X3387522Y3033726D01*
D01*
X2990000D01*
D02*
G37*
G36*
X2350000D02*
X2348751D01*
X2346985Y3035492D01*
Y3037990D01*
X2348751Y3039756D01*
X2350000D01*
D01*
X2870000D01*
X2870600D01*
X2871708Y3039297D01*
X2872556Y3038449D01*
X2873015Y3037341D01*
Y3036741D01*
Y3036141D01*
X2872556Y3035033D01*
X2871708Y3034185D01*
X2870600Y3033726D01*
X2870000D01*
D01*
X2350000D01*
D02*
G37*
G36*
Y3045441D02*
X2348751D01*
X2346985Y3047207D01*
Y3049705D01*
X2348751Y3051471D01*
X2350000D01*
D01*
X2870000D01*
X2870600D01*
X2871708Y3051012D01*
X2872556Y3050164D01*
X2873015Y3049055D01*
Y3048456D01*
Y3047856D01*
X2872556Y3046748D01*
X2871708Y3045900D01*
X2870600Y3045441D01*
X2870000D01*
D01*
X2350000D01*
D02*
G37*
G36*
X1980325Y3169567D02*
Y3375000D01*
Y3376249D01*
X1982091Y3378015D01*
X1984589D01*
X1986355Y3376249D01*
Y3375000D01*
D01*
Y3169567D01*
X1986608Y3161843D01*
X1988624Y3146528D01*
X1992622Y3131606D01*
X1998534Y3117334D01*
X2006257Y3103956D01*
X2015661Y3091701D01*
X2026585Y3080778D01*
X2038840Y3071374D01*
X2052218Y3063650D01*
X2066490Y3057738D01*
X2081412Y3053740D01*
X2096727Y3051724D01*
X2104451Y3051471D01*
D01*
X2230000D01*
X2230600D01*
X2231708Y3051012D01*
X2232556Y3050164D01*
X2233015Y3049055D01*
Y3048456D01*
Y3047856D01*
X2232556Y3046748D01*
X2231708Y3045900D01*
X2230600Y3045441D01*
X2230000D01*
D01*
X2104451D01*
X2096315D01*
X2080183Y3047565D01*
X2064466Y3051776D01*
X2049434Y3058003D01*
X2035342Y3066138D01*
X2022433Y3076044D01*
X2010928Y3087549D01*
X2001022Y3100458D01*
X1992887Y3114550D01*
X1986660Y3129582D01*
X1982449Y3145299D01*
X1980325Y3161431D01*
Y3169567D01*
D01*
D02*
G37*
G36*
Y2825000D02*
Y2915630D01*
Y2923766D01*
X1982449Y2939898D01*
X1986660Y2955615D01*
X1992887Y2970647D01*
X2001022Y2984739D01*
X2010928Y2997648D01*
X2022433Y3009153D01*
X2035342Y3019059D01*
X2049434Y3027194D01*
X2064466Y3033421D01*
X2080183Y3037632D01*
X2096315Y3039756D01*
X2104451D01*
D01*
X2230000D01*
X2230600D01*
X2231708Y3039297D01*
X2232556Y3038449D01*
X2233015Y3037341D01*
Y3036741D01*
Y3036141D01*
X2232556Y3035033D01*
X2231708Y3034185D01*
X2230600Y3033726D01*
X2230000D01*
D01*
X2104451D01*
X2096727Y3033473D01*
X2081412Y3031457D01*
X2066490Y3027459D01*
X2052218Y3021547D01*
X2038840Y3013823D01*
X2026585Y3004419D01*
X2015661Y2993496D01*
X2006257Y2981241D01*
X1998534Y2967863D01*
X1992622Y2953591D01*
X1988624Y2938669D01*
X1986608Y2923354D01*
X1986355Y2915630D01*
D01*
Y2825000D01*
Y2823751D01*
X1984589Y2821985D01*
X1982091D01*
X1980325Y2823751D01*
Y2825000D01*
D01*
D02*
G37*
G36*
Y2562717D02*
Y2705000D01*
Y2706249D01*
X1982091Y2708015D01*
X1984589D01*
X1986355Y2706249D01*
Y2705000D01*
D01*
Y2562717D01*
X1986608Y2554993D01*
X1988624Y2539677D01*
X1992622Y2524756D01*
X1998534Y2510484D01*
X2006257Y2497106D01*
X2015661Y2484850D01*
X2026585Y2473927D01*
X2038840Y2464523D01*
X2052218Y2456799D01*
X2066490Y2450888D01*
X2081412Y2446890D01*
X2096727Y2444873D01*
X2104451Y2444620D01*
D01*
X2230000D01*
X2230600D01*
X2231708Y2444161D01*
X2232556Y2443313D01*
X2233015Y2442205D01*
Y2441605D01*
Y2441006D01*
X2232556Y2439898D01*
X2231708Y2439049D01*
X2230600Y2438590D01*
X2230000D01*
D01*
X2104451D01*
X2096315D01*
X2080183Y2440714D01*
X2064466Y2444925D01*
X2049434Y2451152D01*
X2035342Y2459288D01*
X2022433Y2469193D01*
X2010928Y2480699D01*
X2001022Y2493608D01*
X1992887Y2507699D01*
X1986660Y2522732D01*
X1982449Y2538449D01*
X1980325Y2554581D01*
Y2562717D01*
D01*
D02*
G37*
G36*
X2350000Y2438590D02*
X2348751D01*
X2346985Y2440356D01*
Y2442854D01*
X2348751Y2444620D01*
X2350000D01*
D01*
X2870000D01*
X2870600D01*
X2871708Y2444161D01*
X2872556Y2443313D01*
X2873015Y2442205D01*
Y2441605D01*
Y2441006D01*
X2872556Y2439898D01*
X2871708Y2439049D01*
X2870600Y2438590D01*
X2870000D01*
D01*
X2350000D01*
D02*
G37*
G36*
X2990000D02*
X2988751D01*
X2986985Y2440356D01*
Y2442854D01*
X2988751Y2444620D01*
X2990000D01*
D01*
X3387522D01*
X3395246Y2444873D01*
X3410561Y2446890D01*
X3425483Y2450888D01*
X3439755Y2456799D01*
X3453133Y2464523D01*
X3465388Y2473927D01*
X3476311Y2484850D01*
X3485715Y2497106D01*
X3493439Y2510484D01*
X3499351Y2524756D01*
X3503349Y2539677D01*
X3505365Y2554993D01*
X3505618Y2562717D01*
D01*
Y2705000D01*
Y2706249D01*
X3507384Y2708015D01*
X3509882D01*
X3511648Y2706249D01*
Y2705000D01*
D01*
Y2562717D01*
Y2554581D01*
X3509524Y2538449D01*
X3505313Y2522732D01*
X3499086Y2507699D01*
X3490950Y2493608D01*
X3481045Y2480699D01*
X3469539Y2469193D01*
X3456631Y2459288D01*
X3442539Y2451152D01*
X3427506Y2444925D01*
X3411790Y2440714D01*
X3395657Y2438590D01*
X3387522D01*
D01*
X2990000D01*
D02*
G37*
G36*
X2145000Y2423726D02*
X2143751D01*
X2141985Y2425492D01*
Y2427990D01*
X2143751Y2429756D01*
X2145000D01*
D01*
X2230000D01*
X2230600D01*
X2231708Y2429297D01*
X2232556Y2428449D01*
X2233015Y2427341D01*
Y2426741D01*
Y2426141D01*
X2232556Y2425033D01*
X2231708Y2424185D01*
X2230600Y2423726D01*
X2230000D01*
D01*
X2145000D01*
D02*
G37*
G36*
X2350000D02*
X2870000D01*
X2870600D01*
X2871708Y2424185D01*
X2872556Y2425033D01*
X2873015Y2426141D01*
Y2426741D01*
Y2427341D01*
X2872556Y2428449D01*
X2871708Y2429297D01*
X2870600Y2429756D01*
X2870000D01*
D01*
X2350000D01*
X2348751D01*
X2346985Y2427990D01*
Y2425492D01*
X2348751Y2423726D01*
X2350000D01*
D01*
D02*
G37*
G36*
X2990000Y1627724D02*
X2988751D01*
X2986985Y1629490D01*
Y1631988D01*
X2988751Y1633754D01*
X2990000D01*
D01*
X3493577D01*
X3493578Y1633756D01*
X3493582Y1633759D01*
X3493585Y1633762D01*
X3493588Y1633766D01*
X3493590Y1633767D01*
X3505936Y1646846D01*
X3529333Y1674160D01*
X3550924Y1702924D01*
X3570620Y1733018D01*
X3588339Y1764316D01*
X3604006Y1796690D01*
X3617559Y1830004D01*
X3628939Y1864122D01*
X3638101Y1898901D01*
X3645005Y1934198D01*
X3649624Y1969866D01*
X3651938Y2005757D01*
X3652228Y2023740D01*
X3651919Y2042312D01*
X3649451Y2079374D01*
X3644525Y2116189D01*
X3637164Y2152596D01*
X3627400Y2188433D01*
X3615276Y2223542D01*
X3600845Y2257768D01*
X3584172Y2290959D01*
X3565331Y2322970D01*
X3544403Y2353657D01*
X3521483Y2382885D01*
X3496672Y2410526D01*
X3483590Y2423713D01*
X3483589Y2423715D01*
X3483585Y2423718D01*
X3483582Y2423721D01*
X3483579Y2423724D01*
X3483577Y2423726D01*
X3483577D01*
X2990000D01*
X2988751D01*
X2986985Y2425492D01*
Y2427990D01*
X2988751Y2429756D01*
X2990000D01*
D01*
X3483583D01*
X3484166D01*
X3485310Y2429532D01*
X3486389Y2429093D01*
X3487365Y2428455D01*
X3487782Y2428048D01*
D01*
X3487782D01*
Y2428048D01*
D01*
X3487782Y2428048D01*
X3501231Y2414935D01*
X3526327Y2386979D01*
X3549510Y2357418D01*
X3570677Y2326381D01*
X3589735Y2294007D01*
X3606599Y2260437D01*
X3621194Y2225821D01*
X3633457Y2190312D01*
X3643334Y2154066D01*
X3650779Y2117244D01*
X3655761Y2080008D01*
X3658258Y2042524D01*
Y2023740D01*
Y2005553D01*
X3655917Y1969253D01*
X3651245Y1933180D01*
X3644262Y1897482D01*
X3634996Y1862307D01*
X3623485Y1827801D01*
X3609778Y1794108D01*
X3593931Y1761366D01*
X3576010Y1729712D01*
X3556089Y1699277D01*
X3534251Y1670187D01*
X3510587Y1642562D01*
X3497890Y1629540D01*
X3497470Y1629109D01*
X3496475Y1628431D01*
X3495365Y1627963D01*
X3494185Y1627724D01*
X3493583D01*
D01*
X2990000D01*
D02*
G37*
G36*
D02*
X2988751D01*
X2986985Y1629490D01*
Y1631988D01*
X2988751Y1633754D01*
X2990000D01*
D01*
X3493583D01*
X3494182D01*
X3495290Y1633295D01*
X3496139Y1632447D01*
X3496598Y1631339D01*
Y1630739D01*
Y1630139D01*
X3496139Y1629031D01*
X3495290Y1628183D01*
X3494182Y1627724D01*
X3493583D01*
D01*
X2990000D01*
D02*
G37*
G36*
X2350000D02*
X2348751D01*
X2346985Y1629490D01*
Y1631988D01*
X2348751Y1633754D01*
X2350000D01*
D01*
X2870000D01*
X2870600D01*
X2871708Y1633295D01*
X2872556Y1632447D01*
X2873015Y1631339D01*
Y1630739D01*
Y1630139D01*
X2872556Y1629031D01*
X2871708Y1628183D01*
X2870600Y1627724D01*
X2870000D01*
D01*
X2350000D01*
D02*
G37*
G36*
X2155000D02*
X2153751D01*
X2151985Y1629490D01*
Y1631988D01*
X2153751Y1633754D01*
X2155000D01*
D01*
X2230000D01*
X2230600D01*
X2231708Y1633295D01*
X2232556Y1632447D01*
X2233015Y1631339D01*
Y1630739D01*
Y1630139D01*
X2232556Y1629031D01*
X2231708Y1628183D01*
X2230600Y1627724D01*
X2230000D01*
D01*
X2155000D01*
D02*
G37*
G36*
X1982157Y1250215D02*
X1982067Y1248970D01*
X1983703Y1247082D01*
X1986194Y1246903D01*
X1988082Y1248539D01*
X1988171Y1249784D01*
X1988171D01*
X1989491Y1268197D01*
Y1268199D01*
X1989491Y1268199D01*
Y1268199D01*
Y1268200D01*
X1989491Y1268200D01*
Y1268201D01*
X1989491Y1268202D01*
X1989491Y1268204D01*
X1989491Y1268206D01*
X1989492Y1268209D01*
Y1268210D01*
Y1268210D01*
X1989492Y1268210D01*
Y1268210D01*
Y1268210D01*
Y1268211D01*
X1989492Y1268211D01*
X1989492Y1268211D01*
X1989492Y1268213D01*
X1989492Y1268214D01*
X1989492Y1268216D01*
X1989493Y1268216D01*
Y1268216D01*
X1996056Y1311622D01*
X1996057Y1311627D01*
Y1311627D01*
X1996059Y1311635D01*
X1996060Y1311638D01*
X1996061Y1311643D01*
X1996062Y1311648D01*
X1996063Y1311652D01*
X1996063Y1311655D01*
X1996064Y1311655D01*
X2006003Y1354370D01*
X2006004Y1354372D01*
X2006004Y1354375D01*
X2006005Y1354379D01*
X2006006Y1354382D01*
X2006006Y1354384D01*
X2006006Y1354385D01*
X2006007Y1354386D01*
X2006007Y1354388D01*
X2006008Y1354389D01*
X2006008Y1354390D01*
X2006008Y1354390D01*
X2006008Y1354391D01*
X2006008Y1354393D01*
X2006009Y1354394D01*
X2006009Y1354395D01*
Y1354395D01*
X2006009Y1354395D01*
X2006009Y1354396D01*
X2006009Y1354396D01*
Y1354397D01*
X2006009D01*
X2006010Y1354397D01*
X2006010Y1354399D01*
X2006010Y1354400D01*
X2006011Y1354401D01*
X2006011Y1354402D01*
X2006011Y1354403D01*
X2006012Y1354405D01*
X2006012Y1354406D01*
X2006013Y1354408D01*
X2006013Y1354409D01*
D01*
X2006013D01*
X2019283Y1396241D01*
D01*
X2019283Y1396241D01*
D01*
Y1396242D01*
X2019283Y1396242D01*
X2019283Y1396244D01*
X2019284Y1396245D01*
X2019284Y1396247D01*
X2019285Y1396248D01*
X2019285Y1396248D01*
X2019285Y1396250D01*
X2019286Y1396251D01*
X2019286Y1396252D01*
X2019286Y1396253D01*
X2019286Y1396253D01*
Y1396253D01*
Y1396253D01*
X2019286Y1396253D01*
Y1396254D01*
Y1396253D01*
X2019286Y1396253D01*
X2019286Y1396253D01*
X2019286Y1396253D01*
Y1396253D01*
Y1396253D01*
X2019286Y1396253D01*
X2019286Y1396253D01*
X2019286Y1396253D01*
Y1396254D01*
Y1396254D01*
Y1396253D01*
D01*
Y1396254D01*
X2019287Y1396254D01*
Y1396254D01*
X2019287Y1396255D01*
X2019287Y1396256D01*
X2019288Y1396257D01*
X2019288Y1396259D01*
X2019288Y1396259D01*
X2019289Y1396261D01*
X2019290Y1396264D01*
X2019291Y1396267D01*
X2019292Y1396271D01*
X2019292Y1396272D01*
Y1396272D01*
X2019292Y1396271D01*
X2019291Y1396267D01*
X2019290Y1396264D01*
X2019289Y1396261D01*
X2019288Y1396259D01*
X2019288Y1396259D01*
X2019288Y1396257D01*
X2019287Y1396256D01*
X2019287Y1396255D01*
X2019287Y1396254D01*
X2019287Y1396255D01*
X2019287Y1396256D01*
X2019288Y1396257D01*
X2019289Y1396259D01*
X2019289Y1396259D01*
Y1396259D01*
X2019294Y1396272D01*
X2019294Y1396271D01*
X2019293Y1396269D01*
X2019292Y1396268D01*
X2019292Y1396266D01*
X2019291Y1396265D01*
X2019292Y1396266D01*
X2019292Y1396268D01*
X2019293Y1396269D01*
X2019293Y1396271D01*
X2019294Y1396272D01*
Y1396272D01*
X2019291Y1396265D01*
Y1396265D01*
X2019291Y1396265D01*
X2019291Y1396265D01*
Y1396265D01*
D01*
X2035802Y1436927D01*
X2035802Y1436928D01*
X2035803Y1436929D01*
X2035803Y1436931D01*
X2035804Y1436933D01*
X2035804Y1436933D01*
X2035804Y1436934D01*
X2035805Y1436936D01*
X2035806Y1436937D01*
X2035806Y1436938D01*
X2035806Y1436939D01*
Y1436939D01*
D01*
D01*
Y1436939D01*
X2035807D01*
Y1436939D01*
X2055468Y1476203D01*
Y1476203D01*
X2055468D01*
Y1476203D01*
Y1476203D01*
X2055468D01*
X2055468Y1476203D01*
X2055468Y1476203D01*
X2078148Y1513802D01*
X2078152Y1513807D01*
X2078153Y1513808D01*
X2078154Y1513810D01*
X2078156Y1513812D01*
X2078157Y1513814D01*
X2078158Y1513815D01*
X2078158D01*
X2103696Y1549487D01*
X2103705Y1549500D01*
X2103706Y1549501D01*
X2103707Y1549503D01*
X2103709Y1549505D01*
X2103710Y1549507D01*
X2103711Y1549508D01*
D01*
X2131994Y1583096D01*
X2131995Y1583097D01*
X2131996Y1583099D01*
X2131997Y1583100D01*
X2131999Y1583101D01*
X2131999Y1583102D01*
X2132000Y1583103D01*
X2132001Y1583104D01*
X2132003Y1583105D01*
X2132004Y1583107D01*
X2132005Y1583107D01*
X2132005Y1583108D01*
X2132007Y1583109D01*
X2132008Y1583111D01*
X2132009Y1583112D01*
X2132010Y1583113D01*
X2132010Y1583113D01*
X2132012Y1583114D01*
X2132013Y1583116D01*
X2132014Y1583117D01*
X2132014Y1583117D01*
Y1583117D01*
X2147390Y1598710D01*
X2147392Y1598712D01*
X2147396Y1598716D01*
X2147400Y1598720D01*
X2147404Y1598724D01*
X2147406Y1598726D01*
Y1598726D01*
X2147406Y1598726D01*
X2230000D01*
X2230600D01*
X2231708Y1599185D01*
X2232556Y1600034D01*
X2233015Y1601142D01*
Y1601741D01*
Y1602341D01*
X2232556Y1603449D01*
X2231708Y1604297D01*
X2230600Y1604756D01*
X2230000D01*
D01*
X2147401D01*
X2146802D01*
X2145627Y1604520D01*
X2144523Y1604057D01*
X2143531Y1603386D01*
X2143111Y1602959D01*
X2143110Y1602957D01*
X2143107Y1602955D01*
X2143105Y1602952D01*
X2143102Y1602950D01*
X2143101Y1602948D01*
X2143100Y1602948D01*
X2143099Y1602947D01*
X2143098Y1602945D01*
X2143097Y1602944D01*
X2143096Y1602943D01*
D01*
X2143097Y1602944D01*
X2143102Y1602949D01*
X2143103Y1602951D01*
X2143106Y1602953D01*
X2143108Y1602955D01*
X2143110Y1602958D01*
X2143111Y1602959D01*
X2143112Y1602959D01*
X2143113Y1602961D01*
X2143115Y1602962D01*
X2143116Y1602964D01*
X2143117Y1602964D01*
Y1602965D01*
X2143111Y1602959D01*
X2143111Y1602958D01*
X2143110Y1602957D01*
X2143108Y1602956D01*
X2143107Y1602955D01*
X2143106Y1602954D01*
X2143107D01*
X2143105Y1602953D01*
X2143111Y1602959D01*
X2143105Y1602953D01*
X2143102Y1602949D01*
X2143102Y1602949D01*
X2143102Y1602949D01*
X2143102Y1602949D01*
X2143101Y1602948D01*
X2143101Y1602948D01*
X2143101D01*
X2143105Y1602953D01*
X2143101Y1602948D01*
X2143100Y1602948D01*
X2143099Y1602947D01*
X2143098Y1602945D01*
X2143097Y1602944D01*
X2143096Y1602944D01*
X2143097D01*
X2127721Y1587351D01*
X2127721D01*
Y1587351D01*
X2127721D01*
Y1587351D01*
X2127721Y1587351D01*
X2127720Y1587351D01*
X2127718Y1587349D01*
X2127717Y1587347D01*
X2127715Y1587345D01*
X2127714Y1587344D01*
Y1587344D01*
X2127721Y1587351D01*
X2127719Y1587349D01*
X2127715Y1587345D01*
X2127711Y1587341D01*
X2127707Y1587337D01*
X2127705Y1587335D01*
X2127706Y1587336D01*
X2127709Y1587339D01*
X2127711Y1587341D01*
X2127713Y1587343D01*
X2127714Y1587344D01*
Y1587344D01*
X2127711Y1587341D01*
X2127710Y1587340D01*
X2127709Y1587339D01*
X2127707Y1587337D01*
X2127706Y1587336D01*
X2127705Y1587335D01*
X2127704Y1587335D01*
X2127703Y1587333D01*
X2127702Y1587332D01*
X2127701Y1587331D01*
X2127700Y1587330D01*
Y1587331D01*
X2127705Y1587335D01*
X2127704Y1587334D01*
X2127701Y1587331D01*
X2127699Y1587329D01*
X2127696Y1587326D01*
X2127695Y1587325D01*
X2127654Y1587283D01*
X2127574Y1587199D01*
X2127496Y1587113D01*
X2127419Y1587026D01*
X2127382Y1586981D01*
X2127382Y1586981D01*
X2127382D01*
X2099097Y1553391D01*
X2099060Y1553347D01*
X2098987Y1553257D01*
X2098916Y1553166D01*
X2098847Y1553073D01*
X2098813Y1553026D01*
X2098814D01*
X2098804Y1553013D01*
X2098805Y1553015D01*
X2098808Y1553018D01*
X2098810Y1553022D01*
X2098812Y1553025D01*
X2098814Y1553026D01*
X2098812Y1553025D01*
X2098810Y1553022D01*
X2098808Y1553018D01*
X2098805Y1553015D01*
X2098804Y1553013D01*
X2098805Y1553014D01*
X2098805Y1553015D01*
X2098806Y1553016D01*
X2098807Y1553018D01*
X2098808Y1553018D01*
X2098808Y1553018D01*
X2098804Y1553013D01*
X2098803Y1553012D01*
X2098802Y1553010D01*
X2098800Y1553008D01*
X2098799Y1553006D01*
X2098798Y1553005D01*
X2098799Y1553006D01*
X2098800Y1553008D01*
X2098802Y1553010D01*
X2098803Y1553012D01*
X2098804Y1553013D01*
X2098803Y1553012D01*
X2098802Y1553010D01*
X2098801Y1553008D01*
X2098799Y1553006D01*
X2098798Y1553005D01*
X2098798D01*
X2098797Y1553004D01*
X2098795Y1553001D01*
X2098793Y1552997D01*
X2098790Y1552994D01*
X2098789Y1552992D01*
Y1552992D01*
X2098790Y1552994D01*
X2098793Y1552997D01*
X2098795Y1553000D01*
X2098797Y1553004D01*
X2098798Y1553005D01*
Y1553005D01*
X2073260Y1517333D01*
X2073261Y1517334D01*
X2073261Y1517334D01*
X2073262Y1517335D01*
X2073263Y1517337D01*
X2073264Y1517338D01*
X2073264Y1517338D01*
X2073264Y1517339D01*
X2073261Y1517333D01*
X2073260Y1517333D01*
X2073259Y1517331D01*
X2073258Y1517329D01*
X2073256Y1517328D01*
X2073256Y1517327D01*
Y1517327D01*
X2073260Y1517333D01*
X2073251Y1517321D01*
X2073252Y1517321D01*
X2073253Y1517322D01*
X2073254Y1517324D01*
X2073254Y1517325D01*
X2073255Y1517325D01*
Y1517325D01*
X2073256Y1517327D01*
X2073255Y1517326D01*
X2073254Y1517325D01*
X2073253Y1517323D01*
X2073252Y1517321D01*
X2073251Y1517321D01*
X2073253Y1517322D01*
X2073255Y1517325D01*
X2073257Y1517329D01*
X2073260Y1517332D01*
X2073261Y1517334D01*
X2073261D01*
X2073251Y1517321D01*
X2073216Y1517272D01*
X2073148Y1517172D01*
X2073081Y1517072D01*
X2073017Y1516970D01*
X2072986Y1516918D01*
X2072986D01*
X2072986D01*
X2050304Y1479317D01*
X2050273Y1479266D01*
X2050215Y1479164D01*
X2050157Y1479060D01*
X2050102Y1478956D01*
X2050076Y1478903D01*
Y1478903D01*
X2030414Y1439638D01*
X2030387Y1439584D01*
X2030336Y1439476D01*
X2030286Y1439367D01*
X2030239Y1439256D01*
X2030217Y1439201D01*
X2030216Y1439199D01*
X2030215Y1439196D01*
X2030214Y1439193D01*
X2030212Y1439190D01*
X2030212Y1439188D01*
X2030212Y1439188D01*
X2030211Y1439187D01*
X2030211Y1439186D01*
X2030210Y1439185D01*
X2030210Y1439184D01*
X2030210Y1439184D01*
X2030215Y1439195D01*
X2030215Y1439196D01*
X2030215Y1439197D01*
X2030216Y1439199D01*
X2030217Y1439200D01*
X2030217Y1439201D01*
X2030217Y1439202D01*
X2030218Y1439203D01*
X2030218Y1439205D01*
X2030219Y1439207D01*
X2030220Y1439208D01*
Y1439208D01*
X2030217Y1439201D01*
X2030217Y1439200D01*
X2030216Y1439199D01*
X2030216Y1439198D01*
X2030215Y1439197D01*
X2030215Y1439197D01*
Y1439197D01*
X2030215Y1439195D01*
X2030215Y1439197D01*
X2030215Y1439196D01*
X2030214Y1439194D01*
X2030213Y1439191D01*
X2030212Y1439189D01*
X2030212Y1439188D01*
X2030212D01*
X2030217Y1439201D01*
X2030210Y1439184D01*
Y1439184D01*
X2030210Y1439184D01*
X2030210Y1439183D01*
X2030209Y1439183D01*
Y1439183D01*
Y1439183D01*
X2030210Y1439184D01*
X2013704Y1398533D01*
X2013705Y1398535D01*
X2013706Y1398538D01*
X2013707Y1398541D01*
X2013709Y1398544D01*
X2013709Y1398546D01*
X2013709Y1398544D01*
X2013707Y1398541D01*
X2013706Y1398538D01*
X2013705Y1398535D01*
X2013704Y1398533D01*
X2013704Y1398533D01*
X2013703Y1398531D01*
X2013702Y1398529D01*
X2013702Y1398527D01*
X2013701Y1398527D01*
X2013702Y1398527D01*
X2013702Y1398529D01*
X2013703Y1398531D01*
X2013704Y1398533D01*
X2013704Y1398533D01*
Y1398534D01*
X2013704Y1398533D01*
X2013703Y1398531D01*
X2013703Y1398529D01*
X2013702Y1398527D01*
X2013701Y1398527D01*
X2013701Y1398525D01*
X2013699Y1398522D01*
X2013698Y1398519D01*
X2013697Y1398516D01*
X2013696Y1398514D01*
X2013697D01*
X2013701Y1398527D01*
X2013701Y1398526D01*
X2013701Y1398524D01*
X2013700Y1398523D01*
X2013699Y1398522D01*
X2013699Y1398521D01*
Y1398521D01*
X2013701Y1398527D01*
X2013701Y1398525D01*
X2013699Y1398522D01*
X2013698Y1398519D01*
X2013697Y1398516D01*
X2013696Y1398514D01*
X2013675Y1398460D01*
X2013633Y1398352D01*
X2013594Y1398242D01*
X2013556Y1398132D01*
X2013539Y1398076D01*
X2013539D01*
Y1398077D01*
Y1398077D01*
X2013539D01*
Y1398077D01*
D01*
X2013539Y1398076D01*
X2013538Y1398076D01*
X2013538Y1398074D01*
X2013537Y1398073D01*
X2013537Y1398071D01*
X2013537Y1398070D01*
X2013537Y1398071D01*
X2013537Y1398073D01*
X2013538Y1398074D01*
X2013538Y1398076D01*
X2013539Y1398076D01*
X2013538Y1398075D01*
X2013537Y1398072D01*
X2013536Y1398069D01*
X2013535Y1398066D01*
X2013535Y1398064D01*
X2013535D01*
Y1398064D01*
X2013535Y1398065D01*
X2013536Y1398067D01*
X2013536Y1398068D01*
X2013536Y1398070D01*
X2013537Y1398070D01*
X2013536Y1398070D01*
X2013536Y1398068D01*
X2013536Y1398067D01*
X2013535Y1398065D01*
X2013535Y1398064D01*
D01*
Y1398064D01*
X2013535Y1398064D01*
D01*
D01*
X2013539Y1398076D01*
X2013535Y1398064D01*
D01*
Y1398064D01*
D01*
D01*
X2013534Y1398063D01*
X2013533Y1398060D01*
X2013532Y1398057D01*
X2013531Y1398054D01*
X2013531Y1398052D01*
D01*
X2013535Y1398064D01*
X2000268Y1356241D01*
X2000268Y1356241D01*
X2000269Y1356242D01*
X2000269Y1356243D01*
X2000269Y1356244D01*
X2000269Y1356244D01*
Y1356244D01*
X2000268Y1356241D01*
X2000268Y1356240D01*
X2000268Y1356240D01*
X2000268Y1356239D01*
X2000267Y1356238D01*
X2000267Y1356238D01*
X2000267Y1356236D01*
X2000266Y1356234D01*
X2000265Y1356230D01*
X2000264Y1356227D01*
X2000264Y1356226D01*
X2000245Y1356169D01*
X2000211Y1356055D01*
X2000180Y1355940D01*
X2000150Y1355825D01*
X2000137Y1355767D01*
X2000137Y1355765D01*
X2000136Y1355763D01*
X2000136Y1355760D01*
X2000135Y1355757D01*
X2000134Y1355756D01*
X2000135Y1355757D01*
X2000136Y1355760D01*
X2000136Y1355763D01*
X2000137Y1355765D01*
X2000137Y1355766D01*
Y1355767D01*
X2000134Y1355756D01*
X2000135Y1355757D01*
X2000135Y1355759D01*
X2000136Y1355761D01*
X2000136Y1355763D01*
X2000136Y1355764D01*
Y1355764D01*
X2000134Y1355756D01*
X2000134Y1355755D01*
X2000134Y1355753D01*
X2000134Y1355752D01*
X2000133Y1355750D01*
X2000133Y1355749D01*
D01*
X2000134Y1355753D01*
X2000134Y1355756D01*
X2000134Y1355754D01*
X2000133Y1355751D01*
X2000133Y1355747D01*
X2000132Y1355744D01*
X2000131Y1355742D01*
X2000131D01*
X2000132Y1355744D01*
X2000133Y1355747D01*
X2000133Y1355751D01*
X2000134Y1355754D01*
X2000134Y1355756D01*
X2000135D01*
X2000133Y1355749D01*
X2000130Y1355736D01*
X2000130Y1355737D01*
X2000131Y1355739D01*
X2000131Y1355740D01*
X2000131Y1355742D01*
X2000131Y1355742D01*
X2000131Y1355743D01*
X2000130Y1355736D01*
X1990191Y1313021D01*
X1990188Y1313012D01*
X1990188Y1313012D01*
X1990188Y1313010D01*
X1990188Y1313009D01*
X1990187Y1313008D01*
X1990187Y1313007D01*
X1990188Y1313008D01*
X1990188Y1313010D01*
X1990188Y1313012D01*
X1990189Y1313014D01*
X1990189Y1313015D01*
X1990189Y1313015D01*
X1990188Y1313012D01*
X1990187Y1313005D01*
X1990186Y1313004D01*
X1990186Y1313002D01*
X1990185Y1313000D01*
X1990185Y1312998D01*
X1990185Y1312997D01*
X1990185D01*
X1990187Y1313007D01*
X1990188Y1313009D01*
X1990188Y1313013D01*
X1990189Y1313016D01*
X1990190Y1313020D01*
X1990190Y1313021D01*
X1990191D01*
X1990187Y1313007D01*
X1990187Y1313006D01*
X1990186Y1313003D01*
X1990186Y1313001D01*
X1990185Y1312998D01*
X1990185Y1312997D01*
X1990185Y1312998D01*
X1990186Y1313001D01*
X1990186Y1313003D01*
X1990187Y1313006D01*
X1990187Y1313007D01*
Y1313007D01*
X1990185Y1312997D01*
Y1312996D01*
X1990185Y1312996D01*
X1990184Y1312995D01*
X1990184Y1312994D01*
X1990184Y1312994D01*
Y1312994D01*
X1990185Y1312997D01*
X1990171Y1312939D01*
X1990147Y1312823D01*
X1990124Y1312706D01*
X1990104Y1312589D01*
X1990095Y1312530D01*
X1990095Y1312529D01*
X1990095Y1312527D01*
X1990094Y1312526D01*
X1990094Y1312524D01*
X1990094Y1312523D01*
X1990094D01*
X1990095Y1312530D01*
X1990094Y1312523D01*
X1983530Y1269118D01*
X1983529Y1269111D01*
X1983529Y1269112D01*
X1983530Y1269114D01*
X1983530Y1269115D01*
X1983530Y1269117D01*
X1983530Y1269118D01*
Y1269118D01*
X1983529Y1269111D01*
X1983521Y1269054D01*
X1983505Y1268939D01*
X1983493Y1268824D01*
X1983482Y1268709D01*
X1983478Y1268651D01*
Y1268652D01*
X1983477Y1268639D01*
X1983477Y1268641D01*
X1983477Y1268644D01*
X1983477Y1268647D01*
X1983478Y1268650D01*
X1983478Y1268651D01*
Y1268652D01*
X1983478Y1268650D01*
X1983477Y1268647D01*
X1983477Y1268644D01*
X1983477Y1268641D01*
X1983477Y1268639D01*
X1983477Y1268638D01*
X1983477Y1268636D01*
X1983476Y1268633D01*
X1983476Y1268631D01*
X1983476Y1268630D01*
X1983476Y1268631D01*
X1983476Y1268633D01*
X1983477Y1268636D01*
X1983477Y1268638D01*
X1983477Y1268639D01*
Y1268640D01*
Y1268640D01*
X1983477Y1268640D01*
Y1268641D01*
Y1268641D01*
X1983477Y1268642D01*
D01*
X1983477Y1268639D01*
X1983477Y1268638D01*
X1983477Y1268636D01*
X1983476Y1268633D01*
X1983476Y1268631D01*
X1983476Y1268630D01*
X1983476Y1268630D01*
X1983476Y1268628D01*
X1983476Y1268625D01*
X1983476Y1268622D01*
X1983475Y1268619D01*
X1983475Y1268618D01*
X1983476Y1268619D01*
X1983476Y1268622D01*
X1983476Y1268625D01*
X1983476Y1268628D01*
X1983476Y1268630D01*
Y1268630D01*
X1982157Y1250215D01*
D02*
G37*
G36*
X2350000Y1598726D02*
X2348751D01*
X2346985Y1600493D01*
Y1602990D01*
X2348751Y1604756D01*
X2350000D01*
D01*
X2870000Y1604756D01*
X2870600D01*
X2871708Y1604297D01*
X2872556Y1603449D01*
X2873015Y1602341D01*
Y1601741D01*
Y1601141D01*
X2872556Y1600033D01*
X2871708Y1599185D01*
X2870600Y1598726D01*
X2870000D01*
D01*
X2350000Y1598726D01*
D02*
G37*
G36*
X2990000Y1598726D02*
X3485970Y1598726D01*
X3485971Y1598725D01*
X3485972Y1598724D01*
X3485974Y1598722D01*
X3485976Y1598721D01*
X3485977Y1598720D01*
D01*
X3501589Y1583324D01*
X3502238Y1582684D01*
X3504029Y1582338D01*
X3505711Y1583041D01*
X3506721Y1584559D01*
Y1585471D01*
Y1585770D01*
X3506603Y1586358D01*
X3506372Y1586911D01*
X3506037Y1587407D01*
X3505823Y1587618D01*
X3505823Y1587618D01*
X3490210Y1603013D01*
X3490001Y1603220D01*
X3489512Y1603543D01*
X3488969Y1603767D01*
X3488393Y1603881D01*
X3488099Y1603882D01*
X3488099Y1603882D01*
X3487889Y1604090D01*
X3487397Y1604417D01*
X3486851Y1604641D01*
X3486271Y1604756D01*
X3485976D01*
D01*
X2990000Y1604756D01*
X2988751D01*
X2986985Y1602990D01*
Y1600492D01*
X2988751Y1598726D01*
X2990000D01*
D01*
D02*
G37*
G36*
X3501599Y1583314D02*
X3530351Y1550123D01*
X3530969Y1549410D01*
X3532798Y1548943D01*
X3534568Y1549602D01*
X3535645Y1551153D01*
Y1552097D01*
Y1552367D01*
X3535549Y1552898D01*
X3535360Y1553403D01*
X3535085Y1553868D01*
X3534909Y1554071D01*
X3534909Y1554072D01*
X3506157Y1587263D01*
X3505339Y1588207D01*
X3502848Y1588385D01*
X3500960Y1586750D01*
X3500781Y1584258D01*
X3501599Y1583314D01*
D01*
D02*
G37*
G36*
X3530350Y1550124D02*
X3556409Y1514780D01*
X3556989Y1513993D01*
X3558850Y1513399D01*
X3560706Y1514010D01*
X3561851Y1515592D01*
Y1516569D01*
Y1516809D01*
X3561775Y1517283D01*
X3561625Y1517738D01*
X3561405Y1518165D01*
X3561263Y1518358D01*
D01*
X3535204Y1553703D01*
X3534462Y1554708D01*
X3531993Y1555081D01*
X3529983Y1553599D01*
X3529609Y1551129D01*
X3530350Y1550124D01*
X3530350Y1550124D01*
D02*
G37*
G36*
X3556415Y1514770D02*
X3579608Y1477510D01*
X3580141Y1476653D01*
X3582025Y1475927D01*
X3583967Y1476482D01*
X3585182Y1478094D01*
Y1479104D01*
Y1479314D01*
X3585124Y1479730D01*
X3585008Y1480134D01*
X3584838Y1480519D01*
X3584727Y1480697D01*
D01*
X3561534Y1517957D01*
X3560874Y1519017D01*
X3558441Y1519583D01*
X3556321Y1518263D01*
X3555755Y1515830D01*
X3556415Y1514770D01*
X3556415Y1514770D01*
D02*
G37*
G36*
X3599819Y1438523D02*
X3579617Y1477494D01*
X3579043Y1478602D01*
X3579798Y1480983D01*
X3582015Y1482133D01*
X3584396Y1481378D01*
X3584971Y1480269D01*
X3584971D01*
X3584971D01*
X3605173Y1441298D01*
X3605256Y1441137D01*
X3605382Y1440799D01*
X3605468Y1440449D01*
X3605511Y1440091D01*
Y1439910D01*
Y1438868D01*
X3604223Y1437228D01*
X3602197Y1436734D01*
X3600299Y1437597D01*
X3599819Y1438523D01*
X3599819Y1438523D01*
D02*
G37*
G36*
X3616910Y1398065D02*
X3599822Y1438516D01*
X3599336Y1439667D01*
X3600276Y1441981D01*
X3602577Y1442953D01*
X3604891Y1442013D01*
X3605377Y1440862D01*
X3605377Y1440863D01*
X3622465Y1400411D01*
X3622524Y1400272D01*
X3622613Y1399984D01*
X3622673Y1399689D01*
X3622703Y1399389D01*
Y1399238D01*
Y1398162D01*
X3621341Y1396496D01*
X3619232Y1396069D01*
X3617329Y1397074D01*
X3616910Y1398065D01*
D01*
D02*
G37*
G36*
X3579614Y1477501D02*
Y1477501D01*
X3579614Y1477501D01*
X3579614Y1477501D01*
X3579614Y1477501D01*
X3579614Y1477501D01*
D02*
G37*
G36*
X3630772Y1356398D02*
X3616910Y1398066D01*
X3616516Y1399251D01*
X3617634Y1401484D01*
X3620004Y1402272D01*
X3622238Y1401154D01*
X3622632Y1399969D01*
D01*
X3636493Y1358302D01*
X3636531Y1358187D01*
X3636589Y1357951D01*
X3636628Y1357712D01*
X3636647Y1357471D01*
Y1357350D01*
Y1356241D01*
X3635209Y1354551D01*
X3633019Y1354196D01*
X3631122Y1355346D01*
X3630771Y1356398D01*
X3630772Y1356398D01*
D02*
G37*
G36*
X3641320Y1313775D02*
X3630772Y1356396D01*
X3630472Y1357609D01*
X3631762Y1359747D01*
X3634186Y1360348D01*
X3636325Y1359057D01*
X3636625Y1357845D01*
D01*
X3647174Y1315224D01*
X3647195Y1315135D01*
X3647229Y1314955D01*
X3647251Y1314774D01*
X3647262Y1314591D01*
Y1314500D01*
Y1313357D01*
X3645746Y1311645D01*
X3643477Y1311369D01*
X3641595Y1312666D01*
X3641320Y1313775D01*
X3641320Y1313775D01*
D02*
G37*
G36*
X3648493Y1270451D02*
X3641321Y1313774D01*
X3641117Y1315006D01*
X3642571Y1317037D01*
X3645035Y1317445D01*
X3647066Y1315991D01*
X3647270Y1314759D01*
D01*
X3654442Y1271436D01*
X3654452Y1271375D01*
X3654468Y1271252D01*
X3654478Y1271129D01*
X3654483Y1271005D01*
Y1270943D01*
Y1269766D01*
X3652888Y1268035D01*
X3650542Y1267842D01*
X3648686Y1269290D01*
X3648493Y1270451D01*
X3648493Y1270451D01*
D02*
G37*
G36*
X3650269Y1249742D02*
X3648494Y1270439D01*
X3648387Y1271684D01*
X3649996Y1273594D01*
X3652485Y1273807D01*
X3654395Y1272199D01*
X3654502Y1270954D01*
X3654502Y1270955D01*
X3656277Y1250257D01*
X3656280Y1250225D01*
X3656284Y1250161D01*
X3656286Y1250097D01*
X3656288Y1250032D01*
Y1250000D01*
Y1248789D01*
X3654612Y1247040D01*
X3652191Y1246936D01*
X3650372Y1248535D01*
X3650269Y1249742D01*
D01*
D02*
G37*
G36*
X3641321Y1313773D02*
X3641321Y1313773D01*
X3641320Y1313774D01*
X3641320Y1313774D01*
X3641320Y1313775D01*
X3641320Y1313775D01*
X3641321Y1313773D01*
D02*
G37*
G36*
X2103701Y853498D02*
X2103718Y853474D01*
X2103754Y853427D01*
X2103791Y853381D01*
X2103829Y853336D01*
X2103848Y853313D01*
X2103866Y853289D01*
X2103902Y853243D01*
X2103939Y853197D01*
X2103976Y853151D01*
X2103996Y853129D01*
D01*
X2132747Y819938D01*
X2132768Y819914D01*
X2132810Y819868D01*
X2132853Y819822D01*
X2132897Y819777D01*
X2132920Y819755D01*
X2132939Y819733D01*
X2132979Y819689D01*
X2133019Y819646D01*
X2133060Y819604D01*
X2133081Y819583D01*
D01*
X2148694Y804187D01*
X2149343Y803547D01*
X2151133Y803201D01*
X2152815Y803904D01*
X2153826Y805422D01*
Y806334D01*
Y806634D01*
X2153708Y807221D01*
X2153477Y807774D01*
X2153141Y808270D01*
X2152928Y808481D01*
X2152928Y808481D01*
X2137315Y823877D01*
X2137314Y823878D01*
X2137311Y823880D01*
X2137309Y823883D01*
X2137306Y823885D01*
X2137305Y823887D01*
Y823887D01*
X2137305Y823886D01*
X2137305Y823887D01*
X2108553Y857077D01*
D01*
Y857077D01*
D01*
X2108553D01*
X2108553Y857077D01*
X2108554Y857077D01*
X2108553Y857077D01*
X2082495Y892421D01*
X2081754Y893426D01*
X2079284Y893800D01*
X2077274Y892317D01*
X2076900Y889848D01*
X2077642Y888843D01*
X2077642Y888843D01*
X2103701Y853498D01*
D02*
G37*
G36*
X2033732Y965903D02*
X2033718Y965929D01*
X2033692Y965982D01*
X2033667Y966036D01*
X2033643Y966090D01*
X2033631Y966117D01*
Y966117D01*
X2033617Y966144D01*
X2033590Y966199D01*
X2033564Y966254D01*
X2033539Y966310D01*
X2033527Y966338D01*
D01*
X2016439Y1006790D01*
X2015953Y1007940D01*
X2016893Y1010254D01*
X2019194Y1011226D01*
X2021508Y1010287D01*
X2021994Y1009136D01*
X2021994Y1009136D01*
X2039082Y968685D01*
X2039082Y968685D01*
X2039082Y968685D01*
X2039082Y968684D01*
X2039083Y968682D01*
X2039084Y968681D01*
X2039085Y968679D01*
X2039085Y968678D01*
X2039085D01*
X2039085D01*
X2059287Y929707D01*
X2059290Y929700D01*
D01*
X2059290Y929700D01*
X2059291Y929700D01*
X2059291Y929700D01*
X2059291Y929698D01*
X2059293Y929696D01*
X2059294Y929694D01*
X2059296Y929691D01*
X2059296Y929690D01*
D01*
X2059291Y929700D01*
X2059290Y929701D01*
X2059289Y929702D01*
X2059288Y929704D01*
X2059287Y929706D01*
X2059287Y929707D01*
X2059287D01*
X2059296Y929690D01*
X2082489Y892431D01*
X2082600Y892252D01*
X2082771Y891868D01*
X2082886Y891464D01*
X2082945Y891047D01*
Y890837D01*
Y889828D01*
X2081729Y888216D01*
X2079787Y887661D01*
X2077903Y888387D01*
X2077370Y889244D01*
X2077370Y889244D01*
X2054177Y926504D01*
X2054161Y926530D01*
X2054130Y926582D01*
X2054099Y926636D01*
X2054070Y926689D01*
X2054056Y926717D01*
X2054056D01*
X2054040Y926743D01*
X2054008Y926796D01*
X2053977Y926850D01*
X2053948Y926904D01*
X2053933Y926932D01*
Y926932D01*
X2053933D01*
X2033732Y965903D01*
D02*
G37*
G36*
X1991683Y1092208D02*
X1991676Y1092237D01*
X1991663Y1092295D01*
X1991650Y1092354D01*
X1991639Y1092412D01*
X1991635Y1092442D01*
X1991635Y1092442D01*
X1985498Y1129507D01*
X1985294Y1130739D01*
X1986748Y1132771D01*
X1989212Y1133178D01*
X1991243Y1131725D01*
X1991447Y1130493D01*
D01*
X1997584Y1093428D01*
X1997584Y1093427D01*
X1997583Y1093428D01*
X1997584Y1093427D01*
X1997584Y1093427D01*
X1997584Y1093426D01*
X1997584Y1093426D01*
X1997584Y1093425D01*
D01*
X2008132Y1050804D01*
X2008133Y1050804D01*
X2008133Y1050803D01*
X2008133Y1050802D01*
X2008133Y1050801D01*
X2008133Y1050801D01*
X2008133D01*
X2008133Y1050803D01*
X2008133Y1050801D01*
X2021994Y1009135D01*
X2022033Y1009020D01*
X2022090Y1008785D01*
X2022129Y1008546D01*
X2022149Y1008304D01*
Y1008183D01*
Y1007074D01*
X2020710Y1005385D01*
X2018521Y1005030D01*
X2016623Y1006179D01*
X2016273Y1007232D01*
X2016273Y1007232D01*
X2002411Y1048899D01*
X2002402Y1048927D01*
X2002384Y1048985D01*
X2002367Y1049042D01*
X2002352Y1049100D01*
X2002345Y1049129D01*
X2002345D01*
X2002335Y1049157D01*
X2002318Y1049213D01*
X2002301Y1049270D01*
X2002286Y1049327D01*
X2002279Y1049355D01*
X2002279Y1049356D01*
X1991731Y1091976D01*
X1991724Y1092005D01*
X1991711Y1092063D01*
X1991699Y1092120D01*
X1991688Y1092178D01*
X1991683Y1092208D01*
Y1092208D01*
D02*
G37*
G36*
X2033723Y965921D02*
Y965921D01*
D01*
D01*
D01*
Y965921D01*
D02*
G37*
G36*
D02*
Y965921D01*
D01*
D01*
D01*
Y965921D01*
D02*
G37*
G36*
D02*
Y965921D01*
D01*
D01*
D01*
Y965921D01*
D02*
G37*
G36*
X2152928Y802445D02*
X2151680D01*
X2149913Y804211D01*
Y806708D01*
X2151680Y808475D01*
X2152928D01*
D01*
X2230000D01*
X2230600D01*
X2231708Y808015D01*
X2232556Y807167D01*
X2233015Y806059D01*
Y805460D01*
Y804860D01*
X2232556Y803752D01*
X2231708Y802904D01*
X2230600Y802445D01*
X2230000D01*
D01*
X2152928D01*
D02*
G37*
G36*
X2033723Y965921D02*
Y965921D01*
D01*
D01*
D01*
Y965921D01*
D02*
G37*
G36*
X2990000Y802445D02*
X3491504D01*
X3492103D01*
X3493277Y802681D01*
X3494381Y803144D01*
X3495373Y803815D01*
X3495793Y804242D01*
X3495794Y804243D01*
X3495797Y804246D01*
X3495799Y804248D01*
X3495801Y804251D01*
X3495803Y804252D01*
X3495803Y804252D01*
X3511193Y819860D01*
X3511194Y819860D01*
X3511195Y819862D01*
X3511197Y819863D01*
X3511198Y819865D01*
X3511199Y819865D01*
X3511200Y819866D01*
X3511203Y819869D01*
X3511205Y819872D01*
X3511208Y819874D01*
X3511209Y819876D01*
Y819876D01*
X3511199Y819865D01*
X3511200Y819866D01*
X3511203Y819869D01*
X3511205Y819872D01*
X3511208Y819874D01*
X3511209Y819876D01*
X3511250Y819917D01*
X3511330Y820001D01*
X3511408Y820087D01*
X3511485Y820175D01*
X3511522Y820219D01*
D01*
X3511522D01*
X3539807Y853809D01*
X3539845Y853855D01*
X3539919Y853947D01*
X3539992Y854040D01*
X3540063Y854135D01*
X3540097Y854183D01*
X3540098Y854185D01*
X3540101Y854188D01*
X3540103Y854191D01*
X3540105Y854194D01*
X3540106Y854196D01*
X3540107Y854197D01*
X3540108Y854198D01*
X3540109Y854200D01*
X3540110Y854201D01*
X3540110Y854202D01*
X3540111Y854202D01*
X3540112Y854204D01*
X3540113Y854206D01*
X3540115Y854207D01*
X3540115Y854208D01*
X3540115D01*
X3540110Y854202D01*
X3565644Y889867D01*
X3565653Y889880D01*
X3565688Y889929D01*
X3565756Y890028D01*
X3565823Y890129D01*
X3565887Y890231D01*
X3565918Y890283D01*
Y890283D01*
X3565919D01*
X3588600Y927884D01*
X3588631Y927934D01*
X3588690Y928037D01*
X3588747Y928140D01*
X3588802Y928245D01*
X3588828Y928298D01*
X3588828D01*
X3608490Y967563D01*
X3608517Y967616D01*
X3608568Y967725D01*
X3608618Y967834D01*
X3608665Y967944D01*
X3608687Y968000D01*
X3608688Y968001D01*
X3608689Y968004D01*
X3608691Y968008D01*
X3608692Y968011D01*
X3608692Y968012D01*
X3608693Y968013D01*
X3608693Y968014D01*
X3608693Y968015D01*
X3608694Y968016D01*
X3608694Y968016D01*
D01*
X3625200Y1008667D01*
X3625200Y1008668D01*
X3625201Y1008670D01*
X3625202Y1008671D01*
X3625202Y1008673D01*
X3625203Y1008674D01*
Y1008674D01*
X3625208Y1008686D01*
X3625207Y1008685D01*
X3625206Y1008682D01*
X3625205Y1008678D01*
X3625204Y1008675D01*
X3625203Y1008674D01*
X3625204Y1008675D01*
X3625205Y1008678D01*
X3625206Y1008682D01*
X3625207Y1008685D01*
X3625208Y1008686D01*
X3625230Y1008740D01*
X3625271Y1008849D01*
X3625311Y1008958D01*
X3625348Y1009069D01*
X3625366Y1009124D01*
X3625366Y1009125D01*
X3625366Y1009126D01*
X3625367Y1009128D01*
X3625367Y1009130D01*
X3625368Y1009130D01*
X3625368Y1009131D01*
X3625368Y1009132D01*
X3625369Y1009134D01*
X3625369Y1009135D01*
X3625369Y1009136D01*
D01*
Y1009136D01*
X3625369Y1009136D01*
D01*
X3625370Y1009138D01*
X3625371Y1009141D01*
X3625372Y1009144D01*
X3625373Y1009147D01*
X3625373Y1009148D01*
X3625373Y1009149D01*
X3625369Y1009136D01*
Y1009136D01*
D01*
D01*
Y1009136D01*
Y1009136D01*
X3638636Y1050960D01*
X3638639Y1050969D01*
X3638639Y1050970D01*
X3638640Y1050971D01*
X3638640Y1050973D01*
X3638640Y1050974D01*
X3638641Y1050975D01*
X3638641Y1050975D01*
X3638642Y1050977D01*
X3638642Y1050979D01*
X3638643Y1050980D01*
X3638643Y1050981D01*
X3638643Y1050981D01*
X3638641Y1050975D01*
X3638659Y1051031D01*
X3638693Y1051146D01*
X3638724Y1051261D01*
X3638754Y1051376D01*
X3638767Y1051434D01*
X3638768Y1051435D01*
X3638768Y1051438D01*
X3638769Y1051441D01*
X3638769Y1051443D01*
X3638770Y1051445D01*
X3638770Y1051446D01*
X3638771Y1051450D01*
X3638772Y1051453D01*
X3638773Y1051456D01*
X3638773Y1051458D01*
Y1051458D01*
X3638773Y1051459D01*
X3638773Y1051460D01*
X3638774Y1051462D01*
X3638774Y1051463D01*
X3638774Y1051464D01*
X3638774Y1051464D01*
X3648714Y1094179D01*
X3648714Y1094181D01*
X3648715Y1094185D01*
X3648716Y1094188D01*
X3648717Y1094191D01*
X3648717Y1094193D01*
X3648717Y1094195D01*
X3648718Y1094197D01*
X3648719Y1094200D01*
X3648719Y1094203D01*
X3648720Y1094204D01*
X3648733Y1094262D01*
X3648758Y1094378D01*
X3648780Y1094495D01*
X3648800Y1094612D01*
X3648809Y1094671D01*
X3648809Y1094671D01*
X3648809Y1094673D01*
X3648810Y1094675D01*
X3648810Y1094677D01*
X3648810Y1094677D01*
Y1094677D01*
X3654084Y1129549D01*
X3654092Y1129605D01*
X3654105Y1129717D01*
X3654113Y1129830D01*
X3654117Y1129943D01*
Y1130000D01*
Y1131183D01*
X3652508Y1132918D01*
X3650149Y1133095D01*
X3648298Y1131620D01*
X3648121Y1130451D01*
X3648121D01*
X3642848Y1095579D01*
X3642848Y1095579D01*
X3642848Y1095578D01*
X3642848Y1095577D01*
X3642848Y1095576D01*
X3642847Y1095576D01*
Y1095576D01*
X3642847Y1095575D01*
X3642847Y1095574D01*
X3642847Y1095574D01*
X3642847Y1095573D01*
X3642847Y1095573D01*
X3642848Y1095576D01*
X3642848Y1095576D01*
X3642847Y1095575D01*
X3642847Y1095574D01*
X3642847Y1095574D01*
X3642847Y1095573D01*
X3642847Y1095573D01*
X3642848Y1095579D01*
X3642847Y1095573D01*
D01*
D01*
D01*
Y1095573D01*
X3642847Y1095573D01*
X3642847Y1095573D01*
X3642847Y1095573D01*
Y1095572D01*
Y1095572D01*
X3642847Y1095573D01*
X3642847D01*
X3642847Y1095572D01*
X3642847Y1095571D01*
X3642847Y1095570D01*
X3642846Y1095568D01*
X3642846Y1095566D01*
X3642846Y1095565D01*
D01*
X3642845Y1095565D01*
X3642845Y1095566D01*
X3642846Y1095568D01*
X3642846Y1095570D01*
X3642847Y1095572D01*
X3642847Y1095573D01*
X3642847Y1095573D01*
X3642845Y1095565D01*
X3642845Y1095566D01*
X3642846Y1095567D01*
X3642846Y1095569D01*
X3642846Y1095570D01*
X3642847Y1095571D01*
X3642847Y1095571D01*
X3642847Y1095572D01*
X3642847Y1095572D01*
X3642847Y1095573D01*
X3642847Y1095573D01*
Y1095573D01*
X3642845Y1095565D01*
X3642845Y1095564D01*
X3642845Y1095563D01*
X3642844Y1095561D01*
X3642844Y1095559D01*
X3642844Y1095558D01*
D01*
X3642845Y1095563D01*
X3642845Y1095565D01*
X3642845Y1095563D01*
X3642843Y1095558D01*
X3642842Y1095553D01*
X3642841Y1095548D01*
X3642841Y1095546D01*
D01*
X3642844Y1095558D01*
X3642841Y1095546D01*
X3632901Y1052831D01*
X3632899Y1052822D01*
X3632899Y1052821D01*
X3632899Y1052820D01*
X3632898Y1052819D01*
X3632898Y1052817D01*
X3632898Y1052817D01*
X3632898Y1052818D01*
X3632899Y1052822D01*
X3632900Y1052825D01*
X3632901Y1052829D01*
X3632901Y1052831D01*
X3632901Y1052831D01*
X3632899Y1052822D01*
X3632897Y1052814D01*
X3632895Y1052805D01*
Y1052805D01*
X3632895Y1052805D01*
X3632895Y1052805D01*
X3632896Y1052806D01*
X3632896Y1052806D01*
X3632896Y1052806D01*
X3632896Y1052808D01*
X3632897Y1052809D01*
X3632897Y1052810D01*
X3632897Y1052811D01*
X3632897Y1052811D01*
X3632898Y1052813D01*
X3632898Y1052814D01*
X3632899Y1052816D01*
X3632899Y1052816D01*
X3632899Y1052816D01*
X3632898Y1052814D01*
X3632898Y1052813D01*
X3632897Y1052811D01*
X3632897Y1052811D01*
X3632897D01*
X3632893Y1052799D01*
X3632893Y1052799D01*
X3632894Y1052801D01*
X3632894Y1052802D01*
X3632895Y1052803D01*
X3632895Y1052804D01*
X3632895D01*
Y1052804D01*
Y1052804D01*
D01*
X3632895Y1052804D01*
Y1052804D01*
Y1052804D01*
X3632895Y1052804D01*
Y1052805D01*
X3632895Y1052804D01*
Y1052804D01*
X3632895Y1052804D01*
X3632895Y1052804D01*
X3632895Y1052803D01*
Y1052803D01*
X3632895Y1052803D01*
X3632895Y1052804D01*
X3632895D01*
X3632895Y1052804D01*
X3632895Y1052805D01*
X3632895Y1052805D01*
X3632895Y1052806D01*
Y1052806D01*
X3632896D01*
X3632898Y1052817D01*
X3632898Y1052816D01*
X3632897Y1052814D01*
X3632897Y1052813D01*
X3632897Y1052812D01*
X3632897Y1052811D01*
X3632897Y1052812D01*
X3632897Y1052813D01*
X3632897Y1052814D01*
X3632898Y1052816D01*
X3632898Y1052817D01*
Y1052817D01*
X3632897Y1052811D01*
X3632896Y1052810D01*
X3632896Y1052809D01*
X3632896Y1052808D01*
X3632896Y1052807D01*
X3632895Y1052806D01*
X3632896Y1052807D01*
X3632896Y1052808D01*
X3632896Y1052809D01*
X3632896Y1052810D01*
X3632897Y1052811D01*
D01*
X3632895Y1052806D01*
Y1052806D01*
X3632895Y1052805D01*
X3632895Y1052805D01*
X3632895Y1052804D01*
Y1052804D01*
Y1052804D01*
Y1052804D01*
Y1052804D01*
D01*
Y1052804D01*
Y1052804D01*
D01*
X3632895D01*
Y1052804D01*
X3632895Y1052803D01*
X3632894Y1052802D01*
X3632894Y1052801D01*
X3632894Y1052799D01*
X3632894Y1052798D01*
X3632894Y1052798D01*
Y1052799D01*
X3632894Y1052800D01*
X3632894Y1052802D01*
X3632895Y1052803D01*
X3632895Y1052804D01*
X3632895Y1052803D01*
X3632894Y1052802D01*
X3632894Y1052801D01*
X3632893Y1052799D01*
X3632893Y1052799D01*
X3632893Y1052798D01*
X3632892Y1052796D01*
X3632892Y1052794D01*
X3632891Y1052793D01*
X3632891Y1052792D01*
Y1052792D01*
X3619622Y1010959D01*
D01*
X3619622Y1010959D01*
D01*
Y1010959D01*
D01*
D01*
X3619622Y1010959D01*
Y1010959D01*
Y1010959D01*
X3619622Y1010959D01*
X3619621Y1010958D01*
X3619621Y1010957D01*
X3619620Y1010955D01*
X3619620Y1010953D01*
X3619620Y1010953D01*
X3619620Y1010953D01*
X3619620Y1010955D01*
X3619621Y1010957D01*
X3619621Y1010958D01*
X3619622Y1010959D01*
Y1010959D01*
X3619618Y1010947D01*
Y1010947D01*
Y1010947D01*
X3619618Y1010947D01*
Y1010947D01*
X3619618Y1010948D01*
X3619620Y1010951D01*
X3619621Y1010954D01*
X3619622Y1010957D01*
X3619623Y1010958D01*
Y1010959D01*
X3619622Y1010957D01*
X3619621Y1010955D01*
X3619620Y1010952D01*
X3619619Y1010949D01*
X3619618Y1010948D01*
Y1010948D01*
D01*
Y1010948D01*
X3619618Y1010947D01*
Y1010947D01*
X3619618Y1010947D01*
X3619618Y1010947D01*
X3619618Y1010947D01*
X3619617Y1010946D01*
X3619617Y1010945D01*
X3619616Y1010943D01*
X3619616Y1010942D01*
X3619615Y1010941D01*
X3619616Y1010942D01*
X3619616Y1010943D01*
X3619617Y1010945D01*
X3619617Y1010946D01*
X3619618Y1010947D01*
Y1010947D01*
X3619618Y1010947D01*
Y1010947D01*
Y1010947D01*
X3619618Y1010947D01*
D01*
Y1010947D01*
X3619618Y1010948D01*
Y1010948D01*
X3619618Y1010948D01*
X3619618Y1010948D01*
X3619619Y1010950D01*
X3619619Y1010951D01*
X3619619Y1010952D01*
X3619620Y1010953D01*
X3619619Y1010952D01*
X3619619Y1010951D01*
X3619619Y1010949D01*
X3619618Y1010948D01*
X3619618Y1010948D01*
X3619618Y1010947D01*
Y1010947D01*
Y1010947D01*
X3619618Y1010947D01*
D01*
X3619618Y1010947D01*
X3619618Y1010948D01*
X3619618Y1010948D01*
X3619618Y1010948D01*
Y1010948D01*
X3619618Y1010948D01*
X3619618Y1010948D01*
X3619618Y1010947D01*
X3619618Y1010947D01*
X3619618Y1010947D01*
X3619618Y1010947D01*
X3619617Y1010946D01*
X3619617Y1010945D01*
X3619617Y1010943D01*
X3619616Y1010942D01*
X3619616Y1010941D01*
X3619615Y1010939D01*
X3619614Y1010936D01*
X3619613Y1010933D01*
X3619612Y1010930D01*
X3619612Y1010928D01*
X3619612D01*
X3619613Y1010930D01*
X3619613Y1010933D01*
X3619615Y1010936D01*
X3619615Y1010939D01*
X3619616Y1010941D01*
X3619616Y1010942D01*
X3619617Y1010943D01*
X3619617Y1010945D01*
X3619617Y1010946D01*
X3619618Y1010947D01*
Y1010947D01*
X3619615Y1010941D01*
X3619615Y1010941D01*
X3619615Y1010940D01*
X3619614Y1010939D01*
X3619614Y1010938D01*
X3619614Y1010937D01*
Y1010937D01*
X3619613Y1010936D01*
X3619613Y1010936D01*
X3619614Y1010938D01*
X3619615Y1010939D01*
X3619615Y1010941D01*
X3619615Y1010941D01*
X3619615D01*
X3619610Y1010929D01*
X3619611Y1010930D01*
X3619611Y1010931D01*
X3619612Y1010933D01*
X3619613Y1010934D01*
X3619613Y1010935D01*
Y1010935D01*
X3619613Y1010935D01*
X3619613Y1010936D01*
X3619613Y1010936D01*
X3619614Y1010937D01*
X3619614Y1010937D01*
Y1010937D01*
X3619613Y1010936D01*
X3619613D01*
Y1010935D01*
X3619613Y1010935D01*
X3619613Y1010935D01*
X3619613Y1010934D01*
X3619612Y1010933D01*
X3619611Y1010931D01*
X3619611Y1010930D01*
X3619610Y1010929D01*
X3619610D01*
X3619613Y1010936D01*
X3603103Y970274D01*
X3603102Y970273D01*
X3603102Y970271D01*
X3603101Y970270D01*
X3603100Y970268D01*
X3603100Y970267D01*
X3603100Y970268D01*
X3603101Y970270D01*
X3603102Y970271D01*
X3603102Y970273D01*
X3603103Y970274D01*
X3603103Y970274D01*
X3603100Y970267D01*
X3603098Y970262D01*
X3603098Y970263D01*
X3603098Y970263D01*
X3603099Y970264D01*
X3603100Y970265D01*
X3603100Y970266D01*
X3603100Y970267D01*
Y970267D01*
X3603100Y970267D01*
X3603100Y970266D01*
X3603099Y970265D01*
X3603099Y970264D01*
X3603098Y970262D01*
X3603098Y970262D01*
X3603098D01*
X3603098Y970262D01*
X3603095Y970255D01*
X3603095Y970256D01*
X3603096Y970257D01*
X3603097Y970259D01*
X3603097Y970261D01*
X3603098Y970261D01*
D01*
Y970261D01*
D01*
X3603098Y970262D01*
X3603098Y970262D01*
X3603099Y970264D01*
X3603099Y970265D01*
X3603100Y970266D01*
X3603100Y970267D01*
X3603100D01*
X3603098Y970263D01*
Y970262D01*
X3603098Y970262D01*
X3603098Y970262D01*
X3603098Y970262D01*
Y970261D01*
D01*
Y970262D01*
D01*
D01*
X3603098Y970262D01*
X3603098D01*
X3583437Y930998D01*
D01*
X3583437Y930998D01*
X3583437Y930998D01*
Y930998D01*
X3583437D01*
Y930999D01*
X3583437Y930998D01*
D01*
D01*
Y930998D01*
X3583437Y930998D01*
D01*
X3583436Y930998D01*
Y930998D01*
X3583436Y930998D01*
D01*
X3583437Y930998D01*
X3583437Y930998D01*
X3583437Y930999D01*
X3583437Y930998D01*
X3583437Y930998D01*
X3583436Y930998D01*
X3583436Y930998D01*
D01*
Y930998D01*
X3583436D01*
Y930998D01*
Y930998D01*
X3583437D01*
Y930998D01*
X3560756Y893399D01*
X3560762Y893406D01*
X3560761Y893405D01*
X3560759Y893403D01*
X3560758Y893402D01*
X3560757Y893400D01*
X3560756Y893399D01*
D01*
X3560756Y893399D01*
D01*
X3560756Y893398D01*
X3560756D01*
X3560756Y893399D01*
X3560756Y893400D01*
X3560758Y893402D01*
X3560759Y893404D01*
X3560760Y893406D01*
X3560761Y893407D01*
X3560761Y893407D01*
X3560756Y893399D01*
X3560756Y893398D01*
X3560756Y893398D01*
X3560755Y893398D01*
X3560755Y893397D01*
X3560755Y893397D01*
X3560756Y893398D01*
X3560755Y893398D01*
X3560754Y893396D01*
X3560753Y893395D01*
X3560753Y893394D01*
X3560752Y893393D01*
Y893394D01*
X3560756Y893399D01*
X3560756Y893398D01*
X3560756Y893398D01*
X3560756Y893398D01*
X3560755Y893398D01*
X3560755Y893397D01*
X3560755Y893397D01*
X3560754Y893396D01*
X3560753Y893395D01*
X3560753Y893394D01*
X3560753Y893393D01*
X3560753D01*
X3560752Y893393D01*
X3560753Y893394D01*
X3560753Y893395D01*
X3560754Y893396D01*
X3560755Y893398D01*
X3560756Y893398D01*
X3560756Y893398D01*
X3560752Y893393D01*
X3560751Y893392D01*
X3560750Y893390D01*
X3560749Y893388D01*
X3560747Y893386D01*
X3560746Y893385D01*
Y893385D01*
X3535203Y857705D01*
X3535203Y857705D01*
X3535203Y857705D01*
X3535202Y857705D01*
X3535202Y857705D01*
D01*
X3535202Y857705D01*
X3535203Y857705D01*
X3535203Y857705D01*
X3535203Y857705D01*
Y857706D01*
X3535202Y857705D01*
X3535202Y857704D01*
X3535200Y857702D01*
X3535199Y857701D01*
X3535198Y857699D01*
X3535198Y857698D01*
X3535197Y857697D01*
X3535196Y857696D01*
X3535195Y857694D01*
X3535194Y857693D01*
X3535193Y857692D01*
X3535194Y857692D01*
X3535194Y857693D01*
X3535194Y857693D01*
X3535195Y857695D01*
X3535196Y857696D01*
X3535197Y857697D01*
X3535198Y857698D01*
X3535198Y857699D01*
X3535199Y857701D01*
X3535200Y857702D01*
X3535202Y857704D01*
X3535202Y857705D01*
X3535202D01*
X3535194Y857693D01*
X3535194Y857693D01*
X3535195Y857695D01*
X3535198Y857697D01*
X3535200Y857700D01*
X3535202Y857702D01*
X3535203Y857704D01*
D01*
X3535194Y857693D01*
X3535194Y857693D01*
X3535194Y857693D01*
X3535194Y857693D01*
X3535194Y857692D01*
Y857692D01*
Y857692D01*
D01*
X3535194Y857693D01*
D01*
X3535193Y857692D01*
Y857692D01*
X3535193Y857692D01*
X3535193Y857692D01*
X3535193Y857692D01*
Y857692D01*
X3535194D01*
D01*
X3535194Y857693D01*
X3535194Y857693D01*
X3535194Y857693D01*
X3535194Y857693D01*
Y857693D01*
X3535194Y857693D01*
X3506910Y824104D01*
D01*
Y824104D01*
X3506910D01*
Y824104D01*
X3506910D01*
Y824104D01*
X3506910Y824104D01*
X3506910Y824104D01*
X3506910Y824104D01*
X3506910Y824104D01*
X3506910Y824104D01*
X3506910Y824104D01*
X3506910Y824103D01*
X3506910Y824103D01*
X3506910Y824104D01*
D01*
X3506910Y824104D01*
X3506910Y824104D01*
X3506910Y824104D01*
Y824104D01*
X3506910Y824104D01*
D01*
X3506910Y824103D01*
Y824104D01*
X3506910Y824104D01*
X3506910Y824103D01*
X3506908Y824102D01*
X3506907Y824101D01*
X3506905Y824099D01*
X3506905Y824098D01*
X3506905Y824099D01*
X3506907Y824100D01*
X3506908Y824101D01*
X3506909Y824103D01*
X3506910Y824103D01*
Y824104D01*
X3506910Y824103D01*
X3506909Y824102D01*
X3506908Y824101D01*
X3506907Y824100D01*
X3506906Y824099D01*
X3506905Y824098D01*
X3506904Y824097D01*
X3506902Y824094D01*
X3506899Y824091D01*
X3506897Y824088D01*
X3506896Y824087D01*
X3506896Y824087D01*
X3506894Y824088D01*
X3506905Y824098D01*
X3506904Y824098D01*
X3506903Y824096D01*
X3506902Y824095D01*
X3506901Y824094D01*
X3506900Y824093D01*
Y824094D01*
X3506907Y824101D01*
X3506905Y824098D01*
X3506904Y824098D01*
X3506903Y824096D01*
X3506901Y824095D01*
X3506900Y824094D01*
X3506899Y824093D01*
Y824093D01*
X3506900Y824093D01*
X3506900Y824093D01*
X3506900Y824093D01*
X3506900D01*
Y824094D01*
X3491504Y808481D01*
X3491503Y808480D01*
X3491502Y808479D01*
X3491501Y808477D01*
X3491499Y808476D01*
X3491499Y808475D01*
X3491499Y808476D01*
X3491501Y808477D01*
X3491502Y808479D01*
X3491503Y808480D01*
X3491504Y808481D01*
X3491504D01*
X3491499Y808475D01*
X3491498Y808475D01*
X3491498D01*
X3491498Y808475D01*
X3491498Y808475D01*
X3491499Y808475D01*
X3491499Y808475D01*
Y808475D01*
X3491498Y808475D01*
X3491498Y808475D01*
X3491498Y808475D01*
Y808475D01*
X3491498D01*
X3491498D01*
X3491499D01*
X3491499Y808475D01*
X3491498Y808475D01*
X3491497D01*
X3491494D01*
X3491492D01*
X3491490D01*
X3491488D01*
Y808475D01*
X2990000D01*
X2988751D01*
X2986985Y806708D01*
Y804211D01*
X2988751Y802445D01*
X2990000D01*
D01*
D02*
G37*
G36*
X2350000D02*
X2348751D01*
X2346985Y804211D01*
Y806708D01*
X2348751Y808475D01*
X2350000D01*
D01*
X2870000D01*
X2870600D01*
X2871708Y808015D01*
X2872556Y807167D01*
X2873015Y806059D01*
Y805460D01*
Y804860D01*
X2872556Y803752D01*
X2871708Y802904D01*
X2870600Y802445D01*
X2870000D01*
D01*
X2350000D01*
D02*
G37*
G36*
Y788687D02*
X2348751D01*
X2346985Y790453D01*
Y792951D01*
X2348751Y794717D01*
X2350000D01*
D01*
X2870000D01*
X2870600D01*
X2871708Y794258D01*
X2872556Y793410D01*
X2873015Y792302D01*
Y791702D01*
Y791102D01*
X2872556Y789994D01*
X2871708Y789146D01*
X2870600Y788687D01*
X2870000D01*
D01*
X2350000D01*
D02*
G37*
G36*
X2990000Y493715D02*
X3099949D01*
X3099951Y493716D01*
X3099954Y493720D01*
X3099957Y493723D01*
X3099960Y493726D01*
X3099962Y493728D01*
X3107019Y501142D01*
X3120002Y516964D01*
X3131370Y533982D01*
X3141017Y552033D01*
X3148848Y570942D01*
X3154788Y590527D01*
X3158780Y610600D01*
X3160786Y630968D01*
X3161037Y641201D01*
X3160786Y651434D01*
X3158780Y671802D01*
X3154788Y691875D01*
X3148848Y711460D01*
X3141017Y730369D01*
X3131370Y748419D01*
X3120002Y765437D01*
X3107019Y781259D01*
X3099962Y788674D01*
X3099960Y788675D01*
X3099957Y788678D01*
X3099954Y788682D01*
X3099951Y788685D01*
X3099949Y788687D01*
X3099951Y788685D01*
X3099954Y788682D01*
X3099957Y788678D01*
X3099961Y788675D01*
X3099962Y788674D01*
X3099962D01*
X3099949Y788687D01*
X2990000D01*
X2988751D01*
X2986985Y790453D01*
Y792951D01*
X2988751Y794717D01*
X2990000D01*
D01*
X3099955D01*
X3100547D01*
X3101710Y794486D01*
X3102804Y794032D01*
X3103790Y793374D01*
X3104209Y792955D01*
X3111664Y785500D01*
X3125041Y769199D01*
X3136756Y751667D01*
X3146696Y733070D01*
X3154766Y713589D01*
X3160887Y693410D01*
X3165000Y672729D01*
X3167067Y651744D01*
Y641201D01*
Y630658D01*
X3165000Y609673D01*
X3160887Y588991D01*
X3154766Y568813D01*
X3146696Y549331D01*
X3136756Y530735D01*
X3125041Y513202D01*
X3111664Y496902D01*
X3104209Y489447D01*
X3103790Y489028D01*
X3102804Y488369D01*
X3101710Y487916D01*
X3100547Y487685D01*
X3099955D01*
D01*
X2990000D01*
X2988751D01*
X2986985Y489451D01*
Y491949D01*
X2988751Y493715D01*
X2990000D01*
D01*
D02*
G37*
G36*
Y178754D02*
X3099949D01*
X3099951Y178756D01*
X3099954Y178759D01*
X3099957Y178762D01*
X3099961Y178766D01*
X3099962Y178767D01*
X3099962Y178767D01*
X3107019Y186182D01*
X3120002Y202004D01*
X3131370Y219022D01*
X3141017Y237072D01*
X3148848Y255981D01*
X3154788Y275566D01*
X3158780Y295639D01*
X3160786Y316007D01*
X3161037Y326240D01*
X3160786Y336473D01*
X3158780Y356841D01*
X3154788Y376914D01*
X3148848Y396499D01*
X3141017Y415408D01*
X3131370Y433459D01*
X3120002Y450477D01*
X3107019Y466299D01*
X3099962Y473713D01*
X3099960Y473715D01*
X3099957Y473718D01*
X3099954Y473721D01*
X3099951Y473724D01*
X3099949Y473726D01*
X3099951Y473724D01*
X3099954Y473721D01*
X3099957Y473718D01*
X3099961Y473715D01*
X3099962Y473713D01*
X3099962D01*
X3099949Y473726D01*
D01*
X3099949D01*
D01*
D01*
D01*
X2990000D01*
X2988751D01*
X2986985Y475492D01*
Y477990D01*
X2988751Y479756D01*
X2990000D01*
D01*
X3099955D01*
X3100547D01*
X3101710Y479525D01*
X3102804Y479072D01*
X3103790Y478413D01*
X3104209Y477994D01*
X3111664Y470539D01*
X3125041Y454239D01*
X3136756Y436706D01*
X3146696Y418110D01*
X3154766Y398628D01*
X3160887Y378450D01*
X3165000Y357768D01*
X3167067Y336783D01*
Y326240D01*
Y315697D01*
X3165000Y294712D01*
X3160887Y274031D01*
X3154766Y253852D01*
X3146696Y234371D01*
X3136756Y215774D01*
X3125041Y198242D01*
X3111664Y181941D01*
X3104209Y174486D01*
X3103790Y174067D01*
X3102804Y173409D01*
X3101710Y172955D01*
X3100547Y172724D01*
X3099955D01*
D01*
X2990000D01*
X2988751D01*
X2986985Y174490D01*
Y176988D01*
X2988751Y178754D01*
X2990000D01*
D01*
D02*
G37*
G36*
X2350000Y172724D02*
X2348751D01*
X2346985Y174490D01*
Y176988D01*
X2348751Y178754D01*
X2350000D01*
D01*
X2870000D01*
X2870600D01*
X2871708Y178295D01*
X2872556Y177447D01*
X2873015Y176339D01*
Y175739D01*
Y175139D01*
X2872556Y174031D01*
X2871708Y173183D01*
X2870600Y172724D01*
X2870000D01*
D01*
X2350000D01*
D02*
G37*
G36*
Y487685D02*
X2348751D01*
X2346985Y489451D01*
Y491949D01*
X2348751Y493715D01*
X2350000D01*
D01*
X2870000D01*
X2870600D01*
X2871708Y493256D01*
X2872556Y492408D01*
X2873015Y491300D01*
Y490700D01*
Y490100D01*
X2872556Y488992D01*
X2871708Y488144D01*
X2870600Y487685D01*
X2870000D01*
D01*
X2350000D01*
D02*
G37*
G36*
X2163142Y489447D02*
X2163561Y489028D01*
X2164546Y488369D01*
X2165641Y487916D01*
X2166803Y487685D01*
X2167396D01*
D01*
X2230000D01*
X2230600D01*
X2231708Y488144D01*
X2232556Y488992D01*
X2233015Y490100D01*
Y490700D01*
Y491300D01*
X2232556Y492408D01*
X2231708Y493256D01*
X2230600Y493715D01*
X2230000D01*
D01*
X2167401Y493715D01*
D01*
X2167401D01*
D01*
D01*
X2167402Y493715D01*
X2167400Y493716D01*
X2167396Y493720D01*
X2167393Y493723D01*
X2167390Y493726D01*
X2167388Y493728D01*
X2158060Y503690D01*
X2141456Y525334D01*
X2127817Y548960D01*
X2117379Y574164D01*
X2110320Y600514D01*
X2106760Y627561D01*
Y654841D01*
X2110320Y681887D01*
X2117379Y708238D01*
X2127817Y733442D01*
X2141456Y757068D01*
X2158060Y778712D01*
X2167388Y788674D01*
X2167390Y788675D01*
X2167393Y788678D01*
X2167396Y788682D01*
X2167400Y788685D01*
X2167401Y788687D01*
Y788687D01*
X2167401D01*
D01*
D01*
X2167402D01*
X2230000D01*
X2230600D01*
X2231708Y789146D01*
X2232556Y789994D01*
X2233015Y791102D01*
Y791702D01*
Y792302D01*
X2232556Y793410D01*
X2231708Y794258D01*
X2230600Y794717D01*
X2230000D01*
D01*
X2167396D01*
X2166803D01*
X2165641Y794486D01*
X2164546Y794032D01*
X2163561Y793374D01*
X2163142Y792955D01*
X2153195Y783008D01*
X2136069Y760689D01*
X2122003Y736325D01*
X2111237Y710334D01*
X2103955Y683159D01*
X2100283Y655267D01*
Y627134D01*
X2103955Y599242D01*
X2111237Y572068D01*
X2122003Y546076D01*
X2136069Y521713D01*
X2153195Y499393D01*
X2163142Y489447D01*
D01*
D02*
G37*
G36*
X2350000Y473726D02*
X2348751D01*
X2346985Y475492D01*
Y477990D01*
X2348751Y479756D01*
X2350000D01*
D01*
X2870000D01*
X2870600D01*
X2871708Y479297D01*
X2872556Y478449D01*
X2873015Y477341D01*
Y476741D01*
Y476141D01*
X2872556Y475033D01*
X2871708Y474185D01*
X2870600Y473726D01*
X2870000D01*
D01*
X2350000D01*
D02*
G37*
G36*
X2163142Y174486D02*
X2163561Y174067D01*
X2164546Y173409D01*
X2165641Y172955D01*
X2166803Y172724D01*
X2167396D01*
D01*
X2230000D01*
X2230600D01*
X2231708Y173183D01*
X2232556Y174031D01*
X2233015Y175139D01*
Y175739D01*
Y176339D01*
X2232556Y177447D01*
X2231708Y178295D01*
X2230600Y178754D01*
X2230000D01*
D01*
X2167401Y178754D01*
D01*
X2167401D01*
D01*
D01*
X2167402Y178754D01*
X2167400Y178756D01*
X2167396Y178759D01*
X2167393Y178762D01*
X2167390Y178766D01*
X2167388Y178767D01*
X2158060Y188729D01*
X2141456Y210373D01*
X2127817Y233999D01*
X2117379Y259203D01*
X2110320Y285554D01*
X2106760Y312600D01*
Y339880D01*
X2110320Y366927D01*
X2117379Y393277D01*
X2127817Y418481D01*
X2141456Y442107D01*
X2158060Y463751D01*
X2167388Y473713D01*
X2167390Y473715D01*
X2167393Y473718D01*
X2167396Y473721D01*
X2167400Y473724D01*
X2167401Y473726D01*
Y473726D01*
X2167401D01*
D01*
D01*
X2167402D01*
X2230000D01*
X2230600D01*
X2231708Y474185D01*
X2232556Y475033D01*
X2233015Y476141D01*
Y476741D01*
Y477341D01*
X2232556Y478449D01*
X2231708Y479297D01*
X2230600Y479756D01*
X2230000D01*
D01*
X2167396D01*
X2166803D01*
X2165641Y479525D01*
X2164546Y479072D01*
X2163561Y478413D01*
X2163142Y477994D01*
X2153195Y468048D01*
X2136069Y445728D01*
X2122003Y421365D01*
X2111237Y395373D01*
X2103955Y368199D01*
X2100283Y340307D01*
Y312174D01*
X2103955Y284281D01*
X2111237Y257107D01*
X2122003Y231116D01*
X2136069Y206752D01*
X2153195Y184433D01*
X2163142Y174486D01*
D01*
D02*
G37*
G36*
X1495000Y189732D02*
X1676772D01*
X1676776D01*
X1676785D01*
X1676794D01*
X1676803D01*
X1676807Y189732D01*
X1684941Y189734D01*
X1701070Y191862D01*
X1716783Y196076D01*
X1731812Y202305D01*
X1745899Y210442D01*
X1758804Y220348D01*
X1770306Y231853D01*
X1780208Y244761D01*
X1788340Y258850D01*
X1794565Y273880D01*
X1798775Y289595D01*
X1800898Y305724D01*
Y313858D01*
D01*
Y570000D01*
Y571249D01*
X1799132Y573015D01*
X1796634D01*
X1794868Y571249D01*
Y570000D01*
D01*
Y313858D01*
X1794615Y306135D01*
X1792599Y290822D01*
X1788602Y275902D01*
X1782692Y261632D01*
X1774970Y248255D01*
X1765568Y236000D01*
X1754648Y225077D01*
X1742395Y215673D01*
X1729020Y207948D01*
X1714751Y202036D01*
X1699832Y198035D01*
X1684519Y196016D01*
X1676796Y195762D01*
X1676793Y195762D01*
X1676787D01*
X1676781D01*
X1676775D01*
X1676772D01*
X1676772Y195762D01*
D01*
X1676772D01*
X1676772D01*
X1676772D01*
X1676772D01*
D01*
Y195762D01*
X1676772Y195762D01*
D01*
X1676772D01*
X1676772D01*
Y195762D01*
X1495000D01*
X1493751D01*
X1491985Y193996D01*
Y191498D01*
X1493751Y189732D01*
X1495000D01*
D01*
D02*
G37*
G36*
X570000Y189732D02*
X568751D01*
X566985Y191498D01*
Y193996D01*
X568751Y195762D01*
X570000D01*
D01*
X1375000Y195762D01*
X1375600D01*
X1376708Y195303D01*
X1377556Y194455D01*
X1378015Y193347D01*
Y192747D01*
Y192147D01*
X1377556Y191039D01*
X1376708Y190191D01*
X1375600Y189732D01*
X1375000D01*
D01*
X570000Y189732D01*
D02*
G37*
G36*
X393676Y195762D02*
X393680D01*
X393685D01*
X393691D01*
X393697D01*
X393700D01*
Y195762D01*
X393700D01*
X393701D01*
X393701D01*
Y195762D01*
D01*
D01*
D01*
X393704D01*
X393710D01*
X393716D01*
X393722Y195762D01*
X393725D01*
D01*
X393725Y195762D01*
X393722D01*
X393716D01*
X393710D01*
X393704D01*
X393701Y195762D01*
X393701D01*
X393701Y195762D01*
X450000D01*
X450600D01*
X451708Y195303D01*
X452556Y194455D01*
X453015Y193347D01*
Y192747D01*
Y192147D01*
X452556Y191039D01*
X451708Y190191D01*
X450600Y189732D01*
X450000D01*
D01*
X393701D01*
X393704Y189732D01*
X393710D01*
X393716D01*
X393722D01*
X393725D01*
Y189732D01*
D01*
D01*
D01*
X393728D01*
X393735D01*
X393741D01*
X393747D01*
X393750Y189732D01*
X393748Y189732D01*
X393745D01*
X393741D01*
X393737D01*
X393735D01*
X393734Y189732D01*
X393732D01*
X393729D01*
X393726D01*
X393725D01*
X393722D01*
X393716D01*
X393710D01*
X393704D01*
X393701D01*
X385565D01*
X369433Y191856D01*
X353716Y196067D01*
X338683Y202294D01*
X324592Y210429D01*
X311683Y220335D01*
X300178Y231840D01*
X290272Y244749D01*
X282137Y258841D01*
X275910Y273873D01*
X271698Y289590D01*
X269575Y305722D01*
Y313858D01*
D01*
Y570000D01*
Y571249D01*
X271341Y573015D01*
X273838D01*
X275605Y571249D01*
Y570000D01*
D01*
Y313858D01*
X275857Y306135D01*
X277873Y290822D01*
X281870Y275902D01*
X287780Y261632D01*
X295502Y248255D01*
X304904Y236000D01*
X315825Y225077D01*
X328077Y215673D01*
X341453Y207948D01*
X355722Y202035D01*
X370640Y198035D01*
X385954Y196016D01*
X393676Y195762D01*
D01*
D02*
G37*
G36*
X269575Y1560000D02*
Y1742638D01*
Y1742642D01*
Y1742651D01*
Y1742660D01*
Y1742669D01*
X269575Y1742673D01*
X269577Y1750808D01*
X271705Y1766936D01*
X275919Y1782649D01*
X282148Y1797678D01*
X290285Y1811765D01*
X300190Y1824670D01*
X311695Y1836172D01*
X324603Y1846074D01*
X338693Y1854207D01*
X353723Y1860431D01*
X369438Y1864641D01*
X385567Y1866764D01*
X393701D01*
X393704D01*
X393710Y1866764D01*
X393716D01*
X393722D01*
X393725D01*
D01*
Y1866764D01*
D01*
D01*
X393728D01*
X393735D01*
X393741D01*
X393747D01*
X393750Y1866764D01*
X393748Y1866764D01*
X393745D01*
X393741D01*
X393737D01*
X393736Y1866764D01*
X393734D01*
X393732D01*
X393729D01*
X393727D01*
X393725D01*
X393722D01*
X393716D01*
X393710D01*
X393704Y1866764D01*
X393701D01*
D01*
Y1866764D01*
X450000D01*
X450600D01*
X451708Y1866305D01*
X452556Y1865457D01*
X453015Y1864349D01*
Y1863749D01*
Y1863149D01*
X452556Y1862041D01*
X451708Y1861193D01*
X450600Y1860734D01*
X450000D01*
D01*
X393701D01*
X393698D01*
X393692D01*
X393686D01*
X393680D01*
X393677D01*
X393680D01*
X393686D01*
X393692D01*
X393697D01*
X393700D01*
Y1860734D01*
X393701D01*
X393701D01*
X393701D01*
X393701D01*
X393701D01*
D01*
D01*
X393704D01*
X393710D01*
X393716D01*
X393722D01*
X393725D01*
X393725Y1860734D01*
Y1860734D01*
X393722D01*
X393716D01*
X393710D01*
X393704D01*
X393701D01*
X393701D01*
D01*
D01*
D01*
Y1860734D01*
X393677Y1860734D01*
X385955Y1860480D01*
X370644Y1858461D01*
X355727Y1854462D01*
X341459Y1848551D01*
X328085Y1840828D01*
X315833Y1831426D01*
X304913Y1820506D01*
X295511Y1808254D01*
X287788Y1794880D01*
X281877Y1780612D01*
X277877Y1765695D01*
X275859Y1750384D01*
X275605Y1742662D01*
Y1742659D01*
Y1742653D01*
Y1742647D01*
Y1742641D01*
Y1742638D01*
Y1742635D01*
X275605Y1742629D01*
Y1742622D01*
Y1742616D01*
Y1742613D01*
D01*
X275604Y1742638D01*
Y1742638D01*
Y1742638D01*
Y1742638D01*
D01*
Y1742638D01*
X275605Y1742641D01*
Y1742647D01*
Y1742653D01*
Y1742659D01*
Y1742662D01*
Y1742662D01*
Y1742662D01*
Y1742662D01*
X275605Y1742663D01*
Y1742663D01*
X275605Y1742638D01*
Y1560000D01*
Y1558751D01*
X273838Y1556985D01*
X271341D01*
X269575Y1558751D01*
Y1560000D01*
D01*
D02*
G37*
G36*
Y690000D02*
Y688751D01*
X271341Y686985D01*
X273838D01*
X275605Y688751D01*
Y690000D01*
D01*
Y957638D01*
X275857Y965361D01*
X277873Y980674D01*
X281870Y995594D01*
X287780Y1009864D01*
X295502Y1023241D01*
X304904Y1035496D01*
X315825Y1046418D01*
X328077Y1055823D01*
X341453Y1063547D01*
X355722Y1069460D01*
X370641Y1073461D01*
X385954Y1075480D01*
X393677Y1075734D01*
X393680Y1075734D01*
X393685D01*
X393692D01*
X393697D01*
X393700Y1075734D01*
X393701D01*
D01*
X393701D01*
X393701D01*
X393701D01*
X393701D01*
D01*
D01*
X393701D01*
D01*
X393701D01*
X393700D01*
X393701D01*
X450000D01*
X450600D01*
X451708Y1076193D01*
X452556Y1077041D01*
X453015Y1078149D01*
Y1078749D01*
Y1079349D01*
X452556Y1080457D01*
X451708Y1081305D01*
X450600Y1081764D01*
X450000D01*
D01*
X393701D01*
X393698D01*
X393692Y1081764D01*
X393685D01*
X393679D01*
X393676Y1081764D01*
X393679D01*
X393685D01*
X393692D01*
X393698D01*
X393701Y1081764D01*
X393701Y1081764D01*
X393698Y1081764D01*
X393691Y1081764D01*
X393685D01*
X393679D01*
X393676D01*
D01*
X393676D01*
X393676D01*
X393676D01*
X393676D01*
X393676Y1081764D01*
X393676Y1081764D01*
X393675D01*
X393674D01*
X393671D01*
X393669D01*
X393666D01*
X393665D01*
X393670Y1081764D01*
X393678D01*
X393687D01*
X393696D01*
X393701Y1081764D01*
D01*
X393675Y1081764D01*
X393672D01*
X393666D01*
X393660D01*
X393654D01*
X393651Y1081764D01*
X393653Y1081764D01*
X393656D01*
X393660D01*
X393663D01*
X393665D01*
X385531Y1081762D01*
X369402Y1079634D01*
X353689Y1075420D01*
X338661Y1069191D01*
X324574Y1061054D01*
X311669Y1051148D01*
X300167Y1039643D01*
X290265Y1026735D01*
X282132Y1012646D01*
X275907Y997615D01*
X271698Y981901D01*
X269575Y965772D01*
Y957638D01*
D01*
Y690000D01*
D02*
G37*
G36*
Y1223858D02*
Y1222609D01*
X271341Y1220843D01*
X273838D01*
X275605Y1222609D01*
Y1223858D01*
D01*
Y1440000D01*
Y1441249D01*
X273838Y1443015D01*
X271341D01*
X269575Y1441249D01*
Y1440000D01*
D01*
Y1223858D01*
D02*
G37*
G36*
X393701Y1099732D02*
X385566D01*
X369436Y1101855D01*
X353721Y1106066D01*
X338690Y1112291D01*
X324600Y1120424D01*
X311692Y1130327D01*
X300187Y1141830D01*
X290281Y1154736D01*
X282145Y1168825D01*
X275916Y1183854D01*
X271703Y1199569D01*
X269576Y1215698D01*
X269575Y1223833D01*
X269574Y1225082D01*
X271340Y1226848D01*
X273838Y1226849D01*
X275604Y1225083D01*
X275605Y1223834D01*
X275859Y1216111D01*
X277878Y1200798D01*
X281878Y1185879D01*
X287791Y1171610D01*
X295516Y1158235D01*
X304920Y1145982D01*
X315843Y1135062D01*
X328098Y1125660D01*
X341475Y1117938D01*
X355745Y1112028D01*
X370664Y1108031D01*
X385978Y1106015D01*
X393701Y1105762D01*
X394301D01*
X395409Y1105303D01*
X396257Y1104455D01*
X396716Y1103347D01*
Y1102747D01*
Y1102147D01*
X396257Y1101039D01*
X395409Y1100191D01*
X394301Y1099732D01*
X393701D01*
D01*
D02*
G37*
G36*
D02*
X392452D01*
X390686Y1101498D01*
Y1103996D01*
X392452Y1105762D01*
X393701D01*
D01*
X450000D01*
X450600D01*
X451708Y1105303D01*
X452556Y1104455D01*
X453015Y1103347D01*
Y1102747D01*
Y1102147D01*
X452556Y1101039D01*
X451708Y1100191D01*
X450600Y1099732D01*
X450000D01*
D01*
X393701D01*
D02*
G37*
G36*
X269575Y1223823D02*
Y1223824D01*
Y1223826D01*
Y1223829D01*
Y1223832D01*
Y1223833D01*
Y1223830D01*
Y1223824D01*
Y1223818D01*
Y1223812D01*
X269575Y1223809D01*
X269575Y1223810D01*
Y1223814D01*
Y1223817D01*
Y1223821D01*
Y1223823D01*
D01*
D02*
G37*
G36*
D02*
Y1223824D01*
Y1223826D01*
Y1223829D01*
Y1223832D01*
Y1223833D01*
Y1223830D01*
Y1223824D01*
Y1223818D01*
Y1223812D01*
X269575Y1223809D01*
X269575Y1223810D01*
Y1223814D01*
Y1223817D01*
Y1223821D01*
Y1223823D01*
D01*
D02*
G37*
G36*
X1676723Y1081764D02*
X1676724Y1081764D01*
X1676728D01*
X1676732D01*
X1676735D01*
X1676737Y1081764D01*
X1676738D01*
X1676741D01*
X1676743D01*
X1676746D01*
X1676747D01*
X1676750D01*
X1676756D01*
X1676763D01*
X1676769D01*
X1676772Y1081764D01*
X1684907D01*
X1701039Y1079640D01*
X1716756Y1075429D01*
X1731789Y1069202D01*
X1745880Y1061066D01*
X1758789Y1051161D01*
X1770295Y1039656D01*
X1780200Y1026747D01*
X1788336Y1012655D01*
X1794563Y997622D01*
X1798774Y981906D01*
X1800898Y965774D01*
Y957638D01*
D01*
Y690000D01*
Y688751D01*
X1799132Y686985D01*
X1796634D01*
X1794868Y688751D01*
Y690000D01*
D01*
Y957638D01*
X1794615Y965361D01*
X1792599Y980674D01*
X1788602Y995594D01*
X1782692Y1009864D01*
X1774970Y1023241D01*
X1765568Y1035496D01*
X1754648Y1046419D01*
X1742395Y1055823D01*
X1729020Y1063547D01*
X1714751Y1069460D01*
X1699832Y1073461D01*
X1684519Y1075480D01*
X1676796Y1075734D01*
X1676793D01*
X1676787D01*
X1676781D01*
X1676775D01*
X1676772D01*
Y1075734D01*
X1676772D01*
X1676772D01*
X1676772D01*
Y1075734D01*
D01*
D01*
D01*
X1676772Y1075734D01*
X1676769D01*
X1676763D01*
X1676756D01*
X1676750D01*
X1676747D01*
Y1075734D01*
Y1075734D01*
X1676750D01*
X1676756D01*
X1676763D01*
X1676769D01*
X1676772D01*
X1676772Y1075734D01*
X1676775Y1075734D01*
X1676781D01*
X1676787D01*
X1676793D01*
X1676796D01*
Y1075734D01*
X1676772Y1075734D01*
X1495000D01*
X1493751D01*
X1491985Y1077500D01*
Y1079998D01*
X1493751Y1081764D01*
X1495000D01*
D01*
X1676772D01*
X1676769D01*
X1676763D01*
X1676756D01*
X1676750D01*
X1676747D01*
Y1081764D01*
D01*
D01*
D01*
Y1081764D01*
D01*
D01*
D01*
X1676750D01*
X1676756Y1081764D01*
X1676763D01*
X1676769D01*
X1676772D01*
X1676772D01*
X1676747D01*
X1676744D01*
X1676738D01*
X1676732D01*
X1676726D01*
X1676723Y1081764D01*
D01*
D02*
G37*
G36*
X570000Y1075734D02*
X568751D01*
X566985Y1077500D01*
Y1079998D01*
X568751Y1081764D01*
X570000D01*
D01*
X1375000Y1081764D01*
X1375600D01*
X1376708Y1081305D01*
X1377556Y1080457D01*
X1378015Y1079349D01*
Y1078749D01*
Y1078149D01*
X1377556Y1077041D01*
X1376708Y1076193D01*
X1375600Y1075734D01*
X1375000D01*
D01*
X570000Y1075734D01*
D02*
G37*
G36*
Y1099732D02*
X568751D01*
X566985Y1101498D01*
Y1103996D01*
X568751Y1105762D01*
X570000D01*
D01*
X1375000Y1105762D01*
X1375600D01*
X1376708Y1105303D01*
X1377556Y1104455D01*
X1378015Y1103347D01*
Y1102747D01*
Y1102147D01*
X1377556Y1101039D01*
X1376708Y1100191D01*
X1375600Y1099732D01*
X1375000D01*
D01*
X570000Y1099732D01*
D02*
G37*
G36*
X1676723Y1099732D02*
X1676724Y1099732D01*
X1676728D01*
X1676732D01*
X1676735D01*
X1676737D01*
X1676738Y1099732D01*
X1676741D01*
X1676743D01*
X1676746D01*
X1676747D01*
X1676750D01*
X1676756D01*
X1676763D01*
X1676769D01*
X1676772D01*
X1684907D01*
X1701039Y1101856D01*
X1716756Y1106067D01*
X1731789Y1112294D01*
X1745880Y1120430D01*
X1758789Y1130335D01*
X1770295Y1141841D01*
X1780200Y1154749D01*
X1788336Y1168841D01*
X1794563Y1183874D01*
X1798774Y1199591D01*
X1800898Y1215723D01*
Y1223858D01*
D01*
Y1440000D01*
Y1441249D01*
X1799132Y1443015D01*
X1796634D01*
X1794868Y1441249D01*
Y1440000D01*
D01*
Y1223858D01*
X1794615Y1216135D01*
X1792599Y1200822D01*
X1788602Y1185902D01*
X1782692Y1171632D01*
X1774970Y1158255D01*
X1765568Y1146000D01*
X1754648Y1135078D01*
X1742395Y1125673D01*
X1729020Y1117949D01*
X1714751Y1112036D01*
X1699832Y1108035D01*
X1684519Y1106016D01*
X1676796Y1105762D01*
X1676793D01*
X1676787D01*
X1676781D01*
X1676775D01*
X1676772D01*
Y1105762D01*
X1676772D01*
X1676772D01*
X1676772D01*
X1676772D01*
X1676772Y1105762D01*
X1676772D01*
D01*
D01*
D01*
X1676772D01*
X1676775D01*
X1676781D01*
X1676787D01*
X1676793D01*
X1676796D01*
D01*
X1676772D01*
X1676769D01*
X1676763D01*
X1676756D01*
X1676750Y1105762D01*
X1676747D01*
D01*
Y1105762D01*
X1676750D01*
X1676756D01*
X1676763D01*
X1676769D01*
X1676772Y1105762D01*
D01*
Y1105762D01*
X1495000D01*
X1493751D01*
X1491985Y1103996D01*
Y1101498D01*
X1493751Y1099732D01*
X1495000D01*
D01*
X1676772D01*
X1676769Y1099732D01*
X1676763D01*
X1676756D01*
X1676750D01*
X1676747D01*
X1676750Y1099732D01*
X1676756D01*
X1676763D01*
X1676769D01*
X1676772D01*
X1676772Y1099732D01*
X1676747Y1099732D01*
D01*
D01*
D01*
D01*
Y1099732D01*
D01*
D01*
D01*
X1676747D01*
X1676744D01*
X1676738D01*
X1676732D01*
X1676726D01*
X1676723Y1099732D01*
D01*
D02*
G37*
G36*
X1495000Y1860734D02*
X1676772Y1860734D01*
X1684496Y1860481D01*
X1699811Y1858465D01*
X1714733Y1854467D01*
X1729004Y1848555D01*
X1742382Y1840831D01*
X1754638Y1831427D01*
X1765561Y1820504D01*
X1774965Y1808249D01*
X1782689Y1794870D01*
X1788601Y1780599D01*
X1792599Y1765677D01*
X1794615Y1750362D01*
X1794868Y1742638D01*
D01*
Y1560000D01*
Y1558751D01*
X1796634Y1556985D01*
X1799132D01*
X1800898Y1558751D01*
Y1560000D01*
D01*
Y1742638D01*
Y1750774D01*
X1798774Y1766906D01*
X1794563Y1782622D01*
X1788336Y1797655D01*
X1780200Y1811747D01*
X1770295Y1824656D01*
X1758789Y1836161D01*
X1745880Y1846066D01*
X1731789Y1854202D01*
X1716756Y1860429D01*
X1701040Y1864640D01*
X1684907Y1866764D01*
X1676772D01*
Y1866764D01*
X1495000D01*
X1493751D01*
X1491985Y1864998D01*
Y1862500D01*
X1493751Y1860734D01*
X1495000D01*
D01*
D02*
G37*
G36*
X570000Y1860734D02*
X568751D01*
X566985Y1862500D01*
Y1864998D01*
X568751Y1866764D01*
X570000D01*
D01*
X1375000Y1866764D01*
X1375600D01*
X1376708Y1866305D01*
X1377556Y1865457D01*
X1378015Y1864349D01*
Y1863749D01*
Y1863149D01*
X1377556Y1862041D01*
X1376708Y1861193D01*
X1375600Y1860734D01*
X1375000D01*
D01*
X570000Y1860734D01*
D02*
G37*
G36*
X269575Y2003858D02*
Y2335000D01*
Y2336249D01*
X271341Y2338015D01*
X273838D01*
X275605Y2336249D01*
Y2335000D01*
D01*
Y2003858D01*
X275857Y1996134D01*
X277874Y1980819D01*
X281872Y1965897D01*
X287784Y1951626D01*
X295507Y1938247D01*
X304911Y1925992D01*
X315834Y1915069D01*
X328090Y1905665D01*
X341468Y1897941D01*
X355740Y1892029D01*
X370661Y1888031D01*
X385977Y1886015D01*
X393701Y1885762D01*
D01*
X450000D01*
X450600D01*
X451708Y1885303D01*
X452556Y1884455D01*
X453015Y1883347D01*
Y1882747D01*
Y1882147D01*
X452556Y1881039D01*
X451708Y1880191D01*
X450600Y1879732D01*
X450000D01*
D01*
X393701D01*
X385565D01*
X369433Y1881856D01*
X353716Y1886067D01*
X338683Y1892294D01*
X324592Y1900429D01*
X311683Y1910335D01*
X300178Y1921841D01*
X290272Y1934749D01*
X282137Y1948841D01*
X275910Y1963873D01*
X271698Y1979590D01*
X269575Y1995723D01*
Y2003858D01*
D01*
D02*
G37*
G36*
X570000Y1879732D02*
X568751D01*
X566985Y1881498D01*
Y1883996D01*
X568751Y1885762D01*
X570000D01*
D01*
X1375000Y1885762D01*
X1375600D01*
X1376708Y1885303D01*
X1377556Y1884455D01*
X1378015Y1883347D01*
Y1882747D01*
Y1882147D01*
X1377556Y1881039D01*
X1376708Y1880191D01*
X1375600Y1879732D01*
X1375000D01*
D01*
X570000Y1879732D01*
D02*
G37*
G36*
X1676723Y1879732D02*
X1676724Y1879732D01*
X1676728D01*
X1676732D01*
X1676735D01*
X1676737D01*
X1676738Y1879732D01*
X1676741D01*
X1676743D01*
X1676746D01*
X1676747D01*
X1676750D01*
X1676756D01*
X1676763D01*
X1676769D01*
X1676772D01*
X1684907D01*
X1701039Y1881856D01*
X1716756Y1886067D01*
X1731789Y1892294D01*
X1745880Y1900429D01*
X1758789Y1910335D01*
X1770295Y1921841D01*
X1780200Y1934749D01*
X1788336Y1948841D01*
X1794563Y1963873D01*
X1798774Y1979590D01*
X1800898Y1995723D01*
Y2003858D01*
D01*
Y2335000D01*
Y2336249D01*
X1799132Y2338015D01*
X1796634D01*
X1794868Y2336249D01*
Y2335000D01*
D01*
Y2003858D01*
X1794615Y1996135D01*
X1792599Y1980822D01*
X1788602Y1965902D01*
X1782692Y1951632D01*
X1774970Y1938255D01*
X1765568Y1926000D01*
X1754648Y1915077D01*
X1742395Y1905673D01*
X1729020Y1897948D01*
X1714751Y1892035D01*
X1699832Y1888035D01*
X1684519Y1886016D01*
X1676796Y1885762D01*
X1676793D01*
X1676787D01*
X1676781D01*
X1676775D01*
X1676772D01*
Y1885762D01*
X1676772D01*
X1676772D01*
X1676772D01*
X1676772D01*
X1676772Y1885762D01*
X1676772D01*
D01*
D01*
D01*
X1676772D01*
X1676775D01*
X1676781D01*
X1676787D01*
X1676793D01*
X1676796D01*
D01*
X1676772D01*
X1676769D01*
X1676763D01*
X1676756D01*
X1676750Y1885762D01*
X1676747D01*
D01*
Y1885762D01*
X1676750D01*
X1676756D01*
X1676763D01*
X1676769D01*
X1676772Y1885762D01*
D01*
Y1885762D01*
X1495000D01*
X1493751D01*
X1491985Y1883996D01*
Y1881498D01*
X1493751Y1879732D01*
X1495000D01*
D01*
X1676772D01*
X1676769Y1879732D01*
X1676763D01*
X1676756D01*
X1676750D01*
X1676747D01*
X1676750Y1879732D01*
X1676756D01*
X1676763D01*
X1676769D01*
X1676772D01*
X1676772Y1879732D01*
X1676747Y1879732D01*
D01*
D01*
D01*
D01*
Y1879732D01*
D01*
D01*
D01*
X1676747D01*
X1676744D01*
X1676738D01*
X1676732D01*
X1676726D01*
X1676723Y1879732D01*
D01*
D02*
G37*
G36*
X1495000Y2847624D02*
X1493751D01*
X1491985Y2849390D01*
Y2851888D01*
X1493751Y2853654D01*
X1495000D01*
D01*
X1676772D01*
X1684907D01*
X1701039Y2851530D01*
X1716756Y2847319D01*
X1731789Y2841092D01*
X1745880Y2832956D01*
X1758789Y2823051D01*
X1770295Y2811545D01*
X1780200Y2798636D01*
X1788336Y2784545D01*
X1794563Y2769512D01*
X1798774Y2753795D01*
X1800898Y2737663D01*
Y2729528D01*
D01*
Y2455000D01*
Y2453751D01*
X1799132Y2451985D01*
X1796634D01*
X1794868Y2453751D01*
Y2455000D01*
D01*
Y2729528D01*
X1794615Y2737251D01*
X1792599Y2752567D01*
X1788601Y2767488D01*
X1782689Y2781760D01*
X1774965Y2795138D01*
X1765561Y2807394D01*
X1754638Y2818317D01*
X1742382Y2827721D01*
X1729004Y2835445D01*
X1714732Y2841356D01*
X1699811Y2845355D01*
X1684495Y2847371D01*
X1676772Y2847624D01*
D01*
X1495000D01*
D02*
G37*
G36*
X570000Y2847624D02*
X568751D01*
X566985Y2849390D01*
Y2851887D01*
X568751Y2853654D01*
X570000D01*
D01*
X1375000Y2853654D01*
X1375600D01*
X1376708Y2853195D01*
X1377556Y2852347D01*
X1378015Y2851238D01*
Y2850639D01*
Y2850039D01*
X1377556Y2848931D01*
X1376708Y2848083D01*
X1375600Y2847624D01*
X1375000D01*
D01*
X570000Y2847624D01*
D02*
G37*
G36*
X269575Y2455000D02*
Y2453751D01*
X271341Y2451985D01*
X273838D01*
X275605Y2453751D01*
Y2455000D01*
D01*
Y2729528D01*
X275857Y2737250D01*
X277873Y2752564D01*
X281870Y2767483D01*
X287780Y2781754D01*
X295502Y2795131D01*
X304904Y2807385D01*
X315825Y2818308D01*
X328077Y2827713D01*
X341453Y2835437D01*
X355722Y2841350D01*
X370640Y2845350D01*
X385954Y2847369D01*
X393676Y2847624D01*
X393680D01*
X393685D01*
X393691D01*
X393697D01*
X393700D01*
Y2847624D01*
X393700D01*
X393701D01*
X393701D01*
Y2847624D01*
D01*
D01*
D01*
X393701D01*
X393704Y2847624D01*
X393710D01*
X393716D01*
X393722D01*
X393725D01*
X393725Y2847624D01*
Y2847624D01*
X393722D01*
X393716D01*
X393710D01*
X393704D01*
X393701D01*
X393701Y2847624D01*
X393701D01*
X393701Y2847624D01*
X450000D01*
X450600D01*
X451708Y2848083D01*
X452556Y2848931D01*
X453015Y2850039D01*
Y2850639D01*
Y2851238D01*
X452556Y2852347D01*
X451708Y2853195D01*
X450600Y2853654D01*
X450000D01*
D01*
X393701D01*
X393704Y2853654D01*
X393710D01*
X393716D01*
X393722D01*
X393725Y2853654D01*
Y2853654D01*
D01*
D01*
D01*
X393728D01*
X393735D01*
X393741D01*
X393747D01*
X393750Y2853653D01*
X393748Y2853654D01*
X393745D01*
X393741D01*
X393737D01*
X393735Y2853654D01*
X393734D01*
X393732D01*
X393729D01*
X393726D01*
X393725D01*
X393722D01*
X393716D01*
X393710D01*
X393704D01*
X393701Y2853654D01*
X393704Y2853654D01*
X393710D01*
X393716D01*
X393722D01*
X393725D01*
D01*
D01*
D01*
D01*
X393725D01*
X393701Y2853654D01*
X385565D01*
X369433Y2851530D01*
X353716Y2847319D01*
X338683Y2841092D01*
X324592Y2832956D01*
X311683Y2823051D01*
X300178Y2811545D01*
X290272Y2798636D01*
X282137Y2784545D01*
X275910Y2769512D01*
X271698Y2753795D01*
X269575Y2737663D01*
Y2729528D01*
D01*
Y2455000D01*
D02*
G37*
G36*
X393701Y2868000D02*
X392452D01*
X390686Y2869766D01*
Y2872264D01*
X392452Y2874030D01*
X393701D01*
D01*
X450000D01*
X450600D01*
X451708Y2873571D01*
X452556Y2872723D01*
X453015Y2871615D01*
Y2871015D01*
Y2870415D01*
X452556Y2869307D01*
X451708Y2868459D01*
X450600Y2868000D01*
X450000D01*
D01*
X393701D01*
D02*
G37*
G36*
X393665Y2868000D02*
X385532Y2868002D01*
X369405Y2870130D01*
X353694Y2874343D01*
X338667Y2880570D01*
X324581Y2888705D01*
X311677Y2898608D01*
X300176Y2910111D01*
X290274Y2923015D01*
X282140Y2937102D01*
X275914Y2952130D01*
X271702Y2967841D01*
X269576Y2983968D01*
X269575Y2992101D01*
X269574Y2993349D01*
X271340Y2995116D01*
X273838Y2995117D01*
X275604Y2993351D01*
X275605Y2992102D01*
X275859Y2984381D01*
X277877Y2969070D01*
X281876Y2954154D01*
X287787Y2939887D01*
X295509Y2926514D01*
X304910Y2914262D01*
X315829Y2903342D01*
X328080Y2893940D01*
X341453Y2886216D01*
X355719Y2880304D01*
X370635Y2876304D01*
X385945Y2874285D01*
X393666Y2874030D01*
X394266Y2874030D01*
X395374Y2873571D01*
X396222Y2872722D01*
X396681Y2871615D01*
Y2871015D01*
Y2870415D01*
X396221Y2869307D01*
X395373Y2868459D01*
X394265Y2868000D01*
X393665Y2868000D01*
D01*
D02*
G37*
G36*
X269575Y2992126D02*
Y2990877D01*
X271341Y2989111D01*
X273838D01*
X275605Y2990877D01*
Y2992126D01*
D01*
Y3270000D01*
Y3271249D01*
X273838Y3273015D01*
X271341D01*
X269575Y3271249D01*
Y3270000D01*
D01*
Y2992126D01*
D02*
G37*
G36*
X269575Y2992101D02*
Y2992101D01*
Y2992101D01*
X269575Y2992101D01*
X269575Y2992101D01*
Y2992102D01*
Y2992101D01*
D02*
G37*
G36*
D02*
Y2992101D01*
Y2992101D01*
X269575Y2992101D01*
X269575Y2992101D01*
Y2992102D01*
Y2992101D01*
D02*
G37*
G36*
D02*
Y2992101D01*
Y2992101D01*
X269575Y2992101D01*
X269575Y2992101D01*
Y2992102D01*
Y2992101D01*
D02*
G37*
G36*
X1676723Y3766134D02*
X1676724Y3766134D01*
X1676728D01*
X1676732D01*
X1676735D01*
X1676737Y3766134D01*
X1676738D01*
X1676741D01*
X1676743D01*
X1676746D01*
X1676747D01*
X1676750D01*
X1676756D01*
X1676763D01*
X1676769D01*
X1676772Y3766134D01*
X1684907D01*
X1701039Y3764010D01*
X1716756Y3759799D01*
X1731789Y3753572D01*
X1745880Y3745437D01*
X1758789Y3735531D01*
X1770295Y3724026D01*
X1780200Y3711117D01*
X1788336Y3697025D01*
X1794563Y3681993D01*
X1798774Y3666276D01*
X1800898Y3650144D01*
Y3642008D01*
D01*
Y3390000D01*
Y3388751D01*
X1799132Y3386985D01*
X1796634D01*
X1794868Y3388751D01*
Y3390000D01*
D01*
Y3642008D01*
X1794615Y3649731D01*
X1792599Y3665044D01*
X1788602Y3679964D01*
X1782692Y3694234D01*
X1774970Y3707611D01*
X1765568Y3719866D01*
X1754648Y3730789D01*
X1742395Y3740193D01*
X1729020Y3747918D01*
X1714751Y3753831D01*
X1699832Y3757831D01*
X1684519Y3759850D01*
X1676796Y3760104D01*
X1676793D01*
X1676787D01*
X1676781D01*
X1676775D01*
X1676772D01*
Y3760104D01*
X1676772D01*
X1676772D01*
X1676772D01*
Y3760104D01*
D01*
D01*
D01*
X1676772Y3760104D01*
X1676769D01*
X1676763D01*
X1676756D01*
X1676750D01*
X1676747D01*
Y3760104D01*
Y3760104D01*
X1676750D01*
X1676756D01*
X1676763D01*
X1676769D01*
X1676772D01*
X1676772Y3760104D01*
X1676775Y3760104D01*
X1676781D01*
X1676787D01*
X1676793D01*
X1676796D01*
Y3760104D01*
X1676772Y3760104D01*
X1495000D01*
X1493751D01*
X1491985Y3761870D01*
Y3764368D01*
X1493751Y3766134D01*
X1495000D01*
D01*
X1676772D01*
X1676769D01*
X1676763D01*
X1676756D01*
X1676750D01*
X1676747D01*
Y3766134D01*
D01*
D01*
D01*
Y3766134D01*
D01*
D01*
D01*
X1676750D01*
X1676756Y3766134D01*
X1676763D01*
X1676769D01*
X1676772D01*
X1676772D01*
X1676747D01*
X1676744D01*
X1676738D01*
X1676732D01*
X1676726D01*
X1676723Y3766134D01*
D01*
D02*
G37*
G36*
X1495000Y2868000D02*
X1676772D01*
X1676776D01*
X1676785D01*
X1676794D01*
X1676803D01*
X1676807Y2868000D01*
X1676809D01*
X1676812D01*
X1676816D01*
X1676820D01*
X1676821Y2868000D01*
X1676818Y2868000D01*
X1676812D01*
X1676806D01*
X1676800D01*
X1676797D01*
X1676797D01*
X1676797D01*
X1676796Y2868000D01*
X1676796Y2868000D01*
X1676796D01*
X1676796D01*
X1676796D01*
X1676796D01*
X1676793D01*
X1676787D01*
X1676781D01*
X1676775D01*
X1676772D01*
D01*
X1676775D01*
X1676781D01*
X1676787D01*
X1676793D01*
X1676796D01*
X1676793Y2868000D01*
X1676787D01*
X1676781D01*
X1676775D01*
X1676772D01*
D01*
X1676797Y2868000D01*
X1676798D01*
X1676801D01*
X1676803D01*
X1676806D01*
X1676807D01*
X1684941Y2868002D01*
X1701070Y2870130D01*
X1716783Y2874344D01*
X1731812Y2880573D01*
X1745899Y2888710D01*
X1758804Y2898616D01*
X1770306Y2910121D01*
X1780208Y2923028D01*
X1788340Y2937118D01*
X1794565Y2952148D01*
X1798775Y2967863D01*
X1800898Y2983992D01*
Y2992126D01*
D01*
Y3270000D01*
Y3271249D01*
X1799132Y3273015D01*
X1796634D01*
X1794868Y3271249D01*
Y3270000D01*
D01*
Y2992126D01*
X1794615Y2984403D01*
X1792599Y2969090D01*
X1788602Y2954170D01*
X1782692Y2939900D01*
X1774970Y2926523D01*
X1765568Y2914268D01*
X1754648Y2903345D01*
X1742395Y2893941D01*
X1729020Y2886216D01*
X1714751Y2880303D01*
X1699832Y2876303D01*
X1684519Y2874284D01*
X1676796Y2874030D01*
X1676793Y2874030D01*
X1676787D01*
X1676781D01*
X1676775D01*
X1676772D01*
Y2874030D01*
X1676772D01*
X1676772D01*
D01*
X1676772Y2874030D01*
Y2874030D01*
D01*
X1676772D01*
X1676772D01*
X1676772D01*
X1676772D01*
D01*
X1676772D01*
Y2874030D01*
X1495000D01*
X1493751D01*
X1491985Y2872264D01*
Y2869766D01*
X1493751Y2868000D01*
X1495000D01*
D01*
D02*
G37*
G36*
X570000D02*
X568751D01*
X566985Y2869766D01*
Y2872264D01*
X568751Y2874030D01*
X570000D01*
D01*
X1375000D01*
X1375600D01*
X1376708Y2873571D01*
X1377556Y2872723D01*
X1378015Y2871615D01*
Y2871015D01*
Y2870415D01*
X1377556Y2869307D01*
X1376708Y2868459D01*
X1375600Y2868000D01*
X1375000D01*
D01*
X570000D01*
D02*
G37*
G36*
X269575Y2992101D02*
Y2992101D01*
Y2992101D01*
X269575Y2992101D01*
X269575Y2992101D01*
Y2992102D01*
Y2992101D01*
D02*
G37*
G36*
X269575Y3390000D02*
Y3388751D01*
X271341Y3386985D01*
X273838D01*
X275605Y3388751D01*
Y3390000D01*
D01*
Y3642008D01*
X275857Y3649731D01*
X277873Y3665044D01*
X281870Y3679964D01*
X287780Y3694234D01*
X295502Y3707611D01*
X304904Y3719866D01*
X315825Y3730789D01*
X328077Y3740193D01*
X341453Y3747918D01*
X355722Y3753831D01*
X370640Y3757831D01*
X385954Y3759850D01*
X393676Y3760104D01*
X393680D01*
X393685D01*
X393691D01*
X393697D01*
X393700D01*
Y3760104D01*
X393700D01*
X393701D01*
X393701D01*
Y3760104D01*
D01*
D01*
D01*
X393701D01*
X393704Y3760104D01*
X393710D01*
X393716D01*
X393722D01*
X393725D01*
X393725Y3760104D01*
Y3760104D01*
X393722D01*
X393716D01*
X393710D01*
X393704D01*
X393701D01*
X393701Y3760104D01*
X393701D01*
X393701Y3760104D01*
X450000D01*
X450600D01*
X451708Y3760563D01*
X452556Y3761411D01*
X453015Y3762519D01*
Y3763119D01*
Y3763719D01*
X452556Y3764827D01*
X451708Y3765675D01*
X450600Y3766134D01*
X450000D01*
D01*
X393701D01*
X393704Y3766134D01*
X393710D01*
X393716D01*
X393722D01*
X393725Y3766134D01*
Y3766134D01*
D01*
D01*
D01*
X393728D01*
X393735D01*
X393741D01*
X393747D01*
X393750Y3766134D01*
X393748Y3766134D01*
X393745D01*
X393741D01*
X393737D01*
X393735Y3766134D01*
X393734D01*
X393732D01*
X393729D01*
X393726D01*
X393725D01*
X393722D01*
X393716D01*
X393710D01*
X393704D01*
X393701Y3766134D01*
X393704Y3766134D01*
X393710D01*
X393716D01*
X393722D01*
X393725D01*
D01*
D01*
D01*
D01*
X393725D01*
X393701Y3766134D01*
X385565D01*
X369433Y3764010D01*
X353716Y3759799D01*
X338683Y3753572D01*
X324592Y3745437D01*
X311683Y3735531D01*
X300178Y3724026D01*
X290272Y3711117D01*
X282137Y3697025D01*
X275910Y3681993D01*
X271698Y3666276D01*
X269575Y3650144D01*
Y3642008D01*
D01*
Y3390000D01*
D02*
G37*
G36*
X570000Y3760104D02*
X568751D01*
X566985Y3761870D01*
Y3764368D01*
X568751Y3766134D01*
X570000D01*
D01*
X1375000D01*
X1375600D01*
X1376708Y3765675D01*
X1377556Y3764827D01*
X1378015Y3763719D01*
Y3763119D01*
Y3762519D01*
X1377556Y3761411D01*
X1376708Y3760563D01*
X1375600Y3760104D01*
X1375000D01*
D01*
X570000D01*
D02*
G37*
G36*
X1676723Y3766134D02*
X1676724Y3766134D01*
X1676728D01*
X1676732D01*
X1676735D01*
X1676737Y3766134D01*
X1676738D01*
X1676741D01*
X1676743D01*
X1676746D01*
X1676747D01*
X1676750D01*
X1676756D01*
X1676763D01*
X1676769D01*
X1676772Y3766134D01*
X1684907D01*
X1701039Y3764010D01*
X1716756Y3759799D01*
X1731789Y3753572D01*
X1745880Y3745437D01*
X1758789Y3735531D01*
X1770295Y3724026D01*
X1780200Y3711117D01*
X1788336Y3697025D01*
X1794563Y3681993D01*
X1798774Y3666276D01*
X1800898Y3650144D01*
Y3642008D01*
D01*
Y3390000D01*
Y3388751D01*
X1799132Y3386985D01*
X1796634D01*
X1794868Y3388751D01*
Y3390000D01*
D01*
Y3642008D01*
X1794615Y3649731D01*
X1792599Y3665044D01*
X1788602Y3679964D01*
X1782692Y3694234D01*
X1774970Y3707611D01*
X1765568Y3719866D01*
X1754648Y3730789D01*
X1742395Y3740193D01*
X1729020Y3747918D01*
X1714751Y3753831D01*
X1699832Y3757831D01*
X1684519Y3759850D01*
X1676796Y3760104D01*
X1676793D01*
X1676787D01*
X1676781D01*
X1676775D01*
X1676772D01*
Y3760104D01*
X1676772D01*
X1676772D01*
X1676772D01*
Y3760104D01*
D01*
D01*
D01*
X1676772Y3760104D01*
X1676769D01*
X1676763D01*
X1676756D01*
X1676750D01*
X1676747D01*
Y3760104D01*
Y3760104D01*
X1676750D01*
X1676756D01*
X1676763D01*
X1676769D01*
X1676772D01*
X1676772Y3760104D01*
X1676775Y3760104D01*
X1676781D01*
X1676787D01*
X1676793D01*
X1676796D01*
Y3760104D01*
X1676772Y3760104D01*
X1495000D01*
X1493751D01*
X1491985Y3761870D01*
Y3764368D01*
X1493751Y3766134D01*
X1495000D01*
D01*
X1676772D01*
X1676769D01*
X1676763D01*
X1676756D01*
X1676750D01*
X1676747D01*
Y3766134D01*
D01*
D01*
D01*
Y3766134D01*
D01*
D01*
D01*
X1676750D01*
X1676756Y3766134D01*
X1676763D01*
X1676769D01*
X1676772D01*
X1676772D01*
X1676747D01*
X1676744D01*
X1676738D01*
X1676732D01*
X1676726D01*
X1676723Y3766134D01*
D01*
D02*
G37*
G36*
X2144993Y2423713D02*
X2144994Y2423715D01*
X2144998Y2423718D01*
X2145001Y2423721D01*
X2145004Y2423724D01*
X2145006Y2423726D01*
X2145006Y2423726D01*
X2145605Y2423727D01*
X2146711Y2424187D01*
X2147557Y2425035D01*
X2148015Y2426142D01*
Y2426741D01*
Y2427341D01*
X2147556Y2428449D01*
X2146708Y2429297D01*
X2145600Y2429756D01*
X2145000D01*
X2144398D01*
X2143217Y2429517D01*
X2142108Y2429050D01*
X2141113Y2428371D01*
X2140693Y2427940D01*
X2125204Y2412055D01*
X2096816Y2377952D01*
X2071191Y2341727D01*
X2048488Y2303602D01*
X2028845Y2263815D01*
X2012385Y2222608D01*
X1999208Y2180238D01*
X1989397Y2136964D01*
X1983010Y2093053D01*
X1980089Y2048777D01*
X1980651Y2004409D01*
X1984692Y1960221D01*
X1992187Y1916486D01*
X2003091Y1873474D01*
X2017336Y1831451D01*
X2034834Y1790674D01*
X2055477Y1751396D01*
X2079139Y1713859D01*
X2105673Y1678294D01*
X2134915Y1644921D01*
X2150800Y1629433D01*
X2150800Y1629433D01*
D01*
D01*
Y1629433D01*
X2150800D01*
X2151218Y1629026D01*
X2152193Y1628387D01*
X2153273Y1627948D01*
X2154417Y1627724D01*
X2155000D01*
X2155600D01*
X2156708Y1628183D01*
X2157556Y1629031D01*
X2158015Y1630139D01*
Y1630739D01*
Y1631338D01*
X2157557Y1632445D01*
X2156711Y1633293D01*
X2155604Y1633753D01*
X2155006Y1633754D01*
Y1633754D01*
X2155004Y1633756D01*
X2155001Y1633759D01*
X2154997Y1633762D01*
X2154994Y1633766D01*
X2154992Y1633767D01*
X2154994Y1633765D01*
X2154999Y1633761D01*
X2155003Y1633757D01*
X2155008Y1633752D01*
X2155010Y1633750D01*
X2155010D01*
X2154992Y1633767D01*
X2139591Y1649386D01*
X2110686Y1682377D01*
X2084459Y1717534D01*
X2061070Y1754641D01*
X2040665Y1793467D01*
X2023369Y1833775D01*
X2009289Y1875316D01*
X1998511Y1917834D01*
X1991102Y1961065D01*
X1987108Y2004745D01*
X1986553Y2048604D01*
X1989440Y2092371D01*
X1995752Y2135777D01*
X2005450Y2178553D01*
X2018475Y2220437D01*
X2034745Y2261170D01*
X2054161Y2300501D01*
X2076602Y2338187D01*
X2101931Y2373997D01*
X2129992Y2407709D01*
X2144993Y2423713D01*
D01*
D02*
G37*
G36*
X3599823Y1438516D02*
D01*
D02*
G37*
G36*
X3630772Y1356398D02*
D01*
D02*
G37*
G36*
X3616910Y1398065D02*
D01*
D02*
G37*
G36*
X3579608Y1477511D02*
D01*
D02*
G37*
G36*
X450000Y3020000D02*
D01*
D02*
G37*
%TF.MD5,1ecb1f22c29371cb7d651fdc0d249692*%
M02*
