%TF.GenerationSoftware,Altium Limited,Altium Designer,20.0.10 (225)*%
G04 Layer_Color=0*
%FSLAX26Y26*%
%MOIN*%
%TF.FileFunction,Plated,1,2,PTH,Drill*%
%TF.Part,CustomerPanel*%
G01*
G75*
%TA.AperFunction,ViaDrill,NotFilled*%
%ADD30C,0.028000*%
D30*
X3299884Y3275906D02*
D03*
X3369884Y3650906D02*
D03*
X3209884Y3575906D02*
D03*
X2264884Y3605906D02*
D03*
X2249968Y3355000D02*
D03*
X3014884Y3245906D02*
D03*
X3244884Y3270906D02*
D03*
X2226243Y3261453D02*
D03*
X2427133Y3227710D02*
D03*
X2844240Y3550753D02*
D03*
X2764794Y3554357D02*
D03*
X2685267D02*
D03*
X2605739Y3554280D02*
D03*
X2527452Y3540286D02*
D03*
X2599884Y3360906D02*
D03*
X2679884Y3365906D02*
D03*
X2760380Y3377915D02*
D03*
X2839706Y3383579D02*
D03*
X2919119Y3379317D02*
D03*
X2467794Y3554357D02*
D03*
X2388269Y3553748D02*
D03*
X2308805Y3556937D02*
D03*
X2430393Y3377000D02*
D03*
X2509756Y3382109D02*
D03*
X3139106Y3556937D02*
D03*
X3059643Y3553748D02*
D03*
X2980118Y3554357D02*
D03*
X2980232Y3377454D02*
D03*
X2039884Y3135906D02*
D03*
X3019884Y3315906D02*
D03*
X1531417Y1270748D02*
D03*
X1511417Y1760748D02*
D03*
X1496417Y1690748D02*
D03*
X1416417D02*
D03*
X516417Y1390748D02*
D03*
X581417Y1755748D02*
D03*
X506417Y1790748D02*
D03*
X604264Y1685489D02*
D03*
X576417Y1490748D02*
D03*
X631417Y1470748D02*
D03*
X856417Y1390748D02*
D03*
X631417Y1405748D02*
D03*
X636417Y1330748D02*
D03*
X861417Y1320748D02*
D03*
X1331417Y1385748D02*
D03*
X1519792Y1355290D02*
D03*
Y1434818D02*
D03*
X1070646Y1676906D02*
D03*
X991453Y1684200D02*
D03*
X938940Y1508478D02*
D03*
X1018235Y1514558D02*
D03*
X1097430Y1507296D02*
D03*
X771417Y1700748D02*
D03*
X686417Y1695748D02*
D03*
X861417Y1450748D02*
D03*
X859904Y1507296D02*
D03*
X894058Y1682997D02*
D03*
X1333433Y1684654D02*
D03*
X1253905D02*
D03*
X1175809Y1669632D02*
D03*
X1173097Y1525785D02*
D03*
X1250445Y1507296D02*
D03*
X1329970Y1507906D02*
D03*
X1326417Y1450748D02*
D03*
X733307Y2307638D02*
D03*
X548307Y2747638D02*
D03*
X538307Y2532638D02*
D03*
X1235707Y2710299D02*
D03*
X1315234D02*
D03*
X1394762D02*
D03*
X1474290D02*
D03*
X1125492Y2723774D02*
D03*
X1016555Y2719401D02*
D03*
X1048307Y2527638D02*
D03*
X978307D02*
D03*
X919798Y2333479D02*
D03*
X1008307Y2332638D02*
D03*
X1079320Y2348474D02*
D03*
X815649Y2348551D02*
D03*
X771482Y2719436D02*
D03*
X815649Y2533551D02*
D03*
X915492Y2723774D02*
D03*
X1119855Y2289145D02*
D03*
X1123179Y2209687D02*
D03*
X1123924Y2130163D02*
D03*
X1119855Y2050739D02*
D03*
X1296759Y2060299D02*
D03*
X1295917Y2139822D02*
D03*
X1287556Y2218909D02*
D03*
X1297213Y2297849D02*
D03*
Y2377376D02*
D03*
X1298886Y2456886D02*
D03*
X1320031Y2533551D02*
D03*
X1399558D02*
D03*
X1479086D02*
D03*
X601232Y2710299D02*
D03*
X541902Y2455585D02*
D03*
X543005Y2376065D02*
D03*
Y2296537D02*
D03*
X667050Y2709174D02*
D03*
X391721Y2026446D02*
D03*
X943307Y2072638D02*
D03*
X2702798Y2901358D02*
D03*
X3012798Y2613740D02*
D03*
X3207798Y2683740D02*
D03*
X3232798Y2973740D02*
D03*
X3217798Y2893740D02*
D03*
X2142798Y2973740D02*
D03*
X2272798Y2953740D02*
D03*
X2277798Y2603740D02*
D03*
X2362798D02*
D03*
X2307798Y2888740D02*
D03*
X2417798D02*
D03*
X2437798Y2684615D02*
D03*
X2527798D02*
D03*
X2512798Y2888740D02*
D03*
X2802798Y2684615D02*
D03*
X2606967Y2888740D02*
D03*
X2604654Y2684615D02*
D03*
X2712798D02*
D03*
X2872798D02*
D03*
X2791541Y2888740D02*
D03*
X3147798D02*
D03*
X3067798D02*
D03*
X2974130D02*
D03*
X2887798D02*
D03*
X2957798Y2684615D02*
D03*
X3157798Y2608740D02*
D03*
X2187798Y2578740D02*
D03*
X1504606Y725748D02*
D03*
X1449606Y720748D02*
D03*
X1474606Y910748D02*
D03*
X1254549Y904374D02*
D03*
X1334076Y904358D02*
D03*
X1399606Y910748D02*
D03*
X1389606Y720748D02*
D03*
X1173347Y688185D02*
D03*
X1494606Y445748D02*
D03*
X1164606Y460748D02*
D03*
X1020698Y904665D02*
D03*
X1164606Y540748D02*
D03*
Y610748D02*
D03*
X625680Y908366D02*
D03*
X564606Y720748D02*
D03*
X444606Y1025748D02*
D03*
X514606Y1020748D02*
D03*
X766798Y531726D02*
D03*
Y611254D02*
D03*
X590676Y595679D02*
D03*
X589895Y516156D02*
D03*
Y436628D02*
D03*
X774606Y455748D02*
D03*
X1354606Y470748D02*
D03*
Y530748D02*
D03*
X1354872Y595077D02*
D03*
X1354606Y405748D02*
D03*
X1358783Y671494D02*
D03*
X1175021Y904488D02*
D03*
X1095495Y904967D02*
D03*
X943024Y903952D02*
D03*
X863829Y896691D02*
D03*
X784733Y904967D02*
D03*
X705208Y904358D02*
D03*
X559606Y925748D02*
D03*
X584606Y660748D02*
D03*
X769606Y675748D02*
D03*
X804552Y728064D02*
D03*
X884079Y728331D02*
D03*
X961237Y708962D02*
D03*
X1046351Y706556D02*
D03*
X1121570Y703456D02*
D03*
X415591Y3690118D02*
D03*
X1510591Y3397500D02*
D03*
X1417264Y3585118D02*
D03*
X1510591D02*
D03*
X565591Y3390118D02*
D03*
X1570591Y3685118D02*
D03*
X1290591Y3395118D02*
D03*
X790591Y3180118D02*
D03*
Y3100118D02*
D03*
X595591Y3130118D02*
D03*
Y3210118D02*
D03*
X1510591Y3235118D02*
D03*
Y3154203D02*
D03*
X1290591Y3049445D02*
D03*
X1510591D02*
D03*
X1290591Y3185003D02*
D03*
Y3305118D02*
D03*
X1015591Y3585118D02*
D03*
X970591Y3395118D02*
D03*
X1099975D02*
D03*
X1150591Y3585118D02*
D03*
X595591Y3315118D02*
D03*
X790591Y3310118D02*
D03*
X1290591Y3585118D02*
D03*
X1195591Y3395118D02*
D03*
X1510591Y3320118D02*
D03*
X560591Y3610118D02*
D03*
X790591Y3380118D02*
D03*
X865591Y3395118D02*
D03*
X891016Y3585118D02*
D03*
X797138D02*
D03*
X710591D02*
D03*
X635591D02*
D03*
X1400591Y2935118D02*
D03*
X690591Y2930118D02*
D03*
%TF.MD5,fde8ca7faff9948e86b5f4e926631653*%
M02*
