M48
;Layer_Color=9474304
;FILE_FORMAT=2:5
INCH,LZ
T2F00S00C0.00600
%
G90
G05
T02
G00X0524174Y0337298
M15
G01X0524213Y0337263
G01X0526112Y0337416
G01X0527965Y0337865
G01X0529724Y0338597
G01X0531348Y0339596
G01X0532795Y0340837
G01X053403Y0342289
G01X0535022Y0343916
G01X0535748Y0345678
G01X053619Y0347533
G01X0536336Y0349386
G01X05363Y0349424
G01X05363Y0477702
G01X0536336Y047774
G01X0536182Y047964
G01X0535734Y0481492
G01X0535001Y0483252
G01X0534002Y0484875
G01X0532761Y0486322
G01X053131Y0487557
G01X0529682Y048855
G01X052792Y0489276
G01X0526066Y0489717
G01X0524189Y0489864
G01X0459826Y0489828
G01X0459787Y0489863
G01X0457888Y048971
G01X0456035Y0489261
G01X0454276Y0488529
G01X0452652Y048753
G01X0451205Y0486289
G01X044997Y0484837
G01X0448978Y048321
G01X0448252Y0481448
G01X044781Y0479593
G01X0447664Y047774
G01X04477Y0477702
G01X04477Y0349424
G01X0447664Y0349386
G01X0447818Y0347486
G01X0448266Y0345634
G01X0448999Y0343874
G01X0449998Y0342251
G01X0451239Y0340804
G01X045269Y0339569
G01X0454318Y0338576
G01X045608Y033785
G01X0457934Y0337409
G01X0459811Y0337262
G01X0524174Y0337298
M16
M17
M30
