M48
;Layer_Color=9474304
;FILE_FORMAT=2:5
INCH,LZ
T1F00S00C0.00600
%
G90
G05
T01
G00X0453013Y0109271
M15
G01X045484Y0111358
G01X0456379Y0113665
G01X0457603Y0116154
G01X0458492Y0118781
G01X0459031Y0121502
G01X045921Y012427
G01X0459026Y0127037
G01X0458482Y0129757
G01X0457588Y0132382
G01X0456359Y0134869
G01X0454816Y0137174
G01X0453013Y0139229
G01X0452756Y0139238
G01X0452756Y01393
G01X0359468Y0139332
G01X0359243Y0139229
G01X0357416Y0137142
G01X0355877Y0134835
G01X0354653Y0132346
G01X0353764Y0129719
G01X0353225Y0126998
G01X0353046Y012423
G01X035323Y0121463
G01X0353774Y0118743
G01X0354668Y0116118
G01X0355897Y0113631
G01X035744Y0111326
G01X0359243Y0109271
G01X03595Y0109262
G01X03595Y01092
G01X0452787Y0109168
G01X0453013Y0109271
M16
M17
M30
