M48
;Layer_Color=9474304
;FILE_FORMAT=2:5
INCH,LZ
;TYPE=PLATED
T1F00S00C0.02800
;TYPE=NON_PLATED
%
T01
X01855Y03205
X01945Y0323
X0203
X02105Y0331087
X02195
X0227186
X0238
X0247
X0254
X02625
X0268Y0324
X02825Y03235
X02875Y0331
X02885Y0352
X02815Y03515
X02735
X0264133
X02555
X0245874
X0237Y0352762
X0227417Y03515
X0218
X02085
X01975
X0194Y0358
X0181Y036
X029
M30
