M48
;Layer_Color=9474304
;FILE_FORMAT=2:5
INCH,LZ
T2F00S00C0.00600
%
G90
G05
T02
G00X0305457Y0306787
M15
G01X0305496Y0306751
G01X0307396Y0306904
G01X0309248Y0307353
G01X0311008Y0308086
G01X0312631Y0309085
G01X0314078Y0310325
G01X0315313Y0311777
G01X0316306Y0313404
G01X0317032Y0315167
G01X0317473Y0317021
G01X031762Y0318898
G01X0317584Y0354174
G01X0317619Y0354213
G01X0317466Y0356112
G01X0317017Y0357965
G01X0316284Y0359724
G01X0315285Y0361348
G01X0314045Y0362795
G01X0312593Y036403
G01X0310966Y0365022
G01X0309204Y0365748
G01X0307349Y036619
G01X0305472Y0366336
G01X017718Y03663
G01X0177142Y0366336
G01X0175242Y0366182
G01X0173389Y0365734
G01X017163Y0365001
G01X0170007Y0364002
G01X016856Y0362761
G01X0167325Y036131
G01X0166332Y0359682
G01X0165606Y035792
G01X0165165Y0356066
G01X0165018Y0354189
G01X0165054Y0318913
G01X0165019Y0318874
G01X0165172Y0316974
G01X016562Y0315122
G01X0166353Y0313362
G01X0167352Y0311739
G01X0168593Y0310292
G01X0170045Y0309057
G01X0171672Y0308064
G01X0173434Y0307338
G01X0175288Y0306897
G01X0177165Y030675
G01X0305457Y0306787
M16
M17
M30
