M48
;Layer_Color=9474304
;FILE_FORMAT=2:5
INCH,LZ
;TYPE=PLATED
T1F00S00C0.02800
;TYPE=NON_PLATED
%
T01
X0184841Y0207381
X019997Y023439
Y0242343
X0199859Y0250295
X01995Y0258
X02005Y02795
X0205792Y0275766
X0212374Y0275654
X0222817Y027668
X0237218Y0277114
X0247325Y0276676
X0258219Y0277114
X026924Y0275766
X0277193
X0285145
X0293098
X0293578Y0258091
X0285625
X0277672
X0275558Y0250425
X0275391Y0242474
Y0234521
X0274425Y0226627
X0275261Y0218719
X0275345Y0210766
X0257655Y020981
X0258062Y0217753
X0257987Y0225705
X0257655Y0233651
X0253601Y0239584
X02465Y0238
X0237649Y0238084
X0227234Y0239591
X0219Y02355
X0227234Y0258091
X02435Y02575
X02505
X024Y0212
M30
