M48
;Layer_Color=9474304
;FILE_FORMAT=2:5
INCH,LZ
;TYPE=PLATED
T1F00S00C0.02800
;TYPE=NON_PLATED
%
T01
X01855Y01345
X0197Y0136
Y01425
X01915Y01445
X01975Y01285
X022Y01275
X02195Y01345
X022Y01405
X0219849Y0146155
X0227752Y0146273
X0235682Y0146881
X0243601Y0146155
X0251168Y0148004
X0258903Y0146155
X0266855Y0146216
X02665Y01405
X0267Y0134
X0285837Y0130954
Y0138907
X0287Y01225
X02835Y01645
X02755
X0267201Y0163891
X0259249
X0251439Y0162388
X0240923Y0163116
X0233004Y0163845
X0223264Y0163725
X0211Y01655
X02025Y0165
X0194285Y0163974
X0192Y0171
X01845Y01745
X0285Y01715
M30
