M48
;Layer_Color=9474304
;FILE_FORMAT=2:5
INCH,LZ
T2F00S00C0.00600
%
G90
G05
T02
G00X0431057Y0334463
M15
G01X043291Y0334912
G01X0434669Y0335645
G01X0436292Y0336644
G01X0437739Y0337884
G01X0438975Y0339336
G01X0439967Y0340963
G01X0440693Y0342726
G01X0441135Y034458
G01X044128Y0346433
G01X0441245Y0346472
G01X044128Y0474787
G01X0441127Y0476687
G01X0440679Y047854
G01X0439946Y0480299
G01X0438947Y0481922
G01X0437706Y0483369
G01X0436254Y0484604
G01X0434627Y0485597
G01X0432865Y0486323
G01X0431011Y0486765
G01X0429157Y048691
G01X0429119Y0486875
G01X0381866Y048691
G01X0379966Y0486757
G01X0378114Y0486309
G01X0376354Y0485576
G01X0374731Y0484577
G01X0373284Y0483336
G01X0372049Y0481884
G01X0371056Y0480257
G01X037033Y0478495
G01X0369889Y0476641
G01X0369743Y0474787
G01X0369779Y0474749
G01X0369743Y0346433
G01X0369896Y0344533
G01X0370345Y0342681
G01X0371078Y0340921
G01X0372077Y0339298
G01X0373317Y0337851
G01X0374769Y0336616
G01X0376396Y0335623
G01X0378159Y0334897
G01X0380013Y0334456
G01X0381866Y033431
G01X0381905Y0334346
G01X0429157Y033431
G01X0431057Y0334463
M16
M17
M30
