M48
;Layer_Color=9474304
;FILE_FORMAT=2:5
INCH,LZ
T2F00S00C0.00600
%
G90
G05
T02
G00X0313332Y0193011
M15
G01X031337Y0192975
G01X031527Y0193129
G01X0317122Y0193577
G01X0318882Y019431
G01X0320505Y0195309
G01X0321952Y019655
G01X0323187Y0198001
G01X032418Y0199629
G01X0324906Y0201391
G01X0325347Y0203245
G01X0325494Y0205122
G01X0325458Y0277674
G01X0325493Y0277712
G01X032534Y0279612
G01X0324891Y0281465
G01X0324158Y0283224
G01X0323159Y0284848
G01X0321919Y0286295
G01X0320467Y028753
G01X031884Y0288522
G01X0317078Y0289248
G01X0315223Y028969
G01X0313346Y0289837
G01X0185054Y02898
G01X0185016Y0289836
G01X0183116Y0289682
G01X0181263Y0289234
G01X0179504Y0288501
G01X0177881Y0287502
G01X0176434Y0286261
G01X0175199Y028481
G01X0174206Y0283182
G01X017348Y028142
G01X0173039Y0279566
G01X0172892Y0277689
G01X0172928Y0205137
G01X0172893Y0205099
G01X0173046Y0203199
G01X0173495Y0201346
G01X0174227Y0199587
G01X0175226Y0197963
G01X0176467Y0196516
G01X0177919Y0195281
G01X0179546Y0194289
G01X0181308Y0193563
G01X0183162Y0193121
G01X0185039Y0192974
G01X0313332Y0193011
M16
M17
M30
