M48
;Layer_Color=9474304
;FILE_FORMAT=2:5
INCH,LZ
T2F00S00C0.00600
%
G90
G05
T02
G00X0307042Y0381707
M15
G01X0308894Y0382156
G01X0310654Y0382889
G01X0312277Y0383888
G01X0313724Y0385128
G01X0314959Y038658
G01X0315952Y0388207
G01X0316678Y038997
G01X0317119Y0391824
G01X0317266Y0393701
G01X0317229Y0458674
G01X0317265Y0458713
G01X0317112Y0460612
G01X0316663Y0462465
G01X031593Y0464224
G01X0314931Y0465848
G01X031369Y0467295
G01X0312239Y046853
G01X0310612Y0469522
G01X0308849Y0470248
G01X0306995Y047069
G01X0305142Y0470836
G01X0305103Y04708
G01X0176826Y04708
G01X0176787Y0470836
G01X0174888Y0470682
G01X0173035Y0470234
G01X0171276Y0469501
G01X0169652Y0468502
G01X0168205Y0467261
G01X016697Y046581
G01X0165978Y0464182
G01X0165252Y046242
G01X016481Y0460566
G01X0164663Y0458689
G01X01647Y0393716
G01X0164664Y0393677
G01X0164818Y0391777
G01X0165266Y0389925
G01X0165999Y0388165
G01X0166998Y0386542
G01X0168239Y0385095
G01X016969Y038386
G01X0171318Y0382867
G01X017308Y0382141
G01X0174934Y03817
G01X0176787Y0381554
G01X0176826Y038159
G01X0305103Y038159
G01X0305142Y0381554
G01X0307042Y0381707
M16
M17
M30
