M48
;Layer_Color=9474304
;FILE_FORMAT=2:5
INCH,LZ
;TYPE=PLATED
T1F00S00C0.02800
;TYPE=NON_PLATED
%
T01
X02065Y03875
X02165Y04045
Y04125
Y04255
Y04325
X0224Y0434
X02345
X0247439
X0257
X02665
Y0425
Y0412989
Y0399433
X02885
Y0409908
Y0418
Y04265
Y0434238
Y0453
X0279167
X02665
X02525
X0239
X0226542
X0217155
X02085
X0201
X01935Y04555
X0179Y04635
X0194Y04335
X0197Y0426
Y04155
Y04075
X02775Y0388
X02945Y0463
M30
