M48
;Layer_Color=9474304
;FILE_FORMAT=2:5
INCH,LZ
;TYPE=PLATED
T1F00S00C0.02800
;TYPE=NON_PLATED
%
T01
X0453Y03545
X04535Y03615
X0463Y0366
X0464738Y0372607
X0465139Y038056
X0465078Y0388513
X0465906Y0396422
X046518Y0404342
X0465108Y0412109
X0465078Y0419589
X0465126Y0427541
X0465137Y0435494
X0465139Y0443447
X04645Y045
Y04575
X0483Y04605
X04835Y0455
Y0449
X0488425Y0445918
X0496067Y0445527
X05025Y04455
X05085
X0515
X0511Y04595
X05095Y04265
X05015
X04945
X0486756Y0427374
X0485229Y0422196
X0484919Y0414675
X0484679Y0406163
X0482742Y0398447
X0482768Y0390494
X0488Y0387
X0494449Y0386719
X0502402
X051Y03875
X0511912Y0369029
X0503959
X0496007Y0369107
X04895Y03685
X04835Y03665
M30
