M48
;Layer_Color=9474304
;FILE_FORMAT=2:5
INCH,LZ
T2F00S00C0.00600
%
G90
G05
T02
G00X0303459Y0105818
M15
G01X0305311Y0106266
G01X0307071Y0106999
G01X0308694Y0107998
G01X0310141Y0109239
G01X0311376Y011069
G01X0312369Y0112318
G01X0313095Y011408
G01X0313536Y0115934
G01X0313682Y0117787
G01X0313646Y0117826
G01X0313682Y0169713
G01X0313529Y0171612
G01X031308Y0173465
G01X0312347Y0175224
G01X0311348Y0176848
G01X0310108Y0178295
G01X0308656Y017953
G01X0307029Y0180522
G01X0305267Y0181248
G01X0303412Y018169
G01X0301559Y0181836
G01X030152Y01818
G01X0173243Y01818
G01X0173205Y0181836
G01X0171305Y0181682
G01X0169452Y0181234
G01X0167693Y0180501
G01X016607Y0179502
G01X0164623Y0178261
G01X0163388Y017681
G01X0162395Y0175182
G01X0161669Y017342
G01X0161228Y0171566
G01X0161082Y0169713
G01X0161117Y0169674
G01X0161082Y0117787
G01X0161235Y0115888
G01X0161684Y0114035
G01X0162416Y0112276
G01X0163415Y0110652
G01X0164656Y0109205
G01X0166108Y010797
G01X0167735Y0106978
G01X0169497Y0106252
G01X0171351Y010581
G01X0173205Y0105664
G01X0173243Y01057
G01X030152Y01057
G01X0301559Y0105664
G01X0303459Y0105818
M16
M17
M30
