M48
;Layer_Color=9474304
;FILE_FORMAT=2:5
INCH,LZ
T1F00S00C0.00600
%
G90
G05
T01
G00X0356746Y0178635
M15
G01X0357365Y0179254
G01X03577Y0180062
G01X03577Y0180938
G01X0357365Y0181746
G01X0356746Y0182365
G01X0355938Y01827
G01X0355062Y01827
G01X0354254Y0182365
G01X0353635Y0181746
G01X03533Y0180938
G01X03533Y0180062
G01X0353635Y0179254
G01X0354254Y0178635
G01X0355062Y01783
G01X0355938Y01783
G01X0356746Y0178635
M16
G00X0493624Y0141761
M15
G01X0495181Y0143342
G01X0498024Y014672
G01X0500594Y015031
G01X0502873Y0154091
G01X0504849Y0158039
G01X0506509Y016213
G01X0507843Y0166338
G01X0508843Y0170638
G01X0509502Y0175003
G01X0509816Y0179407
G01X0509785Y0183822
G01X0509407Y018822
G01X0508685Y0192576
G01X0507623Y0196861
G01X0506229Y020105
G01X050451Y0205116
G01X0502477Y0209035
G01X0500143Y0212783
G01X0497523Y0216336
G01X0494632Y0219672
G01X0493068Y0221214
G01X0492858Y02213
G01X0359Y02213
G01X0358786Y0221211
G01X0357229Y021963
G01X0354386Y0216252
G01X0351817Y0212662
G01X0349537Y0208881
G01X0347561Y0204933
G01X0345901Y0200842
G01X0344567Y0196634
G01X0343568Y0192334
G01X0342908Y0187969
G01X0342594Y0183565
G01X0342626Y017915
G01X0343004Y0174752
G01X0343726Y0170396
G01X0344787Y0166111
G01X0346182Y0161922
G01X03479Y0157856
G01X0349933Y0153937
G01X0352267Y0150189
G01X0354888Y0146636
G01X0357779Y01433
G01X0359342Y0141758
G01X0359553Y0141672
G01X049341Y0141672
G01X0493624Y0141761
M16
M17
M30
