M48
;Layer_Color=9474304
;FILE_FORMAT=2:5
INCH,LZ
;TYPE=PLATED
T1F00S00C0.02800
;TYPE=NON_PLATED
%
T01
X03855Y03625
X0390397Y0366892
X0390716Y0374838
X0390655Y0382791
X0392062Y0388757
X0390663Y0396585
X0390655Y0404538
Y0412491
X0391015Y0420436
X0390655Y0434023
X0390716Y0441976
X0390397Y0449922
X03885Y0457
X0419Y04605
X04185Y0466
X04215Y04375
X04145Y0438
X0408345Y0434035
X0408159Y0427923
X0407733Y0419982
X0408299Y041205
X04095Y0404
X041Y0396
X040788Y0386987
X0408391Y0379051
X042332Y0378725
X0419945Y0358636
X0410591Y0361008
X04325Y034
X0381Y0473
M30
