M48
;Layer_Color=9474304
;FILE_FORMAT=2:5
INCH,LZ
T1F00S00C0.00600
%
G90
G05
T01
G00X0355392Y0262003
M15
G01X0356053Y0262277
G01X0356649Y0262675
G01X0357156Y0263182
G01X0357554Y0263777
G01X0357828Y0264439
G01X0357968Y0265142
G01X0357968Y0265858
G01X0357828Y0266561
G01X0357554Y0267223
G01X0357156Y0267818
G01X0356649Y0268325
G01X0356053Y0268723
G01X0355392Y0268997
G01X0354689Y0269137
G01X0353972Y0269137
G01X035327Y0268997
G01X0352608Y0268723
G01X0352012Y0268325
G01X0351506Y0267818
G01X0351108Y0267223
G01X0350833Y0266561
G01X0350694Y0265858
G01X0350694Y0265142
G01X0350833Y0264439
G01X0351108Y0263777
G01X0351506Y0263182
G01X0352012Y0262675
G01X0352608Y0262277
G01X035327Y0262003
G01X0353972Y0261863
G01X0354689Y0261863
G01X0355392Y0262003
M16
G00X0493858Y02257
M15
G01X0493858Y0225776
G01X0494093Y0225783
G01X0496607Y0228504
G01X0499339Y0231971
G01X050179Y0235641
G01X0503946Y0239492
G01X0505793Y0243501
G01X050732Y0247642
G01X0508517Y025189
G01X0509377Y0256219
G01X0509895Y0260602
G01X0510067Y0265012
G01X0509893Y0269422
G01X0509373Y0273805
G01X0508511Y0278133
G01X0507312Y0282381
G01X0505784Y0286521
G01X0503935Y0290529
G01X0501778Y0294379
G01X0499325Y0298048
G01X0496592Y0301514
G01X0493596Y0304754
G01X0493076Y0305234
G01X0492872Y0305314
G01X0359Y03053
G01X0359Y0305224
G01X0358766Y0305217
G01X0356251Y0302496
G01X0353519Y0299029
G01X0351068Y0295359
G01X0348912Y0291508
G01X0347065Y0287499
G01X0345539Y0283358
G01X0344342Y027911
G01X0343481Y0274781
G01X0342964Y0270398
G01X0342791Y0265988
G01X0342965Y0261578
G01X0343485Y0257195
G01X0344347Y0252867
G01X0345546Y0248619
G01X0347074Y0244479
G01X0348923Y0240471
G01X035108Y0236621
G01X0353533Y0232952
G01X0356266Y0229486
G01X0359263Y0226246
G01X0359783Y0225766
G01X0359986Y0225686
G01X0493858Y02257
M16
M17
M30
