M48
;Layer_Color=9474304
;FILE_FORMAT=2:5
INCH,LZ
T2F00S00C0.00600
%
G90
G05
T02
G00X0210804Y0199665
M15
G01X0211411Y0199917
G01X0211958Y0200282
G01X0212423Y0200747
G01X0212788Y0201293
G01X0213039Y0201901
G01X0213168Y0202545
G01X0213168Y0203203
G01X0213039Y0203847
G01X0212788Y0204455
G01X0212423Y0205001
G01X0211958Y0205466
G01X0211411Y0205831
G01X0210804Y0206083
G01X0210159Y0206211
G01X0209502Y0206211
G01X0208857Y0206083
G01X020825Y0205831
G01X0207704Y0205466
G01X0207239Y0205001
G01X0206874Y0204455
G01X0206622Y0203847
G01X0206494Y0203203
G01X0206494Y0202545
G01X0206622Y0201901
G01X0206874Y0201293
G01X0207239Y0200747
G01X0207704Y0200282
G01X020825Y0199917
G01X0208857Y0199665
G01X0209502Y0199537
G01X0210159Y0199537
G01X0210804Y0199665
M16
G00X0198335Y0349499
M15
G01X0198336Y0364211
G01X0198363Y0365012
G01X0198573Y0366582
G01X0198985Y0368112
G01X0199594Y0369574
G01X0200388Y0370944
G01X0201354Y03722
G01X0202476Y0373318
G01X0203734Y037428
G01X0205107Y037507
G01X0206571Y0375673
G01X0208102Y0376081
G01X0209663Y0376285
G01X0210445Y037631
G01X0223Y037631
G01X0223001Y0376311
G01X0223001Y0376311
G01X0223002Y0376312
G01X0223002Y0376312
G01X0223001Y0376313
G01X0223001Y0376313
G01X0223Y0376313
G01X0209651Y0376313
G01X0208077Y0376106
G01X0206543Y0375695
G01X0205076Y0375088
G01X0203701Y0374294
G01X0202442Y0373327
G01X0201319Y0372204
G01X0200352Y0370945
G01X0199558Y036957
G01X0198951Y0368103
G01X019854Y0366569
G01X0198332Y0364995
G01X0198332Y0349499
G01X0198333Y0349498
G01X0198335Y0349498
G01X0198335Y0349499
M16
G00X0287001Y0376311
M15
G01X0287001Y0376311
G01X0287002Y0376312
G01X0287002Y0376312
G01X0287001Y0376313
G01X0287001Y0376313
G01X0287Y0376313
G01X0234999Y0376313
G01X0234998Y0376313
G01X0234998Y0376311
G01X0234999Y037631
G01X0287Y037631
G01X0287001Y0376311
M16
G00X0350865Y0349499
M15
G01X0350865Y0364995
G01X0350658Y0366569
G01X0350247Y0368103
G01X0349639Y036957
G01X0348845Y0370945
G01X0347878Y0372204
G01X0346756Y0373327
G01X0345496Y0374294
G01X0344121Y0375088
G01X0342654Y0375695
G01X034112Y0376106
G01X0339546Y0376313
G01X0298999Y0376313
G01X0298998Y0376313
G01X0298998Y0376311
G01X0298999Y037631
G01X0338762Y037631
G01X0339564Y0376283
G01X0341134Y0376073
G01X0342663Y0375661
G01X0344125Y0375052
G01X0345496Y0374258
G01X0346751Y0373292
G01X0347869Y037217
G01X0348831Y0370912
G01X0349621Y0369539
G01X0350225Y0368074
G01X0350632Y0366544
G01X0350836Y0364983
G01X0350862Y0364201
G01X0350862Y0349499
G01X0350863Y0349498
G01X0350864Y0349498
G01X0350865Y0349499
M16
G00X034112Y0305051
M15
G01X0342654Y0305462
G01X0344121Y030607
G01X0345496Y0306864
G01X0346756Y030783
G01X0347878Y0308953
G01X0348845Y0310213
G01X0349639Y0311588
G01X0350247Y0313055
G01X0350658Y0314589
G01X0350865Y0316163
G01X0350865Y0337501
G01X0350864Y0337502
G01X0350863Y0337502
G01X0350862Y0337501
G01X0350862Y0316947
G01X0350834Y0316145
G01X0350625Y0314575
G01X0350212Y0313046
G01X0349604Y0311583
G01X034881Y0310213
G01X0347843Y0308958
G01X0346721Y030784
G01X0345463Y0306878
G01X034409Y0306088
G01X0342626Y0305484
G01X0341095Y0305077
G01X0339534Y0304872
G01X0338752Y0304847
G01X0298999Y0304847
G01X0298998Y0304846
G01X0298998Y0304845
G01X0298999Y0304844
G01X0339546Y0304844
G01X034112Y0305051
M16
G00X0350865Y0282499
M15
G01X0350865Y0292357
G01X0350658Y0293931
G01X0350247Y0295465
G01X0349639Y0296932
G01X0348845Y0298307
G01X0347878Y0299567
G01X0346756Y0300689
G01X0345496Y0301656
G01X0344121Y030245
G01X0342654Y0303057
G01X034112Y0303468
G01X0339546Y0303676
G01X0298999Y0303676
G01X0298998Y0303675
G01X0298998Y0303673
G01X0298999Y0303673
G01X0338762Y0303672
G01X0339564Y0303645
G01X0341134Y0303435
G01X0342663Y0303023
G01X0344125Y0302415
G01X0345496Y030162
G01X0346751Y0300654
G01X0347869Y0299532
G01X0348831Y0298274
G01X0349621Y0296901
G01X0350225Y0295437
G01X0350632Y0293906
G01X0350836Y0292345
G01X0350862Y0291563
G01X0350862Y0282499
G01X0350863Y0282498
G01X0350864Y0282498
G01X0350865Y0282499
M16
G00X0287001Y0303673
M15
G01X0287001Y0303673
G01X0287002Y0303674
G01X0287002Y0303674
G01X0287001Y0303675
G01X0287001Y0303675
G01X0287Y0303676
G01X0234999Y0303676
G01X0234998Y0303675
G01X0234998Y0303673
G01X0234999Y0303673
G01X0287Y0303673
G01X0287001Y0303673
M16
G00X0287001Y0304844
M15
G01X0287001Y0304845
G01X0287002Y0304845
G01X0287002Y0304846
G01X0287001Y0304846
G01X0287001Y0304847
G01X0287Y0304847
G01X0234999Y0304847
G01X0234998Y0304846
G01X0234998Y0304845
G01X0234999Y0304844
G01X0287Y0304844
G01X0287001Y0304844
M16
G00X0223001Y0304844
M15
G01X0223001Y0304845
G01X0223002Y0304845
G01X0223002Y0304846
G01X0223001Y0304846
G01X0223001Y0304847
G01X0223Y0304847
G01X0210435Y0304847
G01X0209634Y0304875
G01X0208064Y0305084
G01X0206534Y0305497
G01X0205072Y0306105
G01X0203701Y0306899
G01X0202446Y0307866
G01X0201328Y0308987
G01X0200366Y0310246
G01X0199576Y0311619
G01X0198972Y0313083
G01X0198565Y0314614
G01X0198361Y0316174
G01X0198335Y0316957
G01X0198335Y0337501
G01X0198335Y0337502
G01X0198333Y0337502
G01X0198332Y0337501
G01X0198332Y0316163
G01X019854Y0314589
G01X0198951Y0313055
G01X0199558Y0311588
G01X0200352Y0310213
G01X0201319Y0308953
G01X0202442Y030783
G01X0203701Y0306864
G01X0205076Y030607
G01X0206543Y0305462
G01X0208077Y0305051
G01X0209651Y0304844
G01X0223Y0304844
G01X0223001Y0304844
M16
G00X0198335Y0282499
M15
G01X0198336Y0291573
G01X0198363Y0292375
G01X0198573Y0293945
G01X0198985Y0295474
G01X0199594Y0296936
G01X0200388Y0298307
G01X0201354Y0299562
G01X0202476Y030068
G01X0203734Y0301642
G01X0205107Y0302432
G01X0206571Y0303036
G01X0208102Y0303443
G01X0209663Y0303647
G01X0210445Y0303673
G01X0223Y0303673
G01X0223001Y0303673
G01X0223001Y0303673
G01X0223002Y0303674
G01X0223002Y0303674
G01X0223001Y0303675
G01X0223001Y0303675
G01X0223Y0303676
G01X0209651Y0303676
G01X0208077Y0303468
G01X0206543Y0303057
G01X0205076Y030245
G01X0203701Y0301656
G01X0202442Y0300689
G01X0201319Y0299567
G01X0200352Y0298307
G01X0199558Y0296932
G01X0198951Y0295465
G01X019854Y0293931
G01X0198332Y0292357
G01X0198332Y0282499
G01X0198333Y0282498
G01X0198335Y0282498
G01X0198335Y0282499
M16
G00X0223001Y0244159
M15
G01X0223001Y024416
G01X0223002Y024416
G01X0223002Y0244161
G01X0223001Y0244161
G01X0223001Y0244162
G01X0223Y0244162
G01X0210435Y0244162
G01X0209634Y024419
G01X0208064Y0244399
G01X0206534Y0244812
G01X0205072Y024542
G01X0203701Y0246214
G01X0202446Y0247181
G01X0201328Y0248302
G01X0200366Y0249561
G01X0199576Y0250934
G01X0198972Y0252398
G01X0198565Y0253929
G01X0198361Y0255489
G01X0198335Y0256272
G01X0198335Y0270501
G01X0198335Y0270502
G01X0198333Y0270502
G01X0198332Y0270501
G01X0198332Y0255478
G01X019854Y0253904
G01X0198951Y025237
G01X0199558Y0250903
G01X0200352Y0249528
G01X0201319Y0248268
G01X0202442Y0247145
G01X0203701Y0246179
G01X0205076Y0245385
G01X0206543Y0244777
G01X0208077Y0244366
G01X0209651Y0244159
G01X0223Y0244159
G01X0223001Y0244159
M16
G00X0287001Y0244159
M15
G01X0287001Y024416
G01X0287002Y024416
G01X0287002Y0244161
G01X0287001Y0244161
G01X0287001Y0244162
G01X0287Y0244162
G01X0234999Y0244162
G01X0234998Y0244161
G01X0234998Y024416
G01X0234999Y0244159
G01X0287Y0244159
G01X0287001Y0244159
M16
G00X034112Y0244366
M15
G01X0342654Y0244777
G01X0344121Y0245385
G01X0345496Y0246179
G01X0346756Y0247145
G01X0347878Y0248268
G01X0348845Y0249528
G01X0349639Y0250903
G01X0350247Y025237
G01X0350658Y0253904
G01X0350865Y0255478
G01X0350865Y0270501
G01X0350864Y0270502
G01X0350863Y0270502
G01X0350862Y0270501
G01X0350862Y0256262
G01X0350834Y025546
G01X0350625Y025389
G01X0350212Y0252361
G01X0349604Y0250898
G01X034881Y0249528
G01X0347843Y0248273
G01X0346721Y0247155
G01X0345463Y0246192
G01X034409Y0245403
G01X0342626Y0244799
G01X0341095Y0244392
G01X0339534Y0244187
G01X0338752Y0244162
G01X0298999Y0244162
G01X0298998Y0244161
G01X0298998Y024416
G01X0298999Y0244159
G01X0339546Y0244159
G01X034112Y0244366
M16
G00X0223001Y0242673
M15
G01X0223001Y0242673
G01X0223002Y0242674
G01X0223002Y0242674
G01X0223001Y0242675
G01X0223001Y0242675
G01X0223Y0242676
G01X0214499Y0242676
G01X0214498Y0242675
G01X0214498Y0242674
G01X0214499Y0242673
G01X0223Y0242673
G01X0223001Y0242673
M16
G00X0287001Y0242673
M15
G01X0287001Y0242673
G01X0287002Y0242674
G01X0287002Y0242674
G01X0287001Y0242675
G01X0287001Y0242675
G01X0287Y0242676
G01X0234999Y0242676
G01X0234998Y0242675
G01X0234998Y0242674
G01X0234999Y0242673
G01X0287Y0242673
G01X0287001Y0242673
M16
G00X0349448Y0163084
M15
G01X0349503Y0163108
G01X0349553Y0163142
G01X0350837Y0164459
G01X0353191Y0167206
G01X0355363Y01701
G01X0357345Y0173128
G01X0359127Y0176276
G01X0360704Y0179533
G01X0362067Y0182884
G01X0363212Y0186316
G01X0364134Y0189815
G01X0364828Y0193366
G01X0365293Y0196954
G01X0365526Y0200565
G01X0365526Y0204242
G01X0365277Y0207971
G01X0364782Y0211675
G01X0364041Y0215337
G01X0363059Y0218943
G01X0361839Y0222475
G01X0360387Y0225918
G01X035871Y0229257
G01X0356814Y0232477
G01X0354709Y0235564
G01X0352403Y0238505
G01X0349907Y0241286
G01X0348548Y024261
G01X0348499Y0242642
G01X0348445Y0242664
G01X0348387Y0242676
G01X0298999Y0242676
G01X0298998Y0242675
G01X0298998Y0242674
G01X0298999Y0242673
G01X0348358Y0242673
G01X0348571Y0242584
G01X034989Y0241253
G01X0352384Y0238474
G01X0354688Y0235535
G01X0356792Y0232449
G01X0358685Y0229231
G01X0360361Y0225893
G01X0361811Y0222452
G01X0363029Y0218922
G01X036401Y0215319
G01X036475Y0211659
G01X0365244Y0207957
G01X0365492Y0204236
G01X0365523Y0202369
G01X0365493Y0200556
G01X036526Y0196948
G01X0364795Y0193362
G01X03641Y0189814
G01X0363178Y0186317
G01X0362034Y0182887
G01X0360671Y0179538
G01X0359095Y0176284
G01X0357313Y0173137
G01X0355332Y0170112
G01X0353161Y0167221
G01X0350812Y0164479
G01X0349577Y0163171
G01X0349359Y0163077
G01X0298999Y0163075
G01X0298998Y0163075
G01X0298998Y0163073
G01X0298999Y0163072
G01X0349388Y0163072
G01X0349448Y0163084
M16
G00X0349359Y0163073
M15
G01X034936Y0163073
G01X034936Y0163074
G01X034936Y0163074
G01X034936Y0163075
G01X0349359Y0163075
G01X0349359Y0163075
G01X0298999Y0163075
G01X0298998Y0163075
G01X0298998Y0163073
G01X0298999Y0163072
G01X0349359Y0163072
G01X0349359Y0163073
M16
G00X0287001Y0163073
M15
G01X0287001Y0163073
G01X0287002Y0163074
G01X0287002Y0163074
G01X0287001Y0163075
G01X0287001Y0163075
G01X0287Y0163075
G01X0234999Y0163075
G01X0234998Y0163075
G01X0234998Y0163073
G01X0234999Y0163072
G01X0287Y0163072
G01X0287001Y0163073
M16
G00X0223001Y0163073
M15
G01X0223001Y0163073
G01X0223002Y0163074
G01X0223002Y0163074
G01X0223001Y0163075
G01X0223001Y0163075
G01X0223Y0163075
G01X0215499Y0163075
G01X0215498Y0163075
G01X0215498Y0163073
G01X0215499Y0163072
G01X0223Y0163072
G01X0223001Y0163073
M16
G00X0198518Y0124999
M15
G01X0198653Y0126866
G01X0199314Y0131233
G01X0200315Y0135532
G01X0201651Y0139739
G01X0203312Y0143828
G01X020529Y0147775
G01X0207572Y0151556
G01X0210142Y0155144
G01X0212988Y0158522
G01X0214527Y0160083
G01X0214741Y0160173
G01X0223Y0160173
G01X0223001Y0160173
G01X0223001Y0160173
G01X0223002Y0160174
G01X0223002Y0160174
G01X0223001Y0160175
G01X0223001Y0160175
G01X0223Y0160176
G01X021471Y0160176
G01X0214651Y0160164
G01X0214596Y0160141
G01X0214546Y0160107
G01X021296Y0158496
G01X0210117Y0155116
G01X0207549Y0151527
G01X0205271Y0147746
G01X0203295Y0143795
G01X0201636Y0139705
G01X0200303Y0135494
G01X0199304Y0131196
G01X0198651Y0126878
G01X0198515Y0124999
G01X0198516Y0124999
G01X0198517Y0124998
G01X0198518Y0124999
M16
G00X0287001Y0160173
M15
G01X0287001Y0160173
G01X0287002Y0160174
G01X0287002Y0160174
G01X0287001Y0160175
G01X0287001Y0160175
G01X0287Y0160176
G01X0234999Y0160176
G01X0234998Y0160175
G01X0234998Y0160174
G01X0234999Y0160173
G01X0287Y0160173
G01X0287001Y0160173
M16
G00X0348599Y0160175
M15
G01X0348599Y0160175
G01X0348599Y0160175
G01X0348598Y0160175
G01X0348598Y0160176
G01X0348598Y0160176
G01X0298999Y0160176
G01X0298998Y0160175
G01X0298998Y0160174
G01X0298999Y0160173
G01X0348598Y0160172
G01X0348613Y0160166
G01X0348599Y0160175
M16
G00X0348782Y0160099
M15
G01X0348626Y0160164
G01X0348624Y0160161
G01X0348781Y0160097
G01X0348782Y0160099
M16
G00X0350372Y0158546
M15
G01X0350372Y0158547
G01X0350372Y0158547
G01X0350372Y0158548
G01X0350372Y0158548
G01X0350372Y0158548
G01X034881Y0160088
G01X034881Y0160088
G01X034881Y0160088
G01X0348809Y0160088
G01X0348809Y0160088
G01X0348809Y0160088
G01X0348795Y0160091
G01X0348808Y0160086
G01X035037Y0158546
G01X0350371Y0158546
G01X0350372Y0158546
M16
G00X0353264Y0155208
M15
G01X0353264Y0155209
G01X0353264Y015521
G01X0353264Y015521
G01X0353264Y015521
G01X0353264Y0155211
G01X0350389Y015853
G01X0350387Y015853
G01X0350386Y015853
G01X0350386Y0158528
G01X0353262Y0155208
G01X0353263Y0155208
G01X0353264Y0155208
M16
G00X0355885Y0151656
M15
G01X0355885Y0151656
G01X0355885Y0151657
G01X0355885Y0151657
G01X0355885Y0151657
G01X0355885Y0151658
G01X0353279Y0155193
G01X0353277Y0155193
G01X0353276Y0155192
G01X0353276Y0155191
G01X0355883Y0151656
G01X0355884Y0151655
G01X0355885Y0151656
M16
G00X0358218Y0147909
M15
G01X0358218Y014791
G01X0358218Y014791
G01X0358218Y0147911
G01X0358218Y0147911
G01X0358218Y0147911
G01X0355898Y0151638
G01X0355897Y0151638
G01X0355896Y0151637
G01X0355896Y0151636
G01X0358216Y0147909
G01X0358217Y0147909
G01X0358218Y0147909
M16
G00X036025Y014399
M15
G01X0360251Y014399
G01X0360251Y0143991
G01X0360251Y0143991
G01X0360251Y0143991
G01X0360251Y0143992
G01X035823Y0147889
G01X0358229Y014789
G01X0358228Y0147889
G01X0358228Y0147888
G01X0360248Y014399
G01X0360249Y0143989
G01X036025Y014399
M16
G00X036197Y0139922
M15
G01X036197Y0139923
G01X036197Y0139924
G01X036197Y0139924
G01X036197Y0139924
G01X036197Y0139924
G01X0360261Y014397
G01X036026Y0143971
G01X0360259Y014397
G01X0360258Y0143969
G01X0361968Y0139923
G01X0361969Y0139922
G01X036197Y0139922
M16
G00X0363364Y0135734
M15
G01X0363364Y0135734
G01X0363363Y0135741
G01X0361978Y0139903
G01X0361977Y0139903
G01X0361976Y0139903
G01X0361975Y0139902
G01X0363362Y0135734
G01X0363363Y0135733
G01X0363364Y0135734
M16
G00X0364425Y0131449
M15
G01X0364425Y0131453
G01X0364425Y0131455
G01X0363371Y0135713
G01X036337Y0135714
G01X0363369Y0135713
G01X0363368Y0135712
G01X0364423Y0131449
G01X0364424Y0131448
G01X0364425Y0131449
M16
G00X0365147Y0127093
M15
G01X0365148Y0127093
G01X0364431Y0131427
G01X036443Y0131428
G01X0364429Y0131428
G01X0364428Y0131427
G01X0365145Y0127094
G01X0365146Y0127093
G01X0365147Y0127093
M16
G00X0365328Y0124999
M15
G01X0365151Y012707
G01X036515Y0127071
G01X0365149Y0127071
G01X0365148Y012707
G01X0365326Y0124999
G01X0365327Y0124998
G01X0365328Y0124999
M16
G00X0215082Y0080632
M15
G01X0215083Y0080633
G01X0215083Y0080634
G01X0215082Y0080634
G01X0215082Y0080634
G01X0215082Y0080634
G01X0213504Y0082192
G01X0210614Y008553
G01X0208008Y0089065
G01X0208006Y0089065
G01X0208005Y0089064
G01X0208005Y0089063
G01X0210634Y0085501
G01X0213527Y0082164
G01X021508Y0080632
G01X0215081Y0080632
G01X0215082Y0080632
M16
G00X0207994Y0089082
M15
G01X0207994Y0089083
G01X0207994Y0089084
G01X0207994Y0089084
G01X0207994Y0089084
G01X0207994Y0089084
G01X0205663Y0092831
G01X0203632Y0096751
G01X0201923Y0100797
G01X0201922Y0100798
G01X0201921Y0100797
G01X020192Y0100796
G01X0203624Y0096761
G01X0205679Y0092799
G01X0207992Y0089082
G01X0207993Y0089082
G01X0207994Y0089082
M16
G00X0201914Y0100817
M15
G01X0201914Y0100817
G01X0201913Y0100825
G01X0200522Y0105008
G01X0199462Y0109294
G01X0198849Y0113001
G01X0198848Y0113002
G01X0198846Y0113001
G01X0198846Y0113
G01X0199458Y0109305
G01X0200529Y0104973
G01X0201912Y0100817
G01X0201913Y0100817
G01X0201914Y0100817
M16
G00X0223001Y0080545
M15
G01X0223001Y0080545
G01X0223002Y0080546
G01X0223002Y0080546
G01X0223001Y0080547
G01X0223001Y0080547
G01X0223Y0080547
G01X0215292Y0080547
G01X0215291Y0080547
G01X0215291Y0080545
G01X0215292Y0080544
G01X0223Y0080544
G01X0223001Y0080545
M16
G00X0349239Y0080556
M15
G01X0349295Y0080579
G01X0349344Y0080613
G01X035093Y0082224
G01X0353774Y0085604
G01X0356341Y0089193
G01X035862Y0092975
G01X0360596Y0096925
G01X0362255Y0101015
G01X0363588Y0105226
G01X0364586Y0109524
G01X0365111Y0113001
G01X036511Y0113002
G01X0365109Y0113001
G01X0364576Y0109487
G01X0363575Y0105188
G01X0362239Y0100981
G01X0360578Y0096892
G01X0358601Y0092945
G01X0356319Y0089164
G01X0353749Y0085576
G01X0350904Y0082199
G01X0349362Y0080637
G01X0349149Y0080547
G01X0298999Y0080547
G01X0298998Y0080547
G01X0298998Y0080545
G01X0298999Y0080544
G01X034918Y0080544
G01X0349239Y0080556
M16
G00X0287001Y0080545
M15
G01X0287001Y0080545
G01X0287002Y0080546
G01X0287002Y0080546
G01X0287001Y0080547
G01X0287001Y0080547
G01X0287Y0080547
G01X0234999Y0080547
G01X0234998Y0080547
G01X0234998Y0080545
G01X0234999Y0080544
G01X0287Y0080544
G01X0287001Y0080545
M16
G00X0287001Y0079169
M15
G01X0287001Y0079169
G01X0287002Y007917
G01X0287002Y007917
G01X0287001Y0079171
G01X0287001Y0079171
G01X0287Y0079172
G01X0234999Y0079172
G01X0234998Y0079171
G01X0234998Y007917
G01X0234999Y0079169
G01X0287Y0079169
G01X0287001Y0079169
M16
G00X0310083Y004908
M15
G01X0310138Y0049103
G01X0310188Y0049136
G01X0310944Y0049892
G01X0312263Y0051499
G01X0313418Y0053228
G01X0314398Y0055062
G01X0315194Y0056982
G01X0315797Y0058972
G01X0316203Y0061011
G01X0316407Y0063081
G01X0316407Y006516
G01X0316203Y0067229
G01X0315797Y0069268
G01X0315194Y0071258
G01X0314398Y0073179
G01X0313418Y0075012
G01X0312263Y0076741
G01X0310944Y0078348
G01X0310188Y0079104
G01X0310138Y0079137
G01X0310084Y007916
G01X0310025Y0079172
G01X0298999Y0079172
G01X0298998Y0079171
G01X0298998Y007917
G01X0298999Y0079169
G01X0309995Y0079169
G01X0310212Y0079076
G01X0310934Y0078316
G01X031225Y007671
G01X0313402Y0074983
G01X0314379Y0073152
G01X0315172Y0071233
G01X0315773Y0069246
G01X0316177Y006721
G01X0316379Y0065151
G01X0316404Y0064113
G01X0316377Y0063067
G01X0316172Y0061001
G01X0315766Y0058966
G01X0315162Y0056979
G01X0314366Y0055062
G01X0313386Y0053232
G01X0312232Y0051506
G01X0310919Y0049907
G01X0310214Y0049166
G01X0309996Y0049073
G01X0298999Y0049071
G01X0298998Y0049071
G01X0298998Y0049069
G01X0298999Y0049068
G01X0310025Y0049068
G01X0310083Y004908
M16
G00X0310083Y0017584
M15
G01X0310138Y0017607
G01X0310188Y001764
G01X0310944Y0018396
G01X0312263Y0020003
G01X0313418Y0021732
G01X0314398Y0023566
G01X0315194Y0025486
G01X0315797Y0027476
G01X0316203Y0029515
G01X0316407Y0031584
G01X0316407Y0033664
G01X0316203Y0035733
G01X0315797Y0037772
G01X0315194Y0039762
G01X0314398Y0041682
G01X0313418Y0043516
G01X0312263Y0045245
G01X0310944Y0046852
G01X0310188Y0047608
G01X0310138Y0047641
G01X0310084Y0047664
G01X0310025Y0047676
G01X0298999Y0047676
G01X0298998Y0047675
G01X0298998Y0047673
G01X0298999Y0047673
G01X0309995Y0047673
G01X0310212Y0047579
G01X0310934Y004682
G01X031225Y0045214
G01X0313402Y0043487
G01X0314379Y0041656
G01X0315172Y0039737
G01X0315773Y003775
G01X0316177Y0035714
G01X0316379Y0033655
G01X0316404Y0032617
G01X0316377Y0031571
G01X0316172Y0029505
G01X0315766Y002747
G01X0315162Y0025483
G01X0314366Y0023566
G01X0313386Y0021736
G01X0312232Y002001
G01X0310919Y0018411
G01X0310214Y001767
G01X0309996Y0017577
G01X0298999Y0017575
G01X0298998Y0017575
G01X0298998Y0017573
G01X0298999Y0017572
G01X0310025Y0017572
G01X0310083Y0017584
M16
G00X0287001Y0017573
M15
G01X0287001Y0017573
G01X0287002Y0017574
G01X0287002Y0017574
G01X0287001Y0017575
G01X0287001Y0017575
G01X0287Y0017575
G01X0234999Y0017575
G01X0234998Y0017575
G01X0234998Y0017573
G01X0234999Y0017572
G01X0287Y0017572
G01X0287001Y0017573
M16
G00X0287001Y0049069
M15
G01X0287001Y0049069
G01X0287002Y004907
G01X0287002Y004907
G01X0287001Y0049071
G01X0287001Y0049071
G01X0287Y0049071
G01X0234999Y0049071
G01X0234998Y0049071
G01X0234998Y0049069
G01X0234999Y0049068
G01X0287Y0049068
G01X0287001Y0049069
M16
G00X0223001Y0049069
M15
G01X0223001Y0049069
G01X0223002Y004907
G01X0223002Y004907
G01X0223001Y0049071
G01X0223001Y0049071
G01X0223Y0049071
G01X0216739Y0049073
G01X021652Y0049168
G01X0215568Y0050186
G01X0213886Y0052383
G01X0212505Y0054781
G01X0211448Y0057339
G01X0210735Y0060012
G01X0210376Y0062756
G01X0210379Y0065523
G01X0210742Y0068266
G01X0211461Y0070939
G01X0212522Y0073494
G01X0213908Y0075889
G01X0215587Y0078076
G01X0216521Y0079074
G01X021674Y0079169
G01X0223Y0079169
G01X0223001Y0079169
G01X0223001Y0079169
G01X0223002Y007917
G01X0223002Y007917
G01X0223001Y0079171
G01X0223001Y0079171
G01X0223Y0079172
G01X021671Y0079172
G01X0216652Y007916
G01X0216597Y0079137
G01X0216547Y0079104
G01X0215546Y0078103
G01X0213857Y0075902
G01X021247Y0073499
G01X0211408Y0070937
G01X021069Y0068257
G01X0210328Y0065507
G01X0210328Y0062733
G01X021069Y0059983
G01X0211408Y0057303
G01X021247Y0054741
G01X0213857Y0052338
G01X0215546Y0050138
G01X0216547Y0049136
G01X0216597Y0049103
G01X0216652Y004908
G01X021671Y0049068
G01X0223Y0049068
G01X0223001Y0049069
M16
G00X0287001Y0047673
M15
G01X0287001Y0047673
G01X0287002Y0047674
G01X0287002Y0047674
G01X0287001Y0047675
G01X0287001Y0047675
G01X0287Y0047676
G01X0234999Y0047676
G01X0234998Y0047675
G01X0234998Y0047673
G01X0234999Y0047673
G01X0287Y0047673
G01X0287001Y0047673
M16
G00X0223001Y0017573
M15
G01X0223001Y0017573
G01X0223002Y0017574
G01X0223002Y0017574
G01X0223001Y0017575
G01X0223001Y0017575
G01X0223Y0017575
G01X0216739Y0017577
G01X021652Y0017672
G01X0215568Y001869
G01X0213886Y0020887
G01X0212505Y0023285
G01X0211448Y0025843
G01X0210735Y0028516
G01X0210376Y003126
G01X0210379Y0034027
G01X0210742Y003677
G01X0211461Y0039443
G01X0212522Y0041998
G01X0213908Y0044393
G01X0215587Y004658
G01X0216521Y0047578
G01X021674Y0047673
G01X0223Y0047673
G01X0223001Y0047673
G01X0223001Y0047673
G01X0223002Y0047674
G01X0223002Y0047674
G01X0223001Y0047675
G01X0223001Y0047675
G01X0223Y0047676
G01X021671Y0047676
G01X0216652Y0047664
G01X0216597Y0047641
G01X0216547Y0047608
G01X0215546Y0046607
G01X0213857Y0044406
G01X021247Y0042003
G01X0211408Y0039441
G01X021069Y0036761
G01X0210328Y0034011
G01X0210328Y0031237
G01X021069Y0028487
G01X0211408Y0025807
G01X021247Y0023245
G01X0213857Y0020842
G01X0215546Y0018641
G01X0216547Y001764
G01X0216597Y0017607
G01X0216652Y0017584
G01X021671Y0017572
G01X0223Y0017572
G01X0223001Y0017573
M16
G00X0168474Y0019273
M15
G01X0170048Y0019481
G01X0171582Y0019892
G01X0173048Y00205
G01X0174423Y0021294
G01X0175682Y0022261
G01X0176804Y0023383
G01X0177771Y0024643
G01X0178564Y0026018
G01X0179172Y0027485
G01X0179583Y0029018
G01X017979Y0030592
G01X017979Y0057001
G01X0179789Y0057002
G01X0179788Y0057002
G01X0179787Y0057001
G01X0179787Y0031376
G01X0179759Y0030574
G01X017955Y0029005
G01X0179137Y0027475
G01X0178529Y0026013
G01X0177735Y0024643
G01X0176769Y0023388
G01X0175647Y002227
G01X017439Y0021308
G01X0173017Y0020518
G01X0171553Y0019914
G01X0170022Y0019506
G01X0168462Y0019302
G01X0167677Y0019276
G01X0149499Y0019276
G01X0149498Y0019275
G01X0149498Y0019274
G01X0149499Y0019273
G01X0168474Y0019273
M16
G00X0137501Y0019273
M15
G01X0137501Y0019274
G01X0137502Y0019274
G01X0137502Y0019275
G01X0137501Y0019276
G01X0137501Y0019276
G01X01375Y0019276
G01X0056999Y0019276
G01X0056998Y0019275
G01X0056998Y0019274
G01X0056999Y0019273
G01X01375Y0019273
G01X0137501Y0019273
M16
G00X0045Y0019273
M15
G01X0045001Y0019273
G01X0045001Y0019274
G01X0045002Y0019274
G01X0045002Y0019275
G01X0045001Y0019276
G01X0045001Y0019276
G01X0045Y0019276
G01X003936Y0019276
G01X0038556Y0019304
G01X0036986Y0019514
G01X0035457Y0019926
G01X0033995Y0020535
G01X0032625Y0021329
G01X003137Y0022296
G01X0030252Y0023417
G01X002929Y0024676
G01X0028501Y0026048
G01X0027897Y0027513
G01X002749Y0029043
G01X0027286Y0030604
G01X002726Y0031386
G01X002726Y0057001
G01X002726Y0057002
G01X0027258Y0057002
G01X0027257Y0057001
G01X0027257Y0030592
G01X0027465Y0029018
G01X0027876Y0027484
G01X0028483Y0026017
G01X0029277Y0024642
G01X0030244Y0023382
G01X0031366Y002226
G01X0032626Y0021293
G01X0034001Y0020499
G01X0035468Y0019891
G01X0037002Y001948
G01X0038576Y0019273
G01X0045Y0019273
M16
G00X002726Y0155999
M15
G01X0027261Y0174274
G01X0027288Y0175078
G01X0027498Y0176647
G01X002791Y0178176
G01X0028519Y0179638
G01X0029313Y0181008
G01X0030279Y0182263
G01X0031401Y0183381
G01X0032658Y0184343
G01X0034031Y0185132
G01X0035495Y0185736
G01X0037025Y0186144
G01X0038586Y0186348
G01X0039368Y0186373
G01X0045Y0186373
G01X0045001Y0186374
G01X0045001Y0186374
G01X0045002Y0186375
G01X0045002Y0186375
G01X0045001Y0186376
G01X0045001Y0186376
G01X0045Y0186376
G01X0038576Y0186376
G01X0037002Y0186169
G01X0035469Y0185758
G01X0034002Y0185151
G01X0032627Y0184357
G01X0031368Y0183391
G01X0030245Y0182269
G01X0029278Y0181009
G01X0028484Y0179635
G01X0027877Y0178168
G01X0027465Y0176635
G01X0027258Y0175061
G01X0027257Y0155999
G01X0027258Y0155998
G01X002726Y0155998
G01X002726Y0155999
M16
G00X002726Y0068999
M15
G01X0027261Y0095774
G01X0027288Y0096575
G01X0027498Y0098145
G01X002791Y0099674
G01X0028518Y0101136
G01X0029312Y0102507
G01X0030278Y0103762
G01X00314Y010488
G01X0032658Y0105842
G01X003403Y0106632
G01X0035494Y0107236
G01X0037025Y0107643
G01X0038586Y0107848
G01X003937Y0107873
G01X0045Y0107873
G01X0045001Y0107874
G01X0045001Y0107874
G01X0045002Y0107875
G01X0045002Y0107875
G01X0045001Y0107876
G01X0045001Y0107876
G01X0045Y0107876
G01X0038573Y0107876
G01X0036999Y0107669
G01X0035466Y0107257
G01X0033999Y0106649
G01X0032624Y0105855
G01X0031365Y0104889
G01X0030243Y0103766
G01X0029276Y0102506
G01X0028483Y0101132
G01X0027875Y0099665
G01X0027465Y0098131
G01X0027257Y0096558
G01X0027257Y0068999
G01X0027258Y0068998
G01X002726Y0068998
G01X002726Y0068999
M16
G00X002726Y0122385
M15
G01X002726Y0144001
G01X002726Y0144002
G01X0027258Y0144002
G01X0027257Y0144001
G01X0027257Y0122385
G01X0027258Y0122384
G01X002726Y0122384
G01X002726Y0122385
M16
G00X0039371Y0110273
M15
G01X0039371Y0110274
G01X0039372Y0110274
G01X0039372Y0110275
G01X0039371Y0110276
G01X0039371Y0110276
G01X003937Y0110276
G01X003936Y0110276
G01X0038559Y0110304
G01X0036989Y0110513
G01X003546Y0110926
G01X0033997Y0111534
G01X0032627Y0112328
G01X0031372Y0113294
G01X0030254Y0114416
G01X0029292Y0115673
G01X0028502Y0117046
G01X0027898Y011851
G01X002749Y0120041
G01X0027286Y0121601
G01X002726Y0122383
G01X002726Y0122384
G01X002726Y0122385
G01X0027258Y0122385
G01X0027257Y0122384
G01X0027258Y012159
G01X0027465Y0120016
G01X0027876Y0118482
G01X0028484Y0117015
G01X0029278Y0115641
G01X0030245Y0114381
G01X0031367Y0113259
G01X0032627Y0112292
G01X0034002Y0111499
G01X0035469Y0110891
G01X0037002Y011048
G01X0038576Y0110273
G01X003937Y0110273
G01X0039371Y0110273
M16
G00X0045001Y0110273
M15
G01X0045001Y0110274
G01X0045002Y0110274
G01X0045002Y0110275
G01X0045001Y0110276
G01X0045001Y0110276
G01X0045Y0110276
G01X0039369Y0110276
G01X0039369Y0110275
G01X0039369Y0110274
G01X0039369Y0110273
G01X0045Y0110273
G01X0045001Y0110273
M16
G00X017979Y0068999
M15
G01X017979Y0096558
G01X0179583Y0098132
G01X0179172Y0099666
G01X0178564Y0101133
G01X017777Y0102508
G01X0176803Y0103767
G01X0175681Y010489
G01X0174421Y0105857
G01X0173046Y0106651
G01X0171579Y0107258
G01X0170045Y0107669
G01X0168471Y0107876
G01X0149499Y0107876
G01X0149498Y0107876
G01X0149498Y0107874
G01X0149499Y0107873
G01X0167687Y0107873
G01X0168491Y0107845
G01X0170061Y0107636
G01X017159Y0107223
G01X0173052Y0106615
G01X0174422Y010582
G01X0175677Y0104854
G01X0176795Y0103732
G01X0177757Y0102474
G01X0178546Y0101101
G01X017915Y0099637
G01X0179557Y0098107
G01X0179761Y0096546
G01X0179787Y0095764
G01X0179787Y0068999
G01X0179788Y0068998
G01X0179789Y0068998
G01X017979Y0068999
M16
G00X0137501Y0107874
M15
G01X0137501Y0107874
G01X0137502Y0107875
G01X0137502Y0107875
G01X0137501Y0107876
G01X0137501Y0107876
G01X01375Y0107876
G01X0056999Y0107876
G01X0056998Y0107876
G01X0056998Y0107874
G01X0056999Y0107873
G01X01375Y0107873
G01X0137501Y0107874
M16
G00X01375Y0110273
M15
G01X0137501Y0110273
G01X0137501Y0110274
G01X0137502Y0110274
G01X0137502Y0110275
G01X0137501Y0110276
G01X0137501Y0110276
G01X01375Y0110276
G01X0056999Y0110276
G01X0056998Y0110275
G01X0056998Y0110274
G01X0056999Y0110273
G01X01375Y0110273
M16
G00X0170045Y011048
M15
G01X0171579Y0110891
G01X0173046Y0111499
G01X0174421Y0112293
G01X0175681Y011326
G01X0176803Y0114382
G01X017777Y0115642
G01X0178564Y0117017
G01X0179172Y0118484
G01X0179583Y0120018
G01X017979Y0121592
G01X017979Y0144001
G01X0179789Y0144002
G01X0179788Y0144002
G01X0179787Y0144001
G01X0179787Y0122376
G01X0179759Y0121574
G01X017955Y0120005
G01X0179137Y0118475
G01X0178529Y0117013
G01X0177735Y0115643
G01X0176769Y0114388
G01X0175647Y011327
G01X017439Y0112308
G01X0173017Y0111518
G01X0171553Y0110914
G01X0170022Y0110506
G01X0168462Y0110302
G01X0167677Y0110276
G01X0149499Y0110276
G01X0149498Y0110275
G01X0149498Y0110274
G01X0149499Y0110273
G01X0168471Y0110273
G01X0170045Y011048
M16
G00X017979Y0155999
M15
G01X017979Y0175058
G01X0179583Y0176632
G01X0179172Y0178166
G01X0178564Y0179633
G01X017777Y0181008
G01X0176803Y0182267
G01X0175681Y018339
G01X0174421Y0184357
G01X0173046Y0185151
G01X0171579Y0185758
G01X0170045Y0186169
G01X0168471Y0186376
G01X0149499Y0186376
G01X0149498Y0186376
G01X0149498Y0186374
G01X0149499Y0186373
G01X0167687Y0186373
G01X0168489Y0186346
G01X0170059Y0186136
G01X0171588Y0185724
G01X017305Y0185115
G01X0174421Y0184321
G01X0175676Y0183355
G01X0176794Y0182233
G01X0177756Y0180975
G01X0178546Y0179602
G01X017915Y0178138
G01X0179557Y0176607
G01X0179761Y0175046
G01X0179787Y0174264
G01X0179787Y0155999
G01X0179788Y0155998
G01X0179789Y0155998
G01X017979Y0155999
M16
G00X01375Y0186373
M15
G01X0137501Y0186374
G01X0137501Y0186374
G01X0137502Y0186375
G01X0137502Y0186375
G01X0137501Y0186376
G01X0137501Y0186376
G01X01375Y0186376
G01X0056999Y0186376
G01X0056998Y0186376
G01X0056998Y0186374
G01X0056999Y0186373
G01X01375Y0186373
M16
G00X0045001Y0188273
M15
G01X0045001Y0188274
G01X0045002Y0188274
G01X0045002Y0188275
G01X0045001Y0188276
G01X0045001Y0188276
G01X0045Y0188276
G01X003936Y0188276
G01X0038559Y0188304
G01X0036988Y0188513
G01X0035459Y0188926
G01X0033997Y0189534
G01X0032626Y0190328
G01X0031371Y0191295
G01X0030253Y0192417
G01X0029291Y0193675
G01X0028501Y0195048
G01X0027897Y0196512
G01X002749Y0198043
G01X0027286Y0199604
G01X002726Y0200386
G01X002726Y0233501
G01X002726Y0233502
G01X0027258Y0233502
G01X0027257Y0233501
G01X0027257Y0199592
G01X0027465Y0198018
G01X0027876Y0196484
G01X0028483Y0195017
G01X0029277Y0193642
G01X0030244Y0192382
G01X0031366Y019126
G01X0032626Y0190293
G01X0034001Y0189499
G01X0035468Y0188891
G01X0037002Y018848
G01X0038576Y0188273
G01X0045Y0188273
G01X0045001Y0188273
M16
G00X01375Y0188273
M15
G01X0137501Y0188273
G01X0137501Y0188274
G01X0137502Y0188274
G01X0137502Y0188275
G01X0137501Y0188276
G01X0137501Y0188276
G01X01375Y0188276
G01X0056999Y0188276
G01X0056998Y0188275
G01X0056998Y0188274
G01X0056999Y0188273
G01X01375Y0188273
M16
G00X0170045Y018848
M15
G01X0171579Y0188891
G01X0173046Y0189499
G01X0174421Y0190293
G01X0175681Y019126
G01X0176803Y0192382
G01X017777Y0193642
G01X0178564Y0195017
G01X0179172Y0196484
G01X0179583Y0198018
G01X017979Y0199592
G01X017979Y0233501
G01X0179789Y0233502
G01X0179788Y0233502
G01X0179787Y0233501
G01X0179787Y0200376
G01X0179759Y0199574
G01X017955Y0198005
G01X0179137Y0196475
G01X0178529Y0195013
G01X0177735Y0193643
G01X0176769Y0192388
G01X0175647Y019127
G01X017439Y0190308
G01X0173017Y0189518
G01X0171553Y0188914
G01X0170022Y0188506
G01X0168462Y0188302
G01X0167677Y0188276
G01X0149499Y0188276
G01X0149498Y0188275
G01X0149498Y0188274
G01X0149499Y0188273
G01X0168471Y0188273
G01X0170045Y018848
M16
G00X017979Y0245499
M15
G01X017979Y0273747
G01X0179583Y0275321
G01X0179172Y0276855
G01X0178564Y0278322
G01X017777Y0279697
G01X0176803Y0280956
G01X0175681Y0282079
G01X0174421Y0283046
G01X0173046Y028384
G01X0171579Y0284447
G01X0170045Y0284858
G01X0168471Y0285065
G01X0149499Y0285065
G01X0149498Y0285064
G01X0149498Y0285063
G01X0149499Y0285062
G01X0167687Y0285062
G01X0168489Y0285034
G01X0170059Y0284825
G01X0171588Y0284413
G01X017305Y0283804
G01X0174421Y028301
G01X0175676Y0282044
G01X0176794Y0280922
G01X0177756Y0279664
G01X0178546Y0278291
G01X017915Y0276826
G01X0179557Y0275296
G01X0179761Y0273735
G01X0179787Y0272953
G01X0179787Y0245499
G01X0179788Y0245498
G01X0179789Y0245498
G01X017979Y0245499
M16
G00X01375Y0285062
M15
G01X0137501Y0285063
G01X0137501Y0285063
G01X0137502Y0285064
G01X0137502Y0285064
G01X0137501Y0285065
G01X0137501Y0285065
G01X01375Y0285065
G01X0056999Y0285065
G01X0056998Y0285064
G01X0056998Y0285063
G01X0056999Y0285062
G01X01375Y0285062
M16
G00X002726Y0245499
M15
G01X0027261Y0272963
G01X0027288Y0273764
G01X0027498Y0275334
G01X002791Y0276863
G01X0028518Y0278325
G01X0029312Y0279696
G01X0030278Y0280951
G01X00314Y0282069
G01X0032658Y0283031
G01X003403Y0283821
G01X0035494Y0284425
G01X0037025Y0284832
G01X0038586Y0285037
G01X003937Y0285062
G01X0045Y0285062
G01X0045001Y0285063
G01X0045001Y0285063
G01X0045002Y0285064
G01X0045002Y0285064
G01X0045001Y0285065
G01X0045001Y0285065
G01X0045Y0285065
G01X0038576Y0285065
G01X0037002Y0284858
G01X0035468Y0284447
G01X0034001Y028384
G01X0032626Y0283046
G01X0031366Y0282079
G01X0030244Y0280956
G01X0029277Y0279697
G01X0028483Y0278322
G01X0027876Y0276855
G01X0027465Y0275321
G01X0027257Y0273747
G01X0027257Y0245499
G01X0027258Y0245498
G01X002726Y0245498
G01X002726Y0245499
M16
G00X0045001Y02871
M15
G01X0045001Y0287101
G01X0045002Y0287101
G01X0045002Y0287102
G01X0045001Y0287102
G01X0045001Y0287103
G01X0045Y0287103
G01X0039369Y0287103
G01X0039369Y0287102
G01X0039369Y0287101
G01X0039369Y02871
G01X0045Y02871
G01X0045001Y02871
M16
G00X0039367Y02871
M15
G01X0039368Y0287101
G01X0039368Y0287101
G01X0039368Y0287102
G01X0039368Y0287102
G01X0039367Y0287103
G01X0039367Y0287103
G01X0039357Y0287103
G01X0038555Y0287131
G01X0036986Y0287341
G01X0035457Y0287753
G01X0033995Y0288362
G01X0032625Y0289156
G01X0031371Y0290122
G01X0030253Y0291244
G01X0029291Y0292501
G01X0028502Y0293874
G01X0027898Y0295338
G01X002749Y0296868
G01X0027286Y0298428
G01X002726Y029921
G01X002726Y0299211
G01X002726Y0299212
G01X0027258Y0299212
G01X0027257Y0299211
G01X0027258Y0298416
G01X0027465Y0296843
G01X0027876Y029531
G01X0028484Y0293843
G01X0029277Y0292469
G01X0030244Y0291209
G01X0031366Y0290087
G01X0032625Y028912
G01X0034Y0288327
G01X0035466Y0287719
G01X0036999Y0287308
G01X0038573Y02871
G01X0039367Y02871
G01X0039367Y02871
M16
G00X002726Y0299212
M15
G01X002726Y0327001
G01X002726Y0327002
G01X0027258Y0327002
G01X0027257Y0327001
G01X0027257Y0299212
G01X0027258Y0299211
G01X002726Y0299211
G01X002726Y0299212
M16
G00X017979Y0338999
M15
G01X017979Y0364995
G01X0179583Y0366569
G01X0179172Y0368103
G01X0178564Y036957
G01X017777Y0370945
G01X0176803Y0372204
G01X0175681Y0373327
G01X0174421Y0374294
G01X0173046Y0375088
G01X0171579Y0375695
G01X0170045Y0376106
G01X0168471Y0376313
G01X0149499Y0376313
G01X0149498Y0376313
G01X0149498Y0376311
G01X0149499Y037631
G01X0167687Y037631
G01X0168491Y0376282
G01X0170061Y0376073
G01X017159Y037566
G01X0173052Y0375052
G01X0174422Y0374257
G01X0175677Y0373291
G01X0176795Y0372169
G01X0177757Y0370911
G01X0178546Y0369538
G01X017915Y0368074
G01X0179557Y0366544
G01X0179761Y0364983
G01X0179787Y0364201
G01X0179787Y0338999
G01X0179788Y0338998
G01X0179789Y0338998
G01X017979Y0338999
M16
G00X0168474Y02871
M15
G01X0170048Y0287308
G01X0171582Y0287719
G01X0173048Y0288327
G01X0174423Y0289121
G01X0175682Y0290088
G01X0176804Y029121
G01X0177771Y029247
G01X0178564Y0293845
G01X0179172Y0295311
G01X0179583Y0296845
G01X017979Y0298419
G01X017979Y0327001
G01X0179789Y0327002
G01X0179788Y0327002
G01X0179787Y0327001
G01X0179787Y0299203
G01X0179759Y0298401
G01X017955Y0296831
G01X0179137Y0295302
G01X0178529Y029384
G01X0177735Y029247
G01X0176769Y0291215
G01X0175647Y0290097
G01X017439Y0289134
G01X0173017Y0288344
G01X0171553Y0287741
G01X0170022Y0287333
G01X0168462Y0287129
G01X0167677Y0287103
G01X0149499Y0287103
G01X0149498Y0287102
G01X0149498Y0287101
G01X0149499Y02871
G01X0168474Y02871
M16
G00X0137501Y02871
M15
G01X0137501Y0287101
G01X0137502Y0287101
G01X0137502Y0287102
G01X0137501Y0287102
G01X0137501Y0287103
G01X01375Y0287103
G01X0056999Y0287103
G01X0056998Y0287102
G01X0056998Y0287101
G01X0056999Y02871
G01X01375Y02871
G01X0137501Y02871
M16
G00X002726Y0338999
M15
G01X0027261Y0364211
G01X0027288Y0365012
G01X0027498Y0366582
G01X002791Y0368111
G01X0028518Y0369573
G01X0029312Y0370944
G01X0030278Y0372199
G01X00314Y0373317
G01X0032658Y0374279
G01X003403Y0375069
G01X0035494Y0375673
G01X0037025Y037608
G01X0038586Y0376285
G01X003937Y037631
G01X0045Y037631
G01X0045001Y0376311
G01X0045001Y0376311
G01X0045002Y0376312
G01X0045002Y0376312
G01X0045001Y0376313
G01X0045001Y0376313
G01X0045Y0376313
G01X0038576Y0376313
G01X0037002Y0376106
G01X0035468Y0375695
G01X0034001Y0375088
G01X0032626Y0374294
G01X0031366Y0373327
G01X0030244Y0372204
G01X0029277Y0370945
G01X0028483Y036957
G01X0027876Y0368103
G01X0027465Y0366569
G01X0027257Y0364995
G01X0027257Y0338999
G01X0027258Y0338998
G01X002726Y0338998
G01X002726Y0338999
M16
G00X0137501Y0376311
M15
G01X0137501Y0376311
G01X0137502Y0376312
G01X0137502Y0376312
G01X0137501Y0376313
G01X0137501Y0376313
G01X01375Y0376313
G01X0056999Y0376313
G01X0056998Y0376313
G01X0056998Y0376311
G01X0056999Y037631
G01X01375Y037631
G01X0137501Y0376311
M16
G00X017979Y0338999
M15
G01X017979Y0364995
G01X0179583Y0366569
G01X0179172Y0368103
G01X0178564Y036957
G01X017777Y0370945
G01X0176803Y0372204
G01X0175681Y0373327
G01X0174421Y0374294
G01X0173046Y0375088
G01X0171579Y0375695
G01X0170045Y0376106
G01X0168471Y0376313
G01X0149499Y0376313
G01X0149498Y0376313
G01X0149498Y0376311
G01X0149499Y037631
G01X0167687Y037631
G01X0168491Y0376282
G01X0170061Y0376073
G01X017159Y037566
G01X0173052Y0375052
G01X0174422Y0374257
G01X0175677Y0373291
G01X0176795Y0372169
G01X0177757Y0370911
G01X0178546Y0369538
G01X017915Y0368074
G01X0179557Y0366544
G01X0179761Y0364983
G01X0179787Y0364201
G01X0179787Y0338999
G01X0179788Y0338998
G01X0179789Y0338998
G01X017979Y0338999
M16
G00X0215501Y0163073
M15
G01X0215501Y0163073
G01X0215502Y0163074
G01X0215502Y0163074
G01X0215501Y0163075
G01X0215501Y0163075
G01X0215445Y0163098
G01X0215445Y0163099
G01X0215287Y0163164
G01X0213733Y0164741
G01X0210828Y0168058
G01X0208192Y0171593
G01X0205841Y0175324
G01X0203791Y0179228
G01X0202053Y0183281
G01X0200638Y0187458
G01X0199555Y0191733
G01X0198811Y0196079
G01X0198411Y0200471
G01X0198356Y020488
G01X0198647Y020928
G01X0199283Y0213644
G01X0200259Y0217944
G01X0201569Y0222155
G01X0203205Y022625
G01X0205158Y0230204
G01X0207415Y0233992
G01X0209963Y0237592
G01X021278Y0240976
G01X0214282Y0242578
G01X0214446Y0242649
G01X0214445Y024265
G01X0214494Y024267
G01X02145Y0242673
G01X02145Y0242673
G01X0214501Y0242673
G01X0214501Y0242673
G01X0214502Y0242674
G01X0214502Y0242674
G01X0214501Y0242675
G01X0214501Y0242675
G01X02145Y0242676
G01X021447Y0242676
G01X0214411Y0242664
G01X0214355Y024264
G01X0214305Y0242606
G01X0212743Y0241004
G01X020992Y0237612
G01X0207371Y0234009
G01X0205112Y0230217
G01X0203159Y0226259
G01X0201521Y0222161
G01X0200211Y0217946
G01X0199235Y0213642
G01X01986Y0209274
G01X0198309Y020487
G01X0198365Y0200456
G01X0198767Y0196061
G01X0199512Y0191711
G01X0200597Y0187433
G01X0202014Y0183253
G01X0203754Y0179197
G01X0205808Y017529
G01X0208161Y0171556
G01X0210801Y0168018
G01X0213709Y0164699
G01X021531Y0163138
G01X0215359Y0163106
G01X0215413Y0163084
G01X0215471Y0163072
G01X02155Y0163072
G01X0215501Y0163073
M16
G00X0212486Y0117509
M15
G01X0213105Y0118128
G01X021344Y0118936
G01X021344Y0119812
G01X0213105Y012062
G01X0212486Y0121239
G01X0211678Y0121574
G01X0210802Y0121574
G01X0209994Y0121239
G01X0209375Y012062
G01X020904Y0119812
G01X020904Y0118936
G01X0209375Y0118128
G01X0209994Y0117509
G01X0210802Y0117174
G01X0211678Y0117174
G01X0212486Y0117509
M16
G00X0210892Y0199377
M15
G01X0211553Y0199651
G01X0212149Y0200049
G01X0212656Y0200556
G01X0213054Y0201151
G01X0213328Y0201813
G01X0213468Y0202516
G01X0213468Y0203232
G01X0213328Y0203935
G01X0213054Y0204597
G01X0212656Y0205192
G01X0212149Y0205699
G01X0211553Y0206097
G01X0210892Y0206371
G01X0210189Y0206511
G01X0209473Y0206511
G01X020877Y0206371
G01X0208108Y0206097
G01X0207512Y0205699
G01X0207006Y0205192
G01X0206608Y0204597
G01X0206333Y0203935
G01X0206194Y0203232
G01X0206194Y0202516
G01X0206333Y0201813
G01X0206608Y0201151
G01X0207006Y0200556
G01X0207512Y0200049
G01X0208108Y0199651
G01X020877Y0199377
G01X0209472Y0199237
G01X0210189Y0199237
G01X0210892Y0199377
M16
G00X0394001Y0
M15
G01X0394001Y0393701
G01X0393701Y0394001
G01X0Y0394001
G01X-00003Y0393701
G01X-00003Y0
G01X0Y-00003
G01X0393701Y-00003
G01X0394001Y0
M16
G00X0198452Y0315033
M15
G01X01989Y0313181
G01X0199633Y0311421
G01X0200632Y0309798
G01X0201873Y0308351
G01X0203325Y0307116
G01X0204952Y0306123
G01X0206714Y0305397
G01X0208568Y0304956
G01X0210422Y030481
G01X021046Y0304846
G01X0338776Y030481
G01X0340676Y0304963
G01X0342528Y0305412
G01X0344288Y0306145
G01X0345911Y0307144
G01X0347358Y0308384
G01X0348593Y0309836
G01X0349586Y0311463
G01X0350312Y0313226
G01X0350753Y031508
G01X0350899Y0316933
G01X0350863Y0316972
G01X0350899Y0364224
G01X0350746Y0366124
G01X0350297Y0367977
G01X0349564Y0369736
G01X0348565Y0371359
G01X0347324Y0372806
G01X0345873Y0374041
G01X0344246Y0375034
G01X0342483Y037576
G01X0340629Y0376202
G01X0338776Y0376347
G01X0338737Y0376312
G01X0210422Y0376347
G01X0208522Y0376194
G01X0206669Y0375746
G01X020491Y0375013
G01X0203286Y0374014
G01X020184Y0372773
G01X0200604Y0371321
G01X0199612Y0369694
G01X0198886Y0367932
G01X0198444Y0366078
G01X0198298Y0364224
G01X0198334Y0364186
G01X0198298Y0316933
G01X0198452Y0315033
M16
G00X0310253Y0017645
M15
G01X031208Y0019732
G01X0313618Y0022039
G01X0314843Y0024528
G01X0315732Y0027155
G01X031627Y0029876
G01X0316449Y0032644
G01X0316265Y0035411
G01X0315722Y0038131
G01X0314828Y0040756
G01X0313599Y0043243
G01X0312056Y0045548
G01X0310253Y0047603
G01X0309996Y0047612
G01X0309996Y0047674
G01X0216708Y0047706
G01X0216482Y0047603
G01X0214656Y0045516
G01X0213117Y0043209
G01X0211892Y004072
G01X0211003Y0038093
G01X0210465Y0035372
G01X0210286Y0032604
G01X021047Y0029837
G01X0211013Y0027117
G01X0211907Y0024492
G01X0213136Y0022005
G01X0214679Y00197
G01X0216482Y0017645
G01X0216739Y0017636
G01X0216739Y0017574
G01X0310027Y0017542
G01X0310253Y0017645
M16
G00X0310253Y0049141
M15
G01X031208Y0051228
G01X0313618Y0053535
G01X0314843Y0056024
G01X0315732Y0058651
G01X031627Y0061372
G01X0316449Y006414
G01X0316265Y0066907
G01X0315722Y0069627
G01X0314828Y0072253
G01X0313599Y0074739
G01X0312056Y0077044
G01X0310253Y00791
G01X0309996Y0079108
G01X0309996Y007917
G01X0216708Y0079202
G01X0216482Y00791
G01X0214656Y0077013
G01X0213117Y0074705
G01X0211892Y0072216
G01X0211003Y0069589
G01X0210465Y0066868
G01X0210286Y00641
G01X021047Y0061333
G01X0211013Y0058613
G01X0211907Y0055988
G01X0213136Y0053501
G01X0214679Y0051196
G01X0216482Y0049141
G01X0216739Y0049132
G01X0216739Y004907
G01X0310027Y0049038
G01X0310253Y0049141
M16
G00X0169601Y0110392
M15
G01X0171453Y0110841
G01X0173213Y0111574
G01X0174836Y0112573
G01X0176283Y0113814
G01X0177518Y0115265
G01X0178511Y0116892
G01X0179237Y0118655
G01X0179678Y0120509
G01X0179824Y0122362
G01X0179788Y0122401
G01X0179824Y0174287
G01X0179671Y0176187
G01X0179222Y017804
G01X0178489Y0179799
G01X017749Y0181422
G01X0176249Y0182869
G01X0174798Y0184104
G01X0173171Y0185097
G01X0171408Y0185823
G01X0169554Y0186265
G01X0167701Y018641
G01X0167662Y0186375
G01X0039385Y0186375
G01X0039347Y018641
G01X0037447Y0186257
G01X0035594Y0185809
G01X0033835Y0185076
G01X0032211Y0184077
G01X0030764Y0182836
G01X0029529Y0181384
G01X0028537Y0179757
G01X0027811Y0177995
G01X0027369Y0176141
G01X0027223Y0174287
G01X0027259Y0174249
G01X0027223Y0122362
G01X0027377Y0120462
G01X0027825Y011861
G01X0028558Y011685
G01X0029557Y0115227
G01X0030798Y011378
G01X003225Y0112545
G01X0033877Y0111552
G01X0035639Y0110826
G01X0037493Y0110385
G01X0039347Y0110239
G01X0039385Y0110275
G01X0167662Y0110275
G01X0167701Y0110239
G01X0169601Y0110392
M16
G00X0349364Y0080635
M15
G01X0350922Y0082216
G01X0353764Y0085594
G01X0356334Y0089184
G01X0358613Y0092965
G01X0360589Y0096913
G01X0362249Y0101004
G01X0363583Y0105212
G01X0364583Y0109512
G01X0365242Y0113877
G01X0365557Y0118281
G01X0365525Y0122696
G01X0365147Y0127094
G01X0364425Y013145
G01X0363363Y0135735
G01X0361969Y0139924
G01X036025Y014399
G01X0358217Y0147909
G01X0355884Y0151657
G01X0353263Y015521
G01X0350372Y0158546
G01X0348808Y0160088
G01X0348598Y0160174
G01X021474Y0160174
G01X0214526Y0160085
G01X0212969Y0158504
G01X0210126Y0155126
G01X0207557Y0151536
G01X0205277Y0147755
G01X0203301Y0143807
G01X0201641Y0139716
G01X0200307Y0135508
G01X0199308Y0131208
G01X0198649Y0126843
G01X0198334Y0122439
G01X0198366Y0118024
G01X0198744Y0113626
G01X0199466Y010927
G01X0200527Y0104985
G01X0201922Y0100796
G01X0203641Y009673
G01X0205673Y0092811
G01X0208007Y0089063
G01X0210628Y008551
G01X0213519Y0082174
G01X0215082Y0080632
G01X0215293Y0080546
G01X034915Y0080546
G01X0349364Y0080635
M16
G00X0167662Y0188275
M15
G01X0167701Y0188239
G01X0169601Y0188392
G01X0171453Y0188841
G01X0173213Y0189574
G01X0174836Y0190573
G01X0176283Y0191814
G01X0177518Y0193265
G01X0178511Y0194892
G01X0179237Y0196655
G01X0179678Y0198509
G01X0179825Y0200386
G01X0179788Y0272938
G01X0179824Y0272976
G01X0179671Y0274876
G01X0179222Y0276729
G01X0178489Y0278488
G01X017749Y0280111
G01X0176249Y0281558
G01X0174798Y0282793
G01X0173171Y0283786
G01X0171408Y0284512
G01X0169554Y0284954
G01X0167677Y02851
G01X0039385Y0285064
G01X0039347Y0285099
G01X0037447Y0284946
G01X0035594Y0284498
G01X0033835Y0283765
G01X0032211Y0282766
G01X0030764Y0281525
G01X0029529Y0280073
G01X0028537Y0278446
G01X0027811Y0276684
G01X0027369Y027483
G01X0027223Y0272953
G01X0027259Y0200401
G01X0027223Y0200362
G01X0027377Y0198462
G01X0027825Y019661
G01X0028558Y019485
G01X0029557Y0193227
G01X0030798Y019178
G01X003225Y0190545
G01X0033877Y0189552
G01X0035639Y0188826
G01X0037493Y0188385
G01X003937Y0188238
G01X0167662Y0188275
M16
G00X0349358Y0163074
M15
G01X0349358Y016315
G01X0349593Y0163157
G01X0352107Y0165878
G01X0354839Y0169345
G01X035729Y0173015
G01X0359446Y0176866
G01X0361293Y0180875
G01X036282Y0185016
G01X0364017Y0189264
G01X0364877Y0193593
G01X0365395Y0197976
G01X0365567Y0202386
G01X0365393Y0206796
G01X0364873Y0211179
G01X0364011Y0215507
G01X0362812Y0219755
G01X0361284Y0223895
G01X0359435Y0227903
G01X0357278Y0231753
G01X0354825Y0235422
G01X0352092Y0238888
G01X0349096Y0242128
G01X0348576Y0242608
G01X0348372Y0242688
G01X02145Y0242674
G01X02145Y0242598
G01X0214266Y0242591
G01X0211751Y023987
G01X0209019Y0236403
G01X0206568Y0232733
G01X0204412Y0228882
G01X0202565Y0224873
G01X0201039Y0220732
G01X0199842Y0216484
G01X0198981Y0212155
G01X0198464Y0207772
G01X0198291Y0203362
G01X0198465Y0198952
G01X0198985Y0194569
G01X0199847Y0190241
G01X0201046Y0185993
G01X0202574Y0181853
G01X0204423Y0177845
G01X020658Y0173995
G01X0209033Y0170326
G01X0211766Y016686
G01X0214763Y016362
G01X0215283Y016314
G01X0215486Y016306
G01X0349358Y0163074
M16
G00X0338737Y0244161
M15
G01X0338776Y0244125
G01X0340676Y0244278
G01X0342528Y0244727
G01X0344288Y024546
G01X0345911Y0246459
G01X0347358Y0247699
G01X0348593Y0249151
G01X0349586Y0250778
G01X0350312Y0252541
G01X0350753Y0254395
G01X03509Y0256272
G01X0350863Y0291548
G01X0350899Y0291587
G01X0350746Y0293486
G01X0350297Y0295339
G01X0349564Y0297098
G01X0348565Y0298722
G01X0347324Y0300169
G01X0345873Y0301404
G01X0344246Y0302396
G01X0342483Y0303122
G01X0340629Y0303564
G01X0338752Y0303711
G01X021046Y0303674
G01X0210422Y030371
G01X0208522Y0303556
G01X0206669Y0303108
G01X020491Y0302375
G01X0203286Y0301376
G01X020184Y0300135
G01X0200604Y0298684
G01X0199612Y0297056
G01X0198886Y0295294
G01X0198444Y029344
G01X0198298Y0291563
G01X0198334Y0256287
G01X0198298Y0256248
G01X0198452Y0254348
G01X01989Y0252496
G01X0199633Y0250736
G01X0200632Y0249113
G01X0201873Y0247666
G01X0203325Y0246431
G01X0204952Y0245438
G01X0206714Y0244712
G01X0208568Y0244271
G01X0210445Y0244124
G01X0338737Y0244161
M16
G00X0027259Y0031401
M15
G01X0027223Y0031362
G01X0027377Y0029462
G01X0027825Y002761
G01X0028558Y002585
G01X0029557Y0024227
G01X0030798Y002278
G01X003225Y0021545
G01X0033877Y0020552
G01X0035639Y0019826
G01X0037493Y0019385
G01X0039347Y0019239
G01X0039385Y0019275
G01X0167662Y0019275
G01X0167701Y0019239
G01X0169601Y0019392
G01X0171453Y0019841
G01X0173213Y0020574
G01X0174836Y0021573
G01X0176283Y0022814
G01X0177518Y0024265
G01X0178511Y0025892
G01X0179237Y0027655
G01X0179678Y0029509
G01X0179825Y0031386
G01X0179788Y0095749
G01X0179824Y0095787
G01X0179671Y0097687
G01X0179222Y009954
G01X0178489Y0101299
G01X017749Y0102922
G01X0176249Y0104369
G01X0174798Y0105604
G01X0173171Y0106597
G01X0171408Y0107323
G01X0169554Y0107765
G01X0167701Y010791
G01X0167662Y0107875
G01X0039385Y0107875
G01X0039347Y010791
G01X0037447Y0107757
G01X0035594Y0107309
G01X0033835Y0106576
G01X0032211Y0105577
G01X0030764Y0104336
G01X0029529Y0102884
G01X0028537Y0101257
G01X0027811Y0099495
G01X0027369Y0097641
G01X0027223Y0095764
G01X0027259Y0031401
M16
G00X0169601Y0287219
M15
G01X0171453Y0287668
G01X0173213Y0288401
G01X0174836Y02894
G01X0176283Y029064
G01X0177518Y0292092
G01X0178511Y0293719
G01X0179237Y0295482
G01X0179678Y0297336
G01X0179825Y0299213
G01X0179788Y0364186
G01X0179824Y0364224
G01X0179671Y0366124
G01X0179222Y0367977
G01X0178489Y0369736
G01X017749Y0371359
G01X0176249Y0372806
G01X0174798Y0374041
G01X0173171Y0375034
G01X0171408Y037576
G01X0169554Y0376202
G01X0167701Y0376347
G01X0167662Y0376312
G01X0039385Y0376312
G01X0039347Y0376347
G01X0037447Y0376194
G01X0035594Y0375746
G01X0033835Y0375013
G01X0032211Y0374014
G01X0030764Y0372773
G01X0029529Y0371321
G01X0028537Y0369694
G01X0027811Y0367932
G01X0027369Y0366078
G01X0027223Y0364201
G01X0027259Y0299228
G01X0027223Y0299189
G01X0027377Y0297289
G01X0027825Y0295437
G01X0028558Y0293677
G01X0029557Y0292054
G01X0030798Y0290607
G01X003225Y0289372
G01X0033877Y0288379
G01X0035639Y0287653
G01X0037493Y0287212
G01X0039347Y0287066
G01X0039385Y0287102
G01X0167662Y0287102
G01X0167701Y0287066
G01X0169601Y0287219
M16
M17
M30
