M48
;Layer_Color=9474304
;FILE_FORMAT=2:5
INCH,LZ
;TYPE=PLATED
T1F00S00C0.02800
;TYPE=NON_PLATED
%
T01
X005899Y0043663
X0077461Y0045575
X0116461Y0046075
X0135461Y0047075
Y0040575
X0149461Y0044575
X0135461Y0053075
X0135487Y0059508
X0135878Y0067149
X0138961Y0072075
X0144961
X0150461Y0072575
X0147461Y0091075
X0139961
X0133408Y0090436
X0125455Y0090437
X0117502Y0090449
X0109549Y0090497
X010207Y0090466
X0094302Y0090395
X0086383Y0089669
X0078473Y0090497
X0070521Y0090436
X0062568Y0090837
X0055961Y0092575
X0051461Y0102075
X0056461Y0072075
X0058461Y0066075
X0059068Y0059568
X005899Y0051616
X007668Y0053173
Y0061125
X0076961Y0067575
X0080455Y0072806
X0088408Y0072833
X0096124Y0070896
X0104635Y0070656
X0112157Y0070346
X0117335Y0068818
X0116461Y0061075
Y0054075
X011731Y0152578
X0109743Y015073
X0101823Y0151456
X0093894Y0150848
X008599Y015073
X0086142Y0145075
X0085642Y0139075
X0086142Y0132075
X0063642Y0133075
X0063142Y0140575
Y0147075
X0057642Y0149075
X0051642Y0139075
X0060426Y0168549
X0068642Y0169575
X0077142Y0170075
X0089406Y01683
X0099145Y016842
X0107065Y0167691
X0117581Y0166963
X0125391Y0168465
X0133343
X0141642Y0169075
X0149642
X0151142Y0176075
X0151979Y0143482
Y0135529
X0153142Y0127075
X0133142Y0138575
X0132642Y0145075
X0132997Y0150791
X0125045Y015073
X0129676Y020603
X0111986Y0205074
X0058142Y0175575
X0050642Y0179075
X0039172Y0202645
X0044461Y0102575
X00543Y0229654
Y0237607
X005419Y0245559
X0053831Y0253264
X0054831Y0274764
X0060123Y027103
X0066705Y0270917
X0077148Y0271944
X0091549Y0272377
X0101655Y027194
X0112549Y0272377
X0123571Y027103
X0131523
X0139476
X0147429
X0147909Y0253355
X0139956
X0132003
X0129889Y0245689
X0129721Y0237738
Y0229785
X0128756Y0221891
X0129592Y0213982
X0112392Y0213016
X0112318Y0220969
X0111986Y0228914
X0107932Y0234847
X0100831Y0233264
X009198Y0233348
X0081565Y0234855
X0073331Y0230764
X0081565Y0253355
X0097831Y0252764
X0104831
X0094331Y0207264
X0069059Y0293012
X0079059Y0310012
Y0318012
Y0331012
Y0338012
X0086559Y0339512
X0097059
X0109997
X0119559
X0129059
Y0330512
Y03185
Y0304944
X0151059
Y031542
Y0323512
Y0332012
Y033975
Y0358512
X0141726
X0129059
X0115059
X0101559
X0089102
X0079714
X0071059
X0063559
X0056059Y0361012
X0056559Y0339012
X0059559Y0331512
Y0321012
Y0313012
X0140059Y0293512
X021428Y0297374
X022728Y0295374
X023078Y0288874
X024178
X025128
X0260697
X027028Y0290136
X0279154Y0288874
X028878
X0297413
X030678
X031478
X032178Y0289374
X032328Y0297374
X0324488Y0327091
X0329988Y0327591
X0301488Y0324591
X0301988Y0331591
X0298023Y0337745
X0291912Y0337932
X0283971Y0338358
X0276038Y0337791
X0267988Y0336591
X0259988Y0336091
X0250976Y0338211
X0243039Y03377
X0242713Y0322771
X0222624Y0326145
X0224997Y03355
X023088Y0355694
X0238827Y0355375
X0246779Y0355436
X0252745Y0354029
X0260574Y0355428
X0268527Y0355436
X0276479
X0284424Y0355075
X0298012Y0355436
X0305964Y0355375
X0313911Y0355694
X0320988Y0357591
X032078Y0268374
X031578Y0260874
X030128Y0261374
X029578Y0268461
X028728
X028028
X027128
X0260465
X025278
X024378
X023628Y0260374
X022778
X021878Y0257874
X0203988Y0313591
X0226488Y0360591
X0336988Y0365091
X0157059Y0368512
X0041559Y0369012
M30
